<svg width="600" height="400" viewBox="0 0 600 400" fill="none" xmlns="http://www.w3.org/2000/svg">
<g clip-path="url(#clip0_32_1479)">
<path d="M512.33 166.29H357.986V126.785H512.33V166.29Z" fill="#E669A2"/>
<path d="M492.283 166.29H357.986V67.4845H492.283V166.29Z" fill="#F3BE26"/>
<path d="M436.799 166.29H357.986V28H436.799V166.29Z" fill="#EE9C34"/>
<path d="M452.304 166.29H357.986V43.4312H452.304V166.29Z" fill="#F3BC87"/>
<path d="M357.964 43.4544V166.278H436.789V43.4544H357.964Z" fill="#E3721C"/>
<path d="M278.956 166.29H357.986V186.045H278.956V166.29Z" fill="#AD1B02"/>
<path d="M357.964 67.4627V166.278H452.348V67.4627H357.964Z" fill="#E88D14"/>
<path d="M357.964 67.4627V166.278H436.789V67.4627H357.964Z" fill="#D85604"/>
<path d="M407.272 166.29H357.986V106.985H407.272V166.29Z" fill="#C14303"/>
<path d="M357.964 126.814V166.278H492.328V126.814H357.964Z" fill="#DB4E18"/>
<path d="M357.964 126.814V166.278H452.348V126.814H357.964Z" fill="#D1390D"/>
<path d="M357.964 126.814V166.278H436.789V126.814H357.964Z" fill="#C22303"/>
<path d="M357.964 126.814V166.278H407.32V126.814H357.964Z" fill="#AD1B02"/>
<path d="M375.17 240.695C361.723 243.085 354.551 253.245 354.551 270.876C354.551 288.805 364.113 300.758 378.158 300.758C385.031 300.758 391.007 298.368 403.558 292.092C403.558 306.735 403.558 306.735 403.558 306.735C388.318 313.906 379.353 315.699 367.4 315.699C353.953 315.699 344.391 312.412 336.92 304.344C329.151 296.575 324.967 286.415 324.967 274.76C324.967 249.36 344.092 231.73 371.883 231.73C390.111 231.73 402.96 240.396 402.96 252.648C402.96 260.716 396.984 266.393 388.318 266.393C383.836 266.393 380.25 264.899 375.17 262.21" fill="black"/>
<path d="M307.934 274.76C320.186 259.52 324.668 253.245 324.668 245.775C324.668 238.304 318.692 231.73 310.325 231.73C305.544 231.73 301.061 234.419 298.97 236.81C298.97 268.186 298.97 268.186 298.97 268.186C278.948 295.081 278.948 295.081 278.948 295.081C278.948 234.12 278.948 234.12 278.948 234.12C259.824 234.12 259.824 234.12 259.824 234.12C228.148 286.415 228.148 286.415 228.148 286.415C228.148 234.12 228.148 234.12 228.148 234.12C217.391 234.12 217.391 234.12 217.391 234.12C188.405 240.695 188.405 240.695 188.405 240.695C188.405 248.165 188.405 248.165 188.405 248.165C204.242 249.659 204.242 249.659 204.242 249.659C204.242 314.504 204.242 314.504 204.242 314.504C224.264 314.504 224.264 314.504 224.264 314.504C254.744 264.302 254.744 264.302 254.744 264.302C254.744 314.504 254.744 314.504 254.744 314.504C277.155 314.504 277.155 314.504 277.155 314.504" fill="black"/>
<path d="M127.744 304.344C130.134 304.344 130.732 304.344 132.226 304.344C148.362 304.344 157.327 294.483 157.327 274.761C157.327 258.325 150.155 249.361 136.708 249.361C134.915 249.361 132.226 249.659 127.744 250.556V304.344ZM127.744 339.605C140.892 342.594 140.892 342.594 140.892 342.594C140.892 350.064 140.892 350.064 140.892 350.064C89.1953 350.064 89.1953 350.064 89.1953 350.064C89.1953 342.594 89.1953 342.594 89.1953 342.594C101.148 339.605 101.148 339.605 101.148 339.605C101.148 249.361 101.148 249.361 101.148 249.361C88 249.361 88 249.361 88 249.361C88 241.89 88 241.89 88 241.89C119.377 232.328 119.377 232.328 119.377 232.328C127.744 232.328 127.744 232.328 127.744 232.328C127.744 243.085 127.744 243.085 127.744 243.085C142.386 234.121 147.466 232.626 155.235 232.626C172.567 232.626 185.715 248.763 185.715 271.175C185.715 296.874 168.085 314.504 141.191 314.504C138.202 314.504 133.122 314.205 127.744 313.906" fill="black"/>
</g>
<defs>
<clipPath id="clip0_32_1479">
<rect width="424.33" height="322.064" fill="white" transform="translate(88 28)"/>
</clipPath>
</defs>
</svg>
