<svg width="600" height="400" viewBox="0 0 600 400" fill="none" xmlns="http://www.w3.org/2000/svg">
<path d="M169.05 188.665C175.83 180.744 180.35 171.141 182.133 160.868C182.133 160.709 181.894 160.449 181.707 160.304C181.519 160.16 181.418 160.174 181.36 160.304C172.147 185.38 157.035 197.849 135.786 206.513C134.913 203.026 134.155 199.503 133.57 195.95C141.729 193.712 149.671 190.456 156.111 185.755C163.111 180.621 168.937 174.054 173.201 166.492C177.177 159.533 180.08 152.014 181.815 144.189C182.212 142.334 182.024 141.669 181.396 141.186L181.107 140.969C180.847 140.774 180.652 140.969 180.58 141.323C180.12 143.227 179.534 145.099 178.826 146.926C170.4 169.553 156.97 183.163 132.617 188.802C132.243 184.816 132.147 180.809 132.328 176.81C149.433 173.2 163.902 161.308 171.779 145.814C175.354 138.576 178.038 130.932 179.772 123.048C179.878 122.681 179.865 122.288 179.736 121.928C179.606 121.568 179.366 121.257 179.05 121.041C178.886 120.921 178.695 120.843 178.494 120.817C178.092 120.612 177.629 120.563 177.194 120.68C169.307 122.412 161.659 125.099 154.422 128.68C138.992 136.514 127.173 150.889 123.476 167.886C119.479 168.06 115.474 167.956 111.491 167.575C117.137 143.409 130.732 130.03 153.274 121.655C155.104 120.947 156.978 120.359 158.884 119.893C159.201 119.821 159.425 119.633 159.23 119.366L159.014 119.085C158.53 118.456 157.866 118.262 156.01 118.666C148.185 120.393 140.668 123.297 133.714 127.28C126.149 131.542 119.58 137.368 114.444 144.37C109.794 150.731 106.559 158.572 104.336 166.629C100.79 166.044 97.2887 165.286 93.8086 164.406C102.473 143.308 114.964 128.305 139.924 119.114C140.09 119.056 140.061 118.911 139.924 118.767C139.786 118.623 139.519 118.319 139.36 118.341C129.075 120.118 119.461 124.641 111.534 131.431C101.772 139.648 93.8013 150.037 87.5415 162.687C84.4368 161.77 81.3466 160.774 78.2852 159.72C69.029 156.536 45.2097 145.604 36.0113 137.713C33.1232 135.229 31.7297 134.897 30.1918 135.98C29.3672 136.671 28.6236 137.453 27.9752 138.312C24.3376 143.473 21.5694 149.195 19.7804 155.25C19.6432 155.77 20.5024 156.268 21.3688 155.886C25.6648 153.972 44.1989 162.045 49.5707 164.16C53.0436 165.525 56.5743 166.774 60.1121 167.951C67.4983 170.42 74.9423 172.665 82.4946 174.449C82.0469 175.638 81.6137 176.841 81.195 178.059C79.9242 181.784 78.8556 185.568 77.9676 189.351C60.1554 186.716 45.0148 182.131 35.181 178.008C28.2568 175.171 23.9247 174.47 20.9356 176.03C20.4374 176.297 19.9176 177.164 20.163 178.521C20.9392 182.864 22.3298 187.075 24.293 191.026C25.9464 194.369 26.8706 193.286 28.4518 192.918C30.6756 192.412 33.3254 193.098 35.4842 193.524C39.6791 194.34 43.8307 195.394 48.0112 196.304C57.1896 198.246 66.5009 199.496 75.8665 200.044C75.0795 205.098 74.5596 210.015 74.242 214.723C73.0434 214.672 71.8593 214.614 70.7041 214.542C57.0508 213.762 41.6358 209.965 36.6033 208.651C36.1051 208.521 36.134 209.95 36.4806 210.333C38.7044 212.845 43.0437 217.358 44.0256 218.448C46.432 221.229 49.5604 223.291 53.0653 224.405C57.5129 225.849 62.2276 226.116 66.8557 226.282C69.0218 226.362 71.39 226.398 73.8448 226.39C73.8448 228.939 73.8448 231.372 73.9532 233.611C74.1192 238.246 74.3936 242.997 75.8304 247.401C76.9374 250.902 78.9885 254.03 81.7581 256.441C82.8484 257.423 87.361 261.762 89.8736 263.986C90.2562 264.332 91.6931 264.368 91.5559 263.863C90.2418 258.809 86.444 243.416 85.6642 229.77C85.592 228.535 85.527 227.271 85.4765 225.993C90.1768 225.69 95.1154 225.177 100.148 224.398C100.692 233.832 101.95 243.211 103.91 252.455C104.812 256.636 105.866 260.787 106.682 264.989C107.108 267.155 107.801 269.791 107.289 272.022C106.92 273.603 105.845 274.52 109.18 276.181C113.133 278.141 117.343 279.531 121.686 280.311C123.043 280.549 123.909 280.036 124.177 279.531C125.758 276.52 125.057 272.202 122.205 265.307C118.083 255.437 113.469 240.231 110.834 222.34C114.737 221.437 118.593 220.338 122.386 219.048C123.512 218.658 124.627 218.258 125.729 217.849C127.512 225.43 129.772 232.925 132.227 240.354C133.404 243.899 134.653 247.423 136.025 250.896C138.133 256.267 146.205 274.809 144.299 279.098C143.909 279.964 144.407 280.823 144.934 280.686C150.99 278.902 156.71 276.133 161.866 272.491C162.724 271.845 163.506 271.104 164.198 270.282C165.281 268.737 164.92 267.358 162.465 264.462C154.573 255.257 143.635 231.437 140.458 222.181C139.389 219.081 138.391 215.953 137.462 212.795C150.313 206.55 160.768 198.528 169.05 188.665ZM151.851 135.337C158.349 130.283 165.902 126.673 173.692 124.117L177.497 122.919C177.122 124.122 176.742 125.325 176.357 126.529C173.779 134.319 170.212 141.879 165.136 148.37C156.978 158.81 145.729 164.478 133.527 166.738C135.837 154.622 141.483 143.453 151.851 135.337ZM122.047 178.196C121.787 181.806 121.736 185.416 121.823 189.077C121.823 189.568 121.823 190.051 121.88 190.521C117.599 190.983 113.216 191.243 108.826 191.38C108.942 186.968 109.231 182.593 109.707 178.312L111.397 178.376C114.942 178.492 118.509 178.449 122.047 178.196ZM89.8303 176.03C93.8013 176.752 97.7724 177.395 101.83 177.806C101.007 182.55 100.473 187.192 100.155 191.394C96.3212 191.286 92.4945 191.062 88.7328 190.672C88.1046 190.615 87.4909 190.542 86.8772 190.477C87.5599 185.605 88.5462 180.78 89.8303 176.03ZM85.2382 215.019C85.2382 210.318 85.4187 205.445 85.7942 200.521C90.4512 200.636 95.101 200.622 99.7363 200.521C99.6352 205.163 99.6208 209.82 99.7363 214.477C94.8049 214.824 89.9386 215.019 85.2382 215.019ZM109.715 213.423C109.657 212.874 109.599 212.333 109.541 211.777C109.173 207.936 108.949 204.037 108.819 200.124C113.043 199.813 117.649 199.286 122.393 198.477C122.805 202.513 123.411 206.521 124.162 210.499C119.41 211.76 114.585 212.727 109.715 213.394V213.423Z" fill="url(#paint0_linear_32_1513)"/>
<path d="M226.623 181.127L230.277 177.135L243.309 192.304H248.356L232.782 174.405L247.193 158.673H242.558L226.623 176.376V158.673H222.992V192.304H226.623V181.127Z" fill="#13182B"/>
<path d="M277.352 188.875H259.757V177.228H275.237V173.698H259.757V162.102H277.352V158.673H256.125V192.304H277.352V188.875Z" fill="#13182B"/>
<path d="M291.272 164.658L302.767 181.77L315.02 164.572V192.304H318.651V158.673H314.724L302.998 176.196L291.576 158.673H287.641V192.304H291.272V164.658Z" fill="#13182B"/>
<path d="M350.68 188.875H333.077V177.228H348.557V173.698H333.077V162.102H350.68V158.673H329.445V192.304H350.68V188.875Z" fill="#13182B"/>
<path d="M364.6 163.943L384.716 192.304H388.802V158.673H385.171V186.99L365.106 158.673H360.969V192.304H364.6V163.943Z" fill="#13182B"/>
<path d="M411.849 192.304V162.102H423.697V158.673H396.318V162.102H408.217V192.304H411.849Z" fill="#13182B"/>
<path d="M452.448 188.875H434.845V177.228H450.325V173.698H434.845V162.102H452.448V158.673H431.22V192.304H452.448V188.875Z" fill="#13182B"/>
<path d="M466.368 178.745H474.938L483.711 192.304H488L478.845 178.34C479.922 178.16 480.958 177.783 481.899 177.228C483.336 176.359 484.505 175.11 485.278 173.618C486.103 172.014 486.517 170.231 486.483 168.427C486.483 165.202 485.653 162.764 483.993 161.113C482.332 159.462 479.851 158.658 476.549 158.702H462.736V192.333H466.346L466.368 178.745ZM466.368 162.102H476.151C478.736 162.102 480.5 162.699 481.444 163.893C482.459 165.287 482.968 166.986 482.888 168.709C482.888 170.86 482.257 172.499 480.996 173.626C479.74 174.752 477.711 175.315 474.924 175.315H466.404L466.368 162.102Z" fill="#13182B"/>
<path d="M500.411 158.673H496.78V192.304H500.411V158.673Z" fill="#13182B"/>
<path d="M515.898 181.806H530.411L534.447 192.29H538.331L525.003 158.702H521.393L507.985 192.333H511.913L515.898 181.806ZM523.155 162.969L529.068 178.326H517.241L523.155 162.969Z" fill="#13182B"/>
<path d="M549.479 163.943L569.595 192.304H573.681V158.673H570.05V186.99L549.985 158.673H545.848V192.304H549.479V163.943Z" fill="#13182B"/>
<path d="M243.591 203.185C241.593 201.409 238.705 200.518 234.926 200.513H222.992V234.145H226.602V221.286H234.919C238.683 221.286 241.571 220.395 243.583 218.614C245.595 216.833 246.594 214.263 246.58 210.903C246.585 207.539 245.588 204.966 243.591 203.185ZM242.681 213.293C242.489 214.122 242.1 214.892 241.547 215.539C240.859 216.302 239.979 216.868 238.999 217.177C237.539 217.63 236.014 217.835 234.486 217.784H226.623V203.994H234.486C236.014 203.943 237.539 204.148 238.999 204.6C239.979 204.91 240.859 205.476 241.547 206.239C242.11 206.895 242.504 207.678 242.695 208.521C243.071 210.111 243.071 211.767 242.695 213.358L242.681 213.293Z" fill="#13182B"/>
<path d="M274.623 230.722H257.027V219.069H272.507V215.539H257.027V203.943H274.623V200.513H253.395V234.145H274.623V230.722Z" fill="#13182B"/>
<path d="M301.345 219.069C302.785 218.204 303.956 216.954 304.724 215.459C305.554 213.857 305.971 212.072 305.937 210.268C305.937 207.038 305.104 204.6 303.438 202.954C301.773 201.308 299.294 200.485 296.002 200.485H282.19V234.116H285.8V220.585H294.363L303.142 234.145H307.431L298.29 220.181C299.369 220.003 300.404 219.626 301.345 219.069ZM285.821 203.907H295.597C298.189 203.907 299.929 204.506 300.897 205.697C301.899 207.096 302.396 208.795 302.305 210.513C302.305 212.665 301.674 214.304 300.413 215.43C299.157 216.557 297.128 217.12 294.341 217.12H285.821V203.907Z" fill="#13182B"/>
<path d="M313.503 234.145H324.037C329.284 234.145 333.226 232.735 335.864 229.914C338.502 227.093 339.821 222.891 339.821 217.307C339.821 211.729 338.502 207.534 335.864 204.723C333.226 201.912 329.284 200.509 324.037 200.513H313.503V234.145ZM317.113 203.892H323.77C328.074 203.892 331.202 204.968 333.157 207.12C335.111 209.271 336.086 212.667 336.081 217.307C336.081 221.943 335.106 225.339 333.157 227.495C331.207 229.652 328.078 230.725 323.77 230.715H317.113V203.892Z" fill="#13182B"/>
<path d="M347.286 234.145L351.322 223.683H365.835L369.871 234.167H373.755L360.384 200.513H356.774L343.358 234.145H347.286ZM358.586 204.824L364.499 220.181H352.665L358.586 204.824Z" fill="#13182B"/>
<path d="M392.109 220.383H400.224V229.964C399.004 230.375 397.754 230.689 396.484 230.903C395.183 231.107 393.867 231.208 392.549 231.206C390.134 231.299 387.735 230.788 385.567 229.719C383.704 228.717 382.252 227.092 381.466 225.127C380.515 222.636 380.071 219.98 380.159 217.315C380.07 214.657 380.514 212.007 381.466 209.524C382.256 207.586 383.692 205.981 385.531 204.983C387.697 203.907 390.096 203.386 392.513 203.466C394.29 203.464 396.057 203.73 397.755 204.253C399.44 204.762 401.091 205.375 402.701 206.087V202.311C401.058 201.538 399.33 200.961 397.553 200.593C395.762 200.223 393.938 200.036 392.109 200.037C389.117 199.943 386.151 200.612 383.488 201.979C381.156 203.273 379.32 205.305 378.268 207.755C377.018 210.79 376.425 214.056 376.528 217.336C376.427 220.624 377.02 223.896 378.268 226.939C379.328 229.385 381.162 231.414 383.488 232.715C386.147 234.093 389.116 234.762 392.109 234.658C394.143 234.663 396.172 234.445 398.159 234.008C400.125 233.562 402.035 232.901 403.856 232.037V216.874H392.109V220.383Z" fill="#13182B"/>
<path d="M416.621 223.683H431.141L435.177 234.166H439.083L425.719 200.535H422.109L408.694 234.166H412.629L416.621 223.683ZM423.921 204.824L429.834 220.181H417.964L423.921 204.824Z" fill="#13182B"/>
<path d="M447.979 200.513H443.849V234.145H447.473V205.784L467.596 234.145H471.675V200.513H468.051V228.831L447.979 200.513Z" fill="#13182B"/>
<path d="M494.065 220.383H502.187V229.964C500.952 230.364 499.687 230.665 498.404 230.867C497.102 231.071 495.787 231.172 494.469 231.17C492.054 231.263 489.654 230.752 487.487 229.683C485.644 228.679 484.207 227.066 483.422 225.12C482.471 222.629 482.027 219.973 482.115 217.308C482.025 214.649 482.47 212 483.422 209.517C484.214 207.58 485.649 205.976 487.487 204.976C489.656 203.91 492.054 203.399 494.469 203.488C496.246 203.486 498.013 203.751 499.711 204.275C501.396 204.784 503.047 205.397 504.657 206.109V202.333C503.014 201.56 501.286 200.983 499.509 200.615C497.718 200.244 495.894 200.058 494.065 200.059C491.075 199.958 488.108 200.619 485.444 201.979C483.112 203.273 481.276 205.305 480.224 207.755C478.974 210.79 478.381 214.056 478.484 217.336C478.383 220.624 478.976 223.896 480.224 226.939C481.284 229.385 483.118 231.414 485.444 232.715C488.103 234.093 491.072 234.762 494.065 234.658C496.099 234.663 498.128 234.445 500.115 234.008C502.081 233.562 503.991 232.901 505.812 232.037V216.874H494.065V220.383Z" fill="#13182B"/>
<path d="M524.021 200.513L510.606 234.145H514.541L518.577 223.683H533.09L537.126 234.167H541.01L527.646 200.535L524.021 200.513ZM519.949 220.181L525.869 204.824L531.783 220.181H519.949Z" fill="#13182B"/>
<path d="M549.429 205.784L569.551 234.145H573.631V200.513H570.006V228.831L549.934 200.513H545.797V234.145H549.429V205.784Z" fill="#13182B"/>
<path d="M236.081 257.495C236.889 256.937 237.534 256.174 237.951 255.285C238.384 254.367 238.603 253.362 238.594 252.347C238.594 250.306 238.028 248.768 236.897 247.733C235.766 246.698 234.137 246.183 232.009 246.188H222.934V266.621H226.305V258.903H230.637L235.417 266.621H239.612L234.132 258.34C234.831 258.189 235.494 257.902 236.081 257.495ZM226.305 249.033H231.612C232.099 248.982 232.591 249.039 233.054 249.198C233.516 249.358 233.939 249.617 234.291 249.957C234.853 250.702 235.13 251.624 235.071 252.556C235.11 253.052 235.041 253.55 234.869 254.016C234.697 254.482 234.426 254.905 234.074 255.257C233.211 255.913 232.137 256.229 231.056 256.145H226.305V249.033Z" fill="#595A5C"/>
<path d="M245.764 266.621H259.157V263.776H249.136V257.827H257.872V254.953H249.165V249.033H259.157V246.188H245.764V266.621Z" fill="#595A5C"/>
<path d="M279.677 247.813C278.396 246.73 276.591 246.188 274.262 246.188H266.175V266.621H269.547V259.3H274.262C276.591 259.3 278.396 258.73 279.677 257.589C280.334 256.953 280.846 256.182 281.176 255.33C281.506 254.477 281.648 253.563 281.59 252.65C281.59 250.506 280.962 248.896 279.677 247.813ZM277.893 254.123C277.781 254.56 277.565 254.963 277.265 255.3C276.919 255.687 276.475 255.974 275.98 256.13C275.279 256.347 274.547 256.445 273.814 256.419H269.525V249.033H273.814C274.549 249.009 275.282 249.114 275.98 249.343C276.475 249.508 276.918 249.799 277.265 250.188C277.57 250.533 277.786 250.947 277.893 251.394C278.009 251.844 278.067 252.308 278.067 252.773C278.068 253.229 278.01 253.683 277.893 254.123Z" fill="#595A5C"/>
<path d="M301.626 258.564C301.626 260.484 301.193 261.914 300.326 262.838C299.835 263.322 299.246 263.697 298.598 263.937C297.951 264.178 297.261 264.278 296.572 264.231C295.88 264.285 295.185 264.188 294.535 263.947C293.884 263.707 293.293 263.328 292.803 262.838C291.965 261.914 291.547 260.484 291.547 258.564V246.188H288.081V258.6C288.081 261.391 288.817 263.5 290.29 264.924C291.763 266.349 293.888 267.059 296.666 267.054C298.18 267.095 299.683 266.774 301.048 266.116C302.266 265.494 303.256 264.503 303.879 263.285C304.585 261.827 304.927 260.219 304.875 258.6V246.188H301.626V258.564Z" fill="#595A5C"/>
<path d="M325.496 256.253C325.111 256.028 324.704 255.842 324.283 255.697L325.005 255.192C325.501 254.845 325.923 254.403 326.247 253.892C326.623 253.234 326.804 252.483 326.767 251.726C326.799 250.692 326.55 249.669 326.045 248.766C325.508 247.9 324.709 247.23 323.763 246.852C322.479 246.36 321.109 246.132 319.734 246.181H312.167V266.614H320.442C321.769 266.638 323.09 266.432 324.348 266.007C325.41 265.651 326.335 264.976 326.998 264.072C327.671 263.07 328.005 261.878 327.951 260.672C327.984 259.722 327.746 258.783 327.265 257.964C326.824 257.258 326.216 256.67 325.496 256.253ZM315.539 249.033H319.871C320.766 248.99 321.654 249.208 322.427 249.661C322.953 250.186 323.285 250.873 323.372 251.611C323.458 252.348 323.293 253.094 322.904 253.726C322.584 254.106 322.156 254.378 321.676 254.506C321.177 254.637 320.662 254.702 320.146 254.701H315.546L315.539 249.033ZM323.922 262.563C323.543 263.047 323.015 263.392 322.42 263.545C321.766 263.723 321.091 263.81 320.413 263.805H315.568V257.43H320.319C320.817 257.43 321.314 257.466 321.806 257.538C322.279 257.601 322.736 257.748 323.156 257.971C323.56 258.185 323.895 258.508 324.124 258.903C324.397 259.482 324.522 260.119 324.487 260.759C324.451 261.398 324.257 262.018 323.922 262.563Z" fill="#595A5C"/>
<path d="M337.821 246.188H334.42V266.621H347.561V263.748H337.821V246.188Z" fill="#595A5C"/>
<path d="M356.694 246.188H353.293V266.628H356.694V246.188Z" fill="#595A5C"/>
<path d="M379.893 246.188H375.604L367.387 256.101V246.188H363.987V266.621H367.387V259.979L369.264 257.914L376.124 266.621H380.535L371.589 255.343L379.893 246.188Z" fill="#595A5C"/>
<path d="M400.918 246.188H397.517V266.628H400.918V246.188Z" fill="#595A5C"/>
<path d="M422.311 261.206L411.459 246.188H408.217V266.621H411.43V251.43L422.491 266.621H425.524V246.188H422.311V261.206Z" fill="#595A5C"/>
<path d="M439.993 246.188H432.823V266.621H439.993C443.3 266.621 445.762 265.759 447.379 264.036C448.997 262.313 449.803 259.764 449.798 256.39C449.798 253.021 448.992 250.477 447.379 248.758C445.767 247.04 443.305 246.183 439.993 246.188ZM444.708 262.015C443.625 263.184 441.942 263.776 439.654 263.776H436.195V249.004H439.661C441.952 249.004 443.637 249.596 444.715 250.78C445.793 251.964 446.323 253.834 446.303 256.39C446.303 258.96 445.772 260.835 444.708 262.015Z" fill="#595A5C"/>
<path d="M470.173 247.011C468.574 246.193 466.793 245.793 464.996 245.849C461.906 245.849 459.552 246.737 457.935 248.513C456.318 250.289 455.504 252.937 455.495 256.455C455.425 258.474 455.802 260.483 456.599 262.34C457.272 263.823 458.407 265.049 459.834 265.834C461.43 266.649 463.205 267.049 464.996 266.997C468.101 266.997 470.465 266.109 472.087 264.332C473.709 262.556 474.522 259.93 474.527 256.455C474.594 254.43 474.212 252.416 473.408 250.556C472.738 249.058 471.604 247.816 470.173 247.011ZM470.375 260.802C470.015 261.83 469.312 262.702 468.383 263.271C467.33 263.784 466.175 264.051 465.004 264.051C463.833 264.051 462.677 263.784 461.625 263.271C460.688 262.707 459.978 261.834 459.617 260.802C458.741 257.951 458.741 254.902 459.617 252.051C459.984 251.024 460.693 250.155 461.625 249.589C462.655 249.021 463.821 248.744 464.996 248.787C466.175 248.741 467.345 249.012 468.383 249.574C469.307 250.138 470.011 251.002 470.375 252.022C470.861 253.425 471.084 254.906 471.033 256.39C471.085 257.888 470.862 259.384 470.375 260.802Z" fill="#595A5C"/>
<path d="M495.09 261.206L484.238 246.188H480.989V266.621H484.209V251.43L495.271 266.621H498.303V246.188H495.09V261.206Z" fill="#595A5C"/>
<path d="M505.595 266.621H518.989V263.776H508.967V257.827H517.704V254.953H508.996V249.033H518.989V246.188H505.595V266.621Z" fill="#595A5C"/>
<path d="M537.436 256.773C536.855 256.318 536.216 255.942 535.537 255.654C534.815 255.35 534.093 255.069 533.328 254.831C532.563 254.592 531.718 254.289 531.061 254.015C530.481 253.792 529.962 253.435 529.544 252.975C529.168 252.489 528.978 251.885 529.01 251.271C528.996 250.757 529.146 250.251 529.436 249.827C529.755 249.396 530.191 249.065 530.693 248.874C531.37 248.631 532.09 248.528 532.808 248.571C533.502 248.583 534.191 248.685 534.859 248.874C535.45 249.054 536.021 249.296 536.562 249.596C537.082 249.885 537.602 250.188 538.108 250.513V247.206C537.479 246.896 536.887 246.636 536.346 246.426C535.794 246.207 535.22 246.047 534.635 245.95C533.918 245.839 533.194 245.789 532.469 245.798C531.378 245.771 530.292 245.942 529.263 246.304C528.45 246.584 527.71 247.043 527.097 247.647C526.57 248.187 526.158 248.828 525.884 249.531C525.63 250.188 525.495 250.885 525.487 251.589C525.463 252.419 525.621 253.244 525.949 254.007C526.229 254.631 526.649 255.182 527.176 255.618C527.695 256.042 528.271 256.392 528.887 256.657C529.523 256.932 530.165 257.192 530.822 257.444C531.682 257.748 532.483 258.051 533.241 258.361C533.916 258.615 534.536 258.994 535.068 259.48C535.303 259.702 535.489 259.971 535.613 260.27C535.738 260.568 535.798 260.89 535.79 261.213C535.811 261.622 535.738 262.029 535.577 262.405C535.415 262.78 535.17 263.114 534.859 263.379C534.031 263.959 533.028 264.234 532.021 264.159C530.774 264.17 529.535 263.963 528.36 263.545C527.319 263.186 526.344 262.659 525.472 261.986V265.35C526.107 265.685 526.761 265.984 527.429 266.246C528.114 266.497 528.823 266.676 529.544 266.78C530.44 266.897 531.342 266.952 532.245 266.946C533.641 267.006 535.028 266.705 536.274 266.072C537.238 265.56 538.028 264.77 538.541 263.805C539.017 262.881 539.265 261.856 539.263 260.816C539.287 259.981 539.114 259.153 538.757 258.397C538.434 257.77 537.984 257.217 537.436 256.773Z" fill="#595A5C"/>
<path d="M549.14 246.188H545.739V266.628H549.14V246.188Z" fill="#595A5C"/>
<path d="M570.288 266.621H573.84L566.086 246.188H562.476L554.533 266.621H557.905L559.912 261.076H568.266L570.288 266.621ZM560.902 258.318L564.071 249.553L567.263 258.34L560.902 258.318Z" fill="#595A5C"/>
<defs>
<linearGradient id="paint0_linear_32_1513" x1="62.8052" y1="237.546" x2="179.201" y2="121.15" gradientUnits="userSpaceOnUse">
<stop stop-color="#1751A4"/>
<stop offset="0.52" stop-color="#307F75"/>
<stop offset="1" stop-color="#49AB48"/>
</linearGradient>
</defs>
</svg>
