<svg width="600" height="400" viewBox="0 0 600 400" fill="none" xmlns="http://www.w3.org/2000/svg">
<path d="M538.392 194.55L514.281 188.343L509.596 198.34H506.374L500.406 194.55L505.389 186.612L495.273 184.016L490.349 168.41L483.188 140.032H476.772L463.434 130.066L455.526 140.032L450.125 161.457L448.543 161.815L445.44 148.059L442.754 145.254V140.152H437.98L428.491 130.185L421.866 136.72L385.789 132.304L374.51 140.062L350.846 130.185H314.77L308.802 140.152H306.981V141.017L287.167 130.185L279.26 140.092H239.035L238.379 140.271C237.161 140.416 235.974 140.749 234.858 141.256L233.216 141.703L217.55 130.125H163.45L159.571 138.063L155.96 130.125H111.617L103.77 140.092V190.432L88.8494 197.057L88.4317 198.489H76.227C75.0632 198.489 73.9592 198.489 72.9147 198.489L70.9453 191.894L62.7691 202.368C61.3815 203.783 60.3576 205.514 59.7851 207.411C59.2071 209.773 58.9462 212.201 59.0092 214.632V251.336C58.9849 253.711 59.2759 256.079 59.8746 258.378C60.4607 260.419 61.5719 262.271 63.0973 263.749C64.6576 265.208 66.5702 266.236 68.6476 266.733C70.9647 267.281 73.3387 267.551 75.7197 267.539H106.097L113.826 260.019C114.457 261.285 115.272 262.451 116.243 263.48C117.575 264.828 119.173 265.885 120.935 266.583C122.696 267.282 124.584 267.607 126.478 267.539H157.691C158.692 267.546 159.691 267.456 160.675 267.27C163.464 266.812 166.069 265.582 168.195 263.719L168.433 263.51L175.923 259.84V267.539H202.242L208.777 260.526L214.178 271L226.622 257.333V267.389H253.06L256.641 262.884V267.389H282.96L287.526 258.736C288.154 260.555 289.173 262.215 290.51 263.6C292.077 265.064 294.001 266.093 296.09 266.584C298.402 267.162 300.778 267.443 303.162 267.419H350.608L354.756 251.962C354.763 254.11 355.054 256.247 355.621 258.318C356.205 260.321 357.295 262.139 358.784 263.6C360.337 265.118 362.295 266.154 364.424 266.584C366.726 267.16 369.093 267.441 371.466 267.419H402.172L411.124 262.048C411.478 262.533 411.867 262.992 412.287 263.421C413.613 264.78 415.209 265.846 416.972 266.55C418.735 267.254 420.626 267.581 422.523 267.509H453.676C455.618 267.504 457.545 267.171 459.375 266.524H459.554C461.242 265.855 462.806 264.907 464.18 263.719L465.075 262.824L471.789 255.245V267.628H497.899L503.211 258.945L508.104 267.628H532.723L540.63 256.945L538.392 194.55Z" fill="#040A16"/>
<path d="M134.025 130.125H111.615V186.732H134.025V130.125Z" fill="black"/>
<path d="M164.886 186.732L157.784 174.139V186.732H135.553V130.125H156.142L163.304 143.016V130.125H185.565V186.732H164.886Z" fill="black"/>
<path d="M186.852 186.702V130.006H220.661C222.669 129.961 224.674 130.171 226.629 130.633H226.808C228.517 131.173 230.093 132.068 231.433 133.259C232.724 134.642 233.629 136.34 234.059 138.182C234.599 140.124 234.85 142.135 234.805 144.15V171.633C235.049 173.929 234.898 176.251 234.358 178.496C233.928 180.304 233.021 181.963 231.732 183.3C230.381 184.784 228.612 185.825 226.659 186.284C224.707 186.769 222.701 187 220.691 186.971L186.852 186.702ZM213.052 166.769V149.939H208.904V166.769H213.052Z" fill="black"/>
<path d="M248.284 186.732C246.69 186.793 245.101 186.528 243.613 185.953C242.125 185.379 240.77 184.506 239.63 183.39H239.481C237.47 181.057 236.405 178.055 236.497 174.975V142.151C236.399 138.999 237.521 135.931 239.63 133.587C240.767 132.471 242.124 131.603 243.613 131.038C245.103 130.473 246.693 130.224 248.284 130.305H273.857C275.449 130.224 277.039 130.481 278.525 131.057C280.011 131.632 281.359 132.515 282.481 133.647C283.574 134.758 284.432 136.079 285.001 137.53C285.57 138.982 285.84 140.533 285.793 142.091V174.916C285.833 176.6 285.464 178.269 284.719 179.779C284.097 181.167 283.216 182.423 282.123 183.48C280.933 184.556 279.53 185.369 278.005 185.867C276.48 186.443 274.86 186.727 273.23 186.702H248.284V186.732ZM263.503 166.769V149.969H258.639V166.769H263.503Z" fill="black"/>
<path d="M316.5 186.731L309.338 174.079V186.731H287.047V130.154H307.667L314.769 143.016V130.154H337.149V186.731H316.5Z" fill="black"/>
<path d="M338.348 186.731V130.154H378.125L382.154 149.998H378.334V166.768H382.452L377.588 186.731H338.348Z" fill="black"/>
<path d="M385.321 186.732L381.293 166.769H387.947C386.426 166.298 385.063 165.417 384.01 164.222C382.957 163.027 382.254 161.564 381.979 159.995C381.498 158.114 381.278 156.176 381.323 154.236V144.21C381.269 142.196 381.51 140.185 382.039 138.242C382.399 136.367 383.326 134.648 384.695 133.318C386.087 131.974 387.839 131.062 389.738 130.692C391.692 130.233 393.7 130.043 395.706 130.125H423.069L427.187 149.969H419.22C420.85 150.369 422.35 151.181 423.577 152.326C424.898 153.637 425.827 155.291 426.262 157.1C426.727 159.004 426.938 160.96 426.889 162.919V172.766C426.934 174.782 426.682 176.792 426.143 178.734C425.662 180.52 424.702 182.14 423.368 183.419C422.009 184.484 420.444 185.257 418.772 185.687C416.82 186.165 414.814 186.386 412.804 186.344L385.321 186.732Z" fill="black"/>
<path d="M450.696 130.185H428.436V186.732H450.696V130.185Z" fill="black"/>
<path d="M482.177 186.732L481.192 181.361H473.792L472.688 186.732H449.383L463.617 130.185H491.308L505.602 186.881L482.177 186.732ZM477.522 164.083L477.373 163.576V164.232L477.522 164.083Z" fill="black"/>
<path d="M379.591 257.512C377.22 257.53 374.855 257.26 372.549 256.707C370.424 256.266 368.469 255.231 366.909 253.723C365.416 252.248 364.318 250.422 363.716 248.411C363.099 246.106 362.808 243.725 362.851 241.339V204.666C362.785 202.166 363.097 199.672 363.776 197.265C364.409 195.223 365.537 193.368 367.058 191.864C368.691 190.551 370.598 189.623 372.638 189.149H372.847C375.171 188.733 377.529 188.534 379.89 188.552H409.73L414.653 211.857H389.349V234.386H415.847L410.088 257.721L379.591 257.512Z" fill="black"/>
<path d="M430.314 257.513C428.417 257.585 426.526 257.258 424.763 256.554C423 255.85 421.405 254.784 420.079 253.425C418.814 252.095 417.827 250.525 417.176 248.809C416.525 247.092 416.224 245.263 416.29 243.428V202.518C416.225 200.658 416.529 198.804 417.184 197.063C417.84 195.321 418.834 193.727 420.109 192.372C421.435 191.026 423.028 189.972 424.786 189.278C426.543 188.585 428.427 188.266 430.314 188.344H462.303C464.182 188.274 466.056 188.588 467.81 189.265C469.565 189.942 471.163 190.969 472.509 192.282C475.075 195.027 476.458 198.672 476.358 202.428V243.428C476.363 245.365 475.977 247.283 475.224 249.068C474.42 250.702 473.328 252.177 472.001 253.425C470.631 254.616 469.066 255.565 467.376 256.23H467.167C465.345 256.867 463.428 257.19 461.498 257.185L430.314 257.513ZM450.188 234.178V211.529H442.459V234.178H450.188Z" fill="black"/>
<path d="M515.956 257.511L505.75 239.428V257.511H479.67V188.342H504.109L514.285 206.813V188.342H540.574V257.511H515.956Z" fill="black"/>
<path d="M83.6576 257.513C81.2667 257.527 78.8826 257.257 76.5556 256.707C74.4716 256.228 72.5547 255.197 71.0054 253.723C69.4799 252.245 68.3687 250.393 67.7826 248.352C67.1979 246.051 66.9071 243.684 66.9172 241.31V204.666C66.9322 202.183 67.2835 199.714 67.9617 197.326C68.4824 195.293 69.5089 193.424 70.9457 191.895V191.745C72.6983 190.379 74.7393 189.43 76.9137 188.97C79.2169 188.549 81.5551 188.349 83.8963 188.374H113.737L118.78 211.679H93.4452V234.208H120.003L114.035 257.543L83.6576 257.513Z" fill="black"/>
<path d="M134.418 257.513C132.523 257.592 130.632 257.272 128.868 256.573C127.105 255.874 125.508 254.811 124.183 253.454C122.914 252.119 121.923 250.546 121.267 248.825C120.611 247.103 120.304 245.269 120.363 243.428V202.518C120.253 198.771 121.613 195.129 124.153 192.372C125.488 191.021 127.091 189.965 128.859 189.271C130.627 188.578 132.52 188.261 134.418 188.344H166.436C168.313 188.282 170.182 188.602 171.931 189.285C173.68 189.967 175.273 190.997 176.612 192.312C177.916 193.666 178.938 195.265 179.619 197.017C180.3 198.769 180.627 200.639 180.581 202.518V243.428C180.61 245.406 180.191 247.364 179.357 249.158C178.608 250.908 177.476 252.468 176.045 253.723C174.662 254.883 173.1 255.81 171.42 256.468C169.575 257.149 167.626 257.502 165.661 257.513H134.418ZM154.172 234.178V211.529H146.593V234.178H154.172Z" fill="black"/>
<path d="M210.245 237.668V257.512H183.717V188.342H213.915L222.27 208.037L231.073 188.342H261.033V257.512H234.594V237.34L222.151 261.122L210.245 237.668Z" fill="black"/>
<path d="M290.931 188.342H264.612V257.512H290.931V188.342Z" fill="black"/>
<path d="M311.253 257.512C308.872 257.528 306.497 257.257 304.181 256.706C302.107 256.2 300.196 255.173 298.63 253.722C297.243 252.214 296.222 250.407 295.646 248.44C295.066 246.169 294.785 243.832 294.811 241.488V204.665C294.76 202.162 295.092 199.667 295.795 197.265C296.384 195.202 297.518 193.336 299.078 191.864C300.704 190.618 302.56 189.706 304.539 189.178H304.777C307.111 188.762 309.479 188.563 311.85 188.581H341.69L346.494 211.886H321.13V234.416H347.628L341.66 257.75L311.253 257.512Z" fill="black"/>
<path d="M130.722 133.437H114.936V183.419H130.722V133.437Z" fill="white"/>
<path d="M138.859 133.437H154.197L166.611 155.817V133.437H182.247V183.419H166.82L154.466 161.546V183.419H138.859V133.437Z" fill="white"/>
<path d="M190.306 133.437H220.653C222.389 133.369 224.126 133.54 225.816 133.944C227.102 134.34 228.291 135 229.307 135.883C230.238 136.863 230.879 138.082 231.157 139.405C231.624 141.094 231.835 142.844 231.784 144.597V172.079C231.863 173.872 231.651 175.666 231.157 177.391C230.886 178.707 230.244 179.919 229.307 180.882C228.358 181.851 227.143 182.516 225.816 182.792C224.124 183.187 222.39 183.378 220.653 183.359H190.306V133.437ZM214.178 170.05C214.885 170.12 215.595 169.964 216.207 169.603C216.526 169.008 216.671 168.336 216.625 167.663V149.043C216.661 148.39 216.517 147.739 216.207 147.163C215.618 146.744 214.897 146.553 214.178 146.626H205.584V170.05H214.178Z" fill="white"/>
<path d="M248.293 183.419C247.13 183.48 245.968 183.3 244.879 182.889C243.79 182.478 242.799 181.846 241.967 181.032C240.447 179.328 239.635 177.107 239.699 174.825V142.001C239.612 139.67 240.424 137.395 241.967 135.645C242.804 134.844 243.799 134.227 244.888 133.831C245.977 133.436 247.136 133.271 248.293 133.347H273.866C275.015 133.272 276.168 133.44 277.248 133.842C278.328 134.243 279.311 134.867 280.132 135.675C280.942 136.504 281.572 137.49 281.983 138.574C282.394 139.657 282.576 140.814 282.519 141.971V174.795C282.574 175.985 282.317 177.167 281.773 178.227C281.304 179.28 280.635 180.232 279.804 181.032C278.94 181.803 277.923 182.383 276.82 182.733C275.656 183.165 274.421 183.378 273.179 183.359H248.293V183.419ZM264.436 170.051C265.101 170.137 265.773 169.966 266.316 169.573C266.697 169.013 266.876 168.339 266.823 167.663V149.043C266.89 148.371 266.698 147.699 266.286 147.163C265.736 146.76 265.054 146.579 264.376 146.656H257.722C256.767 146.656 256.111 146.805 255.872 147.163C255.662 147.419 255.506 147.715 255.414 148.033C255.321 148.351 255.295 148.685 255.335 149.013V167.663C255.297 168.347 255.521 169.02 255.962 169.543C256.2 169.842 256.857 169.991 257.812 169.991L264.436 170.051Z" fill="white"/>
<path d="M290.355 133.468H305.693L318.077 155.818V133.468H333.832V183.42H318.435L306.021 161.547V183.42H290.355V133.468Z" fill="white"/>
<path d="M357.202 146.717V152.745H375.017V164.531H357.202V170.052H378.239L374.987 183.42H341.655V133.468H375.405L378.09 146.717H357.202Z" fill="white"/>
<path d="M387.583 181.48L385.226 170.201H406.293C406.559 170.227 406.825 170.152 407.039 169.992C407.185 169.728 407.247 169.427 407.218 169.127V165.606C407.218 164.83 406.83 164.412 406.114 164.412H395.014C393.299 164.469 391.585 164.309 389.911 163.935C388.716 163.708 387.61 163.149 386.718 162.323C385.892 161.518 385.339 160.475 385.137 159.339C384.715 157.713 384.524 156.035 384.57 154.356V144.21C384.516 142.489 384.717 140.77 385.166 139.108C385.394 137.823 386.021 136.644 386.957 135.736C387.927 134.826 389.139 134.214 390.448 133.975C392.101 133.593 393.796 133.433 395.491 133.498H420.467L423.213 146.717H400.952C400.715 146.67 400.472 146.67 400.236 146.717C400.084 147.011 400.022 147.343 400.057 147.672V151.64C400.037 151.911 400.099 152.182 400.236 152.416C400.348 152.52 400.479 152.599 400.623 152.651C400.767 152.702 400.919 152.724 401.071 152.715H413.246C414.927 152.693 416.605 152.833 418.259 153.132C419.447 153.394 420.547 153.96 421.452 154.774C422.29 155.647 422.877 156.729 423.153 157.907C423.546 159.558 423.727 161.253 423.69 162.95V172.797C423.748 174.528 423.547 176.258 423.093 177.93C422.772 179.172 422.123 180.306 421.213 181.212C420.215 181.986 419.067 182.545 417.841 182.853C416.188 183.236 414.495 183.417 412.798 183.39H388.031L387.583 181.48Z" fill="white"/>
<path d="M447.379 133.468H431.743V183.39H447.379V133.468Z" fill="white"/>
<path d="M453.555 183.42L466.117 133.468H488.706L501.299 183.42H484.976L483.992 178.049H471.041L469.937 183.42H453.555ZM473.19 167.396H481.575L477.337 146.836L473.19 167.396Z" fill="white"/>
<path d="M379.586 254.23C377.485 254.233 375.391 253.983 373.35 253.484C371.798 253.199 370.365 252.462 369.232 251.365C368.122 250.275 367.311 248.919 366.874 247.426C366.369 245.478 366.128 243.47 366.158 241.458V204.665C366.099 202.49 366.36 200.318 366.934 198.22C367.411 196.723 368.239 195.361 369.351 194.251C370.595 193.244 372.056 192.539 373.618 192.192C375.744 191.805 377.903 191.625 380.064 191.655H407.188L410.739 208.336H389.016C388.171 208.255 387.325 208.477 386.629 208.962C386.151 209.65 385.939 210.487 386.032 211.32V233.998C386.002 234.61 386.062 235.224 386.211 235.818C386.211 236.206 386.509 236.564 386.629 236.892C386.957 237.124 387.335 237.277 387.733 237.34C388.43 237.478 389.142 237.528 389.851 237.489H411.605L407.487 254.23H379.586Z" fill="white"/>
<path d="M430.306 254.23C428.867 254.302 427.429 254.074 426.083 253.56C424.737 253.046 423.513 252.258 422.488 251.246C421.494 250.226 420.717 249.016 420.204 247.687C419.691 246.359 419.453 244.94 419.504 243.517V202.517C419.45 201.071 419.686 199.629 420.198 198.276C420.711 196.923 421.489 195.686 422.488 194.639C423.51 193.624 424.734 192.834 426.081 192.32C427.427 191.806 428.867 191.579 430.306 191.655H462.294C463.746 191.587 465.197 191.816 466.557 192.329C467.917 192.843 469.157 193.629 470.202 194.639C471.198 195.688 471.974 196.925 472.487 198.278C472.999 199.63 473.237 201.072 473.186 202.517V243.428C473.185 244.922 472.891 246.402 472.321 247.784C471.688 249.071 470.829 250.234 469.784 251.216C468.701 252.163 467.458 252.911 466.114 253.424C464.636 253.94 463.084 254.213 461.519 254.23H430.306ZM450.537 237.49C451.342 237.592 452.155 237.378 452.805 236.893C453.335 236.182 453.58 235.298 453.492 234.416V211.32C453.492 210.067 453.283 209.261 452.805 208.873C452.123 208.382 451.284 208.159 450.448 208.246H442.063C441.217 208.152 440.366 208.375 439.676 208.873C439.268 209.589 439.081 210.409 439.138 211.23V234.446C439.069 235.316 439.256 236.187 439.676 236.952C440.381 237.414 441.225 237.615 442.063 237.519L450.537 237.49Z" fill="white"/>
<path d="M482.977 191.656H502.134L517.591 219.676V191.656H537.286V254.23H517.89L502.432 226.837V254.23H482.977V191.656Z" fill="white"/>
<path d="M83.6602 254.23C81.5393 254.231 79.4258 253.981 77.3639 253.484C75.8419 253.165 74.4375 252.432 73.3056 251.366C72.1807 250.288 71.3665 248.927 70.9482 247.427C70.449 245.477 70.1983 243.471 70.2022 241.459V204.666C70.163 202.494 70.4138 200.326 70.9482 198.22C71.3821 196.711 72.2054 195.342 73.3355 194.252C74.6282 193.251 76.126 192.548 77.722 192.193C79.8174 191.802 81.9467 191.622 84.0779 191.656H111.113L114.813 208.336H93.0897C92.2721 208.247 91.4511 208.471 90.792 208.963C90.53 209.292 90.3369 209.67 90.2241 210.075C90.1113 210.48 90.0812 210.903 90.1355 211.32V233.999C90.1125 234.609 90.1626 235.22 90.2847 235.819C90.3266 236.224 90.5055 236.603 90.792 236.893C91.1037 237.116 91.46 237.269 91.8364 237.341C92.5151 237.466 93.2056 237.516 93.8954 237.49H115.709L111.412 254.23H83.6602Z" fill="#FDEE1E"/>
<path d="M134.424 254.23C132.976 254.305 131.528 254.079 130.172 253.565C128.816 253.051 127.582 252.262 126.547 251.246C125.557 250.223 124.783 249.012 124.27 247.685C123.757 246.357 123.517 244.94 123.562 243.517V202.517C123.515 201.072 123.755 199.632 124.267 198.28C124.779 196.928 125.554 195.691 126.547 194.639C127.579 193.621 128.814 192.829 130.17 192.315C131.527 191.802 132.976 191.577 134.424 191.655H166.443C167.881 191.594 169.316 191.827 170.66 192.34C172.004 192.853 173.23 193.636 174.261 194.639C175.261 195.686 176.04 196.922 176.553 198.275C177.065 199.629 177.301 201.071 177.245 202.517V243.428C177.287 244.936 176.959 246.432 176.29 247.785C175.774 249.115 174.933 250.295 173.843 251.216C171.542 253.142 168.638 254.198 165.637 254.2L134.424 254.23ZM154.507 237.49C155.336 237.544 156.161 237.336 156.864 236.893C157.309 236.148 157.498 235.278 157.401 234.416V211.32C157.502 210.467 157.313 209.605 156.864 208.873C156.161 208.435 155.331 208.246 154.507 208.336H146.152C145.736 208.197 145.29 208.176 144.863 208.277C144.436 208.377 144.046 208.594 143.736 208.904C143.426 209.214 143.209 209.605 143.108 210.031C143.008 210.458 143.028 210.904 143.168 211.32V234.565C143.168 235.878 143.168 236.624 143.705 237.072C144.414 237.551 145.274 237.752 146.122 237.639L154.507 237.49Z" fill="#FDEE1E"/>
<path d="M187.024 191.656H211.702L222.206 216.304L233.217 191.656H257.716V254.23H237.902V223.853L222.206 253.902L206.928 223.853V254.23H187.024V191.656Z" fill="#FDEE1E"/>
<path d="M287.614 191.656H267.92V254.201H287.614V191.656Z" fill="#FDEE1E"/>
<path d="M311.247 254.23C309.136 254.234 307.032 253.983 304.98 253.484C303.389 253.186 301.912 252.453 300.713 251.365C299.624 250.265 298.824 248.912 298.386 247.427C297.896 245.475 297.656 243.47 297.669 241.459V204.666C297.61 202.487 297.892 200.312 298.505 198.22C298.922 196.697 299.76 195.321 300.922 194.252C302.173 193.274 303.617 192.572 305.159 192.193C307.296 191.807 309.464 191.627 311.635 191.656H338.759L342.489 208.336H320.676C319.841 208.255 319.004 208.477 318.319 208.963C318.069 209.297 317.887 209.677 317.785 210.082C317.682 210.486 317.661 210.907 317.722 211.32V233.999C317.635 234.602 317.635 235.215 317.722 235.819C317.756 236.215 317.912 236.59 318.17 236.893C318.498 237.125 318.876 237.278 319.274 237.341C319.953 237.462 320.643 237.512 321.333 237.49H343.146L338.968 254.23H311.247Z" fill="#FDEE1E"/>
<path d="M131.075 183.747H114.604V133.019H131.075V183.747ZM115.29 183.06H130.389V133.735H115.29V183.06Z" fill="#939393"/>
<path d="M182.574 183.747H166.61L154.674 162.859V183.747H138.5V133.019H154.495L166.431 154.444V133.078H182.754L182.574 183.747ZM167.028 183.06H181.948V133.735H167.028V157.099L153.988 133.735H139.067V183.06H153.988V160.263L167.028 183.06Z" fill="#939393"/>
<path d="M220.656 183.748H189.801V133.02H220.656C222.421 132.962 224.186 133.133 225.907 133.527C227.244 133.933 228.476 134.625 229.518 135.556C230.514 136.565 231.198 137.839 231.488 139.226C231.97 140.984 232.172 142.807 232.084 144.627V172.11C232.176 173.943 231.964 175.777 231.458 177.541C231.154 178.899 230.483 180.148 229.518 181.152C228.535 182.172 227.266 182.869 225.878 183.151C224.168 183.562 222.414 183.763 220.656 183.748ZM190.487 183.061H220.656C222.373 183.087 224.088 182.896 225.758 182.494C227.006 182.239 228.15 181.615 229.041 180.704C229.938 179.779 230.558 178.621 230.831 177.362C231.321 175.657 231.533 173.883 231.458 172.11V144.627C231.508 142.905 231.296 141.184 230.831 139.525C230.565 138.254 229.944 137.085 229.041 136.153C228.075 135.315 226.948 134.686 225.728 134.303C224.064 133.932 222.36 133.771 220.656 133.825L190.487 133.736V183.061ZM213.912 170.409H205.228V146.298H213.882C214.676 146.21 215.475 146.423 216.12 146.895C216.441 147.533 216.595 148.241 216.567 148.954V167.574C216.612 168.312 216.446 169.046 216.09 169.693C215.456 170.153 214.695 170.403 213.912 170.409ZM205.914 169.723H213.912C214.521 169.776 215.132 169.652 215.672 169.365C215.94 168.839 216.063 168.253 216.03 167.664V149.044C216.056 148.465 215.933 147.89 215.672 147.373C215.139 147.065 214.524 146.93 213.912 146.985H205.914V169.723Z" fill="#939393"/>
<path d="M248.293 183.747C247.086 183.814 245.879 183.628 244.749 183.202C243.618 182.775 242.589 182.117 241.728 181.271C240.131 179.51 239.276 177.201 239.34 174.825V142.001C239.254 139.586 240.11 137.232 241.728 135.436C242.591 134.596 243.622 133.946 244.753 133.53C245.884 133.113 247.09 132.939 248.293 133.019H273.866C275.059 132.942 276.255 133.118 277.376 133.534C278.497 133.951 279.517 134.599 280.371 135.436C281.21 136.32 281.86 137.367 282.281 138.511C282.702 139.655 282.884 140.873 282.818 142.091V174.915C282.88 176.149 282.634 177.38 282.101 178.496C281.636 179.611 280.957 180.625 280.102 181.48C279.186 182.286 278.107 182.886 276.939 183.24C275.753 183.713 274.486 183.946 273.209 183.926L248.293 183.747ZM248.293 133.825C247.201 133.758 246.108 133.916 245.081 134.291C244.054 134.666 243.116 135.249 242.324 136.003C240.893 137.659 240.118 139.783 240.146 141.971V174.795C240.088 176.994 240.879 179.131 242.354 180.763C243.108 181.497 244 182.072 244.979 182.456C245.957 182.841 247.003 183.026 248.054 183.001H273.328C274.528 183.046 275.725 182.854 276.85 182.434C277.957 182.124 278.978 181.562 279.834 180.793C280.629 180.047 281.259 179.142 281.684 178.137C282.216 177.117 282.473 175.975 282.43 174.825V142.001C282.474 140.902 282.294 139.806 281.898 138.779C281.503 137.753 280.902 136.818 280.132 136.033C279.319 135.215 278.337 134.585 277.254 134.188C276.171 133.791 275.015 133.636 273.866 133.735L248.293 133.825ZM264.436 170.409H257.722C257.347 170.461 256.965 170.435 256.6 170.332C256.236 170.229 255.896 170.052 255.603 169.812C255.134 169.2 254.92 168.43 255.007 167.664V149.014C254.936 148.267 255.149 147.521 255.603 146.925C255.902 146.507 256.558 146.328 257.722 146.328H264.376C265.139 146.233 265.908 146.436 266.525 146.895C267.005 147.503 267.229 148.273 267.152 149.043V167.664C267.217 168.428 267.005 169.191 266.555 169.812C266.26 170.049 265.92 170.224 265.556 170.327C265.192 170.43 264.811 170.457 264.436 170.409ZM257.722 146.984C256.618 146.984 256.26 147.193 256.14 147.343C255.956 147.576 255.821 147.844 255.744 148.132C255.667 148.419 255.649 148.719 255.693 149.014V167.664C255.612 168.263 255.761 168.871 256.111 169.364C256.111 169.364 256.499 169.723 257.722 169.723H264.436C265.012 169.797 265.596 169.659 266.077 169.335C266.378 168.832 266.514 168.247 266.465 167.664V149.043C266.513 148.456 266.366 147.868 266.047 147.372C265.549 147.062 264.961 146.925 264.376 146.984H257.722Z" fill="#939393"/>
<path d="M334.17 183.747H318.236L306.3 162.859V183.747H290.037V133.019H305.912L317.848 154.384V133.138H334.26L334.17 183.747ZM318.624 183.06H333.544V133.735H318.624V157.04L305.524 133.735H290.604V182.971H305.524V160.263L318.624 183.06Z" fill="#939393"/>
<path d="M375.315 183.747H341.297V133.019H375.703L378.508 146.924H357.62V152.265H375.524V164.739H357.62V169.602H378.747L375.315 183.747ZM342.043 183.06H374.868L377.852 170.408H356.963V164.172H374.868V153.071H356.963V146.357H377.852L375.315 133.824H341.984L342.043 183.06Z" fill="#939393"/>
<path d="M412.799 183.747H387.733L384.749 169.722H406.234C406.622 169.722 406.712 169.722 406.712 169.722C406.712 169.722 406.712 169.484 406.712 169.096V165.604C406.712 164.829 406.264 164.739 405.936 164.739H395.014C393.27 164.797 391.526 164.637 389.822 164.262C388.568 164.002 387.404 163.416 386.45 162.561C385.572 161.666 384.998 160.518 384.809 159.278C384.381 157.633 384.19 155.935 384.242 154.235V144.209C384.174 142.456 384.385 140.703 384.869 139.017C385.086 137.673 385.736 136.437 386.719 135.496C387.728 134.523 389.007 133.878 390.389 133.646C392.058 133.241 393.775 133.07 395.492 133.138H420.766L423.75 147.044H401.072C400.914 147.018 400.752 147.018 400.594 147.044C400.552 147.271 400.552 147.503 400.594 147.73V151.639C400.546 151.825 400.546 152.02 400.594 152.206C400.76 152.32 400.961 152.373 401.161 152.355H413.336C415.038 152.336 416.737 152.486 418.409 152.803C419.667 153.038 420.828 153.639 421.746 154.531C422.665 155.422 423.299 156.565 423.571 157.816C423.981 159.495 424.172 161.22 424.138 162.949V172.796C424.191 174.568 423.979 176.338 423.512 178.048C423.162 179.333 422.483 180.506 421.542 181.449C420.505 182.271 419.305 182.861 418.021 183.18C416.311 183.588 414.557 183.779 412.799 183.747ZM388.3 183.061H412.799C414.465 183.105 416.13 182.934 417.752 182.553C418.935 182.26 420.043 181.721 421.005 180.972C421.828 180.137 422.433 179.112 422.766 177.988C423.225 176.348 423.427 174.647 423.362 172.945V162.978C423.404 161.311 423.223 159.645 422.825 158.025C422.6 156.886 422.034 155.843 421.203 155.033C420.372 154.223 419.314 153.685 418.17 153.489C416.546 153.196 414.897 153.056 413.247 153.072H401.072C400.691 153.087 400.318 152.959 400.027 152.713C399.829 152.425 399.735 152.078 399.759 151.729V147.82C399.719 147.422 399.814 147.023 400.027 146.686C400.3 146.565 400.595 146.504 400.893 146.507H422.736L420.08 133.735H395.372C393.707 133.672 392.041 133.833 390.419 134.213C389.167 134.436 388.006 135.016 387.077 135.884C386.192 136.742 385.607 137.861 385.406 139.077C384.942 140.716 384.731 142.416 384.779 144.12V154.146C384.728 155.796 384.919 157.445 385.346 159.04C385.514 160.167 386.037 161.212 386.838 162.024C387.679 162.789 388.709 163.314 389.822 163.545C391.48 163.893 393.172 164.043 394.865 163.993H405.966C406.168 163.983 406.37 164.017 406.558 164.093C406.746 164.169 406.915 164.285 407.054 164.432C407.193 164.579 407.298 164.755 407.363 164.947C407.427 165.139 407.45 165.343 407.428 165.545V168.946C407.463 169.325 407.368 169.704 407.159 170.021C407.022 170.143 406.861 170.236 406.687 170.292C406.512 170.349 406.327 170.368 406.145 170.349H385.495L388.3 183.061Z" fill="#939393"/>
<path d="M447.708 183.747H431.385V133.019H447.708V183.747ZM432.012 183.061H446.932V133.735H432.012V183.061Z" fill="#939393"/>
<path d="M501.697 183.747H484.628L483.643 178.495H471.26L470.185 183.866H453.117L465.858 133.138H488.925V133.407L501.697 183.747ZM485.195 183.061H500.831L488.388 133.735H466.396L453.982 182.971H469.618L470.722 177.6H484.21L485.195 183.061ZM482.002 167.723H472.781L477.347 145.134L482.002 167.723ZM473.617 167.066H481.166L477.347 148.655L473.617 167.066Z" fill="#939393"/>
<path d="M407.753 254.558H379.583C377.452 254.581 375.325 254.33 373.257 253.812C371.652 253.503 370.17 252.736 368.99 251.604C367.848 250.477 367.006 249.082 366.543 247.545C366.02 245.519 365.779 243.431 365.827 241.339V204.665C365.76 202.46 366.022 200.258 366.603 198.13C367.094 196.576 367.954 195.163 369.11 194.012C370.4 192.953 371.924 192.216 373.556 191.864C375.703 191.483 377.881 191.304 380.061 191.327H407.454L411.125 208.694H388.983C388.231 208.63 387.479 208.808 386.835 209.201C386.427 209.828 386.248 210.576 386.327 211.32V233.998C386.29 234.581 386.351 235.166 386.506 235.729C386.54 235.938 386.611 236.14 386.715 236.325C386.726 236.405 386.726 236.485 386.715 236.564C386.983 236.749 387.289 236.871 387.611 236.922C388.294 237.009 388.986 237.009 389.669 236.922H411.871L407.753 254.558ZM380.061 191.894C377.922 191.875 375.785 192.045 373.675 192.401C372.173 192.744 370.767 193.417 369.557 194.37C368.505 195.459 367.718 196.777 367.259 198.22C366.703 200.281 366.452 202.412 366.513 204.546V241.339C366.473 243.35 366.704 245.357 367.2 247.307C367.62 248.743 368.401 250.047 369.468 251.096C370.564 252.146 371.944 252.852 373.436 253.125C375.448 253.616 377.513 253.857 379.583 253.842H407.216L411.125 237.847H389.789C389.065 237.936 388.334 237.936 387.611 237.847C387.17 237.755 386.753 237.572 386.387 237.31C386.397 237.221 386.397 237.131 386.387 237.042C386.222 236.78 386.12 236.484 386.089 236.176C385.93 235.563 385.869 234.929 385.91 234.296V211.32C385.811 210.399 386.055 209.475 386.596 208.723C387.356 208.175 388.289 207.921 389.222 208.007H410.498L407.126 192.013L380.061 191.894Z" fill="#939393"/>
<path d="M461.493 254.558H430.31C428.821 254.62 427.335 254.371 425.948 253.826C424.56 253.282 423.302 252.454 422.253 251.395C421.246 250.335 420.464 249.084 419.951 247.715C419.438 246.346 419.206 244.888 419.269 243.428V202.517C419.2 201.034 419.428 199.551 419.94 198.157C420.453 196.763 421.239 195.486 422.253 194.401C423.318 193.376 424.584 192.582 425.97 192.068C427.356 191.555 428.834 191.333 430.31 191.417H462.299C463.788 191.335 465.278 191.557 466.679 192.07C468.079 192.583 469.361 193.376 470.445 194.401C471.452 195.491 472.234 196.769 472.746 198.162C473.258 199.554 473.49 201.034 473.429 202.517V243.428C473.461 244.944 473.16 246.449 472.546 247.836C471.932 249.223 471.022 250.458 469.878 251.455C468.773 252.433 467.499 253.201 466.118 253.723C464.635 254.264 463.071 254.546 461.493 254.558ZM430.31 191.894C428.907 191.828 427.507 192.059 426.2 192.574C424.894 193.088 423.711 193.873 422.73 194.878C421.784 195.903 421.051 197.107 420.574 198.418C420.098 199.73 419.887 201.123 419.955 202.517V243.428C419.894 244.798 420.108 246.167 420.584 247.454C421.061 248.74 421.791 249.918 422.73 250.918C423.716 251.916 424.899 252.697 426.204 253.211C427.51 253.725 428.908 253.96 430.31 253.902H461.493C463.019 253.906 464.533 253.643 465.969 253.126C467.267 252.631 468.468 251.915 469.52 251.007C470.53 250.05 471.359 248.917 471.967 247.665C472.544 246.338 472.839 244.905 472.832 243.458V202.517C472.869 201.109 472.624 199.708 472.112 198.396C471.599 197.084 470.83 195.888 469.848 194.878C468.843 193.881 467.643 193.102 466.324 192.589C465.004 192.076 463.594 191.839 462.179 191.894H430.31ZM450.542 237.728H442.067C441.137 237.832 440.201 237.587 439.441 237.042C438.998 236.22 438.801 235.287 438.874 234.356V211.32C438.805 210.424 439.014 209.528 439.471 208.754C440.225 208.169 441.178 207.902 442.127 208.008H450.512C451.432 207.915 452.354 208.159 453.108 208.694C453.422 209.066 453.654 209.5 453.788 209.968C453.922 210.436 453.954 210.928 453.884 211.409V234.535C453.973 235.492 453.708 236.448 453.138 237.221C452.77 237.495 452.35 237.692 451.904 237.8C451.457 237.907 450.994 237.924 450.542 237.848V237.728ZM439.948 236.565C440.578 236.964 441.327 237.133 442.067 237.042H450.542C451.257 237.123 451.978 236.943 452.571 236.535C453.03 235.884 453.242 235.09 453.167 234.297V211.32C453.278 210.538 453.074 209.744 452.6 209.112C451.956 208.719 451.204 208.541 450.452 208.604H442.067C441.304 208.518 440.535 208.697 439.889 209.112C439.594 209.778 439.461 210.503 439.501 211.23V234.446C439.447 235.219 439.601 235.991 439.948 236.684V236.565Z" fill="#939393"/>
<path d="M537.627 254.557H517.724L502.804 228.119V254.557H482.751V191.326H502.475L517.395 218.361V191.326H537.746L537.627 254.557ZM518.112 253.871H536.941V192.013H517.933V220.987L501.938 192.013H483.318V253.871H502.117V225.523L518.112 253.871Z" fill="#939393"/>
<path d="M165.485 254.617H134.541C133.015 254.685 131.491 254.433 130.068 253.878C128.645 253.323 127.353 252.477 126.275 251.395C125.266 250.3 124.483 249.017 123.971 247.619C123.459 246.221 123.228 244.736 123.291 243.248V202.696C123.22 201.189 123.447 199.684 123.959 198.265C124.471 196.847 125.258 195.544 126.275 194.43C127.36 193.361 128.655 192.528 130.077 191.984C131.5 191.44 133.019 191.196 134.541 191.267H166.261C167.782 191.199 169.301 191.445 170.723 191.989C172.145 192.533 173.439 193.364 174.527 194.43C175.578 195.527 176.4 196.824 176.943 198.243C177.486 199.663 177.74 201.177 177.69 202.696V243.248C177.732 244.85 177.383 246.437 176.675 247.874C176.109 249.266 175.219 250.504 174.079 251.484C171.655 253.46 168.612 254.516 165.485 254.468V254.617ZM134.541 192.61C133.203 192.533 131.863 192.737 130.609 193.21C129.355 193.683 128.214 194.414 127.26 195.355C126.348 196.339 125.64 197.495 125.179 198.756C124.718 200.016 124.513 201.355 124.574 202.696V243.248C124.517 244.566 124.726 245.881 125.187 247.117C125.649 248.352 126.353 249.482 127.26 250.44C128.194 251.423 129.326 252.197 130.581 252.711C131.836 253.226 133.185 253.468 134.541 253.424H165.485C166.942 253.418 168.387 253.156 169.752 252.648C170.994 252.154 172.152 251.469 173.184 250.619C174.158 249.81 174.933 248.79 175.452 247.635C176.082 246.367 176.39 244.962 176.347 243.547V202.696C176.393 201.347 176.168 200.003 175.686 198.742C175.205 197.481 174.476 196.33 173.542 195.355C172.58 194.424 171.438 193.7 170.186 193.228C168.934 192.756 167.598 192.545 166.261 192.61H134.541ZM154.504 238.176H146.268C145.742 238.251 145.206 238.219 144.693 238.08C144.18 237.942 143.7 237.7 143.284 237.37C142.675 236.502 142.419 235.435 142.568 234.386V211.32C142.445 210.328 142.701 209.326 143.284 208.515C143.698 208.18 144.177 207.935 144.691 207.796C145.205 207.658 145.742 207.628 146.268 207.709H154.504C155.486 207.646 156.461 207.908 157.279 208.455C157.861 209.334 158.105 210.394 157.965 211.439V234.356C158.101 235.397 157.869 236.452 157.309 237.34C156.495 237.927 155.506 238.222 154.504 238.176ZM146.238 209.141C144.925 209.141 144.478 209.41 144.328 209.559C144.034 210.128 143.92 210.773 144 211.409V234.446C143.907 235.133 144.032 235.832 144.358 236.445C144.507 236.445 144.985 236.803 146.238 236.803H154.504C155.158 236.853 155.812 236.708 156.384 236.385C156.671 235.781 156.784 235.11 156.712 234.446V211.32C156.785 210.645 156.672 209.964 156.384 209.35C155.811 209.031 155.158 208.886 154.504 208.932L146.238 209.141Z" fill="#FAB018"/>
<path d="M222.182 255.274L207.65 226.657V254.767H186.493V191.118H212.215L222.212 214.632L232.745 191.118H258.259V254.767H237.162V226.598L222.182 255.274ZM238.534 253.424H256.916V192.461H233.611L222.182 218.034L211.201 192.461H187.836V253.424H206.307V221.018L222.212 252.32L238.534 221.077V253.424Z" fill="#FAB018"/>
<path d="M288.303 254.857H267.415V191.029H288.303V254.857ZM268.609 253.514H286.96V192.372H268.609V253.514Z" fill="#FAB018"/>
<path d="M339.511 254.886H311.252C309.081 254.908 306.915 254.657 304.807 254.14C303.162 253.783 301.639 253.001 300.39 251.873C299.211 250.694 298.349 249.236 297.884 247.635C297.352 245.579 297.091 243.463 297.108 241.339V204.666C297.064 202.417 297.356 200.174 297.973 198.011C298.48 196.364 299.429 194.888 300.718 193.744C302.063 192.705 303.607 191.953 305.254 191.536C307.452 191.159 309.679 190.979 311.909 190.999H339.511L343.241 208.903H320.682C320.017 208.839 319.349 208.985 318.772 209.321C318.503 209.619 318.414 210.186 318.414 211.201V233.879C318.338 234.424 318.338 234.976 318.414 235.52V235.699C318.458 235.906 318.55 236.101 318.682 236.266C318.894 236.421 319.14 236.523 319.398 236.565C320.033 236.629 320.673 236.629 321.308 236.565H343.987L339.511 254.886ZM311.64 192.222C309.511 192.205 307.384 192.375 305.284 192.73C303.855 193.107 302.515 193.766 301.345 194.669C300.296 195.646 299.541 196.896 299.167 198.28C298.584 200.316 298.313 202.429 298.361 204.546V241.339C298.343 243.349 298.574 245.354 299.047 247.307C299.484 248.656 300.218 249.89 301.196 250.918C302.281 251.882 303.597 252.55 305.015 252.857C306.969 253.336 308.973 253.576 310.983 253.573H338.317L342.495 238.176H321.607C320.892 238.241 320.173 238.241 319.458 238.176C319.007 238.105 318.578 237.932 318.205 237.669H317.996C317.676 237.285 317.469 236.82 317.399 236.326C317.315 235.682 317.315 235.03 317.399 234.386V211.32C317.323 210.794 317.356 210.258 317.494 209.745C317.633 209.232 317.875 208.752 318.205 208.336C319.006 207.752 319.992 207.476 320.98 207.56H341.868L338.705 192.252L311.64 192.222Z" fill="#FAB018"/>
<path d="M111.772 254.558H83.7518C81.6023 254.573 79.4588 254.332 77.366 253.842C75.7519 253.473 74.2612 252.691 73.0391 251.574C71.8596 250.412 71.0056 248.962 70.5624 247.367C70.0427 245.339 69.7919 243.253 69.8164 241.16V204.845C69.7769 202.631 70.0379 200.423 70.5922 198.28C71.0458 196.675 71.9217 195.222 73.1287 194.072C74.4862 193.025 76.0536 192.282 77.7241 191.894C79.8534 191.535 82.0103 191.366 84.1695 191.387H111.533L115.412 209.291H93.0918C92.4559 209.232 91.8179 209.378 91.2715 209.708C90.9144 210.255 90.7661 210.912 90.8537 211.559V233.998C90.7829 234.553 90.7829 235.115 90.8537 235.669C90.8812 235.938 90.9966 236.189 91.182 236.385C91.4097 236.531 91.6628 236.632 91.928 236.684C92.5432 236.745 93.1629 236.745 93.7781 236.684H116.248L111.772 254.558ZM73.9344 195.027C72.9176 196.03 72.1687 197.271 71.756 198.638C71.2511 200.667 71.0104 202.753 71.0399 204.845V241.16C71.0164 243.17 71.247 245.175 71.7262 247.128C72.1522 248.452 72.9128 249.645 73.9344 250.589C74.9663 251.563 76.2465 252.234 77.6345 252.529C79.5909 252.986 81.5935 253.217 83.6026 253.215H110.608L114.636 238.176H93.7482C93.0175 238.208 92.2856 238.148 91.5699 237.997C91.0817 237.906 90.6217 237.702 90.2271 237.4C89.8303 237.004 89.5691 236.492 89.4811 235.938C89.4081 235.303 89.4081 234.663 89.4811 234.028V211.32C89.4257 210.813 89.4739 210.301 89.6227 209.814C89.7714 209.326 90.0177 208.874 90.3465 208.485C91.1338 207.895 92.1121 207.619 93.0918 207.709H113.741L110.459 192.55H84.2292C82.1698 192.518 80.1119 192.678 78.0821 193.028C76.5753 193.398 75.1625 194.079 73.9344 195.027Z" fill="#FAB018"/>
<path d="M74.4328 220.57C74.0766 220.57 73.7351 220.429 73.4833 220.177C73.2314 219.925 73.09 219.584 73.09 219.228V204.576C72.9588 203.296 73.0893 202.003 73.4735 200.775C73.8577 199.547 74.4877 198.41 75.325 197.433C76.1623 196.456 77.1896 195.66 78.3443 195.093C79.499 194.525 80.7571 194.198 82.042 194.132H90.6659C91.0248 194.132 91.3695 194.273 91.6261 194.524C91.8826 194.775 92.0307 195.116 92.0385 195.475C92.0309 195.837 91.8838 196.181 91.628 196.437C91.3722 196.693 91.0275 196.84 90.6659 196.848H82.1912C81.2629 196.902 80.3555 197.146 79.5246 197.564C78.6936 197.981 77.9567 198.564 77.3589 199.276C76.7611 199.989 76.315 200.816 76.0478 201.706C75.7807 202.597 75.6982 203.533 75.8054 204.457V219.228C75.8055 219.407 75.7698 219.584 75.7004 219.749C75.6311 219.913 75.5295 220.063 75.4016 220.188C75.2738 220.313 75.1222 220.411 74.9558 220.477C74.7894 220.543 74.6116 220.574 74.4328 220.57Z" fill="white"/>
<path d="M302.39 216.393C302.032 216.385 301.69 216.237 301.439 215.98C301.188 215.724 301.048 215.379 301.048 215.02V204.576C300.912 203.295 301.04 202.001 301.422 200.771C301.805 199.541 302.434 198.402 303.272 197.425C304.111 196.447 305.14 195.65 306.296 195.084C307.453 194.518 308.713 194.194 310 194.132H322.264C322.44 194.132 322.615 194.167 322.778 194.234C322.941 194.302 323.089 194.401 323.214 194.526C323.338 194.65 323.437 194.798 323.505 194.961C323.572 195.124 323.607 195.299 323.607 195.475C323.607 195.834 323.466 196.179 323.215 196.435C322.964 196.692 322.623 196.84 322.264 196.848H310.149C309.215 196.895 308.301 197.132 307.464 197.547C306.626 197.961 305.882 198.542 305.277 199.256C304.673 199.969 304.222 200.798 303.951 201.693C303.68 202.588 303.596 203.528 303.703 204.457V215.02C303.697 215.372 303.558 215.708 303.315 215.963C303.071 216.217 302.742 216.37 302.39 216.393Z" fill="white"/>
<path d="M128.21 221.078C127.852 221.078 127.507 220.938 127.25 220.687C126.994 220.436 126.846 220.094 126.838 219.735C126.838 219.735 126.689 210.097 126.838 202.726C126.884 200.367 127.842 198.116 129.511 196.447C131.18 194.778 133.43 193.82 135.79 193.774H143.28C143.456 193.774 143.631 193.809 143.794 193.877C143.957 193.944 144.105 194.043 144.229 194.168C144.354 194.292 144.453 194.441 144.52 194.603C144.588 194.766 144.623 194.941 144.623 195.117C144.623 195.476 144.482 195.821 144.231 196.078C143.98 196.334 143.639 196.482 143.28 196.49H135.969C134.272 196.505 132.649 197.186 131.45 198.386C130.25 199.586 129.569 201.209 129.553 202.906C129.404 210.216 129.553 219.705 129.553 219.795C129.561 220.154 129.428 220.502 129.183 220.764C128.938 221.026 128.599 221.182 128.24 221.197L128.21 221.078Z" fill="white"/>
<path d="M191.17 252.291C190.994 252.291 190.819 252.256 190.656 252.188C190.493 252.121 190.345 252.022 190.22 251.897C190.096 251.773 189.997 251.624 189.929 251.462C189.862 251.299 189.827 251.124 189.827 250.948V195.386C189.827 195.209 189.862 195.035 189.929 194.872C189.997 194.709 190.096 194.561 190.22 194.436C190.345 194.311 190.493 194.212 190.656 194.145C190.819 194.078 190.994 194.043 191.17 194.043H202.241C202.6 194.043 202.944 194.183 203.201 194.434C203.457 194.685 203.606 195.027 203.613 195.386C203.606 195.747 203.459 196.092 203.203 196.348C202.947 196.604 202.602 196.751 202.241 196.758H192.692V250.948C192.694 251.14 192.654 251.331 192.575 251.507C192.497 251.682 192.382 251.839 192.237 251.967C192.093 252.094 191.923 252.189 191.739 252.245C191.555 252.301 191.361 252.316 191.17 252.291Z" fill="white"/>
<path d="M225.394 221.614C225.208 221.659 225.013 221.659 224.827 221.614C224.663 221.543 224.515 221.44 224.392 221.311C224.268 221.182 224.172 221.03 224.108 220.863C224.044 220.696 224.014 220.519 224.02 220.34C224.025 220.162 224.066 219.986 224.141 219.824L235.45 194.937C235.559 194.704 235.731 194.508 235.948 194.37C236.165 194.233 236.417 194.16 236.674 194.161H245.089C245.445 194.161 245.786 194.303 246.038 194.555C246.29 194.806 246.431 195.148 246.431 195.504C246.432 195.863 246.291 196.208 246.04 196.464C245.789 196.721 245.447 196.869 245.089 196.877H237.569L226.618 220.928C226.494 221.142 226.315 221.318 226.1 221.439C225.885 221.56 225.641 221.62 225.394 221.614Z" fill="white"/>
<path d="M283.028 253.245C282.664 253.245 282.315 253.101 282.057 252.843C281.8 252.586 281.655 252.237 281.655 251.873V199.115C281.704 198.79 281.867 198.493 282.117 198.278C282.366 198.063 282.684 197.945 283.013 197.945C283.342 197.945 283.66 198.063 283.909 198.278C284.159 198.493 284.322 198.79 284.371 199.115V251.873C284.371 252.232 284.23 252.576 283.979 252.833C283.728 253.089 283.387 253.237 283.028 253.245Z" fill="white"/>
</svg>
