<svg width="600" height="400" viewBox="0 0 600 400" fill="none" xmlns="http://www.w3.org/2000/svg">
<g clip-path="url(#clip0_387_3297)">
<path fill-rule="evenodd" clip-rule="evenodd" d="M382.47 157.113C380.701 156.648 377.189 146.471 379.968 147.148C395.451 151.131 409.752 159.986 421.976 168.026C435.105 176.631 446.026 188.212 453.854 201.83C455.696 204.875 450.905 206.107 449.348 203.552C442.242 191.359 435.397 181.23 423.785 173.583C411.741 165.666 397.822 161.063 382.47 157.113ZM540.723 207.771C542.003 208.465 551.537 202.351 549.565 201.242C538.572 195.3 524.816 192.664 511.9 192.567C498.511 192.46 483.525 197.153 466.828 205.446C463.283 207.151 464.856 210.39 467.846 208.971C481.936 201.975 494.47 197.807 506.774 197.896C519.528 197.994 529.877 201.879 540.764 207.772L540.723 207.771ZM481.447 186.747C471.913 197.096 462.32 182.608 456.798 175.076C455.046 173.33 449.855 175.027 452.21 177.68C459.153 187.147 472.265 199.667 483.519 187.474C483.894 187.066 483.738 186.576 483.16 186.388C482.868 186.293 482.557 186.276 482.256 186.339C481.956 186.403 481.677 186.543 481.447 186.748V186.747Z" fill="#F20100"/>
<path fill-rule="evenodd" clip-rule="evenodd" d="M56.2095 180.536H68.1479C74.2541 180.536 78.4292 181.352 80.6729 182.984C82.9056 184.616 83.7289 187.277 83.1178 191.079L82.7184 193.586C82.1332 197.193 80.5182 199.846 77.8291 201.543C75.14 203.241 71.3095 204.098 66.2572 204.098H63.1201L60.6752 219.123H50L56.2095 180.536ZM280.78 195.74L277.023 219.09H268.059L268.263 215.401C267.215 216.742 265.941 217.888 264.498 218.788C263.331 219.482 262 219.851 260.643 219.857C258.199 219.857 256.569 219.123 255.64 217.629C254.711 216.136 254.54 213.867 255.013 210.839L255.632 207.019C255.781 205.757 256.228 204.549 256.937 203.494C257.646 202.439 258.595 201.569 259.707 200.955C261.988 199.682 265.737 198.874 270.96 198.572L271.311 196.369C271.591 195.227 271.616 194.037 271.384 192.884C271.27 192.587 271.059 192.336 270.785 192.174C270.512 192.011 270.192 191.945 269.876 191.986C269.494 191.961 269.111 192.026 268.759 192.177C268.406 192.327 268.094 192.558 267.847 192.851C267.261 193.749 266.902 194.778 266.804 195.847L266.723 196.37H258.451L258.541 195.784C259.084 192.307 260.279 189.894 262.125 188.545C263.971 187.195 266.959 186.526 271.089 186.537C275.316 186.537 278.124 187.204 279.515 188.537C280.906 189.87 281.316 192.285 280.746 195.784L280.78 195.74ZM270.121 203.952C268.773 203.97 267.456 204.359 266.315 205.078C265.471 205.857 264.95 206.927 264.857 208.073L264.531 210.138C264.264 211.21 264.264 212.331 264.531 213.402C264.676 213.701 264.912 213.946 265.205 214.101C265.498 214.257 265.832 214.315 266.16 214.268C266.534 214.289 266.906 214.219 267.246 214.062C267.586 213.906 267.882 213.668 268.108 213.37C268.697 212.374 269.054 211.258 269.151 210.105L270.154 203.919L270.121 203.952ZM239.717 191.252C240.878 189.82 242.268 188.593 243.832 187.62C245.103 186.877 246.549 186.488 248.021 186.493C250.4 186.493 251.957 187.16 252.69 188.493C253.432 189.823 253.505 192.288 252.935 195.838L249.194 219.066H239.986L243.57 196.801C243.82 195.813 243.82 194.778 243.57 193.79C243.424 193.51 243.196 193.281 242.916 193.135C242.636 192.989 242.318 192.933 242.006 192.974C241.648 192.957 241.292 193.028 240.969 193.18C240.645 193.332 240.363 193.561 240.148 193.847C239.598 194.759 239.256 195.782 239.148 196.842L235.571 219.106H226.282L229.866 196.842C230.111 195.859 230.111 194.83 229.866 193.847C229.731 193.554 229.507 193.311 229.226 193.154C228.945 192.997 228.621 192.934 228.301 192.974C227.945 192.957 227.59 193.028 227.268 193.18C226.945 193.332 226.665 193.561 226.451 193.847C225.893 194.756 225.548 195.78 225.441 196.842L221.863 219.106H212.605L217.723 187.277H226.833L226.508 190.966C227.604 189.626 228.922 188.483 230.403 187.588C231.59 186.885 232.942 186.511 234.321 186.502C235.751 186.413 237.163 186.855 238.289 187.742C238.766 188.189 239.141 188.734 239.388 189.34C239.634 189.946 239.747 190.598 239.717 191.252V191.252ZM211.13 195.74L207.374 219.09H198.41L198.621 215.401C197.569 216.741 196.293 217.887 194.848 218.788C193.677 219.484 192.34 219.854 190.978 219.857C188.533 219.857 186.903 219.123 185.982 217.629C185.061 216.136 184.849 213.867 185.347 210.798L185.958 206.979C186.106 205.716 186.553 204.507 187.261 203.452C187.97 202.397 188.92 201.527 190.033 200.915C192.314 199.642 196.071 198.834 201.286 198.532L201.637 196.328C201.918 195.187 201.946 193.997 201.718 192.843C201.602 192.548 201.39 192.299 201.117 192.137C200.845 191.974 200.526 191.907 200.211 191.945C199.829 191.92 199.446 191.986 199.093 192.136C198.741 192.286 198.429 192.517 198.182 192.811C197.589 193.706 197.227 194.736 197.131 195.806L197.049 196.328H188.802L188.9 195.742C189.443 192.266 190.636 189.853 192.477 188.503C194.311 187.165 197.299 186.496 201.441 186.496C205.581 186.496 208.482 187.165 209.867 188.495C211.253 189.825 211.66 192.241 211.098 195.743L211.13 195.74ZM200.471 203.952C199.129 203.973 197.818 204.362 196.682 205.078C195.831 205.853 195.309 206.925 195.223 208.073L194.889 210.138C194.622 211.21 194.622 212.331 194.889 213.402C195.034 213.701 195.27 213.946 195.563 214.101C195.856 214.257 196.191 214.315 196.519 214.268C196.891 214.288 197.262 214.216 197.599 214.06C197.937 213.903 198.232 213.667 198.457 213.37C199.047 212.375 199.403 211.258 199.5 210.105L200.503 203.919L200.471 203.952ZM187.326 187.171C187.201 187.18 187.076 187.18 186.951 187.171H186.593C185.446 187.164 184.319 187.472 183.333 188.061C182.066 188.873 180.936 189.881 179.984 191.048L180.334 187.301H171.233L166.107 219.131H175.494L178.461 200.744C178.851 198.284 179.617 196.573 180.759 195.61C181.9 194.639 183.733 194.133 186.235 194.092L187.326 187.171ZM163.964 200.768L163.189 205.583C162.309 211.024 160.853 214.762 158.821 216.797C156.79 218.832 153.576 219.852 149.181 219.857C144.797 219.857 141.909 218.837 140.519 216.797C139.128 214.756 138.856 211.018 139.704 205.583L140.519 200.768C141.393 195.327 142.846 191.591 144.878 189.562C146.91 187.532 150.116 186.509 154.494 186.493C158.9 186.493 161.798 187.511 163.189 189.546C164.58 191.581 164.838 195.321 163.964 200.768ZM155.294 196.409C155.563 195.258 155.563 194.059 155.294 192.908C155.166 192.59 154.938 192.322 154.643 192.148C154.348 191.974 154.004 191.903 153.664 191.945C153.283 191.924 152.903 191.999 152.559 192.163C152.214 192.327 151.916 192.574 151.692 192.883C151.089 193.959 150.717 195.149 150.6 196.377L148.414 209.917C148.145 211.065 148.145 212.261 148.414 213.41C148.547 213.722 148.778 213.982 149.072 214.15C149.367 214.318 149.708 214.385 150.044 214.34C150.433 214.363 150.822 214.287 151.174 214.118C151.525 213.95 151.829 213.695 152.056 213.377C152.658 212.313 153.03 211.134 153.148 209.917L155.332 196.377L155.294 196.409ZM136.29 195.862L132.549 219.09H123.114L126.698 196.826C126.92 195.829 126.92 194.795 126.698 193.798C126.584 193.525 126.383 193.297 126.127 193.149C125.871 193.002 125.573 192.943 125.28 192.982C124.936 192.97 124.594 193.045 124.286 193.2C123.978 193.356 123.715 193.587 123.52 193.872C122.988 194.783 122.66 195.8 122.558 196.851L118.974 219.115H109.626L114.752 187.286H123.871L123.537 190.975C124.631 189.634 125.942 188.486 127.415 187.579C128.602 186.878 129.951 186.504 131.329 186.493C133.708 186.493 135.281 187.163 136.023 188.501C136.764 189.839 136.836 192.304 136.272 195.847L136.29 195.862ZM108.16 195.74C108.703 192.236 108.293 189.82 106.929 188.493C105.566 187.165 102.757 186.498 98.503 186.493C94.3307 186.493 91.3427 187.162 89.539 188.501C87.7353 189.839 86.5406 192.252 85.955 195.74L85.8654 196.326H94.1368L94.2183 195.803C94.3165 194.735 94.6746 193.706 95.2613 192.808C95.5057 192.518 95.814 192.289 96.1618 192.139C96.5097 191.989 96.8876 191.922 97.2658 191.943C97.5903 191.897 97.9207 191.965 98.2003 192.136C98.4799 192.307 98.6912 192.571 98.7978 192.881C99.0296 194.034 99.0046 195.224 98.7247 196.366L98.3743 198.57C93.1508 198.872 89.4103 199.68 87.1205 200.953C86.0099 201.568 85.0613 202.438 84.3529 203.493C83.6444 204.547 83.1965 205.755 83.0461 207.017L82.3922 210.837C81.8977 213.906 82.1096 216.183 83.0278 217.668C83.9421 219.162 85.6192 219.896 88.0311 219.896C89.3881 219.89 90.7187 219.521 91.8858 218.827C93.3264 217.914 94.5952 216.753 95.6344 215.399L95.4307 219.089H104.395L108.16 195.74ZM97.4922 203.952L96.4982 210.138C96.4032 211.293 96.0435 212.41 95.4471 213.402C95.2231 213.701 94.9289 213.939 94.5907 214.095C94.2525 214.252 93.8808 214.322 93.5088 214.3C93.1807 214.348 92.8461 214.289 92.5532 214.134C92.2603 213.978 92.0243 213.734 91.8792 213.435C91.6077 212.364 91.6077 211.242 91.8792 210.17L92.2135 208.106C92.3006 206.959 92.819 205.889 93.6639 205.11C94.8027 204.393 96.1164 204.004 97.4615 203.984L97.4922 203.952ZM65.9818 186.289L64.0435 198.36H65.054C67.0994 198.36 68.5988 198.009 69.5197 197.291C70.4406 196.573 71.0597 195.332 71.3534 193.447L71.7235 191.154C72.0161 189.325 71.8051 188.052 71.1124 187.35C70.4197 186.648 69.0425 186.288 66.997 186.288L65.9818 186.289Z" fill="#FF6600"/>
<path d="M282.793 219.139L287.821 187.31V187.212H293.101V187.351L292.287 192.248C292.908 191.454 293.595 190.714 294.34 190.036C295.114 189.333 295.971 188.728 296.891 188.232C297.77 187.759 298.707 187.401 299.678 187.17C300.698 186.931 301.743 186.813 302.791 186.819C305.089 186.819 306.865 187.301 308.096 188.272C308.719 188.758 309.219 189.384 309.555 190.1C309.874 190.81 310.072 191.568 310.14 192.344C310.83 191.503 311.585 190.718 312.397 189.994C313.197 189.297 314.068 188.687 314.996 188.174V188.174C316.709 187.239 318.628 186.748 320.578 186.745C321.758 186.732 322.933 186.891 324.066 187.219C325.051 187.5 325.968 187.977 326.763 188.623C327.515 189.223 328.122 189.984 328.54 190.851C328.963 191.775 329.201 192.773 329.241 193.789V195.307C329.241 195.617 329.184 195.903 329.151 196.229C329.119 196.556 329.07 196.866 329.021 197.201L325.411 219.236V219.334H319.537V219.195L323.35 196.556C323.364 196.385 323.392 196.216 323.432 196.05L323.481 195.592V194.777C323.467 194.333 323.362 193.897 323.171 193.496C322.994 193.131 322.731 192.815 322.405 192.573V192.573C322.032 192.31 321.612 192.121 321.167 192.018C320.601 191.882 320.021 191.819 319.439 191.831C318.317 191.827 317.206 192.061 316.18 192.516C315.08 193.001 314.075 193.678 313.213 194.516C312.288 195.432 311.523 196.497 310.948 197.666C310.349 198.906 309.939 200.229 309.734 201.592V201.592L306.792 219.173V219.271H301.087V219.132L304.762 196.28C304.778 196.126 304.805 195.973 304.843 195.823C304.868 195.669 304.884 195.513 304.892 195.358V195.358V194.557C304.877 194.154 304.786 193.758 304.624 193.39V193.39C304.462 193.052 304.225 192.756 303.931 192.525V192.525C303.608 192.274 303.24 192.088 302.847 191.978C302.378 191.844 301.892 191.781 301.405 191.79C300.209 191.78 299.022 191.998 297.908 192.435C296.788 192.891 295.763 193.553 294.885 194.386V194.386C293.959 195.237 293.187 196.242 292.603 197.356C292.024 198.517 291.631 199.762 291.437 201.045L288.365 219.164V219.262H282.793V219.139Z" fill="#FF6600"/>
<path d="M337.491 200.409H355.241C355.276 200.229 355.296 200.046 355.298 199.862C355.301 199.589 355.288 199.317 355.257 199.046C355.262 196.879 354.464 194.788 353.016 193.178C352.315 192.462 351.472 191.902 350.541 191.533C349.61 191.165 348.612 190.996 347.612 191.039C346.438 191.004 345.269 191.202 344.173 191.622C343.076 192.042 342.074 192.676 341.223 193.487C339.279 195.354 337.973 197.787 337.491 200.441L337.491 200.409ZM359.664 208.766C359.249 212.059 357.586 215.065 355.019 217.164C352.27 219.258 348.88 220.332 345.428 220.201C341.256 220.201 337.996 219.009 335.649 216.626C333.302 214.242 332.012 210.812 331.778 206.333C331.477 200.457 332.772 195.634 335.692 191.902C337.055 190.109 338.827 188.669 340.86 187.703C342.894 186.738 345.128 186.274 347.377 186.352C351.305 186.352 354.494 187.514 356.944 189.838C359.394 192.161 360.716 195.293 360.91 199.234C360.91 199.984 360.95 200.817 360.91 201.724C360.869 202.631 360.82 203.65 360.714 204.793H336.845V204.948C336.845 205.821 336.796 206.425 336.845 206.784C336.94 209.233 337.939 211.56 339.649 213.313C341.14 214.823 343.233 215.574 345.915 215.574C347.89 215.643 349.823 214.991 351.354 213.738C352.884 212.486 353.908 210.72 354.235 208.768L359.664 208.766Z" fill="#FF6600"/>
<path d="M393.384 219.156L398.412 187.342H403.741L398.658 219.156H393.384Z" fill="#FF6600"/>
<path d="M425.605 203.151C423.567 203.832 421.444 204.222 419.298 204.309C417.572 204.397 415.854 204.599 414.156 204.913C412.858 205.137 411.677 205.804 410.814 206.8C410.07 207.834 409.734 209.107 409.869 210.375C409.879 211.074 410.028 211.764 410.308 212.404C410.588 213.045 410.993 213.623 411.499 214.105C412.577 215.057 413.983 215.552 415.418 215.484C416.778 215.551 418.135 215.301 419.382 214.755C420.629 214.208 421.732 213.38 422.606 212.334C424.317 210.236 425.328 207.176 425.613 203.128L425.605 203.151ZM423.16 219.417L423.568 216.65C421.209 218.937 418.041 220.193 414.759 220.143C411.673 220.143 409.228 219.281 407.425 217.556C405.531 215.657 404.467 213.083 404.467 210.399C404.288 206.998 405.233 204.484 407.302 202.857C409.38 201.225 412.958 200.262 418.067 199.944H418.483C424.22 199.568 427.015 197.971 426.868 195.153C426.872 194.548 426.724 193.953 426.44 193.42C426.155 192.887 425.742 192.433 425.239 192.1C423.81 191.361 422.206 191.028 420.602 191.137C417.66 191.137 415.631 191.529 414.539 192.296C413.447 193.063 412.697 194.508 412.314 196.606H407.042C407.422 193.26 408.718 190.749 410.929 189.072C413.14 187.396 416.285 186.56 420.364 186.567C424.07 186.567 426.952 187.217 429.011 188.517C429.976 189.075 430.783 189.871 431.353 190.83C431.924 191.788 432.24 192.878 432.27 193.993C432.282 194.38 432.263 194.768 432.213 195.152C432.156 195.674 432.05 196.532 431.871 197.772L428.473 219.408L423.16 219.417Z" fill="#FF6600"/>
<path d="M362.474 219.156L367.689 186.355H378.967C380.897 186.298 382.826 186.457 384.72 186.828C386.387 187.179 387.922 187.99 389.153 189.169C390.68 190.701 391.718 192.652 392.135 194.776C392.636 197.348 392.653 199.992 392.184 202.57C391.846 204.86 391.196 207.093 390.253 209.206C389.491 210.936 388.484 212.547 387.262 213.988C386.269 215.15 385.104 216.152 383.807 216.959C382.51 217.72 381.102 218.271 379.634 218.591C377.879 218.981 376.086 219.168 374.288 219.146L362.474 219.156ZM367.982 214.602H374.591C376.24 214.651 377.887 214.458 379.481 214.03C380.592 213.7 381.624 213.145 382.512 212.398C383.732 211.3 384.716 209.964 385.405 208.472C386.284 206.58 386.878 204.566 387.165 202.498C387.686 199.234 387.548 196.784 386.766 195.031C386.155 193.474 384.962 192.218 383.441 191.529C381.761 191.014 380.004 190.798 378.25 190.893H371.731L367.982 214.602Z" fill="#FF6600"/>
</g>
<defs>
<clipPath id="clip0_387_3297">
<rect width="500" height="106.952" fill="white" transform="translate(50 147)"/>
</clipPath>
</defs>
</svg>
