<svg width="600" height="400" viewBox="0 0 600 400" fill="none" xmlns="http://www.w3.org/2000/svg">
<path d="M93.3927 149.123H62.9047V151.591H72.789V201.853C72.789 217.097 68.6714 221.215 59.1994 221.215C53.4327 221.215 52.1959 216.685 52.1959 214.623C52.1959 209.269 51.7836 205.564 46.8361 205.564C41.894 205.564 41.0747 210.506 41.0747 212.155C41.0747 219.159 44.3677 224.513 57.9626 224.513C74.4434 224.513 83.0908 219.159 83.0908 200.622V151.586H92.9804V149.123H93.3927ZM97.5156 212.974C95.8664 212.974 94.2173 213.397 93.3927 214.623C92.1558 215.86 91.7436 217.097 91.7436 218.746C91.7436 220.385 92.1558 221.627 93.3927 222.869C94.6296 224.101 95.8664 224.508 97.5156 224.508C99.1594 224.508 100.396 224.095 101.633 222.869C102.87 221.632 103.282 220.385 103.282 218.746C103.282 217.097 102.87 215.86 101.633 214.623C100.396 213.387 99.1594 212.974 97.5103 212.974H97.5156ZM165.078 212.974C163.428 212.974 162.192 213.397 160.955 214.623C159.723 215.86 159.311 217.097 159.311 218.746C159.311 220.385 159.723 221.627 160.955 222.869C162.192 224.101 163.428 224.508 165.078 224.508C166.727 224.508 168.371 224.095 169.2 222.869C170.432 221.627 170.844 220.385 170.844 218.746C170.844 217.097 170.432 215.86 169.195 214.623C167.958 213.387 166.727 212.974 165.072 212.974H165.078ZM143.649 149.123H113.986V151.591H122.639V209.274C122.639 213.804 122.226 215.036 121.814 216.273C121.402 217.927 120.165 218.752 118.103 219.576C116.872 219.988 114.81 220.395 111.924 220.395V222.869H144.062V220.395C141.176 220.395 139.119 219.988 137.877 219.576C135.821 218.752 134.584 217.515 134.177 216.278C133.627 214.831 133.346 213.296 133.347 211.748V191.964H141.176C164.248 191.964 170.839 182.904 170.839 170.541C170.839 157.77 167.134 149.123 143.649 149.123ZM139.526 189.083H133.347V152.004H138.707C156.42 152.004 160.537 159.419 160.537 170.953C160.537 182.899 153.539 189.083 139.526 189.083ZM266.008 215.86C265.465 214.269 265.186 212.599 265.184 210.918V151.591H273.007V149.123H254.068C253.656 149.947 231.413 205.151 231.413 205.151L231.001 205.569C230.589 205.569 230.589 205.569 230.589 205.157C230.589 205.157 206.697 149.535 206.697 149.123H185.671V151.597H194.736V214.216C194.736 215.459 194.323 216.695 193.499 217.927C192.674 219.164 191.437 219.988 190.201 220.395C189.376 220.818 187.732 220.818 186.078 220.818V223.281H206.681V220.808C205.032 220.808 204.208 220.395 202.976 220.395C201.327 219.983 200.502 219.159 199.678 217.922C198.853 217.097 198.441 215.86 198.441 214.216L198.029 208.857V159.414H199.266C199.266 159.414 226.043 222.034 226.455 222.859H228.517L254.057 159.832H254.882V210.918C254.882 212.98 254.47 214.623 254.057 216.273C253.645 217.922 252.413 218.746 250.764 219.571C249.038 220.143 247.228 220.42 245.41 220.39V222.864H274.249V220.39C272.429 220.421 270.617 220.144 268.889 219.571C267.657 218.746 266.421 217.509 266.008 215.86ZM305.144 168.897C289.487 168.897 280.015 179.193 280.015 196.911C280.015 223.276 300.614 224.925 304.731 224.925C313.384 224.925 329.865 219.571 329.865 196.504C329.865 178.374 319.151 168.897 305.144 168.897ZM304.731 221.627C293.198 221.627 291.137 215.866 291.137 197.323C291.137 182.904 291.961 172.19 304.731 172.19C318.326 172.19 318.326 183.311 318.326 196.493C318.326 215.036 315.033 221.627 304.731 221.627ZM370.243 169.721C361.172 169.721 357.885 175.076 355.406 180.842H354.581C354.581 180.842 353.349 172.602 352.937 170.541H334.807V173.427H344.691V209.681C344.691 213.387 344.284 215.866 343.465 217.504C342.635 219.159 340.162 220.39 336.456 220.39H334.807V223.688H365.295V220.39H363.646C359.523 220.39 357.885 219.571 357.049 217.922C356.23 216.273 355.818 213.799 355.818 210.094V190.32C355.818 184.135 360.76 176.725 366.532 176.725C372.711 176.725 372.293 185.785 379.302 182.079C382.601 180.018 381.776 169.721 370.243 169.721ZM490.123 217.504C486.824 217.504 486.005 215.866 485.593 212.567V183.728C485.593 178.781 484.763 175.9 481.887 173.009C479.001 170.128 473.642 168.886 465.819 168.886C458.403 168.886 453.049 170.128 449.338 173.009C446.045 175.488 444.401 177.956 444.401 181.667C444.401 183.306 444.813 184.548 445.633 184.96C446.457 185.785 447.694 186.197 448.926 186.197C451.806 186.197 453.461 184.558 454.28 180.842C454.703 177.956 455.517 176.313 456.759 174.658C458.398 173.02 460.882 172.19 463.757 172.19C467.468 172.19 470.349 173.009 471.586 175.07C472.822 177.132 473.647 179.606 473.647 182.893V191.551C464.164 192.376 441.098 194.432 442.334 211.737C442.747 218.329 448.519 224.508 456.342 224.508C464.994 224.508 470.343 219.571 474.049 215.855C474.466 219.566 478.172 224.101 484.356 224.101C491.354 224.101 495.477 220.802 495.895 212.15H494.245C494.245 215.448 492.184 217.509 490.123 217.509V217.504ZM474.472 211.743V212.155L474.059 212.567C469.117 217.102 465 218.752 462.114 218.752C454.698 218.752 453.461 212.567 453.461 209.687C453.461 199.802 467.056 194.855 474.472 194.855V211.743ZM551.923 217.097C551.099 215.453 549.862 212.974 549.862 209.274V185.372C549.862 182.079 549.449 178.781 548.213 176.725C546.976 174.251 544.92 172.602 542.858 171.365C540.384 170.128 537.916 169.721 535.035 169.721C524.321 169.721 520.198 176.313 517.73 180.018H516.905L514.844 170.541H498.363V173.427H506.609V209.681C506.609 212.567 506.191 214.623 505.779 215.866C505.361 217.504 504.14 218.746 502.898 219.159C502.074 219.571 500.424 219.983 498.363 219.983V223.276H524.316V219.983C521.842 219.571 519.781 219.159 518.961 217.922C518.137 216.685 517.318 214.211 517.318 210.506V196.499C517.318 190.737 517.318 184.96 519.379 181.667C521.435 177.956 525.553 175.9 529.676 175.9C533.798 175.9 535.855 177.137 537.097 179.606C538.328 181.667 538.735 187.846 538.735 191.964V209.269C538.735 212.15 539.158 214.211 538.735 215.453C538.328 217.092 537.916 218.334 536.674 219.153C535.855 219.983 534.2 219.983 532.556 220.39V223.688H557.695V220.39C554.804 219.159 552.748 218.329 551.923 217.097ZM434.099 166.423C432.45 166.835 431.626 168.484 430.801 170.546C430.389 172.607 429.564 173.839 428.327 174.246C427.09 174.663 425.859 174.663 424.622 173.839C421.741 171.365 416.794 168.484 407.729 168.484C392.897 168.484 386.718 178.781 386.718 188.253C386.718 199.379 390.841 204.739 400.308 206.795C400.725 206.795 400.725 207.62 400.308 207.62C392.485 209.269 385.069 211.743 385.069 219.159C385.069 223.694 387.543 226.162 391.253 227.811C394.953 229.455 400.308 230.285 406.904 230.285C412.666 230.285 416.789 230.697 419.262 230.697C421.745 231.017 424.132 231.861 426.266 233.171C427.915 234.408 428.74 236.469 428.74 238.932C428.74 242.643 426.678 245.117 422.973 247.59C419.273 249.652 414.727 250.476 408.553 250.476C403.611 250.476 399.081 250.059 395.371 247.59C392.49 245.941 392.073 242.648 392.49 240.175C392.908 237.701 392.073 235.232 389.192 234.408C388.315 234.215 387.4 234.311 386.583 234.683C385.766 235.055 385.092 235.681 384.662 236.469C383.832 237.696 383.42 239.345 383.42 241.406C383.42 247.585 388.367 250.466 392.073 251.703C397.839 253.347 401.555 253.764 406.492 253.764C413.501 253.764 418.85 252.527 422.973 250.878C427.096 248.817 429.569 246.348 431.213 243.462C432.857 240.582 433.687 237.696 433.687 234.81C433.687 231.104 432.857 227.806 431.213 225.75C425.859 218.746 418.438 219.566 401.962 218.746C394.134 218.746 392.485 217.097 392.485 214.623C392.485 210.918 395.371 209.681 406.904 207.62C418.438 205.971 429.147 201.441 429.147 187.846C429.147 183.723 428.327 180.43 427.085 177.962C429.564 178.369 431.626 178.369 433.682 177.962C436.161 177.137 437.387 175.9 438.217 174.663C439.041 173.014 439.448 171.365 438.629 170.128C439.041 166.835 436.98 165.598 434.099 166.423ZM408.146 205.151C401.148 205.151 397.432 202.672 397.432 188.671C397.432 178.786 400.731 171.365 408.146 171.365C416.799 171.365 419.268 177.956 419.268 188.258C419.268 203.09 414.738 205.151 408.146 205.151Z" fill="black"/>
</svg>
