<svg width="400" height="400" fill="none" xmlns="http://www.w3.org/2000/svg"><path fill-rule="evenodd" clip-rule="evenodd" d="M170.95 154.239c-.5.156-.916-.052-1.247-.623a10.58 10.58 0 0 0-1.247-.374 6.823 6.823 0 0 1-.873-1.247 89.736 89.736 0 0 0-11.97-23.94 53.83 53.83 0 0 0-2.868-3.242 36.646 36.646 0 0 1-4.115 13.965 137.398 137.398 0 0 1-1.745 10.224 10.848 10.848 0 0 1-1.372 4.115 128.43 128.43 0 0 0 15.96 15.586c-.077.309-.202.309-.374 0-.166.167-.166.333 0 .499.354.239.728.447 1.122.623a1.226 1.226 0 0 1-.748.125c-.218-.033-.384.05-.498.249a9.852 9.852 0 0 1-1.123 2.744 42.554 42.554 0 0 0-5.735 5.236 11.682 11.682 0 0 0-.374 3.991 12.515 12.515 0 0 1-3.367-3.242 226.678 226.678 0 0 0-1.496-8.479c-.315-.573-.772-.781-1.372-.624a9.798 9.798 0 0 1-1.995 3.367l-.249-.374c.393-.74.56-1.53.499-2.369-2.742.135-5.485.26-8.23.374 4.01 2.912 7.044 6.611 9.102 11.097 1.365 5.629-.672 9.328-6.109 11.097a33.169 33.169 0 0 1-13.467.749 19.494 19.494 0 0 1-3.74-1.123 8.78 8.78 0 0 1 0 2.245c-.012.383.154.633.498.748a.822.822 0 0 1-.498.374l.498.249c-.056.1-.14.141-.249.125-.588-.062-1.087.104-1.496.499.053-.419-.113-.668-.499-.748a3.864 3.864 0 0 0 .499-2.12l-.873-6.609a441.645 441.645 0 0 0-.623-20.947 7.425 7.425 0 0 1 .623-3.741c.062.28.187.53.374.748.151-.031.235-.114.249-.249a37.593 37.593 0 0 0 9.103-6.484c.113-.31-.011-.518-.374-.623a20.72 20.72 0 0 1-3.741-.998 1.614 1.614 0 0 1-.249-1.122 63.336 63.336 0 0 0 12.468 1.122c1.941-.313 3.645-1.102 5.113-2.369.484-.885.899-1.799 1.247-2.743a252.207 252.207 0 0 0 2.743-15.461 26.206 26.206 0 0 1 1.496-4.739c.346-3.091.014-6.083-.998-8.977a2.529 2.529 0 0 0-.872-1.247c-.015-.135-.098-.218-.25-.249a10.773 10.773 0 0 0-.249 3.242v.249l-.998-1.496v-1.995c-.554-.081-1.011.086-1.371.498a4.895 4.895 0 0 0-.873 3.492c-.96-.001-1.625-.458-1.995-1.372a1.235 1.235 0 0 0-.748-.125c.002.633.085 1.257.249 1.871-.259.86-.466 1.732-.623 2.618a9.744 9.744 0 0 1-1.122 1.122c-.466.178-.84.053-1.123-.374-.901-2.02-.777-3.973.374-5.86-.079-.412-.329-.662-.748-.748a2.751 2.751 0 0 0-2.244.374c-.442-.192-.691-.525-.748-.998l.997-1.496c-1.097-2.617-1.43-5.319-.997-8.105a7.223 7.223 0 0 1-1.746-2.119c.316-.321.233-.571-.249-.748.332-.25.332-.499 0-.749l.748-.498c-.031-.152-.114-.235-.249-.25-4.022-11.936-1.279-21.953 8.229-30.05 3.988-3.03 8.477-4.11 13.466-3.242 17.546 3.044 23.573 13.06 18.08 30.05a27.285 27.285 0 0 0 0 11.472 369.813 369.813 0 0 0 3.242 12.967c1.653 5.499 1.403 10.902-.748 16.21-.401.816-.9 1.564-1.496 2.244.325-2.132.408-4.293.249-6.484l-.249-.748-.25.25a31.103 31.103 0 0 1-1.496 7.232 57.907 57.907 0 0 1-3.616 6.234 17.232 17.232 0 0 0 1.746 2.244z" fill="#000"/><path fill-rule="evenodd" clip-rule="evenodd" d="M267.458 105.611v1.247c-3.763-1.642-6.506-4.344-8.229-8.105.494-.623.618-1.33.374-2.12a4.486 4.486 0 0 1-1.746-.748 6.603 6.603 0 0 1-.623-2.992c.77-.01 1.351-.343 1.745-.998-.798-.175-1.588-.341-2.369-.498a53.59 53.59 0 0 0-.374-3.242 35.194 35.194 0 0 0 12.22-6.11c.244-.148.411-.064.498.25a21.445 21.445 0 0 0 .375 6.857 26.985 26.985 0 0 0 2.992 5.486c1.067 1.96.818 3.706-.748 5.237a73.175 73.175 0 0 1-1.247 5.237 1.987 1.987 0 0 1-1.621.125c-.883-1.278-1.299-1.153-1.247.374zM159.727 89.401c4.702 2.085 8.028 5.535 9.975 10.35-.208.444-.457.444-.748 0a10.21 10.21 0 0 0-2.245-.125v.748c1.18.07 2.136.569 2.868 1.496-.22 7.38-3.586 12.824-10.099 16.334a6.95 6.95 0 0 1-3.242.25 37.052 37.052 0 0 0-5.861-2.619c-1.24.362-2.445.82-3.616 1.372a32.195 32.195 0 0 1-4.488 2.992c-2.424.388-4.128-.568-5.113-2.867a20.005 20.005 0 0 1-1.122-7.232c7.396-.768 13.671-3.843 18.828-9.227 2.66-3.36 4.281-7.184 4.863-11.472z" fill="#fff"/><path fill-rule="evenodd" clip-rule="evenodd" d="M264.216 89.65h2.743c.067.487-.097.861-.499 1.123-1.272.072-2.519.28-3.741.624l-.748-.25a5.601 5.601 0 0 1 2.245-1.496zM256.236 88.155a53.59 53.59 0 0 1 .374 3.242c.781.157 1.571.323 2.369.498-.394.655-.975.987-1.745.998a6.603 6.603 0 0 0 .623 2.992 4.486 4.486 0 0 0 1.746.748c.244.79.12 1.497-.374 2.12 1.723 3.761 4.466 6.463 8.229 8.105v-1.247c.347.721.262 1.428-.249 2.12 1.139.326 2.301.451 3.491.374-1.225.336-2.471.294-3.741-.125-3.244-1.498-5.778-3.784-7.606-6.858-2.326-3.942-3.613-8.182-3.865-12.718.154.028.279.11.374.25a.83.83 0 0 1 .374-.5zM264.216 93.89c.446-.07.86.012 1.247.25a4.59 4.59 0 0 1 .498 2.244 1.617 1.617 0 0 1-1.122-.25 3.343 3.343 0 0 1-.623-2.244zM157.982 97.88c1.226-.062 2.306.27 3.242.998-1.258-.144-2.505.022-3.741.498-.369-.687-.203-1.186.499-1.496z" fill="#000"/><path fill-rule="evenodd" clip-rule="evenodd" d="M260.974 94.389a.712.712 0 0 1 .624.25c.082 1.745.167 3.49.249 5.236.13.43.379.762.748.998a16.49 16.49 0 0 1 2.619-.998c.037.263-.005.512-.125.748-2.202 2.297-3.616 1.881-4.24-1.247a17.38 17.38 0 0 1 .125-4.987z" fill="#000"/><path fill-rule="evenodd" clip-rule="evenodd" d="M125.563 122.319c-.3.226-.633.226-.998 0-.376-.306-.751-.306-1.122 0a161.566 161.566 0 0 0-3.242 40.399c.043 1.293.169 2.54.375 3.741.373 6.971.581 13.954.623 20.947l.873 6.609a3.864 3.864 0 0 1-.499 2.12c-1.761 1.98-3.923 2.521-6.484 1.621-2.207-.879-3.496-2.5-3.866-4.863a7.888 7.888 0 0 0-.374-1.995 123.066 123.066 0 0 0-4.239-20.699 157.553 157.553 0 0 1-3.242-23.94v-.748c-.433-8.103-.849-16.208-1.247-24.314a30.908 30.908 0 0 1 1.621-11.097c3.627-7.695 9.653-10.895 18.08-9.601 2.09.442 3.96 1.315 5.611 2.618.46 1.332.667 2.704.623 4.115a56.41 56.41 0 0 1-2.493 15.087z" fill="#fff"/><path fill-rule="evenodd" clip-rule="evenodd" d="M158.231 101.372c.655-.052 1.071.239 1.247.872a3.12 3.12 0 0 0-.499 2.12c-.471.051-.845-.115-1.122-.499-.211-.89-.087-1.722.374-2.493zM133.793 105.86c.135.015.218.098.249.25l-.748.498c.332.25.332.499 0 .749.482.177.565.427.249.748-.159.149-.242.356-.249.623.164 4.946.372 9.892.623 14.838.194 2.55.859 4.96 1.995 7.232.606.983 1.479 1.481 2.619 1.496 3.389-.52 5.592-2.432 6.608-5.735a23.757 23.757 0 0 0 1.122-5.237l.998 1.496c-.49 3.348-1.82 6.299-3.99 8.853-5.265 3.457-8.465 2.085-9.601-4.115a74.585 74.585 0 0 1-1.247-8.479c-.16-4.406-.326-8.811-.499-13.217a.906.906 0 0 0-.374-.249c.823 10.176-1.546 19.486-7.107 27.93a4.968 4.968 0 0 0-1.995 2.993 120.14 120.14 0 0 0-.624 26.683c-.014.135-.098.218-.249.249a1.697 1.697 0 0 1-.374-.748 7.425 7.425 0 0 0-.623 3.741 27.523 27.523 0 0 1-.375-3.741 161.566 161.566 0 0 1 3.242-40.399c.371-.306.746-.306 1.122 0-.433 3.88-.1 3.88.998 0a56.41 56.41 0 0 0 2.493-15.087 11.414 11.414 0 0 0-.623-4.115 13.412 13.412 0 0 0-5.611-2.618c-8.427-1.294-14.453 1.906-18.08 9.601a30.908 30.908 0 0 0-1.621 11.097c.398 8.106.814 16.211 1.247 24.314-.366.688-.531.605-.498-.249h-.748c.08-.329.163-.661.249-.998a628.375 628.375 0 0 1-1.247-20.947c.041-.753 0-1.501-.124-2.245a.84.84 0 0 0-.374.748 37.751 37.751 0 0 1-4.365 10.724c-3.8 4-8.414 6.619-13.84 7.855-.455.249-.87.54-1.247.873-.2-.23-.242-.48-.125-.748a9.007 9.007 0 0 1 1.123-.873.607.607 0 0 0-.5-.125 125.99 125.99 0 0 0 9.727-4.364c3.035-1.961 5.072-4.662 6.11-8.105a113.245 113.245 0 0 1 3.241-9.476c.443-4.555 1.939-8.711 4.489-12.469 4.607-5.423 10.385-7.293 17.332-5.61 4.197 1.333 7.854 3.536 10.972 6.608.152-.031.235-.114.25-.25zM267.209 102.12h.748c.04.342-.003.675-.125.997a4.428 4.428 0 0 0-1.122 1.372c-.661.124-1.324.165-1.995.124a1.228 1.228 0 0 1 .125-.748 5.231 5.231 0 0 1 1.62-.873c.302-.259.552-.55.749-.872zM166.71 103.367c.688-.146 1.104.103 1.247.748-.099.8-.431 1.465-.998 1.995-.911-.806-.994-1.72-.249-2.743z" fill="#000"/><path fill-rule="evenodd" clip-rule="evenodd" d="M147.259 122.818v-.249l.499-2.993c.408.311.699.727.872 1.247 1.012 2.894 1.344 5.886.998 8.977a26.206 26.206 0 0 0-1.496 4.739A252.207 252.207 0 0 1 145.389 150a20.445 20.445 0 0 1-1.247 2.743c-1.468 1.267-3.172 2.056-5.113 2.369a63.336 63.336 0 0 1-12.468-1.122c-.054.41.03.784.249 1.122a20.72 20.72 0 0 0 3.741.998c.363.105.487.313.374.623a37.593 37.593 0 0 1-9.103 6.484 120.14 120.14 0 0 1 .624-26.683 4.968 4.968 0 0 1 1.995-2.993c5.561-8.444 7.93-17.754 7.107-27.93a.906.906 0 0 1 .374.249c.173 4.406.339 8.811.499 13.217.253 2.85.669 5.677 1.247 8.479 1.136 6.2 4.336 7.572 9.601 4.115 2.17-2.554 3.5-5.505 3.99-8.853z" fill="#fff"/><path fill-rule="evenodd" clip-rule="evenodd" d="M335.039 186.658a2.192 2.192 0 0 0-.374.998 2.084 2.084 0 0 1-.125-.998h-.748a50.806 50.806 0 0 0-4.614-17.456c-4.224-9.377-10.169-17.482-17.83-24.314a45.149 45.149 0 0 0-3.491-2.369c.239-.289.488-.58.748-.873-.018-.191-.1-.316-.25-.374-1.563-2.351-3.641-4.139-6.234-5.362a45.49 45.49 0 0 1 7.731 1.247 670.875 670.875 0 0 0 22.942 8.479 3.267 3.267 0 0 0 2.12-.125c.04-.47-.167-.845-.624-1.122a468.23 468.23 0 0 0-19.202-7.357c-.446-4.08-1.775-7.821-3.99-11.222-.371.212-.538.544-.498.998a56.906 56.906 0 0 1 1.995 9.227 86.083 86.083 0 0 0-8.978-1.621c-5.282-.662-9.396 1.208-12.344 5.611a7.639 7.639 0 0 0-.998 4.738c.452.186.911.352 1.372.499a2.08 2.08 0 0 1-.125.997c-.548.225-1.089.475-1.621.748-2.753 5.123-4.042 10.61-3.865 16.459-.277 6.569-.568 13.136-.873 19.701a70.881 70.881 0 0 0-.374 5.985l-.249-2.494c-.082.25-.167.499-.25.748a3.246 3.246 0 0 0-.374-1.246c-3.586-.402-6.621-1.982-9.102-4.739a17.276 17.276 0 0 1-.623-1.496c-.185-1.173-.185-2.254 0-3.242a16.29 16.29 0 0 1 2.618-5.985c1.604-2.967 2.185-6.125 1.746-9.476a214.047 214.047 0 0 0-6.484-17.207 87.833 87.833 0 0 1-2.494-10.474c-.935-.461-1.474-.17-1.621.873a71.536 71.536 0 0 0 5.736 17.706 117.356 117.356 0 0 1-6.609 13.84c-.167.332-.331.332-.498 0a25.176 25.176 0 0 0-6.11-9.352 16.145 16.145 0 0 0-3.491-1.496 25.213 25.213 0 0 1-2.245-2.494c-1.01-.139-1.675-.68-1.995-1.621a543.616 543.616 0 0 0 5.113-18.204 41.18 41.18 0 0 1 7.231-12.22 232.666 232.666 0 0 1 9.477-8.728 14.157 14.157 0 0 0-.374-5.361c-.651-.185-1.068.064-1.247.748a6.485 6.485 0 0 1-2.244.873 10.193 10.193 0 0 1-3.491-.374c.511-.692.596-1.399.249-2.12-.052-1.527.364-1.652 1.247-.374a1.987 1.987 0 0 0 1.621-.125 73.175 73.175 0 0 0 1.247-5.237c1.566-1.531 1.815-3.277.748-5.237a26.985 26.985 0 0 1-2.992-5.486 21.445 21.445 0 0 1-.375-6.858c-.087-.313-.254-.397-.498-.25a35.194 35.194 0 0 1-12.22 6.11.83.83 0 0 0-.374.5.562.562 0 0 0-.374-.25c-4.524-.792-6.686-3.535-6.484-8.23-.02-3.7 1.269-6.858 3.865-9.476 7.354-6.607 15.793-8.477 25.312-5.61 2.057.809 3.76 2.097 5.112 3.865.386.565.596 1.189.623 1.87-.222.988-.431 1.944-.623 2.868 2.287 1.747 3.534 4.074 3.741 6.982a45.226 45.226 0 0 1-1.247 9.726 35.811 35.811 0 0 0 0 5.985 9.775 9.775 0 0 1 .997 4.738c.831 1.995 1.664 3.99 2.494 5.985.392.155.808.239 1.247.25a50.307 50.307 0 0 1 17.581.124c4.284 1.393 8.11 3.555 11.471 6.484 11.708 10.74 19.482 23.832 23.317 39.277.436 3.327-.853 5.697-3.865 7.107-2.993 1.182-6.068 1.431-9.227.748a15.626 15.626 0 0 0-4.24-.873c-.05.472.115.846.499 1.123a28.26 28.26 0 0 0 8.978 2.119 90.468 90.468 0 0 1 0 23.192z" fill="#000"/><path fill-rule="evenodd" clip-rule="evenodd" d="M274.689 86.658c1.245-.045 2.035.537 2.37 1.746a20.17 20.17 0 0 1 0 4.489 2.93 2.93 0 0 1-.873 1.122 12.285 12.285 0 0 0 4.489 4.738 14.669 14.669 0 0 0 5.236 2.244 14.693 14.693 0 0 1 1.372 5.113c-1.888 2.301-4.257 3.922-7.107 4.863-1.397.272-2.726.105-3.99-.499a39.767 39.767 0 0 1-1.372-4.614 2.296 2.296 0 0 1 0-1.496 15.576 15.576 0 0 0 2.369-5.362 225.399 225.399 0 0 0-3.117-6.359 22.468 22.468 0 0 1 0-4.738c.212-.422.419-.838.623-1.247z" fill="#fff"/><path fill-rule="evenodd" clip-rule="evenodd" d="M163.219 102.868a.566.566 0 0 1 .374.249 11.84 11.84 0 0 0 1.995 5.736c.344.991.053 1.698-.873 2.12a10.467 10.467 0 0 1-4.489.498c-.355-.427-.272-.76.249-.997a64.172 64.172 0 0 0 4.24-.374 40.092 40.092 0 0 0-1.621-3.99 7.58 7.58 0 0 1 .125-3.242z" fill="#000"/><path fill-rule="evenodd" clip-rule="evenodd" d="M133.543 108.105a7.223 7.223 0 0 0 1.746 2.119c-.433 2.786-.1 5.488.997 8.105l-.997 1.496c.057.473.306.806.748.998a2.751 2.751 0 0 1 2.244-.374c.419.086.669.336.748.748-1.151 1.887-1.275 3.84-.374 5.86.283.427.657.552 1.123.374.4-.339.774-.713 1.122-1.122.157-.886.364-1.758.623-2.618a7.312 7.312 0 0 1-.249-1.871c.262-.037.512.005.748.125.37.914 1.035 1.371 1.995 1.372a4.895 4.895 0 0 1 .873-3.492c.36-.412.817-.579 1.371-.498v1.995a23.757 23.757 0 0 1-1.122 5.237c-1.016 3.303-3.219 5.215-6.608 5.735-1.14-.015-2.013-.513-2.619-1.496a19.288 19.288 0 0 1-1.995-7.232 845.797 845.797 0 0 1-.623-14.838c.007-.267.09-.474.249-.623z" fill="#fff"/><path fill-rule="evenodd" clip-rule="evenodd" d="M154.74 110.848c.262-.037.511.004.748.125 1.131 1.278 2.544 2.068 4.239 2.369a.772.772 0 0 1 .25.748 8.068 8.068 0 0 1-3.99-1.372 1.062 1.062 0 0 0-.998 0c.841 1.505 2.088 2.544 3.741 3.117-.168.361-.459.527-.873.499-2.808-.881-3.847-2.71-3.117-5.486zM147.758 119.576l-.499 2.993a10.773 10.773 0 0 1 .249-3.242c.152.031.235.114.25.249zM101.124 123.317l-.498-1.497a.84.84 0 0 1 .374-.748c.124.744.165 1.492.124 2.245zM125.563 122.319c-.3.226-.633.226-.998 0-.433 3.88-.1 3.88.998 0z" fill="#000"/><path fill-rule="evenodd" clip-rule="evenodd" d="m100.626 121.82.498 1.497c.299 6.991.715 13.973 1.247 20.947-.086.337-.169.669-.249.998a80.859 80.859 0 0 1-20.574 13.217.976.976 0 0 1-.499-.25c-1.807-4.171-2.306-8.494-1.496-12.967a41.994 41.994 0 0 1 1.621-3.99 6.819 6.819 0 0 1 1.247-.873c5.426-1.236 10.04-3.855 13.84-7.855a37.751 37.751 0 0 0 4.365-10.724zM168.456 153.242a194.227 194.227 0 0 1 10.349 9.975 130.515 130.515 0 0 0 9.351 9.85 61.823 61.823 0 0 0 6.235 4.115c.27.216.311.465.124.748a6.62 6.62 0 0 0-2.493 2.743c-.239 1.74-.447 3.486-.624 5.237-10.891-4.256-20.866-9.991-29.925-17.207a128.43 128.43 0 0 1-15.96-15.586 10.848 10.848 0 0 0 1.372-4.115c.71-3.385 1.292-6.793 1.745-10.224a36.646 36.646 0 0 0 4.115-13.965 53.83 53.83 0 0 1 2.868 3.242 89.736 89.736 0 0 1 11.97 23.94c.249.455.54.87.873 1.247zM308.355 141.272c-.381.585-.88.627-1.496.125a3.68 3.68 0 0 1-.499-1.621 14.576 14.576 0 0 1-3.99.872 7.767 7.767 0 0 0-1.995.998c-1 1.377-1.83 2.831-2.494 4.364-.331 0-.498-.166-.498-.499.124-1.336.291-2.666.498-3.99-.91.031-1.616.446-2.119 1.247a121.276 121.276 0 0 0-1.621 3.491 2.269 2.269 0 0 1-.499-1.621c1.254-5.265.631-5.473-1.87-.623-.152.497-.028.913.374 1.247h-.499a17.89 17.89 0 0 1-1.372-.499 7.639 7.639 0 0 1 .998-4.738c2.948-4.403 7.062-6.273 12.344-5.611 3.025.382 6.018.923 8.978 1.621a56.906 56.906 0 0 0-1.995-9.227c-.04-.454.127-.786.498-.998 2.215 3.401 3.544 7.142 3.99 11.222a468.23 468.23 0 0 1 19.202 7.357c.457.277.664.652.624 1.122a3.267 3.267 0 0 1-2.12.125 670.875 670.875 0 0 1-22.942-8.479 45.49 45.49 0 0 0-7.731-1.247c2.593 1.223 4.671 3.011 6.234 5.362z" fill="#fff"/><path fill-rule="evenodd" clip-rule="evenodd" d="M81.673 139.526a.607.607 0 0 1 .499.125c-.397.261-.77.552-1.123.873-.117.268-.075.518.125.748a41.994 41.994 0 0 0-1.621 3.99c-.81 4.473-.311 8.796 1.496 12.967.14.131.306.214.499.25a80.859 80.859 0 0 0 20.574-13.217h.748c-.033.854.132.937.498.249v.748c.126 1.512-.205 2.759-.997 3.741-5.485 5.018-11.72 8.884-18.703 11.596-.214.172-.38.38-.499.623 5.023 7.084 11.923 10.617 20.698 10.599a49.942 49.942 0 0 1-10.723 2.743 102.764 102.764 0 0 0-19.202-14.713c-.603-.228-.936-.021-.997.623.093.47.343.844.748 1.123a107.531 107.531 0 0 1 23.815 22.319c4.727 6.713 7.886 14.111 9.476 22.194.663 5.906-1.955 9.272-7.855 10.1-4.157.356-8.147-.309-11.97-1.995-15.17-6.229-28.845-14.749-41.022-25.561-.695-.911-.82-1.909-.374-2.993-3.99.172-7.98.214-11.97.125-2.322-1.132-2.862-2.836-1.621-5.112a17.736 17.736 0 0 1 5.361-3.866 69.015 69.015 0 0 1 12.718-4.862c-.962-9.008 1.947-16.531 8.729-22.569a41.511 41.511 0 0 1 9.725-5.985c4.3-1.696 8.624-3.317 12.968-4.863z" fill="#000"/><path fill-rule="evenodd" clip-rule="evenodd" d="M307.857 142.519a45.149 45.149 0 0 1 3.491 2.369c7.661 6.832 13.606 14.937 17.83 24.314a50.806 50.806 0 0 1 4.614 17.456c.469 4.416.01 8.738-1.371 12.968-1.262 3.891-3.631 6.925-7.108 9.102a45.6 45.6 0 0 1-7.232 2.993 2.8 2.8 0 0 1-1.995-.125 33.767 33.767 0 0 0-4.239-5.486 1643.772 1643.772 0 0 0-3.117-38.404c-.417-3.42-.915-6.828-1.497-10.225a1.621 1.621 0 0 0-1.122-.249 530.863 530.863 0 0 1 2.12 17.706 7429.288 7429.288 0 0 0 2.244 30.174c-7.129-6.953-15.483-11.816-25.062-14.588l-.499-.499c.245-2.265.329-4.551.249-6.858.305-6.565.596-13.132.873-19.701-.177-5.849 1.112-11.336 3.865-16.459a21.136 21.136 0 0 1 1.621-.748 2.08 2.08 0 0 0 .125-.997h.499c.296.636.631 1.26.998 1.87a1.63 1.63 0 0 0 1.496-.125c.172-.337.421-.587.748-.748l.998.25c.045.815.501 1.231 1.371 1.247.304-.091.596-.215.873-.374a36.188 36.188 0 0 0 2.12-4.365l1.122-1.122c2.095-.635 4.089-.427 5.985.624z" fill="#fff"/><path fill-rule="evenodd" clip-rule="evenodd" d="M297.383 145.511a1.732 1.732 0 0 1-.998.25 1.765 1.765 0 0 0-.249-1.247 4.984 4.984 0 0 0-.748 1.745 1.637 1.637 0 0 0-.748.748 1.63 1.63 0 0 1-1.496.125 20.014 20.014 0 0 1-.998-1.87c-.402-.334-.526-.75-.374-1.247 2.501-4.85 3.124-4.642 1.87.623-.04.616.127 1.157.499 1.621.508-1.144 1.05-2.308 1.621-3.491.503-.801 1.209-1.216 2.119-1.247a64.292 64.292 0 0 0-.498 3.99z" fill="#000"/><path fill-rule="evenodd" clip-rule="evenodd" d="M297.383 145.511c0 .333.167.499.498.499l-1.495.499-.998-.25a4.984 4.984 0 0 1 .748-1.745c.237.385.322.801.249 1.247.365.016.696-.067.998-.25z" fill="#000"/><path fill-rule="evenodd" clip-rule="evenodd" d="M308.355 141.272c.15.058.232.183.25.374-.26.293-.509.584-.748.873-1.896-1.051-3.89-1.259-5.985-.624l-1.122 1.122a36.188 36.188 0 0 1-2.12 4.365 4.125 4.125 0 0 1-.873.374c-.87-.016-1.326-.432-1.371-1.247l1.495-.499a22.883 22.883 0 0 1 2.494-4.364 7.767 7.767 0 0 1 1.995-.998 14.576 14.576 0 0 0 3.99-.872c.04.58.207 1.12.499 1.621.616.502 1.115.46 1.496-.125zM265.712 174.439c-.04.67 0 1.335.125 1.995a.893.893 0 0 0 .374.249c.304-.617.638-1.199.998-1.745.361.158.526.449.498.872a16.523 16.523 0 0 0-.498 1.871c.082.249.167.498.249.748a9.472 9.472 0 0 0 1.496-2.494.903.903 0 0 1 .374.249c.142.666.267 1.331.374 1.995h.748c.015.277.098.526.25.749a2.538 2.538 0 0 0-.873 1.246c-.304 2.522-1.344 4.684-3.117 6.484 3.312-.908 6.553-.575 9.725.998v.748h-.997c-7.317-2.348-12.596-.02-15.835 6.982a20.49 20.49 0 0 0-.624 4.988 6.174 6.174 0 0 0-.374 1.746c-.479-.717-.603-1.465-.374-2.245a79.251 79.251 0 0 0-.499-3.74v-.25c.15-.349.399-.598.748-.748a16.795 16.795 0 0 1 3.741-5.86c-4.411.597-8.444-.359-12.095-2.868a119.11 119.11 0 0 1-1.995 1.496 12.935 12.935 0 0 0-2.369-.125l-.997-.498a109.967 109.967 0 0 0-6.11-6.359 8.643 8.643 0 0 1-1.372-2.245 39.852 39.852 0 0 0-.997 5.487c-.487.068-.861-.098-1.122-.499.07.543.029 1.042-.125 1.496-.831-1.349-1.039-1.266-.623.249.227 2.326.31 4.654.249 6.983a17.373 17.373 0 0 1-1.122 1.621c-.444-.011-.859-.177-1.247-.499-.815-1.509-1.48-1.426-1.995.25a1.624 1.624 0 0 1-1.247 0 10.089 10.089 0 0 1-3.367-3.118c-3.25-6.445-3.998-13.178-2.244-20.199.416-1.49.956-2.904 1.621-4.24.225-.176.308-.426.249-.748a3.229 3.229 0 0 1-1.247-.124l.499-.25c-.313-.104-.479-.312-.499-.623.588.04 1.17-.001 1.746-.125 5.738-8.978 13.967-12.968 24.688-11.97 1.926.675 3.504 1.839 4.738 3.491 3.128 1.214 5.579 3.25 7.357 6.11 2.604 3.742 3.641 7.898 3.117 12.469z" fill="#000"/><path fill-rule="evenodd" clip-rule="evenodd" d="M132.047 156.484c1.831-.042 3.659 0 5.486.124.325.889.699 1.762 1.122 2.619a46.538 46.538 0 0 1 5.237 6.234l1.247 2.494c.195.36.153.693-.124.998a45.242 45.242 0 0 1-9.726.374 43.212 43.212 0 0 0-10.225-5.487c-.237-.179-.278-.386-.124-.623a21.199 21.199 0 0 0 7.107-6.733z" fill="#fff"/><path fill-rule="evenodd" clip-rule="evenodd" d="M103.368 146.259a157.553 157.553 0 0 0 3.242 23.94 2.192 2.192 0 0 0-.374.998 61.07 61.07 0 0 1-.873-3.741c-.199.114-.282.281-.249.499-.453-2.211-.91-4.456-1.372-6.733-.363-3.791-.82-7.531-1.371-11.222.792-.982 1.123-2.229.997-3.741zM201.373 169.451c.722-.345 1.428-.262 2.12.25a28.37 28.37 0 0 1-.125 6.483 77.63 77.63 0 0 0-.125-6.234l-.249.249c-.321-.659-.861-.909-1.621-.748z" fill="#000"/><path fill-rule="evenodd" clip-rule="evenodd" d="M106.61 170.199a123.066 123.066 0 0 1 4.239 20.699 8.088 8.088 0 0 1-.125 1.995 22.743 22.743 0 0 0-.623-3.99 10.08 10.08 0 0 1-2.993.249 14.578 14.578 0 0 1-4.738-1.621 155.848 155.848 0 0 0-7.98-10.598 40.538 40.538 0 0 0 11.97-3.741 90.288 90.288 0 0 1-1.246-5.237c-.033-.218.05-.385.249-.499a61.07 61.07 0 0 0 .873 3.741c.052-.389.177-.721.374-.998zM168.456 153.242c.419.098.834.222 1.247.374.331.571.747.779 1.247.623a23.572 23.572 0 0 1 3.989 3.118 287.476 287.476 0 0 1 9.726 10.473c7.808-.629 15.622-1.252 23.441-1.87a12.791 12.791 0 0 0 3.741-.499c4.068-.362 8.141-.694 12.219-.997.02.311.186.519.499.623l-.499.25c.408.123.824.164 1.247.124.059.322-.024.572-.249.748-.342-.321-.799-.487-1.372-.498a1228.597 1228.597 0 0 0-37.281 3.74 34.114 34.114 0 0 0 11.471 8.105c.66.124 1.325.166 1.995.125.354.237.769.32 1.247.249v-8.479h.249c.76-.161 1.3.089 1.621.748l.249-.249a77.63 77.63 0 0 1 .125 6.234 10.23 10.23 0 0 0 .125 2.245c.095.139.22.222.374.249-.07.319-.237.568-.499.748a10.02 10.02 0 0 0-.374 2.245l-.249-.25c-.094.36-.302.609-.624.749a90.956 90.956 0 0 1-3.865-2.245c-.172-.207-.13-.373.125-.499a6.347 6.347 0 0 0 2.743.998 2.243 2.243 0 0 0-.499-1.621c-5.565-1.5-8.266.62-8.105 6.359.521 1.41 1.56 2.2 3.118 2.369 1.433.196 2.846.154 4.239-.125.209.086.292.252.249.499-.166 0-.249.083-.249.25-.222.464-.264.963-.125 1.496-.329-.437-.453-.935-.374-1.496h-4.239a55.59 55.59 0 0 1-4.988-1.372 68.19 68.19 0 0 0-5.237-2.12 3.595 3.595 0 0 0-.997-.498 167.424 167.424 0 0 1-18.205-10.848 89.08 89.08 0 0 1-4.239-3.367c.263.037.512-.004.748-.125a7.383 7.383 0 0 1-1.122-.623c-.166-.166-.166-.332 0-.499.172.309.297.309.374 0 9.059 7.216 19.034 12.951 29.925 17.207.177-1.751.385-3.497.624-5.237a6.62 6.62 0 0 1 2.493-2.743c.187-.283.146-.532-.124-.748a61.823 61.823 0 0 1-6.235-4.115 130.515 130.515 0 0 1-9.351-9.85 194.227 194.227 0 0 0-10.349-9.975z" fill="#000"/><path fill-rule="evenodd" clip-rule="evenodd" d="M208.106 165.96a12.791 12.791 0 0 0 3.741-.499 10.785 10.785 0 0 0-3.741.499z" fill="#000"/><path fill-rule="evenodd" clip-rule="evenodd" d="M49.503 174.439a2.455 2.455 0 0 1 1.496.249c1.498 4.867 4.158 8.982 7.98 12.344a133.533 133.533 0 0 0 16.459 10.474 118.272 118.272 0 0 1 12.968 9.227 45.326 45.326 0 0 0 3.865 4.115c1.108 2.218.65 2.675-1.372 1.371a96.01 96.01 0 0 0-8.977-7.481 512.442 512.442 0 0 1-22.694-14.713 40.439 40.439 0 0 1-8.728-9.726 1.623 1.623 0 0 0-1.247 0c-1.615 1.159-2.695 2.697-3.242 4.614a80.562 80.562 0 0 1-12.219.374c-1.033-1.299-.95-2.546.25-3.741a59.22 59.22 0 0 1 15.46-7.107z" fill="#fff"/><path fill-rule="evenodd" clip-rule="evenodd" d="M201.124 169.451v8.479c-.478.071-.893-.012-1.247-.249h.997a68.014 68.014 0 0 1 .25-8.23zM265.712 174.439a10.9 10.9 0 0 1 1.497.499c-.36.546-.694 1.128-.998 1.745a.893.893 0 0 1-.374-.249 8.088 8.088 0 0 1-.125-1.995zM274.191 176.683c-.185.988-.185 2.069 0 3.242a23.925 23.925 0 0 1-.499-1.621 8.407 8.407 0 0 0-2.992.624 1.44 1.44 0 0 1-.25-.749 22.038 22.038 0 0 1 3.741-1.496z" fill="#000"/><path fill-rule="evenodd" clip-rule="evenodd" d="M202.121 182.17c.47.387.72.886.749 1.496a20.388 20.388 0 0 1-.25 4.489 1.386 1.386 0 0 0-.748-.25c-.973-.836-1.472-1.916-1.496-3.242-.573.202-1.155.41-1.746.624a24.952 24.952 0 0 0-3.491.374 3.166 3.166 0 0 0 1.995.499 4.216 4.216 0 0 0 2.245-.499c.49.149.74.482.748.997a1.426 1.426 0 0 1-.25.748 12.684 12.684 0 0 1-4.239.125c-1.558-.169-2.597-.959-3.118-2.369-.161-5.739 2.54-7.859 8.105-6.359.378.473.544 1.013.499 1.621a6.347 6.347 0 0 1-2.743-.998c-.255.126-.297.292-.125.499a90.956 90.956 0 0 0 3.865 2.245zM274.191 179.925c.182.502.389 1.001.623 1.496 2.481 2.757 5.516 4.337 9.102 4.739a20.949 20.949 0 0 1-.248 3.99 71.883 71.883 0 0 1-4.738-.873 8.2 8.2 0 0 0-2.495-1.621c-3.172-1.573-6.413-1.906-9.725-.998 1.773-1.8 2.813-3.962 3.117-6.484.175-.519.464-.935.873-1.246a8.407 8.407 0 0 1 2.992-.624c.155.568.319 1.108.499 1.621zM258.48 195.137a29.37 29.37 0 0 0-2.368-1.995c-1.861 2.186-4.23 3.184-7.108 2.993a7.462 7.462 0 0 1 .749-2.494c.011-.374-.155-.624-.499-.748-.317 1.22-.94 2.218-1.871 2.992a16.009 16.009 0 0 1-4.239-2.244 57.85 57.85 0 0 1-3.117 1.621 55.301 55.301 0 0 0-1.122-5.861 38.472 38.472 0 0 1-2.619-5.236c.206-1.864.539-3.693.997-5.487a8.643 8.643 0 0 0 1.372 2.245 109.967 109.967 0 0 1 6.11 6.359l.997.498c.804-.03 1.594.011 2.369.125a119.11 119.11 0 0 0 1.995-1.496c3.651 2.509 7.684 3.465 12.095 2.868a16.795 16.795 0 0 0-3.741 5.86zM203.368 179.426c1.971 1.228 2.969 3.057 2.993 5.487-.158 1.324-.823 2.321-1.995 2.992l-.499-3.242a22.3 22.3 0 0 1-.499-5.237z" fill="#fff"/><path fill-rule="evenodd" clip-rule="evenodd" d="M245.762 183.416c2.064.476 2.895 1.723 2.494 3.741a9.175 9.175 0 0 1-2.494-3.741zM203.368 179.426a22.3 22.3 0 0 0 .499 5.237v3.741h-.748a22.695 22.695 0 0 0-.249-4.738 1.98 1.98 0 0 0-.749-1.496c.322-.14.53-.389.624-.749l.249.25c.045-.797.17-1.545.374-2.245zM200.127 186.658c.308.428.474.927.498 1.497l-.499-.25c.043-.247-.04-.413-.249-.499.152-.222.236-.471.25-.748z" fill="#000"/><path fill-rule="evenodd" clip-rule="evenodd" d="M202.87 183.666c.247 1.532.329 3.112.249 4.738h.748v-3.741l.499 3.242c-.724 1.898-1.554 1.898-2.494 0 .27.01.52.093.748.25.249-1.487.332-2.984.25-4.489zM200.126 187.905l.499.25c.51.511.926 1.093 1.247 1.745-.007.424-.173.757-.499.998a3.867 3.867 0 0 1-1.745.249v-.748c.552.052.967-.156 1.246-.623a3.453 3.453 0 0 1-.997-1.621c0-.167.083-.25.249-.25z" fill="#000"/><path fill-rule="evenodd" clip-rule="evenodd" d="M195.139 188.155h4.239c-.079.561.045 1.059.374 1.496-.139-.533-.097-1.032.125-1.496.183.638.516 1.179.997 1.621-.279.467-.694.675-1.246.623v.748c.61.05 1.192-.033 1.745-.249a.608.608 0 0 1 .499.124 3.736 3.736 0 0 0-.749.873 1.209 1.209 0 0 1-.997.25 3.656 3.656 0 0 1-.873-.749 18.131 18.131 0 0 1-.125-2.992 16.129 16.129 0 0 1-3.989-.249zM206.361 188.903c-.194 1.226-.859 2.057-1.995 2.493-.386-.08-.552-.329-.499-.748.322.059.572-.024.748-.249a43.31 43.31 0 0 1 1.746-1.496z" fill="#000"/><path fill-rule="evenodd" clip-rule="evenodd" d="m201.872 189.9.499.748c-.285.4-.119.566.498.499l.749-.249a1.212 1.212 0 0 0-.998-.25 6.58 6.58 0 0 1 1.247-.498c.177.225.427.308.748.249-.176.225-.426.308-.748.249-.053.419.113.668.499.748a3.603 3.603 0 0 1-.998.499c-.03-.271-.196-.437-.499-.499-.407.137-.823.22-1.246.25v.997a10.9 10.9 0 0 1-1.497-.498c.369.065.701-.018.997-.25.203-.328.453-.619.749-.873a.608.608 0 0 0-.499-.124c.326-.241.492-.574.499-.998z" fill="#000"/><path fill-rule="evenodd" clip-rule="evenodd" d="M202.371 190.648h.249c.369-.065.701.018.998.25l-.749.249c-.617.067-.783-.099-.498-.499z" fill="#fff"/><path fill-rule="evenodd" clip-rule="evenodd" d="M203.368 191.895c-.473.548-.722 1.213-.748 1.995h-.748a2.294 2.294 0 0 0-.249-1.247v-.997c.423-.03.839-.113 1.246-.25.303.062.469.228.499.499z" fill="#000"/><path fill-rule="evenodd" clip-rule="evenodd" d="M328.805 238.778a40.84 40.84 0 0 1 1.87 5.736c.125 1.827.167 3.655.125 5.486-1.462 4.04-4.038 7.199-7.731 9.476a.884.884 0 0 1-.374-.249 27.093 27.093 0 0 0-1.122-8.23 118.374 118.374 0 0 0-11.347-32.169 71.767 71.767 0 0 0-12.344-16.833 39.751 39.751 0 0 0-4.115-3.367 1.233 1.233 0 0 1-.124-.748c1.356-.263 2.728-.512 4.114-.748a4.923 4.923 0 0 1 1.621.374c8.237 5.243 14.761 12.101 19.576 20.574 3.292 6.914 6.574 13.814 9.851 20.698z" fill="#fff"/><path fill-rule="evenodd" clip-rule="evenodd" d="M320.326 249.751a31.22 31.22 0 0 1 1.122 10.473c-11.474 6.836-23.9 9.704-37.282 8.604a57.806 57.806 0 0 1-7.98-1.621 10.976 10.976 0 0 1-4.863-2.743 3.867 3.867 0 0 1-.623-1.746c.519-4.96-.147-9.738-1.995-14.339a20.254 20.254 0 0 1 1.87-4.364 288.24 288.24 0 0 0 5.362-9.975 378.567 378.567 0 0 0-5.861-16.21 54.968 54.968 0 0 0-2.867-5.361c.197-.406.446-.78.748-1.122 6.843-5.751 14.573-9.949 23.192-12.594a2.31 2.31 0 0 1 1.496 0c8.541 7.461 15.067 16.397 19.576 26.808a208.36 208.36 0 0 1 8.105 24.19z" fill="#fff"/><path fill-rule="evenodd" clip-rule="evenodd" d="M110.849 190.898c.204.615.329 1.28.374 1.995.37 2.363 1.659 3.984 3.866 4.863 2.561.9 4.723.359 6.484-1.621.386.08.552.329.499.748-.663.96-1.578 1.583-2.744 1.87-1.912.547-3.782.423-5.611-.374l-.374.249a25.731 25.731 0 0 1 2.868 8.479c.177.368.468.534.873.499-.042-1.416 0-2.829.125-4.239.676-.356 1.299-.273 1.87.249a30.473 30.473 0 0 0 2.743 4.489l.249-.624a32.4 32.4 0 0 1-.997-5.86c.424-.04.839.001 1.247.125a23.533 23.533 0 0 1 3.242 2.493c.56.327 1.142.493 1.745.499a42.382 42.382 0 0 0-4.364-5.361 2.097 2.097 0 0 1-.124-.998c1 .001 1.914.291 2.743.873.599.203 1.18.161 1.745-.125a51.623 51.623 0 0 0-3.74-2.743c.109.016.193-.025.249-.125l-.498-.249a.822.822 0 0 0 .498-.374 16.618 16.618 0 0 1 4.115 2.992c.185.484.143.942-.125 1.372a4.39 4.39 0 0 1-2.244.374c-.037.262.004.512.124.748a11.865 11.865 0 0 1 2.369 3.367 2.866 2.866 0 0 1-1.371 1.621 24.029 24.029 0 0 1-4.115-2.993l-.249.25c.637 1.856.887 3.768.748 5.735-1.469.356-2.509-.143-3.117-1.496a24.734 24.734 0 0 0-1.372-2.993c-.015-.135-.098-.218-.249-.249a14.273 14.273 0 0 0-.25 3.741c-.24.909-.821 1.2-1.745.873l-.374-.375a95.683 95.683 0 0 0-5.362-14.339 34.706 34.706 0 0 1-.873-4.364l-.374-.374a10.02 10.02 0 0 1-2.245-.374 10.08 10.08 0 0 0 2.993-.249c.326 1.309.533 2.64.623 3.99.124-.66.166-1.325.125-1.995z" fill="#000"/><path fill-rule="evenodd" clip-rule="evenodd" d="m118.58 204.613-.499 3.492a14.273 14.273 0 0 1 .25-3.741c.151.031.234.114.249.249z" fill="#000"/><path fill-rule="evenodd" clip-rule="evenodd" d="M123.568 196.384a51.623 51.623 0 0 1 3.74 2.743 2.173 2.173 0 0 1-1.745.125 4.675 4.675 0 0 0-2.743-.873c-.04.342.002.675.124.998a42.382 42.382 0 0 1 4.364 5.361 3.485 3.485 0 0 1-1.745-.499 23.533 23.533 0 0 0-3.242-2.493 3.208 3.208 0 0 0-1.247-.125 32.4 32.4 0 0 0 .997 5.86l-.249.624a30.473 30.473 0 0 1-2.743-4.489c-.571-.522-1.194-.605-1.87-.249a35.907 35.907 0 0 0-.125 4.239c-.405.035-.696-.131-.873-.499a25.731 25.731 0 0 0-2.868-8.479l.374-.249c1.829.797 3.699.921 5.611.374 1.166-.287 2.081-.91 2.744-1.87.409-.395.908-.561 1.496-.499zM248.505 277.681a41.655 41.655 0 0 0-2.493 2.868 64.613 64.613 0 0 0-10.973 7.98c-.498.152-.913.027-1.247-.374-1.503-.931-2.292-2.26-2.369-3.99 1.906-4.811 3.818-9.634 5.736-14.464a480.438 480.438 0 0 0 6.234-13.217 87.255 87.255 0 0 0 3.865-17.955c.296-1.989.546-3.984.749-5.985a87.792 87.792 0 0 1 4.114-17.956 58.649 58.649 0 0 1 3.866-7.107c2.242.11 4.319.775 6.234 1.995a20.544 20.544 0 0 1 5.112 5.611 112.063 112.063 0 0 1 7.107 19.327 888.962 888.962 0 0 1-14.837 27.805 114.274 114.274 0 0 1-11.098 15.462z" fill="#fff"/><path fill-rule="evenodd" clip-rule="evenodd" d="M148.755 217.581c.43.086.555.335.374.748a36.944 36.944 0 0 1-2.12 3.491 10.087 10.087 0 0 0 2.993 2.245 1.634 1.634 0 0 1-1.497.124 16.355 16.355 0 0 0-1.995-1.371 7.361 7.361 0 0 0-1.621 2.244c-.382.515-.88.847-1.496.998a44.834 44.834 0 0 0 1.87-3.99 438.08 438.08 0 0 0-1.745-2.494c.215-.27.465-.311.748-.125a5.38 5.38 0 0 1 1.247 1.497.624.624 0 0 0 .748 0 50.767 50.767 0 0 1 2.494-3.367zM333.792 186.658h.748c-.04.343.002.675.125.998.052-.389.177-.721.374-.998a36.637 36.637 0 0 1-1.87 14.714c-2.12 4.447-5.404 7.73-9.851 9.85a35.168 35.168 0 0 1-5.486 1.746.971.971 0 0 0-.249.498 65.064 65.064 0 0 1 4.862 8.853l7.108 15.212c-.225-.274-.432-.274-.624 0a3.246 3.246 0 0 0-.124 1.247c-3.277-6.884-6.559-13.784-9.851-20.698-4.815-8.473-11.339-15.331-19.576-20.574a4.923 4.923 0 0 0-1.621-.374c-1.386.236-2.758.485-4.114.748-.038.263.005.512.124.748a39.751 39.751 0 0 1 4.115 3.367 71.767 71.767 0 0 1 12.344 16.833 118.374 118.374 0 0 1 11.347 32.169h-.748a2.458 2.458 0 0 0-.25-1.496c-.152.03-.234.115-.249.25a208.36 208.36 0 0 0-8.105-24.19c-4.509-10.411-11.035-19.347-19.576-26.808a2.31 2.31 0 0 0-1.496 0c-8.619 2.645-16.349 6.843-23.192 12.594a4.956 4.956 0 0 0-.748 1.122 54.968 54.968 0 0 1 2.867 5.361 378.567 378.567 0 0 1 5.861 16.21 288.24 288.24 0 0 1-5.362 9.975 20.254 20.254 0 0 0-1.87 4.364c1.848 4.601 2.514 9.379 1.995 14.339a56.342 56.342 0 0 1-.25-7.481c-.486.067-.86-.097-1.122-.499a143.552 143.552 0 0 0-.124 8.479 178.145 178.145 0 0 1-.374-9.476 14.574 14.574 0 0 0-1.247-3.492 144.787 144.787 0 0 1-12.968 21.447 61.805 61.805 0 0 1-5.112 6.234c-.267-.232-.599-.317-.998-.249a114.274 114.274 0 0 0 11.098-15.462 888.962 888.962 0 0 0 14.837-27.805 112.063 112.063 0 0 0-7.107-19.327 20.544 20.544 0 0 0-5.112-5.611 12.561 12.561 0 0 0-6.234-1.995 58.649 58.649 0 0 0-3.866 7.107 87.792 87.792 0 0 0-4.114 17.956 1.734 1.734 0 0 0-.998-.25c.622-4.02 1.37-8.011 2.244-11.97a36.17 36.17 0 0 1-12.219-3.865c-2.87-1.707-4.366-4.242-4.489-7.606.338-4.784 2.291-8.774 5.861-11.97a4.03 4.03 0 0 0 .374-1.746 396.91 396.91 0 0 0-.873-5.237 91.401 91.401 0 0 0-2.868-4.738c.154-.454.195-.953.125-1.496.261.401.635.567 1.122.499a38.472 38.472 0 0 0 2.619 5.236c.48 1.936.854 3.89 1.122 5.861a57.85 57.85 0 0 0 3.117-1.621 16.009 16.009 0 0 0 4.239 2.244c.931-.774 1.554-1.772 1.871-2.992.344.124.51.374.499.748a7.462 7.462 0 0 0-.749 2.494c2.878.191 5.247-.807 7.108-2.993a29.37 29.37 0 0 1 2.368 1.995c-.349.15-.598.399-.748.748a11.932 11.932 0 0 0-1.621-1.247c-4.129 3.506-8.327 3.631-12.593.374a1.062 1.062 0 0 0-.998 0c-3.817 2.601-6.602 6.051-8.354 10.35-1.401 5.967.802 9.916 6.609 11.845a28.942 28.942 0 0 0 8.728 1.995c1.376-5.453 3.91-10.316 7.606-14.589.384-.49.676-1.031.873-1.621a48.154 48.154 0 0 1-.25-6.857c.192 1.208.357 2.454.499 3.74-.229.78-.105 1.528.374 2.245a6.174 6.174 0 0 1 .374-1.746 2.505 2.505 0 0 0 .374 1.746c2.19-2.356 4.392-4.726 6.609-7.108a32.204 32.204 0 0 1 11.97-5.236 18.527 18.527 0 0 0-2.494-1.372h.997v-.748a8.2 8.2 0 0 1 2.495 1.621c1.576.345 3.154.636 4.738.873.209-1.319.293-2.649.248-3.99.2.362.325.777.374 1.246.083-.249.168-.498.25-.748l.249 2.494c.043-2.039.167-4.034.374-5.985a48.168 48.168 0 0 1-.249 6.858l.499.499c9.579 2.772 17.933 7.635 25.062 14.588a7429.288 7429.288 0 0 1-2.244-30.174 530.863 530.863 0 0 0-2.12-17.706c.409-.053.783.03 1.122.249.582 3.397 1.08 6.805 1.497 10.225a1643.772 1643.772 0 0 1 3.117 38.404 33.767 33.767 0 0 1 4.239 5.486 2.8 2.8 0 0 0 1.995.125 45.6 45.6 0 0 0 7.232-2.993c3.477-2.177 5.846-5.211 7.108-9.102a30.835 30.835 0 0 0 1.371-12.968z" fill="#000"/><path fill-rule="evenodd" clip-rule="evenodd" d="M257.732 195.885v.25c-.08 2.307.005 4.592.25 6.857a5.368 5.368 0 0 1-.873 1.621c-3.696 4.273-6.23 9.136-7.606 14.589a28.942 28.942 0 0 1-8.728-1.995c-5.807-1.929-8.01-5.878-6.609-11.845 1.752-4.299 4.537-7.749 8.354-10.35.333-.166.665-.166.998 0 4.266 3.257 8.464 3.132 12.593-.374.579.371 1.117.786 1.621 1.247zM279.428 190.648c2.362.131 4.689.506 6.983 1.122a183.39 183.39 0 0 1 9.975 3.99c.332.167.332.333 0 .499-11.414 2.423-21.389 7.535-29.925 15.337-2.564-2.812-5.723-4.558-9.476-5.237a33.427 33.427 0 0 1 5.361-5.486c2.449-3.693 5.731-6.395 9.85-8.105a58.977 58.977 0 0 1 7.232-2.12z" fill="#fff"/><path fill-rule="evenodd" clip-rule="evenodd" d="M275.438 188.404c.848.383 1.678.84 2.494 1.372a32.204 32.204 0 0 0-11.97 5.236c-2.217 2.382-4.419 4.752-6.609 7.108a2.505 2.505 0 0 1-.374-1.746 20.49 20.49 0 0 1 .624-4.988c3.239-7.002 8.518-9.33 15.835-6.982z" fill="#fff"/><path fill-rule="evenodd" clip-rule="evenodd" d="M170.7 224.314c.446-.071.861.012 1.247.25a77.352 77.352 0 0 1-5.985 1.62 4536.41 4536.41 0 0 0-21.945 4.24 236.51 236.51 0 0 1-10.724 1.496 85.9 85.9 0 0 1 8.23-1.995 3022.099 3022.099 0 0 0 29.177-5.611zM206.361 187.656c.148.473.149.889 0 1.247a43.31 43.31 0 0 0-1.746 1.496c-.321.059-.571-.024-.748-.249a.712.712 0 0 1 .249-.624 23.997 23.997 0 0 0 2.245-1.87zM125.064 229.8c.424-.039.839.002 1.247.125.332.333.332.665 0 .998a106.76 106.76 0 0 1-9.975 1.87c-.068-.487.098-.861.498-1.122 2.793-.55 5.536-1.173 8.23-1.871zM247.009 232.294c.364-.016.696.067.998.25a129.345 129.345 0 0 1-.749 5.985c-.33-.363-.538-.279-.623.249a.607.607 0 0 1-.125-.499c.033-.218-.05-.385-.249-.498l-10.723 6.359c-1.143.533-2.307.99-3.492 1.371a10.931 10.931 0 0 0-.498-1.496 3.008 3.008 0 0 0-1.497.249c-.166 0-.249-.083-.249-.249a47.863 47.863 0 0 0 2.244-2.619c5.031-3 10.018-6.034 14.963-9.102zM127.059 232.544a4.213 4.213 0 0 1 1.995.249c-.319.41-.735.701-1.247.873-2.726.811-5.47 1.559-8.23 2.244a2.173 2.173 0 0 1-1.745-.124.91.91 0 0 1 .249-.375c3.04-.912 6.032-1.867 8.978-2.867zM207.608 239.027h.997c.266.233.599.317.998.25l-1.247.499-.748-.749zM113.593 236.284a.773.773 0 0 1 .748.25c-4.072 1.76-8.145 3.547-12.219 5.361-.36.195-.693.153-.998-.125a57.287 57.287 0 0 1 4.489-2.369 522.362 522.362 0 0 1 7.98-3.117zM119.328 239.027c.249-.007.415.118.499.374a192.027 192.027 0 0 1-5.86 13.342c-.676.666-.926.499-.748-.499 2.017-4.441 4.054-8.846 6.109-13.217zM332.046 247.756c-.075.638.007 1.22.249 1.745.175 1.437.382 2.851.624 4.24-1.838 4.047-4.541 7.414-8.105 10.099-6.972 4.611-14.621 7.312-22.943 8.105a6.22 6.22 0 0 0-.498-1.87 6.27 6.27 0 0 0-2.494 0 6.138 6.138 0 0 0-.249 2.369c-7.472.269-14.621-1.018-21.447-3.865a4.565 4.565 0 0 0-1.496-.125 2.55 2.55 0 0 0 .997-.748c-.087-.3-.212-.3-.374 0a.613.613 0 0 1-.124-.499 57.806 57.806 0 0 0 7.98 1.621c13.382 1.1 25.808-1.768 37.282-8.604a31.22 31.22 0 0 0-1.122-10.473c.015-.135.097-.22.249-.25.242.474.324.973.25 1.496h.748a27.093 27.093 0 0 1 1.122 8.23.884.884 0 0 0 .374.249c3.693-2.277 6.269-5.436 7.731-9.476.391-.294.598-.71.623-1.247l.249.249c.05-.469.174-.884.374-1.246z" fill="#000"/><path d="M203.867 178.678c.472.3.929.633 1.371.998a17.35 17.35 0 0 0 1.871 2.867 21.09 21.09 0 0 1 8.229 3.991c6.084 5.693 8.536 12.717 7.357 21.072a290.26 290.26 0 0 1-2.494 15.462 39.86 39.86 0 0 0-.25 7.979 5.139 5.139 0 0 1 2.369 1.372 33.343 33.343 0 0 1 6.734 11.596c.231.265.48.265.748 0 0 .166.083.249.249.249-.366.319-.532.735-.498 1.247 1.262.207 1.927-.291 1.995-1.496.195.467.362.966.498 1.496-1.277.476-2.608.56-3.99.25.312-.282.562-.615.749-.998l-4.364-8.229a2.298 2.298 0 0 0-1.247-1.248 62.042 62.042 0 0 1-13.591 3.991c-.399.067-.732-.017-.998-.25a148.02 148.02 0 0 0 13.965-4.489c.27-.215.311-.465.125-.748a5.374 5.374 0 0 0-1.871-1.496 318.208 318.208 0 0 1-13.964 3.74l-.107.072a2.261 2.261 0 0 1-.891.303c.279.556.582 1.093.911 1.61l.336.51a.748.748 0 0 0 .499.498l.748.749c.908 1.325 1.822 2.656 2.743 3.99a.77.77 0 0 0 .748.249c.156.646.448 1.227.873 1.745a46.333 46.333 0 0 1 3.74 4.489 150.342 150.342 0 0 0 9.103-2.369c3.482-.546 3.482-.13 0 1.247a94.569 94.569 0 0 1-9.851 1.87 63.178 63.178 0 0 1-8.385-11.393l-.467-.826a15.316 15.316 0 0 1-1.497-2.244c.157-.229.24-.479.249-.749l-1.459-.844a271.204 271.204 0 0 1-21.234-13.744 13.563 13.563 0 0 1-1.496-1.621h-.001c-4.815-3.889-7.932-8.876-9.352-14.962-.446-5.226.967-9.881 4.24-13.965a95.087 95.087 0 0 0 3.117-3.367 27.057 27.057 0 0 1 4.49-3.117c.373.121.704.288.996.498a10.127 10.127 0 0 0-2.992 1.621 41.253 41.253 0 0 0-7.107 8.105c-1.786 3.352-2.368 6.926-1.745 10.723a26.537 26.537 0 0 0 3.99 8.728 144.428 144.428 0 0 0 4.862 5.237 95.456 95.456 0 0 0 4.489 3.617 528.497 528.497 0 0 0 16.708 10.473c1.443.742 2.898 1.448 4.365 2.119a12.863 12.863 0 0 0 2.868-1.496 418.09 418.09 0 0 0-16.21-13.59 2.142 2.142 0 0 1-.748-1.622c.285-1.742 1.283-2.448 2.993-2.119.707.688 1.539.937 2.493.748.244-1.267.66-2.473 1.247-3.616a2.176 2.176 0 0 1 1.746-.125l1.496 1.496c.465.325.964.409 1.496.25a41.77 41.77 0 0 0 1.372-3.865c.561-.904 1.351-1.195 2.369-.873.619.6 1.284 1.14 1.995 1.621.245.73.329 1.478.25 2.244-.554.08-1.012-.086-1.372-.499a5.271 5.271 0 0 0-1.371-2.369 2.11 2.11 0 0 0-.998-.124 18.833 18.833 0 0 1-1.746 4.862c-.465.325-.964.409-1.497.25a9.933 9.933 0 0 1-1.994-1.746c-.385-.296-.801-.378-1.247-.249a10.23 10.23 0 0 0-.998 3.865 8.088 8.088 0 0 1-1.995-.125c-.863-.732-1.818-.94-2.867-.623a7.294 7.294 0 0 1-.624 1.122 231.616 231.616 0 0 1 17.207 14.962 45.529 45.529 0 0 0 6.484-1.496c.601-.049 1.016-.34 1.246-.872a17.567 17.567 0 0 1-.374-5.237 195.783 195.783 0 0 1 2.494-14.963 145.3 145.3 0 0 0 .623-7.481c-.189-10.408-5.176-17.308-14.961-20.699.053.896.219 1.77.498 2.619-.034.857-.366 1.564-.997 2.12a23.997 23.997 0 0 1-2.245 1.87.712.712 0 0 0-.249.624 6.58 6.58 0 0 0-1.247.498h-.249l-.499-.748a6.548 6.548 0 0 0-1.247-1.745 2.697 2.697 0 0 0-.498-1.497c-.008-.515-.258-.848-.748-.997a4.216 4.216 0 0 1-2.245.499 3.166 3.166 0 0 1-1.995-.499 24.952 24.952 0 0 1 3.491-.374c.591-.214 1.173-.422 1.746-.624.024 1.326.523 2.406 1.496 3.242.94 1.898 1.77 1.898 2.494 0 1.172-.671 1.837-1.668 1.995-2.992-.024-2.43-1.022-4.259-2.993-5.487.262-.18.429-.429.499-.748z" fill="#000"/><path d="M224.565 239.776c.908.053.992.344.25.873a63.453 63.453 0 0 1-12.968 3.366c.139-.322.388-.53.748-.624a978.745 978.745 0 0 1 11.97-3.615zM211.099 210.598c.643-.104 1.184.063 1.621.499a85.97 85.97 0 0 0 3.74 18.953 3.12 3.12 0 0 1 0 1.745 88.924 88.924 0 0 1-4.738-19.202c-.729-.536-.937-1.201-.623-1.995z" fill="#000"/><path fill-rule="evenodd" clip-rule="evenodd" d="M181.173 256.733a1.758 1.758 0 0 0-.748.499 49.116 49.116 0 0 1-3.117 2.743c-.166-.167-.166-.332 0-.499a9.972 9.972 0 0 0 2.12-2.493c.404-.155.737-.404.997-.749a264.64 264.64 0 0 0 17.955-20.698l.25.25a237.25 237.25 0 0 1-5.362 7.481 939.017 939.017 0 0 1-12.095 13.466z" fill="#000"/><path fill-rule="evenodd" clip-rule="evenodd" d="M178.431 256.234h1.994c-.26.345-.593.594-.997.749-.478.069-.893-.013-1.247-.25.343.04.675-.002.998-.125a1.37 1.37 0 0 1-.748-.374zM270.7 262.718c.065.629.272 1.21.623 1.746a10.976 10.976 0 0 0 4.863 2.743.613.613 0 0 0 .124.499c.162-.3.287-.3.374 0a2.55 2.55 0 0 1-.997.748c.374.583.873 1.04 1.497 1.371a25.26 25.26 0 0 0 10.473 3.367c1.272.364 2.601.529 3.99.499a73.28 73.28 0 0 0 6.983.249c-.085 1.205.329 2.16 1.247 2.868 1.187.027 2.02-.511 2.494-1.621.212-.878.71-1.541 1.496-1.995a62.465 62.465 0 0 0 15.461-4.115 45.521 45.521 0 0 0 10.474-7.232 26.185 26.185 0 0 0 4.239-5.361c1.04 1.583 1.497 3.329 1.372 5.237a23.967 23.967 0 0 1-4.364 7.107 28.654 28.654 0 0 1 2.369 5.112c.973 4.072.185 7.728-2.369 10.973-.419.374-.751.83-.998 1.371.529.085.611.295.25.624a2.327 2.327 0 0 0-1.496.623 54.22 54.22 0 0 1-3.741 3.242c-.284.187-.534.145-.748-.125 1.486-2.172 2.359-4.583 2.618-7.232a55.916 55.916 0 0 0 0-7.481c-.656-.671-1.239-.588-1.745.25 1.244 7.516-1.125 13.543-7.108 18.079a37.653 37.653 0 0 1-11.471 4.738 188.901 188.901 0 0 1-25.187 3.741c-11.142.052-22.279.177-33.416.374-.03.494.137.91.498 1.247 12.881.464 25.766.589 38.654.374 3.162-.179 6.319-.389 9.476-.623a151.489 151.489 0 0 1 18.454 5.112c1.905.364 3.818.696 5.736.997 5.625 1.32 7.331 4.686 5.112 10.1a6210.325 6210.325 0 0 1-3.242 8.479c-.668 1.965-1.791 3.586-3.367 4.863-3.147 1.297-6.389 1.713-9.725 1.247-.689-.746-.898-1.619-.624-2.619a77.826 77.826 0 0 0 2.743-5.237c.412-2.149.038-4.144-1.122-5.985-8.975-.037-17.953-.08-26.933-.124-6.092-.1-12.159-.474-18.204-1.123a12.796 12.796 0 0 0-3.741-.498 121.975 121.975 0 0 1-23.192-4.614c-3.638-1.07-6.673-3.025-9.102-5.86a15.631 15.631 0 0 1-1.87-6.983l-7.482.748c-.139-.321-.388-.528-.748-.623a4.854 4.854 0 0 0 1.995-.748c-.249-.082-.498-.167-.748-.25a6.181 6.181 0 0 0 1.746-.374 81.766 81.766 0 0 0 5.237-.872c1.076-3.444 2.821-6.477 5.237-9.103.244-.316.493-.648.748-.997-.031-.152-.114-.235-.25-.25a2.85 2.85 0 0 0-.997-.997c.48-.097.979-.18 1.496-.249.334.401.749.526 1.247.374a64.613 64.613 0 0 1 10.973-7.98 41.655 41.655 0 0 1 2.493-2.868c.399-.068.731.017.998.249.015.135.098.22.249.25a142.78 142.78 0 0 1 22.943-10.474 27.598 27.598 0 0 0-2.369-1.995 5.667 5.667 0 0 1-1.122-2.494c-.043-2.828 0-5.653.124-8.479.262.402.636.566 1.122.499a56.342 56.342 0 0 0 .25 7.481zM218.58 260.973l-.499-3.991a3.266 3.266 0 0 1 .249-1.745 33.22 33.22 0 0 1 .25 5.736zM181.173 256.733c1.088.419 2.17.918 3.243 1.496.332.167.332.332 0 .499a11.586 11.586 0 0 0-3.991-1.496c.197-.225.447-.392.748-.499z" fill="#000"/><path fill-rule="evenodd" clip-rule="evenodd" d="M178.431 256.234c.19.192.439.317.748.374a2.084 2.084 0 0 1-.998.125c-4.975-.419-9.797.287-14.464 2.12a23.38 23.38 0 0 0-9.352 5.611c-1.287 1.753-1.661 3.666-1.122 5.736l-.997-1.996a10.458 10.458 0 0 1 2.369-4.738 24.583 24.583 0 0 1 6.109-3.865 44.774 44.774 0 0 1 14.589-3.616c1.043.055 2.083.14 3.118.249zM216.086 259.227c.463-.057.671.11.624.499a35.87 35.87 0 0 0-3.99 5.985c-.262.254-.553.294-.873.124-.657-1.566-1.322-3.144-1.995-4.738.286-.431.577-.389.873.125a26.05 26.05 0 0 0 1.371 3.242 14.409 14.409 0 0 0 2.12-3.242 20.98 20.98 0 0 0 1.87-1.995zM170.201 261.471h.748v2.743a.768.768 0 0 0 .748-.249c.351-.89.85-1.678 1.496-2.369.323-.122.655-.165.998-.125a43.632 43.632 0 0 1-2.743 5.237.773.773 0 0 1-.749.25 19.96 19.96 0 0 1-.498-5.487zM335.787 262.968c.526.214.818.631.873 1.246.895 3.517.813 7.008-.25 10.474a3.19 3.19 0 0 1-1.247 1.995 65.076 65.076 0 0 1-.748-3.491 20.069 20.069 0 0 1-1.371-3.741 58.337 58.337 0 0 1 2.369-4.488 8.576 8.576 0 0 0 .374-1.995zM218.081 256.982l.499 3.991v6.234c.071.446-.012.86-.249 1.247a120.989 120.989 0 0 1-.25-10.973v-.499z" fill="#000"/><path fill-rule="evenodd" clip-rule="evenodd" d="M218.081 257.481c-.083 3.661.001 7.319.25 10.973.237-.387.32-.801.249-1.247.24.439.323.938.249 1.496h-.997a126.6 126.6 0 0 1 .249-11.222zM157.233 273.94a25.2 25.2 0 0 1 4.988-.748c8.075-1.087 15.39-4.037 21.945-8.853a9.51 9.51 0 0 0 2.743-4.613c.283 1.035.158 2.032-.374 2.992a11.785 11.785 0 0 1-2.868 2.868c-6.435 4.404-13.501 7.272-21.197 8.603a51.273 51.273 0 0 1-8.977 11.721c-.255-.125-.297-.292-.125-.499a72.315 72.315 0 0 0 8.105-11.222 18.17 18.17 0 0 1-4.24-.249z" fill="#000"/><path fill-rule="evenodd" clip-rule="evenodd" d="M166.959 264.963c.33-.043.621.039.873.249.201.736.533 1.399.998 1.995.123.406.164.823.124 1.247h-.748a2.523 2.523 0 0 0-.374-1.496c-.179-.237-.387-.28-.623-.125-.34.923-.59 1.88-.749 2.868a2.927 2.927 0 0 1-.623.249 25.945 25.945 0 0 0-1.621-2.992c.601-.305 1.058-.14 1.372.498a3.62 3.62 0 0 1 .997-1.247c.088-.436.213-.85.374-1.246zM159.976 267.207a69.804 69.804 0 0 1 5.237 4.738c-.332.332-.665.332-.997 0a55.564 55.564 0 0 1-4.24-4.738zM152.246 268.204l.997 1.996c1.496.167 2.993.331 4.489.498a13.456 13.456 0 0 1-3.491.25c-.042.329.041.621.249.872l2.494 1.247a54.79 54.79 0 0 0 5.237.125 25.2 25.2 0 0 0-4.988.748c-1.604-.314-2.934-1.102-3.99-2.369a2.419 2.419 0 0 0-1.122-.374 115.385 115.385 0 0 1-11.346 1.621 24.461 24.461 0 0 1 4.239-1.247 89.38 89.38 0 0 0 7.232-1.122v-2.245zM136.536 270.449c.446-.072.861.012 1.247.249a4.783 4.783 0 0 1-1.746.873c-2.182.436-4.343.935-6.484 1.496a1.632 1.632 0 0 1-1.496-.124c2.863-.788 5.69-1.621 8.479-2.494zM329.553 237.531a70.94 70.94 0 0 1 2.618 6.733c10.688 12.935 22.868 24.2 36.533 33.791a87.259 87.259 0 0 1 1.995 1.995.978.978 0 0 1-.249.499 460.405 460.405 0 0 0-40.149 6.359c.361-.329.279-.539-.25-.624.247-.541.579-.997.998-1.371a145.399 145.399 0 0 0 12.468-2.12c8.003-1.17 15.983-2.416 23.94-3.741a294.385 294.385 0 0 0-9.226-6.982 238.645 238.645 0 0 1-25.686-24.564c-.372-.67-.536-.587-.499.25-.2.362-.324.777-.374 1.246l-.249-.249c-.025.537-.232.953-.623 1.247.042-1.831 0-3.659-.125-5.486a40.84 40.84 0 0 0-1.87-5.736c-.04-.424.002-.839.124-1.247.192-.274.399-.274.624 0z" fill="#000"/><path fill-rule="evenodd" clip-rule="evenodd" d="M332.545 247.506a4.143 4.143 0 0 0-.25 1.995c-.242-.525-.324-1.107-.249-1.745-.037-.837.127-.92.499-.25zM287.657 273.192c1.389-.03 2.719.135 3.99.499a13.366 13.366 0 0 1-3.99-.499zM137.533 272.943h1.247c.042.329-.041.621-.25.872a175.1 175.1 0 0 0-10.1 2.868c-.451-.229-.41-.439.125-.623a115.07 115.07 0 0 1 8.978-3.117zM303.867 273.192c-.786.454-1.284 1.117-1.496 1.995-.04-.589 0-1.17.124-1.746a2.257 2.257 0 0 1 1.372-.249z" fill="#000"/><path fill-rule="evenodd" clip-rule="evenodd" d="M222.321 300.623a6.181 6.181 0 0 1-1.746.374c.25.083.499.168.748.25a4.854 4.854 0 0 1-1.995.748c.36.095.609.302.748.623a84.48 84.48 0 0 1-4.737.749 13.362 13.362 0 0 0-3.99.498 32.74 32.74 0 0 0-4.988.499 10.056 10.056 0 0 0-3.491.499h-.998a10.056 10.056 0 0 0-3.491.499h-1.995a10.08 10.08 0 0 0-3.491.498 49.663 49.663 0 0 0-3.492.25 16.595 16.595 0 0 0-4.239.498h-2.494a20.78 20.78 0 0 0-4.738.499 795.18 795.18 0 0 1-27.182 1.496c-2.572.382-4.899-.157-6.982-1.62-27.801-35.045-57.726-68.378-89.776-100.001l-10.224-9.725a123.489 123.489 0 0 0-9.227-6.858c-.333-.249-.333-.499 0-.748a83.16 83.16 0 0 1 13.217 9.601 1082.469 1082.469 0 0 1 82.169 88.404c4.406 5.568 8.811 11.139 13.217 16.708 1.538 2.14 3.616 3.055 6.235 2.743a819.866 819.866 0 0 0 72.942-6.484z" fill="#000"/><path fill-rule="evenodd" clip-rule="evenodd" d="M306.112 278.928c.995.094 1.91-.07 2.743-.499a30.758 30.758 0 0 0 9.601-2.993c.813 7.302-1.556 13.497-7.107 18.579-1.863 1.396-3.94 1.98-6.235 1.746-1.311-.564-2.184-1.519-2.618-2.868a68.481 68.481 0 0 1 .499-12.968 2.29 2.29 0 0 1 .374-.623c.915-.137 1.83-.262 2.743-.374z" fill="#fff"/><path fill-rule="evenodd" clip-rule="evenodd" d="M214.091 273.441a25.08 25.08 0 0 1 .748 5.487h-1.247a7.703 7.703 0 0 0 0-3.242 4.531 4.531 0 0 0-.873.498 1.709 1.709 0 0 1-.748 1.247c.368-1.481 1.074-2.81 2.12-3.99zM217.084 274.938h.748a2.799 2.799 0 0 1-.499 1.496l.249.249a1.504 1.504 0 0 1 1.247-.498v-.998c.606.02 1.105.269 1.497.748.235.985.402 1.983.498 2.993h-.997v-2.743a59.83 59.83 0 0 0-3.99 1.995 5.547 5.547 0 0 1 1.247-3.242zM316.336 278.18h.997c-.414 5.528-2.573 10.224-6.484 14.089a6.779 6.779 0 0 1-3.74 1.871 4.955 4.955 0 0 1-2.245-.624 2.854 2.854 0 0 1-.374-.873 81.45 81.45 0 0 1 .25-11.72 98.99 98.99 0 0 1 6.608-1.123 27.813 27.813 0 0 0 4.988-1.62zM306.112 278.928c.995.094 1.91-.07 2.743-.499a13.48 13.48 0 0 0-2.743.499z" fill="#000"/><path fill-rule="evenodd" clip-rule="evenodd" d="M232.296 288.404c.416.249.748.581.997.997-.058.15-.182.232-.373.25a19.686 19.686 0 0 1-6.609-3.616c-.377-.359-.46-.733-.249-1.122l1.746 1.122c.36.194.692.152.997-.125a47.429 47.429 0 0 0-2.868-2.992c-.193-.474-.11-.891.25-1.247a40.965 40.965 0 0 1 3.491 2.493c.372 1.746 1.244 3.158 2.618 4.24z" fill="#fff"/><path fill-rule="evenodd" clip-rule="evenodd" d="M170.201 273.441c.321.14.529.389.623.748l4.738 14.464c.167.417.167.831 0 1.247a13.36 13.36 0 0 1-1.496-3.242 798.639 798.639 0 0 1-3.865-13.217zM246.51 238.279a.607.607 0 0 0 .125.499c.085-.528.293-.612.623-.249a87.255 87.255 0 0 1-3.865 17.955 480.438 480.438 0 0 1-6.234 13.217c-1.918 4.83-3.83 9.653-5.736 14.464.077 1.73.866 3.059 2.369 3.99-.517.069-1.016.152-1.496.249-1.374-1.082-2.246-2.494-2.618-4.24a40.965 40.965 0 0 0-3.491-2.493c-.36.356-.443.773-.25 1.247a47.429 47.429 0 0 1 2.868 2.992c-.305.277-.637.319-.997.125l-1.746-1.122c-.211.389-.128.763.249 1.122a19.686 19.686 0 0 0 6.609 3.616c.191-.018.315-.1.373-.25.136.015.219.098.25.25-.255.349-.504.681-.748.997-2.978-.805-5.597-2.301-7.856-4.488a4.342 4.342 0 0 1 .624-2.744c-.662-.521-.87-1.187-.624-1.995l1.871-2.369c1.565-.027 2.896.556 3.99 1.746.32.17.611.13.872-.125a182.422 182.422 0 0 1 10.225-23.441 145.715 145.715 0 0 0 2.494-7.98c.553-3.713 1.26-7.371 2.119-10.973z" fill="#000"/><path fill-rule="evenodd" clip-rule="evenodd" d="M227.059 280.424c.361-.277.776-.319 1.247-.125a11.61 11.61 0 0 1 2.369 1.621 3.506 3.506 0 0 1-.125 2.245 18.616 18.616 0 0 0-3.491-3.741z" fill="#fff"/><path fill-rule="evenodd" clip-rule="evenodd" d="M150.75 287.656c.945-.122 1.111.085.499.623-2.101.838-4.22 1.629-6.359 2.369-.125-.082-.25-.167-.374-.249a49.737 49.737 0 0 1 6.234-2.743zM152.994 290.399a.768.768 0 0 1 .748.249 2.566 2.566 0 0 1-1.247.873l-4.987 1.746c-.439.199-.855.157-1.247-.125a56.78 56.78 0 0 1 6.733-2.743zM324.316 293.392c.354.052.688.177.998.374a117.369 117.369 0 0 1 9.601 8.603 16.216 16.216 0 0 1 1.496 2.244 92.145 92.145 0 0 1-.873 9.227 30.72 30.72 0 0 1-.125 8.729c-1.93 2.728-4.548 3.683-7.855 2.867-.417-.082-.83-.167-1.247-.249a1.57 1.57 0 0 1-.249-.748 72.445 72.445 0 0 0 2.868-9.102c.114-2.2.446-4.359.997-6.484.998-1.644 2.451-2.641 4.364-2.993.302-.192.302-.401 0-.623-2.96-.122-4.913 1.249-5.86 4.115a19.905 19.905 0 0 0-.748 3.74 26.802 26.802 0 0 1-4.115-4.613 144.062 144.062 0 0 0-20.449-5.985 67.232 67.232 0 0 0 16.21-5.736 76.25 76.25 0 0 0 4.987-3.366zM179.179 292.394c.381.005.505.17.374.499a126.634 126.634 0 0 1-10.225 3.99c-.44-.414-.316-.706.374-.873a214.33 214.33 0 0 1 9.477-3.616zM181.921 294.888c1.005-.055 1.171.237.499.873a92.108 92.108 0 0 1-8.479 3.241c-.36.195-.692.153-.997-.124 3.012-1.342 6.005-2.671 8.977-3.99z" fill="#000"/><path fill-rule="evenodd" clip-rule="evenodd" d="M322.321 313.092a3.276 3.276 0 0 1 1.745.25c-1.8.429-3.005 1.511-3.616 3.241a308.668 308.668 0 0 0-3.99 14.963 6.818 6.818 0 0 1-1.87 2.12c-.439.199-.855.157-1.247-.125a37.24 37.24 0 0 0 2.12-2.992 558.888 558.888 0 0 1 3.242-12.22c.845-2.032 2.05-3.778 3.616-5.237z" fill="#fff"/><path fill-rule="evenodd" clip-rule="evenodd" d="M265.463 319.825a12.796 12.796 0 0 0-3.741-.498 12.8 12.8 0 0 0 3.741.498z" fill="#000"/></svg>