<svg width="400" height="400" fill="none" xmlns="http://www.w3.org/2000/svg"><path fill-rule="evenodd" clip-rule="evenodd" d="M265.125 31.625c.713 2.683 1.505 5.35 2.375 8a4226.066 4226.066 0 0 1 14.875 42 7505.09 7505.09 0 0 0 11.625 33c.268.926.31 1.843.125 2.75a418.996 418.996 0 0 0-12.25 6.25c-.432-.086-.557-.336-.375-.75a3.823 3.823 0 0 1 1.875-1.75c-.617-.609-.867-1.359-.75-2.25a93.204 93.204 0 0 0 1.125-8.25c1.853-1.74 2.353-3.824 1.5-6.25-1.662-4.347-4.702-6.722-9.125-7.125a9.776 9.776 0 0 1 1.5 2.125.749.749 0 0 1-.5.5c-4.175-1.922-8.175-1.63-12 .875a37.237 37.237 0 0 0-4.75 4.125 5.991 5.991 0 0 0 2 0 3.648 3.648 0 0 1-1.125 2.25 9.869 9.869 0 0 0-1 5.75 18.81 18.81 0 0 1 1.875 6.625 11.6 11.6 0 0 1-.375 2.875 4.366 4.366 0 0 0-.875 1.75c-6.195 1.722-11.612 4.806-16.25 9.25a252.045 252.045 0 0 0-6.75 6.625c-.623.258-1.207.549-1.75.875-.248-.043-.414.041-.5.25a2997.75 2997.75 0 0 0-33.75 14 34.49 34.49 0 0 1 .75-5c.042-3.168 0-6.335-.125-9.5a328.754 328.754 0 0 1-1.375-13.75 19.122 19.122 0 0 1 .375-5c.409-.306.784-.64 1.125-1a1.215 1.215 0 0 0-1-.25c-.226-.177-.309-.427-.25-.75 0-.167.083-.25.25-.25.839-.108 1.547.142 2.125.75.49-.198.865-.531 1.125-1a9.21 9.21 0 0 0-3-.25v-.75c.04-.413.207-.746.5-1h.75a3.523 3.523 0 0 1 1.875.5c.437-.062.646-.312.625-.75a9.463 9.463 0 0 1-3-.75 935.832 935.832 0 0 1 5.75-13.375 658.933 658.933 0 0 1 17.5-3.625c-.106.686.186 1.019.875 1a6.366 6.366 0 0 0 2.25-1c.041-1.17.041-2.336 0-3.5a242.442 242.442 0 0 0 4.75-9.25c3.65-7.963 7.275-15.88 10.875-23.75 2.4 1.2 4.733 2.534 7 4 .205-.737.33-1.487.375-2.25.183-5.334.39-10.668.625-16-.082-.667-.167-1.333-.25-2a1614.344 1614.344 0 0 1-14.625 12.25c-.154.237-.113.446.125.625 1.947.907 3.863 1.865 5.75 2.875A1632.838 1632.838 0 0 0 228 95.625c-.711.356-1.419.731-2.125 1.125l-1 1.5a168.008 168.008 0 0 1-15.5 2.875c4.054-9.936 8.095-19.853 12.125-29.75-.478.54-.895 1.123-1.25 1.75a3299.594 3299.594 0 0 0-13 28.25 751.176 751.176 0 0 1-12 2.75c-1.611-1.462-2.944-1.212-4 .75.116.507.324 1.007.625 1.5-2.373 7.489-4.748 14.989-7.125 22.5l-1.75 1.75c-.074 1.676.718 2.384 2.375 2.125 1.103-.934 1.27-2.018.5-3.25 2.306-7.5 4.556-15 6.75-22.5 1.527.274 2.527-.309 3-1.75l8.5-1.5a2.802 2.802 0 0 1 2 .125 194.952 194.952 0 0 0-5.5 12c-1.17-.041-2.336 0-3.5.125a2.835 2.835 0 0 0-1.875.875 77.213 77.213 0 0 1-1 7.25 451.05 451.05 0 0 1-4 11.25 261.815 261.815 0 0 0-2.125 8.5 58.95 58.95 0 0 0-7.5 4.875c-.284.187-.534.146-.75-.125a6072.456 6072.456 0 0 0-26-71.5 20.133 20.133 0 0 0-1.375-3.75 1.06 1.06 0 0 1 0-1 20.686 20.686 0 0 0 3.375-1.5 7137.64 7137.64 0 0 0 108.5-40.25c.255.35.505.684.75 1z" fill="#fff"/><path fill-rule="evenodd" clip-rule="evenodd" d="M265.125 31.625c-.245-.316-.495-.65-.75-1a7137.64 7137.64 0 0 1-108.5 40.25v-.25c36.1-13.77 72.309-27.27 108.625-40.5.507.361.718.861.625 1.5zM244.625 62.875a3.615 3.615 0 0 0-1-.5 115.221 115.221 0 0 0-5.75-2.875c-.238-.18-.279-.388-.125-.625 4.898-4.053 9.773-8.137 14.625-12.25.083.667.168 1.333.25 2a1642.08 1642.08 0 0 0-.625 16c-.045.763-.17 1.513-.375 2.25a73.086 73.086 0 0 0-7-4zM265.125 31.625a1705.046 1705.046 0 0 1 17.5 49c.068.4-.017.733-.25 1a4226.066 4226.066 0 0 0-14.875-42c-.87-2.65-1.662-5.317-2.375-8zM56.625 45.875c1.786-.377 3.244.123 4.375 1.5.415 3.168-.96 4.626-4.125 4.375-1.548-1.055-2.173-2.514-1.875-4.375.373-.703.915-1.203 1.625-1.5z" fill="#000"/><path fill-rule="evenodd" clip-rule="evenodd" d="M57.125 46.375c2.734-.062 3.692 1.188 2.875 3.75-1.978 1.468-3.395 1.052-4.25-1.25-.167-.5-.167-1 0-1.5.495-.312.953-.645 1.375-1zM357.375 57.875c1.195 1.787.945 3.329-.75 4.625a2.428 2.428 0 0 1-1.75-.125c-1.155-.994-1.53-2.244-1.125-3.75 1.015-1.037 2.223-1.287 3.625-.75z" fill="#fff"/><path fill-rule="evenodd" clip-rule="evenodd" d="M357.625 57.625c-.167 0-.25.083-.25.25-1.402-.537-2.61-.287-3.625.75-.405 1.506-.03 2.756 1.125 3.75-.21.085-.292.252-.25.5-1.512-1.028-2.055-2.444-1.625-4.25 1.3-1.566 2.843-1.899 4.625-1zM119.625 65.625v.25a1.233 1.233 0 0 1-.75-.125c-2.049-3.05-4.716-5.383-8-7-5.909-1.225-10.784.483-14.625 5.125-.44.96-.898 1.92-1.375 2.875a11.918 11.918 0 0 0 1.875 2.125c.187.284.146.534-.125.75a17.527 17.527 0 0 0-6.25-4.75c.085-.21.252-.293.5-.25 1.276.358 2.442.941 3.5 1.75 3.585-6.916 9.251-9.625 17-8.125 3.434 1.727 6.184 4.186 8.25 7.375z" fill="#000"/><path fill-rule="evenodd" clip-rule="evenodd" d="M357.625 57.625a6.23 6.23 0 0 1 1.125 1c.518 3.261-.857 4.678-4.125 4.25-.042-.248.04-.415.25-.5.56.26 1.143.3 1.75.125 1.695-1.296 1.945-2.838.75-4.625 0-.167.083-.25.25-.25zM329.125 63.875a.771.771 0 0 1 .75.25 67.31 67.31 0 0 1 3 11.75 140.476 140.476 0 0 1-11-3.5 90.951 90.951 0 0 0 6.625-7.25 4.78 4.78 0 0 0 .625-1.25zM122.375 64.375c.177.226.427.31.75.25a22.07 22.07 0 0 0-3.5 1.25v-.25a6.915 6.915 0 0 1 2.75-1.25zM90.875 64.625c-.248-.043-.415.04-.5.25-4.826-.65-8.534 1.1-11.125 5.25a22.588 22.588 0 0 0-2.125 5.75c.5-5.782 3.5-9.657 9-11.625a18.121 18.121 0 0 1 4.25 0c.229.07.395.195.5.375z" fill="#000"/><path fill-rule="evenodd" clip-rule="evenodd" d="M328.875 65.125c.668.24 1.042.74 1.125 1.5a157.97 157.97 0 0 1 2.125 8.5c-3.1-.937-6.182-1.937-9.25-3a39.622 39.622 0 0 0 6-7z" fill="#fff"/><path fill-rule="evenodd" clip-rule="evenodd" d="M155.875 70.625v.25a20.686 20.686 0 0 1-3.375 1.5 1.06 1.06 0 0 0 0 1 20.133 20.133 0 0 1 1.375 3.75c-.224-.251-.391-.251-.5 0a11.105 11.105 0 0 1-1.25-5 35.869 35.869 0 0 1 3.75-1.5zM106.125 69.625c.329.604.495 1.312.5 2.125a42.114 42.114 0 0 1-1.25 9.375l-.25-1.75a70.598 70.598 0 0 0 1-9.75zM77.125 75.875a13.474 13.474 0 0 1-.875 3.5 6.475 6.475 0 0 1 .875-3.5zM343.875 74.875c.33-.043.623.04.875.25.043 1.772.252 3.522.625 5.25l-.25.5c-.535-.243-.825-.66-.875-1.25a71.416 71.416 0 0 0-.375-4.75zM350.375 83.125c.63-.325 1.298-.325 2 0-.03.152-.115.235-.25.25-.527-.242-1.11-.326-1.75-.25zM343.375 83.875a30.399 30.399 0 0 1-5.5-.25c.93-.374 1.93-.54 3-.5l2 .125c.315.104.48.313.5.625z" fill="#000"/><path fill-rule="evenodd" clip-rule="evenodd" d="M350.375 83.125c.64-.076 1.223.008 1.75.25a32.357 32.357 0 0 1-5.25.75v-.75a20.702 20.702 0 0 1 3.5-.25zM337.875 83.625c1.788.248 3.62.331 5.5.25a16.82 16.82 0 0 1-5.75 0c.03-.152.115-.235.25-.25zM124.125 76.375c.241.305.2.638-.125 1l-4.75 7.75a1.06 1.06 0 0 1 0-1 92.013 92.013 0 0 1 4.875-7.75zM56.875 97.375a2.925 2.925 0 0 0-.75-1.5c3.397-9.246 10.064-13.538 20-12.875.483-.439.691-.314.625.375-9.261-.897-15.845 2.853-19.75 11.25-.125.913-.166 1.83-.125 2.75zM80.625 80.375c.38.003.671.17.875.5a77.62 77.62 0 0 1 6.375 8.375c.238.325.238.617 0 .875a334.21 334.21 0 0 1-7.25-9.75zM142.625 104.875a1.77 1.77 0 0 0-.75.5l-1.5.75-.25-.25a17.939 17.939 0 0 0 5.375-5.25c2.003-6.074.462-10.949-4.625-14.625a94.733 94.733 0 0 1-6-2.625c1.685-.391 2.893-1.391 3.625-3 2.349-4.73 1.474-8.772-2.625-12.125-3.879-2.573-8.129-3.782-12.75-3.625-.323.06-.573-.024-.75-.25 5.208-.611 9.958.597 14.25 3.625 4.319 3.765 5.027 8.14 2.125 13.125a24.061 24.061 0 0 1-1.875 2.25c.119.245.286.453.5.625 8.01 2.642 10.969 8.1 8.875 16.375a14.474 14.474 0 0 1-3.625 4.5zM115.625 90.875c.059.323-.024.573-.25.75-1.331-2.117-3.248-3.409-5.75-3.875-1.5-.167-3-.167-4.5 0a15.65 15.65 0 0 1-3.25.875c-.167 0-.25-.083-.25-.25 4.06-1.762 8.06-1.637 12 .375a4.917 4.917 0 0 1 2 2.125z" fill="#000"/><path fill-rule="evenodd" clip-rule="evenodd" d="M115.375 91.625c1.28 2.872 1.321 5.788.125 8.75a43.157 43.157 0 0 0-2.375 5.75c.063.393.229.727.5 1 .014.277.097.527.25.75-.614.592-1.364.842-2.25.75v-4.5a20.488 20.488 0 0 0-.25-4.5 1.779 1.779 0 0 0-.25 1.25 6.4 6.4 0 0 0-2.5.25 4.798 4.798 0 0 0-1.25.625c-.852.12-1.685.12-2.5 0 1.147 1.14 2.314 1.14 3.5 0a25.198 25.198 0 0 0 2-.375h.75v7.5a34.386 34.386 0 0 1-3.5 1.875c-.361.195-.694.153-1-.125a84.185 84.185 0 0 0-6.5-8.75l-.25.25a83.872 83.872 0 0 0 6.25 9c-1.584 1.552-2.792 1.302-3.625-.75a20.039 20.039 0 0 0-5.375-2.5c-2.476-1.238-3.643-3.28-3.5-6.125.08-6.132 2.83-10.507 8.25-13.125a15.65 15.65 0 0 0 3.25-.875c1.5-.167 3-.167 4.5 0 2.502.466 4.419 1.758 5.75 3.875z" fill="#fff"/><path fill-rule="evenodd" clip-rule="evenodd" d="M345.876 89.125a5.286 5.286 0 0 1-.25 2.25c-.17-.275-.335-.525-.5-.75-.083-1.51 0-3.01.25-4.5a.906.906 0 0 1 .375.25c.125.913.167 1.83.125 2.75z" fill="#000"/><path fill-rule="evenodd" clip-rule="evenodd" d="M345.876 89.125a7.74 7.74 0 0 1 .249 2.75c-.852.029-1.184-.388-.999-1.25.165.225.33.475.5.75.245-.732.33-1.482.25-2.25zM282.625 80.625a2990.36 2990.36 0 0 1 12.25 35.875 2.449 2.449 0 0 1-.25 1 113.65 113.65 0 0 1-12.75 6.375v-.25a418.996 418.996 0 0 1 12.25-6.25 5.677 5.677 0 0 0-.125-2.75 7505.09 7505.09 0 0 1-11.625-33c.233-.267.318-.6.25-1z" fill="#000"/><path fill-rule="evenodd" clip-rule="evenodd" d="M281.875 123.625v.25a9.98 9.98 0 0 0-1 2.375c.645 1.355.645 2.73 0 4.125a4.05 4.05 0 0 1-2.75-.125 39.836 39.836 0 0 1-5.25-2.875l-.75-.75a19.315 19.315 0 0 1-3.125-3.25c-.167-.5-.167-1 0-1.5a66.337 66.337 0 0 0 1.625-6.125c-.45-1.409-1.367-2.367-2.75-2.875.483-.302.983-.261 1.5.125l2.125 2.125a4.633 4.633 0 0 1-.375 1.5h.75c.303.184.635.267 1 .25a25.36 25.36 0 0 0 2 6c.318.232.65.274 1 .125a3.497 3.497 0 0 1 1.75-1.25c1.39-.189 2.723-.106 4 .25l.375-.375c.083-1.75.168-3.5.25-5.25.5-1.71.793-3.46.875-5.25-2.085.548-4.002.214-5.75-1a3.388 3.388 0 0 0-1-1.25c-2.612-2.146-5.612-2.938-9-2.375-2.79.846-4.622 2.638-5.5 5.375a7.743 7.743 0 0 0-.25 2c.005.772.173 1.439.5 2 1.115 2.561.99 5.061-.375 7.5a3.69 3.69 0 0 1-.875.75c.158-.647.45-1.231.875-1.75a11.6 11.6 0 0 0 .375-2.875 18.81 18.81 0 0 0-1.875-6.625 9.869 9.869 0 0 1 1-5.75 3.648 3.648 0 0 0 1.125-2.25 5.991 5.991 0 0 1-2 0 37.237 37.237 0 0 1 4.75-4.125c3.825-2.505 7.825-2.797 12-.875a.749.749 0 0 0 .5-.5 9.776 9.776 0 0 0-1.5-2.125c4.423.403 7.463 2.778 9.125 7.125.853 2.426.353 4.51-1.5 6.25a93.204 93.204 0 0 1-1.125 8.25c-.117.891.133 1.641.75 2.25a3.823 3.823 0 0 0-1.875 1.75c-.182.414-.057.664.375.75zM71.125 97.875c.059-.15.184-.233.375-.25a138.923 138.923 0 0 1 11.625 4.5c-.216.271-.466.312-.75.125a299.46 299.46 0 0 1-11.25-4.375zM103.875 101.625a.606.606 0 0 1 .5.125c-.546.686-1.213 1.103-2 1.25a8.207 8.207 0 0 0 1.5-1.375zM108.625 101.125c.64-.075 1.223.008 1.75.25-.657.151-1.323.276-2 .375-1.186 1.14-2.353 1.14-3.5 0 .815.12 1.648.12 2.5 0a4.798 4.798 0 0 1 1.25-.625z" fill="#000"/><path fill-rule="evenodd" clip-rule="evenodd" d="m111.625 104.125-.5-1.5v-1.25h-.75c-.527-.242-1.11-.325-1.75-.25a6.4 6.4 0 0 1 2.5-.25 1.779 1.779 0 0 1 .25-1.25c.249 1.491.332 2.991.25 4.5zM115.625 90.875a6.657 6.657 0 0 1 1.125 2.5 16.44 16.44 0 0 1-1 8.25 20.3 20.3 0 0 0-1.875 4.375c.027.42.194.712.5.875-.076.574-.326.657-.75.25a1.783 1.783 0 0 1-.5-1 43.157 43.157 0 0 1 2.375-5.75c1.196-2.962 1.155-5.878-.125-8.75.226-.177.309-.427.25-.75zM123.125 102.375c.617-.283 1.283-.325 2-.125 1.457.569 2.957.986 4.5 1.25-.75.167-1.5.167-2.25 0a80.654 80.654 0 0 0-4.25-1.125zM56.125 95.875c.39.414.64.914.75 1.5.799 3.008 2.632 5.133 5.5 6.375 1.267.45 2.517.95 3.75 1.5-4.55-.267-7.76-2.558-9.625-6.875a7.818 7.818 0 0 1-.375-2.5z" fill="#000"/><path fill-rule="evenodd" clip-rule="evenodd" d="m111.125 102.625.5 1.5v3l-.5 1.75v-6.25zM101.625 88.375c0 .167.083.25.25.25-5.42 2.618-8.17 6.993-8.25 13.125-.143 2.845 1.024 4.887 3.5 6.125-.167 0-.25.083-.25.25-2.059-.936-3.35-2.519-3.875-4.75-.303-5.176 1.405-9.551 5.125-13.125a35.486 35.486 0 0 1 3.5-1.875zM114.375 106.875c.343.253.676.503 1 .75l-1.5.25a1.427 1.427 0 0 1-.25-.75c.424.407.674.324.75-.25z" fill="#000"/><path fill-rule="evenodd" clip-rule="evenodd" d="m111.125 108.875.5-1.75v1.5c.886.092 1.636-.158 2.25-.75l1.5-.25c1.722.409 2.181 1.409 1.375 3a18.052 18.052 0 0 1-6.125 3.875 29.742 29.742 0 0 1-5.75 1.625c-.281-.212-.281-.462 0-.75a28.83 28.83 0 0 0 10.25-4.125 10.003 10.003 0 0 1 1.75-2c-.613-.89-1.446-1.223-2.5-1a278.359 278.359 0 0 0-10.25 4.5c-.337.502-.671 1.002-1 1.5.119.41.37.702.75.875.407.424.324.674-.25.75-2.163-.826-2.329-1.993-.5-3.5a10.3 10.3 0 0 0-1.5-2.125 30.112 30.112 0 0 0-4.75-2.125c0-.167.083-.25.25-.25a20.039 20.039 0 0 1 5.375 2.5c.833 2.052 2.041 2.302 3.625.75a83.872 83.872 0 0 1-6.25-9l.25-.25a84.185 84.185 0 0 1 6.5 8.75c.306.278.639.32 1 .125a34.386 34.386 0 0 0 3.5-1.875z" fill="#000"/><path fill-rule="evenodd" clip-rule="evenodd" d="m104.875 115.375-1-.25a1.322 1.322 0 0 1-.75-.875c.329-.498.663-.998 1-1.5a278.359 278.359 0 0 1 10.25-4.5c1.054-.223 1.887.11 2.5 1a10.003 10.003 0 0 0-1.75 2 28.83 28.83 0 0 1-10.25 4.125zM277.375 110.125c1.748 1.214 3.665 1.548 5.75 1a22.274 22.274 0 0 1-.875 5.25c-.082 1.75-.167 3.5-.25 5.25l-.375.375c-1.277-.356-2.61-.439-4-.25a3.497 3.497 0 0 0-1.75 1.25c-.35.149-.682.107-1-.125a25.36 25.36 0 0 1-2-6c.09-2.797 1.34-5.005 3.75-6.625.237-.121.488-.162.75-.125z" fill="#fff"/><path fill-rule="evenodd" clip-rule="evenodd" d="M61.625 113.375c-.42-.054-.67.113-.75.5-.312-1.411-.187-2.827.375-4.25a25.654 25.654 0 0 1 2.625-3.375c.167-.167.333-.167.5 0a14.085 14.085 0 0 0-2.625 3.625 24.6 24.6 0 0 0-.125 3.5zM276.375 108.875c.42.32.753.737 1 1.25a1.235 1.235 0 0 0-.75.125c-2.41 1.62-3.66 3.828-3.75 6.625a1.725 1.725 0 0 1-1-.25c.698-2.824 2.24-5.074 4.625-6.75a.971.971 0 0 0-.125-1z" fill="#000"/><path fill-rule="evenodd" clip-rule="evenodd" d="M276.375 108.875c.228.31.27.643.125 1-2.385 1.676-3.927 3.926-4.625 6.75h-.75c.213-.495.338-.995.375-1.5L269.375 113c-.517-.386-1.017-.427-1.5-.125 1.383.508 2.3 1.466 2.75 2.875a66.337 66.337 0 0 1-1.625 6.125c-.167.5-.167 1 0 1.5a19.315 19.315 0 0 0 3.125 3.25 21.752 21.752 0 0 1-2.75 3.5 11.965 11.965 0 0 0-3.75-3.75 15.684 15.684 0 0 0-4.5-1.375 1.096 1.096 0 0 1-.25-.875 3.69 3.69 0 0 0 .875-.75c1.365-2.439 1.49-4.939.375-7.5a18.947 18.947 0 0 1-.25-4c.878-2.737 2.71-4.529 5.5-5.375 3.388-.563 6.388.229 9 2.375z" fill="#fff"/><path fill-rule="evenodd" clip-rule="evenodd" d="M278.375 112.875c1.007-.055 1.172.237.5.875a1.236 1.236 0 0 1-.75.125 1.724 1.724 0 0 1 .25-1zM139.625 121.625h-.5c.041-2.585 0-5.168-.125-7.75a3.605 3.605 0 0 0-.625-1.375c.567-.023.942.269 1.125.875.283 2.735.325 5.485.125 8.25zM142.625 104.875c.368 1.48.91 2.897 1.625 4.25.751 2.956-.04 5.414-2.375 7.375-.386.297-.803.38-1.25.25 3.339-2.247 4.214-5.205 2.625-8.875-.28-.98-.738-1.813-1.375-2.5a1.77 1.77 0 0 1 .75-.5zM267.875 112.875c-.915.66-1.458 1.577-1.625 2.75-.568-1.62-.025-2.537 1.625-2.75zM203.375 115.375c.853-.399 1.603-.232 2.25.5l-.375.25a3.712 3.712 0 0 0-1.875-.75zM261.875 111.875a18.947 18.947 0 0 0 .25 4c-.327-.561-.495-1.228-.5-2 0-.714.085-1.381.25-2zM103.875 115.125l1 .25c-.281.288-.281.538 0 .75l-.25.5c-.356-.383-.523-.299-.5.25a3.617 3.617 0 0 1-.5-1c.574-.076.657-.326.25-.75zM278.375 115.875c.603.049.852.382.75 1h-.75v-1zM114.625 116.125c.198.548.198 1.048 0 1.5.023-.549-.144-.633-.5-.25-.08-.387-.33-.554-.75-.5a7.766 7.766 0 0 1 1.25-.75z" fill="#000"/><path fill-rule="evenodd" clip-rule="evenodd" d="M199.875 117.375a34.625 34.625 0 0 1-2.25 5.25c.097.305.305.472.625.5a13.33 13.33 0 0 0 1.375-.5l.5 5.25c.513 4.833 1.055 9.666 1.625 14.5.125 2.165.166 4.332.125 6.5a223.866 223.866 0 0 0-1.125 7.5 12.763 12.763 0 0 1-1.75 4 1598.546 1598.546 0 0 1-10.125-15.875 375.73 375.73 0 0 1 1.875-8.125 307.552 307.552 0 0 0 4.25-13.25c.466-1.802.716-3.636.75-5.5.208-.375.5-.667.875-.875a7.102 7.102 0 0 1 3.5-.125c-.157.229-.24.479-.25.75zM113.375 116.875c.42-.054.67.113.75.5a9.974 9.974 0 0 1-3.125 2.75c-1.061-.167-1.686-.751-1.875-1.75a44.642 44.642 0 0 0 4.25-1.5z" fill="#fff"/><path fill-rule="evenodd" clip-rule="evenodd" d="M114.625 116.125a7.766 7.766 0 0 0-1.25.75 44.642 44.642 0 0 1-4.25 1.5c.189.999.814 1.583 1.875 1.75a9.974 9.974 0 0 0 3.125-2.75c.356-.383.523-.299.5.25-.571.655-1.154 1.322-1.75 2-.704.373-1.412.707-2.125 1a2.398 2.398 0 0 1-1.125-.375 4.726 4.726 0 0 0-1.25-1.375c-2.07.673-3.487.006-4.25-2-.023-.549.144-.633.5-.25.452.831 1.161 1.248 2.125 1.25 3.32-.384 6.32-1.55 9-3.5.396-.704.354-1.329-.125-1.875.237-.154.446-.113.625.125.2 1.516-.342 2.683-1.625 3.5zM202.625 116.375a9.463 9.463 0 0 0 3 .75 6.402 6.402 0 0 0-2.5.25h-.75c-.067-.4.017-.733.25-1z" fill="#000"/><path fill-rule="evenodd" clip-rule="evenodd" d="M203.125 117.375a6.402 6.402 0 0 1 2.5-.25c.021.438-.188.688-.625.75a3.523 3.523 0 0 0-1.875-.5zM265.875 115.875c.303.484.26.984-.125 1.5-.435.613-.978.988-1.625 1.125a9.05 9.05 0 0 0 1.75-2.625zM90.125 115.875a.772.772 0 0 1 .75.25 45.174 45.174 0 0 1-6 5.125c-.315.245-.648.329-1 .25 2.102-1.879 4.185-3.754 6.25-5.625zM201.875 118.375v.75a9.21 9.21 0 0 1 3 .25c-.26.469-.635.802-1.125 1-.578-.608-1.286-.858-2.125-.75-.071-.479.012-.895.25-1.25zM61.625 113.375c.17 1.959 1.086 3.501 2.75 4.625 2.562 1.724 5.395 2.516 8.5 2.375a1.632 1.632 0 0 1-.75.75l-.5-.25c-4.456.293-7.914-1.457-10.375-5.25a4.438 4.438 0 0 1-.375-1.75c.08-.387.33-.554.75-.5z" fill="#000"/><path fill-rule="evenodd" clip-rule="evenodd" d="M201.375 119.875c-.059.323.024.573.25.75a29.006 29.006 0 0 1-1.5 3.25v4l-.5-5.25a15.008 15.008 0 0 1 1.75-2.75z" fill="#fff"/><path fill-rule="evenodd" clip-rule="evenodd" d="M243.625 62.375c.374.122.707.289 1 .5-3.6 7.87-7.225 15.787-10.875 23.75a242.442 242.442 0 0 1-4.75 9.25c.041 1.164.041 2.33 0 3.5a6.366 6.366 0 0 1-2.25 1c-.689.019-.981-.314-.875-1a658.933 658.933 0 0 0-17.5 3.625 935.832 935.832 0 0 0-5.75 13.375c-.233.267-.317.6-.25 1-.293.254-.46.587-.5 1-.238.355-.321.771-.25 1.25-.167 0-.25.083-.25.25a15.008 15.008 0 0 0-1.75 2.75c-.442.189-.9.356-1.375.5-.32-.028-.528-.195-.625-.5a34.625 34.625 0 0 0 2.25-5.25c.436-.383.686-.883.75-1.5a194.952 194.952 0 0 1 5.5-12 2.802 2.802 0 0 0-2-.125l-8.5 1.5c-.473 1.441-1.473 2.024-3 1.75-2.194 7.5-4.444 15-6.75 22.5.77 1.232.603 2.316-.5 3.25-1.657.259-2.449-.449-2.375-2.125l1.75-1.75c2.377-7.511 4.752-15.011 7.125-22.5a5.026 5.026 0 0 1-.625-1.5c1.056-1.962 2.389-2.212 4-.75a751.176 751.176 0 0 0 12-2.75c4.281-9.42 8.615-18.837 13-28.25.355-.627.772-1.21 1.25-1.75-4.03 9.897-8.071 19.814-12.125 29.75a168.008 168.008 0 0 0 15.5-2.875l1-1.5A55.003 55.003 0 0 1 228 95.625a1632.838 1632.838 0 0 1 15.625-33.25z" fill="#000"/><path fill-rule="evenodd" clip-rule="evenodd" d="M201.625 120.625c.37-.065.703.018 1 .25-.341.36-.716.694-1.125 1a19.122 19.122 0 0 0-.375 5 12.378 12.378 0 0 1-.375-2.5c-.104-.314-.312-.481-.625-.5a29.006 29.006 0 0 0 1.5-3.25z" fill="#000"/><path fill-rule="evenodd" clip-rule="evenodd" d="M277.625 123.875c.54-.096.958.071 1.25.5a1.78 1.78 0 0 1-1.25.25v-.75z" fill="#fff"/><path fill-rule="evenodd" clip-rule="evenodd" d="m71.625 120.875.5.25c-.793 2.021-.96 4.104-.5 6.25a5.32 5.32 0 0 1-.625-1.5.607.607 0 0 0-.125.5c-.284-.701-.326-1.451-.125-2.25.158-1.14.45-2.224.875-3.25z" fill="#000"/><path fill-rule="evenodd" clip-rule="evenodd" d="M265.375 126.625c1.617.951 2.785 2.284 3.5 4a26.212 26.212 0 0 0-7.75-.375 11.645 11.645 0 0 0-4.5 2.875 4.914 4.914 0 0 0-2.125 2c-3.648 5.474-4.565 11.391-2.75 17.75a38.454 38.454 0 0 0 4.125 9.25c4.05 6.591 9.718 11.216 17 13.875a.713.713 0 0 1 .25.625 143.628 143.628 0 0 1-18.5 3.375c-8.231.789-16.231-.211-24-3a15.512 15.512 0 0 1-3.25-1.875c-1.331-1.538-1.997-3.329-2-5.375a42.403 42.403 0 0 1 2.5-10.375 68.33 68.33 0 0 1 10.25-18.75 66.872 66.872 0 0 1 6.75-7c3.931-3.714 8.515-6.339 13.75-7.875a12.358 12.358 0 0 1 6.75.875z" fill="#fff"/><path fill-rule="evenodd" clip-rule="evenodd" d="M260.875 124.125c-.042.331.04.622.25.875 1.575.234 3.075.692 4.5 1.375 0 .167-.082.25-.25.25a12.358 12.358 0 0 0-6.75-.875c-5.235 1.536-9.819 4.161-13.75 7.875-.167 0-.25-.083-.25-.25 4.638-4.444 10.055-7.528 16.25-9.25z" fill="#000"/><path fill-rule="evenodd" clip-rule="evenodd" d="M265.625 126.375a11.965 11.965 0 0 1 3.75 3.75l-.5.5c-.715-1.716-1.883-3.049-3.5-4 .168 0 .25-.083.25-.25zM160.125 130.375a26.306 26.306 0 0 0 4.25 2.375 21.607 21.607 0 0 1 5.25 5.75l-.125.375a28.32 28.32 0 0 0-3.125-.75c-.618-.345-1.201-.261-1.75.25-.821-.217-1.654-.175-2.5.125l-6 3.25a88.28 88.28 0 0 0-7.75 2.625c-1.239.331-2.489.54-3.75.625a5.093 5.093 0 0 1-1.625-2.125 20.882 20.882 0 0 1 .25-6 9.55 9.55 0 0 1 1.5-2.5c.277-.384.652-.551 1.125-.5-.04.425.001.841.125 1.25 1.043-2.459 2.834-4.167 5.375-5.125a15.891 15.891 0 0 0 2.75-.75 16.03 16.03 0 0 1 4 0 3.96 3.96 0 0 1 2 1.125z" fill="#000"/><path fill-rule="evenodd" clip-rule="evenodd" d="M160.125 130.375c-.03.271-.196.438-.5.5a22.553 22.553 0 0 1-2.5-.625c-.35-.336-.267-.544.25-.625a33.29 33.29 0 0 1 2.75.75z" fill="#000"/><path fill-rule="evenodd" clip-rule="evenodd" d="M295.375 176.125c-3.885.624-7.8.957-11.75 1a26.849 26.849 0 0 0-3.5-.875 261.505 261.505 0 0 0-5.75-.125c-7.408-2.869-13.408-7.535-18-14a48.023 48.023 0 0 1-4.125-9.5c-.998-4.741-.748-9.408.75-14a18.322 18.322 0 0 1 3.875-5.5c3.392-2.592 7.142-3.217 11.25-1.875.447.196.822.488 1.125.875a459.33 459.33 0 0 1 5 20.25 40.649 40.649 0 0 0 1.75 4.75 389.926 389.926 0 0 0 22.625 11.125c1.112.518 1.612 1.393 1.5 2.625.012 1.426-.488 2.634-1.5 3.625a14.766 14.766 0 0 1-3.25 1.625z" fill="#fff"/><path fill-rule="evenodd" clip-rule="evenodd" d="M200.125 123.875c.313.019.521.186.625.5.045.881.17 1.715.375 2.5.362 4.591.82 9.175 1.375 13.75.125 3.165.167 6.332.125 9.5a9.999 9.999 0 0 1-.375-2.25l-.25 2a2.105 2.105 0 0 1-.125-1c.041-2.168 0-4.335-.125-6.5-.57-4.834-1.112-9.667-1.625-14.5v-4zM139.125 121.625h.5c-1.3 4.926-4.384 8.218-9.25 9.875-1.164.125-2.33.166-3.5.125-.225 3.352-1.975 5.478-5.25 6.375-3.19.53-5.982-.261-8.375-2.375a.979.979 0 0 0-.5.25c-1.238 4.559-4.196 6.35-8.875 5.375-4.79-.704-8.333-3.163-10.625-7.375a1.164 1.164 0 0 0-.75-.5c-3.82 3.427-8.278 4.719-13.375 3.875-4.707-2.162-7.457-5.787-8.25-10.875a.607.607 0 0 1 .125-.5 5.32 5.32 0 0 0 .625 1.5c1.325 4.701 4.325 7.826 9 9.375 4.23.172 7.98-1.078 11.25-3.75.237-.121.487-.162.75-.125a33.354 33.354 0 0 1-.375-2.5 30.773 30.773 0 0 0 3 5.5c3.652 3.553 8.027 5.095 13.125 4.625a8.06 8.06 0 0 0 2.625-2.125 43.267 43.267 0 0 0 1.875-4 39.194 39.194 0 0 0 5.75 3.125c2.059.09 3.975-.411 5.75-1.5 1.458-1.252 2.041-2.794 1.75-4.625 5.69-.198 9.899-2.781 12.625-7.75.142-.667.267-1.334.375-2z" fill="#000"/><path fill-rule="evenodd" clip-rule="evenodd" d="m164.625 138.375.25.5c.06.492-.023.95-.25 1.375.375.279.792.487 1.25.625.232.297.315.631.25 1h1c-.007-.425-.174-.758-.5-1h.75c1.184.139 1.976.805 2.375 2 .234 1.146-.225 1.521-1.375 1.125-.345-.481-.72-.94-1.125-1.375.08.881.538 1.547 1.375 2a18.988 18.988 0 0 1 2.125 7.75 17.76 17.76 0 0 1-2.125 3.25c.319.412.569.871.75 1.375.441.16.858.118 1.25-.125.419.171.586.504.5 1-.041 2.002 0 4.002.125 6a.824.824 0 0 0 .375.5c.177-2.718.344-5.468.5-8.25a.75.75 0 0 1 .5-.5c-.226.366-.226.699 0 1-.149.059-.232.184-.25.375.465 2.522.59 5.064.375 7.625-1.024.493-2.066.91-3.125 1.25-3.315.525-6.648.941-10 1.25a8.125 8.125 0 0 0-.125-2 51.753 51.753 0 0 1-3.625-7.5c.128-.503.17-1.003.125-1.5-2.306-.143-3.639-1.31-4-3.5 1.653-1.904 3.403-1.988 5.25-.25 1.102-.263 1.602-.93 1.5-2a111.265 111.265 0 0 1-3.875-6.5 15.576 15.576 0 0 0-5.75 1c-.118-.351-.368-.518-.75-.5a88.28 88.28 0 0 1 7.75-2.625l6-3.25c.846-.3 1.679-.342 2.5-.125z" fill="#fff"/><path fill-rule="evenodd" clip-rule="evenodd" d="M166.375 138.125a2.117 2.117 0 0 0-1 .125c-.275.193-.275.401 0 .625h-.5l-.25-.5c.549-.511 1.132-.595 1.75-.25zM164.875 138.875h.5a3.993 3.993 0 0 0 1.25 2c.326.242.493.575.5 1h-1a1.216 1.216 0 0 0-.25-1 4.019 4.019 0 0 1-1.25-.625c.227-.425.31-.883.25-1.375zM153.875 77.125a6072.456 6072.456 0 0 1 26 71.5c.216.271.466.312.75.125a58.95 58.95 0 0 1 7.5-4.875 261.815 261.815 0 0 1 2.125-8.5 451.05 451.05 0 0 0 4-11.25c.448-2.4.781-4.817 1-7.25a2.835 2.835 0 0 1 1.875-.875 24.645 24.645 0 0 1 3.5-.125c-.064.617-.314 1.117-.75 1.5.01-.271.093-.521.25-.75a7.102 7.102 0 0 0-3.5.125c-.375.208-.667.5-.875.875a23.616 23.616 0 0 1-.75 5.5 307.552 307.552 0 0 1-4.25 13.25 375.73 375.73 0 0 0-1.875 8.125c3.342 5.309 6.717 10.6 10.125 15.875a12.763 12.763 0 0 0 1.75-4c.338-2.542.713-5.042 1.125-7.5-.039.343.002.677.125 1l.25-2c.045.799.17 1.549.375 2.25a34.49 34.49 0 0 0-.75 5 2997.75 2997.75 0 0 1 33.75-14h.5a4.736 4.736 0 0 1-1.75 1.125 1588.225 1588.225 0 0 0-32.75 13.625 41.412 41.412 0 0 0-2 5.375 729.21 729.21 0 0 1 1.375 3.375c.167.5.167 1 0 1.5-2.148 2.658-4.606 4.866-7.375 6.625a97.607 97.607 0 0 0 7-7.375 118.122 118.122 0 0 0-12.875-20.5 167.263 167.263 0 0 0-15.125 10.75.75.75 0 0 0-.5.5 1.427 1.427 0 0 0-.75.25c-.167 0-.25-.083-.25-.25a113.599 113.599 0 0 1 8.5-6.875 5315.628 5315.628 0 0 1-26.25-72.125c.109-.251.276-.251.5 0zM244.625 133.375c0 .167.083.25.25.25a66.872 66.872 0 0 0-6.75 7c-.015-.136-.098-.219-.25-.25-.502.418-1.086.584-1.75.5a13.225 13.225 0 0 1 1.75-.875 252.045 252.045 0 0 1 6.75-6.625z" fill="#000"/><path fill-rule="evenodd" clip-rule="evenodd" d="M169.375 144.375c-.323-.059-.573.024-.75.25-.837-.453-1.295-1.119-1.375-2 .405.435.78.894 1.125 1.375 1.15.396 1.609.021 1.375-1.125-.399-1.195-1.191-1.861-2.375-2 .35-.402.766-.611 1.25-.625l2 3.25a2.172 2.172 0 0 1-1.25.875zM159.876 142.875c.219-.033.385.051.5.25a4.55 4.55 0 0 0-1 1.5c-.279-.306-.321-.639-.125-1 .261-.218.469-.468.625-.75zM155.875 157.625c-.2.386-.284.802-.25 1.25h-2a11.968 11.968 0 0 1-4.625-2.75 24.25 24.25 0 0 1-4-7 4.43 4.43 0 0 1 .25-2.75 15.659 15.659 0 0 1 3.875-1.5 15.576 15.576 0 0 1 5.75-1 111.265 111.265 0 0 0 3.875 6.5c.102 1.07-.398 1.737-1.5 2-1.847-1.738-3.597-1.654-5.25.25.361 2.19 1.694 3.357 4 3.5.045.497.003.997-.125 1.5zM161.375 144.875c.475-.615 1.058-.865 1.75-.75a2.777 2.777 0 0 1-1.75.75z" fill="#000"/><path fill-rule="evenodd" clip-rule="evenodd" d="M236.125 141.125c.37-.066.703.018 1 .25-4.204 5.239-7.371 11.073-9.5 17.5a31.814 31.814 0 0 0-2.625 13 12.3 12.3 0 0 0 2.125 3.5c.039.343-.002.677-.125 1-2.124 2.913-2.873 6.163-2.25 9.75 1.217 5.728 3.843 10.686 7.875 14.875a16.135 16.135 0 0 0 6.75 3.375c.44.203.857.453 1.25.75a1.427 1.427 0 0 1-.75.25 169.66 169.66 0 0 0-12.25 3.25 53.393 53.393 0 0 0-6.375-14.25 5.233 5.233 0 0 0-2.625-1.875c-5.922-.69-11.505.435-16.75 3.375a11.089 11.089 0 0 0-.5-.25 71.228 71.228 0 0 0-5.25-16.25 44.844 44.844 0 0 0-4-8l-.25.25a164.39 164.39 0 0 1 3.75 7.75 139.355 139.355 0 0 1 5.25 16.75 211.827 211.827 0 0 0-33.875 20.5 1.234 1.234 0 0 1-.125-.75c.119-1.916.244-3.832.375-5.75a5.37 5.37 0 0 1 1.25-1.5 12.67 12.67 0 0 0 .125-2.5c.37-1.802.661-3.635.875-5.5a14.17 14.17 0 0 0-1.125 4.75c-.037 1.494-.62 2.703-1.75 3.625a70.276 70.276 0 0 1-15.5-1.875 7.044 7.044 0 0 0-2.5-.75v-9.25c.224-1.875.391-3.792.5-5.75.78-7.48 3.322-14.313 7.625-20.5a139.14 139.14 0 0 1 16.125-3.625 1.752 1.752 0 0 0 1-.75l-.25-.375a213.574 213.574 0 0 0-16 4c-.227-.322-.185-.656.125-1a3.821 3.821 0 0 1 1.875-1.375c3.611-.391 7.194-.932 10.75-1.625a16.82 16.82 0 0 0 3.125-1.25c.36-2.841.068-5.591-.875-8.25-.226-.301-.226-.634 0-1a167.263 167.263 0 0 1 15.125-10.75 118.122 118.122 0 0 1 12.875 20.5 97.607 97.607 0 0 1-7 7.375c2.769-1.759 5.227-3.967 7.375-6.625.167-.5.167-1 0-1.5a729.21 729.21 0 0 0-1.375-3.375 41.412 41.412 0 0 1 2-5.375 1588.225 1588.225 0 0 1 32.75-13.625 4.736 4.736 0 0 0 1.75-1.125zM325.375 167.375c-.96 2.129-1.96 4.254-3 6.375-.83.124-1.663.166-2.5.125v-2c4.15-8.806 7.9-17.806 11.25-27 .215-.271.465-.312.75-.125.47.296.97.546 1.5.75.67.579.627 1.121-.125 1.625a582.925 582.925 0 0 0-7.875 20.25z" fill="#fff"/><path fill-rule="evenodd" clip-rule="evenodd" d="M166.625 145.125a1.78 1.78 0 0 1 1.25.25 1.217 1.217 0 0 1-1 .25c-.21-.086-.293-.252-.25-.5zM161.375 144.875a8.689 8.689 0 0 0-1.75 1.75c-.356.383-.523.299-.5-.25.452-.245.786-.62 1-1.125a2.202 2.202 0 0 1 1.25-.375zM164.125 147.875h-.25c.188-.812.313-1.645.375-2.5.389.698.472 1.448.25 2.25a.567.567 0 0 1-.375.25zM272.125 126.625l.75.75c-1.39 1.06-2.39 2.435-3 4.125a588.752 588.752 0 0 1 4.625 18.375 63.578 63.578 0 0 0 2.25 6.75 6.378 6.378 0 0 0 1.625 1.375c6.992 3.332 13.992 6.665 21 10 .64.264 1.055.722 1.25 1.375v3.75a2.2 2.2 0 0 1 1.25.375l-2 .25c-.665.486-.75.944-.25 1.375a80.94 80.94 0 0 0 2.75-.625c3.463-.307 6.878-.682 10.25-1.125h1.25a25.478 25.478 0 0 0 4.75-.5c.333-.167.582-.417.75-.75l.5-.25v1.25c-.15.35-.4.6-.75.75-1.668-.041-3.335 0-5 .125a158.106 158.106 0 0 1-15.5 1.75 8.613 8.613 0 0 0-2.75.625c-.248.043-.415-.04-.5-.25a14.766 14.766 0 0 0 3.25-1.625c1.012-.991 1.512-2.199 1.5-3.625.112-1.232-.388-2.107-1.5-2.625A389.926 389.926 0 0 1 276 157.125a40.649 40.649 0 0 1-1.75-4.75 459.33 459.33 0 0 0-5-20.25 2.876 2.876 0 0 0-1.125-.875c-4.108-1.342-7.858-.717-11.25 1.875h-.25a11.645 11.645 0 0 1 4.5-2.875 26.212 26.212 0 0 1 7.75.375l.5-.5a21.752 21.752 0 0 0 2.75-3.5z" fill="#000"/><path fill-rule="evenodd" clip-rule="evenodd" d="M166.125 141.875c-.51.262-.843.678-1 1.25.41.742.909 1.408 1.5 2-.043.248.04.414.25.5l.75 2.75h-.75a6.777 6.777 0 0 0-.75-2.75 52.585 52.585 0 0 1-2-2.625c.489-.702 1.156-1.077 2-1.125zM159.125 146.375c-.023.549.144.633.5.25a2.906 2.906 0 0 0 1 2c-.167 0-.25.083-.25.25-.454-.566-.912-1.149-1.375-1.75-.185-.312-.143-.562.125-.75zM169.375 144.375c-.04.425.002.841.125 1.25 1.688 2.683 2.105 5.516 1.25 8.5a7.827 7.827 0 0 0-1.125 1.25 1.731 1.731 0 0 1-1 .25 17.76 17.76 0 0 0 2.125-3.25 18.988 18.988 0 0 0-2.125-7.75c.177-.226.427-.309.75-.25zM163.875 147.875h.25c-.382.461-.882.712-1.5.75v-.5a5.182 5.182 0 0 0 1.25-.25z" fill="#000"/><path fill-rule="evenodd" clip-rule="evenodd" d="M162.625 148.125v.5c-.421.379-.88.713-1.375 1a1.322 1.322 0 0 1-.875-.75c0-.167.083-.25.25-.25.609.379 1.15.296 1.625-.25-.047-.847-.005-1.68.125-2.5.246.732.329 1.482.25 2.25zM256.625 133.125h.25a18.322 18.322 0 0 0-3.875 5.5c-1.498 4.592-1.748 9.259-.75 14a48.023 48.023 0 0 0 4.125 9.5c-.225-.251-.39-.252-.5 0a38.454 38.454 0 0 1-4.125-9.25c-1.815-6.359-.898-12.276 2.75-17.75a4.914 4.914 0 0 1 2.125-2zM90.125 146.625v6h.75c-.267.234-.6.317-1 .25a39.198 39.198 0 0 1 .25-6.25z" fill="#000"/><path fill-rule="evenodd" clip-rule="evenodd" d="M90.125 146.625c.425 1.92.675 3.92.75 6h-.75v-6zM238.125 140.625a68.33 68.33 0 0 0-10.25 18.75c-.209-.086-.293-.252-.25-.5 2.129-6.427 5.296-12.261 9.5-17.5a1.212 1.212 0 0 0-1-.25h-.5c.086-.209.252-.293.5-.25.664.084 1.248-.082 1.75-.5.152.031.235.114.25.25zM163.625 153.125h1c-.064.603.186 1.02.75 1.25-.891.12-1.475-.297-1.75-1.25zM82.875 155.125a36.13 36.13 0 0 1 6 .25 25.27 25.27 0 0 1-5 .25c-.47.068-.803-.099-1-.5zM92.375 155.375a15.4 15.4 0 0 1 5.5 0 15.682 15.682 0 0 1-5.5 0z" fill="#000"/><path fill-rule="evenodd" clip-rule="evenodd" d="M82.875 155.125a39.293 39.293 0 0 1 6.25-.25c-.043.331.04.622.25.875a20.394 20.394 0 0 1-5.5-.125 25.27 25.27 0 0 0 5-.25 36.13 36.13 0 0 0-6-.25z" fill="#fff"/><path fill-rule="evenodd" clip-rule="evenodd" d="M169.625 155.375v1c.53.044 1.03-.04 1.5-.25 0 .167.083.25.25.25l-.75.5a1.372 1.372 0 0 1-1.25.125 4.98 4.98 0 0 0-.75-1.375c.365.017.698-.067 1-.25zM172.625 156.625c.943 2.659 1.235 5.409.875 8.25a16.82 16.82 0 0 1-3.125 1.25c-.177-.226-.427-.309-.75-.25a24.381 24.381 0 0 0 3.125-1.25c.215-2.561.09-5.103-.375-7.625.018-.191.101-.316.25-.375zM91.625 160.625v3h-.75a144.077 144.077 0 0 1-.25-5.75c.33-.043.622.041.875.25.124.829.166 1.663.125 2.5zM227.625 158.875c-.043.248.041.414.25.5a42.403 42.403 0 0 0-2.5 10.375c.003 2.046.669 3.837 2 5.375-.167 0-.25.083-.25.25a12.3 12.3 0 0 1-2.125-3.5 31.814 31.814 0 0 1 2.625-13z" fill="#000"/><path fill-rule="evenodd" clip-rule="evenodd" d="M172.125 156.125a916.925 916.925 0 0 1-.5 8.25 98.44 98.44 0 0 0-.125-7 .824.824 0 0 1-.375.5c.086-.496-.081-.829-.5-1l.75-.5c.223-.153.473-.236.75-.25z" fill="#000"/><path fill-rule="evenodd" clip-rule="evenodd" d="M171.625 164.375a.824.824 0 0 1-.375-.5 72.331 72.331 0 0 1-.125-6 .824.824 0 0 0 .375-.5 98.44 98.44 0 0 1 .125 7zM91.625 160.625a10.71 10.71 0 0 1 .25 3.25c-.4.067-.733-.016-1-.25h.75v-3zM325.625 167.875c-.21-.085-.293-.252-.25-.5a582.925 582.925 0 0 1 7.875-20.25c.752-.504.795-1.046.125-1.625a8.612 8.612 0 0 1-1.5-.75c-.285-.187-.535-.146-.75.125a321.434 321.434 0 0 1-11.25 27l-.5.25a620.541 620.541 0 0 0 10.875-26.5c.245-.487.537-.945.875-1.375a3.815 3.815 0 0 1 2.25.5c.527.218.862.593 1 1.125a891.21 891.21 0 0 1-8.75 22z" fill="#000"/><path fill-rule="evenodd" clip-rule="evenodd" d="M303.625 173.125c-.355.052-.69.177-1 .375.552.197 1.052.155 1.5-.125 2.027-.42 4.027-.837 6-1.25.397.285.73.66 1 1.125a4.59 4.59 0 0 0 1.5.125c-3.372.443-6.787.818-10.25 1.125a80.94 80.94 0 0 1-2.75.625c-.5-.431-.415-.889.25-1.375l2-.25a2.2 2.2 0 0 0-1.25-.375v-3.75c.198.277.322.61.375 1a4.6 4.6 0 0 1 .875-.5c.015.136.097.219.25.25l2.25-1.125c.5-.167 1-.167 1.5 0a16.504 16.504 0 0 1 3.25 2.625c-1.918.235-3.75.735-5.5 1.5z" fill="#fff"/><path fill-rule="evenodd" clip-rule="evenodd" d="M256.375 162.125c4.592 6.465 10.592 11.131 18 14a4.1 4.1 0 0 1-1.25.5.713.713 0 0 0-.25-.625c-7.282-2.659-12.95-7.284-17-13.875.11-.252.275-.251.5 0zM310.125 172.125c-1.973.413-3.973.83-6 1.25-.248.043-.415-.041-.5-.25a19.605 19.605 0 0 1 5.5-1.5 16.504 16.504 0 0 0-3.25-2.625c-.5-.167-1-.167-1.5 0l-2.25 1.125c-.153-.031-.235-.114-.25-.25 1.142-.657 2.31-1.323 3.5-2a11.71 11.71 0 0 1 4.75 4.25zM313.875 173.375a25.478 25.478 0 0 0 4.75-.5 17.993 17.993 0 0 0-4.75.5z" fill="#000"/><path fill-rule="evenodd" clip-rule="evenodd" d="M303.625 173.125c.085.209.252.293.5.25-.448.28-.948.322-1.5.125.31-.198.645-.323 1-.375z" fill="#000"/><path fill-rule="evenodd" clip-rule="evenodd" d="M319.125 173.875c-.3 1.369-.3 2.703 0 4v.75c-7.255.787-14.505 1.62-21.75 2.5a1.228 1.228 0 0 1-.625-.25 8.92 8.92 0 0 1-.875-4.5 8.613 8.613 0 0 1 2.75-.625 158.106 158.106 0 0 0 15.5-1.75 50.256 50.256 0 0 1 5-.125z" fill="#fff"/><path fill-rule="evenodd" clip-rule="evenodd" d="M325.375 167.375c-.043.248.04.415.25.5l-3.001 6.5a3.047 3.047 0 0 1-2.25 0c-.31.111-.56.277-.75.5-.48.882-.646 1.882-.499 3-.3-1.297-.3-2.631 0-4 .35-.15.6-.4.75-.75v.75c.837.041 1.67-.001 2.5-.125 1.04-2.121 2.04-4.246 3-6.375zM227.375 175.125a15.512 15.512 0 0 0 3.25 1.875c7.769 2.789 15.769 3.789 24 3a143.628 143.628 0 0 0 18.5-3.375 4.1 4.1 0 0 0 1.25-.5c1.897.02 3.815.062 5.75.125 1.195.215 2.36.507 3.5.875a3.796 3.796 0 0 0 1.75.75c2.063 1.792 3.355 4.042 3.875 6.75.28 3.04.07 6.04-.625 9v.5c-3.82 12.45-7.487 24.95-11 37.5a14.333 14.333 0 0 0-3.75.375c-.202.278-.367.57-.5.875-.225-.177-.31-.427-.25-.75h-8.25a2.244 2.244 0 0 1-1.625-.5 254.662 254.662 0 0 1-.5-29 38.24 38.24 0 0 1 .875-5.75c-.082-.25-.167-.5-.25-.75a4.933 4.933 0 0 0-2.125 2c-.375 1.469-.75 2.927-1.125 4.375a50.954 50.954 0 0 1-15.5 2.5 99.537 99.537 0 0 0-4.75.875v-.5c.277-.014.527-.097.75-.25.318-.144.319-.311 0-.5a2.277 2.277 0 0 0-1.25-.25 16.135 16.135 0 0 1-6.75-3.375c-4.032-4.189-6.658-9.147-7.875-14.875-.623-3.587.126-6.837 2.25-9.75.123-.323.164-.657.125-1 0-.167.083-.25.25-.25zM155.875 157.625c1 2.584 2.209 5.084 3.625 7.5.124.661.166 1.328.125 2 3.352-.309 6.685-.725 10-1.25.323-.059.573.024.75.25a128.471 128.471 0 0 1-10.75 1.625 3.821 3.821 0 0 0-1.875 1.375c-.31.344-.352.678-.125 1a213.574 213.574 0 0 1 16-4l.25.375a1.752 1.752 0 0 1-1 .75 139.14 139.14 0 0 0-16.125 3.625c-4.303 6.187-6.845 13.02-7.625 20.5a15.508 15.508 0 0 1 .001-4.25c1.295-7.756 4.586-14.506 9.875-20.25a3.137 3.137 0 0 0 0-1.75 39.743 39.743 0 0 0-3.625-5.625 67.101 67.101 0 0 0-1.751-.625h2c-.034-.448.05-.864.25-1.25z" fill="#000"/><path fill-rule="evenodd" clip-rule="evenodd" d="M294.125 181.375c-.62-.112-1.12.054-1.5.5.36 2.481.57 4.981.625 7.5.415 1.246.79 2.496 1.125 3.75h-1a12.589 12.589 0 0 0-4.375.75.562.562 0 0 0-.375-.25c.695-2.96.905-5.96.625-9-.52-2.708-1.812-4.958-3.875-6.75 3.225-.233 6.475-.566 9.75-1 .29 1.408.54 2.824.75 4.25a3.86 3.86 0 0 0-1.75.25z" fill="#fff"/><path fill-rule="evenodd" clip-rule="evenodd" d="M196.125 179.375h-.5a164.39 164.39 0 0 0-3.75-7.75l.25-.25a44.844 44.844 0 0 1 4 8z" fill="#000"/><path fill-rule="evenodd" clip-rule="evenodd" d="M330.375 189.875c-.032.767.05 1.517.25 2.25h-4a196.854 196.854 0 0 1-10-1l-.5.25a33.074 33.074 0 0 0 8.75 1c4.858-.144 9.275 1.148 13.25 3.875 3.578 3.361 5.66 7.486 6.25 12.375a125.804 125.804 0 0 1-.5 6.75 39.36 39.36 0 0 1-5.875 13.25 115.977 115.977 0 0 1-11.5 14 150.81 150.81 0 0 0-7.625-6.875 80.79 80.79 0 0 1-13.75-17.375 81.79 81.79 0 0 1-9-24.75c.118-.298.368-.465.75-.5l2.25-.375a482.673 482.673 0 0 0 15.5-.375c-6.52-.421-13.02-.254-19.5.5h-.25a30.326 30.326 0 0 1-1.5-11c.478.071.895-.012 1.25-.25a2402.459 2402.459 0 0 0 34.5-3.375l.375.375c.255 3.767.548 7.517.875 11.25z" fill="#fff"/><path fill-rule="evenodd" clip-rule="evenodd" d="M195.625 179.375h.5a71.228 71.228 0 0 1 5.25 16.25l-.5.5a139.355 139.355 0 0 0-5.25-16.75z" fill="#000"/><path fill-rule="evenodd" clip-rule="evenodd" d="M331.126 192.375a27.87 27.87 0 0 0-.25-5.25c-.083-1.509 0-3.009.25-4.5 6.392.349 9.185 3.682 8.375 10-.308.993-.6 1.993-.875 3a26.828 26.828 0 0 0-7.5-3.25z" fill="#fff"/><path fill-rule="evenodd" clip-rule="evenodd" d="M320.625 183.625c1.55-.284 2.132.3 1.75 1.75-1.843.656-2.428.073-1.75-1.75zM313.125 184.625c2.008-.331 2.508.377 1.5 2.125-.567.19-1.11.148-1.625-.125-.18-.69-.14-1.357.125-2zM294.125 181.375c.085.209.253.293.5.25-.355.238-.772.321-1.25.25a30.326 30.326 0 0 0 1.5 11l-.5.25a64.751 64.751 0 0 0-1.125-3.75 61.536 61.536 0 0 0-.625-7.5c.38-.446.88-.612 1.5-.5zM330.876 187.125a27.87 27.87 0 0 1 .25 5.25l-.501-.25a7.334 7.334 0 0 1-.25-2.25.562.562 0 0 0 .375-.25c.125-.829.168-1.663.126-2.5zM149.126 187.125a15.508 15.508 0 0 0-.001 4.25 91.213 91.213 0 0 1-.5 5.75c.151-1.28-.016-2.446-.5-3.5.244-2.213.578-4.38 1.001-6.5zM326.625 192.125c-.64-.075-1.222.008-1.75.25a33.074 33.074 0 0 1-8.75-1l.5-.25c3.358.422 6.693.755 10 1zM227.625 208.625c-.075.64.008 1.223.25 1.75a133.445 133.445 0 0 1 3 23.5c.019.313.186.521.5.625a.567.567 0 0 0-.25.375 40.47 40.47 0 0 0 .125 4.5c.352.32.727.57 1.125.75l-.5.5c-.316.254-.483.629-.5 1.125.247 2.291.372 4.582.375 6.875a17.003 17.003 0 0 1-2.375 2.125c.3 1.275.508 2.568.625 3.875a8.683 8.683 0 0 0 2.625 0c.006 1.343.131 2.678.375 4 .769.198 1.56.323 2.375.375a6.72 6.72 0 0 1 3 1.625c.817 1.235.484 2.028-1 2.375a38.637 38.637 0 0 1-15 2.75 56.402 56.402 0 0 1-1.25-5.875 2.106 2.106 0 0 1 .125-1c.277.385.652.55 1.125.5 1.312.4 2.604.818 3.875 1.25a22.711 22.711 0 0 0 3.625-.75 38.313 38.313 0 0 0-1.75-3.75 4.571 4.571 0 0 0 1-1.5 16.766 16.766 0 0 1-.25-3.75 89.243 89.243 0 0 1-9 2.375 1.62 1.62 0 0 0-.25 1.125c.043.248-.041.415-.25.5a2.285 2.285 0 0 1-.25-1.25 6.445 6.445 0 0 1-2.5-.25 140.954 140.954 0 0 0-3-7.25c.043-.248-.041-.414-.25-.5a29.364 29.364 0 0 0-2-5.75c0-.167-.083-.25-.25-.25a340.434 340.434 0 0 0-9.125-24c-.863-.689-1.238-.439-1.125.75.118.967.285 1.925.5 2.875-.036.538-.286.955-.75 1.25a1018.767 1018.767 0 0 0-26.75 14.375c-.333 0-.5-.167-.5-.5.567-.369 1.15-.744 1.75-1.125-4.844-2.058-7.761-5.683-8.75-10.875.295-.502.17-.585-.375-.25-.496-.642-.454-1.225.125-1.75a3.848 3.848 0 0 1-.25-1.75 26.35 26.35 0 0 1 .25-4.25c.39.414.64.914.75 1.5-.037.263.004.513.125.75a211.827 211.827 0 0 1 33.875-20.5l.5-.5c.162.076.329.159.5.25 5.245-2.94 10.828-4.065 16.75-3.375a5.233 5.233 0 0 1 2.625 1.875 53.393 53.393 0 0 1 6.375 14.25zM296.125 193.625a5.63 5.63 0 0 0-1-.75c6.48-.754 12.98-.921 19.5-.5-5.165.208-10.332.333-15.5.375l-2.25.375c-.382.035-.632.202-.75.5zM293.375 193.125l1.75.5a37.319 37.319 0 0 0-6.5.5v-.5c.155.028.28.111.375.25a12.589 12.589 0 0 1 4.375-.75z" fill="#000"/><path fill-rule="evenodd" clip-rule="evenodd" d="M295.125 193.625c.273.03.437.197.5.5 1.253 8.913 4.253 17.163 9 24.75a75.518 75.518 0 0 0 14 18.125 55.482 55.482 0 0 0 7 5.5c.377.209.502.501.375.875-29.663 34.26-64.37 62.052-104.125 83.375-.416.198-.833.28-1.25.25-15.496-16.618-28.163-35.16-38-55.625a194.607 194.607 0 0 1-12.5-34.125.979.979 0 0 1 .25-.5 34.502 34.502 0 0 0 3.5-1.875 1018.767 1018.767 0 0 1 26.75-14.375c.464-.295.714-.712.75-1.25a28.842 28.842 0 0 1-.5-2.875c-.113-1.189.262-1.439 1.125-.75a340.434 340.434 0 0 1 9.125 24 13.463 13.463 0 0 0-2.875 2.5c-6.46 8.153-8.127 17.238-5 27.25 4.396 11.347 12.688 16.683 24.875 16 9.688-.902 17.146-5.403 22.375-13.5 2.983-5.18 4.025-10.68 3.125-16.5-1.275-9.078-6.108-15.537-14.5-19.375a43.786 43.786 0 0 0-8.25-2.125 133.445 133.445 0 0 0-3-23.5v-1.5a157.69 157.69 0 0 0 12-3 99.537 99.537 0 0 1 4.75-.875 50.954 50.954 0 0 0 15.5-2.5c.375-1.448.75-2.906 1.125-4.375a4.933 4.933 0 0 1 2.125-2c.083.25.168.5.25.75a38.24 38.24 0 0 0-.875 5.75 254.662 254.662 0 0 0 .5 29 2.244 2.244 0 0 0 1.625.5 17.801 17.801 0 0 1 1.25 4.75 5.74 5.74 0 0 0 2 .5c1.94.739 3.358.156 4.25-1.75 1.163-.041 2.077.375 2.75 1.25a.613.613 0 0 1-.125.5 3.707 3.707 0 0 0-1.625-.5c.555.813 1.137 1.646 1.75 2.5l.25-.5a3.257 3.257 0 0 0-.75-1l.5-.25c.472.278.973.486 1.5.625.123.544.373 1.002.75 1.375.115-.619.365-1.119.75-1.5.65.355 1.275.771 1.875 1.25.18.403.137.778-.125 1.125a84.148 84.148 0 0 1-12 1.375h-2.25c.015-1.736.015-3.403 0-5a1.127 1.127 0 0 0-.375.5 44.81 44.81 0 0 0-.125 4.75c.03 1.073.53 1.739 1.5 2 4.747-.561 9.497-1.102 14.25-1.625.625-1.951.043-3.534-1.75-4.75a7.99 7.99 0 0 0-1.5-.875.713.713 0 0 1 .25-.625 2.19 2.19 0 0 0 1-.375c.475-.06.81-.31 1-.75a10.018 10.018 0 0 0-2.25-.375 16.256 16.256 0 0 1-.5-1.375c-.512-.291-1.012-.249-1.5.125-.273.445-.522.903-.75 1.375-.23.157-.48.24-.75.25h-.25c-.268-.234-.6-.317-1-.25a4.57 4.57 0 0 1 .5-2c.133-.305.298-.597.5-.875a14.333 14.333 0 0 1 3.75-.375c3.513-12.55 7.18-25.05 11-37.5a37.319 37.319 0 0 1 6.5-.5z" fill="#fff"/><path fill-rule="evenodd" clip-rule="evenodd" d="m319.624 174.875.001 3.5c3.412-.33 6.83-.538 10.25-.625.355 1.315.605 2.648.75 4 7.798.127 11.005 4.002 9.625 11.625a12.121 12.121 0 0 1-.875 2.75c3.06 3.057 4.892 6.724 5.5 11 .117.646-.047 1.146-.5 1.5-.59-4.889-2.672-9.014-6.25-12.375-3.975-2.727-8.392-4.019-13.25-3.875.528-.242 1.11-.325 1.75-.25h4l.501.25a26.828 26.828 0 0 1 7.5 3.25c.275-1.007.567-2.007.875-3 .81-6.318-1.983-9.651-8.375-10a20.366 20.366 0 0 0-.25 4.5c.042.837-.001 1.671-.126 2.5a.562.562 0 0 1-.375.25c-.327-3.733-.62-7.483-.875-11.25l-.375-.375a2402.459 2402.459 0 0 1-34.5 3.375c-.247.043-.415-.041-.5-.25a3.86 3.86 0 0 1 1.75-.25 75.81 75.81 0 0 0-.75-4.25c-3.275.434-6.525.767-9.75 1a3.796 3.796 0 0 1-1.75-.75 79.426 79.426 0 0 0 11.75-1c.085.21.252.293.5.25a8.92 8.92 0 0 0 .875 4.5c.18.14.39.223.625.25 7.245-.88 14.495-1.713 21.75-2.5v-.75c-.147-1.118.019-2.118.499-3z" fill="#000"/><path fill-rule="evenodd" clip-rule="evenodd" d="M63.375 201.625c.524.228 1.024.52 1.5.875a148.34 148.34 0 0 0 7.375 7.125c.12.237.162.487.125.75a51.888 51.888 0 0 0-7.75 3c-.971.351-1.971.601-3 .75l1.75-12.5z" fill="#fff"/><path fill-rule="evenodd" clip-rule="evenodd" d="M168.625 206.125c.059-.323-.024-.573-.25-.75a14.17 14.17 0 0 1 1.125-4.75 63.084 63.084 0 0 1-.875 5.5zM63.625 200.625a131.017 131.017 0 0 1 9.75 9.5 37.952 37.952 0 0 1-8.5 3.5c-.166 0-.25-.083-.25-.25a51.888 51.888 0 0 1 7.75-3 1.233 1.233 0 0 0-.125-.75 148.34 148.34 0 0 1-7.375-7.125 7.544 7.544 0 0 0-1.5-.875c-.243-.366-.16-.699.25-1zM292.126 203.875c1.535-.18 2.035.445 1.5 1.875-1.875.361-2.375-.264-1.5-1.875zM239.375 204.375c.44-.036.858.048 1.25.25.319.189.318.356 0 .5a6.78 6.78 0 0 0-1.25-.75zM148.125 193.625c.484 1.054.651 2.22.5 3.5v9.25a7.044 7.044 0 0 1 2.5.75c0 .167-.083.25-.25.25h-1a10.233 10.233 0 0 0-1.875-.75c-.186-4.338-.145-8.671.125-13zM239.875 205.375v.5a157.69 157.69 0 0 1-12 3v1.5c-.242-.527-.325-1.11-.25-1.75a169.66 169.66 0 0 1 12.25-3.25zM294.875 192.875h.25c.358.21.69.46 1 .75a81.79 81.79 0 0 0 9 24.75c0 .333-.167.5-.5.5-4.747-7.587-7.747-15.837-9-24.75-.063-.303-.227-.47-.5-.5l-1.75-.5h1l.5-.25zM149.875 207.375h1v.25c-.419.171-.586.504-.5 1a22.674 22.674 0 0 0-.25 4.75 36.207 36.207 0 0 1-.25-6z" fill="#000"/><path fill-rule="evenodd" clip-rule="evenodd" d="M168.375 205.375c.226.177.309.427.25.75a12.67 12.67 0 0 1-.125 2.5 5.37 5.37 0 0 0-1.25 1.5 934.427 934.427 0 0 0-.375 5.75 2.925 2.925 0 0 0-.75-1.5 8.267 8.267 0 0 1 .75-4.125.979.979 0 0 0-.25-.5c-5.35-.012-10.6-.72-15.75-2.125v-.25c.167 0 .25-.083.25-.25a70.276 70.276 0 0 0 15.5 1.875c1.13-.922 1.713-2.131 1.75-3.625zM344.875 207.125c.168.997.25 2.038.25 3.125a19.24 19.24 0 0 1-.5 4.875c.032-.219-.05-.386-.25-.5-.17.275-.335.525-.5.75.228-2.245.393-4.495.5-6.75.453-.354.617-.854.5-1.5zM63.625 200.625c-.41.301-.493.634-.25 1l-1.75 12.5a15.224 15.224 0 0 0 3-.75c0 .167.084.25.25.25a14.018 14.018 0 0 1-4 1.25A975.834 975.834 0 0 1 63 200.625c.244-.319.453-.319.625 0zM150.375 208.625a153.33 153.33 0 0 1 1 13.5 4.523 4.523 0 0 0-.5 1.75 116.56 116.56 0 0 1-.75-10.5c-.081-1.63.002-3.214.25-4.75zM297.125 219.125c1.73.169 2.065.878 1 2.125-1.013.371-1.513.038-1.5-1 .065-.447.232-.822.5-1.125z" fill="#000"/><path fill-rule="evenodd" clip-rule="evenodd" d="M166.375 222.375c.989 5.192 3.906 8.817 8.75 10.875-.6.381-1.183.756-1.75 1.125a83.545 83.545 0 0 0-9.5 5.625c-1.195.558-1.695.142-1.5-1.25.084-.881.209-1.756.375-2.625a406.918 406.918 0 0 0 3.625-13.75z" fill="#fff"/><path fill-rule="evenodd" clip-rule="evenodd" d="M151.375 222.125a819.636 819.636 0 0 0 1.75 14.75l-.25 1.25a.912.912 0 0 1-.375-.25 74.734 74.734 0 0 1-1.625-14 4.523 4.523 0 0 1 .5-1.75zM305.625 231.125c2.142-.074 2.475.635 1 2.125-1.505-.139-1.838-.847-1-2.125z" fill="#000"/><path fill-rule="evenodd" clip-rule="evenodd" d="M265.625 232.375h7.25c-.168.917-.332 1.833-.5 2.75-.45.495-.868 1.037-1.25 1.625a4.443 4.443 0 0 1-1.75.375c-.877.126-1.668-.04-2.375-.5a11.066 11.066 0 0 1-1.375-4.25z" fill="#fff"/><path fill-rule="evenodd" clip-rule="evenodd" d="M265.625 232.375v-.25h7.5c-.06.323.025.573.25.75a4.57 4.57 0 0 0-.5 2c.4-.067.732.016 1 .25h-1.5c.168-.917.332-1.833.5-2.75h-7.25z" fill="#000"/><path fill-rule="evenodd" clip-rule="evenodd" d="M264.875 232.125h.75v.25c.168 1.504.625 2.92 1.375 4.25.707.46 1.498.626 2.375.5-.355.238-.773.321-1.25.25a5.74 5.74 0 0 1-2-.5 17.801 17.801 0 0 0-1.25-4.75z" fill="#000"/><path fill-rule="evenodd" clip-rule="evenodd" d="M231.125 234.875c10.519 1.226 17.645 6.809 21.375 16.75a8.727 8.727 0 0 1 .625 3.5c1.15 10.6-2.6 18.975-11.25 25.125-5.558 3.237-11.558 4.778-18 4.625-6.201-.33-11.326-2.83-15.375-7.5-5.651-7.287-7.401-15.453-5.25-24.5 1.63-5.01 4.338-9.343 8.125-13a29.364 29.364 0 0 1 2 5.75 12.77 12.77 0 0 0-2.875 3.75 32.675 32.675 0 0 0-3.375 11.75c.586 8.14 4.586 13.848 12 17.125.988.287 1.988.495 3 .625 7.295 1.263 13.795-.528 19.5-5.375a22.329 22.329 0 0 0 5.5-9.125c2.085-9.703-1.082-17.162-9.5-22.375a21.93 21.93 0 0 0-5.25-1.875 4.316 4.316 0 0 1-1.125-.75 40.47 40.47 0 0 1-.125-4.5zM279.875 235.125a10.055 10.055 0 0 0-3 .25 6.587 6.587 0 0 0-1.25.5c-.702.119-1.202-.131-1.5-.75.27-.01.52-.093.75-.25.228-.472.477-.93.75-1.375.488-.374.988-.416 1.5-.125.147.47.315.929.5 1.375.798.045 1.548.17 2.25.375z" fill="#fff"/><path fill-rule="evenodd" clip-rule="evenodd" d="M279.875 235.125c-.19.44-.525.69-1 .75-.8.134-1.465-.033-2-.5a10.055 10.055 0 0 1 3-.25zM163.125 242.375a5.182 5.182 0 0 1 1.25-.25 1.743 1.743 0 0 1-.5 1c-.403.394-.903.56-1.5.5a6.236 6.236 0 0 0-1.75.125 34.278 34.278 0 0 0-.125 1.875 1.744 1.744 0 0 1-.625.875 2340.77 2340.77 0 0 0-31.5 26.25 21.117 21.117 0 0 1-5.25 3.125 4.162 4.162 0 0 0-2 .25 84.65 84.65 0 0 0-4.125.75c-.344.045-.552.213-.625.5h-.5c-.323-.165-.698-.247-1.125-.25-9.974 1.42-19.932 2.96-29.875 4.625-5.17 1.018-6.378-.772-3.625-5.375A95.036 95.036 0 0 1 96.625 259a174.918 174.918 0 0 1 23.75-17.5c10.386-6.11 21.22-7.11 32.5-3a55.384 55.384 0 0 1 7.25 4.75 12.092 12.092 0 0 0 3-.875z" fill="#000"/><path fill-rule="evenodd" clip-rule="evenodd" d="M276.875 235.375c.535.467 1.2.634 2 .5a2.19 2.19 0 0 1-1 .375.713.713 0 0 0-.25.625 2.901 2.901 0 0 0-2-1 6.587 6.587 0 0 1 1.25-.5zM272.375 235.125v.5c-.892 1.906-2.31 2.489-4.25 1.75.477.071.895-.012 1.25-.25a4.443 4.443 0 0 0 1.75-.375c.382-.588.8-1.13 1.25-1.625zM275.125 236.875c1.01.418 2.01.835 3 1.25-.385.381-.635.881-.75 1.5a2.739 2.739 0 0 1-.75-1.375 5.917 5.917 0 0 1-1.5-.625l-.5.25c.313.283.563.616.75 1l-.25.5a129.291 129.291 0 0 1-1.75-2.5 3.707 3.707 0 0 1 1.625.5.613.613 0 0 0 .125-.5zM165.875 218.625a3.848 3.848 0 0 0 .25 1.75c-.579.525-.621 1.108-.125 1.75.545-.335.67-.252.375.25a406.918 406.918 0 0 1-3.625 13.75 28.297 28.297 0 0 0-.375 2.625c-.195 1.392.305 1.808 1.5 1.25a83.545 83.545 0 0 1 9.5-5.625c0 .333.167.5.5.5a34.502 34.502 0 0 1-3.5 1.875.979.979 0 0 0-.25.5 194.607 194.607 0 0 0 12.5 34.125c.113.56.114 1.06 0 1.5a180.905 180.905 0 0 1-13-35.5 55.907 55.907 0 0 0-6 4c-.18.263-.43.429-.75.5-.564-.225-.939-.642-1.125-1.25-.167-1-.167-2 0-3a258.246 258.246 0 0 0 4.125-19z" fill="#000"/><path fill-rule="evenodd" clip-rule="evenodd" d="M182.625 272.875c9.501 20.208 21.918 38.415 37.25 54.625a.983.983 0 0 1-.25.5c-6.28 3.16-12.572 6.285-18.875 9.375-.1-.058-.141-.14-.125-.25a77.186 77.186 0 0 0 4.25-10.25c3.193-1.8 4.402-4.467 3.625-8-.78-1.117-1.822-1.825-3.125-2.125a21.628 21.628 0 0 0-6.25.375 103.051 103.051 0 0 0-19.75 6 84.509 84.509 0 0 0-21 11.125 35.2 35.2 0 0 0-2.125 2.125c-1.325 2.455-.7 4.123 1.875 5a37.947 37.947 0 0 1-4.25 6 60.645 60.645 0 0 1-13.125-10.5c-7.625-8.495-13.541-18.078-17.75-28.75-1.555-4.25-3.055-8.5-4.5-12.75a66.877 66.877 0 0 1-2.125-18c.073-.287.281-.455.625-.5a84.65 84.65 0 0 1 4.125-.75 3.24 3.24 0 0 1 1.25.125c.73 2.355 2.313 3.647 4.75 3.875a17.55 17.55 0 0 0 5.5-1.125 62.47 62.47 0 0 0 14-9.25 721.963 721.963 0 0 1 17.125-14.875c1.787-2.078 2.579-4.495 2.375-7.25a28.3 28.3 0 0 0-2.25-4.5c.275-.276.442-.609.5-1-.35-.15-.6-.4-.75-.75a55.907 55.907 0 0 1 6-4 180.905 180.905 0 0 0 13 35.5z" fill="#fff"/><path fill-rule="evenodd" clip-rule="evenodd" d="M267.875 241.875a7.717 7.717 0 0 1-2.75.25 44.81 44.81 0 0 1 .125-4.75c.078-.202.203-.369.375-.5.015 1.597.015 3.264 0 5h2.25zM267.625 239.125h1.25v1.5h-1.5a3.03 3.03 0 0 1 .25-1.5z" fill="#000"/><path fill-rule="evenodd" clip-rule="evenodd" d="M231.875 240.625c8.011 2.276 13.054 7.443 15.126 15.5a39.626 39.626 0 0 1-.125 7.5c-2.962 8.993-9.212 14.035-18.75 15.125a20.159 20.159 0 0 1-5-.125c-6.983-1.525-11.775-5.608-14.375-12.25-1.321-4.775-.987-9.44 1-14a51.72 51.72 0 0 1 3.25-6 .713.713 0 0 1 .624-.25 140.954 140.954 0 0 1 3 7.25c.817.248 1.65.33 2.5.25-.034.448.05.865.25 1.25a44.79 44.79 0 0 1 1.75 5c.312 1.98.729 3.938 1.25 5.875a38.637 38.637 0 0 0 15-2.75c1.484-.347 1.817-1.14 1-2.375a6.72 6.72 0 0 0-3-1.625 12.757 12.757 0 0 1-2.375-.375 22.564 22.564 0 0 1-.375-4 8.683 8.683 0 0 1-2.625 0 27.68 27.68 0 0 0-.625-3.875 17.003 17.003 0 0 0 2.375-2.125 64.876 64.876 0 0 0-.375-6.875c.017-.496.184-.871.5-1.125z" fill="#fff"/><path fill-rule="evenodd" clip-rule="evenodd" d="M163.625 241.375c.15.35.4.6.75.75a5.182 5.182 0 0 0-1.25.25l-.25-.5c.32-.071.57-.237.75-.5zM272.375 235.125h1.75c.298.619.798.869 1.5.75a2.901 2.901 0 0 1 2 1 7.99 7.99 0 0 1 1.5.875c1.793 1.216 2.375 2.799 1.75 4.75-4.753.523-9.503 1.064-14.25 1.625-.97-.261-1.47-.927-1.5-2a7.717 7.717 0 0 0 2.75-.25 84.148 84.148 0 0 0 12-1.375c.262-.347.305-.722.125-1.125-.6-.479-1.225-.895-1.875-1.25-.99-.415-1.99-.832-3-1.25-.673-.875-1.587-1.291-2.75-1.25v-.5zM317.125 244.125h-1.25c-1.05-.991-.843-1.658.625-2 1.037-.012 1.37.488 1 1.5-.18.136-.305.303-.375.5z" fill="#000"/><path fill-rule="evenodd" clip-rule="evenodd" d="M162.375 243.625c2.02 1.114 3.103 2.864 3.25 5.25a10.443 10.443 0 0 1-1.625 4.25L160.125 257a536.938 536.938 0 0 0-15 12.75 56.662 56.662 0 0 1-13.5 8.5c-2.129.827-4.296.995-6.5.5a6.218 6.218 0 0 1-2-2.875 21.117 21.117 0 0 0 5.25-3.125 2340.77 2340.77 0 0 1 31.5-26.25c.3-.226.509-.517.625-.875.027-.658.068-1.283.125-1.875a6.236 6.236 0 0 1 1.75-.125z" fill="#fff"/><path fill-rule="evenodd" clip-rule="evenodd" d="M175.625 242.875c.796-.12 1.505.046 2.125.5a1.06 1.06 0 0 1 0 1c-1.821.966-2.53.466-2.125-1.5zM317.125 244.125h-1.25c.417.667.832.667 1.25 0zM163.875 243.125a28.3 28.3 0 0 1 2.25 4.5l-.5 1.25c-.147-2.386-1.23-4.136-3.25-5.25.597.06 1.097-.106 1.5-.5zM230.875 233.875c2.81.438 5.56 1.146 8.25 2.125 8.392 3.838 13.225 10.297 14.5 19.375.04.425-.002.843-.125 1.25a4.53 4.53 0 0 0-.375-1.5 8.727 8.727 0 0 0-.625-3.5c-3.73-9.941-10.856-15.524-21.375-16.75a.567.567 0 0 1 .25-.375c-.314-.104-.481-.312-.5-.625z" fill="#000"/><path fill-rule="evenodd" clip-rule="evenodd" d="M232.375 240.125a21.93 21.93 0 0 1 5.25 1.875c8.418 5.213 11.585 12.672 9.5 22.375-.226-.177-.309-.428-.249-.75.279-2.487.32-4.987.125-7.5-2.072-8.057-7.115-13.224-15.126-15.5l.5-.5z" fill="#000"/><path fill-rule="evenodd" clip-rule="evenodd" d="M222.375 259.375a4.748 4.748 0 0 1-1.625-2 9.24 9.24 0 0 0-1.125-3 1.62 1.62 0 0 1 .25-1.125 89.243 89.243 0 0 0 9-2.375c-.057 1.26.026 2.51.25 3.75a4.571 4.571 0 0 1-1 1.5 38.313 38.313 0 0 1 1.75 3.75 22.711 22.711 0 0 1-3.625.75c-1.271-.432-2.563-.85-3.875-1.25z" fill="#fff"/><path fill-rule="evenodd" clip-rule="evenodd" d="M213.375 245.625c.209.086.293.252.25.5a.713.713 0 0 0-.624.25 51.72 51.72 0 0 0-3.25 6c-1.987 4.56-2.321 9.225-1 14 2.6 6.642 7.392 10.725 14.375 12.25-.267.233-.601.318-1.001.25a19.767 19.767 0 0 1-3-.625c-7.414-3.277-11.414-8.985-12-17.125a32.675 32.675 0 0 1 3.375-11.75 12.77 12.77 0 0 1 2.875-3.75zM182.625 257.125c1.519.285 1.853 1.075 1 2.375-1.34.285-1.882-.255-1.625-1.625.261-.218.469-.468.625-.75zM219.625 254.375c.54.91.916 1.91 1.125 3 .37.832.911 1.498 1.625 2-.473.05-.848-.115-1.125-.5a2.106 2.106 0 0 0-.125 1 44.79 44.79 0 0 0-1.75-5c.209-.085.293-.252.25-.5zM166.125 247.625c.204 2.755-.588 5.172-2.375 7.25a721.963 721.963 0 0 0-17.125 14.875 62.47 62.47 0 0 1-14 9.25 17.55 17.55 0 0 1-5.5 1.125c-2.437-.228-4.02-1.52-4.75-3.875a3.24 3.24 0 0 0-1.25-.125 4.162 4.162 0 0 1 2-.25 6.218 6.218 0 0 0 2 2.875c2.204.495 4.371.327 6.5-.5a56.662 56.662 0 0 0 13.5-8.5 536.938 536.938 0 0 1 15-12.75l3.875-3.875a10.443 10.443 0 0 0 1.625-4.25l.5-1.25z" fill="#000"/><path fill-rule="evenodd" clip-rule="evenodd" d="M246.876 263.625c-.06.322.023.573.249.75a22.329 22.329 0 0 1-5.5 9.125c-5.705 4.847-12.205 6.638-19.5 5.375.4.068.734-.017 1.001-.25 1.659.25 3.326.29 5 .125 9.538-1.09 15.788-6.132 18.75-15.125z" fill="#000"/><path fill-rule="evenodd" clip-rule="evenodd" d="M211.125 239.625c.167 0 .25.083.25.25-3.787 3.657-6.495 7.99-8.125 13-2.151 9.047-.401 17.213 5.25 24.5 4.049 4.67 9.174 7.17 15.375 7.5 1.417.168 2.833.332 4.25.5-12.187.683-20.479-4.653-24.875-16-3.127-10.012-1.46-19.097 5-27.25a13.463 13.463 0 0 1 2.875-2.5z" fill="#000"/><path fill-rule="evenodd" clip-rule="evenodd" d="M253.125 255.125c.203.447.328.947.375 1.5.123-.407.165-.825.125-1.25.9 5.82-.142 11.32-3.125 16.5-5.229 8.097-12.687 12.598-22.375 13.5-1.417-.168-2.833-.332-4.25-.5 6.442.153 12.442-1.388 18-4.625 8.65-6.15 12.4-14.525 11.25-25.125zM121.625 284.375c1.168-.002 1.627.58 1.375 1.75-.741.692-1.408.608-2-.25a.624.624 0 0 1 0-.75c.261-.217.47-.467.625-.75zM355.125 293.875c.357.095.565.345.625.75.222 1.587.43 3.17.625 4.75a.77.77 0 0 1-.75.25 45.661 45.661 0 0 1-.5-5.75zM126.875 298.375c1.002-.203 1.669.173 2 1.125-.855 1.425-1.73 1.467-2.625.125.014-.485.223-.9.625-1.25zM348.625 302.375c1.96-.33 3.96-.33 6 0a18.583 18.583 0 0 1-6 0zM357.875 302.125c1.753-.043 3.503 0 5.25.125-.978.262-1.977.388-3 .375-.853-.005-1.603-.17-2.25-.5zM355.875 304.625c.27.01.52.093.75.25a78.69 78.69 0 0 1 .75 5.5h-1c-.115-1.923-.282-3.84-.5-5.75zM133.625 311.125c2.178.33 2.303 1.08.375 2.25-1.32-.58-1.445-1.33-.375-2.25z" fill="#000"/><path fill-rule="evenodd" clip-rule="evenodd" d="M336.125 316.625c1.683.752 2.1 1.918 1.25 3.5a3.964 3.964 0 0 1-2 1.25c-1.607-.56-2.483-1.643-2.625-3.25l1.375-1.375a8.129 8.129 0 0 1 2-.125z" fill="#fff"/><path fill-rule="evenodd" clip-rule="evenodd" d="M204.875 326.875c.148-.658.231-1.322.25-2 .34.282.673.282 1 0 1.727-1.8 2.185-3.882 1.375-6.25a3.512 3.512 0 0 0-1.625-1.125 25.89 25.89 0 0 0-5.75.125c-.589.04-1.173 0-1.75-.125.309-.058.559-.183.75-.375a21.628 21.628 0 0 1 6.25-.375c1.303.3 2.345 1.008 3.125 2.125.777 3.533-.432 6.2-3.625 8z" fill="#000"/><path fill-rule="evenodd" clip-rule="evenodd" d="M205.125 324.875c.002-1.285-.498-2.327-1.5-3.125a451.854 451.854 0 0 0-42 15 36.92 36.92 0 0 0-2.75 4.125c-2.999-.96-3.499-2.667-1.5-5.125a98.595 98.595 0 0 1 22.5-12.375 107.901 107.901 0 0 1 20.25-5.75 25.89 25.89 0 0 1 5.75-.125c.65.22 1.192.595 1.625 1.125.81 2.368.352 4.45-1.375 6.25-.327.282-.66.282-1 0z" fill="#fff"/><path fill-rule="evenodd" clip-rule="evenodd" d="M344.625 215.125a35.39 35.39 0 0 1-5.125 12.75c-1.418 2-2.832 4-4.25 6-37.083 45.31-82.123 80.142-135.125 104.5-.024-.512.142-.93.5-1.25-.016.11.025.192.125.25 6.303-3.09 12.595-6.215 18.875-9.375a.983.983 0 0 0 .25-.5c-15.332-16.21-27.749-34.417-37.25-54.625.114-.44.113-.94 0-1.5 9.837 20.465 22.504 39.007 38 55.625.417.03.834-.052 1.25-.25 39.755-21.323 74.462-49.115 104.125-83.375.127-.374.002-.666-.375-.875a55.482 55.482 0 0 1-7-5.5 75.518 75.518 0 0 1-14-18.125c.333 0 .5-.167.5-.5a80.79 80.79 0 0 0 13.75 17.375 150.81 150.81 0 0 1 7.625 6.875c4.195-4.364 8.03-9.03 11.5-14a39.36 39.36 0 0 0 5.875-13.25c.165-.225.33-.475.5-.75.2.114.282.281.25.5z" fill="#000"/><path fill-rule="evenodd" clip-rule="evenodd" d="M212.125 302.875c2.098.65 2.222 1.482.375 2.5-.68-.097-1.139-.473-1.375-1.125.367-.445.7-.903 1-1.375zM199.375 286.875c1.248-.043 1.707.54 1.375 1.75-.583.668-1.167.668-1.75 0-.208-.668-.083-1.25.375-1.75zM189.875 271.375c.847.055 1.347.512 1.5 1.375-.927 1.212-1.677 1.13-2.25-.25.204-.41.454-.785.75-1.125zM337.875 320.625c-.333 0-.5-.167-.5-.5.85-1.582.433-2.748-1.25-3.5l-2-.5c2.303-.512 3.803.405 4.5 2.75a2.782 2.782 0 0 1-.75 1.75zM222.625 318.625c1.846.013 2.179.722 1 2.125-.959.25-1.459-.125-1.5-1.125.076-.403.243-.738.5-1z" fill="#000"/><path fill-rule="evenodd" clip-rule="evenodd" d="m334.125 316.125 2 .5c-.673-.04-1.337 0-2 .125l-1.375 1.375c.142 1.607 1.018 2.69 2.625 3.25a3.964 3.964 0 0 0 2-1.25c0 .333.167.5.5.5-2.267 2.205-4.143 1.872-5.625-1-.358-1.705.268-2.87 1.875-3.5zM199.125 317.125a1.388 1.388 0 0 1-.75.375 6.233 6.233 0 0 0 1.75.125 107.901 107.901 0 0 0-20.25 5.75c-.086-.21-.252-.293-.5-.25a103.051 103.051 0 0 1 19.75-6zM205.125 324.875a10.402 10.402 0 0 1-.25 2 77.186 77.186 0 0 1-4.25 10.25c-.358.32-.524.738-.5 1.25a34.491 34.491 0 0 0-3.375 5c-11.887 15.967-27.845 24.508-47.875 25.625-3.005.142-6.005.06-9-.25a18.372 18.372 0 0 1-5-1.25 9.624 9.624 0 0 1-2-2.25 9.151 9.151 0 0 1 1.75-2.25 38.041 38.041 0 0 0 10-6 78.165 78.165 0 0 0 8.25-8.375c.258-.47.592-.887 1-1.25a37.947 37.947 0 0 0 4.25-6c.42.052.67-.112.75-.5a36.92 36.92 0 0 1 2.75-4.125 451.854 451.854 0 0 1 42-15c1.002.798 1.502 1.84 1.5 3.125zM141.625 325.125c1.55.275 1.841 1.025.875 2.25-.994.47-1.535.138-1.625-1 .148-.48.398-.898.75-1.25z" fill="#000"/><path fill-rule="evenodd" clip-rule="evenodd" d="M179.375 323.125c.248-.043.414.04.5.25a98.595 98.595 0 0 0-22.5 12.375c-1.999 2.458-1.499 4.165 1.5 5.125-.08.388-.33.552-.75.5-2.575-.877-3.2-2.545-1.875-5a35.2 35.2 0 0 1 2.125-2.125 84.509 84.509 0 0 1 21-11.125zM115.875 277.375h.5a66.877 66.877 0 0 0 2.125 18c1.445 4.25 2.945 8.5 4.5 12.75 4.209 10.672 10.125 20.255 17.75 28.75a60.645 60.645 0 0 0 13.125 10.5c-.408.363-.742.78-1 1.25-.105-.603-.438-1.06-1-1.375a33.316 33.316 0 0 0-2.375-1.375c-3.707 2.187-7.498 2.313-11.375.375a32.286 32.286 0 0 0-3.25-2c-17.557-15.158-26.432-34.365-26.625-57.625 1.124-3.793 3.499-6.5 7.125-8.125.384-.278.551-.652.5-1.125z" fill="#000"/><path fill-rule="evenodd" clip-rule="evenodd" d="M114.875 279.375a.712.712 0 0 1 .625.25c.204 3.858.621 7.69 1.25 11.5 3.192 12.83 8.275 24.83 15.25 36a78.143 78.143 0 0 0 16.75 18c.155.237.113.445-.125.625-3.407 1.81-6.824 1.81-10.25 0a41.013 41.013 0 0 1-7.875-6.375c-13.268-13.877-20.56-30.462-21.875-49.75-.094-2.1.447-4.015 1.625-5.75a23.651 23.651 0 0 1 4.625-4.5z" fill="#fff"/><path fill-rule="evenodd" clip-rule="evenodd" d="M150.125 338.875c1.497-.13 1.997.495 1.5 1.875-1.664.455-2.164-.17-1.5-1.875z" fill="#000"/><path d="M101.875 290.125c1.422.06 2.839.185 4.25.375 1.523 16.245 6.814 31.12 15.875 44.625a127.282 127.282 0 0 0 7.875 9.125 43.738 43.738 0 0 1-2.625 8.375c-2.948 3.953-6.906 5.87-11.875 5.75a21.026 21.026 0 0 1-5.75-.75c-.255-.125-.297-.293-.125-.5 3.027-1.572 4.361-4.072 4-7.5-1.592-3.56-3.967-4.185-7.125-1.875a49.518 49.518 0 0 0-6.625 7.875c-5.385 6.255-12.176 9.837-20.375 10.75-.955.168-1.955.25-3 .25a18.809 18.809 0 0 1-4.75-.5 18.694 18.694 0 0 1 2.25-1.75c2.654-2.142 4.112-4.892 4.375-8.25l-.875-.875a25.08 25.08 0 0 0-9 1 206.826 206.826 0 0 0-30.75 13c-.284.188-.534.145-.75-.125l29.625-36.75c.342-.373.384-.748.125-1.125a8.512 8.512 0 0 0-2-.375c-2.223.38-4.39.962-6.5 1.75l-.25-.375c3.073-6.49 7.656-11.658 13.75-15.5a58.36 58.36 0 0 1 13-6.25c1.145-.86 1.52-1.985 1.125-3.375A4.09 4.09 0 0 0 84.125 306a36.411 36.411 0 0 0-12.75 1.875c6.929-11.302 17.095-17.22 30.5-17.75z" fill="#000"/></svg>