<svg width="400" height="401" fill="none" xmlns="http://www.w3.org/2000/svg"><path fill-rule="evenodd" clip-rule="evenodd" d="M226.375 31.875c1.277.317 2.236 1.067 2.875 2.25a20.238 20.238 0 0 1 1.75 6 152.3 152.3 0 0 1 1.75 18.25 342.472 342.472 0 0 0 7.625 4.375 72.593 72.593 0 0 1 11.125 9.125c3.392 4.514 2.35 7.472-3.125 8.875a63.624 63.624 0 0 1-17.25 1.875c.81 4.558 1.518 9.141 2.125 13.75a41.954 41.954 0 0 1-.25 8.75c-.524 2.365-1.982 3.406-4.375 3.125a17.27 17.27 0 0 1-4.25-2.25 64.535 64.535 0 0 1-11-11.375 195.926 195.926 0 0 1-5-6.375c-3.751.208-7.501.5-11.25.875a9.59 9.59 0 0 0-3.75.5c-3.501.042-7.001 0-10.5-.125a24.095 24.095 0 0 1-5.25-1.25c-1.983-1.591-2.275-3.466-.875-5.625a46.05 46.05 0 0 1 9.625-8.375 227.836 227.836 0 0 1 8.5-5.375l-.009-.138c-.038-.313-.202-.558-.491-.737A91.925 91.925 0 0 1 180.5 56.375a15.695 15.695 0 0 1-1.375-2l-.268-.362c-2.648-3.704-1.642-6.124 3.018-7.263a61.046 61.046 0 0 1 24 1.75c.5.167 1 .167 1.5 0a86.737 86.737 0 0 1 14.5-14.75 17.692 17.692 0 0 1 4.5-1.875zm2.125 3.75c-.791-2.31-2.25-2.85-4.375-1.625a32.376 32.376 0 0 0-4.5 3 95.032 95.032 0 0 0-11.75 12.875l-.625.25c-8.744-2.674-17.619-3.299-26.625-1.875a3.863 3.863 0 0 0-1.875 1.625c-.151 1.585.242 3.002 1.18 4.252l.195.248.86 1.001a75.783 75.783 0 0 0 14.765 12.999c.07.478-.139.811-.625 1a160.878 160.878 0 0 0-14 9.875 24.028 24.028 0 0 0-3.875 4.375c-.872 2.215-.163 3.674 2.125 4.375 2.642.491 5.308.7 8 .625 6.721-.397 13.429-.98 20.125-1.75l1.625.25a103.876 103.876 0 0 0 4.564 5.932l.686.818 1.079 1.295c2.544 3 5.268 5.86 8.171 8.58a15.859 15.859 0 0 0 5.875 3.375c1.297-.048 2.047-.714 2.25-2 .432-2.75.473-5.5.125-8.25a13.398 13.398 0 0 0-.5-4 282.39 282.39 0 0 0-2-11.5 80.465 80.465 0 0 0 17.75-1.625 13.685 13.685 0 0 0 4.5-2c.62-1.006.662-2.047.125-3.125A20.61 20.61 0 0 0 246.625 69a94.959 94.959 0 0 0-15.125-9.625 878.385 878.385 0 0 0-.75-11 54.376 54.376 0 0 0-2.25-12.75zM184.375 137.625c-.272.404-.689.612-1.25.625a.567.567 0 0 1 .25.375 7.134 7.134 0 0 0-2.75-1 16.798 16.798 0 0 0-.125 5 6.13 6.13 0 0 0 2.375.25c-.785.205-1.619.33-2.5.375a1.76 1.76 0 0 0-.5.625c-.494-.204-.744-.579-.75-1.125.236-1.875.361-3.75.375-5.625l-3.25-3.25a136.755 136.755 0 0 1-10.75-16.75 46.347 46.347 0 0 1-10.125 3.5 685.486 685.486 0 0 0 3.625 18.5 431.676 431.676 0 0 1 1.875 11.75 594.909 594.909 0 0 1-2.875 19.25 191.18 191.18 0 0 0-1.125 11.5h-.25c.016-.11-.025-.193-.125-.25-.37 1.326-.662 1.326-.875 0a167.33 167.33 0 0 1 3.125-23 34.37 34.37 0 0 0 0-15.25 486.304 486.304 0 0 0-4.25-21.5 9.386 9.386 0 0 1-2.75-5.25 5.115 5.115 0 0 1 0-2.25 27.98 27.98 0 0 1 1.875-1.5 2.837 2.837 0 0 0 1.25-.5 38.482 38.482 0 0 1 7-2.375c.478-.102.728-.394.75-.875a116.2 116.2 0 0 1-5.5-16.75l.125-.75a29.17 29.17 0 0 0 2.75-2.75c.252-.381.377-.798.375-1.25a29.09 29.09 0 0 0-3.25 1.625.625.625 0 0 1-.75 0A14.026 14.026 0 0 1 155 85.625l-.75-.75a32.175 32.175 0 0 0-.125 4 2.108 2.108 0 0 1-1-.125 5.523 5.523 0 0 0-1.75-2.375 4.06 4.06 0 0 0 0 2.5v1h-.75a7.09 7.09 0 0 1-1.875-2.5c-.316-.527-.774-.777-1.375-.75a2.525 2.525 0 0 0 .375 1.5 42.43 42.43 0 0 0 3.5 4.25 161.321 161.321 0 0 1 2.875 18 6.236 6.236 0 0 1-.125 1.75.567.567 0 0 0-.375-.25 306.881 306.881 0 0 0-3.125-17.75 3.84 3.84 0 0 0-.75-1.5 18.182 18.182 0 0 1-3.75-5c-.524-1.493-.024-2.243 1.5-2.25a2.273 2.273 0 0 1 1.625.5 4.925 4.925 0 0 0 1.25-1.375 5.731 5.731 0 0 1 2 .25c.767-1.842 1.809-2.05 3.125-.625a18.52 18.52 0 0 1 1.375 3.125c.96-.1 1.877-.433 2.75-1 1.751-.331 2.376.377 1.875 2.125a10.71 10.71 0 0 1-2.875 3.25c-.285.48-.327.98-.125 1.5a208.606 208.606 0 0 0 4.5 15.25c.517.869 1.309 1.244 2.375 1.125.385.395.677.853.875 1.375.232 1.371.44 2.746.625 4.125a7.777 7.777 0 0 0-.375 2.375A91.174 91.174 0 0 0 179.375 136a16.18 16.18 0 0 0 4.125 1.875c.314-.037.606-.121.875-.25z" fill="#000"/><path fill-rule="evenodd" clip-rule="evenodd" d="M162.625 110.625a6.233 6.233 0 0 1 1.75.125c.3.226.509.517.625.875.179.909.304 1.826.375 2.75.053.628-.114 1.169-.5 1.625a47.079 47.079 0 0 1-10 3.375 3.009 3.009 0 0 1-1.125-.25c-1.052-1.528-1.511-3.195-1.375-5a61.982 61.982 0 0 1 10.25-3.5zM154.875 112.125a4.263 4.263 0 0 1-.75-1.75 161.321 161.321 0 0 0-2.875-18 42.43 42.43 0 0 1-3.5-4.25 2.525 2.525 0 0 1-.375-1.5c.601-.027 1.059.223 1.375.75a7.09 7.09 0 0 0 1.875 2.5c.267.234.6.317 1 .25.071-.479-.012-.895-.25-1.25a4.06 4.06 0 0 1 0-2.5 5.523 5.523 0 0 1 1.75 2.375c.323.123.657.164 1 .125-.041-1.336 0-2.67.125-4l.75.75A14.026 14.026 0 0 0 156.375 89c.25.167.5.167.75 0a29.09 29.09 0 0 1 3.25-1.625c.002.452-.123.869-.375 1.25a29.17 29.17 0 0 1-2.75 2.75l-.125.75a116.2 116.2 0 0 0 5.5 16.75c-.022.481-.272.773-.75.875a38.482 38.482 0 0 0-7 2.375z" fill="#fff"/><path fill-rule="evenodd" clip-rule="evenodd" d="M151.375 88.875c.238.355.321.771.25 1.25-.4.067-.733-.016-1-.25h.75v-1z" fill="#000"/><path fill-rule="evenodd" clip-rule="evenodd" d="M179.875 143.875a8.12 8.12 0 0 0 1.125 1 4.379 4.379 0 0 1-.25 2.25 12.84 12.84 0 0 1-2.5 3.5 33.014 33.014 0 0 0-4.375 12.5 11.233 11.233 0 0 0-.5 3.875c0 1.004.084 1.962.25 2.875a35.74 35.74 0 0 0 2.875 11l.875.875a48.071 48.071 0 0 0 8 2.125 26.482 26.482 0 0 1 1.75-5.875 2.398 2.398 0 0 0-.375-1.125c-2.249-1.918-3.666-4.335-4.25-7.25-1.731-6.951-.856-13.576 2.625-19.875a72.117 72.117 0 0 0 14.25-7.375 41.694 41.694 0 0 1 2.625-1.75c.132-.521.007-.979-.375-1.375a55.758 55.758 0 0 1 6.75-3 1741.478 1741.478 0 0 0 24.5-13.125 528.611 528.611 0 0 1 6.5 9.125 1098.821 1098.821 0 0 1-21.5 17.75 148.253 148.253 0 0 0-7.375 7.125 63.055 63.055 0 0 0-4.75 14 203.564 203.564 0 0 0-3.875 20.5 469.232 469.232 0 0 0-23.75-1.75c-4.74.484-9.49.9-14.25 1.25a10.104 10.104 0 0 0-3.5.5 10.42 10.42 0 0 0-2.25.25h-1.25v-10.25a191.18 191.18 0 0 1 1.125-11.5 594.909 594.909 0 0 0 2.875-19.25 431.676 431.676 0 0 0-1.875-11.75 685.486 685.486 0 0 1-3.625-18.5 46.347 46.347 0 0 0 10.125-3.5 136.755 136.755 0 0 0 10.75 16.75l3.25 3.25a47.867 47.867 0 0 1-.375 5.625c.006.546.256.921.75 1.125z" fill="#fff"/><path fill-rule="evenodd" clip-rule="evenodd" d="M203.375 198.625c-.069-.557-.319-.974-.75-1.25a7.693 7.693 0 0 0-.75-3.875 5.778 5.778 0 0 0-1.25-.5 179.775 179.775 0 0 0-17-1.375 16.205 16.205 0 0 0-.25 4c-.233.267-.317.6-.25 1h-.75v-5.75a32.473 32.473 0 0 0-7.75.625 10.283 10.283 0 0 0 .25 5.125c-.245.16-.495.327-.75.5-.16-.373-.41-.623-.75-.75a8.556 8.556 0 0 1-.25-2.5v-2.25a39.297 39.297 0 0 0-6.25.25 69.512 69.512 0 0 0-9.75.875c-.595.056-1.012.348-1.25.875a1.388 1.388 0 0 0-.375.75 6.233 6.233 0 0 1-.125-1.75c-.052-3.755.031-7.505.25-11.25.213 1.326.505 1.326.875 0 .1.057.141.14.125.25v10.5c.559.074 1.059-.01 1.5-.25a10.42 10.42 0 0 1 2.25-.25 10.104 10.104 0 0 0 3.5-.5c4.76-.35 9.51-.766 14.25-1.25 7.924.382 15.84.965 23.75 1.75a203.564 203.564 0 0 1 3.875-20.5 63.055 63.055 0 0 1 4.75-14 148.253 148.253 0 0 1 7.375-7.125 1098.821 1098.821 0 0 0 21.5-17.75 528.611 528.611 0 0 0-6.5-9.125 1741.478 1741.478 0 0 1-24.5 13.125 55.758 55.758 0 0 0-6.75 3c.382.396.507.854.375 1.375a41.694 41.694 0 0 0-2.625 1.75c-.197-.401-.53-.568-1-.5a19.83 19.83 0 0 0 2.25-2 6.458 6.458 0 0 0-1.25-1.75c.21-.085.293-.252.25-.5.643.264 1.31.306 2 .125a117.606 117.606 0 0 0 6.75-2.75 1632.37 1632.37 0 0 1 23.75-12.75c.117-.77.159-1.561.125-2.375 1.696-1.452 3.655-2.077 5.875-1.875.426.689 1.01 1.023 1.75 1a344.887 344.887 0 0 1 9.75-7.75l2.75-4.25a2.18 2.18 0 0 1 1.75.125c.33.721.58 1.471.75 2.25a25.362 25.362 0 0 1 4.25-2.125c2.43-.485 3.473.473 3.125 2.875 1.168.833 1.168 1.667 0 2.5.365 1.081.158 2.04-.625 2.875a34.66 34.66 0 0 1-8.25 2.75l-2 1.5a75.191 75.191 0 0 1-6.25 6.375c-.278.306-.32.639-.125 1 .277.845.652 1.637 1.125 2.375a14.123 14.123 0 0 1-1.5 2l-2.5 2a5.715 5.715 0 0 0-2-.25l-20.5 17a71.623 71.623 0 0 0-7.375 6.875 36.087 36.087 0 0 0-3.5 8.25 270.765 270.765 0 0 0-5.625 26.75 29.83 29.83 0 0 1 1 4.25l-.125 1.5c-.094.361-.302.611-.625.75z" fill="#000"/><path fill-rule="evenodd" clip-rule="evenodd" d="M252.875 107.875c.308.163.473.455.5.875a4.465 4.465 0 0 0 0 2.875 2.529 2.529 0 0 0 1.5-.375 12.575 12.575 0 0 1 5.75-2.875c.052.411-.03.786-.25 1.125a54.465 54.465 0 0 0-3.125 1.625 3.24 3.24 0 0 0-.125 1.25 25.703 25.703 0 0 1 4.25-.875 10.45 10.45 0 0 1-3.25 1.75c-.385.278-.55.653-.5 1.125a8.978 8.978 0 0 0 2.625-.5c.56.045.685.253.375.625a137.398 137.398 0 0 1-8.75 3.25l-7.5 8c-.237.154-.446.113-.625-.125a4296.35 4296.35 0 0 1-3.625-5.625c3.441-2.93 7.024-5.68 10.75-8.25a57.95 57.95 0 0 1 2-3.875zM235.875 119.375a6.233 6.233 0 0 1 1.75.125 65.018 65.018 0 0 1 7.75 10.125 30.222 30.222 0 0 1-3.5 3 16.282 16.282 0 0 1-2.125-2 129.3 129.3 0 0 1-6-9 1.06 1.06 0 0 1 0-1 9.326 9.326 0 0 1 2.125-1.25z" fill="#fff"/><path fill-rule="evenodd" clip-rule="evenodd" d="M199.625 137.625c.043.248-.04.415-.25.5a.97.97 0 0 0-1-.125 104.865 104.865 0 0 1-10.75 5 1.994 1.994 0 0 0-.25.875l.75 3a3.24 3.24 0 0 0 1.25-.125 236.197 236.197 0 0 1 9-4.875c.47-.068.803.099 1 .5a72.117 72.117 0 0 1-14.25 7.375c-3.481 6.299-4.356 12.924-2.625 19.875.584 2.915 2.001 5.332 4.25 7.25.219.343.344.718.375 1.125a26.482 26.482 0 0 0-1.75 5.875 48.071 48.071 0 0 1-8-2.125l-.875-.875a35.74 35.74 0 0 1-2.875-11 59.146 59.146 0 0 1 .25-6.75 33.014 33.014 0 0 1 4.375-12.5 12.84 12.84 0 0 0 2.5-3.5 4.379 4.379 0 0 0 .25-2.25 8.12 8.12 0 0 1-1.125-1c.113-.24.28-.448.5-.625.881-.045 1.715-.17 2.5-.375a15.351 15.351 0 0 0 2-.625c.254-1.533-.246-2.742-1.5-3.625a.567.567 0 0 0-.25-.375c.561-.013.978-.221 1.25-.625a6.426 6.426 0 0 1 1-3 1.814 1.814 0 0 0-.5-.625c-3.815-.315-6.023-2.357-6.625-6.125-.392-3.23.108-6.313 1.5-9.25a168.453 168.453 0 0 0 3.125-5.375c-1.677-3.468-1.26-6.635 1.25-9.5 2.561-1.462 5.144-1.462 7.75 0a10.18 10.18 0 0 1 1.75 2.875c3.184-.781 5.684.177 7.5 2.875 5.186.189 7.145 2.814 5.875 7.875a22.161 22.161 0 0 1-3 7.75c-.101 2.411-1.309 3.953-3.625 4.625-.3.226-.509.517-.625.875a166.262 166.262 0 0 1-.625 5.875c.1.432.267.807.5 1.125z" fill="#000"/><path fill-rule="evenodd" clip-rule="evenodd" d="M195.625 117.625c.267-.233.6-.317 1-.25.075.64-.008 1.223-.25 1.75v-1.5h-.75z" fill="#000"/><path fill-rule="evenodd" clip-rule="evenodd" d="M195.625 117.625h.75v1.5c-.041 2.168 0 4.335.125 6.5.419.254.836.504 1.25.75a77.979 77.979 0 0 1 3.875-1.75c.812-.063 1.145.312 1 1.125a4.942 4.942 0 0 1-.375 1.625 22.495 22.495 0 0 1-3.75 2.5 98.786 98.786 0 0 1-.75 7 587.798 587.798 0 0 0-10.375 4.875.624.624 0 0 1-.75 0 8.884 8.884 0 0 1-.75-3.25c.339-1.809.756-3.6 1.25-5.375a17.448 17.448 0 0 1-5.25-1.375c-1.123-.959-1.831-2.167-2.125-3.625-.522-5.164.853-9.747 4.125-13.75 3.389 2.963 7.306 4.046 11.75 3.25z" fill="#fff"/><path fill-rule="evenodd" clip-rule="evenodd" d="M187.625 128.125h1.25c.051.472-.116.847-.5 1.125a8.39 8.39 0 0 1-2.875 1.125c-1.11.074-1.86-.343-2.25-1.25 1.02-.2 2.062-.325 3.125-.375a2.399 2.399 0 0 0 1.25-.625zM185.625 120.125c.287.073.454.281.5.625a145.468 145.468 0 0 0-1.75 4.375 4.75 4.75 0 0 1 .75 1.75c-1.205.087-1.955-.455-2.25-1.625a16.911 16.911 0 0 1 2.75-5.125zM188.625 120.875a1.1 1.1 0 0 1 .875.25c.083.587.042 1.17-.125 1.75h-1a4.858 4.858 0 0 1 .25-2zM182.375 118.875c.887.364 1.179 1.031.875 2-.333.333-.667.333-1 0a3.55 3.55 0 0 1 .125-2z" fill="#000"/><path fill-rule="evenodd" clip-rule="evenodd" d="M183.375 138.625c1.254.883 1.754 2.092 1.5 3.625-.659.256-1.325.464-2 .625a6.13 6.13 0 0 1-2.375-.25 16.798 16.798 0 0 1 .125-5 7.134 7.134 0 0 1 2.75 1zM199.375 138.125a6.458 6.458 0 0 1 1.25 1.75 19.83 19.83 0 0 1-2.25 2 236.197 236.197 0 0 0-9 4.875 3.24 3.24 0 0 1-1.25.125l-.75-3c.018-.318.101-.609.25-.875a104.865 104.865 0 0 0 10.75-5 .97.97 0 0 1 1 .125z" fill="#fff"/><path fill-rule="evenodd" clip-rule="evenodd" d="M261.375 126.875a7.998 7.998 0 0 1-2 .375c.417.417.917.626 1.5.625-.703.205-1.453.33-2.25.375-.92.253-1.503.837-1.75 1.75a12.937 12.937 0 0 0 3.75 4.75c2.375 1.835 4.71 3.71 7 5.625a142.043 142.043 0 0 0-9.25 6.375l-2.125 2.125c-.73 1.352-.355 2.227 1.125 2.625 2.415.125 4.832.166 7.25.125-1.873.207-3.79.332-5.75.375.315.104.48.312.5.625a9.2 9.2 0 0 1-4-1.25c-.835-.628-.96-1.378-.375-2.25a6.5 6.5 0 0 1 1.875-2.375 151.021 151.021 0 0 1 9.75-6.375 75.817 75.817 0 0 1-9.375-8c-2.018-2.764-1.393-4.555 1.875-5.375a10.271 10.271 0 0 1 2.25-.125zM270.875 151.125a2.19 2.19 0 0 1-1 .375c-1.08.125-2.163.166-3.25.125 1.372-.234 2.79-.4 4.25-.5zM117.125 149.875c.242.527.325 1.11.25 1.75.64-.075 1.223.008 1.75.25a9.94 9.94 0 0 0-2.75.25c.153-.223.236-.473.25-.75.452-.354.619-.854.5-1.5zM94.125 164.125c-.142.928-.517 1.095-1.125.5a2.78 2.78 0 0 0-.625.25 8.128 8.128 0 0 1-2-.125 52.555 52.555 0 0 0-6.875-3.375c-.401.15-.734.4-1 .75l-.75 2.25a21.23 21.23 0 0 0-1.875 2 .774.774 0 0 0 .75.25 11.377 11.377 0 0 1 2.75-.125c-.819.045-1.402.254-1.75.625a9.975 9.975 0 0 1-3 .875 3.05 3.05 0 0 0-.25 1.625c-.5 0-.75.25-.75.75a1.87 1.87 0 0 0-.75.5 6.14 6.14 0 0 1-1.375 2.5c-.035 1.551.757 2.426 2.375 2.625a8.235 8.235 0 0 0 3.375 3.375l.25 2c.389.486.68 1.027.875 1.625A21.797 21.797 0 0 0 80 186.125a14.897 14.897 0 0 1-.625 2.5c.057.427.14.843.25 1.25-.257.106-.59.106-1 0l-.5-1a3.28 3.28 0 0 0-.25-1.75 1.114 1.114 0 0 0-.5.375 38.01 38.01 0 0 0-2.875.375 7.048 7.048 0 0 0-3.125-1.125c-.887-.649-1.345-1.523-1.375-2.625-1.743-1.737-1.826-3.57-.25-5.5.953-1.233 2.161-1.566 3.625-1v-.75c-1.265.071-2.098-.513-2.5-1.75.24-.328.199-.662-.125-1a5.748 5.748 0 0 1-2-2 1.928 1.928 0 0 1 .375-1.5 2.192 2.192 0 0 0-.875-1.25 5.121 5.121 0 0 1 0-2.25c.727-.68.894-1.43.5-2.25-.442-1.684-.025-3.1 1.25-4.25-.491-1.894.05-3.436 1.625-4.625 1.108-.336 1.775-1.044 2-2.125a7.543 7.543 0 0 0 3.625-.5c1.17.834 2.046.625 2.625-.625.74.08 1.49.08 2.25 0 .352-.563.852-.854 1.5-.875 1.421.28 2.838.572 4.25.875a39.702 39.702 0 0 0 3.875 3.625c1.44 2.438 2.23 5.022 2.375 7.75z" fill="#000"/><path fill-rule="evenodd" clip-rule="evenodd" d="M299.125 169.375c-.248-.043-.415.041-.5.25a44.189 44.189 0 0 1-5.375-7.25c.065-1.521.232-3.021.5-4.5a2.868 2.868 0 0 0-1.625-1.5c-.015-.136-.097-.219-.25-.25a14.255 14.255 0 0 0-.25 3.75c-.145 3.906-1.977 4.989-5.5 3.25a162.572 162.572 0 0 0 3.375 10.25c.105.314.312.481.625.5-.252.294-.588.46-1 .5a143.725 143.725 0 0 1-4.875-13 59.007 59.007 0 0 1-8.875-9.375c-4.275.392-8.568.683-12.875.875-1.087 0-2.128-.083-3.125-.25-.02-.313-.185-.521-.5-.625a65.393 65.393 0 0 0 5.75-.375h2c1.087.041 2.17 0 3.25-.125a2.19 2.19 0 0 0 1-.375 49.089 49.089 0 0 0 4-.5c.433.023.847.106 1.25.25a49.665 49.665 0 0 0 11.5 11.375c1.128.676 2.002.467 2.625-.625.1-4.536-.442-8.994-1.625-13.375l.25-.625a91.878 91.878 0 0 0 11-1.125c3.852-.659 4.27-2.242 1.25-4.75a53.388 53.388 0 0 0-11-6.875c-.255-4.107-.712-8.19-1.375-12.25a6.592 6.592 0 0 0-1.375-2.875 2.088 2.088 0 0 0-1.75.25 39.69 39.69 0 0 0-10.25 9.5 81.251 81.251 0 0 0-8.75-1.5 66.451 66.451 0 0 0-5.75-.125 2.042 2.042 0 0 1-1.5-.625 7.998 7.998 0 0 0 2-.375 52.986 52.986 0 0 1 12.875 1.25l.875-.25c2.935-3.896 6.52-7.021 10.75-9.375 1.595-.747 2.72-.288 3.375 1.375a35.95 35.95 0 0 1 1 3.25c.595 3.563 1.01 7.146 1.25 10.75a60.232 60.232 0 0 1 9.375 5.875l2.625 2.625c.98 1.216 1.105 2.508.375 3.875a18.541 18.541 0 0 1-7.75 2.25 66.045 66.045 0 0 1-5.75.125c.32 2.087.695 4.171 1.125 6.25 1.72.054 2.887.888 3.5 2.5a14.567 14.567 0 0 1-.5 5c1.5 2.372 3.04 4.705 4.625 7z" fill="#000"/><path fill-rule="evenodd" clip-rule="evenodd" d="M292.125 156.375c-.168 1.167-.332 2.333-.5 3.5a14.255 14.255 0 0 1 .25-3.75c.153.031.235.114.25.25z" fill="#000"/><path fill-rule="evenodd" clip-rule="evenodd" d="M292.125 156.375c.738.279 1.28.779 1.625 1.5a33.146 33.146 0 0 0-.5 4.5 44.189 44.189 0 0 0 5.375 7.25v.75a8.392 8.392 0 0 0-2.5.625 98.617 98.617 0 0 1-6 2.875c-.313-.019-.52-.186-.625-.5a162.572 162.572 0 0 1-3.375-10.25c3.523 1.739 5.355.656 5.5-3.25.168-1.167.332-2.333.5-3.5zM92.375 164.875c1.391 1.451 1.308 2.826-.25 4.125a2.088 2.088 0 0 1-1.75-.25c-.797-.823-1.422-1.698-1.875-2.625.4-.384.858-.509 1.375-.375.246.684.412 1.393.5 2.125.931-.07 1.223-.57.875-1.5a14.73 14.73 0 0 0-2-1.5 2.792 2.792 0 0 0-.875.25c-.789 1.932-1.955 2.224-3.5.875-1.528-.299-2.945-.09-4.25.625a.774.774 0 0 1-.75-.25 21.23 21.23 0 0 1 1.875-2l.75-2.25c.266-.35.599-.6 1-.75a52.555 52.555 0 0 1 6.875 3.375 8.128 8.128 0 0 0 2 .125z" fill="#fff"/><path fill-rule="evenodd" clip-rule="evenodd" d="M78.375 169.625a3.05 3.05 0 0 1 .25-1.625 9.975 9.975 0 0 0 3-.875c2.452-.674 3.41.243 2.875 2.75-1.012 2.095-2.553 2.553-4.625 1.375a13.466 13.466 0 0 1-1.5-1.625z" fill="#fff"/><path fill-rule="evenodd" clip-rule="evenodd" d="M173.875 163.125a59.146 59.146 0 0 0-.25 6.75 16.049 16.049 0 0 1-.25-2.875c-.055-1.358.112-2.65.5-3.875zM82.125 168.125a.774.774 0 0 1 .75.25c.219.562.302 1.145.25 1.75-1.39-.209-1.723-.876-1-2z" fill="#000"/><path fill-rule="evenodd" clip-rule="evenodd" d="M92.375 170.375c.459 1.003.625 2.087.5 3.25-.208 2.666-1.291 4.916-3.25 6.75a36.287 36.287 0 0 0 3.125 4.75l.25 1c.489 6.917.947 13.833 1.375 20.75l-.25 2.25a41.531 41.531 0 0 1-4.625-4.75 777.28 777.28 0 0 1-9.875-14.5 9.787 9.787 0 0 1-.25-1.25c.28-.811.488-1.644.625-2.5A21.797 21.797 0 0 1 82.375 183a5.109 5.109 0 0 0-.875-1.625l-.25-2A8.235 8.235 0 0 1 77.875 176c-1.618-.199-2.41-1.074-2.375-2.625a6.14 6.14 0 0 0 1.375-2.5 1.87 1.87 0 0 1 .75-.5 9.124 9.124 0 0 0 3 2.625c3.712.497 5.462-1.128 5.25-4.875 1.268 1.218 1.851 2.718 1.75 4.5a4.62 4.62 0 0 0 1.5-.125c-.037-1.624-.62-3.083-1.75-4.375.422-.267.839-.225 1.25.125.407.657.907 1.24 1.5 1.75a4.402 4.402 0 0 0 2.25.375z" fill="#fff"/><path fill-rule="evenodd" clip-rule="evenodd" d="M289.125 174.375c.412-.04.748-.206 1-.5a98.617 98.617 0 0 0 6-2.875 8.392 8.392 0 0 1 2.5-.625v-.75c.085-.209.252-.293.5-.25a5.51 5.51 0 0 1 2.125.75 549.857 549.857 0 0 0 9.25 12.75 13.954 13.954 0 0 0 3.875 2.625 180.741 180.741 0 0 0 20.75 7.375l1-.125c.575-.575 1.075-1.2 1.5-1.875a12.22 12.22 0 0 0-1.875-2.25 67.682 67.682 0 0 1-1.125-3 91.278 91.278 0 0 0-8-2.875c-1.5-1.507-2.21-3.299-2.125-5.375.83-3.165 2.747-5.415 5.75-6.75a2.754 2.754 0 0 0-.375-2.125c.793-2.463 2.46-3.796 5-4a23.457 23.457 0 0 1 2.5-3.25c2.813-1.645 5.645-1.77 8.5-.375 4.65-3.026 8.943-2.526 12.875 1.5a10.765 10.765 0 0 1 2 6 18.772 18.772 0 0 1 5.5 7c.153 1.751.317 3.501.5 5.25 2.305 1.376 3.388 3.376 3.25 6-1.558 3.175-4.1 4.467-7.625 3.875a9.149 9.149 0 0 0-2.875-1.375 21.154 21.154 0 0 1-4.125 2.625c-1 .167-2 .167-3 0-.393-.732-.975-.982-1.75-.75-2.277 1.538-3.11 3.663-2.5 6.375a16.955 16.955 0 0 1 6 3c-.493.218-.993.176-1.5-.125a16.803 16.803 0 0 0-8.25 1 120.688 120.688 0 0 0-19 12.5 54.208 54.208 0 0 1-9-.125 39.621 39.621 0 0 0 2.125-8.5A311.617 311.617 0 0 1 305.375 199c-4.387-2.305-7.68-5.68-9.875-10.125-2.463-4.591-4.92-9.175-7.375-13.75.35-.255.683-.505 1-.75z" fill="#000"/><path fill-rule="evenodd" clip-rule="evenodd" d="M340.625 168.625c.698.223 1.033.723 1 1.5.925.12 1.843.287 2.75.5.08 2.413 1.33 3.496 3.75 3.25-.847 3.091.153 5.299 3 6.625.233.299.4.632.5 1-.955 1.289-1.912 2.581-2.875 3.875a9.207 9.207 0 0 0-.25 4c.338.296.63.63.875 1-.51.444-1.05.861-1.625 1.25a25.705 25.705 0 0 0-1.75 6.5c-.207.875-.75 1.417-1.625 1.625-3.807.894-7.1.019-9.875-2.625a.624.624 0 0 1 0-.75 53.398 53.398 0 0 0 5.125-5.5 5.515 5.515 0 0 0-2.125-2.25c-1.165-1.727-1.707-3.644-1.625-5.75.178-2.664.303-5.33.375-8a6.02 6.02 0 0 1 1.25-3c1.43-.721 2.47-1.804 3.125-3.25z" fill="#fff"/><path fill-rule="evenodd" clip-rule="evenodd" d="M92.875 173.625c.125-1.163-.041-2.247-.5-3.25.163-.076.33-.159.5-.25.328 1.204.328 2.371 0 3.5zM87.125 173.875h2.5v.75l-2 .25c-.042.331.04.622.25.875l1.5.625c-.485.709-1.152.917-2 .625a4.51 4.51 0 0 1-1.625-1.625.625.625 0 0 1 0-.75c.43-.342.888-.592 1.375-.75zM337.375 176.875c.33-.043.623.041.875.25.168.5.168 1 0 1.5-.25.333-.5.333-.75 0a6.233 6.233 0 0 1-.125-1.75zM344.125 177.875c1.352.105 1.602.73.75 1.875-.403.18-.778.139-1.125-.125a2.918 2.918 0 0 1 .375-1.75zM340.375 176.875h1c-.58 1.492-1.165 2.992-1.75 4.5.5.716 1.082 1.382 1.75 2-.83.361-1.58.237-2.25-.375-.523-.314-.773-.772-.75-1.375a9.83 9.83 0 0 1 1.875-4 1.24 1.24 0 0 0 .125-.75zM342.375 185.625h.75c-.087 1.295-.795 1.962-2.125 2-.493.048-.868-.119-1.125-.5a10.723 10.723 0 0 1 2-.875 1.75 1.75 0 0 0 .5-.625z" fill="#000"/><path fill-rule="evenodd" clip-rule="evenodd" d="M156.625 181.625h.25v10.25h1.25c-.441.24-.941.324-1.5.25v-10.5zM182.375 196.625v1a98.44 98.44 0 0 1-7-.125 4.892 4.892 0 0 0-.5-.875 10.283 10.283 0 0 1-.25-5.125 32.473 32.473 0 0 1 7.75-.625v5.75z" fill="#fff"/><path fill-rule="evenodd" clip-rule="evenodd" d="M160.375 191.625a10.104 10.104 0 0 0 3.5-.5 10.104 10.104 0 0 0-3.5.5z" fill="#000"/><path fill-rule="evenodd" clip-rule="evenodd" d="M166.875 191.875a39.297 39.297 0 0 1 6.25-.25v2.25c-.243-.612-.326-1.279-.25-2h-6z" fill="#fff"/><path fill-rule="evenodd" clip-rule="evenodd" d="M166.875 191.875h6c-.076.721.007 1.388.25 2a8.556 8.556 0 0 0 .25 2.5.567.567 0 0 1-.25.375c-5.227-.01-10.435.282-15.625.875l-1.375-.125a.713.713 0 0 1-.25-.625v-3.25c.238-.527.655-.819 1.25-.875a69.512 69.512 0 0 1 9.75-.875zM202.625 197.375c-.193.162-.444.245-.75.25a178.01 178.01 0 0 0-18.25-1.125 1.1 1.1 0 0 1-.25-.875 16.205 16.205 0 0 1 .25-4c5.682.189 11.348.647 17 1.375.437.118.853.285 1.25.5a7.693 7.693 0 0 1 .75 3.875z" fill="#fff"/><path fill-rule="evenodd" clip-rule="evenodd" d="M112.375 228.875c.041-1.502 0-3.002-.125-4.5a2.83 2.83 0 0 0-.375-.875c.285-1.354.326-2.729.125-4.125a1.388 1.388 0 0 0-.375-.75 288.41 288.41 0 0 0 .125-17.25l-3.25-6c.593 8.821 1.093 17.654 1.5 26.5.232.634.69.884 1.375.75a.82.82 0 0 0 .5.375c-.835-.037-1.335.338-1.5 1.125-1.032-.615-2.115-.656-3.25-.125a36.92 36.92 0 0 0-6.125 6.375c-.42 1.822.121 2.28 1.625 1.375a78.53 78.53 0 0 0 7-5.875l.75 1v.25a36.891 36.891 0 0 1-7.75 5.625 4.987 4.987 0 0 0-.25 2.125.824.824 0 0 0-.375.5c-.08-.76-.08-1.51 0-2.25-.121.42-.329.586-.625.5-.573-1.716-1.74-2.174-3.5-1.375-1.468.922-1.885 2.214-1.25 3.875a.827.827 0 0 0-.375.5c-.468-.374-.718-.874-.75-1.5a4.614 4.614 0 0 0-.125 1.5 10.714 10.714 0 0 1-.25-3.25 365.664 365.664 0 0 1-21 1.625c-.3.226-.509.517-.625.875a28.87 28.87 0 0 1-.875 3.5h1a5.992 5.992 0 0 1-2 0 39.17 39.17 0 0 1 1.25-4.125c-.37-.51-.87-.718-1.5-.625a290.164 290.164 0 0 1 2.125-16.75 149.011 149.011 0 0 1-12.25 21.25 68.417 68.417 0 0 1-13.625 13.25 3.262 3.262 0 0 0-2-.625c-.375.543-.833 1-1.375 1.375.243.868.535 1.743.875 2.625-.264 1.7-1.097 2.033-2.5 1a16.044 16.044 0 0 0-1.75-1.625 19.526 19.526 0 0 1-4 3.375c-.5.168-1 .168-1.5 0A19.855 19.855 0 0 0 33 255.625a5.723 5.723 0 0 1-.5-1.25c-1.642-.492-2.017-1.45-1.125-2.875a118.604 118.604 0 0 1 6.75-2.75 8.51 8.51 0 0 0 2.625-1.625l-.25-1.75a1326.981 1326.981 0 0 0 11.75-26.25 131.935 131.935 0 0 1 9-16.5c4.56-5.938 10.184-10.522 16.875-13.75l.5 1c.41.106.743.106 1 0a777.28 777.28 0 0 0 9.875 14.5 41.531 41.531 0 0 0 4.625 4.75l.25-2.25c-.428-6.917-.886-13.833-1.375-20.75l-.25-1a36.287 36.287 0 0 1-3.125-4.75c1.959-1.834 3.042-4.084 3.25-6.75.328-1.129.328-2.296 0-3.5-.17.091-.337.174-.5.25a4.402 4.402 0 0 1-2.25-.375 7.496 7.496 0 0 1-1.5-1.75c-.411-.35-.828-.392-1.25-.125 1.13 1.292 1.713 2.751 1.75 4.375a4.62 4.62 0 0 1-1.5.125c.101-1.782-.482-3.282-1.75-4.5.212 3.747-1.538 5.372-5.25 4.875a9.124 9.124 0 0 1-3-2.625c0-.5.25-.75.75-.75.442.568.942 1.109 1.5 1.625 2.072 1.178 3.613.72 4.625-1.375.535-2.507-.423-3.424-2.875-2.75.348-.371.931-.58 1.75-.625a11.377 11.377 0 0 0-2.75.125c1.305-.715 2.722-.924 4.25-.625 1.545 1.349 2.711 1.057 3.5-.875.277-.131.569-.214.875-.25a14.73 14.73 0 0 1 2 1.5c.348.93.056 1.43-.875 1.5a9.699 9.699 0 0 0-.5-2.125c-.517-.134-.975-.009-1.375.375.453.927 1.078 1.802 1.875 2.625a2.088 2.088 0 0 0 1.75.25c1.558-1.299 1.641-2.674.25-4.125.191-.106.4-.189.625-.25.608.595.983.428 1.125-.5.775 1.937.608 3.812-.5 5.625a16.198 16.198 0 0 1-.625 7.875 18.578 18.578 0 0 0-1.625 3.125 37.969 37.969 0 0 0 2 3.375l.5.25a56.837 56.837 0 0 1 7.75-1.125c4.253-.191 8.503-.441 12.75-.75 2.079-.436 2.871-1.728 2.375-3.875.231-4.705.439-9.372.625-14 .286-.102.536-.269.75-.5a22.384 22.384 0 0 1-.75-4l-2.125-4.25c-.739-1.602-.364-2.853 1.125-3.75a9.94 9.94 0 0 1 2.75-.25 4.74 4.74 0 0 1 2 .375c.22.339.303.714.25 1.125a8.983 8.983 0 0 0 3.375-2.25 38.997 38.997 0 0 0 2.625-6c3.164-.319 6.33-.611 9.5-.875a65.203 65.203 0 0 0 3.5-.75c1.744-.316 1.911-.983.5-2a97.618 97.618 0 0 0-11.125-5.375 54.206 54.206 0 0 0 3.25-7.75c.579-1.621.038-2.455-1.625-2.5a28.961 28.961 0 0 0-11.125 3.5 103.257 103.257 0 0 0-7.375-3.875 25.79 25.79 0 0 0-5.75-1.875c-.041.755 0 1.505.125 2.25a74.653 74.653 0 0 0 3.375 9.125 4.1 4.1 0 0 1-.375.875 24.894 24.894 0 0 0-5 5.25 8.788 8.788 0 0 0-1.75 4l1.375 1.375 1.375.125c2.894-.433 5.769-.974 8.625-1.625a2.181 2.181 0 0 1 1.75.125c.313 1.564.479 3.148.5 4.75.119.646-.048 1.146-.5 1.5a143.144 143.144 0 0 1-.25-5.75c-3.395.434-6.77 1.017-10.125 1.75-4.114-.564-4.947-2.564-2.5-6a67.249 67.249 0 0 1 5.375-6.5 47.275 47.275 0 0 1-3.125-8.5 7.26 7.26 0 0 1 .25-3.5c.368-.377.827-.543 1.375-.5a46.019 46.019 0 0 1 11.75 5.125l.875.125a65.274 65.274 0 0 1 8.125-2.625 9.308 9.308 0 0 1 5 0c1.145.86 1.52 1.985 1.125 3.375a21.391 21.391 0 0 1-2.875 7 199.746 199.746 0 0 1 8.5 4.125c1.524.712 2.524 1.879 3 3.5a3.594 3.594 0 0 1-1 1.25 14.628 14.628 0 0 1-3.5 1.25c-3.488.428-6.988.72-10.5.875l-2.75 5.5a58.338 58.338 0 0 1 2.875 2c.297.386.38.803.25 1.25a7.841 7.841 0 0 0-4.375-2c-.054.411.03.786.25 1.125a13.808 13.808 0 0 0 4 1.625 14.763 14.763 0 0 1-1.875 3.75c-.625 1.88-.375 3.63.75 5.25 2.927 7.58 4.01 15.413 3.25 23.5-.785 4.364-3.16 7.489-7.125 9.375a576.221 576.221 0 0 0-10.125 4.625 626.863 626.863 0 0 1-.875 26.5z" fill="#000"/><path fill-rule="evenodd" clip-rule="evenodd" d="M84.625 224.625v8.25c-.177.226-.427.309-.75.25a13.397 13.397 0 0 0-4 .5h-.25c-.645.119-1.145-.048-1.5-.5a6.847 6.847 0 0 0 .875-2.75 93.274 93.274 0 0 0 .75-17c-.608-5.996-2.775-11.33-6.5-16l-3-2.5a.625.625 0 0 1 0-.75 36.545 36.545 0 0 0 2.375-1.625 1.06 1.06 0 0 1 1 0c5.06 5.998 8.353 12.873 9.875 20.625.623 3.81.998 7.644 1.125 11.5zM128.875 186.125c.24.441.324.941.25 1.5-.525 3.763-2.442 6.555-5.75 8.375a98.033 98.033 0 0 1-10.5 4.625 6.19 6.19 0 0 1-1.25-2.5l1-.5a35.433 35.433 0 0 0 12-5.375c2.161-1.535 3.578-3.576 4.25-6.125z" fill="#fff"/><path fill-rule="evenodd" clip-rule="evenodd" d="m91.125 231.625-.25.5a21.843 21.843 0 0 1-4 .5c-.645.119-1.145-.048-1.5-.5 1.582-11.101-.043-21.685-4.875-31.75A39.014 39.014 0 0 0 74.125 192c.993-.976 2.202-1.602 3.625-1.875l.625.25a173.406 173.406 0 0 1 8.125 13 146.869 146.869 0 0 1 4.625 28.25z" fill="#fff"/><path fill-rule="evenodd" clip-rule="evenodd" d="M129.125 187.625c.074-.559-.01-1.059-.25-1.5a12.96 12.96 0 0 1 .375-1.75c.204 1.13.162 2.214-.125 3.25z" fill="#000"/><path fill-rule="evenodd" clip-rule="evenodd" d="M104.375 217.875c-.096.997.071 1.914.5 2.75.199 1.162.24 2.329.125 3.5a37.045 37.045 0 0 1-2.625 2.5 1968.368 1968.368 0 0 1-4.25-42 23.206 23.206 0 0 0 4.25-.25c-.242 4.666-.2 9.332.125 14 .57 6.508 1.195 13.008 1.875 19.5zM107.625 192.625a43.048 43.048 0 0 0 0 7.75c.226 7.097.642 14.18 1.25 21.25a.954.954 0 0 1-.5.625 5.961 5.961 0 0 1-2.25.625 1902 1902 0 0 0-1-12c.056-1.56-.111-3.06-.5-4.5v-1.5a20.739 20.739 0 0 0-.5-4.25 345.938 345.938 0 0 1-1-16.25c4.194-.085 8.36-.46 12.5-1.125a15.09 15.09 0 0 0 1.625-.875 85.016 85.016 0 0 0 1.125-16.5 4.987 4.987 0 0 1 2.125.25c.103 3.418.228 6.834.375 10.25a39.023 39.023 0 0 1-.625 6.5 33.794 33.794 0 0 1-7.875 4.625l-3.5 1.5a6.233 6.233 0 0 1-1.75.125l.5 3.5z" fill="#fff"/><path fill-rule="evenodd" clip-rule="evenodd" d="M111.875 197.375h-.5c-.836-1.003-1.336-2.169-1.5-3.5a70.106 70.106 0 0 0 13.5-6.125c1.967-1.436 2.801-3.395 2.5-5.875a20.45 20.45 0 0 0 .25-3.25 320.317 320.317 0 0 1-.75-13.5c-.016-.109.025-.193.125-.25a8.959 8.959 0 0 1 1.75 3.75c2.159 6.087 2.159 12.17 0 18.25a11.482 11.482 0 0 1-4.625 5.125 161.236 161.236 0 0 1-10.75 5.375z" fill="#fff"/><path fill-rule="evenodd" clip-rule="evenodd" d="M125.375 165.125c.155 4.505.405 9.005.75 13.5a20.45 20.45 0 0 1-.25 3.25 36.13 36.13 0 0 0-.25-6 .918.918 0 0 0-.375.25 39.82 39.82 0 0 1 .125-11z" fill="#000"/><path fill-rule="evenodd" clip-rule="evenodd" d="M121.375 165.625h3c.219 5.749.261 11.499.125 17.25a11.472 11.472 0 0 1-.5 2.5 25.607 25.607 0 0 1-3.375 2.625 314.631 314.631 0 0 1-11 5.375c-.86-1.081-1.277-2.331-1.25-3.75a45.47 45.47 0 0 0 11.75-4.875 3.956 3.956 0 0 0 1.625-2.375c.208-1.661.333-3.327.375-5-.3-3.915-.55-7.832-.75-11.75z" fill="#fff"/><path fill-rule="evenodd" clip-rule="evenodd" d="M125.375 163.125c.234.267.317.6.25 1h-1.25c.267-.234.6-.317 1-.25v-.75z" fill="#000"/><path fill-rule="evenodd" clip-rule="evenodd" d="M122.875 155.875a9.841 9.841 0 0 1 3.25.625c.99.303 1.157.803.5 1.5a5.219 5.219 0 0 1-3-.75c-.527-.316-.777-.774-.75-1.375z" fill="#fff"/><path fill-rule="evenodd" clip-rule="evenodd" d="M119.375 157.375a2.837 2.837 0 0 1-.5-1.25 5.522 5.522 0 0 0 2.375-.5c.187.284.146.534-.125.75-.695.225-1.278.558-1.75 1z" fill="#000"/><path fill-rule="evenodd" clip-rule="evenodd" d="M121.625 153.625h1.25c.029.853-.387 1.186-1.25 1v-1zM118.875 156.125c.074.476.241.893.5 1.25.785.205 1.619.33 2.5.375.937.552 1.937.968 3 1.25.214.172.381.381.5.625a1.595 1.595 0 0 0-.5 1.25l.5 2.25v.75c-.4-.067-.733.016-1 .25a34.72 34.72 0 0 1-5.75.25c.041-1.669 0-3.335-.125-5-1.453-1.653-2.12-3.57-2-5.75 1.265-.614 2.557-.656 3.875-.125.303.278.303.57 0 .875a3.791 3.791 0 0 0-1.5 1.75z" fill="#fff"/><path fill-rule="evenodd" clip-rule="evenodd" d="M155.375 192.625a6.233 6.233 0 0 0 .125 1.75c.058-.309.183-.559.375-.75v3.25a.824.824 0 0 1-.375-.5 2.105 2.105 0 0 0-.125 1 11.417 11.417 0 0 1 0-4.75z" fill="#000"/><path fill-rule="evenodd" clip-rule="evenodd" d="M77.875 232.375c-.238.355-.321.771-.25 1.25-.323-.059-.573.024-.75.25h-3.5v-2.5c.326-1.279.493-2.612.5-4 .48-4.094 1.022-8.177 1.625-12.25.648-5.066-.56-9.608-3.625-13.625-.167-.167-.333-.167-.5 0 .227.425.31.883.25 1.375a1.433 1.433 0 0 1-.25.75 53.169 53.169 0 0 0-7.125 9.75 1339.12 1339.12 0 0 0-16.25 30.5 4405.59 4405.59 0 0 1-3 5 4.666 4.666 0 0 1-1.625-1.5l2.125-3.25a3270.546 3270.546 0 0 1 17-34.25 38.59 38.59 0 0 1 6.625-9.75c-.216-.271-.466-.312-.75-.125a70.6 70.6 0 0 0-4.625 5.375l-5.5 9.5a2715.16 2715.16 0 0 0-15.125 31.5c-1.106.179-1.48-.321-1.125-1.5a671.65 671.65 0 0 0 9.75-22.5c2.11-4.72 4.36-9.386 6.75-14A48.346 48.346 0 0 1 68.875 195.5c.534-.159 1.034-.075 1.5.25 4.013 4.067 6.555 8.942 7.625 14.625a97.108 97.108 0 0 1-.125 22z" fill="#fff"/><path fill-rule="evenodd" clip-rule="evenodd" d="M183.375 195.625a1.1 1.1 0 0 0 .25.875 178.01 178.01 0 0 1 18.25 1.125c.306-.005.557-.088.75-.25.431.276.681.693.75 1.25a3.161 3.161 0 0 0-.25 1 2816.111 2816.111 0 0 0 11.375 63 1175.635 1175.635 0 0 0 12.5 41.25 63.32 63.32 0 0 1 2.5 12.5 5.356 5.356 0 0 1-2.875 1.5 20.304 20.304 0 0 0-.125 5.5 30.405 30.405 0 0 1 7.5 8.5c.067.695-.224 1.238-.875 1.625a4.923 4.923 0 0 1-2.625.875c-5.221-.82-9.804-2.985-13.75-6.5a47.422 47.422 0 0 1-2.25-7.25 12.716 12.716 0 0 1-5-1.25 220.196 220.196 0 0 1-9-20.25 5714.837 5714.837 0 0 1-15.75-39.5 125.465 125.465 0 0 1-2.5-13.75c-.739-5.7-1.448-11.367-2.125-17a18.028 18.028 0 0 0-.625-4.75.905.905 0 0 0-.375-.25l-.25 1.25c.126 2.125.293 4.208.5 6.25a150.256 150.256 0 0 0 3.625 26 18.09 18.09 0 0 1 0 4.25 1052.998 1052.998 0 0 1-8.75 55 22.026 22.026 0 0 1-1.375 4.125c-1.164.125-2.33.168-3.5.125.042 1.585 0 3.17-.125 4.75a2.997 2.997 0 0 1-1.125 2.125c-2.196.147-4.363.48-6.5 1a44.15 44.15 0 0 1-8.5.25c-1.203-1.01-1.286-2.092-.25-3.25a32.964 32.964 0 0 1 6.75-3.625c.163-.075.329-.16.5-.25.327-.87.327-1.702 0-2.5-1.29.147-2.415-.185-3.375-1-.43-2.412-.805-4.828-1.125-7.25a63.827 63.827 0 0 0-.5-5.5 901.33 901.33 0 0 1-.875-84c.389-4.329.722-8.662 1-13a176.638 176.638 0 0 0 1.375-10.25c-.717.033-1.133-.301-1.25-1a2.105 2.105 0 0 1 .125-1 .824.824 0 0 0 .375.5.713.713 0 0 0 .25.625l1.375.125c5.19-.593 10.398-.885 15.625-.875a.567.567 0 0 0 .25-.375c.34.127.59.377.75.75.255-.173.505-.34.75-.5.187.258.354.549.5.875a98.44 98.44 0 0 0 7 .125v-1h.75c-.067-.4.017-.733.25-1zM111.375 197.375h.5c.177.226.427.309.75.25l-1 .5c-.226-.177-.309-.427-.25-.75zM107.625 192.625c.142 2.54.142 5.123 0 7.75a43.048 43.048 0 0 1 0-7.75z" fill="#000"/><path fill-rule="evenodd" clip-rule="evenodd" d="M111.625 218.625c.07 1.357-.013 2.69-.25 4-.685.134-1.143-.116-1.375-.75-.407-8.846-.907-17.679-1.5-26.5l3.25 6a288.41 288.41 0 0 1-.125 17.25z" fill="#fff"/><path fill-rule="evenodd" clip-rule="evenodd" d="M348.875 201.625c-1.138.248-2.305.498-3.5.75 1.06-.614 2.225-.864 3.5-.75z" fill="#000"/><path fill-rule="evenodd" clip-rule="evenodd" d="M348.875 201.625c2.767-.44 5.018.393 6.75 2.5.897 1.362 1.187 2.862.875 4.5a29.73 29.73 0 0 1-6.25 10.5c-3.335 3.753-7.293 6.628-11.875 8.625-.96.397-1.96.647-3 .75-6.905.553-13.82.761-20.75.625a42.745 42.745 0 0 1-6-.875 2.955 2.955 0 0 1-1-.625 8.628 8.628 0 0 0 0-2.75 37.424 37.424 0 0 1 .5-6.5 1.232 1.232 0 0 0-.25-.625c-4.682.008-9.35.299-14 .875-.558-.187-.475-.395.25-.625a.82.82 0 0 1-.5-.375 15.641 15.641 0 0 1 4-.625l10.5-.25c.168-.583.332-1.167.5-1.75l2.5-.5c4.75.056 9.5.139 14.25.25a249.162 249.162 0 0 1 15.25-10.25 30.174 30.174 0 0 1 4.75-2.125c1.195-.252 2.362-.502 3.5-.75zM71.625 202.875c.293.254.46.587.5 1h-.75v-.25c.153-.223.236-.473.25-.75z" fill="#000"/><path fill-rule="evenodd" clip-rule="evenodd" d="M95.375 184.875h2a340.98 340.98 0 0 0 4 42.625 6.674 6.674 0 0 1-2 3.25 3.242 3.242 0 0 1-1.25.125A86.433 86.433 0 0 0 94.875 211c.34-.482.549-1.024.625-1.625.061-7.52-.314-15.02-1.125-22.5l.125-1.5c.326-.146.617-.313.875-.5zM71.375 203.875h.75a9.953 9.953 0 0 1 1.375 5.25 32.55 32.55 0 0 0-5.75 7.5 2119.751 2119.751 0 0 1-15.5 26.75 42.555 42.555 0 0 1-5.5 7c-.947-.11-1.28-.611-1-1.5 2.1-3.184 4.1-6.434 6-9.75 4.73-8.71 9.397-17.46 14-26.25a354.232 354.232 0 0 1 5.625-9z" fill="#fff"/><path fill-rule="evenodd" clip-rule="evenodd" d="M104.625 204.875a20.739 20.739 0 0 0-.5-4.25 14.144 14.144 0 0 0 .5 4.25z" fill="#000"/><path fill-rule="evenodd" clip-rule="evenodd" d="M358.625 205.875c-.46.445-.627 1.028-.5 1.75a15.237 15.237 0 0 1-2.125 6c-3.662 6.247-8.705 11.039-15.125 14.375-1.433.7-2.933 1.2-4.5 1.5-7.245.649-14.495.691-21.75.125v-.5c6.93.136 13.845-.072 20.75-.625a10.52 10.52 0 0 0 3-.75c4.582-1.997 8.54-4.872 11.875-8.625a29.73 29.73 0 0 0 6.25-10.5c.312-1.638.022-3.138-.875-4.5.44-.036.857.048 1.25.25.172-.131.297-.298.375-.5a17.21 17.21 0 0 0 1.375 2zM93.125 231.875h-1a7.71 7.71 0 0 0-.25-2.75 83.678 83.678 0 0 0-3.125-22.75 39.106 39.106 0 0 0 5.25 5.25 228.056 228.056 0 0 1 2.75 17.75 3.3 3.3 0 0 1 .625 2c-1.414.187-2.83.354-4.25.5z" fill="#fff"/><path fill-rule="evenodd" clip-rule="evenodd" d="M358.625 206.125c.155.028.28.111.375.25.857 2.527.775 5.027-.25 7.5a93.838 93.838 0 0 1-3.5 8.75 304.409 304.409 0 0 0-5.75 10.25 11.746 11.746 0 0 0-.875 3.5 14.89 14.89 0 0 0-.25 3.5h-5a165.978 165.978 0 0 1-26.875-4c-.268.007-.475.09-.625.25-.445-.373-.613-.873-.5-1.5.465-1.368.257-2.618-.625-3.75a3.24 3.24 0 0 1-.125-1.25c7.255.566 14.505.524 21.75-.125 1.567-.3 3.067-.8 4.5-1.5 6.42-3.336 11.463-8.128 15.125-14.375a15.237 15.237 0 0 0 2.125-6c.168-.5.332-1 .5-1.5z" fill="#000"/><path fill-rule="evenodd" clip-rule="evenodd" d="M358.625 205.875v.25c-.168.5-.332 1-.5 1.5-.127-.722.04-1.305.5-1.75zM105.125 210.875c.056-1.56-.111-3.06-.5-4.5.038 1.55.204 3.05.5 4.5z" fill="#000"/><path fill-rule="evenodd" clip-rule="evenodd" d="M73.375 209.625c.38.003.671.169.875.5a9.77 9.77 0 0 1-.25 4 293.006 293.006 0 0 1-10 18.5 62.84 62.84 0 0 1-15.25 17.25c-.314-.087-.398-.254-.25-.5a18.691 18.691 0 0 0 3.5-3.75 366.334 366.334 0 0 0 19.5-33.25 12.617 12.617 0 0 0 1.875-2.75zM293.875 218.625c4.65-.576 9.318-.867 14-.875.14.181.223.39.25.625a37.424 37.424 0 0 0-.5 6.5 145.37 145.37 0 0 1-12.75-1.5 48.048 48.048 0 0 0-6 1.25c-.54-.061-.958-.311-1.25-.75a8.086 8.086 0 0 1 2.5-.625c.23-.51.315-1.052.25-1.625a10.764 10.764 0 0 1-3.25-.25c1.003-.182 2.002-.348 3-.5.237-.386.322-.803.25-1.25a12.469 12.469 0 0 1-3.5-.25.902.902 0 0 1 .25-.375l3.5-.25a464.5 464.5 0 0 1 .5-3.375 9.07 9.07 0 0 1 1.625 3.25c.405.325.78.325 1.125 0z" fill="#fff"/><path fill-rule="evenodd" clip-rule="evenodd" d="M104.375 217.875c.256.868.423 1.785.5 2.75-.429-.836-.596-1.753-.5-2.75z" fill="#000"/><path fill-rule="evenodd" clip-rule="evenodd" d="M110.375 224.125a2.788 2.788 0 0 1-.75 1.75 78.53 78.53 0 0 1-7 5.875c-1.504.905-2.045.447-1.625-1.375a36.92 36.92 0 0 1 6.125-6.375c1.135-.531 2.218-.49 3.25.125z" fill="#fff"/><path fill-rule="evenodd" clip-rule="evenodd" d="M293.625 217.625a.82.82 0 0 0 .5.375c-.725.23-.808.438-.25.625-.345.325-.72.325-1.125 0a9.07 9.07 0 0 0-1.625-3.25 464.5 464.5 0 0 0-.5 3.375l-3.5.25a.902.902 0 0 0-.25.375c1.155.248 2.322.332 3.5.25.072.447-.013.864-.25 1.25-.998.152-1.997.318-3 .5 1.07.248 2.155.332 3.25.25a3.048 3.048 0 0 1-.25 1.625 8.086 8.086 0 0 0-2.5.625c.292.439.71.689 1.25.75a48.048 48.048 0 0 1 6-1.25c4.23.688 8.48 1.188 12.75 1.5a8.628 8.628 0 0 1 0 2.75c-.243-.527-.325-1.11-.25-1.75-4.077-.431-8.16-.848-12.25-1.25-1.44.18-2.857.472-4.25.875-1.25.167-2.5.167-3.75 0a3.66 3.66 0 0 1-1.125-1.125 16.86 16.86 0 0 1-.75-6.5l.375-.375a28.293 28.293 0 0 1 3.75-.125 5.415 5.415 0 0 1 .625-3c.913-1.025 1.745-.941 2.5.25.378 1.028.752 2.028 1.125 3z" fill="#000"/><path fill-rule="evenodd" clip-rule="evenodd" d="M110.375 227.125c.248 1.62.331 3.286.25 5a1.1 1.1 0 0 1-.25.875 42.825 42.825 0 0 1-7.25 2.875c-.492-.15-.742-.483-.75-1a4.987 4.987 0 0 1 .25-2.125 36.891 36.891 0 0 0 7.75-5.625z" fill="#fff"/><path fill-rule="evenodd" clip-rule="evenodd" d="M84.625 224.625c.208 2.54.332 5.123.375 7.75a.566.566 0 0 1 .375-.25c.355.452.855.619 1.5.5a5.208 5.208 0 0 1-2.25.25v-8.25z" fill="#000"/><path fill-rule="evenodd" clip-rule="evenodd" d="M73.375 231.375c.326-1.279.493-2.612.5-4a13.394 13.394 0 0 0-.5 4z" fill="#fff"/><path fill-rule="evenodd" clip-rule="evenodd" d="M111.625 218.625c.192.191.317.441.375.75.201 1.396.16 2.771-.125 4.125.173.267.298.559.375.875.125 1.498.166 2.998.125 4.5a11.316 11.316 0 0 1-1 5.125 45.199 45.199 0 0 1 2 10.875c.038 1.55.204 3.05.5 4.5.28 7.33.321 14.662.125 22a701.136 701.136 0 0 1-6.75 66.25 120.28 120.28 0 0 0-1 4.75c-.667.168-1.333.332-2 .5a106.76 106.76 0 0 1-.375 5.875l.25.875a32.008 32.008 0 0 1 7.5 3.875c1.13 1.305.963 2.387-.5 3.25a48.365 48.365 0 0 1-12.375-1.375 1.596 1.596 0 0 0-.75.25 3.564 3.564 0 0 1-.625 1.625 10.948 10.948 0 0 1-4.5-.25 2.356 2.356 0 0 1-.375-.625 337.952 337.952 0 0 1-.125-13c-1.668.052-3.335.138-5 .25-.042-10.167 0-20.333.125-30.5 2.62-10.9 5.204-21.818 7.75-32.75a407.83 407.83 0 0 0 3.625-19 .824.824 0 0 0 .375-.5c.124-.83.166-1.663.125-2.5a3.23 3.23 0 0 0-.125-1.25c-.25-.333-.5-.333-.75 0l-.25 3a1958.11 1958.11 0 0 1-12.5 54 3428.446 3428.446 0 0 1-10.5 31.25l-.375.375-3 .25c-.22.34-.303.715-.25 1.125l-.5-1.75a72.68 72.68 0 0 1-10-.75v1.25a1.38 1.38 0 0 1-.375-.75l-.25.25c-.171-.32-.13-.613.125-.875a8.128 8.128 0 0 0-2-.125 2.277 2.277 0 0 1-1.25-.25l-.25-2.75a858.338 858.338 0 0 1 3.25-39.25c.364-1.275.531-2.607.5-4 .282-4.1.698-8.182 1.25-12.25.347-1.192.514-2.442.5-3.75a260.605 260.605 0 0 1 5.875-33.25c.888-3.222 1.93-6.389 3.125-9.5a5.992 5.992 0 0 0 2 0c4.661-.388 9.328-.722 14-1a35.69 35.69 0 0 0 6.25-.75 4.593 4.593 0 0 0 1.5-.125c.296-.286.296-.578 0-.875a4.614 4.614 0 0 1 .125-1.5c.032.626.282 1.126.75 1.5a.827.827 0 0 1 .375-.5c.41.857 1.119 1.19 2.125 1a3.705 3.705 0 0 0 2.375-.625c.24-.933.323-1.891.25-2.875.296.086.504-.08.625-.5-.08.74-.08 1.49 0 2.25a.824.824 0 0 1 .375-.5c.008.517.258.85.75 1a42.825 42.825 0 0 0 7.25-2.875 1.1 1.1 0 0 0 .25-.875c.289-1.789.331-3.622.125-5.5a.567.567 0 0 1-.375.25l-.75-1c.453-.49.703-1.073.75-1.75.165-.787.665-1.162 1.5-1.125a.82.82 0 0 1-.5-.375c.237-1.31.32-2.643.25-4z" fill="#000"/><path fill-rule="evenodd" clip-rule="evenodd" d="M91.875 229.125a7.71 7.71 0 0 1 .25 2.75h1a5.208 5.208 0 0 1-2.25.25l.25-.5h.75v-2.5zM110.625 232.125a25.125 25.125 0 0 0-.25-5v-.25a.567.567 0 0 0 .375-.25 20.394 20.394 0 0 1-.125 5.5z" fill="#000"/><path fill-rule="evenodd" clip-rule="evenodd" d="M101.375 233.625a8.837 8.837 0 0 1-.25 2.875 3.705 3.705 0 0 1-2.375.625c-1.006.19-1.715-.143-2.125-1-.635-1.661-.218-2.953 1.25-3.875 1.76-.799 2.927-.341 3.5 1.375zM338.375 238.125a16.483 16.483 0 0 0-4-.5 162.017 162.017 0 0 1-17.5-2.625 2.366 2.366 0 0 1-.625-.375 12.45 12.45 0 0 1-.125-2.5 909.62 909.62 0 0 1 31 4.625c.235.595.317 1.22.25 1.875-3.02-.051-6.02-.218-9-.5z" fill="#fff"/><path fill-rule="evenodd" clip-rule="evenodd" d="M83.875 233.125a16.423 16.423 0 0 1-4 .5 13.397 13.397 0 0 1 4-.5z" fill="#000"/><path fill-rule="evenodd" clip-rule="evenodd" d="M95.375 236.625c.296.297.296.589 0 .875a4.593 4.593 0 0 1-1.5.125c-2.14.07-4.223.32-6.25.75-4.672.278-9.339.612-14 1h-1a28.87 28.87 0 0 0 .875-3.5c.116-.358.325-.649.625-.875 7.017-.34 14.017-.882 21-1.625-.08 1.133.004 2.217.25 3.25z" fill="#fff"/><path fill-rule="evenodd" clip-rule="evenodd" d="M77.875 232.375c-.06.323.024.573.25.75.355.452.855.619 1.5.5a7.694 7.694 0 0 1-2.75.25c.177-.226.427-.309.75-.25-.071-.479.012-.895.25-1.25z" fill="#000"/><path fill-rule="evenodd" clip-rule="evenodd" d="M343.375 239.875c1.545.167 3.127.333 4.75.5a65.252 65.252 0 0 1 4.625 16 1803.206 1803.206 0 0 0 4.375 30 52.021 52.021 0 0 0 4.875 17.5c.33.983.415 1.982.25 3a23.396 23.396 0 0 1-6.375 2.75 1.228 1.228 0 0 1-.625-.25 107.449 107.449 0 0 1-4-19.5c-1.333-12-2.668-24-4-36-.443-2.578-.86-5.161-1.25-7.75a1.097 1.097 0 0 0-.875-.25c.36 1.9.652 3.816.875 5.75a795.7 795.7 0 0 0 4.25 41.5 81.789 81.789 0 0 0 4.375 16.375c-.08.412-.33.663-.75.75a156.02 156.02 0 0 0-15.75 5.625c.397-1.555.647-3.138.75-4.75a630.31 630.31 0 0 0 2.5-39.75c.25-8.458.332-16.958.25-25.5h-1v6.25a5074.603 5074.603 0 0 0-2.25 50.75c-.103 4.41-.435 8.825-1 13.25a66.589 66.589 0 0 1-15.25 3 913.47 913.47 0 0 0 9.125-38.25 335.525 335.525 0 0 0 4.875-33.75c-.083-.583-.168-1.167-.25-1.75a2725.33 2725.33 0 0 1-3.875 23.5c-3.398 16.8-6.98 33.55-10.75 50.25a2.33 2.33 0 0 1-.625.375 65.472 65.472 0 0 1-13-.5.89.89 0 0 1-.25-.375 102.793 102.793 0 0 0 9.875-21.25c5.83-17.365 9.622-35.115 11.375-53.25a.893.893 0 0 0-.375.25 355.12 355.12 0 0 1-15.25 61 92.664 92.664 0 0 1-6.25 13c-.18.14-.39.223-.625.25a86.83 86.83 0 0 1-9.5-2.375c-.538-.065-.955-.315-1.25-.75 5.165-6.03 9.29-12.74 12.375-20.125a215.884 215.884 0 0 0 13.875-51.75c-.083-.167-.168-.333-.25-.5A334.25 334.25 0 0 1 309 288.375a124.682 124.682 0 0 1-9 19.25 121.776 121.776 0 0 1-5.375 7.625c-2.245-.49-4.038-1.697-5.375-3.625a6.945 6.945 0 0 1 .5-4 290.385 290.385 0 0 0 15.5-32.5 604.813 604.813 0 0 0 10.625-39c.15-.16.357-.243.625-.25a165.978 165.978 0 0 0 26.875 4z" fill="#fff"/><path fill-rule="evenodd" clip-rule="evenodd" d="M87.625 238.375a35.69 35.69 0 0 0 6.25-.75c-2.14.07-4.223.32-6.25.75zM338.375 238.125a16.483 16.483 0 0 0-4-.5c1.275.364 2.607.531 4 .5z" fill="#000"/><path fill-rule="evenodd" clip-rule="evenodd" d="M96.875 238.625c1.096-.082 2.18.002 3.25.25a47.207 47.207 0 0 1-6.125 10.5 16.547 16.547 0 0 1-4.125 3.5L86.625 251c-.254-.263-.296-.555-.125-.875a19.423 19.423 0 0 0 2.75-2.5 322.025 322.025 0 0 0 7.625-9zM41.125 247.375c.452-.002.869.123 1.25.375a61.935 61.935 0 0 1 3.25 3.375c-.748.348-1.456.763-2.125 1.25-.198 1.273.177 2.355 1.125 3.25-.216.27-.466.313-.75.125a32.356 32.356 0 0 0-2.75-2.125 12.272 12.272 0 0 0-2.75 2.375 4.78 4.78 0 0 1-1.75.875c-.255-.125-.297-.292-.125-.5a15.67 15.67 0 0 0 2-1.75c.203-.485.328-.985.375-1.5-1.333.583-2.667 1.168-4 1.75-.05-.472.116-.847.5-1.125a9.956 9.956 0 0 0 1.75-.875c.382-1.145-.035-1.52-1.25-1.125-1.004.48-2.045.855-3.125 1.125a.855.855 0 0 1-.625-.375 6.23 6.23 0 0 1 2-1.25 72.235 72.235 0 0 0 5.25-2.25 5.448 5.448 0 0 0 1.75-1.625z" fill="#fff"/><path fill-rule="evenodd" clip-rule="evenodd" d="M348.625 236.375c.052 1.202.095 2.452.125 3.75a58.816 58.816 0 0 1 4 11.5 817.7 817.7 0 0 1 5.375 34.25c-.27-.01-.52-.093-.75-.25a.77.77 0 0 0-.25.75 1803.206 1803.206 0 0 1-4.375-30 65.252 65.252 0 0 0-4.625-16 931.129 931.129 0 0 1-4.75-.5h5a14.89 14.89 0 0 1 .25-3.5z" fill="#000"/><path fill-rule="evenodd" clip-rule="evenodd" d="M315.375 234.625c-.113.627.055 1.127.5 1.5a604.813 604.813 0 0 1-10.625 39 290.385 290.385 0 0 1-15.5 32.5 6.945 6.945 0 0 0-.5 4c1.337 1.928 3.13 3.135 5.375 3.625 1.89-2.473 3.68-5.015 5.375-7.625a124.682 124.682 0 0 0 9-19.25 334.25 334.25 0 0 0 12.375-45.25c.082.167.167.333.25.5a215.884 215.884 0 0 1-13.875 51.75c-3.085 7.385-7.21 14.095-12.375 20.125.295.435.712.685 1.25.75a86.83 86.83 0 0 0 9.5 2.375c.235-.027.445-.11.625-.25a92.664 92.664 0 0 0 6.25-13 355.12 355.12 0 0 0 15.25-61 .893.893 0 0 1 .375-.25c-1.753 18.135-5.545 35.885-11.375 53.25a102.793 102.793 0 0 1-9.875 21.25.89.89 0 0 0 .25.375c4.315.598 8.647.765 13 .5a2.33 2.33 0 0 0 .625-.375c3.77-16.7 7.352-33.45 10.75-50.25a2725.33 2725.33 0 0 0 3.875-23.5c.082.583.167 1.167.25 1.75a335.525 335.525 0 0 1-4.875 33.75 913.47 913.47 0 0 1-9.125 38.25 66.589 66.589 0 0 0 15.25-3c.322.06.572-.025.75-.25a156.02 156.02 0 0 1 15.75-5.625c.42-.087.67-.338.75-.75a81.789 81.789 0 0 1-4.375-16.375 795.7 795.7 0 0 1-4.25-41.5 80.25 80.25 0 0 0-.875-5.75c.33-.043.622.041.875.25.39 2.589.807 5.172 1.25 7.75 1.332 12 2.667 24 4 36a107.449 107.449 0 0 0 4 19.5c.18.14.39.223.625.25a23.396 23.396 0 0 0 6.375-2.75 6.181 6.181 0 0 0-.25-3 52.021 52.021 0 0 1-4.875-17.5.77.77 0 0 1 .25-.75c.23.157.48.24.75.25.627 3.348 1.337 6.68 2.125 10 1.168 3 2.332 6 3.5 9 .382 2.037-.41 3.413-2.375 4.125a75.723 75.723 0 0 1-10 3.25c-.14.18-.223.39-.25.625a684.026 684.026 0 0 0 9 32.5c-.313-.02-.52-.185-.625-.5-.168.668-.332.668-.5 0-.03.485-.238.817-.625 1 .12-.23.203-.48.25-.75a377.158 377.158 0 0 1-8.25-32.25 314.402 314.402 0 0 0-14.75 5.375c-.757.135-1.507.302-2.25.5a.906.906 0 0 0-.5.5c3.297 7.64 6.84 15.18 10.625 22.625 1.65 3.102 3.44 6.102 5.375 9-.875-.06-.957.148-.25.625a.556.556 0 0 0-.25.375 13.778 13.778 0 0 1-2.625-3.5 207.207 207.207 0 0 1-13.375-29 10.087 10.087 0 0 0-3.5.5 12.819 12.819 0 0 0-3.75.5c-3.392.19-6.767.44-10.125.75-5.793 11.25-11.582 22.5-17.375 33.75a4.852 4.852 0 0 1-.75-1.25 3013.963 3013.963 0 0 0 17-32.75 43.875 43.875 0 0 1-15.125-2.5l-.375.25a1711.426 1711.426 0 0 1-10.5 31.25 3.239 3.239 0 0 0-.125-1.25 8.028 8.028 0 0 0-1 3c-.192-.275-.4-.275-.625 0a1958.35 1958.35 0 0 1 11.5-33.25 43.457 43.457 0 0 1-7.75-4.125c-2.29-1.87-2.832-4.162-1.625-6.875a377.022 377.022 0 0 0 15.25-31.25 166.217 166.217 0 0 0 3.25-9.75c2.92-10.6 5.795-21.184 8.625-31.75z" fill="#000"/><path fill-rule="evenodd" clip-rule="evenodd" d="M340.625 252.125a27.53 27.53 0 0 1 .375 3.75c.082-.832.167-1.668.25-2.5.125 6 .167 12 .125 18a630.31 630.31 0 0 1-2.5 39.75 2.19 2.19 0 0 1-.375-1 104.337 104.337 0 0 1-.125-7.25 5074.603 5074.603 0 0 1 2.25-50.75z" fill="#000"/><path fill-rule="evenodd" clip-rule="evenodd" d="M341.375 271.375c.042-6 0-12-.125-18-.083.832-.168 1.668-.25 2.5a27.53 27.53 0 0 0-.375-3.75v-6.25h1c.082 8.542 0 17.042-.25 25.5zM338.375 302.875c-.043 2.418 0 4.835.125 7.25.052.39.177.722.375 1a25.811 25.811 0 0 1-.75 4.75c-.178.225-.428.31-.75.25.565-4.425.897-8.84 1-13.25z" fill="#000"/><path fill-rule="evenodd" clip-rule="evenodd" d="M358.375 345.875a252.533 252.533 0 0 1-8 4.625 2.529 2.529 0 0 1-1.5.375 104.937 104.937 0 0 1-5.375-9 397.082 397.082 0 0 1-10.625-22.625.906.906 0 0 1 .5-.5 27.451 27.451 0 0 1 2.25-.5 314.402 314.402 0 0 1 14.75-5.375 377.158 377.158 0 0 0 8.25 32.25c-.047.27-.13.52-.25.75zM224.375 318.375h1c.042 1.668 0 3.335-.125 5-1.224 1.315-2.682 1.608-4.375.875a12.634 12.634 0 0 1-5.125-2.375 4.74 4.74 0 0 1-.375-2 39.242 39.242 0 0 0 9-1.5zM296.875 353.625c-.347.442-.64.942-.875 1.5-3.11.65-5.902-.1-8.375-2.25l-.25-.75c.168-.752.335-1.502.5-2.25a1711.426 1711.426 0 0 0 10.5-31.25l.375-.25a43.875 43.875 0 0 0 15.125 2.5 3013.963 3013.963 0 0 1-17 32.75zM161.125 319.625c2.398.472 4.814.808 7.25 1a3.05 3.05 0 0 1-.25 1.625c-2.415.125-4.832.168-7.25.125a8.57 8.57 0 0 1 .25-2.75zM328.875 319.875a12.819 12.819 0 0 1-3.75.5 12.819 12.819 0 0 1 3.75-.5z" fill="#fff"/><path fill-rule="evenodd" clip-rule="evenodd" d="M160.125 319.375c.327.798.327 1.63 0 2.5-.171.09-.337.175-.5.25a6.838 6.838 0 0 0 .5-2.75z" fill="#000"/><path fill-rule="evenodd" clip-rule="evenodd" d="M101.625 342.625h2a105.57 105.57 0 0 0-.75 6.25c-2.24.333-4.49.582-6.75.75l-2.25-.25-.375-.75a60.614 60.614 0 0 1-.125-5.5c2.792-.095 5.542-.263 8.25-.5zM71.125 345.375c-.232 1.408-.44 2.825-.625 4.25l-.625.625c-2.94.22-5.856.055-8.75-.5a8.44 8.44 0 0 1 0-3.875v-1.25c3.313.48 6.646.73 10 .75z" fill="#fff"/><path fill-rule="evenodd" clip-rule="evenodd" d="M360.125 345.375c1.278 2.553 2.568 5.135 3.875 7.75.178.618.093 1.2-.25 1.75-1.555 1.898-3.095 1.937-4.625.125-.285-.188-.535-.145-.75.125a207.261 207.261 0 0 0-5.625 6.5 27.91 27.91 0 0 1-7.875 6.125 1.613 1.613 0 0 1-1.25 0 3.233 3.233 0 0 1-.75-2.25c.138-1.163.43-2.288.875-3.375 1.48-2.875 3.02-5.71 4.625-8.5.27-.577.27-1.16 0-1.75a.556.556 0 0 1 .25-.375c-.707-.477-.625-.685.25-.625a2.529 2.529 0 0 0 1.5-.375c2.703-1.497 5.37-3.04 8-4.625.387-.183.595-.515.625-1 .168.668.332.668.5 0 .105.315.312.48.625.5zM58.625 344.375c.672-.04 1.339 0 2 .125-.254.262-.296.555-.125.875l.25-.25c.058.31.183.56.375.75a8.44 8.44 0 0 0 0 3.875c2.894.555 5.81.72 8.75.5l.625-.625c.184-1.425.393-2.842.625-4.25l.5 1.75a12.744 12.744 0 0 0-.125 4 30.733 30.733 0 0 1 7 4.5c.954 1.308.787 2.39-.5 3.25a90.164 90.164 0 0 1-12.25-3c-.487.595-.945 1.22-1.375 1.875-1.51.143-3.01.06-4.5-.25a7.276 7.276 0 0 1-.5-2.625c.209-3.422.459-6.837.75-10.25-.559.073-1.059-.01-1.5-.25zM287.875 349.875c-.165.748-.332 1.498-.5 2.25l.25.75c2.473 2.15 5.265 2.9 8.375 2.25a6.504 6.504 0 0 1 .875-1.5c.183.447.433.865.75 1.25-.327.895-.62 1.813-.875 2.75a42.113 42.113 0 0 1-1.125 6.875 69.673 69.673 0 0 1-4.25-.5 2.33 2.33 0 0 1-.625-.375c-.082-.582-.167-1.168-.25-1.75a2.44 2.44 0 0 0-1-.25 85.34 85.34 0 0 1-16.125.125c-1.952-.53-2.41-1.655-1.375-3.375a7.866 7.866 0 0 1 4-2.5c2.78-.855 5.573-1.647 8.375-2.375.983-.273 1.565-.897 1.75-1.875.225-.275.433-.275.625 0a8.028 8.028 0 0 1 1-3c.123.407.165.825.125 1.25z" fill="#000"/></svg>