<svg width="600" height="400" viewBox="0 0 600 400" fill="none" xmlns="http://www.w3.org/2000/svg">
<g clip-path="url(#clip0_3116_1020)">
<path d="M296.893 33.148C289.829 33.6455 282.316 35.5112 276.495 38.1978C271.968 40.2873 267.515 43.148 263.436 46.5809C259.829 49.5908 256.197 53.7202 253.361 57.9988C252.391 59.4913 243.784 74.2177 234.281 90.7102C224.779 107.203 213.958 125.884 210.276 132.253C195.824 157.128 188.436 170.039 187.167 172.551C184.655 177.551 183.087 182.352 182.092 188.098L181.57 191.083L181.421 195.312L181.271 199.541L181.57 202.526C182.49 211.432 185.053 219.044 189.754 226.78C191.769 230.113 195.077 234.292 198.013 237.228C201.048 240.262 205.202 243.521 208.709 245.611C215.202 249.491 222.291 251.954 230.102 253.073L233.212 253.521H367.043L370.102 253.073C373.983 252.526 376.794 251.879 380.227 250.76C386.943 248.546 393.013 245.188 398.386 240.71C399.48 239.79 401.62 237.775 403.112 236.208C407.092 232.078 409.605 228.596 412.291 223.521C416.048 216.382 418.087 209.243 418.709 200.959L419.008 197.178L418.709 193.372C418.162 186.158 416.52 179.939 413.485 173.496C412.839 172.078 411.048 168.795 409.53 166.208C408.013 163.596 401.097 151.631 394.157 139.591C387.217 127.551 376.371 108.795 370.077 97.9242C363.784 87.0535 356.172 73.8943 353.162 68.6953C347.59 59.0436 346.097 56.6804 343.436 53.3968C341.495 51.0087 337.963 47.5013 335.451 45.4615C330.276 41.3072 323.759 37.7998 317.416 35.7848C314.655 34.8893 311.819 34.2426 308.51 33.745C305.401 33.2973 299.356 32.9739 296.893 33.148ZM307.839 97.3769C310.451 97.9739 313.436 98.9441 315.575 99.9142C321.023 102.377 326.421 106.73 329.953 111.556C330.774 112.651 333.286 116.73 335.525 120.611C353.436 151.481 365.898 173.248 366.694 174.914C367.864 177.427 368.759 180.088 369.281 182.626L369.704 184.616L369.754 187.974L369.779 191.332L369.431 193.198C368.635 197.601 366.396 202.651 363.585 206.407C360.475 210.511 355.55 214.591 351.197 216.655C348.485 217.949 345.326 218.994 342.341 219.616L339.679 220.138H332.466L329.978 219.566C324.58 218.372 320.326 216.307 316.048 212.825C315.227 212.153 312.441 209.417 309.854 206.755L305.177 201.879L304.232 201.407C303.709 201.133 302.615 200.81 301.769 200.685L300.252 200.437L298.734 200.685C297.888 200.81 296.844 201.108 296.421 201.307C295.998 201.531 292.864 204.516 289.431 207.974L283.212 214.267L281.296 215.561C277.192 218.322 272.64 220.163 267.938 220.934L265.351 221.382L261.719 221.233L258.087 221.108L255.849 220.586C254.63 220.287 252.938 219.815 252.117 219.516C249.804 218.72 246.744 217.253 244.729 215.959C239.978 212.874 236.371 208.994 233.883 204.143C232.466 201.407 231.57 198.919 230.948 195.934L230.5 193.82V190.088L230.475 186.357L230.824 184.491C230.998 183.471 231.321 182.004 231.52 181.257C232.092 179.143 233.336 175.81 234.157 174.168C234.878 172.7 245.998 153.372 261.421 126.78C265.824 119.193 270.053 112.178 270.799 111.183C272.59 108.845 276.794 104.84 279.107 103.248C283.809 100.014 288.859 97.9988 294.655 97.0286L296.645 96.7052L301.122 96.8048L305.6 96.9043L307.839 97.3769Z" fill="#0045E5"/>
<path d="M296.071 112.378C294.28 112.676 290.623 114.094 288.981 115.089C287.19 116.184 285.101 117.975 283.608 119.716C282.24 121.308 282.713 120.537 262.862 154.89C254.927 168.647 248.061 180.686 247.613 181.656L246.792 183.398L246.295 185.91C245.673 188.895 245.648 190.487 246.146 193.124L246.519 195.064L247.439 196.93L248.359 198.796L250.35 200.786L252.364 202.801L254.379 203.846L256.394 204.89L258.484 205.388L260.573 205.885H265.101L267.041 205.388C268.136 205.114 269.852 204.467 270.872 203.97L272.762 203.074L279.106 196.681C282.588 193.149 286.021 189.865 286.718 189.393C288.434 188.174 291.195 186.88 293.907 186.084L296.146 185.388H300.25L304.354 185.413L306.295 185.935C308.782 186.607 312.066 188.149 314.056 189.592C314.927 190.189 317.787 192.95 320.424 195.686C323.061 198.423 325.872 201.109 326.643 201.656C327.439 202.204 328.782 203 329.653 203.398L331.22 204.119L333.583 204.542L335.947 204.94L337.563 204.766C341.32 204.393 344.703 203.149 347.29 201.209C348.757 200.114 350.872 198 351.718 196.756C352.613 195.438 353.658 193.149 354.006 191.706C354.18 190.96 354.33 189.393 354.33 188.224L354.305 186.109L353.907 184.492C353.658 183.597 353.285 182.428 353.061 181.88C352.688 181.01 321.693 127.079 319.106 122.801C317.19 119.642 315.623 117.95 312.588 115.736C311.295 114.791 308.31 113.423 306.22 112.801L304.603 112.303L300.996 112.229C299.006 112.179 296.792 112.229 296.071 112.378ZM350.126 295.438C346.096 295.885 342.713 297.005 341.544 298.273L340.922 298.97L340.847 322.975L340.797 346.955L341.27 348.074L341.767 349.194L342.837 349.666L343.907 350.164H345.947C347.066 350.164 348.534 350.04 349.23 349.865L350.499 349.592V331.258H361.842L364.205 330.86C367.116 330.363 369.827 329.492 371.767 328.398C374.728 326.731 377.34 323.846 378.733 320.686C379.056 319.965 379.504 318.522 379.703 317.502L380.101 315.612V310.587L379.703 308.696C379.205 306.283 378.26 304.194 376.792 302.253C374.379 299.069 371.195 297.179 366.17 295.91L364.056 295.388L358.086 295.313C354.802 295.263 351.22 295.338 350.126 295.438ZM362.116 303.273L364.056 303.647L365.847 304.517L367.638 305.413L368.509 306.433C369.006 307.005 369.653 308.099 369.952 308.846L370.474 310.239L370.499 312.975V315.711L369.952 317.129C369.628 317.9 369.056 318.945 368.633 319.492C367.588 320.786 365.623 322.079 363.558 322.801L361.817 323.373L356.046 323.497L350.25 323.597V303.448L352.315 303.199C353.434 303.074 355.648 302.95 357.265 302.925L360.151 302.9L362.116 303.273ZM152.986 296.159C152.091 296.408 151.146 296.731 150.847 296.88L150.325 297.154L147.265 305.189C142.837 316.855 137.091 332.9 134.155 341.831L132.986 345.313V347.9L133.484 348.597C133.757 348.995 134.479 349.542 135.076 349.865L136.17 350.413H138.011C139.031 350.413 140.3 350.288 140.822 350.139L141.767 349.841L143.285 345.089C144.131 342.477 145.101 339.418 145.474 338.273L146.121 336.234H167.539L169.479 342.054C170.549 345.263 171.668 348.273 171.966 348.721C172.265 349.169 172.912 349.741 173.384 349.965L174.255 350.413H177.787L178.882 350.04C180.101 349.592 181.096 348.771 181.096 348.199C181.096 347.527 174.603 327.726 170.573 316.084C168.21 309.293 164.553 299.393 164.031 298.373C163.509 297.353 162.215 296.507 160.573 296.059L159.106 295.686L156.842 295.711H154.603L152.986 296.159ZM161.369 316.209C163.608 322.9 165.424 328.472 165.424 328.572C165.424 328.696 161.568 328.771 156.842 328.771C152.116 328.771 148.26 328.721 148.26 328.671C148.26 328.472 154.031 311.681 155.374 307.925C156.195 305.711 156.942 303.92 157.066 303.97C157.19 304.02 159.131 309.517 161.369 316.209ZM229.603 296.781L228.484 297.079L228.409 318.199L228.359 339.343L228.608 341.01C228.733 341.93 229.081 343.298 229.379 344.069L229.877 345.438L231.096 346.781L232.34 348.099L234.006 348.995C234.952 349.467 236.369 350.064 237.19 350.313L238.683 350.761L242.663 350.786H246.643L248.011 350.313C249.553 349.791 250.897 348.895 251.618 347.95L252.116 347.303V343.771L251.444 342.9L250.748 342.005L248.956 342.627L247.141 343.273L244.529 343.298L241.917 343.323L240.524 342.676L239.131 342.03L238.633 341.308C238.335 340.91 237.986 340.139 237.837 339.592L237.563 338.597V316.582H250.549L251.245 315.836L251.966 315.064L252.141 313.945C252.34 312.627 252.116 311.084 251.593 310.089L251.22 309.368H237.563V299.293L237.116 298.423L236.693 297.552L235.573 296.98L234.479 296.433L232.588 296.457C231.568 296.482 230.225 296.607 229.603 296.781ZM202.364 307.378C199.827 307.602 196.817 308.423 194.902 309.443C194.081 309.865 192.787 310.836 192.016 311.607L190.648 312.975L189.777 314.716L188.932 316.457V322.676L189.752 324.343L190.573 326.01L191.842 327.154L193.136 328.298L195.374 329.393L197.638 330.487L202.862 331.88L208.086 333.298L209.305 333.945C209.951 334.318 210.772 334.94 211.071 335.363C211.394 335.761 211.792 336.632 211.942 337.253L212.24 338.398L211.942 339.467L211.668 340.512L210.748 341.482L209.827 342.452L208.335 343L206.842 343.522H200.872L199.155 343.099C197.24 342.651 194.852 341.656 192.514 340.338L190.947 339.443L190.424 339.716C189.703 340.089 188.608 341.855 188.409 342.875L188.26 343.721L188.558 344.841L188.882 345.935L189.877 346.955C191.22 348.273 193.31 349.318 196.245 350.114L198.633 350.736L203.857 350.761L209.081 350.786L211.195 350.189C213.981 349.443 216.444 348.124 218.086 346.507L219.429 345.214L220.126 343.647L220.847 342.079L221.146 340.139L221.444 338.199L221.146 336.408L220.872 334.617L220.151 333.124C219.752 332.303 219.155 331.333 218.807 330.985C216.991 329.045 214.305 327.452 210.971 326.308C210.076 326.01 207.638 325.313 205.524 324.766C203.434 324.219 201.22 323.547 200.648 323.323C200.076 323.074 199.255 322.477 198.832 321.98L198.086 321.109L197.912 320.214L197.738 319.318L198.011 318.348L198.26 317.378L199.23 316.507C199.752 316.035 200.797 315.438 201.519 315.189L202.862 314.716L205.971 314.741H209.081L211.071 315.313C212.165 315.612 213.981 316.308 215.126 316.831L217.19 317.801L217.638 317.527C217.862 317.378 218.335 316.88 218.658 316.408L219.23 315.562L219.354 314.244L219.454 312.925L219.081 312.179C218.534 311.134 216.817 309.666 215.474 309.094C213.384 308.199 210.872 307.627 207.837 307.378C206.195 307.253 204.752 307.154 204.603 307.179C204.479 307.179 203.459 307.278 202.364 307.378ZM275.101 307.403C272.464 307.627 269.081 308.348 266.917 309.144C266.17 309.418 264.777 310.064 263.857 310.537L262.165 311.433L261.071 312.651L259.951 313.895L259.703 314.791L259.454 315.711V347.552L259.951 348.348C260.2 348.796 260.723 349.343 261.096 349.567L261.743 350.015L263.782 350.114L265.822 350.214L267.24 349.915L268.658 349.642L268.708 333.423L268.782 317.204L270.399 316.557C271.295 316.209 272.862 315.711 273.882 315.438L275.748 314.965H279.479C281.544 314.965 283.608 315.04 284.106 315.164L285.026 315.338L285.474 314.418C285.698 313.895 285.971 312.875 286.021 312.179L286.121 310.86L285.822 310.114C285.126 308.398 283.111 307.502 279.479 307.303C278.384 307.229 276.419 307.278 275.101 307.403ZM305.325 307.403C302.116 307.651 299.106 308.373 296.767 309.443C294.802 310.338 293.981 311.035 293.558 312.179C292.961 313.746 293.434 315.811 294.678 317.129L295.325 317.776L296.593 317.204C298.807 316.234 302.514 315.139 304.703 314.841L306.792 314.517L309.056 314.666L311.32 314.816L312.837 315.338C314.653 315.96 315.996 317.03 316.718 318.398L317.265 319.443L317.29 321.656V323.895L310.449 324.567C306.693 324.965 302.588 325.487 301.345 325.786C297.364 326.681 294.305 328.472 292.688 330.836C292.165 331.582 291.544 332.875 291.27 333.721L290.797 335.288V337.676C290.822 340.462 291.046 341.731 291.966 343.647L292.613 345.015L294.056 346.433L295.474 347.85L297.315 348.746C298.31 349.219 300.101 349.89 301.245 350.214L303.359 350.786H314.305L316.121 350.338C320.325 349.318 323.285 348 324.976 346.358L326.071 345.313L326.345 344.318L326.618 343.323V331.88L326.593 320.438L326.27 318.522C325.424 313.821 322.738 310.661 318.061 308.846C314.678 307.527 310.151 307.005 305.325 307.403ZM317.414 336.383V341.98L316.295 342.477C315.673 342.751 314.354 343.149 313.359 343.348L311.568 343.746L308.335 343.622L305.101 343.522L304.031 343.149C301.593 342.254 300.2 340.711 299.877 338.448L299.703 337.328L300.001 336.209C300.424 334.666 301.096 333.821 302.514 333.124C304.23 332.253 306.22 331.831 310.947 331.383C313.21 331.159 315.175 330.935 315.3 330.885C315.449 330.836 315.971 330.786 316.494 330.786L317.414 330.761V336.383ZM399.354 307.403C395.026 307.726 390.922 308.97 388.857 310.537C387.862 311.283 387.315 312.452 387.315 313.846C387.315 314.99 387.812 316.134 388.733 317.129L389.354 317.776L390.623 317.204C392.837 316.234 396.544 315.139 398.733 314.841L400.822 314.517L403.086 314.666L405.35 314.816L406.867 315.338C408.683 315.96 410.026 317.03 410.748 318.398L411.295 319.443L411.32 321.656V323.895L404.479 324.567C400.723 324.965 396.618 325.487 395.374 325.786C391.394 326.681 388.335 328.472 386.718 330.836C386.195 331.582 385.573 332.875 385.3 333.721L384.827 335.288V337.676C384.852 340.462 385.076 341.731 385.996 343.647L386.643 345.015L388.036 346.408L389.429 347.801L391.295 348.721C392.34 349.219 394.131 349.89 395.275 350.214L397.389 350.786H408.335L410.151 350.338C414.355 349.318 417.315 348 419.006 346.358L420.101 345.313L420.374 344.318L420.648 343.323V331.88L420.623 320.438L420.3 318.522C419.454 313.821 416.767 310.661 412.091 308.846C408.708 307.527 404.18 307.005 399.354 307.403ZM411.444 336.383V341.98L410.325 342.477C409.703 342.751 408.384 343.149 407.389 343.348L405.598 343.746L402.364 343.622L399.131 343.522L398.061 343.149C395.623 342.254 394.18 340.637 393.882 338.423L393.733 337.353L394.031 336.234C394.205 335.612 394.553 334.816 394.827 334.418C395.449 333.547 397.315 332.602 399.305 332.129C400.175 331.93 402.713 331.607 404.976 331.383C407.24 331.159 409.205 330.935 409.33 330.885C409.479 330.836 410.001 330.786 410.524 330.786L411.444 330.761V336.383ZM429.976 308.224C429.305 308.547 428.484 309.069 428.185 309.393L427.663 309.99L429.852 316.582C432.937 325.96 436.071 333.721 439.28 340.064L440.897 343.298L442.19 344.592C442.912 345.313 443.882 346.035 444.379 346.209L445.25 346.532L444.852 347.278C443.384 350.114 439.305 355.388 435.623 359.169L433.036 361.831L433.359 362.726C433.807 363.97 434.951 365.263 436.096 365.836L437.041 366.333H440.325L441.544 365.711C445.797 363.547 452.439 353.97 457.34 342.95C457.862 341.781 458.484 340.388 458.733 339.841C459.777 337.477 461.991 331.582 463.285 327.652C465.822 320.064 467.165 314.517 467.165 311.607V309.94L466.618 309.244C466.32 308.87 465.623 308.348 465.076 308.099L464.056 307.627H462.638C461.842 307.627 460.673 307.801 460.026 308.025C459.379 308.249 458.807 308.448 458.757 308.497C458.708 308.522 458.136 310.786 457.464 313.497C456.817 316.234 455.847 319.841 455.35 321.557C453.011 329.567 449.23 339.965 448.658 339.965C448.509 339.965 447.34 337.353 446.096 334.169C443.285 327.154 441.693 322.851 439.305 315.86L437.464 310.512L436.693 309.517C436.27 308.945 435.549 308.298 435.076 308.074L434.205 307.651H432.713L431.22 307.627L429.976 308.224Z" fill="#0045E5"/>
<path d="M294.404 96.7809C288.608 97.751 283.558 99.766 278.856 103C276.543 104.592 272.339 108.597 270.548 110.935C269.802 111.93 265.573 118.945 261.17 126.532C245.747 153.124 234.628 172.453 233.906 173.92C233.085 175.562 231.842 178.895 231.269 181.01C231.07 181.756 230.747 183.224 230.548 184.244L230.225 186.109V190.089L230.249 194.069L230.697 196.184C231.319 199.169 232.215 201.657 233.633 204.393C236.12 209.244 239.727 213.124 244.478 216.209C246.493 217.502 249.553 218.97 251.866 219.766C252.687 220.064 254.379 220.537 255.598 220.836L257.837 221.358L261.717 221.482L265.623 221.632L268.185 221.184C272.886 220.413 277.439 218.572 281.543 215.811L283.458 214.517L289.677 208.224C293.11 204.766 296.245 201.781 296.667 201.557C297.115 201.358 298.085 201.084 298.856 200.96L300.249 200.736L301.643 200.96C302.414 201.084 303.458 201.383 303.981 201.657L304.926 202.129L309.603 207.005C312.19 209.666 314.976 212.403 315.797 213.074C320.075 216.557 324.304 218.597 329.727 219.816L332.215 220.388H336.07L339.926 220.413L342.588 219.865C345.573 219.244 348.732 218.199 351.444 216.905C355.797 214.841 360.722 210.761 363.832 206.657C366.643 202.9 368.881 197.851 369.677 193.448L370.026 191.582L370.001 188.099V184.617L369.553 182.502C369.006 179.865 368.135 177.254 366.941 174.666C366.145 173 353.682 151.234 335.772 120.363C333.533 116.482 331.021 112.403 330.2 111.308C326.667 106.482 321.269 102.129 315.822 99.6665C313.682 98.6963 310.697 97.7262 308.085 97.1292L305.846 96.6316L301.12 96.557L296.394 96.4575L294.404 96.7809ZM305.971 113.05C308.06 113.671 311.045 115.04 312.339 115.985C315.374 118.199 316.941 119.89 318.856 123.05C321.444 127.328 352.439 181.259 352.812 182.129C354.006 184.965 354.404 188.771 353.757 191.458C353.409 192.9 352.364 195.189 351.468 196.507C350.623 197.726 348.533 199.865 347.14 200.91C344.603 202.801 341.717 203.945 338.284 204.393L336.145 204.691L333.807 204.268L331.468 203.87L329.901 203.149C329.031 202.751 327.687 201.955 326.891 201.408C326.12 200.86 323.309 198.174 320.672 195.438C318.036 192.701 315.175 189.94 314.304 189.343C312.314 187.925 309.031 186.383 306.543 185.686L304.603 185.139H295.896L293.657 185.836C290.946 186.632 288.185 187.925 286.468 189.144C285.772 189.617 282.339 192.9 278.856 196.433L272.513 202.826L270.623 203.721C269.603 204.219 267.886 204.865 266.792 205.139L264.851 205.637H260.822L258.732 205.139L256.643 204.642L254.628 203.597L252.613 202.552L250.598 200.537L248.608 198.547L247.687 196.681L246.767 194.816L246.394 192.875C246.195 191.806 246.021 190.413 246.021 189.791C246.021 189.169 246.245 187.552 246.543 186.159L247.041 183.647L247.861 181.905C248.309 180.935 255.175 168.895 263.11 155.139C282.961 120.786 282.488 121.557 283.856 119.965C285.349 118.224 287.439 116.433 289.23 115.338C290.871 114.343 294.528 112.925 296.319 112.602C297.041 112.477 299.155 112.428 300.996 112.477L304.354 112.552L305.971 113.05Z" fill="#EEE809"/>
<path d="M298.083 33.1741C298.183 33.2488 298.332 33.2488 298.432 33.1741C298.506 33.0746 298.432 33 298.257 33C298.083 33 298.009 33.0746 298.083 33.1741ZM262.163 47.602L261.815 48.0498L262.262 47.7015C262.66 47.3781 262.785 47.1791 262.586 47.1791C262.536 47.1791 262.337 47.3781 262.163 47.602ZM407.063 231.557L406.889 231.831L407.163 231.657C407.337 231.557 407.461 231.433 407.461 231.358C407.461 231.159 407.238 231.259 407.063 231.557ZM194.651 233.746C194.725 233.871 194.85 233.995 194.924 233.995C194.999 233.995 194.974 233.871 194.899 233.746C194.825 233.597 194.7 233.498 194.626 233.498C194.551 233.498 194.576 233.597 194.651 233.746ZM199.128 238.473C199.203 238.597 199.327 238.721 199.402 238.721C199.476 238.721 199.452 238.597 199.377 238.473C199.302 238.323 199.178 238.224 199.103 238.224C199.029 238.224 199.054 238.323 199.128 238.473ZM201.367 240.463C201.442 240.587 201.566 240.711 201.641 240.711C201.715 240.711 201.69 240.587 201.616 240.463C201.541 240.313 201.417 240.214 201.342 240.214C201.267 240.214 201.292 240.313 201.367 240.463ZM352.063 295.363C352.163 295.438 352.312 295.438 352.412 295.363C352.486 295.264 352.412 295.189 352.238 295.189C352.063 295.189 351.989 295.264 352.063 295.363ZM349.327 295.612C349.427 295.687 349.576 295.687 349.675 295.612C349.75 295.512 349.675 295.438 349.501 295.438C349.327 295.438 349.253 295.512 349.327 295.612ZM353.805 303.075C353.904 303.149 354.054 303.149 354.153 303.075C354.228 302.975 354.153 302.9 353.979 302.9C353.805 302.9 353.73 302.975 353.805 303.075ZM198.73 316.756L198.382 317.204L198.83 316.856C199.228 316.532 199.352 316.333 199.153 316.333C199.103 316.333 198.904 316.532 198.73 316.756ZM368.258 319.866L368.083 320.139L368.357 319.965C368.656 319.791 368.755 319.567 368.556 319.567C368.481 319.567 368.357 319.692 368.258 319.866ZM376.218 324.592L376.044 324.866L376.317 324.692C376.616 324.517 376.715 324.294 376.516 324.294C376.442 324.294 376.317 324.418 376.218 324.592ZM293.879 329.318L293.705 329.592L293.979 329.418C294.277 329.244 294.377 329.02 294.178 329.02C294.103 329.02 293.979 329.144 293.879 329.318ZM387.909 329.318L387.735 329.592L388.009 329.418C388.183 329.318 388.307 329.194 388.307 329.119C388.307 328.92 388.083 329.02 387.909 329.318ZM221.143 337.478C221.143 337.652 221.218 337.726 221.317 337.652C221.392 337.552 221.392 337.403 221.317 337.303C221.218 337.229 221.143 337.303 221.143 337.478ZM395.646 341.955C395.72 342.08 395.845 342.204 395.919 342.204C395.994 342.204 395.969 342.08 395.894 341.955C395.82 341.806 395.695 341.706 395.621 341.706C395.546 341.706 395.571 341.806 395.646 341.955ZM218.506 345.985L218.332 346.259L218.606 346.085C218.904 345.91 219.004 345.687 218.805 345.687C218.73 345.687 218.606 345.811 218.506 345.985ZM189.675 346.93C189.75 347.055 189.874 347.179 189.949 347.179C190.024 347.179 189.999 347.055 189.924 346.93C189.85 346.781 189.725 346.682 189.651 346.682C189.576 346.682 189.601 346.781 189.675 346.93ZM388.432 346.93C388.506 347.055 388.631 347.179 388.705 347.179C388.78 347.179 388.755 347.055 388.68 346.93C388.606 346.781 388.481 346.682 388.407 346.682C388.332 346.682 388.357 346.781 388.432 346.93ZM437.909 356.682L437.735 356.955L438.009 356.781C438.307 356.607 438.407 356.383 438.208 356.383C438.133 356.383 438.009 356.507 437.909 356.682Z" fill="#D5DFF9"/>
<path d="M300.322 33.1741C300.421 33.2488 300.571 33.2488 300.67 33.1741C300.745 33.0746 300.67 33 300.496 33C300.322 33 300.247 33.0746 300.322 33.1741ZM261.79 47.9751L261.615 48.2488L261.889 48.0746C262.188 47.9005 262.287 47.6766 262.088 47.6766C262.013 47.6766 261.889 47.801 261.79 47.9751ZM342.66 52.6517C342.735 52.7761 342.859 52.9005 342.934 52.9005C343.008 52.9005 342.984 52.7761 342.909 52.6517C342.834 52.5025 342.71 52.403 342.635 52.403C342.561 52.403 342.586 52.5025 342.66 52.6517ZM326.367 107.005C326.69 107.353 327.013 107.627 327.063 107.627C327.138 107.627 326.939 107.353 326.615 107.005C326.292 106.657 325.969 106.383 325.919 106.383C325.844 106.383 326.043 106.657 326.367 107.005ZM314.551 117.826C314.625 117.95 314.75 118.075 314.824 118.075C314.899 118.075 314.874 117.95 314.8 117.826C314.725 117.677 314.601 117.577 314.526 117.577C314.451 117.577 314.476 117.677 314.551 117.826ZM285.421 118.124L285.247 118.398L285.521 118.224C285.819 118.05 285.919 117.826 285.72 117.826C285.645 117.826 285.521 117.95 285.421 118.124ZM284.302 119.244L283.954 119.692L284.401 119.343C284.625 119.169 284.824 118.97 284.824 118.92C284.824 118.721 284.625 118.846 284.302 119.244ZM284.924 190.264L284.75 190.537L285.023 190.363C285.322 190.189 285.421 189.965 285.222 189.965C285.148 189.965 285.023 190.09 284.924 190.264ZM181.342 193.448C181.342 193.622 181.416 193.697 181.516 193.622C181.591 193.522 181.591 193.373 181.516 193.274C181.416 193.199 181.342 193.274 181.342 193.448ZM321.516 196.433C321.591 196.557 321.715 196.682 321.79 196.682C321.864 196.682 321.839 196.557 321.765 196.433C321.69 196.284 321.566 196.184 321.491 196.184C321.416 196.184 321.441 196.284 321.516 196.433ZM349.227 199.095L348.879 199.542L349.327 199.194C349.551 199.02 349.75 198.821 349.75 198.771C349.75 198.572 349.551 198.697 349.227 199.095ZM305.72 203C305.72 203.05 305.919 203.249 306.168 203.423L306.591 203.771L306.242 203.323C305.919 202.925 305.72 202.801 305.72 203ZM289.402 208.423L289.227 208.697L289.501 208.522C289.8 208.348 289.899 208.124 289.7 208.124C289.625 208.124 289.501 208.249 289.402 208.423ZM238.929 211.856C239.178 212.129 239.426 212.353 239.501 212.353C239.576 212.353 239.426 212.129 239.178 211.856C238.929 211.582 238.68 211.358 238.605 211.358C238.531 211.358 238.68 211.582 238.929 211.856ZM314.551 212.104C314.625 212.229 314.75 212.353 314.824 212.353C314.899 212.353 314.874 212.229 314.8 212.104C314.725 211.955 314.601 211.856 314.526 211.856C314.451 211.856 314.476 211.955 314.551 212.104ZM316.043 213.348C316.118 213.473 316.242 213.597 316.317 213.597C316.392 213.597 316.367 213.473 316.292 213.348C316.217 213.199 316.093 213.1 316.018 213.1C315.944 213.1 315.969 213.199 316.043 213.348ZM404.824 234.294L404.65 234.567L404.924 234.393C405.098 234.294 405.222 234.169 405.222 234.095C405.222 233.896 404.999 233.995 404.824 234.294ZM197.262 236.557C197.262 236.607 197.635 236.955 198.083 237.378L198.879 238.1L198.158 237.279C197.461 236.532 197.262 236.358 197.262 236.557ZM202.61 241.458C202.685 241.582 202.809 241.706 202.884 241.706C202.959 241.706 202.934 241.582 202.859 241.458C202.785 241.308 202.66 241.209 202.586 241.209C202.511 241.209 202.536 241.308 202.61 241.458ZM201.068 307.552C201.168 307.627 201.317 307.627 201.416 307.552C201.491 307.453 201.416 307.378 201.242 307.378C201.068 307.378 200.994 307.453 201.068 307.552ZM363.755 330.935C363.854 331.01 364.003 331.01 364.103 330.935C364.178 330.836 364.103 330.761 363.929 330.761C363.755 330.761 363.68 330.836 363.755 330.935ZM210.67 341.632L210.322 342.08L210.77 341.731C210.994 341.557 211.193 341.358 211.193 341.308C211.193 341.109 210.994 341.234 210.67 341.632ZM246.093 343.373C246.193 343.448 246.342 343.448 246.441 343.373C246.516 343.274 246.441 343.199 246.267 343.199C246.093 343.199 246.018 343.274 246.093 343.373ZM293.406 345.935C293.481 346.06 293.605 346.184 293.68 346.184C293.755 346.184 293.73 346.06 293.655 345.935C293.581 345.786 293.456 345.687 293.382 345.687C293.307 345.687 293.332 345.786 293.406 345.935ZM217.635 346.856L217.287 347.303L217.735 346.955C217.959 346.781 218.158 346.582 218.158 346.532C218.158 346.333 217.959 346.458 217.635 346.856ZM294.153 346.682C294.227 346.806 294.352 346.93 294.426 346.93C294.501 346.93 294.476 346.806 294.401 346.682C294.327 346.532 294.202 346.433 294.128 346.433C294.053 346.433 294.078 346.532 294.153 346.682ZM324.476 346.731L324.302 347.005L324.576 346.831C324.874 346.657 324.974 346.433 324.775 346.433C324.7 346.433 324.576 346.557 324.476 346.731Z" fill="#0E4EE0"/>
<path d="M336.443 46.4323C336.518 46.5567 336.642 46.6811 336.717 46.6811C336.791 46.6811 336.767 46.5567 336.692 46.4323C336.617 46.2831 336.493 46.1836 336.418 46.1836C336.344 46.1836 336.369 46.2831 336.443 46.4323ZM339.553 49.293C339.876 49.6413 340.199 49.9149 340.249 49.9149C340.324 49.9149 340.125 49.6413 339.801 49.293C339.478 48.9448 339.155 48.6712 339.105 48.6712C339.03 48.6712 339.229 48.9448 339.553 49.293ZM406.07 232.8L405.896 233.074L406.17 232.9C406.468 232.726 406.568 232.502 406.369 232.502C406.294 232.502 406.17 232.626 406.07 232.8ZM196.767 236.084C196.767 236.134 196.966 236.333 197.214 236.507L197.637 236.855L197.289 236.407C196.966 236.009 196.767 235.885 196.767 236.084ZM198.508 237.825C198.508 237.875 198.707 238.074 198.956 238.248L199.379 238.597L199.03 238.149C198.707 237.751 198.508 237.626 198.508 237.825ZM198.881 322.303C198.956 322.427 199.08 322.552 199.155 322.552C199.229 322.552 199.204 322.427 199.13 322.303C199.055 322.154 198.931 322.054 198.856 322.054C198.782 322.054 198.806 322.154 198.881 322.303ZM293.508 329.691L293.16 330.139L293.607 329.791C294.005 329.467 294.13 329.268 293.931 329.268C293.881 329.268 293.682 329.467 293.508 329.691ZM387.662 329.567L387.488 329.84L387.762 329.666C387.936 329.567 388.06 329.442 388.06 329.368C388.06 329.169 387.836 329.268 387.662 329.567Z" fill="#5F89EE"/>
<path d="M338.929 48.6701C339.003 48.7945 339.128 48.9189 339.202 48.9189C339.277 48.9189 339.252 48.7945 339.177 48.6701C339.103 48.5209 338.978 48.4214 338.904 48.4214C338.829 48.4214 338.854 48.5209 338.929 48.6701ZM196.64 235.984C196.715 236.108 196.839 236.232 196.914 236.232C196.988 236.232 196.963 236.108 196.889 235.984C196.814 235.834 196.69 235.735 196.615 235.735C196.54 235.735 196.565 235.834 196.64 235.984ZM235.272 253.571C235.446 253.645 235.67 253.62 235.744 253.546C235.844 253.471 235.695 253.397 235.421 253.421L234.948 253.446L235.272 253.571ZM262.038 311.655L261.864 311.929L262.137 311.755C262.312 311.655 262.436 311.531 262.436 311.456C262.436 311.257 262.212 311.357 262.038 311.655ZM420.396 320.312C420.396 320.486 420.471 320.561 420.57 320.486C420.645 320.387 420.645 320.237 420.57 320.138C420.471 320.063 420.396 320.138 420.396 320.312ZM387.411 329.814L387.237 330.088L387.511 329.914C387.685 329.814 387.809 329.69 387.809 329.615C387.809 329.416 387.585 329.516 387.411 329.814ZM221.142 338.969C221.142 339.143 221.217 339.217 221.317 339.143C221.391 339.043 221.391 338.894 221.317 338.795C221.217 338.72 221.142 338.795 221.142 338.969ZM202.312 343.62C202.411 343.695 202.56 343.695 202.66 343.62C202.734 343.521 202.66 343.446 202.486 343.446C202.312 343.446 202.237 343.521 202.312 343.62ZM218.132 346.357L217.784 346.804L218.232 346.456C218.456 346.282 218.655 346.083 218.655 346.033C218.655 345.834 218.456 345.959 218.132 346.357ZM132.834 346.929C132.834 347.103 132.909 347.178 133.008 347.103C133.083 347.003 133.083 346.854 133.008 346.755C132.909 346.68 132.834 346.755 132.834 346.929ZM440.396 353.695L440.222 353.969L440.496 353.795C440.794 353.62 440.894 353.397 440.695 353.397C440.62 353.397 440.496 353.521 440.396 353.695Z" fill="#8FACF3"/>
<path d="M298.331 33.1741C298.431 33.2488 298.58 33.2488 298.68 33.1741C298.754 33.0746 298.68 33 298.506 33C298.331 33 298.257 33.0746 298.331 33.1741ZM301.565 33.1741C301.665 33.2488 301.814 33.2488 301.914 33.1741C301.988 33.0746 301.914 33 301.739 33C301.565 33 301.491 33.0746 301.565 33.1741ZM305.545 33.4229C305.645 33.4975 305.794 33.4975 305.894 33.4229C305.968 33.3234 305.894 33.2488 305.72 33.2488C305.545 33.2488 305.471 33.3234 305.545 33.4229ZM418.655 194.194C418.655 194.368 418.729 194.443 418.829 194.368C418.904 194.269 418.904 194.119 418.829 194.02C418.729 193.945 418.655 194.02 418.655 194.194ZM418.655 200.164C418.655 200.338 418.729 200.413 418.829 200.338C418.904 200.239 418.904 200.09 418.829 199.99C418.729 199.915 418.655 199.99 418.655 200.164ZM181.341 201.159C181.341 201.333 181.416 201.408 181.516 201.333C181.59 201.234 181.59 201.085 181.516 200.985C181.416 200.91 181.341 200.985 181.341 201.159ZM364.501 253.572C364.6 253.647 364.749 253.647 364.849 253.572C364.924 253.473 364.849 253.398 364.675 253.398C364.501 253.398 364.426 253.473 364.501 253.572ZM362.013 295.363C362.113 295.438 362.262 295.438 362.361 295.363C362.436 295.264 362.361 295.189 362.187 295.189C362.013 295.189 361.938 295.264 362.013 295.363ZM204.675 307.303C204.973 307.353 205.421 307.353 205.67 307.303C205.894 307.229 205.645 307.179 205.098 307.204H204.103L204.675 307.303ZM277.809 307.303C278.108 307.353 278.555 307.353 278.804 307.303C279.028 307.229 278.779 307.179 278.232 307.204H277.237L277.809 307.303ZM308.157 307.303C308.456 307.353 308.904 307.353 309.152 307.303C309.376 307.229 309.128 307.179 308.58 307.204H307.585L308.157 307.303ZM402.187 307.303C402.486 307.353 402.933 307.353 403.182 307.303C403.406 307.229 403.157 307.179 402.61 307.204H401.615L402.187 307.303ZM208.033 314.766C208.132 314.841 208.282 314.841 208.381 314.766C208.456 314.667 208.381 314.592 208.207 314.592C208.033 314.592 207.958 314.667 208.033 314.766ZM314.501 324.219C314.6 324.294 314.749 324.294 314.849 324.219C314.924 324.119 314.849 324.045 314.675 324.045C314.501 324.045 314.426 324.119 314.501 324.219ZM408.531 324.219C408.63 324.294 408.779 324.294 408.879 324.219C408.953 324.119 408.879 324.045 408.705 324.045C408.53 324.045 408.456 324.119 408.531 324.219ZM309.774 324.716C309.874 324.791 310.023 324.791 310.123 324.716C310.197 324.617 310.123 324.542 309.948 324.542C309.774 324.542 309.7 324.617 309.774 324.716ZM403.804 324.716C403.904 324.791 404.053 324.791 404.152 324.716C404.227 324.617 404.152 324.542 403.978 324.542C403.804 324.542 403.73 324.617 403.804 324.716ZM313.008 331.184C313.108 331.259 313.257 331.259 313.356 331.184C313.431 331.085 313.356 331.01 313.182 331.01C313.008 331.01 312.933 331.085 313.008 331.184ZM362.013 331.184C362.113 331.259 362.262 331.259 362.361 331.184C362.436 331.085 362.361 331.01 362.187 331.01C362.013 331.01 361.938 331.085 362.013 331.184ZM407.038 331.184C407.137 331.259 407.287 331.259 407.386 331.184C407.461 331.085 407.386 331.01 407.212 331.01C407.038 331.01 406.963 331.085 407.038 331.184ZM132.834 346.184C132.834 346.358 132.909 346.433 133.008 346.358C133.083 346.259 133.083 346.109 133.008 346.01C132.909 345.935 132.834 346.01 132.834 346.184ZM207.287 350.836C207.386 350.91 207.535 350.91 207.635 350.836C207.71 350.736 207.635 350.662 207.461 350.662C207.287 350.662 207.212 350.736 207.287 350.836Z" fill="#BFCFF7"/>
<path d="M298.955 33.1732C299.104 33.223 299.403 33.223 299.577 33.1732C299.726 33.0986 299.602 33.0488 299.253 33.0488C298.905 33.0488 298.781 33.0986 298.955 33.1732ZM300.696 33.1732C300.845 33.223 301.144 33.223 301.318 33.1732C301.467 33.0986 301.343 33.0488 300.995 33.0488C300.646 33.0488 300.522 33.0986 300.696 33.1732ZM418.656 194.442C418.656 194.616 418.731 194.691 418.83 194.616C418.905 194.516 418.905 194.367 418.83 194.268C418.731 194.193 418.656 194.268 418.656 194.442ZM235.646 253.571C235.746 253.646 235.895 253.646 235.995 253.571C236.069 253.472 235.995 253.397 235.821 253.397C235.646 253.397 235.572 253.472 235.646 253.571ZM364.129 253.571C364.303 253.646 364.527 253.621 364.602 253.546C364.701 253.472 364.552 253.397 364.278 253.422L363.806 253.447L364.129 253.571ZM221.194 338.223C221.194 338.696 221.243 338.895 221.318 338.646C221.368 338.422 221.368 338.024 221.318 337.775C221.243 337.551 221.194 337.75 221.194 338.223ZM228.358 339.964C228.358 340.138 228.432 340.213 228.532 340.138C228.607 340.039 228.607 339.89 228.532 339.79C228.432 339.716 228.358 339.79 228.358 339.964ZM205.049 343.621C205.149 343.696 205.298 343.696 205.398 343.621C205.472 343.521 205.398 343.447 205.224 343.447C205.049 343.447 204.975 343.521 205.049 343.621ZM132.86 346.581L132.885 347.054L133.01 346.73C133.084 346.556 133.059 346.332 132.985 346.258C132.91 346.158 132.835 346.308 132.86 346.581Z" fill="#3F72EA"/>
<path d="M270.498 110.909L270.323 111.183L270.597 111.009C270.771 110.909 270.896 110.785 270.896 110.71C270.896 110.511 270.672 110.611 270.498 110.909ZM269.751 111.905L269.577 112.178L269.851 112.004C270.025 111.904 270.149 111.78 270.149 111.705C270.149 111.506 269.925 111.606 269.751 111.905ZM287.164 116.631L286.99 116.904L287.264 116.73C287.562 116.556 287.662 116.332 287.463 116.332C287.388 116.332 287.264 116.457 287.164 116.631ZM369.901 186.482C369.901 186.656 369.975 186.73 370.075 186.656C370.149 186.556 370.149 186.407 370.075 186.307C369.975 186.233 369.901 186.307 369.901 186.482ZM230.1 187.477C230.1 187.651 230.174 187.725 230.274 187.651C230.348 187.551 230.348 187.402 230.274 187.303C230.174 187.228 230.1 187.303 230.1 187.477ZM353.98 189.467C353.98 189.641 354.055 189.715 354.154 189.641C354.229 189.541 354.229 189.392 354.154 189.293C354.055 189.218 353.98 189.293 353.98 189.467ZM369.901 190.213C369.901 190.387 369.975 190.462 370.075 190.387C370.149 190.288 370.149 190.138 370.075 190.039C369.975 189.964 369.901 190.039 369.901 190.213ZM284.677 190.511L284.503 190.785L284.776 190.611C285.075 190.437 285.174 190.213 284.975 190.213C284.901 190.213 284.776 190.337 284.677 190.511ZM230.1 192.452C230.1 192.626 230.174 192.701 230.274 192.626C230.348 192.526 230.348 192.377 230.274 192.278C230.174 192.203 230.1 192.278 230.1 192.452ZM280.323 194.865L279.975 195.312L280.423 194.964C280.647 194.79 280.846 194.591 280.846 194.541C280.846 194.342 280.647 194.467 280.323 194.865ZM320.522 195.437C320.771 195.71 321.02 195.934 321.095 195.934C321.169 195.934 321.02 195.71 320.771 195.437C320.522 195.163 320.274 194.939 320.199 194.939C320.124 194.939 320.274 195.163 320.522 195.437ZM274.478 200.959L274.304 201.233L274.577 201.059C274.751 200.959 274.876 200.835 274.876 200.76C274.876 200.561 274.652 200.661 274.478 200.959ZM294.627 202.949L294.154 203.521L294.726 203.049C295.249 202.601 295.398 202.402 295.199 202.402C295.149 202.402 294.901 202.651 294.627 202.949ZM288.284 209.541L287.935 209.989L288.383 209.641C288.781 209.317 288.906 209.118 288.707 209.118C288.657 209.118 288.458 209.317 288.284 209.541ZM311.94 209.467C311.94 209.516 312.139 209.715 312.388 209.89L312.811 210.238L312.463 209.79C312.139 209.392 311.94 209.268 311.94 209.467ZM284.179 213.646L284.005 213.919L284.279 213.745C284.453 213.646 284.577 213.521 284.577 213.447C284.577 213.248 284.353 213.347 284.179 213.646ZM334.652 220.487C334.751 220.561 334.901 220.561 335 220.487C335.075 220.387 335 220.312 334.826 220.312C334.652 220.312 334.577 220.387 334.652 220.487ZM337.388 220.487C337.488 220.561 337.637 220.561 337.736 220.487C337.811 220.387 337.736 220.312 337.562 220.312C337.388 220.312 337.314 220.387 337.388 220.487Z" fill="#DFDE1E"/>
<path d="M298.581 33.1741C298.68 33.2488 298.829 33.2488 298.929 33.1741C299.003 33.0746 298.929 33 298.755 33C298.581 33 298.506 33.0746 298.581 33.1741ZM301.317 33.1741C301.416 33.2488 301.566 33.2488 301.665 33.1741C301.74 33.0746 301.665 33 301.491 33C301.317 33 301.242 33.0746 301.317 33.1741Z" fill="#7FA1F1"/>
<path d="M396.366 242.253L396.191 242.527L396.465 242.353C396.764 242.178 396.863 241.955 396.664 241.955C396.589 241.955 396.465 242.079 396.366 242.253Z" fill="#1F5BE6"/>
<path d="M338.681 48.4231C338.755 48.5475 338.88 48.6718 338.954 48.6718C339.029 48.6718 339.004 48.5475 338.929 48.4231C338.855 48.2738 338.73 48.1743 338.656 48.1743C338.581 48.1743 338.606 48.2738 338.681 48.4231ZM301.616 341.955C301.69 342.08 301.815 342.204 301.889 342.204C301.964 342.204 301.939 342.08 301.865 341.955C301.79 341.806 301.666 341.707 301.591 341.707C301.516 341.707 301.541 341.806 301.616 341.955Z" fill="#AFC4F6"/>
<path d="M375.249 300.661C375.323 300.786 375.448 300.91 375.522 300.91C375.597 300.91 375.572 300.786 375.497 300.661C375.423 300.512 375.298 300.413 375.224 300.413C375.149 300.413 375.174 300.512 375.249 300.661ZM418.507 346.731L418.333 347.005L418.607 346.83C418.905 346.656 419.005 346.432 418.806 346.432C418.731 346.432 418.607 346.557 418.507 346.731Z" fill="#2F65E9"/>
<path d="M353.982 187.228C353.982 187.402 354.057 187.477 354.157 187.402C354.231 187.303 354.231 187.154 354.157 187.054C354.057 186.98 353.982 187.054 353.982 187.228ZM279.331 195.86L278.982 196.308L279.43 195.96C279.654 195.786 279.853 195.587 279.853 195.537C279.853 195.338 279.654 195.462 279.331 195.86ZM299.579 200.835C299.679 200.91 299.828 200.91 299.928 200.835C300.002 200.736 299.928 200.661 299.754 200.661C299.579 200.661 299.505 200.736 299.579 200.835ZM334.903 204.567C335.002 204.641 335.152 204.641 335.251 204.567C335.326 204.467 335.251 204.393 335.077 204.393C334.903 204.393 334.828 204.467 334.903 204.567ZM337.39 204.567C337.49 204.641 337.639 204.641 337.739 204.567C337.813 204.467 337.739 204.393 337.565 204.393C337.39 204.393 337.316 204.467 337.39 204.567ZM334.405 220.487C334.505 220.562 334.654 220.562 334.754 220.487C334.828 220.388 334.754 220.313 334.579 220.313C334.405 220.313 334.331 220.388 334.405 220.487ZM337.639 220.487C337.739 220.562 337.888 220.562 337.987 220.487C338.062 220.388 337.987 220.313 337.813 220.313C337.639 220.313 337.565 220.388 337.639 220.487Z" fill="#4978BC"/>
<path d="M246.018 191.707C246.018 191.881 246.092 191.956 246.192 191.881C246.266 191.781 246.266 191.632 246.192 191.533C246.092 191.458 246.018 191.533 246.018 191.707ZM305.222 202.503C305.222 202.553 305.421 202.752 305.669 202.926L306.092 203.274L305.744 202.826C305.421 202.428 305.222 202.304 305.222 202.503ZM288.779 209.045L288.431 209.493L288.878 209.145C289.276 208.821 289.401 208.622 289.202 208.622C289.152 208.622 288.953 208.821 288.779 209.045ZM311.814 209.369C311.888 209.493 312.013 209.617 312.087 209.617C312.162 209.617 312.137 209.493 312.062 209.369C311.988 209.219 311.863 209.12 311.789 209.12C311.714 209.12 311.739 209.219 311.814 209.369ZM314.301 211.856C314.376 211.98 314.5 212.105 314.575 212.105C314.649 212.105 314.625 211.98 314.55 211.856C314.475 211.707 314.351 211.607 314.276 211.607C314.202 211.607 314.227 211.707 314.301 211.856Z" fill="#A7B65B"/>
<path d="M300.572 200.836C300.671 200.911 300.821 200.911 300.92 200.836C300.995 200.737 300.92 200.662 300.746 200.662C300.572 200.662 300.497 200.737 300.572 200.836Z" fill="#1C58D6"/>
<path d="M314.304 117.577C314.379 117.702 314.503 117.826 314.578 117.826C314.652 117.826 314.627 117.702 314.553 117.577C314.478 117.428 314.354 117.329 314.279 117.329C314.205 117.329 314.229 117.428 314.304 117.577ZM285.672 117.876L285.498 118.15L285.772 117.975C285.946 117.876 286.07 117.751 286.07 117.677C286.07 117.478 285.846 117.577 285.672 117.876ZM321.269 196.184C321.344 196.309 321.468 196.433 321.543 196.433C321.617 196.433 321.593 196.309 321.518 196.184C321.443 196.035 321.319 195.936 321.244 195.936C321.17 195.936 321.195 196.035 321.269 196.184ZM289.155 208.672L288.981 208.946L289.254 208.771C289.553 208.597 289.652 208.373 289.453 208.373C289.379 208.373 289.254 208.498 289.155 208.672Z" fill="#2D64BC"/>
<path d="M280.698 194.493L280.524 194.767L280.798 194.593C281.096 194.419 281.196 194.195 280.997 194.195C280.922 194.195 280.798 194.319 280.698 194.493ZM321.022 195.936C321.096 196.06 321.221 196.185 321.295 196.185C321.37 196.185 321.345 196.06 321.27 195.936C321.196 195.787 321.071 195.687 320.997 195.687C320.922 195.687 320.947 195.787 321.022 195.936ZM250.624 200.911C250.698 201.036 250.823 201.16 250.897 201.16C250.972 201.16 250.947 201.036 250.872 200.911C250.798 200.762 250.673 200.662 250.599 200.662C250.524 200.662 250.549 200.762 250.624 200.911Z" fill="#9AAF6A"/>
<path d="M271.491 109.666L271.316 109.939L271.59 109.765C271.889 109.591 271.988 109.367 271.789 109.367C271.714 109.367 271.59 109.492 271.491 109.666Z" fill="#698C9D"/>
</g>
<defs>
<clipPath id="clip0_3116_1020">
<rect width="500" height="333.333" fill="white" transform="translate(50 33)"/>
</clipPath>
</defs>
</svg>
