<svg width="600" height="400" viewBox="0 0 600 400" fill="none" xmlns="http://www.w3.org/2000/svg">
<mask id="mask0_3116_646" style="mask-type:luminance" maskUnits="userSpaceOnUse" x="50" y="120" width="500" height="161">
<path d="M550 120.125H50V280.125H550V120.125Z" fill="white"/>
</mask>
<g mask="url(#mask0_3116_646)">
<path fill-rule="evenodd" clip-rule="evenodd" d="M220.792 319.912C221.394 319.912 221.89 319.937 222.28 319.986C222.671 320.035 222.983 320.104 223.22 320.194C223.455 320.284 223.622 320.39 223.72 320.512C223.817 320.635 223.866 320.778 223.866 320.94V342.724C223.866 342.887 223.817 343.03 223.72 343.152C223.622 343.275 223.455 343.377 223.22 343.458C222.983 343.539 222.671 343.601 222.28 343.641C222.046 343.666 221.774 343.683 221.464 343.693L220.792 343.703L220.121 343.693L219.551 343.663L219.304 343.641C218.914 343.601 218.6 343.539 218.365 343.458C218.129 343.377 217.963 343.275 217.865 343.152C217.767 343.03 217.718 342.887 217.718 342.724V320.94C217.718 320.778 217.767 320.635 217.865 320.512C217.963 320.39 218.129 320.284 218.365 320.194C218.6 320.104 218.914 320.035 219.304 319.986C219.694 319.937 220.191 319.912 220.792 319.912ZM204.525 313.552L205.199 313.562C205.51 313.571 205.786 313.589 206.026 313.613C206.424 313.654 206.738 313.719 206.965 313.809C207.193 313.899 207.355 314.009 207.453 314.139C207.55 314.27 207.599 314.417 207.599 314.58V319.451H212.332C212.495 319.451 212.638 319.491 212.759 319.572C212.881 319.655 212.982 319.789 213.064 319.977C213.145 320.164 213.206 320.421 213.247 320.747C213.288 321.075 213.308 321.474 213.308 321.947C213.308 322.844 213.227 323.485 213.064 323.868C212.901 324.252 212.666 324.443 212.356 324.443H207.599V334.699C207.599 335.89 207.786 336.783 208.16 337.379C208.534 337.975 209.201 338.272 210.16 338.272C210.486 338.272 210.779 338.243 211.039 338.187C211.299 338.13 211.531 338.064 211.734 337.991L212.247 337.795C212.385 337.738 212.511 337.709 212.625 337.709C212.722 337.709 212.816 337.738 212.905 337.795C212.995 337.852 213.064 337.966 213.113 338.138C213.161 338.309 213.206 338.541 213.247 338.835C213.288 339.129 213.308 339.504 213.308 339.961C213.308 340.679 213.264 341.23 213.174 341.613C213.084 341.996 212.967 342.266 212.82 342.42C212.674 342.576 212.458 342.714 212.174 342.837C211.889 342.959 211.555 343.065 211.173 343.155C210.791 343.245 210.376 343.314 209.929 343.363C209.482 343.412 209.03 343.437 208.575 343.437C207.355 343.437 206.298 343.282 205.403 342.971C204.509 342.662 203.769 342.184 203.183 341.54C202.598 340.895 202.167 340.084 201.891 339.105C201.614 338.126 201.476 336.967 201.476 335.629V324.443H198.866C198.556 324.443 198.321 324.252 198.158 323.868C197.995 323.485 197.914 322.844 197.914 321.947C197.914 321.474 197.934 321.075 197.975 320.747C198.016 320.421 198.076 320.164 198.158 319.977C198.24 319.789 198.341 319.655 198.463 319.572C198.584 319.491 198.727 319.451 198.89 319.451H201.476V314.58C201.476 314.417 201.521 314.27 201.61 314.139C201.699 314.009 201.863 313.899 202.098 313.809C202.333 313.719 202.651 313.654 203.049 313.613C203.448 313.572 203.94 313.552 204.525 313.552ZM373.089 310.424C373.836 310.424 374.585 310.48 375.333 310.594C376.081 310.709 376.781 310.863 377.431 311.059C378.082 311.255 378.659 311.476 379.164 311.72C379.668 311.965 380.001 312.169 380.164 312.332C380.326 312.495 380.436 312.634 380.493 312.749C380.55 312.862 380.599 313.013 380.64 313.201C380.68 313.389 380.708 313.626 380.725 313.911L380.743 314.391L380.749 314.976L380.74 315.63L380.713 316.175C380.689 316.502 380.648 316.77 380.591 316.983C380.533 317.194 380.452 317.35 380.347 317.447C380.241 317.545 380.099 317.594 379.92 317.594C379.771 317.594 379.548 317.515 379.252 317.357L379.066 317.252C378.676 317.024 378.196 316.775 377.626 316.505C377.057 316.236 376.399 315.991 375.65 315.771C374.902 315.551 374.081 315.44 373.186 315.44C372.488 315.44 371.877 315.527 371.356 315.697C370.836 315.869 370.401 316.106 370.051 316.407C369.702 316.709 369.442 317.072 369.271 317.496C369.1 317.92 369.015 318.369 369.015 318.842C369.015 319.544 369.206 320.152 369.588 320.666C369.97 321.18 370.482 321.637 371.125 322.037C371.768 322.436 372.495 322.812 373.308 323.162C374.122 323.513 374.951 323.885 375.797 324.277C376.643 324.668 377.472 325.112 378.285 325.61C379.098 326.108 379.822 326.704 380.456 327.396C381.091 328.09 381.603 328.906 381.994 329.844C382.383 330.783 382.579 331.888 382.579 333.161C382.579 334.826 382.27 336.286 381.652 337.542C381.033 338.799 380.196 339.846 379.14 340.687C378.082 341.528 376.846 342.16 375.431 342.584C374.016 343.008 372.503 343.22 370.893 343.22C369.803 343.22 368.791 343.131 367.856 342.951C366.921 342.771 366.095 342.556 365.379 342.303C364.664 342.05 364.067 341.784 363.586 341.507C363.106 341.23 362.761 340.985 362.55 340.772C362.339 340.561 362.187 340.255 362.098 339.855C362.009 339.455 361.965 338.88 361.965 338.13C361.965 337.624 361.98 337.2 362.013 336.857C362.046 336.514 362.098 336.237 362.172 336.025C362.245 335.812 362.343 335.661 362.465 335.571C362.586 335.482 362.728 335.437 362.892 335.437C363.081 335.437 363.335 335.531 363.655 335.717L363.855 335.841C364.27 336.11 364.802 336.408 365.453 336.734C366.103 337.061 366.88 337.358 367.782 337.628C368.685 337.896 369.73 338.032 370.918 338.032C371.698 338.032 372.398 337.938 373.016 337.75C373.633 337.562 374.158 337.297 374.59 336.955C375.02 336.612 375.35 336.188 375.577 335.682C375.805 335.176 375.919 334.613 375.919 333.993C375.919 333.275 375.724 332.659 375.333 332.145C374.943 331.631 374.434 331.175 373.808 330.775C373.182 330.375 372.471 330 371.674 329.649C370.877 329.297 370.055 328.927 369.209 328.535C368.365 328.143 367.543 327.699 366.746 327.201C365.949 326.704 365.238 326.108 364.611 325.414C363.985 324.72 363.477 323.901 363.086 322.955C362.696 322.008 362.501 320.875 362.501 319.553C362.501 318.035 362.781 316.701 363.343 315.551C363.904 314.401 364.66 313.445 365.611 312.687C366.563 311.929 367.685 311.361 368.978 310.986C370.271 310.611 371.642 310.424 373.089 310.424ZM330.525 308.664L330.874 308.661C331.476 308.661 331.972 308.685 332.363 308.734C332.752 308.783 333.061 308.853 333.289 308.942C333.517 309.032 333.679 309.142 333.777 309.272C333.875 309.403 333.923 309.55 333.923 309.713V341.826C333.923 342.005 333.882 342.156 333.801 342.278C333.72 342.401 333.582 342.503 333.386 342.584C333.192 342.665 332.927 342.722 332.594 342.755C332.26 342.788 331.85 342.804 331.361 342.804C330.842 342.804 330.419 342.788 330.093 342.755C329.768 342.722 329.503 342.665 329.3 342.584C329.097 342.503 328.951 342.401 328.861 342.278C328.772 342.156 328.727 342.005 328.727 341.826V339.402C327.605 340.61 326.43 341.547 325.202 342.217C323.974 342.886 322.611 343.22 321.116 343.22C319.456 343.22 318.054 342.899 316.907 342.254C315.76 341.609 314.825 340.74 314.101 339.646C313.378 338.554 312.853 337.277 312.528 335.816C312.203 334.356 312.04 332.818 312.04 331.203C312.04 329.261 312.247 327.515 312.662 325.965C313.077 324.415 313.682 323.093 314.479 322C315.277 320.907 316.269 320.066 317.456 319.479C318.644 318.891 320.009 318.597 321.554 318.597C322.774 318.597 323.88 318.846 324.872 319.344C325.865 319.842 326.849 320.572 327.824 321.535V309.713C327.824 309.55 327.869 309.403 327.958 309.272C328.048 309.142 328.21 309.032 328.447 308.942C328.682 308.853 328.996 308.783 329.385 308.734C329.698 308.695 330.078 308.671 330.525 308.664ZM263.627 318.597C264.31 318.597 264.973 318.646 265.615 318.744C266.257 318.842 266.839 318.965 267.359 319.112C267.88 319.259 268.319 319.418 268.677 319.589L269.057 319.783C269.223 319.874 269.352 319.956 269.445 320.03C269.6 320.152 269.709 320.275 269.775 320.396C269.84 320.519 269.889 320.666 269.921 320.837C269.953 321.009 269.982 321.22 270.006 321.474C270.025 321.663 270.036 321.887 270.041 322.146L270.043 322.416C270.043 322.857 270.031 323.215 270.006 323.493C269.982 323.77 269.942 323.99 269.884 324.154C269.827 324.317 269.75 324.427 269.653 324.484C269.555 324.541 269.442 324.57 269.311 324.57C269.194 324.57 269.025 324.515 268.804 324.406L268.628 324.313C268.319 324.141 267.932 323.958 267.469 323.762C267.005 323.566 266.469 323.383 265.859 323.211C265.249 323.04 264.554 322.955 263.773 322.955C263.22 322.955 262.741 323.012 262.333 323.126C261.927 323.24 261.594 323.404 261.333 323.615C261.073 323.828 260.878 324.077 260.748 324.362C260.618 324.647 260.553 324.954 260.553 325.28C260.553 325.786 260.707 326.21 261.017 326.553C261.325 326.895 261.732 327.197 262.236 327.458C262.615 327.654 263.031 327.84 263.488 328.018L263.956 328.192C264.599 328.42 265.249 328.669 265.908 328.939C266.567 329.208 267.217 329.522 267.859 329.881C268.502 330.24 269.075 330.681 269.579 331.203C270.083 331.725 270.491 332.35 270.799 333.076C271.108 333.802 271.263 334.662 271.263 335.657C271.263 336.897 271.031 337.99 270.568 338.937C270.104 339.884 269.449 340.675 268.603 341.311C267.758 341.947 266.757 342.425 265.603 342.743C264.448 343.061 263.196 343.22 261.846 343.22C261.032 343.22 260.256 343.159 259.516 343.037C258.776 342.914 258.114 342.759 257.528 342.571C256.943 342.384 256.454 342.192 256.064 341.996C255.674 341.801 255.389 341.617 255.21 341.445C255.031 341.275 254.893 341.005 254.796 340.638C254.698 340.271 254.649 339.729 254.649 339.011C254.649 338.537 254.666 338.158 254.698 337.872C254.73 337.587 254.779 337.358 254.844 337.187C254.909 337.016 254.991 336.902 255.089 336.844C255.185 336.787 255.307 336.759 255.454 336.759C255.597 336.759 255.795 336.824 256.048 336.955L256.247 337.065C256.597 337.268 257.031 337.493 257.552 337.738C258.073 337.983 258.678 338.211 259.37 338.424C260.06 338.635 260.846 338.741 261.724 338.741C262.277 338.741 262.769 338.684 263.2 338.57C263.631 338.456 264.005 338.292 264.322 338.081C264.64 337.868 264.879 337.6 265.042 337.272C265.204 336.946 265.285 336.571 265.285 336.146C265.285 335.657 265.135 335.237 264.834 334.886C264.533 334.536 264.135 334.23 263.639 333.968C263.267 333.772 262.858 333.586 262.414 333.409L261.955 333.234C261.329 333.006 260.688 332.753 260.028 332.476C259.37 332.199 258.727 331.88 258.101 331.521C257.475 331.162 256.914 330.721 256.418 330.2C255.922 329.677 255.523 329.049 255.222 328.314C254.922 327.581 254.771 326.7 254.771 325.671C254.771 324.627 254.974 323.668 255.381 322.795C255.788 321.922 256.373 321.176 257.138 320.556C257.902 319.936 258.833 319.455 259.931 319.112C261.028 318.769 262.26 318.597 263.627 318.597ZM408.04 318.597C408.723 318.597 409.385 318.646 410.028 318.744C410.671 318.842 411.252 318.965 411.772 319.112C412.293 319.259 412.732 319.418 413.09 319.589C413.448 319.76 413.704 319.907 413.858 320.03C414.013 320.152 414.123 320.275 414.188 320.396C414.253 320.519 414.301 320.666 414.334 320.837C414.367 321.009 414.395 321.22 414.42 321.474C414.437 321.663 414.449 321.887 414.453 322.146L414.456 322.416C414.456 322.857 414.444 323.215 414.42 323.493C414.395 323.77 414.354 323.99 414.297 324.154C414.241 324.317 414.164 324.427 414.066 324.484C413.968 324.541 413.854 324.57 413.724 324.57C413.607 324.57 413.438 324.515 413.217 324.406L413.041 324.313C412.732 324.141 412.346 323.958 411.882 323.762C411.419 323.566 410.882 323.383 410.272 323.211C409.663 323.04 408.967 322.955 408.186 322.955C407.633 322.955 407.153 323.012 406.747 323.126C406.341 323.24 406.006 323.404 405.747 323.615C405.486 323.828 405.291 324.077 405.161 324.362C405.031 324.647 404.966 324.954 404.966 325.28C404.966 325.786 405.121 326.21 405.429 326.553C405.739 326.895 406.145 327.197 406.649 327.458C407.153 327.719 407.727 327.964 408.369 328.192C409.011 328.42 409.663 328.669 410.321 328.939C410.979 329.208 411.63 329.522 412.273 329.881C412.915 330.24 413.489 330.681 413.993 331.203C414.497 331.725 414.903 332.35 415.212 333.076C415.521 333.802 415.676 334.662 415.676 335.657C415.676 336.897 415.444 337.99 414.98 338.937C414.517 339.884 413.863 340.675 413.017 341.311C412.171 341.947 411.171 342.425 410.016 342.743C408.861 343.061 407.608 343.22 406.258 343.22C405.446 343.22 404.669 343.159 403.929 343.037C403.189 342.914 402.526 342.759 401.941 342.571C401.355 342.384 400.868 342.192 400.477 341.996C400.086 341.801 399.802 341.617 399.623 341.445C399.444 341.275 399.306 341.005 399.208 340.638C399.11 340.271 399.061 339.729 399.061 339.011C399.061 338.537 399.078 338.158 399.11 337.872C399.144 337.587 399.192 337.358 399.257 337.187C399.322 337.016 399.403 336.902 399.501 336.844C399.599 336.787 399.721 336.759 399.867 336.759C400.01 336.759 400.208 336.824 400.46 336.955L400.659 337.065C401.009 337.268 401.445 337.493 401.965 337.738C402.485 337.983 403.092 338.211 403.782 338.424C404.474 338.635 405.258 338.741 406.136 338.741C406.69 338.741 407.182 338.684 407.613 338.57C408.044 338.456 408.418 338.292 408.735 338.081C409.052 337.868 409.292 337.6 409.455 337.272C409.618 336.946 409.699 336.571 409.699 336.146C409.699 335.657 409.548 335.237 409.247 334.886C408.947 334.536 408.548 334.23 408.052 333.968C407.68 333.772 407.271 333.586 406.826 333.409L406.369 333.234C405.743 333.006 405.1 332.753 404.442 332.476C403.782 332.199 403.141 331.88 402.514 331.521C401.888 331.162 401.327 330.721 400.83 330.2C400.334 329.677 399.936 329.049 399.635 328.314C399.334 327.581 399.184 326.7 399.184 325.671C399.184 324.627 399.388 323.668 399.794 322.795C400.2 321.922 400.785 321.176 401.55 320.556C402.315 319.936 403.246 319.455 404.344 319.112C405.442 318.769 406.674 318.597 408.04 318.597ZM520.599 308.664L520.948 308.661C521.549 308.661 522.046 308.685 522.435 308.734C522.826 308.783 523.135 308.853 523.363 308.942C523.591 309.032 523.753 309.142 523.851 309.272C523.948 309.403 523.997 309.55 523.997 309.713V341.826C523.997 342.005 523.956 342.156 523.875 342.278C523.794 342.401 523.655 342.503 523.46 342.584C523.266 342.665 523.001 342.722 522.668 342.755C522.334 342.788 521.923 342.804 521.435 342.804C520.915 342.804 520.493 342.788 520.167 342.755C519.842 342.722 519.577 342.665 519.374 342.584C519.171 342.503 519.024 342.401 518.934 342.278C518.846 342.156 518.801 342.005 518.801 341.826V339.402C517.678 340.61 516.503 341.547 515.275 342.217C514.048 342.886 512.685 343.22 511.19 343.22C509.53 343.22 508.127 342.899 506.981 342.254C505.834 341.609 504.899 340.74 504.175 339.646C503.451 338.554 502.927 337.277 502.602 335.816C502.276 334.356 502.114 332.818 502.114 331.203C502.114 329.261 502.321 327.515 502.735 325.965C503.151 324.415 503.756 323.093 504.553 322C505.35 320.907 506.343 320.066 507.53 319.479C508.717 318.891 510.083 318.597 511.628 318.597C512.848 318.597 513.954 318.846 514.946 319.344C515.939 319.842 516.922 320.572 517.898 321.535V309.713C517.898 309.55 517.943 309.403 518.032 309.272C518.122 309.142 518.284 309.032 518.52 308.942C518.756 308.853 519.069 308.783 519.459 308.734C519.772 308.695 520.152 308.671 520.599 308.664ZM81.6378 310.424C82.3859 310.424 83.1342 310.48 83.8823 310.594C84.6304 310.709 85.3298 310.863 85.9803 311.059C86.6309 311.255 87.2082 311.476 87.7125 311.72C88.2167 311.965 88.5501 312.169 88.7127 312.332C88.8753 312.495 88.9851 312.634 89.0421 312.749C89.099 312.862 89.1478 313.013 89.1884 313.201C89.2291 313.389 89.2576 313.626 89.2739 313.911L89.2921 314.391L89.2982 314.976C89.2982 315.449 89.286 315.849 89.2617 316.175C89.2372 316.502 89.1966 316.77 89.1397 316.983C89.0827 317.194 89.0014 317.35 88.8957 317.447C88.79 317.545 88.6476 317.594 88.4688 317.594C88.3197 317.594 88.0972 317.515 87.8013 317.357L87.6149 317.252C87.2246 317.024 86.7448 316.775 86.1755 316.505C85.6063 316.236 84.9476 315.991 84.1994 315.771C83.4513 315.551 82.6299 315.44 81.7354 315.44C81.036 315.44 80.4261 315.527 79.9057 315.697C79.3852 315.869 78.9502 316.106 78.6005 316.407C78.2508 316.709 77.9906 317.072 77.8198 317.496C77.6491 317.92 77.5636 318.369 77.5636 318.842C77.5636 319.544 77.7548 320.152 78.137 320.666C78.5192 321.18 79.0315 321.637 79.674 322.037C80.3164 322.436 81.0442 322.812 81.8574 323.162C82.6706 323.513 83.5001 323.885 84.3458 324.277C85.1916 324.668 86.021 325.112 86.8342 325.61C87.6474 326.108 88.3711 326.704 89.0054 327.396C89.6398 328.09 90.1521 328.906 90.5424 329.844C90.9328 330.783 91.1279 331.888 91.1279 333.161C91.1279 334.826 90.819 336.286 90.2008 337.542C89.5828 338.799 88.7452 339.846 87.688 340.687C86.6309 341.528 85.3948 342.16 83.9799 342.584C82.5649 343.008 81.0523 343.22 79.4422 343.22C78.3525 343.22 77.34 343.131 76.4048 342.951C75.4697 342.771 74.6443 342.556 73.9286 342.303C73.213 342.05 72.6153 341.784 72.1355 341.507C71.6557 341.23 71.3101 340.985 71.0986 340.772C70.8872 340.561 70.7368 340.255 70.6473 339.855C70.5579 339.455 70.5131 338.88 70.5131 338.13C70.5131 337.624 70.5295 337.2 70.562 336.857C70.5945 336.514 70.6473 336.237 70.7205 336.025C70.7938 335.812 70.8914 335.661 71.0133 335.571C71.1353 335.482 71.2776 335.437 71.4402 335.437C71.63 335.437 71.8847 335.531 72.2043 335.717L72.4039 335.841C72.8186 336.11 73.3512 336.408 74.0018 336.734C74.6524 337.061 75.429 337.358 76.3317 337.628C77.2343 337.896 78.2793 338.032 79.4666 338.032C80.2473 338.032 80.9466 337.938 81.5646 337.75C82.1827 337.562 82.7072 337.297 83.1382 336.955C83.5692 336.612 83.8985 336.188 84.1263 335.682C84.354 335.176 84.4678 334.613 84.4678 333.993C84.4678 333.275 84.2726 332.659 83.8823 332.145C83.4919 331.631 82.9836 331.175 82.3575 330.775C81.7314 330.375 81.0198 330 80.2228 329.649C79.4259 329.297 78.6046 328.927 77.7589 328.535C76.9131 328.143 76.0918 327.699 75.2948 327.201C74.4979 326.704 73.7864 326.108 73.1601 325.414C72.534 324.72 72.0257 323.901 71.6354 322.955C71.245 322.008 71.0499 320.875 71.0499 319.553C71.0499 318.035 71.3304 316.701 71.8916 315.551C72.4527 314.401 73.209 313.445 74.1604 312.687C75.1119 311.929 76.2341 311.361 77.5271 310.986C78.8201 310.611 80.1903 310.424 81.6378 310.424ZM285.286 318.597C286.994 318.597 288.454 318.765 289.666 319.1C290.877 319.434 291.873 319.949 292.654 320.641C293.434 321.335 294.004 322.229 294.361 323.321C294.72 324.415 294.898 325.712 294.898 327.213V341.899C294.898 342.127 294.817 342.307 294.654 342.437C294.492 342.567 294.235 342.661 293.885 342.718C293.595 342.766 293.187 342.794 292.665 342.802L292.336 342.804C291.605 342.804 291.072 342.776 290.739 342.718C290.405 342.661 290.17 342.567 290.031 342.437C289.893 342.307 289.824 342.127 289.824 341.899V340.161C288.929 341.124 287.908 341.875 286.763 342.413C285.616 342.951 284.343 343.22 282.944 343.22C281.79 343.22 280.728 343.069 279.76 342.767C278.793 342.465 277.955 342.017 277.248 341.421C276.541 340.826 275.992 340.087 275.601 339.206C275.21 338.326 275.016 337.297 275.016 336.122C275.016 334.85 275.264 333.744 275.759 332.806C276.255 331.867 276.996 331.092 277.979 330.481C278.964 329.869 280.188 329.416 281.651 329.122C283.115 328.829 284.815 328.682 286.75 328.682H288.873V327.36C288.873 326.675 288.803 326.076 288.665 325.561C288.527 325.047 288.299 324.619 287.982 324.277C287.665 323.934 287.242 323.681 286.714 323.517C286.184 323.355 285.53 323.272 284.75 323.272C283.725 323.272 282.81 323.387 282.005 323.615C281.2 323.843 280.489 324.096 279.87 324.375C279.252 324.652 278.735 324.905 278.321 325.133C277.906 325.361 277.569 325.476 277.308 325.476C277.13 325.476 276.971 325.418 276.833 325.304C276.695 325.19 276.581 325.027 276.492 324.814C276.402 324.603 276.332 324.341 276.284 324.032C276.235 323.721 276.21 323.379 276.21 323.004C276.21 322.497 276.251 322.097 276.333 321.804C276.415 321.51 276.569 321.245 276.796 321.009C277.024 320.772 277.423 320.511 277.992 320.226C278.561 319.94 279.228 319.675 279.993 319.43C280.756 319.185 281.591 318.985 282.493 318.831C283.396 318.676 284.327 318.597 285.286 318.597ZM158.009 318.597C159.717 318.597 161.176 318.765 162.389 319.1C163.6 319.434 164.596 319.949 165.377 320.641C166.157 321.335 166.727 322.229 167.084 323.321C167.443 324.415 167.621 325.712 167.621 327.213V341.899C167.621 342.127 167.54 342.307 167.377 342.437C167.215 342.567 166.958 342.661 166.608 342.718C166.318 342.766 165.91 342.794 165.388 342.802L165.059 342.804C164.328 342.804 163.795 342.776 163.461 342.718C163.128 342.661 162.893 342.567 162.754 342.437C162.616 342.307 162.547 342.127 162.547 341.899V340.161C161.652 341.124 160.631 341.875 159.485 342.413C158.339 342.951 157.066 343.22 155.667 343.22C154.513 343.22 153.451 343.069 152.483 342.767C151.516 342.465 150.678 342.017 149.971 341.421C149.263 340.826 148.714 340.087 148.324 339.206C147.933 338.326 147.738 337.297 147.738 336.122C147.738 334.85 147.986 333.744 148.482 332.806C148.978 331.867 149.718 331.092 150.702 330.481C151.686 329.869 152.91 329.416 154.374 329.122C155.838 328.829 157.538 328.682 159.473 328.682H161.595V327.36C161.595 326.675 161.526 326.076 161.388 325.561C161.25 325.047 161.022 324.619 160.705 324.277C160.388 323.934 159.965 323.681 159.436 323.517C158.907 323.355 158.253 323.272 157.472 323.272C156.448 323.272 155.533 323.387 154.728 323.615C153.923 323.843 153.211 324.096 152.593 324.375C151.975 324.652 151.459 324.905 151.044 325.133C150.629 325.361 150.292 325.476 150.031 325.476C149.853 325.476 149.694 325.418 149.556 325.304C149.418 325.19 149.304 325.027 149.214 324.814C149.125 324.603 149.056 324.341 149.007 324.032C148.958 323.721 148.934 323.379 148.934 323.004C148.934 322.497 148.974 322.097 149.056 321.804C149.137 321.51 149.291 321.245 149.519 321.009C149.747 320.772 150.145 320.511 150.715 320.226C151.284 319.94 151.951 319.675 152.715 319.43C153.479 319.185 154.313 318.985 155.216 318.831C156.119 318.676 157.049 318.597 158.009 318.597ZM539.582 318.597C541.29 318.597 542.749 318.765 543.961 319.1C545.173 319.434 546.169 319.949 546.95 320.641C547.73 321.335 548.299 322.229 548.657 323.321C549.015 324.415 549.194 325.712 549.194 327.213V341.899C549.194 342.127 549.113 342.307 548.95 342.437C548.788 342.567 548.531 342.661 548.181 342.718C547.89 342.766 547.483 342.794 546.96 342.802L546.632 342.804C545.9 342.804 545.368 342.776 545.034 342.718C544.701 342.661 544.466 342.567 544.327 342.437C544.189 342.307 544.12 342.127 544.12 341.899V340.161C543.225 341.124 542.204 341.875 541.057 342.413C539.911 342.951 538.639 343.22 537.24 343.22C536.085 343.22 535.024 343.069 534.056 342.767C533.089 342.465 532.251 342.017 531.544 341.421C530.835 340.826 530.286 340.087 529.897 339.206C529.506 338.326 529.311 337.297 529.311 336.122C529.311 334.85 529.559 333.744 530.055 332.806C530.551 331.867 531.292 331.092 532.275 330.481C533.259 329.869 534.483 329.416 535.947 329.122C537.41 328.829 539.11 328.682 541.046 328.682H543.168V327.36C543.168 326.675 543.099 326.076 542.96 325.561C542.823 325.047 542.595 324.619 542.278 324.277C541.96 323.934 541.538 323.681 541.009 323.517C540.48 323.355 539.826 323.272 539.045 323.272C538.021 323.272 537.105 323.387 536.301 323.615C535.496 323.843 534.784 324.096 534.166 324.375C533.548 324.652 533.031 324.905 532.617 325.133C532.202 325.361 531.865 325.476 531.604 325.476C531.425 325.476 531.267 325.418 531.128 325.304C530.991 325.19 530.876 325.027 530.788 324.814C530.698 324.603 530.628 324.341 530.579 324.032C530.531 323.721 530.506 323.379 530.506 323.004C530.506 322.497 530.547 322.097 530.628 321.804C530.709 321.51 530.865 321.245 531.092 321.009C531.32 320.772 531.718 320.511 532.288 320.226C532.856 319.94 533.524 319.675 534.288 319.43C535.052 319.185 535.885 318.985 536.789 318.831C537.691 318.676 538.622 318.597 539.582 318.597ZM239.723 318.597C241.43 318.597 242.891 318.765 244.102 319.1C245.314 319.434 246.31 319.949 247.091 320.641C247.871 321.335 248.441 322.229 248.798 323.321C249.156 324.415 249.335 325.712 249.335 327.213V341.899C249.335 342.127 249.254 342.307 249.091 342.437C248.928 342.567 248.672 342.661 248.323 342.718C248.031 342.766 247.624 342.794 247.101 342.802L246.774 342.804C246.042 342.804 245.509 342.776 245.176 342.718C244.842 342.661 244.606 342.567 244.468 342.437C244.33 342.307 244.26 342.127 244.26 341.899V340.161C243.366 341.124 242.346 341.875 241.199 342.413C240.052 342.951 238.779 343.22 237.381 343.22C236.226 343.22 235.165 343.069 234.197 342.767C233.229 342.465 232.392 342.017 231.684 341.421C230.977 340.826 230.428 340.087 230.038 339.206C229.647 338.326 229.452 337.297 229.452 336.122C229.452 334.85 229.7 333.744 230.196 332.806C230.693 331.867 231.432 331.092 232.417 330.481C233.4 329.869 234.624 329.416 236.088 329.122C237.552 328.829 239.251 328.682 241.186 328.682H243.309V327.36C243.309 326.675 243.24 326.076 243.102 325.561C242.964 325.047 242.735 324.619 242.419 324.277C242.102 323.934 241.679 323.681 241.15 323.517C240.622 323.355 239.967 323.272 239.186 323.272C238.161 323.272 237.247 323.387 236.442 323.615C235.636 323.843 234.925 324.096 234.307 324.375C233.689 324.652 233.173 324.905 232.758 325.133C232.343 325.361 232.005 325.476 231.746 325.476C231.567 325.476 231.408 325.418 231.27 325.304C231.131 325.19 231.018 325.027 230.928 324.814C230.839 324.603 230.77 324.341 230.721 324.032C230.672 323.721 230.648 323.379 230.648 323.004C230.648 322.497 230.689 322.097 230.77 321.804C230.851 321.51 231.005 321.245 231.233 321.009C231.46 320.772 231.859 320.511 232.428 320.226C232.998 319.94 233.665 319.675 234.429 319.43C235.194 319.185 236.027 318.985 236.929 318.831C237.832 318.676 238.764 318.597 239.723 318.597ZM105.981 318.597C107.802 318.597 109.36 318.867 110.653 319.406C111.946 319.944 113.007 320.69 113.836 321.645C114.666 322.6 115.276 323.73 115.666 325.035C116.056 326.34 116.252 327.76 116.252 329.293V330.272C116.252 331.024 116.085 331.578 115.751 331.937C115.418 332.296 114.959 332.476 114.373 332.476H101.126C101.126 333.406 101.236 334.25 101.455 335.009C101.675 335.767 102.025 336.412 102.504 336.942C102.984 337.472 103.602 337.877 104.358 338.154C105.115 338.431 106.021 338.57 107.079 338.57C108.152 338.57 109.095 338.492 109.909 338.337C110.722 338.183 111.425 338.011 112.019 337.824L112.682 337.606L113.248 337.405L113.495 337.309C113.885 337.155 114.202 337.077 114.446 337.077C114.593 337.077 114.715 337.106 114.812 337.163C114.91 337.219 114.991 337.321 115.056 337.468C115.121 337.615 115.166 337.824 115.19 338.092C115.209 338.294 115.22 338.536 115.225 338.815L115.227 339.108C115.227 339.467 115.219 339.774 115.203 340.027C115.186 340.279 115.162 340.495 115.129 340.675C115.097 340.855 115.048 341.005 114.983 341.128C114.918 341.25 114.833 341.368 114.727 341.483C114.621 341.596 114.332 341.752 113.861 341.947C113.389 342.143 112.787 342.335 112.055 342.522C111.324 342.71 110.486 342.874 109.543 343.012C108.599 343.151 107.591 343.22 106.518 343.22C104.582 343.22 102.887 342.976 101.431 342.486C99.9753 341.996 98.7595 341.254 97.7836 340.259C96.8078 339.263 96.08 338.007 95.6002 336.489C95.1204 334.972 94.8805 333.193 94.8805 331.154C94.8805 329.212 95.1326 327.462 95.6368 325.904C96.141 324.345 96.8729 323.024 97.8325 321.939C98.7921 320.854 99.959 320.026 101.333 319.455C102.708 318.884 104.257 318.597 105.981 318.597ZM488.871 318.597C490.351 318.597 491.599 318.842 492.616 319.332C493.632 319.821 494.454 320.487 495.08 321.327C495.706 322.167 496.157 323.151 496.433 324.277C496.71 325.402 496.849 326.757 496.849 328.339V341.826C496.849 341.988 496.8 342.131 496.702 342.254C496.604 342.376 496.442 342.478 496.215 342.56C495.986 342.641 495.674 342.703 495.275 342.743C494.956 342.776 494.578 342.795 494.14 342.802L493.799 342.804C493.197 342.804 492.697 342.784 492.299 342.743C491.9 342.703 491.587 342.641 491.359 342.56C491.131 342.478 490.969 342.376 490.872 342.254C490.774 342.131 490.725 341.988 490.725 341.826V329.367C490.725 328.307 490.648 327.475 490.494 326.87C490.339 326.267 490.116 325.749 489.823 325.316C489.53 324.884 489.152 324.55 488.689 324.313C488.225 324.077 487.683 323.958 487.066 323.958C486.285 323.958 485.496 324.243 484.699 324.814C483.902 325.386 483.073 326.218 482.21 327.311V341.826C482.21 341.988 482.163 342.131 482.065 342.254C481.967 342.376 481.8 342.478 481.565 342.56C481.328 342.641 481.016 342.703 480.625 342.743C480.313 342.776 479.933 342.795 479.485 342.802L479.136 342.804C478.535 342.804 478.04 342.784 477.649 342.743C477.258 342.703 476.946 342.641 476.709 342.56C476.474 342.478 476.307 342.376 476.209 342.254C476.111 342.131 476.064 341.988 476.064 341.826V319.993C476.064 319.83 476.104 319.687 476.185 319.564C476.267 319.442 476.412 319.34 476.624 319.259C476.835 319.177 477.108 319.116 477.442 319.076C477.775 319.034 478.194 319.014 478.698 319.014L479.279 319.024C479.549 319.034 479.785 319.051 479.991 319.076C480.332 319.116 480.597 319.177 480.783 319.259C480.971 319.34 481.105 319.442 481.186 319.564C481.268 319.687 481.308 319.83 481.308 319.993V322.514C482.511 321.209 483.735 320.23 484.98 319.577C486.224 318.925 487.521 318.597 488.871 318.597ZM456.71 310.84L458.238 310.845L459.405 310.876C459.974 310.901 460.418 310.958 460.734 311.047C461.052 311.137 461.279 311.271 461.418 311.451C461.521 311.586 461.614 311.757 461.695 311.965L471.53 340.259C471.725 340.846 471.847 341.311 471.896 341.654C471.945 341.996 471.879 342.254 471.7 342.425C471.522 342.596 471.204 342.703 470.749 342.743C470.446 342.77 470.066 342.788 469.61 342.797L468.871 342.804C468.041 342.804 467.395 342.792 466.931 342.767C466.468 342.743 466.114 342.694 465.87 342.62C465.626 342.547 465.455 342.445 465.357 342.315C465.26 342.184 465.178 342.013 465.114 341.801L462.991 335.437H451.134L449.134 341.63C449.069 341.858 448.983 342.05 448.878 342.205C448.772 342.36 448.601 342.482 448.366 342.571C448.13 342.661 447.796 342.722 447.366 342.755L446.91 342.782L446.373 342.797L445.67 342.804C444.922 342.804 444.336 342.78 443.914 342.731C443.491 342.682 443.198 342.563 443.035 342.376C442.872 342.188 442.816 341.924 442.865 341.581C442.914 341.238 443.035 340.781 443.23 340.21L452.965 312.112C453.061 311.835 453.176 311.61 453.306 311.439C453.436 311.267 453.644 311.137 453.928 311.047C454.213 310.958 454.607 310.901 455.111 310.876L455.99 310.849L456.71 310.84ZM423.844 319.014C424.446 319.014 424.942 319.038 425.332 319.087C425.723 319.136 426.035 319.206 426.272 319.295C426.507 319.385 426.674 319.491 426.772 319.613C426.869 319.736 426.918 319.879 426.918 320.042V341.826C426.918 341.988 426.869 342.131 426.772 342.254C426.674 342.376 426.507 342.478 426.272 342.56C426.035 342.641 425.723 342.703 425.332 342.743C425.02 342.776 424.64 342.795 424.193 342.802L423.844 342.804C423.243 342.804 422.746 342.784 422.356 342.743C421.966 342.703 421.652 342.641 421.417 342.56C421.181 342.478 421.015 342.376 420.917 342.254C420.819 342.131 420.77 341.988 420.77 341.826V320.042C420.77 319.879 420.819 319.736 420.917 319.613C421.015 319.491 421.181 319.385 421.417 319.295C421.652 319.206 421.966 319.136 422.356 319.087C422.746 319.038 423.243 319.014 423.844 319.014ZM390.674 319.014C391.276 319.014 391.772 319.038 392.163 319.087C392.552 319.136 392.866 319.206 393.101 319.295C393.337 319.385 393.504 319.491 393.602 319.613C393.699 319.736 393.748 319.879 393.748 320.042V341.826C393.748 341.988 393.699 342.131 393.602 342.254C393.504 342.376 393.337 342.478 393.101 342.56C392.866 342.641 392.552 342.703 392.163 342.743C391.85 342.776 391.47 342.795 391.023 342.802L390.674 342.804C390.072 342.804 389.576 342.784 389.185 342.743C388.796 342.703 388.482 342.641 388.247 342.56C388.01 342.478 387.844 342.376 387.747 342.254C387.649 342.131 387.6 341.988 387.6 341.826V320.042C387.6 319.879 387.649 319.736 387.747 319.613C387.844 319.491 388.01 319.385 388.247 319.295C388.482 319.206 388.796 319.136 389.185 319.087C389.576 319.038 390.072 319.014 390.674 319.014ZM343.653 319.014C344.255 319.014 344.751 319.038 345.142 319.087C345.531 319.136 345.845 319.206 346.08 319.295C346.317 319.385 346.483 319.491 346.58 319.613C346.678 319.736 346.727 319.879 346.727 320.042V341.826C346.727 341.988 346.678 342.131 346.58 342.254C346.483 342.376 346.317 342.478 346.08 342.56C345.845 342.641 345.531 342.703 345.142 342.743C344.829 342.776 344.449 342.795 344.001 342.802L343.653 342.804C343.051 342.804 342.555 342.784 342.165 342.743C341.775 342.703 341.461 342.641 341.226 342.56C340.99 342.478 340.823 342.376 340.725 342.254C340.628 342.131 340.579 341.988 340.579 341.826V320.042C340.579 319.879 340.628 319.736 340.725 319.613C340.823 319.491 340.99 319.385 341.226 319.295C341.461 319.206 341.775 319.136 342.165 319.087C342.555 319.038 343.051 319.014 343.653 319.014ZM134.593 318.597C136.073 318.597 137.321 318.842 138.338 319.332C139.354 319.821 140.176 320.487 140.802 321.327C141.428 322.167 141.879 323.151 142.156 324.277C142.432 325.402 142.571 326.757 142.571 328.339V341.826C142.571 341.988 142.522 342.131 142.424 342.254C142.327 342.376 142.164 342.478 141.936 342.56C141.709 342.641 141.396 342.703 140.997 342.743C140.678 342.776 140.3 342.795 139.861 342.802L139.521 342.804C138.919 342.804 138.419 342.784 138.021 342.743C137.622 342.703 137.309 342.641 137.082 342.56C136.854 342.478 136.691 342.376 136.594 342.254C136.496 342.131 136.447 341.988 136.447 341.826V329.367C136.447 328.307 136.37 327.475 136.215 326.87C136.061 326.267 135.837 325.749 135.545 325.316C135.252 324.884 134.874 324.55 134.41 324.313C133.947 324.077 133.406 323.958 132.788 323.958C132.007 323.958 131.218 324.243 130.421 324.814C129.624 325.386 128.795 326.218 127.933 327.311V341.826C127.933 341.988 127.884 342.131 127.787 342.254C127.689 342.376 127.522 342.478 127.286 342.56C127.051 342.641 126.738 342.703 126.347 342.743C126.035 342.776 125.655 342.795 125.207 342.802L124.859 342.804C124.257 342.804 123.761 342.784 123.371 342.743C122.981 342.703 122.667 342.641 122.432 342.56C122.196 342.478 122.029 342.376 121.931 342.254C121.834 342.131 121.785 341.988 121.785 341.826V319.993C121.785 319.83 121.826 319.687 121.907 319.564C121.988 319.442 122.135 319.34 122.346 319.259C122.558 319.177 122.83 319.116 123.163 319.076C123.497 319.034 123.916 319.014 124.42 319.014L125.001 319.024C125.271 319.034 125.508 319.051 125.713 319.076C126.054 319.116 126.319 319.177 126.506 319.259C126.693 319.34 126.827 319.442 126.908 319.564C126.99 319.687 127.03 319.83 127.03 319.993V322.514C128.234 321.209 129.458 320.23 130.702 319.577C131.946 318.925 133.243 318.597 134.593 318.597ZM187.036 318.597C188.516 318.597 189.765 318.842 190.781 319.332C191.797 319.821 192.619 320.487 193.245 321.327C193.871 322.167 194.322 323.151 194.599 324.277C194.875 325.402 195.014 326.757 195.014 328.339V341.826C195.014 341.988 194.965 342.131 194.868 342.254C194.77 342.376 194.607 342.478 194.379 342.56C194.152 342.641 193.839 342.703 193.44 342.743C193.121 342.776 192.743 342.795 192.304 342.802L191.965 342.804C191.363 342.804 190.863 342.784 190.464 342.743C190.066 342.703 189.752 342.641 189.524 342.56C189.297 342.478 189.134 342.376 189.036 342.254C188.939 342.131 188.891 341.988 188.891 341.826V329.367C188.891 328.307 188.813 327.475 188.658 326.87C188.504 326.267 188.28 325.749 187.988 325.316C187.695 324.884 187.317 324.55 186.853 324.313C186.39 324.077 185.849 323.958 185.231 323.958C184.45 323.958 183.661 324.243 182.865 324.814C182.068 325.386 181.238 326.218 180.376 327.311V341.826C180.376 341.988 180.327 342.131 180.229 342.254C180.132 342.376 179.966 342.478 179.729 342.56C179.494 342.641 179.18 342.703 178.791 342.743C178.478 342.776 178.098 342.795 177.65 342.802L177.302 342.804C176.7 342.804 176.204 342.784 175.814 342.743C175.424 342.703 175.11 342.641 174.875 342.56C174.639 342.478 174.472 342.376 174.374 342.254C174.277 342.131 174.228 341.988 174.228 341.826V319.993C174.228 319.83 174.269 319.687 174.35 319.564C174.431 319.442 174.578 319.34 174.79 319.259C175.001 319.177 175.273 319.116 175.606 319.076C175.94 319.034 176.358 319.014 176.863 319.014L177.445 319.024C177.714 319.034 177.951 319.051 178.156 319.076C178.498 319.116 178.761 319.177 178.949 319.259C179.135 319.34 179.27 319.442 179.351 319.564C179.432 319.687 179.473 319.83 179.473 319.993V322.514C180.677 321.209 181.901 320.23 183.145 319.577C184.39 318.925 185.686 318.597 187.036 318.597ZM288.873 332.549H286.53C285.539 332.549 284.693 332.622 283.993 332.769C283.294 332.916 282.725 333.136 282.285 333.43C281.846 333.724 281.525 334.079 281.322 334.494C281.119 334.911 281.017 335.388 281.017 335.927C281.017 336.84 281.305 337.558 281.883 338.081C282.46 338.603 283.261 338.864 284.286 338.864C285.148 338.864 285.941 338.643 286.665 338.203C287.389 337.762 288.124 337.117 288.873 336.269V332.549ZM243.309 332.549H240.967C239.975 332.549 239.129 332.622 238.43 332.769C237.73 332.916 237.161 333.136 236.722 333.43C236.283 333.724 235.961 334.079 235.758 334.494C235.555 334.911 235.453 335.388 235.453 335.927C235.453 336.84 235.743 337.558 236.32 338.081C236.897 338.603 237.698 338.864 238.723 338.864C239.584 338.864 240.378 338.643 241.101 338.203C241.825 337.762 242.561 337.117 243.309 336.269V332.549ZM543.168 332.549H540.826C539.834 332.549 538.989 332.622 538.289 332.769C537.59 332.916 537.02 333.136 536.581 333.43C536.142 333.724 535.821 334.079 535.618 334.494C535.415 334.911 535.313 335.388 535.313 335.927C535.313 336.84 535.601 337.558 536.178 338.081C536.756 338.603 537.557 338.864 538.581 338.864C539.444 338.864 540.236 338.643 540.96 338.203C541.58 337.826 542.21 337.297 542.848 336.62L543.168 336.269V332.549ZM161.595 332.549H159.253C158.261 332.549 157.416 332.622 156.716 332.769C156.017 332.916 155.448 333.136 155.008 333.43C154.569 333.724 154.248 334.079 154.045 334.494C153.841 334.911 153.74 335.388 153.74 335.927C153.74 336.84 154.028 337.558 154.606 338.081C155.183 338.603 155.984 338.864 157.008 338.864C157.871 338.864 158.664 338.643 159.388 338.203C160.111 337.762 160.847 337.117 161.595 336.269V332.549ZM512.848 323.811C512.051 323.811 511.364 324.011 510.786 324.411C510.209 324.811 509.746 325.345 509.396 326.014C509.046 326.683 508.786 327.43 508.616 328.254C508.445 329.078 508.359 329.921 508.359 330.787C508.359 331.701 508.432 332.59 508.579 333.455C508.725 334.319 508.965 335.09 509.298 335.767C509.632 336.444 510.075 336.987 510.628 337.395C511.181 337.803 511.88 338.007 512.726 338.007C513.149 338.007 513.559 337.945 513.958 337.824C514.356 337.701 514.764 337.502 515.178 337.224C515.593 336.946 516.02 336.583 516.458 336.135C516.898 335.686 517.378 335.135 517.898 334.483V327.238C517.02 326.128 516.178 325.28 515.373 324.692C514.568 324.105 513.726 323.811 512.848 323.811ZM322.774 323.811C321.977 323.811 321.291 324.011 320.713 324.411C320.135 324.811 319.672 325.345 319.322 326.014C318.973 326.683 318.713 327.43 318.542 328.254C318.371 329.078 318.285 329.921 318.285 330.787C318.285 331.701 318.358 332.59 318.505 333.455C318.651 334.319 318.892 335.09 319.225 335.767C319.558 336.444 320.001 336.987 320.554 337.395C321.107 337.803 321.806 338.007 322.652 338.007C323.075 338.007 323.485 337.945 323.884 337.824C324.283 337.701 324.69 337.502 325.104 337.224C325.519 336.946 325.946 336.583 326.385 336.135C326.824 335.686 327.304 335.135 327.824 334.483V327.238C326.946 326.128 326.104 325.28 325.299 324.692C324.494 324.105 323.652 323.811 322.774 323.811ZM457.039 317.032H457.014L452.55 330.493H461.503L457.039 317.032ZM105.834 322.955C105.054 322.955 104.375 323.102 103.797 323.395C103.22 323.689 102.74 324.085 102.358 324.582C101.976 325.08 101.683 325.667 101.48 326.344C101.276 327.021 101.158 327.743 101.126 328.51H110.299C110.348 326.781 110.002 325.422 109.262 324.435C108.522 323.449 107.379 322.955 105.834 322.955ZM220.817 310.318C222.182 310.318 223.109 310.551 223.598 311.015C224.085 311.481 224.329 312.309 224.329 313.5C224.329 314.74 224.077 315.596 223.573 316.069C223.069 316.543 222.133 316.78 220.768 316.78C219.385 316.78 218.454 316.552 217.974 316.094C217.495 315.637 217.254 314.813 217.254 313.622C217.254 312.382 217.502 311.521 217.999 311.04C218.495 310.559 219.434 310.318 220.817 310.318ZM343.677 309.419C345.044 309.419 345.971 309.652 346.458 310.117C346.947 310.582 347.191 311.41 347.191 312.602C347.191 313.841 346.939 314.699 346.434 315.171C345.93 315.644 344.995 315.881 343.629 315.881C342.246 315.881 341.315 315.653 340.835 315.195C340.355 314.739 340.116 313.915 340.116 312.724C340.116 311.484 340.364 310.622 340.859 310.141C341.355 309.66 342.295 309.419 343.677 309.419ZM390.699 309.419C392.065 309.419 392.992 309.652 393.479 310.117C393.968 310.582 394.211 311.41 394.211 312.602C394.211 313.841 393.959 314.699 393.455 315.171C392.951 315.644 392.016 315.881 390.65 315.881C389.268 315.881 388.336 315.653 387.856 315.195C387.376 314.739 387.136 313.915 387.136 312.724C387.136 311.484 387.384 310.622 387.88 310.141C388.377 309.66 389.316 309.419 390.699 309.419ZM423.869 309.419C425.234 309.419 426.161 309.652 426.65 310.117C427.138 310.582 427.381 311.41 427.381 312.602C427.381 313.841 427.129 314.699 426.625 315.171C426.121 315.644 425.185 315.881 423.82 315.881C422.438 315.881 421.506 315.653 421.026 315.195C420.547 314.739 420.306 313.915 420.306 312.724C420.306 311.484 420.554 310.622 421.051 310.141C421.547 309.66 422.486 309.419 423.869 309.419ZM127.811 120.125C148.305 120.125 170.194 125.378 191.099 135.341L191.635 135.58L191.883 136.125C201.572 156.63 206.682 178.646 206.682 199.836C206.682 220.482 201.986 241.122 192.7 261.194L191.819 263.07L191.279 263.32C171.98 272.484 150.217 277.336 128.347 277.336C107.704 277.336 86.4901 272.236 65.3044 262.147L64.7842 261.891L64.5359 261.36C55.0285 241.226 50 219.204 50 197.659C50 176.145 54.8218 155.066 64.336 134.958L64.5975 134.424L65.127 134.158C84.7261 124.843 105.808 120.125 127.811 120.125ZM127.811 123.45C106.509 123.45 86.0924 127.982 67.0868 136.925C57.9638 156.413 53.3202 176.835 53.3202 197.659C53.3202 218.52 58.1451 239.862 67.265 259.386C87.846 269.1 108.373 274.005 128.347 274.005C149.526 274.005 170.589 269.359 189.339 260.556C198.653 240.699 203.373 220.26 203.373 199.836C203.373 179.326 198.446 157.995 189.125 138.091C168.839 128.523 147.65 123.45 127.811 123.45ZM122.476 252.926L127.339 253.137C129.638 253.251 130.239 255.133 130.168 256.931C130.1 258.022 129.761 259.243 128.812 259.905C128.033 260.468 127.032 260.601 126.106 260.556L124.52 260.468L124.204 265.791L121.714 265.628L122.476 252.926ZM438.114 132.571L464.761 146.68L445.43 181.883C438.133 175.938 429.223 171.563 417.856 171.563C390.955 171.563 380.026 191.681 380.026 205.852C380.026 216.373 386.892 231.892 410.829 231.892C420.875 231.892 435.159 224.881 439.27 221.689L420.152 262.529L417.591 263.056L411.928 264.275C408.139 265.075 405.159 265.574 400.329 265.724C357.486 267.007 340.174 240.602 340.186 213.622C340.217 177.953 371.824 134.576 424.224 134.576C427.434 134.576 431.363 135.69 434.72 136.925L438.114 132.571ZM145.553 252.715C146.041 253.311 146.229 253.815 146.339 254.537L146.377 254.818C146.536 255.907 146.222 257.163 145.002 257.789V257.828C146.364 257.828 147.188 258.81 147.427 260.468L147.481 261.038C147.511 261.433 147.527 261.929 147.462 262.37C147.185 264.049 146.187 264.59 144.501 264.827L140.334 265.393L138.598 252.674L142.792 252.035C143.813 251.895 145.056 252.074 145.553 252.715ZM110.53 251.593L113.081 251.886L111.951 260.857L111.921 261.169C111.859 262.015 111.988 262.936 113.324 263.07C114.806 263.184 115.142 262.199 115.31 260.974L116.392 252.301L118.923 252.595L117.832 261.479C117.302 264.295 116.217 265.526 113.13 265.141C109.988 264.743 109.242 263.307 109.432 260.468L110.53 251.593ZM96.2754 262.114L99.0041 249.479L103.367 250.467C105.921 251.021 106.693 252.161 106.332 254.51C106.136 255.787 105.531 257.158 104.093 257.199L103.886 257.192L104.057 257.257C105.131 257.702 105.28 258.324 105.113 259.319L105.073 259.538C104.969 260.047 104.258 263.136 104.749 263.633L104.765 264.013L102.117 263.32C102.056 262.844 102.145 262.158 102.261 261.496L102.628 259.555C102.736 258.893 102.755 258.17 102.156 257.857C101.559 257.537 101.336 257.553 100.661 257.397L99.9728 257.257L98.8358 262.669L96.2754 262.114ZM157.278 252.315L157.367 252.608C157.457 252.922 157.57 253.234 157.613 253.551L155.314 254.028L155.151 253.53L155.031 253.193C154.772 252.515 154.382 251.854 153.663 251.937C151.806 252.161 152.419 254.478 152.61 255.447L153.367 259.245C153.597 260.285 154.074 261.633 155.526 261.34C156.831 261.078 156.263 259.04 156.147 258.205L158.503 257.743C158.535 257.98 158.574 258.242 158.588 258.48C158.927 260.8 158.503 262.72 155.904 263.25C152.177 263.968 151.372 261.739 150.711 258.545L150.288 256.429L150.154 255.574L150.081 255.027C149.781 252.522 150.1 250.678 153.278 250.042C155.29 249.675 156.651 250.421 157.278 252.315ZM142.867 259.208L141.949 259.35L142.531 263.187L143.529 263.05C143.855 263.002 144.167 262.934 144.43 262.766C145.034 262.37 144.979 261.525 144.895 260.896C144.685 259.516 144.326 258.991 142.867 259.208ZM260.829 133.675L296.638 133.625L310.433 133.653C311.879 133.659 313.232 133.666 314.468 133.675C334.642 133.788 346.043 144.775 346.043 160.645C346.043 175.277 334.019 188.227 320.82 194.924C334.409 199.936 335.584 212.238 335.584 220.941C335.584 241.969 314.555 261.616 287.217 261.616H227.598L250.854 171.528L241.301 171.472L260.829 133.675ZM544.526 133.675L550 261.616H509.26L509.236 239.675H481.457L472.315 261.616H428.132L474.324 170.254L463.907 170.187L483.698 133.675H544.526ZM164.484 247.483L170.959 258.932L168.528 259.661L166.994 256.753L164.295 257.566L164.643 260.874L162.192 261.592L161.397 248.429L164.484 247.483ZM91.4372 247.265C93.4106 247.819 94.6344 248.691 94.5762 250.991C94.5668 251.504 94.3984 252.026 94.2888 252.531L91.993 251.895L92.0823 251.504C92.314 250.418 92.3194 249.566 90.9239 249.135C89.1214 248.639 88.6829 250.833 88.4339 251.78L87.4157 255.539L87.3343 255.893C87.1385 256.869 87.1585 258.034 88.4339 258.385C89.7453 258.738 90.5398 257.449 91.0144 255.563L89.4094 255.136L89.9644 253.14L93.7398 254.358L91.9478 261.01L90.2103 260.536L90.601 259.13H90.5522C89.7514 260.28 88.7758 260.401 87.9205 260.236C84.3743 259.274 84.5067 257.03 85.2827 254.019L85.9182 251.639L86.1813 250.815L86.3604 250.294C87.2108 247.919 88.3082 246.405 91.4372 247.265ZM124.827 254.858L124.591 258.531L125.88 258.603C126.926 258.641 127.62 258.227 127.711 256.684C127.762 255.204 127.204 254.952 125.847 254.892L124.827 254.858ZM142.567 253.817L141.258 254.028L141.691 257.287L142.156 257.238L142.549 257.176C143.024 257.095 143.533 256.963 143.777 256.552L143.889 256.32C144.018 256.05 144.121 255.744 144.013 255.133C143.853 254.261 143.573 253.699 142.567 253.817ZM101.126 251.886L100.408 255.301L102.133 255.767C103.18 255.919 103.761 255.376 103.968 254.106C104.155 252.941 103.913 252.488 102.973 252.262L101.126 251.886ZM163.428 249.546L164.068 255.44L166.019 254.872L163.428 249.546ZM126.802 134.421L127.474 134.407L127.641 134.409C140.994 134.627 152.428 143.58 152.378 158.934C152.355 172.008 141.885 179.006 138.113 184.006C132.458 191.538 129.29 200.115 129.087 213.761L129.038 218.136L129.018 222.115C129.005 227.037 129.036 231.679 129.069 235.121L129.119 239.477H126.122L126.012 225.322L125.976 222.233C125.941 219.604 125.895 216.855 125.832 214.098C125.515 200.454 122.456 191.538 116.805 184.006C113.065 179.006 102.586 172.007 102.543 158.934C102.503 143.775 113.655 134.855 126.802 134.421ZM160.33 173.21L160.674 173.245C168.571 173.932 175.18 177.162 178.743 186.455C182.033 195.115 179.073 206.633 168.138 209.335L166.373 209.778L164.59 210.239C155.004 212.759 149.074 215.012 144.637 218.061C138.581 222.231 133.979 230.201 133.837 239.464L131.257 239.454L131.251 219.906L131.291 215.749C131.304 215.102 131.319 214.629 131.337 214.377C131.206 189.704 148.896 172.227 160.33 173.21ZM177.971 206.682C180.955 209.686 181.495 216.437 180.972 220.384C180.351 224.949 175.045 232.475 167.052 232.769C162.976 232.935 157.977 232.09 154.717 231.439L152.994 231.082C147.898 229.974 139.783 233.187 138.488 239.454L136.145 239.464C136.104 231.432 140.57 224.33 146.393 220.513C151.596 217.14 158.558 214.924 169.768 212.07C173.243 211.179 176.867 209.202 177.971 206.682ZM123.587 214.377L123.602 214.652L123.635 215.786C123.685 218.353 123.692 223.592 123.688 228.702L123.674 239.454L121.416 239.464C121.285 230.201 116.337 222.231 110.275 218.061C105.327 214.652 98.4903 212.238 86.7841 209.335C75.8354 206.633 72.8908 195.115 76.1845 186.455C79.6644 177.352 86.0851 174.066 93.7681 173.29L94.2499 173.245C105.66 171.875 123.722 189.455 123.587 214.377ZM76.937 206.682C78.0606 209.202 81.6879 211.179 85.1558 212.07L87.9483 212.791L89.7658 213.274C98.351 215.59 104.081 217.628 108.512 220.513C114.212 224.239 118.606 231.095 118.777 238.891L118.782 239.464L116.421 239.454C115.159 233.318 107.373 230.109 102.247 231.018L100.725 231.333L99.5751 231.562C96.3267 232.191 91.7098 232.925 87.8849 232.769C79.8755 232.475 74.5568 224.949 73.9496 220.384C73.4267 216.437 73.966 209.686 76.937 206.682ZM292.333 208.156H277.917L272.459 229.183H286.417C291.906 229.183 299.39 226.449 301.223 219.606C303.034 212.744 297.803 208.156 292.333 208.156ZM508.973 172.814L493.266 210.029H509.448L508.973 172.814ZM287.992 167.3L283.858 185.547H294.674C298.847 185.547 306.216 184.488 308.058 176.385C310.077 167.588 303.161 167.351 299.845 167.351L287.992 167.3Z" fill="#0066AE"/>
</g>
</svg>
