<svg width="600" height="400" viewBox="0 0 600 400" fill="none" xmlns="http://www.w3.org/2000/svg">
<path d="M506.568 218.692V175.984H435.137V161.734H506.568V133.254H392.278V204.447H463.709V218.697H392.278V247.177H506.563V218.697L506.568 218.692ZM378.002 133.254H349.43V247.161H378.002V133.254ZM220.864 133.254V161.734H306.571V175.984H220.864V247.172H249.421V204.882L292.29 247.177H335.149L290.433 204.447H335.149V133.254H220.864ZM135.137 204.447H163.637V176.041H135.137V204.447ZM142.29 183.096H156.571V197.33H142.295V183.096H142.29Z" fill="#010101"/>
<path d="M120.856 133.254H95.8522C95.1474 133.261 94.4597 133.472 93.8735 133.864C93.2873 134.255 92.8281 134.809 92.5522 135.458C92.3726 135.892 92.2812 136.358 92.2832 136.829V243.603C92.2826 244.071 92.3745 244.535 92.5537 244.968C92.733 245.4 92.996 245.793 93.3277 246.124C93.6593 246.455 94.0531 246.717 94.4864 246.895C94.9196 247.073 95.3838 247.163 95.8522 247.161H163.714V218.754H120.856V133.254ZM202.999 133.254H135.137V161.734H178.006V204.448H206.506V136.829C206.515 135.887 206.155 134.979 205.502 134.299C204.832 133.644 203.936 133.27 202.999 133.254ZM206.583 218.697H178.006V282.773H206.583V218.697Z" fill="#010101"/>
<path d="M132.15 117.242H78.569C77.6259 117.247 76.7228 117.623 76.0549 118.289C75.3871 118.955 75.0081 119.857 75 120.8V174.205H82.1379V127.861C82.1555 126.926 82.5393 126.035 83.2067 125.38C83.8741 124.726 84.7719 124.359 85.7069 124.359H132.207L132.155 117.242H132.15ZM517.862 209.787V256.131C517.859 257.076 517.482 257.981 516.813 258.648C516.144 259.315 515.238 259.69 514.293 259.69H467.793V266.75H521.369C521.841 266.756 522.31 266.669 522.749 266.493C523.188 266.318 523.587 266.057 523.925 265.726C524.262 265.395 524.531 265.001 524.715 264.566C524.9 264.131 524.997 263.664 525 263.192V209.787H517.862Z" fill="#010101"/>
</svg>
