<svg width="600" height="400" viewBox="0 0 600 400" fill="none" xmlns="http://www.w3.org/2000/svg">
<path d="M405.27 205.841C405.126 205.913 404.909 205.913 404.765 205.984C404.333 205.627 403.972 205.197 403.54 204.84C402.098 203.767 400.728 202.551 399.215 201.622C393.16 197.903 386.456 197.689 379.897 199.047C370.31 201.05 363.39 206.914 358.632 215.352C356.758 218.713 355.533 222.36 355.317 226.15C355.1 229.439 355.317 232.872 355.749 236.161C356.11 238.521 356.974 240.81 357.911 243.026C359.497 246.888 362.308 249.891 365.264 252.823C369.877 257.4 375.427 259.974 381.699 261.047C385.303 261.691 388.979 261.476 392.655 260.761C396.98 259.903 400.728 258.115 403.756 254.897C404.044 254.54 404.477 254.325 405.053 253.824C405.126 254.54 405.197 254.968 405.197 255.397C405.197 256.899 405.197 258.473 405.197 259.974C405.197 261.047 405.63 261.476 406.711 261.404C410.099 261.333 413.415 261.333 416.803 261.404C417.884 261.404 418.244 260.975 418.244 259.974C418.244 239.951 418.244 219.928 418.244 199.977C418.244 198.904 417.884 198.475 416.803 198.475C414.136 198.547 411.397 198.475 408.73 198.475C404.765 198.475 405.27 198.046 405.197 201.979C405.27 203.338 405.27 204.554 405.27 205.841ZM182.463 262.263C205.529 262.263 228.523 262.263 251.59 262.263C252.094 262.263 252.671 262.263 253.176 262.191C256.275 261.333 259.014 259.831 261.104 257.328C263.051 255.04 264.276 252.537 264.276 249.534C264.276 217.998 264.276 186.39 264.348 154.854C264.348 151.35 262.907 148.49 260.672 146.058C257.717 142.84 253.752 141.553 249.571 141.553C206.394 141.482 163.217 141.482 120.039 141.482C117.228 141.482 115.137 140.338 113.984 137.763C112.903 135.403 113.047 135.189 115.57 135.189C154.134 135.189 192.626 135.189 231.19 135.189C233.281 135.189 233.569 134.903 233.569 132.829C233.569 128.395 233.497 123.89 233.569 119.457C233.641 117.097 232.56 115.38 230.758 114.165C230.037 113.664 228.956 113.45 228.091 113.521C225.28 113.807 222.468 114.236 219.657 114.594C217.134 114.88 214.539 115.166 211.944 115.452C210.935 115.595 209.926 115.595 208.917 115.738C206.25 116.096 203.583 116.596 200.916 116.882C198.249 117.24 195.581 117.454 192.987 117.74C191.977 117.883 190.896 117.955 189.887 118.098C187.292 118.455 184.697 118.956 182.102 119.242C179.435 119.6 176.768 119.814 174.173 120.1C173.164 120.243 172.083 120.315 171.073 120.458C168.407 120.815 165.739 121.316 163.072 121.602C160.405 121.959 157.666 122.174 154.999 122.46C153.99 122.532 152.981 122.603 151.972 122.746C149.233 123.104 146.565 123.604 143.826 123.962C141.159 124.319 138.42 124.534 135.753 124.82C134.744 124.891 133.735 124.963 132.725 125.106C130.131 125.463 127.463 125.964 124.868 126.322C122.274 126.679 119.679 126.894 117.084 127.18C116.074 127.323 114.993 127.394 113.984 127.537C111.317 127.895 108.65 128.467 105.911 128.681C102.451 128.967 100 131.256 100 134.617C100 172.16 100 209.631 100 247.174C100 250.321 100.577 253.181 102.307 255.827C104.83 259.76 108.506 262.12 113.191 262.191C136.33 262.334 159.396 262.263 182.463 262.263ZM396.836 157.143C396.836 164.508 396.836 171.874 396.836 179.239C396.836 180.383 397.197 180.955 398.422 180.884C399.503 180.812 400.512 180.812 401.593 180.884C402.819 180.955 403.179 180.455 403.179 179.311C403.107 173.518 403.179 167.726 403.179 162.005C403.179 161.576 403.396 161.147 403.467 160.647C403.9 160.861 404.333 161.004 404.621 161.29C408.369 165.152 414.857 165.795 419.686 163.721C422.425 162.506 424.66 160.79 426.462 158.287C429.057 154.64 430.066 150.635 429.49 146.416C428.697 141.196 425.813 137.191 421.2 134.402C416.226 131.47 408.73 131.828 404.549 136.047C404.26 136.333 403.828 136.404 403.467 136.619C403.396 136.261 403.251 135.904 403.179 135.546C403.107 135.26 403.179 135.046 403.179 134.76C403.251 133.759 402.819 133.33 401.81 133.33C401.017 133.33 400.224 133.33 399.431 133.33C396.908 133.33 396.908 133.33 396.908 135.761C396.836 142.84 396.836 149.991 396.836 157.143ZM304.21 164.294C305.075 164.151 306.661 164.079 308.102 163.721C312.86 162.72 316.897 160.575 319.491 156.356C321.366 153.424 322.087 150.134 320.645 146.773C318.987 142.983 316.248 140.195 312.571 138.407C309.04 136.762 305.363 135.475 301.687 134.045C299.38 133.187 297.362 131.899 295.704 130.04C294.263 128.395 293.974 125.821 295.055 124.319C296.857 121.888 299.38 120.601 302.336 120.386C306.733 120.029 310.77 121.03 314.59 123.175C314.95 123.39 315.815 123.175 315.96 122.889C316.752 121.673 317.401 120.386 318.122 119.099C318.482 118.455 318.338 117.955 317.69 117.597C312.5 114.951 307.237 113.092 301.183 114.022C297.362 114.808 293.902 116.239 291.163 119.242C287.847 122.889 286.838 127.18 289.145 131.613C291.451 136.19 295.632 138.407 300.173 140.266C303.633 141.696 307.165 142.84 310.481 144.557C312.139 145.415 313.725 147.06 314.446 148.704C315.599 151.136 314.013 154.139 311.562 155.498C308.391 157.214 305.075 158.072 301.327 157.5C297.65 156.928 294.551 155.426 291.596 153.352C290.73 152.78 290.298 152.852 289.721 153.495C288.857 154.497 287.919 155.498 286.982 156.57C286.406 157.214 286.766 157.714 287.27 158.144C292.172 161.934 297.506 164.079 304.21 164.294ZM331.89 135.26C331.817 134.402 331.817 133.902 331.817 133.401C331.817 127.394 331.817 121.387 331.817 115.38C331.817 114.165 331.385 113.736 330.16 113.736C329.15 113.807 328.141 113.736 327.132 113.736C325.186 113.736 325.114 113.807 325.114 115.738C325.114 131.184 325.114 146.63 325.114 162.077C325.114 162.291 325.114 162.506 325.114 162.72C325.042 163.65 325.474 164.079 326.411 164.079C327.637 164.079 328.79 164.079 330.016 164.079C331.529 164.079 331.746 163.864 331.746 162.291C331.746 157.285 331.601 152.208 331.817 147.203C332.106 140.767 337.8 137.906 343.279 139.336C346.955 140.266 348.685 142.983 348.757 146.917C348.829 152.065 348.829 157.214 348.757 162.434C348.757 163.721 349.19 164.151 350.487 164.079C351.712 164.007 352.938 164.079 354.163 164.079C355.028 164.079 355.46 163.65 355.46 162.792C355.46 161.147 355.46 159.574 355.46 157.929C355.389 153.495 355.46 148.99 355.1 144.557C354.74 140.266 352.577 136.834 348.829 134.617C344.072 131.756 339.098 131.327 333.98 133.83C333.331 134.331 332.827 134.688 331.89 135.26ZM487.3 151.064C490.687 151.064 494.075 151.064 497.463 151.064C498.473 151.064 498.977 150.635 498.905 149.634C498.761 148.061 498.761 146.416 498.4 144.843C497.68 141.625 495.95 138.907 493.499 136.762C490.616 134.259 487.3 133.044 483.335 133.115C478.289 133.187 474.613 135.546 471.73 139.408C469.135 142.84 468.126 146.63 468.847 151.064C469.783 156.284 472.523 160.074 477.136 162.506C480.38 164.222 483.84 164.437 487.516 163.721C491.624 162.863 494.94 160.861 497.607 157.714C498.184 157.071 498.184 156.499 497.463 155.927C496.382 155.069 495.301 154.211 494.22 153.281C493.715 152.852 493.283 152.852 492.922 153.352C491.048 155.784 488.525 156.642 485.57 157.214C482.326 157.857 477.352 155.784 476.055 152.351C475.622 151.207 475.694 150.993 476.992 150.993C480.524 151.064 483.912 151.064 487.3 151.064ZM451.835 151.064C455.151 151.064 458.467 151.064 461.783 151.064C463.296 151.064 463.801 150.635 463.729 149.062C463.657 147.489 463.368 145.987 463.008 144.414C462.359 141.339 460.485 139.05 458.25 136.905C454.646 133.473 450.321 132.686 445.636 133.33C441.599 133.902 438.716 136.476 436.337 139.551C432.517 144.485 432.157 151.636 435.905 157.071C439.004 161.576 443.185 164.222 448.807 164.151C449.889 164.151 450.97 163.864 452.051 163.721C456.304 163.292 459.476 160.933 462.215 157.929C462.792 157.285 462.863 156.642 462.071 155.998C461.062 155.212 460.196 154.282 459.115 153.567C458.755 153.281 457.746 153.281 457.53 153.567C455.583 155.855 453.06 156.785 450.177 157.214C446.429 157.786 442.464 156.07 440.807 152.637C440.158 151.279 440.302 150.993 441.816 150.993C445.203 151.064 448.519 151.064 451.835 151.064ZM392.727 148.633C392.943 139.837 384.943 132.9 377.662 132.471C366.85 131.756 360.218 140.552 359.93 147.918C359.497 157.714 367.715 165.009 376.364 165.009C385.014 164.937 392.871 157.643 392.727 148.633ZM441.743 287.291C443.834 287.291 445.997 287.22 448.087 287.291C449.168 287.363 449.817 286.862 450.321 286.004C452.484 282.214 454.574 278.424 456.664 274.562C458.394 271.416 460.124 268.27 461.854 265.194C463.873 261.476 465.963 257.757 467.981 254.111C469.711 250.964 471.37 247.817 473.1 244.671C474.973 241.31 476.848 238.021 478.722 234.66C479.731 232.872 480.668 231.084 481.677 229.296C483.479 226.15 485.281 223.004 487.011 219.857C488.886 216.496 490.76 213.064 492.634 209.703C494.364 206.556 496.166 203.481 497.896 200.335C498.617 198.976 498.184 198.332 496.67 198.332C492.417 198.332 488.093 198.332 483.84 198.332C482.975 198.332 482.47 198.618 482.037 199.405C480.668 201.979 479.298 204.482 477.929 206.985C474.757 212.706 471.586 218.427 468.414 224.147C466.18 228.152 464.017 232.157 461.71 236.161C461.494 236.591 461.062 236.877 460.701 237.234C460.413 236.877 460.053 236.519 459.836 236.09C457.385 231.442 454.934 226.722 452.484 222.074C450.321 217.998 448.087 213.922 445.924 209.846C444.194 206.484 442.464 203.124 440.662 199.834C440.302 199.191 439.437 198.404 438.716 198.404C434.319 198.261 429.994 198.332 425.597 198.332C424.443 198.332 424.155 198.904 424.66 199.977C426.967 204.411 429.345 208.844 431.652 213.278C434.679 218.999 437.707 224.72 440.734 230.441C441.816 232.586 442.897 234.731 443.978 236.877C446.645 241.954 449.384 247.031 451.979 252.108C452.195 252.466 452.123 253.181 451.979 253.538C451.042 255.326 450.105 257.114 449.096 258.83C445.852 264.479 442.608 270.057 439.365 275.707C437.49 278.924 435.76 282.214 433.887 285.432C433.166 286.647 433.526 287.291 434.968 287.363C437.419 287.291 439.581 287.291 441.743 287.291ZM286.766 217.211C286.766 231.37 286.766 245.601 286.766 259.76C286.766 261.762 286.838 261.834 288.857 261.834C292.46 261.834 295.993 261.834 299.597 261.834C301.399 261.834 301.615 261.691 301.687 259.831C301.687 259.545 301.687 259.187 301.687 258.902C301.687 251.894 301.687 244.886 301.687 237.877C301.687 236.09 301.687 236.09 303.561 236.09C307.958 236.09 312.355 236.018 316.824 236.09C321.366 236.161 325.907 235.875 330.376 234.874C336.143 233.587 341.044 230.87 345.369 227.08C347.676 225.077 349.333 222.503 350.775 219.714C352.938 215.566 354.019 211.133 354.163 206.484C354.235 204.983 353.803 203.481 353.73 201.979C353.587 197.975 352.217 194.328 350.487 190.824C348.397 186.39 345.081 182.886 341.477 179.668C340.251 178.524 338.665 177.737 337.224 176.879C334.557 175.449 331.89 174.091 328.862 173.518C326.988 173.161 325.114 172.517 323.24 172.446C311.923 172.374 300.533 172.374 289.217 172.374C287.054 172.374 286.838 172.589 286.838 174.806C286.766 188.893 286.766 203.052 286.766 217.211Z" fill="#FEFEFE"/>
<path d="M405.271 205.84C405.271 204.624 405.271 203.337 405.271 202.121C405.271 198.188 404.766 198.617 408.803 198.617C411.47 198.617 414.209 198.617 416.876 198.617C417.957 198.617 418.318 199.046 418.318 200.119C418.318 220.142 418.318 240.165 418.318 260.116C418.318 261.189 417.957 261.618 416.876 261.546C413.488 261.475 410.173 261.475 406.785 261.546C405.703 261.546 405.271 261.117 405.271 260.116C405.271 258.614 405.271 257.041 405.271 255.539C405.271 255.11 405.199 254.753 405.126 253.966C404.55 254.466 404.117 254.681 403.829 255.039C400.802 258.257 397.053 260.044 392.729 260.903C389.052 261.618 385.376 261.832 381.772 261.189C375.501 260.116 369.878 257.542 365.337 252.965C362.382 250.033 359.57 247.03 357.985 243.168C357.048 240.951 356.183 238.663 355.822 236.303C355.389 233.013 355.101 229.581 355.389 226.292C355.678 222.502 356.831 218.854 358.706 215.493C363.463 207.055 370.383 201.191 379.97 199.189C386.529 197.83 393.233 198.045 399.288 201.763C400.802 202.693 402.171 203.909 403.613 204.981C404.046 205.339 404.478 205.697 404.838 206.126C404.91 205.911 405.126 205.84 405.271 205.84ZM368.22 229.939C367.644 240.165 376.943 247.959 385.809 248.317C396.765 248.817 405.199 239.593 405.415 230.797C405.703 220.07 396.837 211.417 386.601 211.346C376.798 211.346 367.788 219.999 368.22 229.939Z" fill="#F3473B"/>
<path d="M182.463 262.263C159.396 262.263 136.258 262.334 113.191 262.191C108.506 262.191 104.83 259.76 102.307 255.827C100.577 253.181 100 250.321 100 247.174C100.072 209.703 100 172.16 100 134.617C100 131.256 102.379 128.967 105.839 128.681C108.506 128.467 111.173 127.895 113.912 127.537C114.921 127.394 116.002 127.323 117.011 127.18C119.606 126.894 122.201 126.679 124.796 126.322C127.463 125.964 130.058 125.535 132.653 125.106C133.663 124.963 134.672 124.891 135.681 124.82C138.348 124.534 141.087 124.319 143.754 123.962C146.493 123.604 149.16 123.104 151.9 122.746C152.909 122.603 153.918 122.532 154.927 122.46C157.594 122.174 160.333 121.959 163 121.602C165.667 121.244 168.334 120.815 171.001 120.458C172.01 120.315 173.092 120.243 174.101 120.1C176.768 119.814 179.435 119.6 182.03 119.242C184.625 118.884 187.22 118.455 189.815 118.098C190.824 117.955 191.905 117.883 192.914 117.74C195.581 117.454 198.249 117.24 200.843 116.882C203.51 116.525 206.178 116.096 208.845 115.738C209.854 115.595 210.863 115.524 211.872 115.452C214.467 115.166 216.99 114.88 219.585 114.594C222.396 114.236 225.207 113.736 228.019 113.521C228.883 113.45 230.037 113.664 230.686 114.165C232.488 115.38 233.497 117.097 233.497 119.457C233.425 123.89 233.497 128.395 233.497 132.829C233.497 134.831 233.209 135.189 231.118 135.189C192.554 135.189 154.062 135.189 115.498 135.189C112.975 135.189 112.831 135.403 113.912 137.763C115.137 140.409 117.156 141.482 119.967 141.482C163.144 141.482 206.322 141.482 249.499 141.553C253.68 141.553 257.645 142.84 260.6 146.058C262.907 148.418 264.348 151.279 264.348 154.783C264.276 186.319 264.348 217.926 264.276 249.462C264.276 252.466 263.051 254.969 261.104 257.257C258.942 259.76 256.275 261.261 253.176 262.12C252.671 262.263 252.094 262.191 251.59 262.191C228.595 262.263 205.529 262.263 182.463 262.263ZM182.39 261.333C205.097 261.333 227.874 261.333 250.58 261.333C253.464 261.333 255.987 260.618 258.149 258.83C261.393 256.256 263.411 253.181 263.411 248.819C263.339 217.426 263.339 186.033 263.411 154.64C263.411 151.279 262.042 148.633 259.951 146.273C257.212 143.198 253.464 142.197 249.571 142.197C206.538 142.125 163.577 142.125 120.544 142.197C117.228 142.197 113.407 139.98 112.687 136.691C112.182 134.474 112.254 134.116 114.633 134.116C153.269 134.116 191.905 134.116 230.542 134.116C230.902 134.116 231.262 134.116 231.623 134.116C232.343 134.188 232.632 133.902 232.632 133.187C232.632 128.252 232.632 123.318 232.632 118.312C232.632 116.31 230.397 113.95 228.667 114.093C226.433 114.308 224.198 114.665 221.892 114.951C220.883 115.094 219.801 115.094 218.72 115.237C215.981 115.595 213.242 116.096 210.43 116.453C207.763 116.811 205.168 117.025 202.501 117.311C201.564 117.383 200.555 117.454 199.618 117.597C196.951 117.955 194.284 118.455 191.617 118.813C189.022 119.171 186.427 119.385 183.832 119.671C182.823 119.814 181.814 119.814 180.804 119.957C178.065 120.315 175.326 120.815 172.515 121.173C169.848 121.53 167.109 121.745 164.442 122.031C163.433 122.102 162.423 122.174 161.414 122.317C158.603 122.675 155.792 123.104 152.981 123.533C151.539 123.747 150.025 123.89 148.512 124.033C145.628 124.391 142.745 124.748 139.934 125.106C137.339 125.392 134.816 125.678 132.221 126.036C129.698 126.393 127.103 126.822 124.58 127.18C122.057 127.537 119.534 127.752 117.011 127.966C115.93 128.109 114.921 128.109 113.84 128.252C111.101 128.681 108.434 129.253 105.695 129.468C102.523 129.683 100.793 131.685 100.793 134.688C100.865 172.374 100.865 209.989 100.793 247.674C100.793 250.392 101.37 252.823 102.739 255.112C105.118 259.045 108.65 261.19 113.263 261.261C136.402 261.404 159.396 261.333 182.39 261.333Z" fill="#F78D85"/>
<path d="M396.838 157.14C396.838 149.989 396.838 142.838 396.838 135.758C396.838 133.327 396.838 133.327 399.361 133.327C400.154 133.327 400.947 133.327 401.74 133.327C402.749 133.255 403.182 133.756 403.11 134.757C403.11 135.043 403.037 135.258 403.11 135.544C403.182 135.901 403.326 136.259 403.398 136.616C403.758 136.473 404.191 136.33 404.479 136.044C408.66 131.825 416.157 131.396 421.13 134.4C425.744 137.188 428.699 141.122 429.42 146.413C430.068 150.704 429.059 154.708 426.392 158.284C424.59 160.787 422.356 162.503 419.617 163.719C414.859 165.864 408.372 165.22 404.551 161.287C404.263 161.001 403.758 160.858 403.398 160.644C403.326 161.073 403.11 161.502 403.11 162.003C403.11 167.795 403.037 173.587 403.11 179.308C403.11 180.524 402.749 181.024 401.524 180.881C400.443 180.81 399.434 180.81 398.352 180.881C397.127 180.953 396.767 180.38 396.767 179.237C396.838 171.871 396.838 164.505 396.838 157.14ZM403.47 148.487C403.47 154.065 407.723 158.356 413.129 158.356C418.68 158.356 422.86 154.136 423.004 148.702C423.149 143.553 418.247 138.905 413.417 138.905C408.155 138.905 403.037 143.624 403.47 148.487Z" fill="#F44D40"/>
<path d="M304.213 164.292C297.509 164.077 292.175 162.003 287.418 158.213C286.913 157.784 286.48 157.355 287.129 156.64C288.066 155.639 288.931 154.638 289.868 153.565C290.445 152.922 290.878 152.779 291.742 153.422C294.626 155.496 297.797 156.998 301.474 157.57C305.222 158.142 308.538 157.284 311.709 155.568C314.16 154.209 315.746 151.206 314.592 148.774C313.8 147.129 312.214 145.485 310.628 144.627C307.312 142.91 303.78 141.766 300.32 140.336C295.851 138.477 291.598 136.188 289.292 131.683C286.985 127.25 287.994 122.887 291.31 119.312C293.905 116.237 297.365 114.807 301.329 114.163C307.384 113.162 312.646 115.093 317.836 117.739C318.485 118.096 318.629 118.597 318.269 119.24C317.548 120.528 316.899 121.815 316.106 123.03C315.89 123.316 315.025 123.46 314.737 123.316C310.916 121.171 306.808 120.17 302.483 120.528C299.527 120.742 297.005 122.101 295.202 124.461C294.049 125.962 294.409 128.537 295.851 130.181C297.509 132.041 299.527 133.328 301.834 134.186C305.51 135.545 309.186 136.903 312.718 138.548C316.395 140.264 319.134 143.125 320.792 146.915C322.305 150.347 321.512 153.565 319.638 156.497C317.043 160.645 313.007 162.862 308.249 163.863C306.664 164.006 305.078 164.149 304.213 164.292Z" fill="#F44C40"/>
<path d="M331.887 135.259C332.752 134.687 333.329 134.258 333.977 133.972C339.023 131.469 344.069 131.826 348.826 134.758C352.503 136.975 354.737 140.408 355.097 144.698C355.458 149.132 355.386 153.565 355.458 158.071C355.458 159.715 355.458 161.289 355.458 162.933C355.458 163.791 355.098 164.22 354.16 164.22C352.935 164.22 351.71 164.149 350.484 164.22C349.187 164.292 348.754 163.791 348.754 162.576C348.826 157.427 348.826 152.278 348.754 147.058C348.682 143.053 347.024 140.408 343.276 139.478C337.798 138.048 332.103 140.908 331.815 147.344C331.599 152.35 331.743 157.427 331.743 162.433C331.743 164.006 331.526 164.22 330.013 164.22C328.787 164.22 327.634 164.22 326.409 164.22C325.472 164.22 325.039 163.791 325.111 162.862C325.111 162.647 325.111 162.433 325.111 162.218C325.111 146.772 325.111 131.326 325.111 115.88C325.111 113.949 325.183 113.877 327.13 113.877C328.139 113.877 329.148 113.877 330.157 113.877C331.31 113.806 331.815 114.306 331.815 115.522C331.743 121.529 331.815 127.536 331.815 133.543C331.815 133.9 331.887 134.401 331.887 135.259Z" fill="#F44C40"/>
<path d="M487.3 151.063C483.912 151.063 480.525 151.063 477.137 151.063C475.839 151.063 475.767 151.277 476.2 152.421C477.425 155.854 482.471 157.928 485.715 157.284C488.67 156.64 491.193 155.782 493.067 153.423C493.499 152.922 493.86 152.85 494.365 153.351C495.446 154.281 496.527 155.139 497.608 155.997C498.329 156.569 498.329 157.141 497.752 157.785C495.085 160.86 491.769 162.933 487.661 163.792C483.985 164.506 480.525 164.292 477.281 162.576C472.668 160.144 469.928 156.354 468.992 151.134C468.198 146.701 469.28 142.91 471.875 139.478C474.686 135.616 478.362 133.328 483.48 133.185C487.445 133.114 490.76 134.329 493.644 136.832C496.095 138.977 497.825 141.695 498.545 144.913C498.906 146.486 498.906 148.131 499.05 149.704C499.122 150.705 498.689 151.134 497.608 151.134C494.148 151.063 490.76 151.063 487.3 151.063ZM483.912 145.771C486.219 145.771 488.526 145.771 490.76 145.771C491.697 145.771 491.986 145.413 491.553 144.555C489.968 141.766 487.661 139.979 484.345 139.764C480.813 139.55 478.362 141.409 476.416 144.126C475.695 145.199 476.055 145.771 477.281 145.771C479.515 145.771 481.678 145.771 483.912 145.771Z" fill="#F44C40"/>
<path d="M451.834 151.061C448.518 151.061 445.202 151.061 441.886 151.061C440.373 151.061 440.228 151.347 440.877 152.706C442.535 156.139 446.5 157.855 450.248 157.283C453.131 156.782 455.654 155.924 457.601 153.636C457.817 153.35 458.826 153.35 459.186 153.636C460.267 154.351 461.132 155.281 462.141 156.067C462.862 156.711 462.862 157.354 462.286 157.998C459.547 161.001 456.375 163.29 452.122 163.79C451.041 163.933 449.96 164.219 448.878 164.219C443.256 164.291 439.075 161.716 435.976 157.14C432.227 151.705 432.516 144.554 436.408 139.62C438.787 136.545 441.67 133.97 445.707 133.398C450.32 132.755 454.717 133.541 458.321 136.974C460.556 139.119 462.43 141.479 463.079 144.483C463.439 145.984 463.655 147.557 463.8 149.131C463.871 150.632 463.367 151.061 461.853 151.133C458.465 151.061 455.15 151.061 451.834 151.061ZM448.446 145.77C450.536 145.77 452.699 145.77 454.789 145.77C455.222 145.77 456.014 145.627 456.014 145.412C456.159 144.983 455.943 144.339 455.654 143.982C454.933 143.052 454.141 142.194 453.275 141.479C449.383 138.261 442.895 139.763 440.949 144.268C440.445 145.412 440.589 145.77 441.886 145.77C444.121 145.77 446.284 145.77 448.446 145.77Z" fill="#F44C40"/>
<path d="M392.726 148.631C392.87 157.641 385.013 164.935 376.363 164.935C367.713 164.935 359.568 157.641 359.929 147.844C360.217 140.479 366.849 131.754 377.661 132.398C384.941 132.898 393.015 139.835 392.726 148.631ZM376.363 139.048C371.606 138.333 366.56 143.482 366.488 148.345C366.416 153.994 371.173 158.499 376.291 158.356C381.914 158.285 385.95 154.137 386.095 148.488C386.239 143.41 381.481 138.476 376.363 139.048Z" fill="#F44C3F"/>
<path d="M441.743 287.289C439.58 287.289 437.418 287.289 435.255 287.289C433.814 287.289 433.453 286.645 434.174 285.358C435.976 282.14 437.778 278.851 439.652 275.633C442.896 269.983 446.14 264.334 449.383 258.756C450.393 257.04 451.33 255.252 452.267 253.465C452.483 253.035 452.483 252.392 452.267 252.034C449.6 246.957 446.933 241.88 444.266 236.803C443.184 234.657 442.103 232.512 441.022 230.367C437.994 224.646 434.967 218.925 431.94 213.204C429.561 208.771 427.254 204.337 424.947 199.903C424.443 198.902 424.731 198.258 425.884 198.258C430.282 198.258 434.607 198.187 439.003 198.33C439.652 198.33 440.59 199.117 440.95 199.76C442.752 203.05 444.41 206.411 446.212 209.772C448.374 213.848 450.609 217.924 452.771 222C455.222 226.648 457.673 231.368 460.124 236.016C460.34 236.445 460.7 236.731 460.989 237.16C461.349 236.803 461.71 236.445 461.998 236.088C464.233 232.083 466.467 228.078 468.702 224.074C471.873 218.353 475.045 212.632 478.217 206.912C479.586 204.408 481.028 201.834 482.325 199.331C482.758 198.545 483.262 198.258 484.127 198.258C488.38 198.258 492.705 198.258 496.958 198.258C498.472 198.258 498.904 198.902 498.183 200.261C496.453 203.407 494.724 206.482 492.921 209.629C491.047 212.99 489.173 216.422 487.299 219.783C485.497 222.93 483.695 226.076 481.965 229.222C480.956 231.01 479.947 232.798 479.009 234.586C477.135 237.947 475.261 241.236 473.387 244.597C471.657 247.744 469.999 250.89 468.269 254.037C466.251 257.755 464.16 261.474 462.142 265.121C460.412 268.267 458.682 271.414 456.952 274.488C454.862 278.278 452.699 282.068 450.609 285.93C450.104 286.788 449.456 287.289 448.374 287.218C445.996 287.218 443.905 287.289 441.743 287.289ZM425.452 199.117C425.74 199.689 425.884 200.189 426.101 200.618C428.047 204.194 429.993 207.769 431.867 211.345C435.183 217.638 438.499 223.931 441.743 230.152C443.04 232.655 444.338 235.158 445.707 237.661C448.086 242.166 450.465 246.742 452.843 251.248C453.348 252.177 453.348 252.964 452.843 253.822C450.969 257.183 449.095 260.544 447.149 263.834C444.842 267.91 442.536 271.914 440.229 275.99C438.499 278.994 436.769 282.068 435.039 285.072C434.534 286.002 434.679 286.359 435.904 286.359C439.94 286.359 444.049 286.431 448.086 286.359C448.59 286.359 449.384 285.93 449.6 285.501C452.916 279.566 456.159 273.631 459.403 267.695C460.989 264.835 462.574 261.974 464.16 259.114C467.837 252.535 471.585 246.028 475.189 239.52C477.712 235.086 480.09 230.51 482.541 226.076C484.416 222.787 486.29 219.497 488.164 216.136C490.975 211.059 493.786 205.982 496.597 200.905C496.886 200.332 497.174 199.76 497.463 199.117C497.174 199.045 496.958 198.974 496.814 198.974C492.489 198.974 488.164 198.902 483.839 199.045C483.407 199.045 482.83 199.617 482.541 200.046C480.451 203.622 478.433 207.198 476.487 210.773C473.387 216.279 470.36 221.857 467.332 227.435C465.602 230.581 463.872 233.728 462.142 236.874C461.998 237.16 461.71 237.446 461.493 237.661C460.7 238.448 460.124 238.376 459.619 237.375C459.115 236.374 458.682 235.372 458.177 234.443C455.438 229.294 452.699 224.217 449.96 219.068C448.735 216.78 447.581 214.42 446.356 212.06C444.266 208.055 442.103 204.051 439.869 200.046C439.58 199.546 438.931 199.045 438.427 199.045C434.318 198.974 430.21 198.974 426.101 198.974C426.101 198.974 425.884 199.045 425.452 199.117Z" fill="#F9A9A3"/>
<path d="M286.765 217.21C286.765 203.051 286.765 188.964 286.765 174.805C286.765 172.588 286.982 172.373 289.144 172.373C300.461 172.373 311.85 172.302 323.167 172.445C325.041 172.445 326.915 173.16 328.789 173.517C331.817 174.018 334.484 175.448 337.151 176.879C338.665 177.665 340.179 178.523 341.404 179.667C345.008 182.885 348.324 186.39 350.414 190.823C352.072 194.399 353.514 197.974 353.658 201.979C353.73 203.48 354.162 204.982 354.09 206.484C353.946 211.132 352.865 215.566 350.702 219.713C349.333 222.43 347.603 225.005 345.296 227.079C340.971 230.94 336.07 233.586 330.303 234.873C325.834 235.874 321.293 236.16 316.752 236.089C312.355 236.017 307.958 236.089 303.489 236.089C301.614 236.089 301.614 236.089 301.614 237.877C301.614 244.885 301.614 251.893 301.614 258.901C301.614 259.187 301.614 259.544 301.614 259.83C301.542 261.69 301.326 261.833 299.524 261.833C295.92 261.833 292.388 261.833 288.783 261.833C286.765 261.833 286.693 261.761 286.693 259.759C286.765 245.528 286.765 231.37 286.765 217.21ZM287.702 217.067C287.702 231.227 287.702 245.457 287.702 259.616C287.702 260.76 287.991 261.118 289.216 261.118C292.604 261.046 295.992 261.046 299.38 261.118C300.605 261.118 300.821 260.76 300.821 259.616C300.749 252.107 300.821 244.67 300.821 237.162C300.821 235.374 301.11 235.088 302.912 235.088C309.183 235.088 315.454 235.017 321.725 235.088C325.834 235.088 329.871 234.373 333.763 233.086C337.295 231.941 340.395 230.082 343.422 227.794C346.089 225.792 347.891 223.289 349.477 220.5C351.496 217.139 352.937 213.492 353.081 209.487C353.226 206.341 353.297 203.123 352.793 199.977C352.432 197.33 351.423 194.613 350.27 192.182C348.972 189.464 347.459 186.747 345.512 184.387C342.197 180.24 337.872 177.236 332.898 175.305C329.726 174.09 326.411 173.088 322.951 173.088C311.85 173.088 300.677 173.088 289.576 173.088C287.702 173.088 287.702 173.088 287.702 174.876C287.702 189.035 287.702 203.051 287.702 217.067Z" fill="#F89A93"/>
<path d="M368.22 229.938C367.788 220.069 376.798 211.345 386.673 211.416C396.909 211.416 405.775 220.141 405.487 230.867C405.27 239.663 396.765 248.888 385.88 248.387C376.942 247.958 367.643 240.092 368.22 229.938Z" fill="#FEFBFB"/>
<path d="M182.391 261.331C159.396 261.331 136.402 261.331 113.408 261.331C108.795 261.331 105.262 259.186 102.884 255.181C101.514 252.893 100.938 250.39 100.938 247.744C100.938 210.058 101.01 172.444 100.938 134.758C100.938 131.754 102.667 129.752 105.839 129.538C108.578 129.395 111.245 128.751 113.984 128.322C114.994 128.179 116.075 128.107 117.156 128.036C119.679 127.75 122.202 127.535 124.725 127.249C127.248 126.892 129.843 126.463 132.366 126.105C134.96 125.748 137.483 125.533 140.078 125.176C142.962 124.818 145.845 124.46 148.656 124.103C150.17 123.888 151.612 123.745 153.125 123.602C155.936 123.245 158.748 122.816 161.559 122.387C162.568 122.244 163.577 122.172 164.586 122.101C167.253 121.815 169.993 121.6 172.66 121.242C175.399 120.885 178.21 120.456 180.949 120.027C181.958 119.884 182.968 119.812 183.977 119.741C186.572 119.455 189.167 119.24 191.762 118.883C194.428 118.525 197.095 118.096 199.763 117.667C200.7 117.524 201.709 117.524 202.646 117.381C205.313 117.095 207.98 116.809 210.575 116.523C213.314 116.165 216.053 115.736 218.865 115.307C219.874 115.164 220.955 115.164 222.036 115.021C224.271 114.735 226.505 114.377 228.812 114.163C230.542 114.02 232.777 116.38 232.777 118.382C232.848 123.316 232.777 128.25 232.777 133.256C232.777 134.043 232.488 134.257 231.767 134.186C231.407 134.186 231.047 134.186 230.686 134.186C192.05 134.186 153.414 134.186 114.777 134.186C112.399 134.186 112.327 134.543 112.831 136.76C113.552 140.05 117.372 142.266 120.688 142.266C163.722 142.195 206.683 142.195 249.716 142.266C253.608 142.266 257.357 143.268 260.096 146.343C262.258 148.702 263.556 151.348 263.556 154.709C263.484 186.102 263.484 217.495 263.556 248.888C263.556 253.25 261.538 256.397 258.294 258.9C256.131 260.616 253.536 261.403 250.725 261.403C227.875 261.331 205.169 261.331 182.391 261.331ZM181.526 164.721C179.508 164.578 176.48 165.15 173.452 166.079C167.83 167.867 163.217 171.013 160.405 176.377C158.387 180.31 157.883 184.458 159.396 188.605C161.415 194.111 165.524 197.902 170.642 200.476C174.822 202.549 179.219 204.051 183.544 205.768C186.788 207.055 190.032 208.199 192.915 210.201C194.861 211.632 196.735 213.133 197.672 215.279C198.249 216.637 198.682 218.21 198.537 219.641C198.105 223.502 195.366 226.005 192.122 227.65C187.797 229.866 183.256 230.868 178.21 230.009C174.318 229.295 170.569 228.222 167.253 226.148C165.74 225.219 164.298 224.217 162.856 223.216C162.352 222.859 161.847 222.716 161.343 223.288C160.045 224.861 158.675 226.434 157.306 227.936C156.657 228.723 156.585 229.437 157.522 230.009C160.405 231.797 163.145 233.728 166.172 235.23C173.308 238.806 180.805 239.806 188.59 238.019C195.294 236.517 200.916 233.228 204.736 227.292C207.403 223.145 208.196 218.783 206.683 214.063C205.169 209.558 202.214 206.054 198.321 203.336C194.645 200.762 190.608 198.974 186.355 197.544C182.03 196.042 177.489 194.755 173.597 192.252C171.29 190.822 169.055 189.177 168.046 186.603C166.244 182.241 167.83 178.594 172.155 175.948C176.841 173.087 182.03 172.73 187.365 173.731C191.113 174.446 194.789 175.733 198.105 177.664C198.898 178.165 199.546 177.95 199.979 177.163C201.06 175.447 202.069 173.731 203.078 172.015C203.511 171.299 203.439 170.728 202.718 170.37C201.997 169.941 201.276 169.583 200.484 169.226C195.005 166.509 189.095 164.721 181.526 164.721Z" fill="#F34336"/>
<path d="M403.468 148.488C403.036 143.554 408.154 138.834 413.344 138.906C418.173 138.906 423.074 143.554 422.931 148.702C422.786 154.137 418.605 158.356 413.055 158.356C407.721 158.428 403.468 154.066 403.468 148.488Z" fill="#FEF8F8"/>
<path d="M483.913 145.771C481.678 145.771 479.516 145.771 477.281 145.771C475.984 145.771 475.623 145.199 476.416 144.126C478.291 141.409 480.741 139.549 484.345 139.764C487.661 139.978 489.968 141.695 491.554 144.555C491.986 145.413 491.77 145.771 490.761 145.771C488.454 145.699 486.219 145.771 483.913 145.771Z" fill="#FDF2F1"/>
<path d="M448.447 145.769C446.284 145.769 444.122 145.769 441.96 145.769C440.662 145.769 440.446 145.412 441.023 144.268C443.041 139.762 449.528 138.261 453.349 141.479C454.214 142.194 455.007 143.123 455.728 143.981C456.016 144.339 456.16 144.983 456.088 145.412C456.016 145.626 455.295 145.769 454.862 145.769C452.7 145.769 450.61 145.769 448.447 145.769Z" fill="#FDF2F1"/>
<path d="M376.365 139.048C381.411 138.476 386.241 143.338 386.097 148.559C385.952 154.208 381.916 158.355 376.294 158.427C371.175 158.498 366.418 153.993 366.49 148.416C366.562 143.481 371.608 138.333 376.365 139.048Z" fill="#FEF8F8"/>
<path d="M425.451 199.118C425.884 199.046 426.1 198.975 426.389 198.975C430.497 198.975 434.606 198.903 438.715 199.046C439.219 199.046 439.94 199.547 440.156 200.048C442.319 204.052 444.481 208.057 446.644 212.062C447.869 214.35 449.022 216.709 450.248 219.069C452.987 224.218 455.726 229.367 458.465 234.444C458.97 235.374 459.402 236.446 459.907 237.376C460.412 238.305 460.988 238.377 461.781 237.662C461.997 237.448 462.286 237.162 462.43 236.875C464.16 233.729 465.89 230.582 467.62 227.436C470.647 221.858 473.747 216.352 476.774 210.774C478.792 207.198 480.811 203.623 482.829 200.048C483.117 199.618 483.694 199.046 484.126 199.046C488.452 198.975 492.776 198.975 497.102 198.975C497.246 198.975 497.39 199.046 497.75 199.118C497.462 199.762 497.245 200.334 496.885 200.906C494.074 205.983 491.263 211.06 488.452 216.138C486.577 219.427 484.703 222.716 482.829 226.077C480.378 230.582 477.928 235.088 475.477 239.521C471.8 246.1 468.124 252.608 464.448 259.115C462.862 261.975 461.276 264.836 459.691 267.696C456.447 273.632 453.203 279.567 449.887 285.502C449.599 285.932 448.878 286.361 448.374 286.361C444.337 286.432 440.228 286.432 436.192 286.361C434.966 286.361 434.822 286.003 435.327 285.073C437.057 282.07 438.787 278.995 440.517 275.992C442.823 271.915 445.13 267.911 447.436 263.835C449.311 260.474 451.185 257.113 453.131 253.823C453.635 252.965 453.635 252.107 453.131 251.249C450.752 246.744 448.374 242.167 445.995 237.662C444.697 235.159 443.4 232.656 442.03 230.153C438.715 223.861 435.471 217.568 432.155 211.346C430.281 207.771 428.262 204.195 426.389 200.62C425.884 200.191 425.668 199.69 425.451 199.118Z" fill="#F34538"/>
<path d="M287.704 217.066C287.704 203.05 287.704 189.034 287.704 175.018C287.704 173.23 287.704 173.23 289.578 173.23C300.679 173.23 311.852 173.23 322.953 173.23C326.412 173.23 329.728 174.16 332.9 175.447C337.874 177.378 342.199 180.381 345.515 184.529C347.388 186.889 348.975 189.606 350.272 192.324C351.425 194.755 352.362 197.472 352.795 200.118C353.227 203.193 353.155 206.411 353.083 209.629C352.939 213.562 351.497 217.209 349.479 220.642C347.893 223.359 346.019 225.862 343.424 227.936C340.469 230.224 337.297 232.084 333.765 233.227C329.872 234.515 325.908 235.301 321.727 235.23C315.456 235.158 309.185 235.23 302.914 235.23C301.111 235.23 300.823 235.516 300.823 237.304C300.823 244.812 300.823 252.249 300.823 259.758C300.823 260.902 300.535 261.26 299.381 261.26C295.994 261.188 292.606 261.188 289.218 261.26C288.065 261.26 287.704 260.902 287.704 259.758C287.704 245.456 287.704 231.225 287.704 217.066ZM301.256 204.194C301.256 209.7 301.256 215.207 301.256 220.713C301.256 221.571 301.4 222.144 302.481 222.144C309.906 221.857 317.402 222.716 324.755 221.714C331.242 220.785 336.216 217.71 339.027 211.631C340.469 208.557 340.541 205.267 340.036 202.12C339.243 197.472 336.937 193.539 333.116 190.607C329.801 188.104 326.124 186.46 322.015 186.317C315.672 186.102 309.329 186.317 302.986 186.245C301.688 186.245 301.328 186.674 301.328 187.89C301.256 193.325 301.256 198.76 301.256 204.194Z" fill="#F34538"/>
<path d="M181.527 164.721C189.096 164.721 195.007 166.509 200.629 169.369C201.35 169.727 202.143 170.084 202.864 170.513C203.584 170.942 203.657 171.443 203.224 172.158C202.143 173.875 201.134 175.591 200.124 177.307C199.692 178.094 199.043 178.308 198.251 177.808C194.934 175.877 191.331 174.589 187.51 173.875C182.248 172.873 176.986 173.231 172.301 176.091C167.976 178.737 166.39 182.312 168.192 186.746C169.273 189.321 171.508 190.894 173.742 192.395C177.707 194.898 182.176 196.185 186.501 197.687C190.754 199.189 194.791 200.905 198.467 203.48C202.287 206.197 205.314 209.701 206.828 214.206C208.414 218.926 207.549 223.288 204.882 227.435C201.062 233.371 195.439 236.589 188.735 238.162C180.951 239.95 173.382 238.949 166.318 235.373C163.291 233.872 160.551 231.869 157.668 230.153C156.731 229.581 156.731 228.866 157.452 228.079C158.821 226.506 160.191 225.004 161.488 223.431C161.993 222.859 162.425 223.002 163.002 223.359C164.444 224.361 165.885 225.362 167.399 226.292C170.787 228.365 174.463 229.438 178.356 230.153C183.329 231.082 187.943 230.01 192.267 227.793C195.511 226.148 198.178 223.645 198.683 219.784C198.827 218.354 198.467 216.709 197.818 215.422C196.809 213.277 195.007 211.703 193.061 210.345C190.177 208.271 186.861 207.198 183.69 205.911C179.365 204.195 174.896 202.693 170.787 200.619C165.669 198.045 161.561 194.255 159.542 188.749C158.028 184.601 158.461 180.453 160.551 176.52C163.362 171.157 167.976 168.011 173.598 166.223C176.481 165.079 179.581 164.578 181.527 164.721Z" fill="#FEF7F7"/>
</svg>
