<svg width="500" height="153" viewBox="0 0 500 153" fill="none" xmlns="http://www.w3.org/2000/svg">
<path fill-rule="evenodd" clip-rule="evenodd" d="M221.72 49.1377L206.665 71.0034L191.52 49.1377H179.512L200.482 78.5311L178.437 109.359H190.445L206.665 86.1484L222.706 109.359H234.715L212.669 78.5311L233.639 49.1377H221.72Z" fill="#446CB3"/>
<path fill-rule="evenodd" clip-rule="evenodd" d="M267.244 57.0241C271.635 57.0241 275.04 58.458 277.37 61.2361C279.611 63.9245 280.865 67.8675 280.955 72.8856H251.83C252.368 68.0468 253.981 64.1931 256.49 61.415C259.179 58.458 262.763 57.0241 267.244 57.0241ZM267.334 48.0625C259.268 48.0625 252.726 50.9303 247.977 56.6654C243.227 62.3113 240.808 70.108 240.808 79.6964C240.808 89.2852 243.406 96.8129 248.514 102.19C253.623 107.567 260.791 110.345 269.663 110.345C273.696 110.345 277.101 110.076 279.969 109.448C282.837 108.821 285.884 107.836 289.02 106.491L289.468 106.312V96.7232L288.393 97.1716C282.299 99.7703 276.116 101.115 269.932 101.115C264.197 101.115 259.627 99.4117 256.49 96.0063C253.443 92.6906 251.741 87.8513 251.472 81.5786H291.977V75.2158C291.977 67.1505 289.737 60.5191 285.346 55.5902C280.955 50.5716 274.861 48.0625 267.334 48.0625Z" fill="#446CB3"/>
<path fill-rule="evenodd" clip-rule="evenodd" d="M334.186 48.0625C330.064 48.0625 326.21 48.8691 322.894 50.4819C319.937 51.9158 317.428 53.8873 315.636 56.3968L314.291 49.0485H305.688V109.27H316.084V77.7249C316.084 70.2869 317.428 64.91 320.206 61.7737C322.894 58.6369 327.286 57.0241 333.11 57.0241C337.502 57.0241 340.728 58.0993 342.789 60.3398C344.85 62.5803 345.836 65.9856 345.836 70.5559V109.27H356.231V70.1972C356.231 62.4906 354.349 56.8447 350.675 53.26C347.001 49.8546 341.445 48.0625 334.186 48.0625Z" fill="#446CB3"/>
<path fill-rule="evenodd" clip-rule="evenodd" d="M396.019 101.383C390.91 101.383 387.147 99.5908 384.548 96.0061C381.949 92.3321 380.605 86.7759 380.605 79.5173C380.605 72.3478 381.949 66.7024 384.638 62.759C387.237 58.9057 391 57.0239 396.019 57.0239C401.844 57.0239 406.055 58.7263 408.654 62.0425C411.343 65.4474 412.687 71.2726 412.687 79.3379V81.2197C412.687 88.3891 411.343 93.5867 408.744 96.723C406.056 99.8598 401.844 101.383 396.019 101.383ZM412.508 49.1379L412.687 53.2598L412.956 55.9487C408.654 50.6611 402.56 47.9726 394.854 47.9726C386.967 47.9726 380.784 50.7507 376.393 56.3069C372.002 61.7734 369.762 69.4805 369.762 79.3379C369.762 89.1061 372.002 96.8127 376.303 102.19C380.694 107.566 386.967 110.345 394.854 110.345C402.829 110.345 409.013 107.566 413.224 102.011L414.298 109.269H422.993V24.4937H412.597L412.508 49.1379Z" fill="#446CB3"/>
<path fill-rule="evenodd" clip-rule="evenodd" d="M445.578 27.271C443.876 27.271 442.442 27.8087 441.277 28.8841C440.111 29.9594 439.574 31.6621 439.574 33.9025C439.574 36.1429 440.111 37.7559 441.277 38.9209C442.442 40.0859 443.876 40.6236 445.578 40.6236C447.19 40.6236 448.624 40.0859 449.789 38.9209C450.954 37.7559 451.582 36.1429 451.582 33.9025C451.582 31.6621 450.954 30.0491 449.789 28.8841C448.624 27.8087 447.19 27.271 445.578 27.271Z" fill="#446CB3"/>
<path fill-rule="evenodd" clip-rule="evenodd" d="M440.293 109.359H450.776V49.1377H440.293V109.359Z" fill="#446CB3"/>
<path fill-rule="evenodd" clip-rule="evenodd" d="M495.672 100.487C494.866 100.756 493.701 100.935 492.267 101.204C490.833 101.384 489.399 101.563 487.784 101.563C485.098 101.563 482.945 100.756 481.424 98.9638C479.899 97.2614 479.094 94.6622 479.094 91.3465V57.5618H496.118V49.1382H479.094V35.5166H472.639L468.788 48.2419L460.275 52.0056V57.5618H468.697V91.7052C468.697 104.072 474.701 110.434 486.532 110.434C488.056 110.434 489.759 110.255 491.73 109.987C493.701 109.628 495.135 109.27 496.209 108.732L496.656 108.553V100.218L495.672 100.487Z" fill="#446CB3"/>
<path d="M84.5319 3.34424H44.5638L3.34082 74.7672L44.5638 146.19L52.7187 132.121L19.6507 74.7672L52.7187 17.5034H76.377L84.5319 3.34424Z" fill="#446CB3"/>
<path d="M56.3953 51.8259L64.4606 37.846L52.7214 17.5034L44.5664 31.4833L56.3953 51.8259Z" fill="#D24D57"/>
<path d="M102.637 17.5034L110.792 31.573L52.7214 132.121L44.5664 118.051L102.637 17.5034Z" fill="#D24D57"/>
<path d="M70.9102 146.19L78.9754 132.121H102.634L135.702 74.7672L102.634 17.5034L110.789 3.34424L152.012 74.7672L110.789 146.19H70.9102Z" fill="#446CB3"/>
<path d="M98.7815 97.4404L90.627 111.51L102.635 132.121L110.79 118.141L98.7815 97.4404Z" fill="#D24D57"/>
</svg>
