<svg width="600" height="400" viewBox="0 0 600 400" fill="none" xmlns="http://www.w3.org/2000/svg">
<path d="M273.865 233.283C272.751 233.939 271.236 234.281 269.092 234.281H266.574V240.63H263.603V224.647H261.944V222.531H268.69C271.208 222.531 272.718 222.79 274.008 223.562C275.524 224.449 276.323 225.992 276.323 228.307C276.323 230.599 275.551 232.286 273.865 233.283ZM271.924 225.336C271.181 224.851 270.238 224.647 268.778 224.647H266.58V232.335H268.464C271.577 232.335 273.298 231.619 273.298 228.417C273.292 227.111 272.922 225.992 271.924 225.336Z" fill="#512A75"/>
<path d="M290.766 234.259C290.507 234.518 290.049 234.628 289.42 234.628H282.046C282.245 237.488 283.877 238.861 286.191 238.861C287.734 238.861 289.508 238.287 290.595 237.516L290.479 239.66C289.337 240.459 287.42 240.889 285.734 240.889C281.418 240.889 279.187 238.028 279.187 233.768C279.187 229.282 281.561 226.505 285.359 226.505C288.963 226.505 291.162 229.078 291.162 232.964C291.168 233.515 291.052 233.972 290.766 234.259ZM285.304 228.483C283.53 228.483 282.272 229.74 282.046 232.771H288.219C288.39 232.771 288.478 232.655 288.478 232.484C288.478 230.054 287.42 228.483 285.304 228.483Z" fill="#512A75"/>
<path d="M302.707 228.938C302.509 228.883 301.991 228.85 301.737 228.85C300.766 228.85 299.995 229.192 299.477 229.853C298.904 230.569 298.706 231.512 298.706 232.939V240.627H295.906V228.822H294.275V226.767H297.703L298.215 228.685C298.931 227.285 300.359 226.513 301.93 226.513C302.244 226.513 302.531 226.541 302.702 226.601L302.707 228.938Z" fill="#512A75"/>
<path d="M313.9 240.172C313.244 240.575 312.24 240.889 311.127 240.889C309.81 240.889 308.67 240.432 308.096 239.715C307.523 238.999 307.325 238.144 307.325 236.629V228.825H305.208V226.77H307.325V223.226L310.097 222.399V226.775H313.387V228.831H310.13V236.464C310.13 238.062 310.532 238.833 311.871 238.833C312.67 238.833 313.47 238.547 313.96 238.177L313.9 240.172Z" fill="#512A75"/>
<path d="M330.072 240.197C329.643 240.511 328.987 240.77 328.1 240.77C327.042 240.77 326.155 240.313 325.901 239.398C325.218 240.313 323.73 240.886 322.269 240.886C319.354 240.886 317.326 239.255 317.326 236.257C317.326 233.11 319.47 231.484 322.842 231.484C323.901 231.484 325.075 231.743 325.675 231.942V231.539C325.675 230.481 325.532 229.88 325.075 229.34C324.59 228.767 323.73 228.453 322.473 228.453C321.216 228.453 319.96 228.767 318.643 229.484V227.456C319.899 226.827 321.271 226.513 322.875 226.513C324.849 226.513 326.447 227.026 327.394 228.001C328.138 228.8 328.48 229.858 328.48 231.402V237.921C328.48 238.577 328.678 238.836 329.163 238.836C329.477 238.836 329.962 238.665 330.194 238.494L330.072 240.197ZM325.67 233.793C325.185 233.622 324.066 233.424 323.211 233.424C321.013 233.424 320.125 234.57 320.125 236.141C320.125 237.943 321.183 238.968 322.754 238.968C323.67 238.968 324.469 238.654 324.986 238.108C325.471 237.568 325.675 236.852 325.675 235.849L325.67 233.793Z" fill="#512A75"/>
<path d="M354.277 240.627H351.477V232.134C351.477 230.878 351.389 230.134 350.849 229.506C350.392 228.993 349.709 228.679 348.732 228.679C347.702 228.679 346.93 229.048 346.445 229.621C345.872 230.305 345.702 231.22 345.702 232.625V238.285V240.627H342.902V232.134C342.902 230.878 342.814 230.134 342.274 229.506C341.817 228.993 341.133 228.679 340.157 228.679C339.127 228.679 338.355 229.048 337.87 229.621C337.297 230.305 337.127 231.22 337.127 232.625V240.627H334.326V228.822H332.695V226.767H336.014L336.526 228.398C337.325 227.197 338.84 226.513 340.615 226.513C342.473 226.513 344.159 227.114 345.018 228.569C345.933 227.108 347.592 226.513 349.224 226.513C351.081 226.513 352.453 227.114 353.252 228.056C353.94 228.855 354.282 230.002 354.282 231.716L354.277 240.627Z" fill="#512A75"/>
<path d="M371.636 240.197C371.206 240.511 370.55 240.77 369.663 240.77C368.605 240.77 367.718 240.313 367.465 239.398C366.781 240.313 365.294 240.886 363.832 240.886C360.917 240.886 358.89 239.255 358.89 236.257C358.89 233.11 361.033 231.484 364.405 231.484C365.464 231.484 366.638 231.743 367.239 231.942V231.539C367.239 230.481 367.095 229.88 366.638 229.34C366.153 228.767 365.294 228.453 364.036 228.453C362.78 228.453 361.524 228.767 360.207 229.484V227.456C361.463 226.827 362.835 226.513 364.438 226.513C366.412 226.513 368.01 227.026 368.958 228.001C369.702 228.8 370.043 229.858 370.043 231.402V237.921C370.043 238.577 370.242 238.836 370.727 238.836C371.041 238.836 371.526 238.665 371.758 238.494L371.636 240.197ZM367.239 233.793C366.754 233.622 365.635 233.424 364.781 233.424C362.581 233.424 361.694 234.57 361.694 236.141C361.694 237.943 362.752 238.968 364.323 238.968C365.239 238.968 366.037 238.654 366.555 238.108C367.04 237.568 367.244 236.852 367.244 235.849L367.239 233.793Z" fill="#512A75"/>
<path d="M400.851 240.63H398.25V227.48C398.195 228.026 397.881 229.078 397.622 229.679L393.047 240.63H391.306L386.418 229.365C386.186 228.852 385.96 228.048 385.872 227.447V240.624H383.299V222.531H386.186L391.532 234.738C391.874 235.51 392.215 236.656 392.276 237.141H392.304C392.359 236.684 392.733 235.427 393.02 234.738L398.079 222.531H400.851V240.63Z" fill="#512A75"/>
<path d="M419.335 240.199C418.905 240.513 418.249 240.772 417.362 240.772C416.304 240.772 415.362 240.26 415.13 239.257C414.386 240.315 412.87 240.888 411.355 240.888C409.47 240.888 408.01 240.287 407.21 239.345C406.527 238.546 406.18 237.399 406.18 235.685V226.769H408.98V235.256C408.98 236.512 409.068 237.256 409.608 237.884C410.065 238.43 410.809 238.717 411.807 238.717C412.837 238.717 413.724 238.347 414.176 237.774C414.749 237.085 414.921 236.176 414.921 234.771V226.769H417.72V237.89C417.72 238.546 417.946 238.832 418.437 238.832C418.751 238.832 419.208 238.661 419.439 238.491L419.335 240.199Z" fill="#512A75"/>
<path d="M430.539 228.938C430.341 228.883 429.823 228.85 429.569 228.85C428.6 228.85 427.828 229.192 427.31 229.853C426.737 230.569 426.539 231.512 426.539 232.939V240.627H423.738V228.822H422.107V226.767H425.536L426.048 228.685C426.765 227.285 428.192 226.513 429.762 226.513C430.076 226.513 430.363 226.541 430.534 226.601L430.539 228.938Z" fill="#512A75"/>
<path d="M446.276 240.627H443.477V232.134C443.477 230.878 443.389 230.134 442.849 229.506C442.391 228.96 441.647 228.679 440.65 228.679C439.619 228.679 438.731 229.048 438.28 229.621C437.707 230.305 437.536 231.22 437.536 232.625V240.627H434.736V228.822H433.105V226.767H436.423L436.935 228.398C437.734 227.197 439.338 226.513 441.107 226.513C442.992 226.513 444.452 227.114 445.251 228.056C445.934 228.855 446.281 230.002 446.281 231.716L446.276 240.627Z" fill="#512A75"/>
<path d="M456.353 240.198C455.924 240.512 455.24 240.771 454.353 240.771C453.494 240.771 452.866 240.512 452.469 240.055C452.1 239.625 451.956 238.969 451.956 237.966V228.818H450.324V226.762H454.756V237.911C454.756 238.567 454.954 238.826 455.439 238.826C455.753 238.826 456.238 238.655 456.469 238.484L456.353 240.198ZM453.18 224.564C452.265 224.564 451.521 223.82 451.521 222.877C451.521 221.935 452.265 221.218 453.18 221.218C454.094 221.218 454.866 221.935 454.866 222.877C454.866 223.82 454.094 224.564 453.18 224.564Z" fill="#512A75"/>
<path d="M478.404 239.283C477.258 240.368 475.462 240.881 473.345 240.881C471.372 240.881 469.57 240.451 468.171 239.85L468.286 237.365C469.659 238.136 471.543 238.709 473.262 238.709C475.605 238.709 477.038 237.767 477.038 236.02C477.038 231.677 468.061 233.821 468.061 227.357C468.061 223.896 470.805 222.27 474.348 222.27C475.809 222.27 477.578 222.557 478.691 222.926L478.575 225.24C477.401 224.783 476.002 224.441 474.513 224.441C472.37 224.441 470.854 225.24 470.854 226.988C470.854 231.22 479.804 229.076 479.804 235.706C479.809 237.255 479.291 238.428 478.404 239.283Z" fill="#512A75"/>
<path d="M495.836 240.343C495.836 242.746 495.522 243.886 494.58 244.972C493.549 246.146 491.719 246.686 489.575 246.686C487.834 246.686 486.148 246.256 484.947 245.628L485.063 243.429C486.121 244.057 487.779 244.658 489.438 244.658C490.611 244.658 491.636 244.344 492.238 243.716C492.866 243.027 493.037 242.2 493.037 240.514V239.483C492.238 240.398 490.837 240.883 489.465 240.883C487.581 240.883 486.121 240.282 485.322 239.34C484.638 238.541 484.29 237.394 484.29 235.681V226.764H487.09V235.251C487.09 236.507 487.178 237.251 487.718 237.879C488.176 238.425 488.92 238.712 489.917 238.712C490.947 238.712 491.835 238.342 492.288 237.769C492.861 237.08 493.031 236.171 493.031 234.766V226.764H495.831L495.836 240.343Z" fill="#512A75"/>
<path d="M513.245 240.197C512.816 240.511 512.16 240.77 511.273 240.77C510.215 240.77 509.328 240.313 509.074 239.398C508.391 240.313 506.902 240.886 505.442 240.886C502.527 240.886 500.498 239.255 500.498 236.257C500.498 233.11 502.643 231.484 506.015 231.484C507.073 231.484 508.248 231.743 508.848 231.942V231.539C508.848 230.481 508.705 229.88 508.248 229.34C507.762 228.767 506.902 228.453 505.646 228.453C504.389 228.453 503.133 228.767 501.816 229.484V227.456C503.072 226.827 504.444 226.513 506.048 226.513C508.022 226.513 509.62 227.026 510.567 228.001C511.311 228.8 511.653 229.858 511.653 231.402V237.921C511.653 238.577 511.851 238.836 512.336 238.836C512.65 238.836 513.135 238.665 513.367 238.494L513.245 240.197ZM508.843 233.793C508.358 233.622 507.238 233.424 506.384 233.424C504.185 233.424 503.298 234.57 503.298 236.141C503.298 237.943 504.356 238.968 505.927 238.968C506.841 238.968 507.64 238.654 508.159 238.108C508.644 237.568 508.848 236.852 508.848 235.849L508.843 233.793Z" fill="#512A75"/>
<path d="M524.299 228.938C524.101 228.883 523.583 228.85 523.329 228.85C522.359 228.85 521.588 229.192 521.07 229.853C520.497 230.569 520.298 231.512 520.298 232.939V240.627H517.498V228.822H515.867V226.767H519.296L519.808 228.685C520.524 227.285 521.952 226.513 523.522 226.513C523.836 226.513 524.123 226.541 524.293 226.601L524.299 228.938Z" fill="#512A75"/>
<path d="M533.023 240.198C532.593 240.512 531.909 240.771 531.022 240.771C530.163 240.771 529.534 240.512 529.138 240.055C528.768 239.625 528.625 238.969 528.625 237.966V228.818H526.994V226.762H531.424V237.911C531.424 238.567 531.623 238.826 532.108 238.826C532.422 238.826 532.908 238.655 533.139 238.484L533.023 240.198ZM529.854 224.564C528.939 224.564 528.195 223.82 528.195 222.877C528.195 221.935 528.939 221.218 529.854 221.218C530.769 221.218 531.54 221.935 531.54 222.877C531.54 223.82 530.769 224.564 529.854 224.564Z" fill="#512A75"/>
<path d="M549.448 240.197C549.019 240.511 548.363 240.77 547.476 240.77C546.418 240.77 545.531 240.313 545.277 239.398C544.594 240.313 543.105 240.886 541.645 240.886C538.73 240.886 536.701 239.255 536.701 236.257C536.701 233.11 538.846 231.484 542.218 231.484C543.276 231.484 544.451 231.743 545.051 231.942V231.539C545.051 230.481 544.908 229.88 544.451 229.34C543.965 228.767 543.105 228.453 541.849 228.453C540.593 228.453 539.336 228.767 538.019 229.484V227.456C539.276 226.827 540.648 226.513 542.251 226.513C544.225 226.513 545.823 227.026 546.771 228.001C547.514 228.8 547.856 229.858 547.856 231.402V237.921C547.856 238.577 548.054 238.836 548.539 238.836C548.853 238.836 549.338 238.665 549.57 238.494L549.448 240.197ZM545.046 233.793C544.561 233.622 543.441 233.424 542.587 233.424C540.389 233.424 539.501 234.57 539.501 236.141C539.501 237.943 540.559 238.968 542.13 238.968C543.045 238.968 543.844 238.654 544.363 238.108C544.847 237.568 545.051 236.852 545.051 235.849L545.046 233.793Z" fill="#512A75"/>
<path d="M565.102 240.629H562.303V232.136C562.303 230.88 562.214 230.136 561.674 229.508C561.217 228.962 560.472 228.681 559.475 228.681C558.444 228.681 557.557 229.05 557.1 229.623C556.527 230.307 556.356 231.222 556.356 232.627V240.629H553.556V221.076H556.356V227.794C557.216 226.961 558.555 226.504 559.927 226.504C561.812 226.504 563.272 227.105 564.071 228.047C564.76 228.846 565.102 229.993 565.102 231.707V240.629Z" fill="#512A75"/>
<path d="M132.335 203.572C129.425 206.333 124.647 206.757 120.073 206.757H106.378V164.085H102.537V160.889H118.133C122.112 160.889 125.154 161.258 127.689 162.481C131.459 164.289 133.349 168.141 133.349 172.203C133.349 177.196 131.464 180.982 127.623 182.63C132.484 183.578 136.039 187.557 136.039 194.297C136.028 198.072 134.573 201.461 132.335 203.572ZM125.226 165.16C123.407 164.284 121.098 164.074 118.051 164.074H110.804V181.539H118.695C122.333 181.539 124.074 181.379 125.953 180.227C128.411 178.7 129.144 175.443 129.144 172.478C129.144 169.646 128.059 166.466 125.226 165.16ZM127.254 185.815C125.221 184.724 122.476 184.658 117.99 184.658H110.804V203.572H119.208C121.82 203.572 125.524 203.346 127.767 201.907C130.302 200.309 131.239 197.405 131.239 194.01C131.244 189.662 129.723 187.127 127.254 185.815Z" fill="#592C7F"/>
<path d="M172.412 206.472C171.828 206.841 170.682 206.974 169.811 206.974C166.554 206.974 165.099 205.458 165.033 202.416C163.44 205.893 159.081 207.414 155.102 207.414C147.993 207.414 143.132 203.353 143.132 196.106C143.132 187.707 149.448 184.593 156.97 184.593C160.1 184.593 163.143 184.946 164.818 185.315V182.488C164.818 176.393 161.771 174.078 155.896 174.078C152.638 174.078 149.089 174.954 146.037 176.261L145.894 172.998C148.875 171.758 152.997 170.959 156.188 170.959C164.382 170.959 168.869 173.935 168.869 182.565V200.173C168.869 202.928 169.166 203.937 170.891 203.937C171.63 203.937 172.203 203.794 172.638 203.579L172.412 206.472ZM164.818 188.275C163.363 187.988 160.254 187.547 157.273 187.547C151.553 187.547 147.133 189.509 147.133 195.874C147.133 200.884 150.169 204.367 155.383 204.367C162.487 204.367 164.823 200.013 164.823 193.488L164.818 188.275Z" fill="#592C7F"/>
<path d="M207.71 206.753H203.637V184.593C203.637 180.598 203.268 178.421 201.543 176.608C200.028 175.021 197.702 174.282 195.029 174.282C192.054 174.282 189.226 175.092 187.424 177.12C185.534 179.22 184.867 181.898 184.867 186.473V206.759H180.822V174.734H176.838V171.62H183.936L184.592 175.968C185.677 174.359 187.27 173.059 189.231 172.199C191.112 171.323 193.205 170.959 195.823 170.959C199.45 170.959 202.855 172.342 204.883 174.447C207.418 177.06 207.716 180.818 207.716 184.307L207.71 206.753Z" fill="#592C7F"/>
<path d="M245.903 206.329C245.247 206.687 244.085 206.968 243.148 206.968C240.606 206.968 239.102 205.959 237.504 203.209L229.166 188.567H222.933V206.748H218.871V160.29H214.893V157.176H222.933V185.31H228.946L238.948 171.615H243.291L232.428 186.621L240.899 201.54C241.846 203.132 242.706 203.926 244.393 203.926C244.895 203.926 245.545 203.716 245.975 203.419L245.903 206.329Z" fill="#592C7F"/>
<path d="M306.716 206.754H300.12V173.423C299.976 174.796 299.188 177.479 298.532 179.001L286.932 206.754H282.517L270.117 178.201C269.544 176.895 268.966 174.873 268.751 173.346V206.754H262.226V160.886H269.539L283.096 191.841C283.967 193.787 284.826 196.691 284.981 197.914H285.047C285.184 196.768 286.128 193.572 286.855 191.841L299.673 160.886H306.711L306.716 206.754Z" fill="#592C7F"/>
<path d="M349.705 205.672C348.614 206.471 346.944 207.121 344.702 207.121C342.012 207.121 339.626 205.82 339.053 203.285C337.163 205.958 333.316 207.408 329.48 207.408C324.696 207.408 321.003 205.886 318.97 203.489C317.218 201.472 316.358 198.568 316.358 194.214V171.613H323.451V193.128C323.451 196.319 323.672 198.204 325.055 199.808C326.223 201.186 328.096 201.908 330.632 201.908C333.244 201.908 335.487 200.96 336.661 199.51C338.105 197.78 338.546 195.46 338.546 191.899V171.613H345.65V199.808C345.65 201.478 346.223 202.2 347.457 202.2C348.245 202.2 349.413 201.759 349.992 201.318L349.705 205.672Z" fill="#592C7F"/>
<path d="M386.956 205.673C385.86 206.472 384.185 207.122 381.953 207.122C379.263 207.122 377.015 205.96 376.37 203.656C374.629 205.965 370.853 207.414 367.156 207.414C359.771 207.414 354.629 203.292 354.629 195.676C354.629 187.707 360.058 183.574 368.611 183.574C371.299 183.574 374.271 184.219 375.797 184.731V183.717C375.797 181.039 375.428 179.512 374.265 178.145C373.035 176.685 370.853 175.891 367.668 175.891C364.482 175.891 361.303 176.685 357.957 178.504V173.351C361.138 171.758 364.62 170.959 368.688 170.959C373.685 170.959 377.748 172.265 380.133 174.734C382.014 176.762 382.89 179.44 382.89 183.359V199.875C382.89 201.556 383.386 202.201 384.636 202.201C385.43 202.201 386.659 201.76 387.243 201.319L386.956 205.673ZM375.791 189.437C374.552 189.002 371.718 188.501 369.542 188.501C363.964 188.501 361.727 191.399 361.727 195.384C361.727 199.941 364.405 202.565 368.396 202.565C370.71 202.565 372.743 201.76 374.033 200.388C375.279 199.01 375.791 197.197 375.791 194.662V189.437Z" fill="#592C7F"/>
<path d="M444.496 206.754H437.398V185.233C437.398 182.048 437.177 180.168 435.794 178.57C434.643 177.258 432.9 176.47 430.437 176.47C427.825 176.47 425.868 177.402 424.645 178.857C423.185 180.593 422.755 182.907 422.755 186.467V200.813V206.748H415.651V185.227C415.651 182.042 415.442 180.163 414.048 178.565C412.896 177.253 411.165 176.465 408.691 176.465C406.084 176.465 404.127 177.396 402.893 178.851C401.444 180.587 401.008 182.902 401.008 186.462V206.748H393.904V176.823H389.777V171.61H398.176L399.498 175.743C401.521 172.69 405.368 170.943 409.848 170.943C414.56 170.943 418.836 172.475 421.019 176.162C423.328 172.475 427.533 170.943 431.655 170.943C436.367 170.943 439.85 172.475 441.884 174.861C443.614 176.889 444.49 179.788 444.49 184.136L444.496 206.754Z" fill="#592C7F"/>
<path d="M484.649 205.673C483.564 206.472 481.876 207.122 479.65 207.122C476.972 207.122 474.717 205.96 474.067 203.656C472.321 205.965 468.563 207.414 464.859 207.414C457.468 207.414 452.326 203.292 452.326 195.676C452.326 187.707 457.744 183.574 466.308 183.574C468.987 183.574 471.957 184.219 473.483 184.731V183.717C473.483 181.039 473.114 179.512 471.957 178.145C470.734 176.685 468.563 175.891 465.366 175.891C462.175 175.891 458.984 176.685 455.655 178.504V173.351C458.84 171.758 462.313 170.959 466.374 170.959C471.384 170.959 475.44 172.265 477.832 174.734C479.716 176.762 480.592 179.44 480.592 183.359V199.875C480.592 201.556 481.094 202.201 482.318 202.201C483.123 202.201 484.362 201.76 484.936 201.319L484.649 205.673ZM473.483 189.437C472.265 189.002 469.422 188.501 467.244 188.501C461.674 188.501 459.413 191.399 459.413 195.384C459.413 199.941 462.103 202.565 466.082 202.565C468.414 202.565 470.436 201.76 471.725 200.388C472.965 199.01 473.478 197.197 473.478 194.662L473.483 189.437Z" fill="#592C7F"/>
<path d="M502.705 205.673C501.614 206.472 499.873 207.122 497.63 207.122C495.458 207.122 493.866 206.466 492.846 205.315C491.91 204.229 491.551 202.565 491.551 200.018V162.4H487.412V157.181H498.655V199.87C498.655 201.551 499.168 202.195 500.391 202.195C501.19 202.195 502.419 201.754 502.998 201.314L502.705 205.673Z" fill="#592C7F"/>
<path d="M540.537 205.673C539.451 206.472 537.782 207.122 535.532 207.122C532.844 207.122 530.601 205.96 529.951 203.656C528.208 205.965 524.445 207.414 520.746 207.414C513.356 207.414 508.204 203.292 508.204 195.676C508.204 187.707 513.654 183.574 522.19 183.574C524.88 183.574 527.845 184.219 529.382 184.731V183.717C529.382 181.039 529.024 179.512 527.845 178.145C526.61 176.685 524.445 175.891 521.242 175.891C518.068 175.891 514.866 176.685 511.538 178.504V173.351C514.734 171.758 518.212 170.959 522.267 170.959C527.272 170.959 531.317 172.265 533.72 174.734C535.599 176.762 536.469 179.44 536.469 183.359V199.875C536.469 201.556 536.983 202.201 538.206 202.201C539.011 202.201 540.239 201.76 540.812 201.319L540.537 205.673ZM529.382 189.437C528.148 189.002 525.31 188.501 523.133 188.501C517.562 188.501 515.313 191.399 515.313 195.384C515.313 199.941 517.997 202.565 521.981 202.565C524.302 202.565 526.335 201.76 527.63 200.388C528.853 199.01 529.377 197.197 529.377 194.662L529.382 189.437Z" fill="#592C7F"/>
<path d="M565.171 205.612C563.512 206.615 560.971 207.408 558.156 207.408C554.826 207.408 551.917 206.245 550.468 204.432C549.023 202.625 548.522 200.453 548.522 196.607V176.827H543.16V171.614H548.522V162.614L555.548 160.509V171.614H563.876V176.827H555.631V196.182C555.631 200.227 556.634 202.195 560.046 202.195C562.068 202.195 564.102 201.473 565.325 200.525L565.171 205.612Z" fill="#592C7F"/>
<path d="M51.0613 178.196C50.9952 178.262 50.885 178.262 50.8187 178.196L48.6033 175.969C48.5372 175.903 48.5372 175.793 48.6033 175.727L50.8187 173.5C50.885 173.434 50.9952 173.434 51.0613 173.5L53.2767 175.727C53.3428 175.793 53.3428 175.903 53.2767 175.969L51.0613 178.196Z" fill="#73BF44"/>
<path d="M67.5924 196.109C67.5263 196.175 67.4161 196.175 67.35 196.109L65.1346 193.883C65.0684 193.817 65.0684 193.706 65.1346 193.64L67.35 191.414C67.4161 191.348 67.5263 191.348 67.5924 191.414L69.8079 193.64C69.8741 193.706 69.8741 193.817 69.8079 193.883L67.5924 196.109Z" fill="#73BF44"/>
<path d="M74.2644 196.109C74.1983 196.175 74.088 196.175 74.0219 196.109L71.8064 193.883C71.7403 193.817 71.7403 193.706 71.8064 193.64L74.0219 191.414C74.088 191.348 74.1983 191.348 74.2644 191.414L76.4799 193.64C76.546 193.706 76.546 193.817 76.4799 193.883L74.2644 196.109Z" fill="#73BF44"/>
<path d="M79.5979 177.472C77.8289 174.149 73.635 171.939 72.1415 171.239C71.9597 171.145 71.8824 171.288 71.9817 171.41C77.2668 177.367 72.3068 184.41 65.0929 184.41C63.9466 184.41 62.8058 184.41 61.6595 184.41C61.4446 183.583 61.2848 183.093 61.2848 183.093C58.7772 174.375 61.7202 165.86 62.4145 164.069C62.4972 163.87 62.3649 163.826 62.2161 163.948C61.2462 164.609 58.4411 166.626 57.3665 168.527C56.424 170.098 56.0714 171.817 56.0714 171.817C54.7101 178.26 57.5373 183.776 57.5373 183.776C57.6365 183.991 57.7301 184.201 57.8238 184.41C56.1265 184.41 54.4346 184.41 52.7426 184.41C52.5498 184.421 52.5553 184.57 52.7151 184.636C54.5062 185.512 56.3248 188.648 58.1656 188.648C58.6284 188.648 59.0969 188.648 59.5599 188.648C59.7252 189.083 59.8188 189.342 59.8188 189.342C62.0839 194.98 59.433 199.014 59.433 199.014C56.7547 203.214 50.9736 200.464 50.9736 200.464C46.2341 198.436 40.3869 194.347 41.2796 186.675C41.2852 186.659 41.2852 186.637 41.2852 186.62C41.2907 186.609 41.2907 186.603 41.2907 186.587C41.5828 183.787 43.462 181.445 43.462 181.445C43.462 181.445 44.6635 179.737 45.9696 178.216C46.0798 178.039 45.9421 177.951 45.8153 178.045C41.8087 181.633 37.8408 186.333 36.6504 191.36C35.923 194.44 36.4741 197.102 37.8298 199.351C37.8298 199.351 42.0237 207.226 51.0563 207.259C54.3353 207.286 56.0824 205.561 56.0824 205.561C59.3889 202.486 61.665 198.381 61.665 198.381C63.0317 195.581 62.9436 191.767 62.5083 188.654C65.4787 188.654 68.4436 188.654 71.4141 188.654C77.8951 188.648 82.5629 182.95 79.5979 177.472Z" fill="#73BF44"/>
<path d="M87.9815 185.314C87.4139 173.477 79.6599 164.742 79.6599 164.742C75.1022 159.148 70.3738 157.114 69.7069 156.844C69.6243 156.817 69.5802 156.911 69.5802 156.911C68.5551 159.038 67.1554 160.697 65.3808 162.377C65.2485 162.488 65.2706 162.57 65.3918 162.598C66.6318 162.824 73.2285 164.246 79.3347 169.68C82.0462 172.182 90.3017 181.457 80.751 194.397C74.2315 203.01 65.1163 202.807 65.1163 202.807C62.493 202.807 61.0877 204.157 60.6854 204.62L57.1253 208.301C57.1143 208.312 57.1032 208.323 57.0922 208.334L57.0757 208.351C56.9985 208.444 57.0316 208.51 57.1528 208.532C57.7591 208.532 59.3352 208.532 60.3657 208.532H63.3913C63.4023 208.532 74.8542 209.017 81.3848 202.9C81.7762 202.536 82.1453 202.156 82.5091 201.765C85.1433 198.938 86.5817 195.791 87.3257 192.832C87.3257 192.837 87.3257 192.826 87.3257 192.832C88.0366 190.015 88.1083 187.353 87.9815 185.314Z" fill="#73BF44"/>
</svg>
