<svg width="600" height="400" viewBox="0 0 600 400" fill="none" xmlns="http://www.w3.org/2000/svg">
<g clip-path="url(#clip0_3116_714)">
<path d="M62.4184 197.902C65.3707 201.341 68.4991 204.645 71.7952 207.799L81.7004 217.36C83.6462 219.071 85.1559 221.176 86.1455 223.516C87.1268 225.865 87.5462 228.381 87.3784 230.897C87.1101 233.279 86.2881 235.56 84.9462 237.581C83.621 239.594 81.8262 241.305 79.7043 242.555C77.3726 244.148 74.4875 244.803 71.6526 244.4H61.7559C60.4568 244.393 59.1728 244.122 57.9817 243.603C56.8049 243.092 55.7479 242.341 54.8784 241.397C52.5972 239.007 52.4797 238.227 52.4797 234.117C52.4797 232.138 52.2701 160.361 52.5301 158.164C52.7699 157.007 53.2594 155.917 53.9642 154.968C54.6688 154.012 55.583 153.207 56.6397 152.62C58.9797 151.161 61.7559 150.49 64.532 150.699C70.3695 149.751 76.3574 150.661 81.6501 153.299C83.8223 154.625 85.592 156.47 86.7997 158.65C88.0075 160.831 88.5946 163.28 88.5191 165.746C88.2339 170.694 86.003 175.357 82.2875 178.796C78.0268 183.736 63.5339 194.874 62.4184 197.902ZM97.812 150.691C101.98 150.481 106.157 150.523 110.317 150.808C113.563 151.261 116.566 152.721 118.872 154.952C121.161 157.149 122.651 160.048 123.107 163.188C123.334 164.882 123.175 166.61 122.629 168.228C122.074 169.866 121.157 171.356 119.946 172.59C115.019 178.125 109.675 183.273 103.96 187.988C102.123 189.439 94.3817 196.476 94.5243 197.659L124.189 226.762C127.595 230.134 141.24 242.605 141.92 244.375H98.701C99.2546 243.368 99.8836 242.396 100.605 241.49C102.886 238.386 104.111 234.679 104.094 230.88C104.124 227.237 103.281 223.639 101.637 220.388C99.9644 217.09 97.5499 214.224 94.583 212.017L80.392 197.634C81.7088 195.889 83.1933 194.262 84.8372 192.786C87.9404 189.758 92.3855 186.487 94.8681 183.896C96.4868 182.319 97.963 180.608 99.263 178.779C102.408 174.502 103.809 169.277 103.205 164.085C102.358 154.801 98.4326 153.476 97.812 150.725V150.691ZM130.379 150.691C143.018 150.49 150.986 149.559 150.777 166.442L150.441 182.763C150.273 199.789 150.517 217.285 150.441 234.428L112.431 197.499C113.722 195.671 115.224 193.994 116.926 192.501L122.126 187.972C123.133 187.041 123.753 186.646 124.693 185.741C127.36 183.501 129.809 181.044 132.04 178.402C133.836 176.422 135.181 174.076 135.982 171.525C136.77 168.992 136.988 166.325 136.627 163.708C136.627 155.606 131.511 153.559 130.396 150.657L130.379 150.691ZM60.632 139.243C56.7488 139.402 52.9913 140.585 49.7791 142.665C46.5932 144.712 44.045 147.612 42.4236 151.035C40.6046 154.886 39.8102 159.141 40.1172 163.389V207.405C40.1172 217.05 39.8404 227.081 40.1172 236.692C40.3688 240.391 41.652 243.972 43.8242 247.05C45.9965 250.128 48.9823 252.594 52.4797 254.205C56.5494 256.028 61.025 256.757 65.463 256.318H142.004C145.832 256.114 149.54 254.908 152.756 252.821C155.943 250.749 158.476 247.881 160.095 244.534C162.024 240.651 162.795 236.34 162.359 232.063V158.726C162.288 154.77 160.881 150.954 158.367 147.898C156.105 145.052 153.203 142.782 149.896 141.272C145.811 139.494 141.337 138.796 136.904 139.243H75.8294C70.9313 139.243 65.463 138.991 60.6655 139.243H60.632ZM296.88 227.022L311.884 227.072L311.767 187.972C312.48 188.567 321.865 206.7 322.251 207.472L332.684 227.056H352.797L352.864 168.572C351.228 168.438 339.218 168.371 338.144 168.639L337.842 206.994C337.339 206.49 326.838 185.942 325.413 183.032L317.873 168.539H296.93L296.88 227.03V227.022ZM450.926 215.959V202.096C454.721 201.821 458.536 202.066 462.265 202.825C465.494 203.689 468.111 205.274 467.926 209.032C467.926 210.541 467.356 212.017 466.333 213.166C465.284 214.331 463.864 215.095 462.315 215.33C458.57 216.024 454.752 216.25 450.951 216.001L450.926 215.959ZM450.926 191.687L450.875 179.668C454.326 179.432 457.792 179.556 461.217 180.037C462.647 180.167 463.978 180.825 464.949 181.883C465.894 182.916 466.392 184.282 466.333 185.682C466.215 191.872 455.329 192.207 450.926 191.687ZM434.571 227.03C436.802 227.257 453.828 227.03 457.585 227.072C470.115 227.072 486.068 224.279 484.088 208.646C483.898 206.552 483.186 204.539 482.017 202.792C480.842 201.03 479.249 199.571 477.353 198.531C475.895 197.944 474.367 197.546 472.808 197.348C472.724 196.141 473.353 196.937 476.137 195.327C478.192 193.985 479.878 192.165 481.018 190.043C482.158 187.935 482.731 185.566 482.681 183.17C482.631 180.774 481.96 178.431 480.733 176.372C479.483 174.28 477.73 172.533 475.634 171.29C469.615 168.648 462.985 167.711 456.469 168.581C453.567 168.581 435.854 168.405 434.604 168.665V227.022H434.571V227.03ZM196.906 202.439C200.614 202.185 204.337 202.283 208.027 202.733C209.554 202.837 210.986 203.514 212.036 204.628C212.542 205.166 212.936 205.799 213.195 206.49C213.454 207.181 213.573 207.917 213.546 208.654C213.546 212.11 213 213.544 209.277 214.819C205.264 215.911 201.089 216.28 196.947 215.909V202.439H196.906ZM196.956 179.677C200.37 179.427 203.802 179.557 207.188 180.063C210.509 180.792 212.036 181.992 212.011 185.64C212.011 189.003 209.746 190.194 206.76 191.008C203.535 191.7 200.225 191.907 196.939 191.62L196.989 179.668L196.956 179.677ZM180.567 227.089C194.213 226.594 222.864 230.234 228.659 217.763C229.875 214.567 230.278 211.137 229.833 207.748C229.457 205.106 228.191 202.671 226.244 200.846C224.249 198.972 221.7 197.795 218.98 197.491C217.89 197.374 218.226 197.575 217.957 196.988C218.293 196.468 217.84 196.786 218.863 196.535C219.888 196.32 220.867 195.929 221.757 195.377C223.518 194.405 225.027 193.054 226.143 191.427C227.267 189.8 227.98 187.955 228.223 186.017C228.29 179.761 228.34 175.165 221.564 171.441C215.616 168.763 209.048 167.771 202.575 168.572C195.278 168.572 187.789 168.74 180.534 168.572V227.123L180.567 227.089ZM504.041 179.643C510.499 179.551 522.107 179.031 519.683 188.173C518.358 193.205 509.853 192.928 504.041 192.819V179.643ZM487.711 227.047H504.016V203.983C507.092 203.405 510.273 203.95 512.982 205.517C516.362 209.51 518.702 214.223 519.8 219.256C520.278 220.514 520.698 221.763 521.1 223.063C521.428 224.414 521.847 225.747 522.358 227.039H538.906C536.563 219.047 533.717 211.212 530.385 203.58C528.481 198.967 526.485 199.781 525.227 197.776C527.957 197.239 530.467 195.905 532.44 193.943C534.386 191.997 535.66 189.532 536.113 186.881C536.902 178.939 535.115 174.41 529.672 171.516C523.555 168.891 516.872 167.858 510.248 168.514C502.808 168.514 495.084 168.337 487.686 168.514V227.005L487.711 227.047ZM358.374 226.972L374.712 227.056V200.67C376.826 201.651 391.067 224.338 393.768 226.636C394.556 227.324 396.116 227.089 397.533 227.089C400.268 227.089 412.672 227.232 414.291 227.047C411.075 221.809 407.434 216.843 403.404 212.202C399.521 207.312 395.487 202.741 391.729 197.717C390.22 195.671 390.354 195.872 391.998 193.826L406.877 175.911C407.967 174.636 412.186 169.705 412.731 168.631L393.474 168.715C391.477 170.564 389.703 172.642 388.19 174.905C386.009 177.756 383.753 180.616 381.514 183.417C380.658 184.533 375.307 191.578 374.737 191.788V168.581H358.399V226.997L358.374 226.972ZM261.335 180.792C261.964 181.228 266.099 195.746 266.669 197.617C267.374 199.521 267.944 201.466 268.372 203.446H253.368L257.251 192.09C257.938 190.186 258.484 188.383 259.205 186.428C259.557 185.422 259.867 184.449 260.169 183.577C260.48 182.713 260.723 181.186 261.386 180.809L261.344 180.801L261.335 180.792ZM228.273 227.022C232.249 227.19 238.346 227.072 242.59 227.072C244.553 227.072 244.519 226.569 245.324 225.085C247.018 221.721 248.36 218.207 249.342 214.592C251.64 214.324 266.477 214.508 269.974 214.508C271.567 214.508 271.987 214.324 272.7 215.548C273.798 218.232 274.746 220.992 275.535 223.776C276.893 227.55 277.438 227.047 279.72 227.047L294.724 226.997L271.534 168.556H251.74C249.258 173.168 247.178 177.974 245.534 182.923C241.701 191.897 237.709 203.102 233.876 212.345C231.614 217.083 229.74 221.997 228.273 227.039V227.022ZM559.975 227.072V168.547H543.695V227.056H559.966L559.975 227.072Z" fill="#2156A6"/>
</g>
<defs>
<clipPath id="clip0_3116_714">
<rect width="520" height="346.667" fill="white" transform="translate(40 27)"/>
</clipPath>
</defs>
</svg>
