<svg width="600" height="400" viewBox="0 0 600 400" fill="none" xmlns="http://www.w3.org/2000/svg">
<mask id="mask0_3116_911" style="mask-type:luminance" maskUnits="userSpaceOnUse" x="30" y="108" width="540" height="171">
<path d="M570 108H30V278.835H570V108Z" fill="white"/>
</mask>
<g mask="url(#mask0_3116_911)">
<path d="M250.24 169.703C249.519 168.438 248.578 167.419 247.43 166.666C246.295 165.914 245.048 165.336 243.7 164.96C243.025 164.766 242.357 164.616 241.682 164.5C242.421 164.221 243.109 163.909 243.751 163.565C244.932 162.942 246.003 162.138 246.917 161.171C247.839 160.205 248.546 159.121 249.052 157.902C249.545 156.701 249.792 155.358 249.792 153.931C249.792 151.777 249.253 150.025 248.183 148.708C247.119 147.411 245.542 146.457 243.453 145.919C241.449 145.374 238.853 145.095 235.785 145.095H223.438V187.427H232.535C234.454 187.427 236.116 187.395 237.51 187.31C238.892 187.226 240.332 186.999 241.779 186.623C243.239 186.227 244.537 185.669 245.652 184.916C249.415 182.308 251.317 178.727 251.317 174.296C251.322 172.512 250.946 170.968 250.24 169.703ZM229.614 148.183H233.689C235.908 148.183 237.763 148.397 239.224 148.825C240.637 149.253 241.733 149.993 242.473 151.012C243.227 152.043 243.622 153.457 243.622 155.216C243.622 156.792 243.227 158.206 242.473 159.4C241.702 160.6 240.605 161.554 239.204 162.209C238.088 162.715 236.953 163.046 235.823 163.208C234.675 163.371 233.293 163.455 231.703 163.455H229.621L229.614 148.183ZM243.609 179.966C242.785 181.329 241.624 182.412 240.144 183.184C238.665 183.956 236.926 184.352 234.986 184.352H229.614V166.537H232.606C236.543 166.537 239.619 167.211 241.733 168.541C243.816 169.852 244.835 172.071 244.835 175.321C244.841 177.027 244.426 178.591 243.609 179.966Z" fill="black"/>
<path d="M283.785 184.483C282.339 184.814 281.567 184.814 281.254 184.503C281.074 184.321 280.976 184.094 280.943 183.795C280.892 183.432 280.859 182.861 280.859 182.089V167.952C280.859 164.436 279.971 161.763 278.232 159.972C276.492 158.201 273.91 157.293 270.582 157.293C267.236 157.293 263.848 158.441 260.52 160.725L260.338 160.855V164.864H261.733L261.831 164.585C261.993 164.092 262.356 163.534 262.934 162.944C263.511 162.334 264.295 161.808 265.294 161.348C266.295 160.907 267.449 160.673 268.695 160.673C270.848 160.673 272.503 161.264 273.67 162.412C274.82 163.56 275.41 165.253 275.41 167.401C275.41 168.27 275.248 168.912 274.916 169.321C274.585 169.717 274.047 170.041 273.328 170.242C272.542 170.489 271.173 170.748 269.285 171.079C266.788 171.475 264.75 171.916 263.258 172.377C261.701 172.87 260.371 173.739 259.3 174.985C258.218 176.25 257.659 178.021 257.659 180.253C257.659 182.55 258.516 184.457 260.203 185.917C261.863 187.364 263.881 188.103 266.197 188.103C269.745 188.103 272.866 186.773 275.493 184.165C275.741 185.164 276.214 185.936 276.889 186.429C277.726 187.052 278.796 187.383 280.106 187.415C280.761 187.415 281.436 187.364 282.111 187.234C282.688 187.136 283.325 186.903 284.051 186.579L284.298 186.481V184.347L283.785 184.483ZM275.164 180.889C275.144 180.921 275.098 181.019 274.936 181.22C274.754 181.466 274.54 181.693 274.312 181.895C274.087 182.121 273.852 182.336 273.657 182.537C273.1 183.095 272.347 183.62 271.439 184.061C270.55 184.522 269.745 184.736 269.057 184.736C267.267 184.736 265.873 184.295 264.919 183.406C263.966 182.537 263.491 181.187 263.491 179.397C263.491 178.197 263.79 177.178 264.394 176.406C265.003 175.621 265.775 175.011 266.69 174.602C267.656 174.174 268.708 173.85 269.791 173.603C270.939 173.357 272.185 173.11 273.521 172.883L275.164 172.539V180.889Z" fill="black"/>
<path d="M305.134 157.293C301.177 157.293 298.029 158.941 295.752 162.204V157.617L295.312 157.65C294.746 157.689 294.266 157.728 293.858 157.767C293.047 157.844 292.67 157.838 291.899 157.767C291.477 157.728 291.01 157.689 290.49 157.65L290.05 157.617V187.656L290.505 187.604C290.854 187.565 291.205 187.532 291.535 187.5L292.204 187.441C292.308 187.435 292.541 187.429 292.898 187.429C293.216 187.429 293.456 187.435 293.624 187.454C293.806 187.474 294.033 187.493 294.312 187.513C294.579 187.532 294.903 187.558 295.298 187.604L295.752 187.649V173.058C295.752 169.062 296.317 166.045 297.439 164.092C298.529 162.191 300.449 161.263 303.317 161.263C304.991 161.263 306.308 161.666 307.229 162.457C308.164 163.262 308.799 164.365 309.136 165.74C309.487 167.174 309.662 168.932 309.662 170.969V187.649L310.116 187.597C310.466 187.558 310.772 187.532 311.037 187.513C311.31 187.493 311.538 187.474 311.725 187.454C312.049 187.422 312.919 187.415 313.257 187.454C313.425 187.474 313.652 187.493 313.931 187.513C314.198 187.532 314.522 187.558 314.917 187.604L315.372 187.649V169.581C315.372 165.422 314.573 162.308 313.003 160.323C311.407 158.312 308.761 157.293 305.134 157.293Z" fill="black"/>
<path d="M349.625 186.749V187.638L349.185 187.606C348.659 187.573 348.25 187.541 347.951 187.521C347.64 187.502 347.374 187.469 347.147 187.457C346.934 187.437 346.641 187.424 346.226 187.424C345.766 187.424 345.473 187.443 345.337 187.443L344.501 187.508C344.092 187.541 343.664 187.573 343.235 187.606L343.008 187.625L342.878 187.443C341.977 186.263 340.465 184.42 338.415 182.026C336.333 179.613 333.951 176.855 331.22 173.748C330.532 172.995 330.221 172.943 330.137 172.943C330.039 172.943 329.773 173.274 329.773 174.766V187.658L329.313 187.606C328.916 187.573 328.592 187.541 328.327 187.521C328.048 187.502 327.834 187.469 327.639 187.457C327.477 187.437 327.23 187.424 326.918 187.424C326.555 187.424 326.329 187.443 326.231 187.443L325.556 187.508C325.226 187.541 324.882 187.573 324.525 187.606L324.063 187.658V148.043H329.78V168.733C329.78 169.719 329.799 170.082 329.832 170.212C329.832 170.264 329.851 170.309 329.851 170.309C330.603 170.212 332.037 169.485 334.677 166.845L338.454 163.004L343.333 157.632L343.546 157.652C344.052 157.684 344.532 157.736 344.942 157.769C345.351 157.801 345.681 157.834 345.941 157.834C346.155 157.834 346.446 157.801 346.843 157.769C347.251 157.736 347.731 157.684 348.302 157.652L348.73 157.619V158.683L348.601 158.8C347.958 159.391 347.4 159.884 346.907 160.279C346.414 160.675 345.318 161.59 343.604 163.056C341.912 164.47 340.238 165.943 338.584 167.422C337.17 168.7 336.138 169.654 335.463 170.277C336.086 170.984 336.89 171.918 337.876 173.067C338.992 174.397 340.309 175.921 341.801 177.666C343.293 179.425 344.676 181.001 345.889 182.429C347.121 183.856 348.335 185.251 349.516 186.633L349.625 186.749Z" fill="black"/>
<path d="M248.676 222.317C246.685 220.566 243.694 218.898 239.787 217.348C235.96 215.83 233.105 214.376 231.308 213.007C229.59 211.703 228.72 209.608 228.72 206.779C228.72 205.203 229.115 203.775 229.888 202.549C230.666 201.323 231.737 200.356 233.067 199.675C234.41 198.994 235.908 198.65 237.524 198.65C239.549 198.65 241.345 199.195 242.862 200.272C244.382 201.349 245.51 202.854 246.218 204.742L246.314 205.008H247.619L247.71 204.716C248.63 201.602 249.286 199.597 249.656 198.767L249.773 198.501L249.558 198.3C248.261 197.099 246.613 196.185 244.667 195.581C242.74 194.991 240.781 194.686 238.847 194.686C234.079 194.686 230.076 195.945 226.942 198.416C223.783 200.921 222.173 204.521 222.173 209.134C222.173 212.93 223.218 215.81 225.275 217.691C227.279 219.528 230.238 221.221 234.066 222.72C237.816 224.192 240.638 225.626 242.455 226.988C244.193 228.293 245.075 230.414 245.075 233.288C245.075 235.118 244.647 236.843 243.803 238.42C242.96 239.99 241.787 241.255 240.307 242.176C238.828 243.097 237.147 243.565 235.305 243.565C232.762 243.565 230.576 242.955 228.824 241.741C227.046 240.522 225.365 238.64 223.827 236.149L223.705 235.955H222.362L222.317 236.311C221.966 239.017 221.5 241.171 220.941 242.728L220.857 242.961L221.019 243.143C222.232 244.479 224.1 245.556 226.579 246.348C229.031 247.133 231.277 247.529 233.262 247.529C235.817 247.529 238.231 247.139 240.437 246.38C242.642 245.615 244.627 244.473 246.341 242.981C248.059 241.482 249.402 239.653 250.343 237.551C251.284 235.448 251.751 233.048 251.751 230.433C251.764 226.846 250.727 224.121 248.676 222.317Z" fill="black"/>
<path d="M288.873 243.029C287.103 243.457 286.162 243.438 285.773 243.049C285.545 242.821 285.409 242.523 285.363 242.16C285.312 241.699 285.28 241.011 285.28 240.077V223.118C285.28 218.914 284.228 215.729 282.146 213.614C280.063 211.479 276.988 210.409 272.997 210.409C269.009 210.409 264.966 211.791 260.977 214.516L260.795 214.645V219.342H262.338L262.423 219.063C262.618 218.454 263.066 217.785 263.753 217.059C264.46 216.319 265.427 215.664 266.627 215.119C267.84 214.574 269.222 214.295 270.746 214.295C273.341 214.295 275.359 215.002 276.775 216.41C278.169 217.805 278.876 219.842 278.876 222.45C278.876 223.514 278.682 224.305 278.267 224.811C277.87 225.305 277.215 225.7 276.313 225.96C275.359 226.239 273.738 226.57 271.467 226.946C268.463 227.42 266.03 227.945 264.227 228.503C262.371 229.093 260.795 230.131 259.516 231.624C258.238 233.116 257.576 235.218 257.576 237.878C257.576 240.622 258.595 242.886 260.6 244.625C262.585 246.351 264.986 247.233 267.742 247.233C271.993 247.233 275.723 245.644 278.876 242.491L278.96 242.406C279.239 243.671 279.817 244.625 280.634 245.228C281.62 245.949 282.898 246.344 284.443 246.396C285.214 246.396 286.019 246.331 286.837 246.182C287.511 246.052 288.284 245.786 289.152 245.397L289.379 245.3V242.906L288.873 243.029ZM278.596 238.663C278.578 238.695 278.532 238.812 278.298 239.091C278.072 239.402 277.825 239.681 277.546 239.928C277.266 240.194 276.988 240.434 276.76 240.681C276.073 241.355 275.172 241.978 274.069 242.536C273.005 243.081 272.018 243.34 271.181 243.34C269.014 243.34 267.322 242.795 266.159 241.712C265.011 240.642 264.421 239.02 264.421 236.853C264.421 235.393 264.785 234.16 265.524 233.207C266.263 232.253 267.198 231.513 268.314 231.02C269.482 230.495 270.746 230.099 272.077 229.807C273.459 229.509 274.951 229.217 276.527 228.938L278.611 228.497L278.596 238.663Z" fill="black"/>
<path d="M335.28 210.408C330.609 210.408 326.775 212.673 323.875 217.136C323.083 215.19 321.768 213.607 319.963 212.42C317.926 211.083 315.617 210.402 313.093 210.402C311.4 210.402 309.842 210.681 308.454 211.239C307.065 211.79 305.826 212.588 304.769 213.613C304.023 214.333 303.322 215.17 302.68 216.118V210.804L302.239 210.837C301.564 210.882 300.988 210.934 300.513 210.979C299.559 211.077 299.028 211.07 298.113 210.979C297.627 210.934 297.068 210.882 296.446 210.837L296.004 210.804V246.681L296.452 246.636C296.952 246.591 297.47 246.539 298.022 246.493C299.183 246.389 299.883 246.415 300.24 246.454C300.449 246.48 300.715 246.506 301.046 246.526C301.363 246.545 301.759 246.584 302.232 246.636L302.687 246.681V224.928C302.687 222.956 302.907 221.217 303.348 219.757C303.77 218.349 304.594 217.201 305.788 216.325C306.982 215.456 308.759 215.008 311.068 215.008C313.612 215.008 315.481 215.787 316.635 217.324C317.816 218.901 318.412 221.412 318.412 224.779V246.675L318.867 246.623C319.289 246.577 319.659 246.539 319.977 246.519C320.307 246.493 320.58 246.474 320.8 246.448C321.002 246.428 321.32 246.415 321.755 246.415C322.163 246.415 322.461 246.422 322.656 246.448C322.863 246.474 323.129 246.5 323.46 246.519C323.778 246.539 324.173 246.577 324.648 246.629L325.101 246.675V226.459C325.101 223.131 325.666 220.341 326.77 218.155C327.845 216.033 329.909 215.002 333.088 215.002C335.235 215.002 336.89 215.508 337.999 216.507C339.121 217.519 339.875 218.862 340.251 220.51C340.633 222.21 340.828 224.305 340.828 226.745V246.675L341.281 246.623C341.711 246.577 342.118 246.532 342.528 246.5L343.339 246.428C343.461 246.415 343.741 246.415 344.176 246.415C344.558 246.415 344.857 246.422 345.059 246.448C345.279 246.474 345.552 246.5 345.876 246.519C346.194 246.539 346.589 246.577 347.062 246.629L347.517 246.675V225.071C347.517 220.237 346.596 216.559 344.773 214.126C342.892 211.66 339.706 210.408 335.28 210.408Z" fill="black"/>
<path d="M389.531 221.068C388.876 219.05 387.857 217.195 386.54 215.567C385.21 213.925 383.581 212.64 381.713 211.758C379.845 210.856 377.704 210.409 375.375 210.409C371.45 210.409 368.608 211.181 366.934 212.692C365.572 213.925 364.359 215.469 363.276 217.305V210.804L362.847 210.837C362.172 210.889 361.582 210.934 361.089 210.986C360.123 211.083 359.662 211.07 358.727 210.986C358.234 210.934 357.657 210.889 357.035 210.837L356.593 210.804V261.046H363.276V241.076C365.838 245.164 369.53 247.253 374.278 247.253C379.125 247.253 383.083 245.449 386.054 241.913C389.013 238.397 390.518 233.57 390.518 227.562C390.51 225.285 390.186 223.086 389.531 221.068ZM382.251 235.86C381.596 238.144 380.546 239.98 379.118 241.342C377.704 242.672 375.868 243.347 373.617 243.347C370.165 243.347 367.641 242.134 365.896 239.616C364.157 237.086 363.269 233.752 363.269 229.684C363.269 227.173 363.6 224.662 364.255 222.197C364.878 219.764 365.98 217.714 367.525 216.105C369.037 214.528 371.053 213.724 373.552 213.724C375.881 213.724 377.802 214.379 379.234 215.664C380.682 216.961 381.713 218.687 382.324 220.789C382.946 222.943 383.257 225.324 383.257 227.867C383.257 230.852 382.913 233.544 382.251 235.86Z" fill="black"/>
<path d="M429.228 219.044C427.769 216.287 425.7 214.12 423.085 212.64C420.458 211.161 417.421 210.409 414.035 210.409C411.323 210.409 408.812 210.837 406.548 211.687C404.283 212.524 402.247 213.769 400.488 215.398C398.75 217.007 397.387 218.947 396.446 221.146C395.513 223.345 395.032 225.791 395.032 228.438C395.032 232.233 395.817 235.594 397.361 238.436C398.919 241.29 401.072 243.49 403.784 245.001C406.476 246.481 409.48 247.253 412.699 247.253C415.618 247.253 418.298 246.747 420.627 245.76C422.974 244.774 424.98 243.399 426.57 241.621C428.178 239.863 429.39 237.845 430.196 235.614C431 233.382 431.396 231.046 431.396 228.685C431.415 225.032 430.675 221.782 429.228 219.044ZM423.04 235.328C422.299 237.761 421.087 239.876 419.446 241.615C417.817 243.308 415.754 244.158 413.288 244.158C410.777 244.158 408.676 243.47 407.047 242.108C405.386 240.745 404.174 238.942 403.433 236.768C402.682 234.569 402.298 232.136 402.298 229.541C402.298 226.784 402.675 224.137 403.433 221.691C404.187 219.277 405.439 217.273 407.177 215.748C408.883 214.236 411.167 213.465 413.956 213.465C415.792 213.465 417.388 213.906 418.7 214.775C420.01 215.644 421.1 216.812 421.884 218.239C422.709 219.686 423.28 221.295 423.624 222.982C423.986 224.708 424.168 226.498 424.168 228.282C424.175 230.501 423.799 232.85 423.04 235.328Z" fill="black"/>
<path d="M466.925 219.764C466.088 217.649 464.971 215.891 463.577 214.541C462.182 213.179 460.541 212.147 458.686 211.44C456.83 210.753 454.878 210.409 452.86 210.409C449.279 210.409 446.145 211.213 443.549 212.803C440.954 214.392 438.969 216.63 437.652 219.42C436.354 222.177 435.681 225.35 435.681 228.827C435.681 232.571 436.432 235.873 437.912 238.63C439.391 241.407 441.506 243.555 444.186 245.034C446.859 246.493 449.934 247.253 453.346 247.253C455.5 247.253 457.713 246.857 459.898 246.072C462.085 245.3 464.187 244.216 466.152 242.854L466.334 242.724L466.419 237.703L465.712 238.39C462.3 241.693 458.763 243.347 455.169 243.347C453.282 243.347 451.542 243.003 449.998 242.328C448.455 241.654 447.124 240.7 446.073 239.474C445.01 238.241 444.206 236.814 443.68 235.224C443.134 233.615 442.875 231.89 442.875 230.086C442.875 229.625 442.875 229.249 442.907 228.951H452.86C457.738 228.951 462.728 229.035 467.671 229.165L468.066 229.184L468.099 228.788C468.119 228.509 468.152 228.243 468.152 228.016C468.165 227.789 468.165 227.491 468.165 227.147C468.152 224.344 467.742 221.847 466.925 219.764ZM442.966 225.415C443.147 223.43 443.589 221.542 444.309 219.764C445.081 217.876 446.184 216.352 447.61 215.184C449.026 214.048 450.777 213.477 452.834 213.477C455.986 213.477 458.135 214.58 459.432 216.825C460.697 219.044 461.405 221.931 461.534 225.415H442.966Z" fill="black"/>
<path d="M491.387 210.409C488.148 210.409 485.08 212.556 482.219 216.858V210.811L481.777 210.843C481.102 210.889 480.525 210.941 480.032 210.986C479.559 211.032 479.175 211.058 478.877 211.058C478.553 211.058 478.151 211.038 477.665 210.986C477.159 210.941 476.6 210.889 475.978 210.843L475.536 210.811V246.695L475.991 246.643C476.411 246.597 476.828 246.552 477.23 246.519L478.034 246.448C478.158 246.435 478.436 246.435 478.871 246.435C479.261 246.435 479.552 246.442 479.754 246.467C479.974 246.493 480.247 246.519 480.578 246.539C480.895 246.558 481.291 246.597 481.765 246.649L482.219 246.695V227.303C482.219 225.058 482.369 223.293 482.673 222.061C482.965 220.854 483.679 219.582 484.794 218.285C485.287 217.72 485.942 217.292 486.734 217.007C487.538 216.715 488.355 216.566 489.167 216.566C489.627 216.566 490.231 216.741 490.957 217.078C492.164 217.649 492.449 217.714 492.54 217.733L492.962 217.831L494.085 210.941L493.792 210.811C493.203 210.538 492.391 210.409 491.387 210.409Z" fill="black"/>
<path d="M517.809 210.409C513.002 210.409 509.188 212.452 506.462 216.488V210.804L506.022 210.837C505.347 210.882 504.77 210.934 504.276 210.98C503.803 211.025 503.42 211.051 503.121 211.051C502.797 211.051 502.395 211.032 501.908 210.98C501.402 210.934 500.845 210.882 500.221 210.837L499.78 210.804V246.688L500.235 246.636C500.656 246.591 501.071 246.545 501.474 246.513L502.278 246.442C502.401 246.429 502.681 246.429 503.115 246.429C503.505 246.429 503.796 246.435 503.997 246.461C504.218 246.487 504.49 246.513 504.821 246.532C505.139 246.552 505.534 246.591 506.002 246.643L506.456 246.688V229.256C506.456 224.448 507.144 220.809 508.493 218.454C509.823 216.137 512.152 215.015 515.624 215.015C517.654 215.015 519.25 215.502 520.373 216.468C521.501 217.441 522.28 218.784 522.689 220.452C523.11 222.177 523.317 224.299 523.317 226.751V246.682L523.772 246.63C524.194 246.584 524.563 246.545 524.882 246.526C525.206 246.5 525.484 246.481 525.699 246.455C525.906 246.435 526.225 246.422 526.652 246.422C527.062 246.422 527.36 246.429 527.555 246.455C527.762 246.481 528.028 246.506 528.359 246.526C528.676 246.545 529.072 246.584 529.546 246.636L530 246.682V225.077C530 220.101 529.053 216.377 527.178 214.016C525.297 211.622 522.136 210.409 517.809 210.409Z" fill="black"/>
<path d="M569.489 243.029C567.718 243.457 566.765 243.438 566.368 243.049C566.141 242.821 566.004 242.523 565.973 242.16C565.908 241.699 565.875 241.011 565.875 240.077V223.118C565.875 218.914 564.825 215.729 562.742 213.614C560.66 211.479 557.585 210.409 553.614 210.409C549.604 210.409 545.568 211.791 541.592 214.516L541.41 214.645V219.342H542.935L543.032 219.063C543.213 218.454 543.674 217.785 544.362 217.059C545.05 216.319 546.023 215.664 547.237 215.119C548.436 214.574 549.811 214.295 551.356 214.295C553.951 214.295 555.969 215.002 557.363 216.41C558.778 217.805 559.479 219.842 559.479 222.45C559.479 223.514 559.264 224.305 558.869 224.811C558.46 225.305 557.805 225.7 556.915 225.96C555.949 226.239 554.32 226.57 552.07 226.946C549.046 227.42 546.62 227.945 544.829 228.503C542.973 229.093 541.385 230.131 540.118 231.624C538.841 233.116 538.179 235.218 538.179 237.878C538.179 240.622 539.198 242.886 541.203 244.625C543.175 246.351 545.588 247.233 548.345 247.233C552.583 247.233 556.326 245.644 559.459 242.491L559.543 242.406C559.841 243.671 560.4 244.625 561.237 245.228C562.203 245.949 563.488 246.344 565.032 246.396C565.824 246.396 566.621 246.331 567.433 246.182C568.108 246.052 568.892 245.786 569.749 245.397L569.995 245.3V242.906L569.489 243.029ZM559.193 238.663C559.193 238.695 559.128 238.812 558.913 239.091C558.687 239.402 558.42 239.681 558.162 239.928C557.863 240.194 557.603 240.434 557.357 240.681C556.682 241.355 555.78 241.978 554.684 242.536C553.6 243.081 552.634 243.34 551.797 243.34C549.63 243.34 547.937 242.795 546.776 241.712C545.608 240.642 545.017 239.02 545.017 236.853C545.017 235.393 545.393 234.16 546.12 233.207C546.86 232.253 547.813 231.513 548.929 231.02C550.077 230.495 551.343 230.099 552.673 229.807C554.055 229.509 555.56 229.217 557.137 228.938L559.206 228.497L559.193 238.663Z" fill="black"/>
<path d="M383.445 163.971C383.445 162.265 382.226 161.194 380.481 161.194C378.807 161.194 377.062 162.408 375.843 164.652C374.473 167.196 374.402 170.16 374.136 173.625C373.83 177.427 373.486 180.58 371.592 183.356C369.769 186.055 366.727 187.574 363.191 187.574C358.214 187.574 355.094 184.725 355.094 180.924C355.094 178.796 356.08 177.466 357.488 177.466C358.403 177.466 358.968 178.076 358.968 178.912C358.968 179.633 358.436 180.165 357.754 180.165C357.488 180.165 357.222 180.126 356.917 179.937C356.424 180.392 356.269 180.963 356.269 181.799C356.269 185.108 358.929 187.275 362.847 187.275C366.117 187.275 368.855 185.53 370.335 182.299C371.665 179.373 371.665 175.493 372.196 170.894C372.578 167.702 373.299 165.347 375.044 163.485C376.68 161.739 378.769 160.825 380.974 160.825C383.712 160.825 385.496 162.233 385.496 163.978C385.496 164.815 385.041 165.535 384.166 166.106C383.751 166.372 383.329 166.56 382.836 166.56C382.757 166.56 382.648 166.521 382.531 166.521C383.141 165.684 383.445 164.88 383.445 163.971Z" fill="#A9AAAC"/>
<path d="M390.966 174.387L393.548 174.27C388.533 180.959 386.366 185.293 386.366 186.13C386.366 186.662 386.71 186.967 387.28 186.967C389.103 186.967 392.866 183.736 397.92 176.969L398.148 177.157C393.093 184.112 389.103 187.421 386.897 187.421C385.716 187.421 384.847 186.623 384.847 185.52C384.847 184.832 385.191 184.002 385.873 183.009L385.756 182.892C383.362 185.935 380.702 187.265 379.106 187.265C377.659 187.265 376.673 186.201 376.673 184.417C376.673 182.821 377.886 180.051 380.248 177.618C382.525 175.263 385.185 174.043 387.014 174.043C388.422 174.043 389.37 174.919 389.636 176.554L390.966 174.387ZM386.975 174.309C385.873 174.309 383.44 175.756 381.311 178.721C379.715 180.965 378.956 183.282 378.956 184.728C378.956 185.87 379.488 186.473 380.365 186.473C381.278 186.473 382.836 185.637 384.543 183.814C387.163 180.965 388.493 178.266 388.493 176.249C388.5 174.997 387.891 174.309 386.975 174.309Z" fill="#A9AAAC"/>
<path d="M400.774 176.168C400.547 176.512 399.404 177.953 397.393 180.652L397.582 180.729C401.001 176.058 403.966 173.736 406.593 173.736C407.962 173.736 408.909 174.611 408.909 175.676C408.909 177.349 407.352 178.868 405.529 181.488C404.011 183.655 403.096 185.024 403.096 185.939C403.096 186.471 403.44 186.776 404.12 186.776C405.944 186.776 410.012 183.694 414.956 176.934L415.222 177.122C410.278 183.928 406.249 187.237 403.745 187.237C402.337 187.237 401.5 186.361 401.5 184.992C401.5 183.357 402.908 181.534 404.997 178.718C406.406 176.817 407.164 175.637 407.164 175.033C407.164 174.579 406.742 174.157 406.249 174.157C403.589 174.157 398.574 178.374 394.123 186.847L391.425 187.036L407.994 161.571L410.771 161.532L400.774 176.168Z" fill="#A9AAAC"/>
<path d="M424.854 174.387L427.437 174.27C422.422 180.959 420.255 185.293 420.255 186.13C420.255 186.662 420.598 186.967 421.17 186.967C422.993 186.967 426.756 183.736 431.809 176.969L432.036 177.157C426.983 184.112 422.993 187.421 420.787 187.421C419.607 187.421 418.737 186.623 418.737 185.52C418.737 184.832 419.081 184.002 419.761 183.009L419.645 182.892C417.25 185.935 414.592 187.265 412.996 187.265C411.548 187.265 410.562 186.201 410.562 184.417C410.562 182.821 411.775 180.051 414.137 177.618C416.415 175.263 419.074 174.043 420.904 174.043C422.312 174.043 423.259 174.919 423.524 176.554L424.854 174.387ZM420.864 174.309C419.761 174.309 417.329 175.756 415.201 178.721C413.605 180.965 412.847 183.282 412.847 184.728C412.847 185.87 413.378 186.473 414.253 186.473C415.169 186.473 416.726 185.637 418.431 183.814C421.053 180.965 422.383 178.266 422.383 176.249C422.383 174.997 421.779 174.309 420.864 174.309Z" fill="#A9AAAC"/>
<path d="M432.583 179.291C430.909 181.873 429.923 183.735 429.923 185.221C429.923 186.402 430.378 186.934 431.519 186.934C432.771 186.934 435.438 185.377 437.411 182.49C439.085 180.096 440.031 178.195 440.147 176.482C439.922 175.872 439.765 175.34 439.765 174.886C439.765 174.354 440.22 173.9 440.713 173.9C441.55 173.9 442.269 174.847 442.269 176.372C442.269 176.982 442.081 177.475 442.081 177.896C442.081 178.578 443.068 179.492 444.625 179.492C446.065 179.492 447.44 178.733 448.576 177.215L448.803 177.364C447.589 178.96 446.221 179.758 444.507 179.758C443.404 179.758 442.607 179.337 441.925 178.467C441.05 180.634 439.836 182.347 438.24 183.748C435.503 186.103 432.998 187.284 431.058 187.284C429.04 187.284 427.978 186.259 427.978 184.358C427.978 182.684 429.002 181.315 430.105 179.609L441.738 161.671L444.436 161.554C442.16 164.616 438.28 170.546 432.583 179.291Z" fill="#A9AAAC"/>
<path d="M458.603 174.387L461.185 174.27C456.17 180.959 454.003 185.293 454.003 186.13C454.003 186.662 454.347 186.967 454.918 186.967C456.741 186.967 460.504 183.736 465.558 176.969L465.785 177.157C460.732 184.112 456.741 187.421 454.536 187.421C453.355 187.421 452.485 186.623 452.485 185.52C452.485 184.832 452.829 184.002 453.51 183.009L453.393 182.892C451 185.935 448.34 187.265 446.744 187.265C445.298 187.265 444.312 186.201 444.312 184.417C444.312 182.821 445.524 180.051 447.885 177.618C450.163 175.263 452.822 174.043 454.653 174.043C456.061 174.043 457.007 174.919 457.273 176.554L458.603 174.387ZM454.614 174.309C453.51 174.309 451.077 175.756 448.95 178.721C447.354 180.965 446.595 183.282 446.595 184.728C446.595 185.87 447.127 186.473 448.002 186.473C448.917 186.473 450.475 185.637 452.181 183.814C454.802 180.965 456.132 178.266 456.132 176.249C456.138 174.997 455.528 174.309 454.614 174.309Z" fill="#A9AAAC"/>
<path d="M469.508 174.57H474.446L474.18 174.992H469.203L464.416 182.517C463.579 183.847 463.157 185.06 463.157 185.787C463.157 186.585 463.579 186.929 464.525 186.929C466.427 186.929 471.363 184.042 476.12 177.158L476.385 177.308C471.558 184.152 466.731 187.344 463.994 187.344C462.507 187.344 461.45 186.241 461.45 184.762C461.45 183.964 461.716 183.049 462.287 182.18L466.849 174.998H464.682L464.986 174.576H467.075L469.962 170.093L472.357 169.977L469.508 174.57Z" fill="#A9AAAC"/>
<path d="M44.4817 152.795C44.4817 152.795 41.413 145.723 39.7716 145.094C38.1303 144.465 34.6009 166.783 36.3656 171.584C36.3656 171.584 45.5132 178.778 47.0184 185.033L52.4811 178.091L56.1272 165.057L44.4817 152.795Z" fill="url(#paint0_linear_3116_911)" stroke="#A3822E" stroke-width="4.26316" stroke-miterlimit="10"/>
<path d="M46.3641 176.776C46.3641 176.776 41.2842 166.175 40.9209 152.311" stroke="#A3822E" stroke-width="1.42105" stroke-miterlimit="10"/>
<path d="M175.91 152.795C175.91 152.795 178.979 145.723 180.621 145.094C182.262 144.465 185.79 166.783 184.027 171.584C184.027 171.584 174.878 178.778 173.373 185.033L167.911 178.091L164.265 165.057L175.91 152.795Z" fill="url(#paint1_linear_3116_911)" stroke="#A3822E" stroke-width="4.26316" stroke-miterlimit="10"/>
<path d="M174.021 176.776C174.021 176.776 179.099 166.175 179.463 152.311" stroke="#A3822E" stroke-width="1.42105" stroke-miterlimit="10"/>
<path d="M62.6244 135.584C62.6244 135.584 58.6929 127.741 56.7465 127.741C54.8002 127.741 50.181 141.242 52.309 147.872C54.4369 154.503 57.4278 155.262 56.6882 159.349C55.9551 163.436 68.5412 152.245 68.6646 151.337C68.7878 150.422 67.9379 140.632 67.9379 140.632L62.6244 135.584Z" fill="url(#paint2_linear_3116_911)" stroke="#A3822E" stroke-width="4.26316" stroke-miterlimit="10"/>
<path d="M72.4578 119.29C72.4578 119.29 58.8789 122.533 63.615 150.496C68.3511 178.458 78.3228 146.532 78.3228 146.532C78.3228 146.532 92.9785 134.854 87.7493 132.057C82.5203 129.261 72.4578 119.29 72.4578 119.29Z" fill="url(#paint3_linear_3116_911)" stroke="#A3822E" stroke-width="4.26316" stroke-miterlimit="10"/>
<path d="M63.6104 150.495C63.6104 150.495 68.1583 128.288 78.9863 127.165C89.8143 126.043 91.6373 138.83 91.6373 138.83L68.6578 147.563L63.6104 150.495Z" fill="url(#paint4_linear_3116_911)" stroke="#A3822E" stroke-width="4.26316" stroke-miterlimit="10"/>
<path d="M53.9002 249.387L46.3613 251.865C46.3613 251.865 52.3171 257.944 57.4295 256.666C62.5353 255.382 68.9257 248.492 68.9257 248.492C68.9257 248.492 69.5226 244.112 68.8348 243.892C68.1472 243.671 54.2375 246.993 54.2375 246.993L53.9002 249.387Z" fill="url(#paint5_linear_3116_911)" stroke="#A3822E" stroke-width="4.26316" stroke-miterlimit="10"/>
<path d="M45.3845 232.368L35.7178 232.556C35.7178 232.556 43.2825 245.409 52.4107 248.549C52.4107 248.549 56.3422 251.883 63.7253 249.029C71.1084 246.174 72.7497 241.276 72.7497 241.276L59.437 228.748C59.437 228.748 51.2558 229.669 50.6526 229.754C50.0492 229.838 45.3845 232.368 45.3845 232.368Z" fill="url(#paint6_linear_3116_911)" stroke="#A3822E" stroke-width="4.26316" stroke-miterlimit="10"/>
<path d="M54.5411 233.846C54.5411 233.846 42.2014 234.865 36.4597 224.828C30.7181 214.792 31.6199 210.867 31.6199 210.867C31.6199 210.867 31.1657 208.953 38.3931 214.033L55.2482 215.246C55.2482 215.246 56.0981 220.112 56.1305 222.194C56.1629 224.277 57.441 230.751 57.441 231.394C57.441 232.036 54.5411 233.846 54.5411 233.846Z" fill="url(#paint7_linear_3116_911)" stroke="#A3822E" stroke-width="4.26316" stroke-miterlimit="10"/>
<path d="M66.3973 245.782C66.3973 245.782 58.4238 241.883 53.8629 232.58C49.302 223.276 50.6385 220.454 50.6385 220.454L56.3607 219.325C56.3607 219.325 59.7019 222.907 61.0708 226.287C62.4397 229.66 68.1944 237.05 69.5633 238.237C70.9256 239.424 71.0166 243.239 71.0166 243.239L66.3973 245.782Z" fill="url(#paint8_linear_3116_911)" stroke="#A3822E" stroke-width="4.26316" stroke-miterlimit="10"/>
<path d="M37.1629 193.355C37.1629 193.355 32.1673 190.079 30.1626 190.079C30.1626 190.079 29.3192 198.655 33.666 206.953C38.0128 215.251 42.8331 219.585 52.0976 220.662C52.0976 220.662 59.4482 207.323 54.8873 203.125C50.3135 198.921 37.1629 193.355 37.1629 193.355Z" fill="url(#paint9_linear_3116_911)" stroke="#A3822E" stroke-width="4.26316" stroke-miterlimit="10"/>
<path d="M47.0194 185.034C47.0194 185.034 47.1881 178.332 34.2969 169.457C34.2969 169.457 27.2448 189.16 43.3603 198.769L46.7404 201.072L50.659 192.222L47.0194 185.034Z" fill="url(#paint10_linear_3116_911)" stroke="#A3822E" stroke-width="4.26316" stroke-miterlimit="10"/>
<path d="M57.2789 159.058C57.2789 159.058 57.162 146.712 46.3664 142.027C46.3664 142.027 39.1521 156.32 52.8996 165.987C52.8996 165.987 57.7654 162.691 57.2789 159.058Z" fill="url(#paint11_linear_3116_911)" stroke="#A3822E" stroke-width="4.26316" stroke-miterlimit="10"/>
<path d="M61.6228 244.778C61.0064 244.933 56.0693 244.09 48.9912 240.405C46.7529 239.244 44.3069 237.797 41.7119 236.013" stroke="#A3822E" stroke-width="1.42105" stroke-miterlimit="10"/>
<path d="M49.3096 228.746C49.3096 228.746 39.8245 222.726 35.7178 215.246" stroke="#A3822E" stroke-width="1.42105" stroke-miterlimit="10"/>
<path d="M46.0035 211.78C46.0035 211.78 36.259 205.753 31.5684 194.172" stroke="#A3822E" stroke-width="1.42105" stroke-miterlimit="10"/>
<path d="M44.4698 192.214C44.4698 192.214 37.6317 186.239 35.7178 173.828" stroke="#A3822E" stroke-width="1.42105" stroke-miterlimit="10"/>
<path d="M51.7549 160.445L47.499 145.095" stroke="#A3822E" stroke-width="1.42105" stroke-miterlimit="10"/>
<path d="M157.772 135.584C157.772 135.584 161.704 127.741 163.65 127.741C165.596 127.741 170.215 141.242 168.088 147.872C165.96 154.503 162.969 155.262 163.708 159.349C164.441 163.436 151.855 152.251 151.732 151.337C151.609 150.422 152.459 140.632 152.459 140.632L157.772 135.584Z" fill="url(#paint12_linear_3116_911)" stroke="#A3822E" stroke-width="4.26316" stroke-miterlimit="10"/>
<path d="M147.919 119.29C147.919 119.29 161.498 122.533 156.762 150.496C152.026 178.458 142.054 146.532 142.054 146.532C142.054 146.532 127.398 134.854 132.628 132.057C137.857 129.261 147.919 119.29 147.919 119.29Z" fill="url(#paint13_linear_3116_911)" stroke="#A3822E" stroke-width="4.26316" stroke-miterlimit="10"/>
<path d="M156.78 150.495C156.78 150.495 152.232 128.288 141.404 127.165C130.576 126.043 128.753 138.83 128.753 138.83L151.726 147.569L156.78 150.495Z" fill="url(#paint14_linear_3116_911)" stroke="#A3822E" stroke-width="4.26316" stroke-miterlimit="10"/>
<path d="M166.472 249.387L174.01 251.865C174.01 251.865 168.055 257.944 162.943 256.666C157.837 255.382 151.446 248.492 151.446 248.492C151.446 248.492 150.849 244.112 151.537 243.892C152.225 243.671 166.135 246.993 166.135 246.993L166.472 249.387Z" fill="url(#paint15_linear_3116_911)" stroke="#A3822E" stroke-width="4.26316" stroke-miterlimit="10"/>
<path d="M174.99 232.368L184.657 232.556C184.657 232.556 177.092 245.409 167.964 248.549C167.964 248.549 164.032 251.883 156.649 249.029C149.266 246.174 147.625 241.276 147.625 241.276L160.938 228.748C160.938 228.748 169.119 229.669 169.722 229.754C170.339 229.845 174.99 232.368 174.99 232.368Z" fill="url(#paint16_linear_3116_911)" stroke="#A3822E" stroke-width="4.26316" stroke-miterlimit="10"/>
<path d="M165.853 233.846C165.853 233.846 178.192 234.865 183.934 224.828C189.675 214.792 188.767 210.873 188.767 210.873C188.767 210.873 189.222 208.959 181.995 214.039L165.139 215.253C165.139 215.253 164.289 220.118 164.257 222.201C164.224 224.284 162.946 230.758 162.946 231.401C162.946 232.043 165.853 233.846 165.853 233.846Z" fill="url(#paint17_linear_3116_911)" stroke="#A3822E" stroke-width="4.26316" stroke-miterlimit="10"/>
<path d="M153.966 245.782C153.966 245.782 161.939 241.883 166.5 232.58C171.061 223.276 169.725 220.454 169.725 220.454L164.003 219.325C164.003 219.325 160.661 222.907 159.292 226.287C157.924 229.66 152.169 237.05 150.8 238.237C149.438 239.424 149.347 243.239 149.347 243.239L153.966 245.782Z" fill="url(#paint18_linear_3116_911)" stroke="#A3822E" stroke-width="4.26316" stroke-miterlimit="10"/>
<path d="M183.217 193.355C183.217 193.355 188.213 190.079 190.217 190.079C190.217 190.079 191.061 198.655 186.714 206.953C182.374 215.251 177.547 219.585 168.283 220.662C168.283 220.662 160.932 207.323 165.493 203.125C170.06 198.921 183.217 193.355 183.217 193.355Z" fill="url(#paint19_linear_3116_911)" stroke="#A3822E" stroke-width="4.26316" stroke-miterlimit="10"/>
<path d="M173.372 185.034C173.372 185.034 173.204 178.332 186.094 169.457C186.094 169.457 193.147 189.16 177.031 198.769L173.652 201.072L169.732 192.222L173.372 185.034Z" fill="url(#paint20_linear_3116_911)" stroke="#A3822E" stroke-width="4.26316" stroke-miterlimit="10"/>
<path d="M163.105 159.058C163.105 159.058 163.222 146.712 174.018 142.027C174.018 142.027 181.232 156.32 167.485 165.987C167.485 165.987 162.619 162.691 163.105 159.058Z" fill="url(#paint21_linear_3116_911)" stroke="#A3822E" stroke-width="4.26316" stroke-miterlimit="10"/>
<path d="M70.5978 241.602C69.9685 241.31 56.0068 259.814 56.0068 259.814C56.0068 259.814 73.1864 278.745 111.788 278.745C150.39 278.745 164.131 258.107 164.131 258.107L149.171 239.961C149.171 239.961 123.265 265.639 70.5978 241.602Z" fill="url(#paint22_linear_3116_911)" stroke="#A3822E" stroke-width="4.26316" stroke-miterlimit="10"/>
<path d="M70.4245 258.362L70.5673 258.46C70.5413 259.14 70.6192 259.717 70.8008 260.192C70.9889 260.665 71.3263 261.067 71.8259 261.404C72.1891 261.651 72.5784 261.781 72.9936 261.793C73.4088 261.806 73.8046 261.717 74.1809 261.522C74.5572 261.327 74.8687 261.047 75.1087 260.685C75.4914 260.114 75.6016 259.575 75.4266 259.075C75.2514 258.576 74.9011 257.947 74.3756 257.181C73.8501 256.416 73.5127 255.734 73.3699 255.144C73.2272 254.553 73.3894 253.905 73.863 253.205C74.434 252.355 75.1671 251.893 76.0558 251.829C76.9447 251.764 77.8336 252.029 78.7223 252.626C79.0791 252.866 79.4035 253.165 79.689 253.516C79.9745 253.865 80.1627 254.236 80.2469 254.611C80.0653 254.722 79.689 255.021 79.1115 255.494L78.9754 255.403C79.0856 254.937 79.0662 254.495 78.9104 254.08C78.7548 253.665 78.4757 253.321 78.0736 253.048C77.7557 252.834 77.4183 252.704 77.0615 252.659C76.7047 252.613 76.3673 252.666 76.0429 252.808C75.7185 252.952 75.4524 253.178 75.2448 253.49C74.8621 254.054 74.7583 254.58 74.9269 255.079C75.0956 255.579 75.446 256.214 75.9845 256.999C76.5229 257.785 76.8668 258.465 77.016 259.044C77.1652 259.621 77.0226 260.237 76.5813 260.892C76.257 261.378 75.8742 261.755 75.433 262.028C74.9984 262.299 74.5248 262.468 74.0251 262.527C73.5191 262.592 73.0196 262.552 72.5136 262.417C72.0075 262.281 71.5144 262.053 71.0408 261.735C70.671 261.489 70.3077 261.138 69.9508 260.678C69.594 260.223 69.3865 259.803 69.3281 259.413C69.646 259.186 70.0092 258.835 70.4245 258.362Z" fill="black"/>
<path d="M84.5667 263.087L82.867 266.557C82.7697 266.752 82.7047 266.901 82.6723 266.999C82.6399 267.096 82.6334 267.194 82.6659 267.277C82.6983 267.368 82.7762 267.439 82.8994 267.505C83.0097 267.557 83.1654 267.609 83.373 267.654L83.2044 267.985C82.9967 267.978 82.8215 267.952 82.6723 267.914C82.4972 267.861 82.3286 267.803 82.1728 267.725C81.8808 267.57 81.6732 267.375 81.5565 267.148C81.4397 266.915 81.4397 266.629 81.5565 266.291L81.3553 266.364C80.4211 266.688 79.5258 266.635 78.6759 266.22C78.1309 265.954 77.7417 265.552 77.5211 265.019C77.2941 264.488 77.3135 263.949 77.5794 263.418C77.839 262.892 78.1633 262.541 78.5591 262.373C78.9548 262.204 79.3635 262.153 79.7853 262.217C80.2071 262.282 80.752 262.419 81.4073 262.619C81.9133 262.768 82.2831 262.866 82.5102 262.905C82.7373 262.945 82.9318 262.93 83.081 262.859C83.2302 262.788 83.3665 262.632 83.4833 262.392C83.7557 261.835 83.8141 261.329 83.6585 260.868C83.5028 260.414 83.1459 260.05 82.5944 259.779C82.2702 259.615 81.9457 259.531 81.6344 259.526C81.3163 259.518 81.0439 259.551 80.8168 259.635C80.5898 259.72 80.4145 259.817 80.3043 259.933L80.1356 259.85L80.5444 259.018C81.6149 258.863 82.5555 258.98 83.3601 259.376C84.1515 259.764 84.6575 260.272 84.8587 260.887C85.0793 261.516 84.9756 262.25 84.5667 263.087ZM81.8029 265.689L82.8734 263.502L82.296 263.352C81.9392 263.249 81.6018 263.158 81.2969 263.087C80.9855 263.009 80.6871 262.97 80.3887 262.957C80.0967 262.945 79.8113 263.003 79.5517 263.132C79.2858 263.262 79.0782 263.489 78.9224 263.807C78.6954 264.273 78.6499 264.69 78.7862 265.052C78.929 265.416 79.2274 265.707 79.7009 265.935C79.889 266.025 80.1227 266.071 80.4145 266.065C80.7066 266.065 80.9595 266.025 81.1802 265.947C81.2515 265.922 81.3294 265.896 81.4137 265.876C81.4981 265.851 81.5824 265.818 81.6668 265.78C81.7446 265.74 81.8029 265.689 81.8029 265.689Z" fill="black"/>
<path d="M85.8848 269.507L88.0192 261.825C88.1489 261.87 88.2721 261.916 88.376 261.954C88.4797 261.994 88.5706 262.026 88.6484 262.045C88.7199 262.065 88.8107 262.085 88.921 262.103C89.0313 262.123 89.1545 262.149 89.3037 262.176L88.921 263.557C89.1934 263.291 89.4724 263.084 89.7515 262.927C90.0368 262.773 90.3418 262.682 90.6726 262.642C91.0035 262.609 91.3474 262.636 91.7043 262.74C92.2427 262.889 92.6903 263.168 93.0406 263.57C93.3974 263.979 93.5856 264.447 93.6051 264.984C94.5329 264.103 95.5189 263.804 96.5699 264.096C97.5172 264.361 98.1141 264.803 98.3606 265.431C98.6072 266.061 98.5812 266.898 98.2957 267.942L97.0046 272.588C96.9009 272.549 96.8165 272.517 96.7452 272.491C96.6738 272.464 96.622 272.446 96.5699 272.426C96.5246 272.406 96.4597 272.387 96.3689 272.36C96.2715 272.335 96.2067 272.315 96.1742 272.309C96.1418 272.302 96.0834 272.289 95.9926 272.277C95.9018 272.257 95.8044 272.244 95.7071 272.231L96.8944 267.955C97.0436 267.411 97.128 266.938 97.1475 266.528C97.1669 266.119 97.0825 265.762 96.8814 265.458C96.6868 265.153 96.3365 264.925 95.8434 264.789C95.1168 264.589 94.5589 264.699 94.1695 265.12C93.7803 265.549 93.4819 266.133 93.2742 266.879L92.0675 271.219C91.9637 271.179 91.8793 271.148 91.8145 271.121C91.7431 271.096 91.6912 271.076 91.6459 271.057C91.6004 271.037 91.5356 271.017 91.4382 270.992C91.3409 270.966 91.263 270.946 91.2176 270.941C91.1722 270.934 91.1073 270.921 91.0359 270.908C90.9646 270.895 90.8802 270.875 90.783 270.863L92.0869 266.152C92.3011 265.386 92.3206 264.789 92.1454 264.348C91.9767 263.908 91.5938 263.61 91.0035 263.446C90.4715 263.297 90.0433 263.291 89.706 263.415C89.3686 263.537 89.1091 263.752 88.9144 264.057C88.7263 264.356 88.5642 264.731 88.4408 265.173L87.1434 269.851C87.0395 269.811 86.9552 269.778 86.8903 269.753C86.819 269.727 86.7671 269.707 86.7216 269.687C86.6762 269.669 86.6114 269.649 86.514 269.623C86.4361 269.604 86.3388 269.578 86.2156 269.558C86.1182 269.545 86.0014 269.525 85.8848 269.507Z" fill="black"/>
<path d="M102.132 271.651L101.71 277.366C101.6 277.346 101.516 277.334 101.444 277.321C101.373 277.308 101.315 277.301 101.269 277.288C101.224 277.282 101.152 277.27 101.055 277.263C100.951 277.255 100.873 277.25 100.828 277.255C100.782 277.255 100.718 277.255 100.646 277.255C100.575 277.255 100.484 277.255 100.387 277.263L101.282 265.059C101.425 265.078 101.548 265.098 101.665 265.118C101.782 265.137 101.872 265.15 101.95 265.157C102.022 265.164 102.112 265.164 102.223 265.164C102.333 265.164 102.463 265.157 102.618 265.157L102.495 266.836H102.528C102.839 266.33 103.189 265.928 103.579 265.624C103.968 265.319 104.597 265.202 105.473 265.267C105.992 265.306 106.453 265.435 106.849 265.67C107.251 265.896 107.582 266.201 107.848 266.583C108.114 266.967 108.308 267.395 108.419 267.855C108.535 268.316 108.568 268.809 108.535 269.322C108.438 270.672 108.029 271.709 107.309 272.448C106.589 273.181 105.694 273.512 104.617 273.434C103.481 273.35 102.664 272.754 102.177 271.651H102.132ZM102.301 269.354C102.229 270.301 102.378 271.087 102.742 271.709C103.105 272.332 103.695 272.675 104.506 272.734C105.045 272.773 105.493 272.643 105.856 272.351C106.219 272.053 106.498 271.644 106.686 271.119C106.881 270.594 107.004 269.984 107.056 269.296C107.101 268.705 107.069 268.154 106.959 267.648C106.849 267.142 106.634 266.72 106.316 266.383C105.992 266.052 105.557 265.864 104.999 265.825C104.403 265.779 103.91 265.935 103.52 266.285C103.131 266.636 102.839 267.096 102.651 267.655C102.463 268.206 102.346 268.776 102.301 269.354Z" fill="black"/>
<path d="M110.284 269.511C110.232 268.92 110.297 268.376 110.466 267.87C110.634 267.364 110.9 266.916 111.257 266.52C111.614 266.13 112.042 265.819 112.529 265.586C113.015 265.352 113.567 265.215 114.177 265.164C114.936 265.106 115.617 265.21 116.227 265.495C116.837 265.774 117.33 266.209 117.7 266.798C118.076 267.389 118.296 268.09 118.361 268.907C118.407 269.44 118.361 269.959 118.219 270.47C118.082 270.983 117.849 271.451 117.524 271.873C117.2 272.293 116.785 272.637 116.279 272.897C115.779 273.157 115.195 273.319 114.54 273.371C113.82 273.429 113.145 273.319 112.522 273.034C111.893 272.748 111.381 272.308 110.985 271.697C110.582 271.087 110.349 270.361 110.284 269.511ZM114.196 265.677C113.534 265.735 113.015 265.956 112.639 266.351C112.256 266.747 112.003 267.233 111.873 267.817C111.744 268.401 111.705 269.011 111.757 269.653C111.809 270.257 111.938 270.801 112.159 271.302C112.38 271.8 112.691 272.197 113.113 272.488C113.528 272.781 114.034 272.905 114.631 272.859C115.221 272.806 115.688 272.566 116.045 272.126C116.396 271.684 116.636 271.178 116.765 270.594C116.889 270.01 116.934 269.458 116.895 268.953C116.863 268.538 116.785 268.128 116.675 267.739C116.558 267.351 116.396 266.993 116.175 266.669C115.961 266.345 115.682 266.092 115.351 265.91C115.02 265.715 114.637 265.644 114.196 265.677Z" fill="black"/>
<path d="M127.057 269.383L127.232 270.24C126.862 270.635 126.46 270.974 126.019 271.252C125.578 271.525 125.117 271.72 124.65 271.823C123.904 271.991 123.203 271.973 122.548 271.784C121.893 271.589 121.341 271.232 120.881 270.694C120.427 270.162 120.102 269.487 119.921 268.663C119.752 267.898 119.745 267.185 119.895 266.516C120.044 265.848 120.368 265.277 120.855 264.803C121.341 264.33 121.977 264.012 122.762 263.837C123.203 263.739 123.638 263.721 124.073 263.784C124.507 263.843 124.91 263.992 125.279 264.219C125.649 264.447 125.974 264.771 126.253 265.186C126.532 265.608 126.746 266.121 126.876 266.736C126.895 266.808 126.908 266.872 126.914 266.925C126.921 266.976 126.934 267.036 126.94 267.1C125.831 267.307 124.728 267.542 123.632 267.782L121.335 268.288C121.341 268.365 121.361 268.482 121.393 268.632C121.484 269.047 121.633 269.423 121.834 269.76C122.036 270.097 122.295 270.39 122.6 270.617C122.911 270.843 123.262 270.999 123.651 271.077C124.04 271.155 124.455 271.141 124.89 271.045C125.727 270.863 126.447 270.311 127.057 269.383ZM121.205 267.677L125.532 266.723C125.325 265.893 125.014 265.244 124.598 264.783C124.183 264.323 123.606 264.174 122.879 264.336C122.399 264.447 122.023 264.667 121.75 265.011C121.478 265.348 121.302 265.757 121.218 266.23C121.134 266.698 121.134 267.185 121.205 267.677Z" fill="black"/>
<path d="M130.301 270.193L127.836 262.614C127.972 262.583 128.102 262.55 128.212 262.523C128.323 262.498 128.42 262.472 128.491 262.452C128.556 262.434 128.641 262.394 128.744 262.356C128.848 262.31 128.971 262.257 129.108 262.199L129.627 263.789L129.64 263.569C129.944 262.374 130.444 261.661 131.151 261.433C131.359 261.369 131.528 261.337 131.664 261.349L131.878 262.751C131.826 262.758 131.703 262.745 131.508 262.718C131.313 262.692 131.158 262.699 131.041 262.738C130.853 262.796 130.678 262.894 130.515 263.016C130.353 263.147 130.23 263.296 130.159 263.464C130.003 263.841 129.932 264.179 129.957 264.477C129.983 264.776 130.074 265.171 130.237 265.664L131.573 269.765C131.469 269.79 131.378 269.809 131.307 269.823C131.236 269.842 131.177 269.854 131.125 269.862C131.08 269.869 131.008 269.894 130.924 269.92C130.827 269.952 130.762 269.972 130.736 269.985C130.71 269.998 130.652 270.018 130.567 270.056C130.477 270.107 130.392 270.147 130.301 270.193Z" fill="black"/>
<path d="M136.152 268.213L132.999 260.894C133.135 260.849 133.252 260.81 133.362 260.772C133.473 260.739 133.563 260.707 133.628 260.674C133.693 260.641 133.777 260.603 133.875 260.55C133.972 260.499 134.089 260.434 134.225 260.363L134.828 261.758C134.965 260.525 135.568 259.675 136.645 259.207C137.527 258.825 138.26 258.8 138.851 259.111C139.441 259.422 139.954 260.097 140.395 261.129L142.302 265.552C142.199 265.585 142.114 265.611 142.043 265.638C141.972 265.663 141.913 265.683 141.874 265.696C141.829 265.709 141.764 265.734 141.673 265.774C141.576 265.812 141.511 265.845 141.466 265.871C141.42 265.896 141.368 265.923 141.303 265.962C141.238 265.994 141.161 266.04 141.076 266.085L139.318 262.011C139.091 261.485 138.857 261.063 138.604 260.732C138.358 260.401 138.059 260.181 137.715 260.077C137.372 259.968 136.976 260.013 136.522 260.206C135.769 260.532 135.361 261.012 135.283 261.647C135.211 262.283 135.399 263.114 135.841 264.138L137.372 267.687C137.268 267.719 137.184 267.746 137.112 267.772C137.041 267.798 136.983 267.818 136.937 267.83C136.892 267.843 136.82 267.869 136.736 267.908C136.639 267.947 136.58 267.972 136.554 267.992C136.528 268.005 136.476 268.038 136.392 268.083C136.321 268.116 136.236 268.161 136.152 268.213Z" fill="black"/>
<path d="M147.589 256.778L149.451 260.164C149.555 260.352 149.639 260.495 149.704 260.579C149.769 260.664 149.847 260.723 149.931 260.748C150.022 260.774 150.126 260.754 150.249 260.683C150.353 260.624 150.482 260.528 150.638 260.384L150.813 260.71C150.69 260.877 150.567 261.008 150.456 261.098C150.314 261.216 150.171 261.312 150.015 261.396C149.723 261.545 149.444 261.605 149.185 261.572C148.925 261.54 148.692 261.371 148.484 261.079L148.432 261.287C148.16 262.233 147.608 262.941 146.778 263.396C146.246 263.687 145.694 263.771 145.13 263.654C144.566 263.531 144.137 263.207 143.852 262.688C143.566 262.175 143.469 261.709 143.56 261.287C143.651 260.865 143.839 260.501 144.137 260.197C144.429 259.886 144.851 259.522 145.402 259.1C145.818 258.776 146.11 258.53 146.272 258.361C146.434 258.199 146.531 258.03 146.564 257.868C146.596 257.706 146.544 257.504 146.414 257.271C146.116 256.725 145.733 256.381 145.273 256.245C144.812 256.11 144.312 256.194 143.767 256.492C143.45 256.667 143.197 256.881 143.002 257.134C142.814 257.387 142.684 257.633 142.626 257.868C142.561 258.101 142.548 258.302 142.574 258.457L142.412 258.548L141.964 257.738C142.451 256.771 143.086 256.07 143.878 255.635C144.65 255.207 145.351 255.091 145.98 255.278C146.603 255.455 147.141 255.961 147.589 256.778ZM148.127 260.528L146.953 258.393L146.499 258.783C146.207 259.016 145.941 259.236 145.701 259.444C145.461 259.651 145.253 259.873 145.072 260.111C144.89 260.352 144.78 260.612 144.734 260.903C144.689 261.196 144.754 261.494 144.929 261.812C145.182 262.266 145.493 262.546 145.869 262.635C146.246 262.726 146.661 262.649 147.122 262.402C147.303 262.306 147.472 262.136 147.641 261.896C147.809 261.656 147.92 261.429 147.985 261.209C148.004 261.137 148.03 261.059 148.056 260.975C148.082 260.89 148.108 260.806 148.121 260.71C148.14 260.612 148.14 260.553 148.127 260.528Z" fill="black"/>
<path d="M81.3302 137.855C81.3302 137.855 79.3254 122.752 72.2148 119.281C72.2148 119.281 109.435 94.1021 147.927 119.281C147.927 119.281 137.767 128.682 138.195 136.571L81.3302 137.855Z" fill="url(#paint23_linear_3116_911)" stroke="#A3822E" stroke-width="4.26316" stroke-miterlimit="10"/>
<path d="M91.6661 128.188L89.1035 115.368L92.7886 114.629C93.7292 114.441 94.5272 114.369 95.176 114.408C95.8248 114.454 96.3438 114.635 96.733 114.953C97.1224 115.271 97.3819 115.751 97.5051 116.387C97.5895 116.815 97.5959 117.224 97.5181 117.613C97.4403 118.002 97.2974 118.366 97.0834 118.71C96.8693 119.053 96.6033 119.352 96.2854 119.618C95.9675 119.877 95.5977 120.111 95.189 120.312C95.5848 120.254 95.9999 120.241 96.4282 120.273C96.8564 120.306 97.265 120.403 97.6413 120.559C98.0242 120.714 98.3615 120.961 98.6469 121.292C98.9324 121.623 99.1271 122.051 99.2373 122.576C99.5033 123.913 99.1529 125.087 98.1798 126.093C97.8944 126.378 97.544 126.625 97.1224 126.826C96.7071 127.033 96.2854 127.189 95.8701 127.299C95.4485 127.41 94.9489 127.52 94.352 127.643L91.6661 128.188ZM90.894 115.738L91.8868 120.708L92.6587 120.552C93.1518 120.455 93.58 120.338 93.9304 120.215C94.2807 120.091 94.6246 119.916 94.9425 119.683C95.3577 119.371 95.6496 118.995 95.8248 118.554C95.9935 118.113 96.0324 117.633 95.9285 117.12C95.8117 116.549 95.5977 116.121 95.2798 115.829C94.9619 115.537 94.5533 115.368 94.0601 115.323C93.567 115.278 92.9702 115.323 92.276 115.466L90.894 115.738ZM92.0295 121.408L93.1778 127.163L94.9619 126.806C95.5848 126.683 96.1038 126.449 96.5319 126.106C96.9601 125.762 97.265 125.34 97.4403 124.84C97.6153 124.341 97.6479 123.815 97.5376 123.264C97.33 122.219 96.8434 121.558 96.0843 121.266C95.3188 120.98 94.3131 120.954 93.0675 121.207L92.0295 121.408Z" fill="black"/>
<path d="M108.541 119.966L108.782 124.41C108.794 124.663 108.814 124.845 108.833 124.968C108.853 125.091 108.905 125.182 108.983 125.254C109.06 125.325 109.184 125.357 109.346 125.344C109.482 125.338 109.67 125.299 109.904 125.228L109.923 125.649C109.709 125.76 109.521 125.838 109.352 125.876C109.151 125.922 108.944 125.954 108.749 125.967C108.366 125.974 108.055 125.896 107.802 125.734C107.555 125.572 107.393 125.28 107.322 124.871L107.16 125.059C106.401 125.902 105.473 126.356 104.389 126.415C103.689 126.454 103.079 126.266 102.553 125.857C102.028 125.448 101.749 124.897 101.71 124.209C101.678 123.534 101.807 123.002 102.106 122.613C102.404 122.224 102.787 121.938 103.248 121.77C103.708 121.601 104.325 121.426 105.103 121.264C105.693 121.134 106.122 121.024 106.375 120.933C106.628 120.842 106.809 120.719 106.92 120.563C107.036 120.407 107.082 120.174 107.069 119.869C107.03 119.149 106.803 118.61 106.394 118.24C105.985 117.871 105.421 117.708 104.714 117.747C104.292 117.767 103.922 117.864 103.604 118.033C103.28 118.201 103.027 118.39 102.845 118.604C102.664 118.818 102.547 119.012 102.501 119.188L102.287 119.201L102.229 118.137C103.222 117.378 104.234 116.969 105.259 116.917C106.271 116.865 107.062 117.092 107.614 117.598C108.178 118.098 108.483 118.889 108.541 119.966ZM107.224 124.125L107.075 121.329L106.407 121.504C105.985 121.601 105.603 121.698 105.252 121.796C104.902 121.893 104.571 122.016 104.266 122.172C103.961 122.328 103.715 122.542 103.52 122.821C103.332 123.1 103.241 123.444 103.267 123.859C103.299 124.456 103.488 124.897 103.831 125.182C104.175 125.468 104.649 125.598 105.246 125.565C105.486 125.552 105.745 125.461 106.037 125.299C106.329 125.137 106.563 124.955 106.744 124.754C106.803 124.689 106.868 124.618 106.939 124.547C107.01 124.475 107.075 124.397 107.134 124.306C107.199 124.216 107.224 124.157 107.224 124.125Z" fill="black"/>
<path d="M111.571 126.003L112.298 116.861C112.46 116.887 112.603 116.913 112.733 116.933C112.862 116.952 112.973 116.972 113.057 116.978C113.135 116.985 113.245 116.985 113.368 116.985C113.498 116.985 113.647 116.985 113.823 116.985L113.68 118.73C114.484 117.549 115.555 117.011 116.904 117.114C118.007 117.205 118.773 117.562 119.201 118.204C119.629 118.84 119.791 119.8 119.687 121.085L119.246 126.612C119.123 126.593 119.019 126.573 118.935 126.561C118.851 126.548 118.786 126.535 118.734 126.528C118.682 126.522 118.598 126.509 118.487 126.502C118.37 126.496 118.28 126.489 118.228 126.489C118.176 126.489 118.098 126.489 118.014 126.489C117.929 126.489 117.832 126.489 117.715 126.496L118.124 121.409C118.176 120.754 118.163 120.196 118.092 119.722C118.014 119.255 117.832 118.873 117.54 118.574C117.248 118.276 116.82 118.107 116.262 118.062C115.321 117.984 114.646 118.25 114.231 118.86C113.816 119.463 113.557 120.41 113.453 121.695L113.102 126.132C112.979 126.113 112.875 126.093 112.791 126.08C112.707 126.067 112.642 126.054 112.583 126.048C112.525 126.042 112.447 126.028 112.343 126.022C112.227 126.016 112.149 126.009 112.116 126.009C112.084 126.009 112.013 126.009 111.902 126.009C111.792 125.996 111.682 126.003 111.571 126.003Z" fill="black"/>
<path d="M126.313 113.264L124.503 121.672C124.451 121.925 124.418 122.081 124.418 122.152C124.418 122.223 124.431 122.275 124.464 122.308C124.814 122.379 125.437 122.133 126.332 121.549L127.747 120.621L129.557 119.323C129.712 119.369 129.855 119.414 129.978 119.453C130.102 119.492 130.212 119.524 130.296 119.537C130.361 119.55 130.459 119.563 130.588 119.583C130.718 119.596 130.867 119.615 131.042 119.641L131.01 119.777C130.776 119.914 130.575 120.024 130.394 120.115C130.219 120.206 129.816 120.413 129.193 120.744C128.571 121.075 127.954 121.419 127.357 121.763C126.754 122.107 126.339 122.353 126.099 122.502C126.248 122.775 126.456 123.145 126.715 123.625C126.975 124.105 127.273 124.663 127.617 125.299C127.961 125.934 128.279 126.512 128.564 127.037C128.85 127.556 129.129 128.069 129.401 128.568L129.381 128.659C129.226 128.614 129.103 128.575 129.005 128.549C128.914 128.523 128.837 128.497 128.765 128.477C128.7 128.458 128.603 128.432 128.473 128.406C128.33 128.374 128.233 128.354 128.188 128.348C128.142 128.341 128.058 128.328 127.928 128.309C127.799 128.289 127.662 128.27 127.526 128.257C127.325 127.822 126.988 127.167 126.508 126.285C126.027 125.402 125.476 124.397 124.847 123.261C124.71 123.028 124.587 122.898 124.477 122.872C124.321 122.84 124.191 123.047 124.088 123.508L123.264 127.336C123.14 127.297 123.043 127.264 122.965 127.245C122.887 127.219 122.816 127.199 122.764 127.18C122.712 127.161 122.628 127.141 122.53 127.122C122.414 127.096 122.342 127.083 122.303 127.076C122.271 127.07 122.2 127.063 122.096 127.05C121.992 127.037 121.882 127.024 121.771 127.011L124.808 112.92C124.963 112.965 125.106 113.011 125.229 113.05C125.353 113.089 125.463 113.121 125.547 113.134C125.625 113.153 125.729 113.166 125.859 113.179C125.988 113.218 126.144 113.244 126.313 113.264Z" fill="black"/>
<path d="M110.068 258.119C145.383 258.119 174.011 229.49 174.011 194.175C174.011 158.86 145.383 130.232 110.068 130.232C74.7534 130.232 46.125 158.86 46.125 194.175C46.125 229.49 74.7534 258.119 110.068 258.119Z" fill="url(#paint24_linear_3116_911)" stroke="#A3822E" stroke-width="4.26316" stroke-miterlimit="10"/>
<path d="M111.032 241.596C138.303 241.596 160.41 219.489 160.41 192.218C160.41 164.947 138.303 142.84 111.032 142.84C83.7616 142.84 61.6543 164.947 61.6543 192.218C61.6543 219.489 83.7616 241.596 111.032 241.596Z" fill="white"/>
<path d="M111.023 243.241C82.8853 243.241 60.0029 220.352 60.0029 192.222C60.0029 164.091 82.8917 141.202 111.023 141.202C139.153 141.202 162.042 164.091 162.042 192.222C162.042 220.352 139.153 243.241 111.023 243.241ZM111.023 144.478C84.7018 144.478 63.2858 165.894 63.2858 192.215C63.2858 218.536 84.7018 239.952 111.023 239.952C137.343 239.952 158.759 218.536 158.759 192.215C158.759 165.894 137.343 144.478 111.023 144.478Z" fill="black"/>
<path d="M111.02 148.432C86.8531 148.432 67.2471 168.038 67.2471 192.224C67.2471 216.411 86.8531 236.017 111.02 236.017C135.206 236.017 154.812 216.411 154.812 192.224C154.806 168.032 135.206 148.432 111.02 148.432ZM109.515 218.61H110.637C110.248 219.077 109.995 219.33 109.995 219.33C109.826 219.09 109.677 218.85 109.515 218.61Z" fill="#FF0000"/>
<path d="M142.949 171.367C121.326 163.796 110.108 177.297 110.108 177.297C92.6886 162.978 75.9893 173.469 75.9893 173.469C80.8356 195.819 97.8918 198.194 97.8918 198.194C92.5913 215.516 110.108 229.75 110.108 229.75C124.887 221.361 124.245 197.551 124.245 197.551C141.405 191.252 142.949 171.367 142.949 171.367ZM109.596 187.113C110.776 185.504 114.52 193.172 113.8 193.892C113.08 194.632 106.819 194.943 106.28 193.484C105.723 192.037 109.596 187.113 109.596 187.113ZM99.7927 191.349C88.2964 188.345 85.1953 177.985 85.1953 177.985C98.3005 176.032 105.307 182.5 105.307 182.5C99.7927 185.783 99.7927 191.349 99.7927 191.349ZM109.628 218.455C103.504 210.079 104.178 199.641 104.178 199.641C109.284 201.1 115.785 199.641 115.785 199.641C117.219 210.851 109.628 218.455 109.628 218.455ZM121.553 191.349C120.242 187.061 115.032 182.091 115.032 182.091C123.7 174.831 134.197 177.115 134.197 177.115C130.454 186.782 121.553 191.349 121.553 191.349Z" fill="white" stroke="black" stroke-width="2.84211" stroke-miterlimit="10"/>
<path d="M91.0362 249.368L91.1206 249.407C91.1595 249.686 91.2567 249.952 91.4061 250.198C91.5617 250.445 91.7498 250.614 91.9835 250.718C92.1521 250.795 92.3403 250.828 92.5284 250.815C92.723 250.802 92.9047 250.744 93.0669 250.64C93.229 250.536 93.3524 250.4 93.4302 250.218C93.5664 249.907 93.5664 249.647 93.4302 249.446C93.2874 249.245 93.0345 248.986 92.6646 248.674C92.2948 248.363 92.0419 248.077 91.9121 247.811C91.7822 247.545 91.8082 247.208 91.9835 246.799C92.1975 246.319 92.5284 246.008 92.9695 245.878C93.4108 245.748 93.8843 245.787 94.3774 246.008C94.6174 246.111 94.8315 246.248 95.0326 246.403C95.2338 246.559 95.37 246.695 95.4414 246.806C95.2468 246.981 95.0521 247.188 94.8575 247.435L94.7666 247.396C94.7731 247.266 94.7537 247.124 94.7083 246.968C94.6629 246.819 94.5979 246.682 94.5136 246.566C94.4292 246.449 94.319 246.364 94.1892 246.306C93.9168 246.189 93.6573 246.163 93.4108 246.235C93.1642 246.306 92.9761 246.481 92.8593 246.754C92.7295 247.046 92.7295 247.299 92.8658 247.506C93.0021 247.707 93.2485 247.973 93.6053 248.291C93.9621 248.609 94.2087 248.901 94.3515 249.174C94.4876 249.446 94.4747 249.771 94.3126 250.147C94.1568 250.497 93.9297 250.757 93.6313 250.926C93.3329 251.093 93.0085 251.179 92.6516 251.166C92.3013 251.159 91.964 251.088 91.6525 250.944C91.1595 250.724 90.7702 250.425 90.4912 250.037C90.7767 249.706 90.9648 249.485 91.0362 249.368Z" fill="black"/>
<path d="M100.161 249.938L99.4541 252.488C99.4151 252.63 99.3891 252.741 99.3762 252.812C99.3631 252.883 99.3762 252.948 99.4086 252.999C99.441 253.052 99.4994 253.097 99.5968 253.123C99.6746 253.143 99.7849 253.156 99.9341 253.163L99.8693 253.401C99.7265 253.421 99.6097 253.428 99.506 253.421C99.3826 253.408 99.2659 253.389 99.1491 253.357C98.935 253.292 98.7663 253.181 98.6626 253.045C98.5523 252.903 98.5133 252.715 98.5523 252.468L98.4289 252.546C97.8386 252.877 97.2353 252.961 96.6059 252.786C96.2037 252.675 95.8922 252.455 95.6782 252.124C95.4577 251.793 95.4056 251.43 95.5159 251.041C95.6263 250.652 95.795 250.379 96.0414 250.217C96.288 250.054 96.554 249.964 96.846 249.957C97.1379 249.951 97.5207 249.97 97.9878 250.022C98.3511 250.061 98.6042 250.08 98.7663 250.074C98.9286 250.074 99.0518 250.035 99.1426 249.97C99.2399 249.905 99.3049 249.782 99.3567 249.607C99.4735 249.198 99.4475 248.848 99.2854 248.562C99.1231 248.277 98.8376 248.076 98.4289 247.965C98.1889 247.9 97.9618 247.881 97.7478 247.913C97.5337 247.946 97.3521 248.004 97.2158 248.095C97.073 248.179 96.9692 248.27 96.9108 248.361L96.7876 248.329L96.9563 247.719C97.6569 247.479 98.3057 247.44 98.896 247.602C99.4799 247.764 99.8822 248.043 100.096 248.433C100.31 248.822 100.33 249.321 100.161 249.938ZM98.6302 252.04L99.0778 250.431L98.6689 250.404C98.4095 250.379 98.176 250.366 97.9618 250.353C97.7478 250.34 97.5337 250.353 97.339 250.379C97.1379 250.411 96.9563 250.483 96.794 250.606C96.6319 250.73 96.5216 250.905 96.4503 251.145C96.3529 251.489 96.3788 251.774 96.5151 252C96.6579 252.228 96.8979 252.39 97.2416 252.481C97.3779 252.52 97.5402 252.52 97.7413 252.481C97.936 252.442 98.1046 252.384 98.2408 252.306C98.2863 252.28 98.3381 252.253 98.39 252.228C98.442 252.202 98.5003 252.169 98.5457 252.131C98.5976 252.085 98.6302 252.04 98.6302 252.04Z" fill="black"/>
<path d="M101.719 253.941L102.763 245.429C102.861 245.448 102.945 245.468 103.023 245.481C103.101 245.5 103.166 245.513 103.217 245.513C103.269 245.52 103.328 245.52 103.406 245.526C103.483 245.526 103.574 245.532 103.678 245.539L103.172 249.665C103.678 248.984 104.333 248.692 105.131 248.789C105.774 248.867 106.221 249.107 106.461 249.509C106.701 249.912 106.779 250.482 106.688 251.222L106.286 254.498C106.215 254.479 106.156 254.467 106.105 254.459C106.053 254.447 105.988 254.434 105.988 254.434C105.955 254.427 105.91 254.421 105.839 254.408C105.767 254.401 105.715 254.394 105.683 254.394C105.65 254.394 105.605 254.394 105.56 254.388C105.508 254.388 105.449 254.381 105.384 254.381L105.754 251.364C105.832 250.709 105.8 250.216 105.65 249.899C105.501 249.574 105.196 249.386 104.729 249.328C103.737 249.205 103.172 249.75 103.023 250.962L102.647 254.045C102.575 254.025 102.517 254.012 102.465 254.005C102.413 253.999 102.374 253.986 102.342 253.979C102.309 253.973 102.264 253.966 102.199 253.954C102.128 253.946 102.063 253.941 102.063 253.941C102.063 253.941 101.998 253.941 101.939 253.934C101.855 253.946 101.784 253.941 101.719 253.941Z" fill="black"/>
<path d="M112.477 250.938L112.516 253.585C112.516 253.735 112.522 253.844 112.535 253.915C112.542 253.987 112.574 254.046 112.619 254.091C112.665 254.137 112.736 254.155 112.834 254.155C112.918 254.155 113.028 254.137 113.164 254.104L113.171 254.357C113.041 254.415 112.924 254.461 112.827 254.481C112.704 254.506 112.58 254.519 112.464 254.519C112.237 254.512 112.055 254.461 111.906 254.357C111.763 254.253 111.672 254.078 111.64 253.831L111.543 253.942C111.069 254.428 110.511 254.675 109.862 254.681C109.447 254.688 109.084 254.564 108.785 254.304C108.48 254.051 108.325 253.715 108.325 253.305C108.318 252.903 108.409 252.592 108.597 252.365C108.785 252.137 109.019 251.982 109.298 251.884C109.577 251.795 109.947 251.71 110.414 251.626C110.77 251.56 111.023 251.509 111.173 251.457C111.322 251.411 111.439 251.34 111.51 251.249C111.581 251.158 111.614 251.022 111.614 250.84C111.607 250.412 111.484 250.088 111.25 249.854C111.017 249.621 110.686 249.517 110.258 249.523C110.011 249.523 109.791 249.575 109.59 249.666C109.395 249.757 109.239 249.867 109.129 249.99C109.012 250.114 108.941 250.225 108.908 250.328H108.779L108.772 249.692C109.382 249.264 109.992 249.043 110.602 249.037C111.205 249.03 111.672 249.179 111.99 249.497C112.302 249.822 112.464 250.296 112.477 250.938ZM111.594 253.384L111.568 251.717L111.166 251.808C110.913 251.859 110.68 251.904 110.472 251.957C110.258 252.002 110.063 252.073 109.875 252.157C109.693 252.242 109.538 252.365 109.414 252.527C109.298 252.69 109.239 252.89 109.239 253.138C109.246 253.494 109.35 253.76 109.544 253.935C109.745 254.11 110.018 254.201 110.375 254.195C110.517 254.195 110.673 254.142 110.855 254.051C111.03 253.96 111.173 253.857 111.283 253.747C111.322 253.708 111.361 253.669 111.406 253.631C111.452 253.591 111.491 253.546 111.529 253.494C111.575 253.436 111.594 253.384 111.594 253.384Z" fill="black"/>
<path d="M114.84 254.366L113.653 245.905C113.751 245.899 113.835 245.892 113.913 245.892C113.991 245.886 114.055 245.886 114.107 245.873C114.153 245.866 114.218 245.853 114.289 245.834C114.367 245.814 114.451 245.795 114.555 245.775L115.145 249.96C115.34 249.558 115.587 249.233 115.872 248.98C116.164 248.727 116.521 248.578 116.936 248.52C117.442 248.448 117.883 248.513 118.266 248.721C118.642 248.922 118.947 249.214 119.168 249.597C119.388 249.979 119.531 250.382 119.589 250.823C119.641 251.205 119.641 251.582 119.577 251.951C119.512 252.315 119.388 252.652 119.207 252.957C119.025 253.263 118.785 253.521 118.493 253.729C118.195 253.936 117.851 254.067 117.449 254.125C116.741 254.222 116.164 254.034 115.729 253.548C115.651 253.625 115.554 253.729 115.444 253.865C115.334 254.002 115.204 254.158 115.055 254.333L114.84 254.366ZM116.716 249.039C116.119 249.123 115.723 249.434 115.528 249.979C115.334 250.524 115.288 251.174 115.399 251.933C115.457 252.328 115.567 252.679 115.742 252.977C115.911 253.276 116.132 253.496 116.398 253.638C116.664 253.781 116.956 253.827 117.28 253.781C117.585 253.736 117.831 253.625 118.026 253.438C118.221 253.25 118.37 253.016 118.467 252.737C118.564 252.458 118.623 252.179 118.642 251.887C118.662 251.602 118.649 251.303 118.603 251.01C118.545 250.583 118.435 250.213 118.279 249.902C118.123 249.59 117.916 249.357 117.656 249.201C117.39 249.045 117.079 248.993 116.716 249.039Z" fill="black"/>
<path d="M124.582 248.809L125.244 251.371C125.283 251.514 125.315 251.624 125.341 251.69C125.367 251.754 125.406 251.806 125.464 251.839C125.516 251.872 125.594 251.872 125.685 251.852C125.763 251.832 125.867 251.786 125.997 251.715L126.061 251.956C125.951 252.046 125.847 252.11 125.756 252.156C125.646 252.208 125.529 252.254 125.413 252.28C125.192 252.332 124.997 252.325 124.835 252.254C124.666 252.189 124.543 252.039 124.452 251.806L124.381 251.936C124.037 252.52 123.551 252.896 122.928 253.058C122.525 253.162 122.149 253.129 121.792 252.947C121.436 252.773 121.209 252.487 121.105 252.092C121.007 251.703 121.02 251.379 121.15 251.111C121.28 250.846 121.468 250.638 121.715 250.483C121.961 250.327 122.305 250.158 122.74 249.964C123.07 249.814 123.304 249.704 123.44 249.62C123.576 249.542 123.667 249.445 123.719 249.341C123.765 249.237 123.765 249.094 123.719 248.919C123.609 248.504 123.414 248.212 123.135 248.05C122.85 247.881 122.506 247.855 122.097 247.959C121.857 248.024 121.65 248.121 121.481 248.257C121.312 248.394 121.189 248.536 121.105 248.679C121.027 248.828 120.981 248.952 120.975 249.062L120.852 249.094L120.689 248.478C121.176 247.92 121.721 247.563 122.311 247.407C122.895 247.252 123.382 247.297 123.771 247.524C124.147 247.764 124.42 248.186 124.582 248.809ZM124.31 251.391L123.888 249.775L123.518 249.957C123.285 250.061 123.07 250.165 122.876 250.262C122.681 250.36 122.506 250.469 122.344 250.6C122.182 250.722 122.065 250.878 121.987 251.066C121.909 251.255 121.896 251.462 121.961 251.703C122.052 252.046 122.214 252.28 122.448 252.41C122.681 252.532 122.973 252.552 123.317 252.461C123.453 252.423 123.596 252.345 123.745 252.208C123.894 252.079 124.011 251.943 124.089 251.806C124.115 251.761 124.147 251.715 124.18 251.663C124.212 251.612 124.245 251.559 124.271 251.501C124.303 251.443 124.31 251.391 124.31 251.391Z" fill="black"/>
<path d="M125.422 245.406L126.175 244.777L126.655 246.178L127.796 245.789C127.816 245.899 127.835 245.977 127.848 246.016C127.868 246.074 127.9 246.139 127.939 246.204L126.797 246.593L127.725 249.305L127.861 249.695C128.004 250.11 128.166 250.421 128.361 250.629C128.549 250.843 128.808 250.889 129.133 250.778C129.204 250.752 129.353 250.674 129.594 250.538L129.684 250.798C129.373 251.051 129.088 251.218 128.841 251.304C128.64 251.375 128.458 251.407 128.289 251.407C128.121 251.407 127.959 251.362 127.809 251.264C127.66 251.174 127.517 251.025 127.381 250.816C127.251 250.609 127.128 250.35 127.018 250.025L125.941 246.879L125.273 247.106C125.273 247.054 125.26 246.976 125.227 246.892C125.195 246.794 125.162 246.73 125.13 246.697L125.798 246.47L125.422 245.406Z" fill="black"/>
<path d="M158.755 244.778C159.371 244.933 164.309 244.09 171.387 240.405C173.625 239.244 176.07 237.797 178.666 236.013" stroke="#A3822E" stroke-width="1.42105" stroke-miterlimit="10"/>
<path d="M171.064 228.746C171.064 228.746 180.55 222.726 184.656 215.246" stroke="#A3822E" stroke-width="1.42105" stroke-miterlimit="10"/>
<path d="M174.382 211.78C174.382 211.78 184.127 205.753 188.818 194.172" stroke="#A3822E" stroke-width="1.42105" stroke-miterlimit="10"/>
<path d="M175.907 192.214C175.907 192.214 182.745 186.239 184.658 173.828" stroke="#A3822E" stroke-width="1.42105" stroke-miterlimit="10"/>
<path d="M168.636 160.445L172.891 145.095" stroke="#A3822E" stroke-width="1.42105" stroke-miterlimit="10"/>
</g>
<defs>
<linearGradient id="paint0_linear_3116_911" x1="44.8445" y1="163.21" x2="33.5333" y2="176.711" gradientUnits="userSpaceOnUse">
<stop stop-color="#F7E349"/>
<stop offset="1" stop-color="#A3822E"/>
</linearGradient>
<linearGradient id="paint1_linear_3116_911" x1="175.546" y1="163.21" x2="186.858" y2="176.711" gradientUnits="userSpaceOnUse">
<stop stop-color="#F7E349"/>
<stop offset="1" stop-color="#A3822E"/>
</linearGradient>
<linearGradient id="paint2_linear_3116_911" x1="59.6511" y1="143.81" x2="46.1506" y2="144.722" gradientUnits="userSpaceOnUse">
<stop stop-color="#F7E349"/>
<stop offset="1" stop-color="#A3822E"/>
</linearGradient>
<linearGradient id="paint3_linear_3116_911" x1="76.2544" y1="132.136" x2="66.9501" y2="151.84" gradientUnits="userSpaceOnUse">
<stop stop-color="#F7E349"/>
<stop offset="1" stop-color="#A3822E"/>
</linearGradient>
<linearGradient id="paint4_linear_3116_911" x1="85.9806" y1="138.793" x2="56.4254" y2="138.793" gradientUnits="userSpaceOnUse">
<stop stop-color="#F7E349"/>
<stop offset="1" stop-color="#A3822E"/>
</linearGradient>
<linearGradient id="paint5_linear_3116_911" x1="44.4398" y1="247.639" x2="69.2516" y2="251.471" gradientUnits="userSpaceOnUse">
<stop stop-color="#F7E349"/>
<stop offset="1" stop-color="#A3822E"/>
</linearGradient>
<linearGradient id="paint6_linear_3116_911" x1="54.9399" y1="233.758" x2="50.1966" y2="254.921" gradientUnits="userSpaceOnUse">
<stop stop-color="#F7E349"/>
<stop offset="1" stop-color="#A3822E"/>
</linearGradient>
<linearGradient id="paint7_linear_3116_911" x1="45.6059" y1="219.244" x2="37.7609" y2="232.745" gradientUnits="userSpaceOnUse">
<stop stop-color="#F7E349"/>
<stop offset="1" stop-color="#A3822E"/>
</linearGradient>
<linearGradient id="paint8_linear_3116_911" x1="53.7387" y1="225.579" x2="75.2665" y2="247.837" gradientUnits="userSpaceOnUse">
<stop stop-color="#F7E349"/>
<stop offset="1" stop-color="#A3822E"/>
</linearGradient>
<linearGradient id="paint9_linear_3116_911" x1="43.5461" y1="200.053" x2="32.2349" y2="225.595" gradientUnits="userSpaceOnUse">
<stop stop-color="#F7E349"/>
<stop offset="1" stop-color="#A3822E"/>
</linearGradient>
<linearGradient id="paint10_linear_3116_911" x1="44.6833" y1="180.153" x2="27.7164" y2="200.952" gradientUnits="userSpaceOnUse">
<stop stop-color="#F7E349"/>
<stop offset="1" stop-color="#A3822E"/>
</linearGradient>
<linearGradient id="paint11_linear_3116_911" x1="54.4178" y1="153.334" x2="38.9105" y2="155.524" gradientUnits="userSpaceOnUse">
<stop stop-color="#F7E349"/>
<stop offset="1" stop-color="#A3822E"/>
</linearGradient>
<linearGradient id="paint12_linear_3116_911" x1="160.744" y1="143.81" x2="174.245" y2="144.722" gradientUnits="userSpaceOnUse">
<stop stop-color="#F7E349"/>
<stop offset="1" stop-color="#A3822E"/>
</linearGradient>
<linearGradient id="paint13_linear_3116_911" x1="144.121" y1="132.136" x2="153.426" y2="151.84" gradientUnits="userSpaceOnUse">
<stop stop-color="#F7E349"/>
<stop offset="1" stop-color="#A3822E"/>
</linearGradient>
<linearGradient id="paint14_linear_3116_911" x1="134.408" y1="138.793" x2="163.964" y2="138.793" gradientUnits="userSpaceOnUse">
<stop stop-color="#F7E349"/>
<stop offset="1" stop-color="#A3822E"/>
</linearGradient>
<linearGradient id="paint15_linear_3116_911" x1="175.931" y1="247.639" x2="151.119" y2="251.471" gradientUnits="userSpaceOnUse">
<stop stop-color="#F7E349"/>
<stop offset="1" stop-color="#A3822E"/>
</linearGradient>
<linearGradient id="paint16_linear_3116_911" x1="165.433" y1="233.758" x2="170.177" y2="254.921" gradientUnits="userSpaceOnUse">
<stop stop-color="#F7E349"/>
<stop offset="1" stop-color="#A3822E"/>
</linearGradient>
<linearGradient id="paint17_linear_3116_911" x1="174.787" y1="219.245" x2="182.631" y2="232.745" gradientUnits="userSpaceOnUse">
<stop stop-color="#F7E349"/>
<stop offset="1" stop-color="#A3822E"/>
</linearGradient>
<linearGradient id="paint18_linear_3116_911" x1="166.63" y1="225.579" x2="145.102" y2="247.837" gradientUnits="userSpaceOnUse">
<stop stop-color="#F7E349"/>
<stop offset="1" stop-color="#A3822E"/>
</linearGradient>
<linearGradient id="paint19_linear_3116_911" x1="176.834" y1="200.053" x2="188.144" y2="225.595" gradientUnits="userSpaceOnUse">
<stop stop-color="#F7E349"/>
<stop offset="1" stop-color="#A3822E"/>
</linearGradient>
<linearGradient id="paint20_linear_3116_911" x1="175.706" y1="180.153" x2="192.674" y2="200.952" gradientUnits="userSpaceOnUse">
<stop stop-color="#F7E349"/>
<stop offset="1" stop-color="#A3822E"/>
</linearGradient>
<linearGradient id="paint21_linear_3116_911" x1="165.965" y1="153.334" x2="181.472" y2="155.524" gradientUnits="userSpaceOnUse">
<stop stop-color="#F7E349"/>
<stop offset="1" stop-color="#A3822E"/>
</linearGradient>
<linearGradient id="paint22_linear_3116_911" x1="110.068" y1="239.959" x2="110.068" y2="278.74" gradientUnits="userSpaceOnUse">
<stop stop-color="#F7E349"/>
<stop offset="1" stop-color="#A3822E"/>
</linearGradient>
<linearGradient id="paint23_linear_3116_911" x1="110.07" y1="137.857" x2="110.07" y2="108.096" gradientUnits="userSpaceOnUse">
<stop stop-color="#F7E349"/>
<stop offset="1" stop-color="#A3822E"/>
</linearGradient>
<linearGradient id="paint24_linear_3116_911" x1="110.067" y1="130.229" x2="110.067" y2="258.119" gradientUnits="userSpaceOnUse">
<stop stop-color="#F7E349"/>
<stop offset="1" stop-color="#A3822E"/>
</linearGradient>
</defs>
</svg>
