<svg width="600" height="400" viewBox="0 0 600 400" fill="none" xmlns="http://www.w3.org/2000/svg">
<path d="M128.917 127.632C143.019 127.902 156.729 132.326 168.33 140.348C179.931 148.371 188.909 159.637 194.14 172.736C199.371 185.836 200.623 200.187 197.738 213.994C194.854 227.801 187.963 240.451 177.925 250.361C170.982 257.585 162.501 263.152 153.112 266.65C143.722 270.147 133.665 271.485 123.688 270.564C109.181 269.435 95.3814 263.837 84.1873 254.542C72.9931 245.246 64.9551 232.709 61.1796 218.657C56.3986 201.755 57.9676 183.687 65.5907 167.862C73.2137 152.037 86.3639 139.548 102.561 132.751C110.912 129.288 119.877 127.547 128.917 127.632ZM170.154 199.361V180.081C170.241 179.137 170.046 178.189 169.593 177.356C169.141 176.523 168.451 175.844 167.612 175.403C165.248 174.038 162.78 172.862 160.23 171.886C153.28 169.941 145.872 170.444 139.247 173.31C131.442 176.056 123.73 179.073 115.866 181.632C111.748 183.181 107.327 183.757 102.95 183.316C98.572 182.875 94.3553 181.429 90.6288 179.09C88.0356 177.445 87.6373 177.691 87.5525 180.844V215.174C87.5525 222.479 87.9762 223.09 94.8745 225.59L95.0695 225.649C102.911 228.121 111.355 227.894 119.052 225.005C126.815 222.573 134.459 219.742 142.273 217.513C146.423 216.162 150.811 215.696 155.152 216.147C159.494 216.599 163.692 217.956 167.476 220.132C169.629 221.386 170.095 221.115 170.103 218.606C170.146 212.2 170.163 205.784 170.154 199.361Z" fill="#018DEF"/>
<path d="M374.66 235.471H359.6V220.174H328.922V235.429H313.812C313.729 234.924 313.676 234.414 313.651 233.903C313.651 220.734 313.575 207.547 313.651 194.369C313.595 187.387 315.899 180.591 320.191 175.084C324.483 169.576 330.511 165.681 337.295 164.03C341.377 163.102 345.606 163.023 349.719 163.8C353.833 164.576 357.742 166.19 361.205 168.542C364.667 170.895 367.609 173.934 369.846 177.472C372.084 181.01 373.569 184.97 374.21 189.107C374.465 190.819 374.609 192.556 374.634 194.293C374.668 207.403 374.668 220.513 374.634 233.632L374.66 235.471ZM359.405 204.429C359.405 200.437 359.558 196.691 359.405 192.954C359.17 189.358 357.675 185.959 355.183 183.356C352.691 180.752 349.361 179.11 345.778 178.717C342.116 178.303 338.43 179.252 335.422 181.382C332.415 183.512 330.297 186.676 329.473 190.268C328.88 194.963 328.592 199.691 328.626 204.42H359.405V204.429ZM549.871 235.48H534.871V220.166H504.363V235.42H489.049V233.564C489.049 220.454 488.821 207.335 489.117 194.234C488.973 186.789 491.574 179.551 496.423 173.9C501.272 168.249 508.031 164.581 515.412 163.593C522.792 162.605 530.278 164.368 536.443 168.545C542.607 172.722 547.019 179.021 548.838 186.242C549.515 188.954 549.88 191.751 549.914 194.547C550.024 207.734 549.965 220.903 549.956 234.09C549.982 234.488 549.922 234.886 549.871 235.48ZM534.829 204.446C534.829 200.666 534.982 197.064 534.829 193.48C534.663 189.773 533.176 186.249 530.638 183.543C528.1 180.837 524.678 179.128 520.99 178.725C517.256 178.282 513.495 179.292 510.486 181.546C507.477 183.801 505.452 187.127 504.829 190.835C504.396 195.36 504.35 199.913 504.693 204.446H534.829Z" fill="#038EEF"/>
<path d="M226.142 163.651C236.276 163.104 246.433 163.181 256.558 163.879C264.034 164.783 271.008 168.117 276.406 173.368C281.805 178.619 285.329 185.498 286.439 192.947C287.324 197.741 287.23 202.664 286.162 207.42C285.093 212.176 283.073 216.666 280.222 220.62C277.371 224.574 273.749 227.909 269.574 230.426C265.399 232.942 260.758 234.587 255.93 235.261C254.935 235.389 253.933 235.454 252.93 235.456H226.134L226.142 163.651ZM241.312 178.354V220.049H251.693C256.64 219.947 261.386 218.069 265.062 214.757C268.739 211.446 271.101 206.922 271.718 202.013C272.335 197.103 271.165 192.136 268.422 188.017C265.679 183.899 261.546 180.905 256.778 179.583C251.664 178.807 246.501 178.396 241.329 178.354H241.312ZM462.371 235.49H447.286V233.269V194.286C447.306 191.211 446.403 188.201 444.693 185.645C442.983 183.089 440.546 181.105 437.696 179.949C434.846 178.794 431.715 178.52 428.708 179.163C425.701 179.806 422.956 181.337 420.829 183.557C419.419 185.033 418.318 186.775 417.589 188.681C416.86 190.587 416.518 192.619 416.583 194.659C416.532 207.447 416.583 220.227 416.583 233.007V235.362H401.634C401.564 235.056 401.518 234.744 401.498 234.43C401.498 220.591 401.397 206.735 401.558 192.905C401.842 185.6 404.699 178.631 409.624 173.228C414.549 167.825 421.225 164.337 428.473 163.379C436.097 162.583 443.744 164.67 449.906 169.23C456.069 173.789 460.301 180.491 461.769 188.015C462.193 190.176 462.422 192.379 462.447 194.583C462.498 207.701 462.447 220.854 462.447 233.93C462.447 234.396 462.405 234.854 462.371 235.49Z" fill="#028DEF"/>
</svg>
