<svg width="600" height="400" viewBox="0 0 600 400" fill="none" xmlns="http://www.w3.org/2000/svg">
<path d="M457.197 274.142C457.179 287.473 451.876 300.252 442.449 309.678C433.024 319.105 420.244 324.408 406.914 324.427H133.334V125.284C133.352 111.953 138.656 99.174 148.082 89.7478C157.508 80.3216 170.287 75.018 183.618 75H457.197V274.142Z" fill="white"/>
<path d="M368.101 223.073H388.828C389.425 223.073 390.806 222.869 391.403 222.869C393.518 222.416 395.408 221.238 396.746 219.538C398.085 217.839 398.788 215.725 398.731 213.562C398.725 211.415 398 209.332 396.671 207.646C395.343 205.959 393.488 204.766 391.403 204.255C390.556 204.081 389.691 204.013 388.828 204.051H368.05L368.101 223.073Z" fill="url(#paint0_linear_3116_782)"/>
<path d="M386.531 91.8091C381.8 91.8091 377.113 92.7412 372.741 94.5521C368.37 96.3629 364.398 99.0172 361.051 102.363C357.705 105.709 355.051 109.682 353.24 114.054C351.43 118.425 350.498 123.111 350.498 127.843V165.258H401.411C402.603 165.222 403.795 165.29 404.975 165.463C416.463 166.059 424.97 171.991 424.97 182.286C424.865 186.612 423.1 190.731 420.041 193.791C416.981 196.85 412.863 198.614 408.536 198.718V199.196C420.213 199.98 429.128 206.525 429.128 216.616C429.128 227.508 419.225 234.633 406.168 234.633H350.276V307.928H403.116C412.673 307.928 421.838 304.132 428.596 297.375C435.355 290.617 439.151 281.452 439.151 271.895V91.8091H386.531Z" fill="url(#paint1_linear_3116_782)"/>
<path d="M396.204 184.671C396.246 182.597 395.522 180.58 394.169 179.008C392.816 177.435 390.931 176.417 388.874 176.148C388.482 176.148 387.494 175.944 386.897 175.944H368.147V193.364H386.897C387.562 193.416 388.232 193.347 388.874 193.16C390.931 192.892 392.816 191.873 394.169 190.301C395.522 188.728 396.246 186.711 396.204 184.637V184.671Z" fill="url(#paint2_linear_3116_782)"/>
<path d="M187.36 91.8091C182.628 91.8091 177.942 92.7412 173.57 94.5521C169.198 96.3629 165.226 99.0172 161.88 102.363C158.534 105.709 155.88 109.682 154.069 114.054C152.258 118.425 151.326 123.111 151.326 127.843V216.735C160.931 221.769 171.559 224.544 182.4 224.849C184.873 225.137 187.379 224.885 189.745 224.111C192.112 223.338 194.282 222.061 196.108 220.368C197.934 218.675 199.371 216.607 200.321 214.305C201.27 212.004 201.71 209.524 201.61 207.036V165.105H232.496V206.866C232.496 223.093 222.405 236.355 188.178 236.355C175.697 236.364 163.262 234.835 151.155 231.803V307.605H203.996C208.731 307.608 213.42 306.68 217.796 304.872C222.172 303.063 226.148 300.408 229.498 297.062C232.848 293.717 235.505 289.742 237.318 285.368C239.131 280.993 240.064 276.305 240.064 271.57V91.8091H187.36Z" fill="url(#paint3_linear_3116_782)"/>
<path d="M286.946 91.8091C282.214 91.8091 277.529 92.7412 273.157 94.5521C268.784 96.3629 264.812 99.0172 261.466 102.363C258.12 105.709 255.466 109.682 253.655 114.054C251.844 118.425 250.912 123.111 250.912 127.843V174.957C265.723 164.971 283.721 160.851 301.401 163.4C310.949 164.009 320.424 165.469 329.714 167.764V183.002C321.276 178.485 311.986 175.785 302.441 175.076C283.042 173.696 271.367 183.19 271.367 199.826C271.367 216.463 283.042 226.161 302.441 224.576C311.967 223.774 321.239 221.079 329.714 216.65V231.889C320.429 234.204 310.952 235.665 301.401 236.252C283.734 238.817 265.745 234.722 250.929 224.764V307.912H303.771C313.327 307.912 322.492 304.115 329.251 297.357C336.007 290.6 339.804 281.433 339.804 271.877V91.8091H286.946Z" fill="url(#paint4_linear_3116_782)"/>
<defs>
<linearGradient id="paint0_linear_3116_782" x1="350.406" y1="213.576" x2="439.361" y2="213.576" gradientUnits="userSpaceOnUse">
<stop stop-color="#007940"/>
<stop offset="0.228" stop-color="#00873F"/>
<stop offset="0.743" stop-color="#40A737"/>
<stop offset="1" stop-color="#5CB531"/>
</linearGradient>
<linearGradient id="paint1_linear_3116_782" x1="350.453" y1="199.869" x2="439.418" y2="199.869" gradientUnits="userSpaceOnUse">
<stop stop-color="#007940"/>
<stop offset="0.228" stop-color="#00873F"/>
<stop offset="0.743" stop-color="#40A737"/>
<stop offset="1" stop-color="#5CB531"/>
</linearGradient>
<linearGradient id="paint2_linear_3116_782" x1="350.526" y1="184.645" x2="439.331" y2="184.645" gradientUnits="userSpaceOnUse">
<stop stop-color="#007940"/>
<stop offset="0.228" stop-color="#00873F"/>
<stop offset="0.743" stop-color="#40A737"/>
<stop offset="1" stop-color="#5CB531"/>
</linearGradient>
<linearGradient id="paint3_linear_3116_782" x1="151.333" y1="199.707" x2="241.665" y2="199.707" gradientUnits="userSpaceOnUse">
<stop stop-color="#1F286F"/>
<stop offset="0.475" stop-color="#004E94"/>
<stop offset="0.826" stop-color="#0066B1"/>
<stop offset="1" stop-color="#006FBC"/>
</linearGradient>
<linearGradient id="paint4_linear_3116_782" x1="250.379" y1="199.644" x2="338.116" y2="199.644" gradientUnits="userSpaceOnUse">
<stop stop-color="#6C2C2F"/>
<stop offset="0.174" stop-color="#882730"/>
<stop offset="0.573" stop-color="#BE1833"/>
<stop offset="0.859" stop-color="#DC0436"/>
<stop offset="1" stop-color="#E60039"/>
</linearGradient>
</defs>
</svg>
