<svg width="600" height="400" viewBox="0 0 600 400" fill="none" xmlns="http://www.w3.org/2000/svg">
<g clip-path="url(#clip0_3116_783)">
<mask id="mask0_3116_783" style="mask-type:luminance" maskUnits="userSpaceOnUse" x="95" y="156" width="396" height="102">
<path d="M490.418 156.775H95V257.733H490.418V156.775Z" fill="white"/>
</mask>
<g mask="url(#mask0_3116_783)">
<path fill-rule="evenodd" clip-rule="evenodd" d="M95.5314 204.007C95.5314 196.463 95.3985 190.132 95 184.488H108.826L109.474 194.185H109.862C112.996 189.061 118.726 183 129.416 183C137.76 183 144.277 187.859 147.009 195.127H147.278C149.497 191.492 152.096 188.801 155.091 186.909C158.614 184.354 162.656 183 167.87 183C178.426 183 189.107 190.404 189.107 211.411V250.049H173.468V213.839C173.468 202.934 169.824 196.463 162.138 196.463C156.655 196.463 152.61 200.51 150.927 205.224C150.531 206.835 150.14 208.856 150.14 210.727V250.049H134.496V212.082C134.496 202.934 130.982 196.463 123.551 196.463C117.555 196.463 113.519 201.318 112.082 205.886C111.426 207.512 111.163 209.391 111.163 211.273V250.049H95.5314V204.007Z" fill="#003D79"/>
<path fill-rule="evenodd" clip-rule="evenodd" d="M250.039 234.298C250.039 240.219 250.3 245.998 250.952 250.049H236.478L235.44 242.781H235.044C231.136 247.901 224.489 251.53 216.278 251.53C203.501 251.53 196.336 241.979 196.336 232.011C196.336 215.446 210.538 207.106 234.002 207.238V206.157C234.002 201.847 232.305 194.716 221.098 194.716C214.838 194.716 208.318 196.738 204.02 199.56L200.887 188.799C205.588 185.83 213.807 183 223.835 183C244.177 183 250.039 196.337 250.039 210.601V234.298ZM234.392 218.01C223.054 217.738 212.238 220.296 212.238 230.26C212.238 236.716 216.278 239.684 221.363 239.684C227.742 239.684 232.442 235.374 233.871 230.663C234.259 229.452 234.392 228.101 234.392 227.027V218.01Z" fill="#003D79"/>
<path fill-rule="evenodd" clip-rule="evenodd" d="M261.125 204.007C261.125 196.463 260.982 190.132 260.602 184.488H274.667L275.453 194.314H275.838C278.579 189.205 285.486 183 296.042 183C307.125 183 318.593 190.404 318.593 211.142V250.049H302.564V213.032C302.564 203.601 299.175 196.463 290.441 196.463C284.054 196.463 279.624 201.177 277.925 206.16C277.413 207.645 277.276 209.668 277.276 211.54V250.049H261.125V204.007Z" fill="#003D79"/>
<path fill-rule="evenodd" clip-rule="evenodd" d="M388.104 158.139V231.595C388.104 238.325 388.361 245.609 388.623 250.046H374.284L373.642 239.681H373.376C369.595 246.955 361.892 251.528 352.648 251.528C337.536 251.528 325.54 238.202 325.54 218.007C325.407 196.06 338.702 182.997 353.95 182.997C362.681 182.997 368.943 186.772 371.805 191.622H372.07V158.139H388.104ZM372.07 211.804C372.07 210.471 371.935 208.848 371.685 207.506C370.248 201.043 365.162 195.789 357.863 195.789C347.566 195.789 341.83 205.219 341.83 217.471C341.83 229.449 347.566 238.202 357.732 238.202C364.246 238.202 369.985 233.626 371.547 226.492C371.935 225.005 372.07 223.391 372.07 221.635V211.804Z" fill="#003D79"/>
<path fill-rule="evenodd" clip-rule="evenodd" d="M399.435 250.045H415.613V184.487H399.435V250.045Z" fill="#003D79"/>
<path fill-rule="evenodd" clip-rule="evenodd" d="M426.94 205.622C426.94 196.741 426.805 190.405 426.415 184.487H440.364L440.875 197.003H441.415C444.538 187.713 451.969 184.487 458.744 184.487C460.305 184.487 461.216 184.211 462.523 184.487V199.031C461.216 198.762 459.786 198.493 457.83 198.493C450.141 198.493 444.923 203.604 443.491 211.004C443.238 212.486 442.975 214.243 442.975 216.137V250.052H426.94V205.622Z" fill="#003D79"/>
<path fill-rule="evenodd" clip-rule="evenodd" d="M469.961 250.045H486.115V184.487H469.961V250.045Z" fill="#003D79"/>
</g>
<path fill-rule="evenodd" clip-rule="evenodd" d="M466.131 105.223C456.427 111.027 433.539 124.586 424.995 129.636C419.787 132.376 407.727 133.572 400.906 124.072C400.784 123.9 391.833 112.348 391.468 111.913C391.211 111.606 385.425 102.741 372.531 102.464C370.627 102.417 361.155 102.365 351.913 107.79C339.63 115.039 311.061 131.909 311.061 131.909L311.039 131.924C299.296 138.864 290.146 144.268 290.146 144.268L300.956 157.982C306.014 164.468 317.418 169.486 327.307 163.622C327.307 163.622 363.851 141.764 363.984 141.701C379.789 132.748 391.983 132.748 400.077 136.079C407.342 139.25 413.662 147.151 413.662 147.151C413.662 147.151 421.922 157.724 423.38 159.574C428.079 165.549 435.859 163.202 435.859 163.202C435.859 163.202 438.741 162.864 443.087 160.2C443.087 160.2 478.482 139 478.505 138.993C489.745 132.182 500.053 130.91 505.321 131.411C521.823 132.96 526.949 144.868 534.104 153.174C538.318 158.061 542.12 160.835 547.934 160.695C551.754 160.611 556.07 158.218 556.706 157.786L599.093 132.52C599.093 132.52 594.744 125.754 585.837 115.227C577.865 105.835 569.398 110.084 562.647 113.538C559.811 114.987 549.534 122.048 539.353 126.974C532.1 130.482 521.679 129.427 515.969 122.138C515.627 121.695 506.388 110.142 505.417 108.72C501.688 103.896 494.413 99.5752 485.088 99.5752C479.419 99.5752 472.986 101.172 466.131 105.223Z" fill="url(#paint0_linear_3116_783)"/>
</g>
<defs>
<linearGradient id="paint0_linear_3116_783" x1="290.146" y1="166.219" x2="599.093" y2="166.219" gradientUnits="userSpaceOnUse">
<stop stop-color="#FFCA06"/>
<stop offset="0.330844" stop-color="#FBAA18"/>
<stop offset="0.694742" stop-color="#FFC907"/>
<stop offset="1" stop-color="#FAA619"/>
</linearGradient>
<clipPath id="clip0_3116_783">
<rect width="504.789" height="159.85" fill="white" transform="translate(95 99)"/>
</clipPath>
</defs>
</svg>
