<svg width="673" height="160" viewBox="0 0 673 160" fill="none" xmlns="http://www.w3.org/2000/svg">
<g clip-path="url(#clip0_3146_690)">
<g clip-path="url(#clip1_3146_690)">
<mask id="mask0_3146_690" style="mask-type:luminance" maskUnits="userSpaceOnUse" x="-1" y="26" width="673" height="109">
<path d="M671.943 26H-0.223633V135H671.943V26Z" fill="white"/>
</mask>
<g mask="url(#mask0_3146_690)">
<path fill-rule="evenodd" clip-rule="evenodd" d="M7.07182 113.619C3.0434 113.619 -0.223633 110.403 -0.223633 106.438V54.1999C-0.223633 50.235 3.0434 47.0195 7.07182 47.0195C11.1002 47.0195 14.3673 50.235 14.3673 54.1999V106.438C14.3673 110.403 11.1002 113.619 7.07182 113.619Z" fill="#89C7E8"/>
<path fill-rule="evenodd" clip-rule="evenodd" d="M94.6121 113.619C90.5835 113.619 87.3164 110.403 87.3164 106.438V54.2407C87.3164 50.2758 90.5835 47.0603 94.6121 47.0603C98.6404 47.0603 101.908 50.2758 101.908 54.2407V106.438C101.908 110.403 98.6404 113.619 94.6121 113.619Z" fill="#0BADDC"/>
<path fill-rule="evenodd" clip-rule="evenodd" d="M50.8422 134.567C46.814 134.567 43.5469 131.351 43.5469 127.386V33.2919C43.5469 29.3271 46.814 26.1116 50.8422 26.1116C54.8709 26.1116 58.1376 29.3271 58.1376 33.2919V127.386C58.1376 131.351 54.8709 134.567 50.8422 134.567Z" fill="#307FC2"/>
<path fill-rule="evenodd" clip-rule="evenodd" d="M621.149 105.357C620.274 104.739 619.395 103.504 619.395 101.896C619.395 99.6748 621.28 97.8218 623.66 97.8218C624.536 97.8218 625.419 98.0671 626.044 98.5667C632.689 103.008 639.592 105.357 646.615 105.357C654.398 105.357 660.044 101.405 660.044 95.2287V94.9835C660.044 88.5616 652.392 86.0909 643.861 83.7474C633.695 80.9043 622.403 77.4479 622.403 65.7213V65.4717C622.403 54.4808 631.69 47.1914 644.486 47.1914C651.39 47.1914 658.918 49.2942 665.185 52.6278C666.446 53.3726 667.573 54.726 667.573 56.579C667.573 58.8044 665.687 60.6574 663.307 60.6574C662.424 60.6574 661.672 60.4077 661.174 60.1624C655.652 57.0741 649.758 55.2211 644.236 55.2211C636.58 55.2211 631.69 59.1723 631.69 64.486V64.7313C631.69 70.7808 639.719 73.129 648.374 75.7177C658.409 78.6833 669.2 82.5121 669.2 93.9978V94.2386C669.2 106.347 659.041 113.382 646.118 113.382C637.587 113.382 628.176 110.293 621.149 105.357Z" fill="#002855"/>
<path fill-rule="evenodd" clip-rule="evenodd" d="M605.464 73.8195C605.464 59.4543 592.664 46.9465 577.233 46.9465C561.624 46.9465 548.966 59.4043 548.966 74.7689V107.673C548.966 110.512 551.197 112.701 554.074 112.701C556.963 112.701 559.059 110.512 559.059 107.673L559.052 92.8945V73.8152C559.052 63.946 567.183 55.9436 577.211 55.9436C587.243 55.9436 595.374 63.946 595.374 73.8152V92.9265V107.673C595.374 110.512 597.598 112.701 600.352 112.701C603.237 112.701 605.464 110.512 605.464 107.673C605.464 107.673 605.559 76.9126 605.464 73.8195Z" fill="#002855"/>
<path fill-rule="evenodd" clip-rule="evenodd" d="M500.27 104.969C491.485 104.969 484.56 101.281 484.56 93.2558V93.0058C484.56 84.9809 491.332 79.7943 503.5 79.7943C511.406 79.7943 522.564 82.2875 522.568 82.5102V82.5236C522.568 94.2277 511.461 104.969 500.27 104.969ZM531.728 73.1271H531.709C530.83 59.4248 518.433 47.7981 503.562 47.7981H499.235C496.71 47.7981 494.664 49.8101 494.664 52.2943C494.664 54.7786 496.71 56.7951 499.235 56.7951H503.54C513.572 56.7951 522.448 64.7977 522.448 74.6666V75.4706C516.675 73.8672 510.778 72.7547 502.501 72.7547C486.064 72.7547 474.771 79.9167 474.771 93.3782V93.6235C474.771 106.717 486.496 113.507 498.541 113.507C509.477 113.507 518.106 107.989 522.568 100.881V108.198C522.568 110.687 524.621 112.703 527.15 112.703C529.678 112.703 531.731 110.687 531.731 108.198L531.728 73.1271Z" fill="#002855"/>
<path fill-rule="evenodd" clip-rule="evenodd" d="M472.945 52.283C472.945 49.7987 470.896 47.7822 468.37 47.7822H465.253H465.246C449.637 47.7822 436.979 60.24 436.979 75.6V107.673C436.979 110.512 439.206 112.701 442.087 112.701C444.975 112.701 447.072 110.512 447.072 107.673L447.065 92.8946V74.6506C447.065 64.7817 455.196 56.7793 465.224 56.7793H465.253V56.7838H468.37C470.896 56.7838 472.945 54.7673 472.945 52.283Z" fill="#002855"/>
<path fill-rule="evenodd" clip-rule="evenodd" d="M420.945 52.054C420.945 49.7332 419.034 47.853 416.676 47.853H399.741V31.0942C399.741 28.46 397.557 26.0393 394.887 26.0212C392.104 25.9985 390.08 28.2284 390.08 30.8353V95.2318C390.08 108.194 397.979 113.257 408.392 113.257C412.16 113.257 415.172 112.64 417.933 111.532C419.561 110.914 420.691 109.556 420.691 107.826C420.691 105.6 418.809 103.752 416.553 103.752C415.8 103.752 414.042 104.615 410.656 104.615C404.13 104.615 399.741 101.772 399.741 93.9965V56.2551H416.676C419.034 56.2551 420.945 54.3748 420.945 52.054Z" fill="#002855"/>
<path fill-rule="evenodd" clip-rule="evenodd" d="M370.113 107.95C370.113 110.666 367.983 112.764 365.346 112.764C362.588 112.764 360.452 110.666 360.452 107.95V101.101C355.182 108.758 347.531 113.504 335.612 113.504C320.057 113.504 304.621 101.405 304.621 80.4135V80.1639C304.621 59.2995 320.057 46.9507 335.612 46.9507C347.656 46.9507 355.436 51.5741 360.452 58.7363V30.8187C360.452 28.1028 362.459 26 365.222 26C367.984 26 370.113 28.1028 370.113 30.8187V107.95ZM314.538 80.0411V80.2911C314.538 95.3556 325.197 104.989 337.37 104.989C349.414 104.989 360.83 94.9832 360.83 80.2911V80.0411C360.83 65.349 349.414 55.4709 337.37 55.4709C324.819 55.4709 314.538 64.6085 314.538 80.0411Z" fill="#002855"/>
<path fill-rule="evenodd" clip-rule="evenodd" d="M278.798 51.7182C278.798 49.1249 280.93 46.9041 283.565 46.9041C286.324 46.9041 288.461 49.0023 288.461 51.7182V107.949C288.461 110.669 286.449 112.763 283.689 112.763C280.93 112.763 278.798 110.669 278.798 107.949V51.7182Z" fill="#002855"/>
<path fill-rule="evenodd" clip-rule="evenodd" d="M231.73 46.9041C222.483 46.9041 214.324 51.4821 209.447 58.449C204.597 51.5138 196.536 46.9495 187.32 46.9495C172.383 46.9495 160.271 58.8713 160.271 73.5729V107.949C160.271 110.664 162.398 112.763 165.162 112.763C167.921 112.763 169.933 110.664 169.933 107.949L169.924 72.6645C169.924 63.2131 177.704 55.5605 187.307 55.5605C196.9 55.5605 204.685 63.2131 204.685 72.6645L204.68 104.011V104.025C204.68 106.65 206.84 108.78 209.511 108.78C212.178 108.78 214.342 106.65 214.342 104.025L214.329 72.6191C214.329 63.1724 222.113 55.5151 231.711 55.5151C241.309 55.5151 249.09 63.1724 249.09 72.6191V107.903C249.09 110.624 251.221 112.717 253.856 112.717C256.616 112.717 258.752 110.624 258.752 107.903L258.78 73.5729C258.78 58.4081 246.048 46.9041 231.73 46.9041Z" fill="#002855"/>
</g>
</g>
</g>
<defs>
<clipPath id="clip0_3146_690">
<rect width="673" height="160" fill="white"/>
</clipPath>
<clipPath id="clip1_3146_690">
<rect width="672.167" height="109" fill="white" transform="translate(-0.223633 26)"/>
</clipPath>
</defs>
</svg>
