<svg width="600" height="400" viewBox="0 0 600 400" fill="none" xmlns="http://www.w3.org/2000/svg">
<g clip-path="url(#clip0_3116_1014)">
<path d="M168.6 137.001C181.451 137.611 193.837 141.994 204.213 149.601C214.588 157.208 222.493 167.703 226.941 179.775C231.388 191.847 232.181 204.961 229.221 217.482C226.261 230.002 219.678 241.373 210.295 250.175C200.912 258.977 189.145 264.82 176.461 266.975C163.778 269.13 150.74 267.501 138.977 262.292C127.213 257.083 117.244 248.525 110.315 237.685C103.386 226.845 99.8029 214.204 100.014 201.341C100.246 192.598 102.209 183.988 105.791 176.01C109.373 168.031 114.501 160.842 120.88 154.859C127.259 148.876 134.761 144.218 142.952 141.153C151.143 138.089 159.861 136.68 168.6 137.007V137.001ZM125.267 202.407C125.103 208.881 126.382 215.31 129.014 221.227C131.925 228.393 136.81 234.586 143.101 239.086C149.392 243.586 156.831 246.208 164.554 246.647C171.874 247.645 179.328 246.594 186.086 243.61C192.845 240.627 198.645 235.828 202.84 229.747C208.324 222.524 211.502 213.814 211.959 204.756C212.416 195.698 210.13 186.713 205.4 178.974C200.513 170.756 193.032 164.397 184.135 160.896C175.238 157.395 165.429 156.951 156.252 159.635C147.075 162.318 139.051 167.977 133.442 175.72C127.832 183.463 124.957 192.851 125.267 202.407ZM500 202.574C499.387 241.734 467.334 269.361 428.667 267.847C389.667 266.321 361.747 236.567 363.067 200.194C364.454 162.354 396.04 135.367 434.907 137.094C452.172 137.305 468.665 144.284 480.838 156.529C493.011 168.774 499.892 185.308 500 202.574ZM430.934 158.021C425.234 157.931 419.579 159.045 414.339 161.288C409.099 163.532 404.39 166.855 400.52 171.041C394.466 177.342 390.378 185.271 388.756 193.858C387.134 202.445 388.049 211.318 391.387 219.394C394.016 226.265 398.364 232.346 404.015 237.056C409.666 241.766 416.431 244.946 423.663 246.294C430.895 247.641 438.352 247.11 445.32 244.751C452.288 242.392 458.534 238.284 463.46 232.821C468.805 226.945 472.481 219.745 474.106 211.97C475.73 204.194 475.245 196.125 472.7 188.601C470.129 179.585 464.627 171.684 457.063 166.146C449.499 160.608 440.305 157.749 430.934 158.021ZM365.327 140.807C365.891 146.824 365.025 152.889 362.8 158.507C346.407 194.221 330.354 230.081 314.254 265.914C314.054 266.573 313.628 267.139 313.051 267.514C312.474 267.889 311.783 268.047 311.1 267.961C306.089 268.374 301.078 267.174 296.798 264.535C292.518 261.896 289.195 257.957 287.314 253.294C273.78 223.581 260.054 193.961 246.514 164.234C246.222 163.247 245.575 162.402 244.697 161.865C243.818 161.328 242.772 161.137 241.76 161.327C238.587 161.554 235.38 161.381 232 161.381V140.881H286.094V161.334H272.76L304.707 232.887L335.514 161.474H322.18V140.807H365.327Z" fill="#4D3695"/>
</g>
<defs>
<clipPath id="clip0_3116_1014">
<rect width="400" height="266.667" fill="white" transform="translate(100 67)"/>
</clipPath>
</defs>
</svg>
