<svg width="523" height="160" viewBox="0 0 523 160" fill="none" xmlns="http://www.w3.org/2000/svg">
<g clip-path="url(#clip0_3146_676)">
<path fill-rule="evenodd" clip-rule="evenodd" d="M231.864 51.386L216.12 74.2521L200.282 51.386H187.724L209.653 82.1242L186.6 114.362H199.157L216.12 90.09L232.895 114.362H245.453L222.398 82.1242L244.328 51.386H231.864Z" fill="#446CB3"/>
<path fill-rule="evenodd" clip-rule="evenodd" d="M279.47 59.6331C284.062 59.6331 287.623 61.1325 290.06 64.0377C292.403 66.8492 293.715 70.9725 293.809 76.2203H263.351C263.913 71.1601 265.6 67.1301 268.224 64.2249C271.036 61.1325 274.784 59.6331 279.47 59.6331ZM279.564 50.2615C271.13 50.2615 264.288 53.2605 259.321 59.258C254.354 65.1621 251.824 73.3155 251.824 83.3427C251.824 93.3702 254.542 101.242 259.883 106.865C265.225 112.488 272.722 115.393 282 115.393C286.217 115.393 289.779 115.112 292.777 114.456C295.776 113.8 298.963 112.769 302.243 111.364L302.711 111.176V101.149L301.587 101.617C295.214 104.335 288.748 105.741 282.282 105.741C276.284 105.741 271.504 103.96 268.224 100.399C265.038 96.9314 263.257 91.8707 262.976 85.311H305.335V78.6571C305.335 70.2228 302.993 63.288 298.4 58.1336C293.809 52.8854 287.436 50.2615 279.564 50.2615Z" fill="#446CB3"/>
<path fill-rule="evenodd" clip-rule="evenodd" d="M349.475 50.2615C345.164 50.2615 341.134 51.105 337.667 52.7916C334.574 54.2911 331.95 56.3528 330.076 58.9771L328.67 51.2925H319.674V114.269H330.544V81.281C330.544 73.5027 331.95 67.8798 334.855 64.5999C337.667 61.3197 342.259 59.6331 348.35 59.6331C352.943 59.6331 356.316 60.7575 358.472 63.1005C360.627 65.4435 361.658 69.0046 361.658 73.784V114.269H372.529V73.4089C372.529 65.3497 370.561 59.4455 366.718 55.6968C362.876 52.1356 357.066 50.2615 349.475 50.2615Z" fill="#446CB3"/>
<path fill-rule="evenodd" clip-rule="evenodd" d="M414.137 106.021C408.795 106.021 404.859 104.147 402.142 100.399C399.424 96.5565 398.018 90.7461 398.018 83.1553C398.018 75.6578 399.424 69.7541 402.235 65.6303C404.953 61.6007 408.889 59.6328 414.137 59.6328C420.228 59.6328 424.633 61.4131 427.351 64.881C430.162 68.4417 431.568 74.5334 431.568 82.9677V84.9356C431.568 92.4331 430.162 97.8684 427.444 101.148C424.633 104.429 420.228 106.021 414.137 106.021ZM431.381 51.386L431.568 55.6965L431.849 58.5084C427.351 52.9789 420.978 50.1674 412.919 50.1674C404.672 50.1674 398.205 53.0726 393.614 58.883C389.021 64.5997 386.679 72.6593 386.679 82.9677C386.679 93.1828 389.021 101.242 393.52 106.865C398.112 112.488 404.672 115.393 412.919 115.393C421.259 115.393 427.726 112.488 432.13 106.678L433.253 114.269H442.345V25.6143H431.474L431.381 51.386Z" fill="#446CB3"/>
<path fill-rule="evenodd" clip-rule="evenodd" d="M465.964 28.519C464.184 28.519 462.685 29.0813 461.466 30.2059C460.247 31.3305 459.686 33.1111 459.686 35.4539C459.686 37.7968 460.247 39.4837 461.466 40.702C462.685 41.9203 464.184 42.4826 465.964 42.4826C467.65 42.4826 469.149 41.9203 470.368 40.702C471.586 39.4837 472.243 37.7968 472.243 35.4539C472.243 33.1111 471.586 31.4242 470.368 30.2059C469.149 29.0813 467.65 28.519 465.964 28.519Z" fill="#446CB3"/>
<path fill-rule="evenodd" clip-rule="evenodd" d="M460.437 114.362H471.4V51.386H460.437V114.362Z" fill="#446CB3"/>
<path fill-rule="evenodd" clip-rule="evenodd" d="M518.349 105.085C517.507 105.366 516.288 105.553 514.788 105.834C513.289 106.022 511.789 106.209 510.1 106.209C507.291 106.209 505.04 105.366 503.449 103.491C501.855 101.711 501.012 98.9929 501.012 95.5255V60.1951H518.816V51.3862H501.012V37.1414H494.262L490.235 50.4489L481.333 54.3847V60.1951H490.14V95.9006C490.14 108.833 496.419 115.487 508.79 115.487C510.385 115.487 512.165 115.299 514.227 115.018C516.288 114.643 517.787 114.269 518.911 113.706L519.378 113.519V104.803L518.349 105.085Z" fill="#446CB3"/>
<path d="M88.3989 3.49731H46.6021L3.49316 78.188L46.6021 152.879L55.1302 138.166L20.5493 78.188L55.1302 18.3043H79.8708L88.3989 3.49731Z" fill="#446CB3"/>
<path d="M58.9756 54.197L67.4099 39.5775L55.1335 18.3042L46.6055 32.9237L58.9756 54.197Z" fill="#D24D57"/>
<path d="M107.333 18.3042L115.861 33.0175L55.1335 138.166L46.6055 123.452L107.333 18.3042Z" fill="#D24D57"/>
<path d="M74.1543 152.879L82.5886 138.166H107.33L141.91 78.188L107.33 18.3043L115.857 3.49731L158.966 78.188L115.857 152.879H74.1543Z" fill="#446CB3"/>
<path d="M103.3 101.898L94.7725 116.612L107.33 138.166L115.858 123.546L103.3 101.898Z" fill="#D24D57"/>
</g>
<defs>
<clipPath id="clip0_3146_676">
<rect width="522.876" height="160" fill="white"/>
</clipPath>
</defs>
</svg>
