<svg width="600" height="400" viewBox="0 0 600 400" fill="none" xmlns="http://www.w3.org/2000/svg">
<g clip-path="url(#clip0_3116_801)">
<path d="M460 40H140V360H460V40Z" fill="white"/>
<path d="M140 40V360H460V309.44H415.84L399.52 290.349L382.56 309.44H257.12V207.789H215.731L267.469 90.6688H317.811L329.971 117.229V90.6688H392.48L402.931 118.509L413.171 90.6688H460V40H140ZM423.84 107.2L407.411 150.509L403.04 162.246L398.56 150.509L382.029 107.2H345.869V192.538H367.629V136.966L367.52 125.76L371.789 136.966L392.589 192.538H413.28L434.189 136.966L438.24 125.869V192.538H460V107.2H423.84ZM279.2 107.2L241.44 192.538H266.182L272.8 176.109H314.189L320.8 192.538H345.869L308.32 107.2H279.2ZM289.222 136.109L293.491 125.446L297.76 136.109L306.611 157.651H280.371L289.222 136.109ZM425.549 207.898L399.84 235.52L374.24 207.898H345.869H274.611V292.909H345.869V274.458H296.371V259.629H344.909V241.286H296.371V226.349H345.869V207.898L385.651 250.56L345.869 292.909H373.389L399.309 265.178L425.12 292.909H453.382L413.491 250.24L453.382 207.898H425.549ZM435.891 250.138L460 274.669V225.92L435.891 250.138Z" fill="#006FCF"/>
</g>
<defs>
<clipPath id="clip0_3116_801">
<rect width="320" height="320" fill="white" transform="translate(140 40)"/>
</clipPath>
</defs>
</svg>
