<svg width="600" height="400" viewBox="0 0 600 400" fill="none" xmlns="http://www.w3.org/2000/svg">
<path d="M50 177.54L91.9727 230.494L50 265.276V177.54ZM66.8909 265.276L98.4727 238.858L120.291 265.276H66.8909ZM50 149.204L60.9545 163.058L105.991 219.34L120.582 207.713C112.834 198.357 106.049 188.246 100.327 177.531C84.4182 146.413 95.6818 127.031 95.6818 127.031H50V149.204ZM112.409 228.022L127.273 215.749C135.178 226.116 145.783 234.107 157.927 238.849C163.34 240.866 169.246 241.145 174.824 239.645C180.402 238.146 185.374 234.944 189.045 230.485V265.267H141.645L152.327 256.031C152.327 256.031 146.755 259.749 133.118 250.304C125.426 243.651 118.482 236.18 112.409 228.022ZM113.782 126.94C110.395 133.887 109.905 141.895 112.418 149.204C115.964 161.776 122.055 173.476 130.336 183.576C131.011 173.212 134.987 163.335 141.682 155.394C147.631 149.107 155.411 144.855 163.915 143.241C172.419 141.627 181.215 142.734 189.055 146.404V127.031L113.782 126.94Z" fill="#F15A23"/>
<path d="M189.055 169.821C181.638 163.378 172.524 159.203 162.801 157.794C156.548 157.794 150.539 160.218 146.037 164.557C141.534 168.895 138.888 174.809 138.655 181.058C138.695 186.6 139.941 192.068 142.307 197.081C144.673 202.093 148.102 206.531 152.355 210.085C162.219 219.948 174.219 230.585 189.046 222.021L189.055 169.821Z" fill="#F15A23"/>
<path d="M348.992 128.385H382.128C382.128 128.385 411.483 172.84 425.91 191.203C440.337 209.567 455.91 230.485 455.91 230.485V138.34C455.91 134.358 445.465 128.34 445.465 128.34H483.646C483.646 128.34 471.11 133.494 471.11 138.34V272.385C461.396 266.307 452.727 258.7 445.437 249.858C430.11 232.04 375.574 160.131 375.574 160.131V253.276C375.574 258.049 386.019 265.267 386.019 265.267H349.001C349.001 265.267 359.155 257.994 359.155 253.276V138.34C359.146 134.113 348.992 128.385 348.992 128.385ZM505.037 128.385H547.574C547.574 128.385 536.155 133.84 536.155 138.385V253.331C536.155 258.294 547.574 265.322 547.574 265.322H505.037C505.037 265.322 515.674 258.14 515.674 253.331V138.34C515.674 133.967 505.037 128.385 505.037 128.385ZM223.855 128.385C223.855 128.385 234.883 133.84 234.883 138.385V253.331C234.883 258.222 223.855 265.322 223.855 265.322H286.865C290.801 265.322 334.91 258.113 334.91 224.103C334.91 190.094 300.646 186.913 300.646 186.913C306.805 184.971 312.17 181.088 315.938 175.844C319.707 170.6 321.678 164.278 321.555 157.822C321.555 132.74 290.837 128.413 286.901 128.413L223.855 128.385ZM257.328 184.613V141.813H282.928C288.096 142.458 292.818 145.067 296.116 149.098C299.415 153.129 301.037 158.273 300.646 163.467C300.465 168.459 298.624 173.248 295.415 177.076C292.206 180.904 287.812 183.553 282.928 184.603L257.328 184.613ZM257.328 195.84H286.865C290.801 195.84 314.037 201.876 314.037 222.04C314.037 242.594 290.801 249.876 286.865 249.876H257.328V195.84Z" fill="#005E6A"/>
</svg>
