<svg width="600" height="400" viewBox="0 0 600 400" fill="none" xmlns="http://www.w3.org/2000/svg">
<path d="M226.041 141.967H225.867C225.924 141.979 225.984 141.979 226.041 141.967Z" fill="#168F8C"/>
<path d="M227.191 140.335V244.758H251.719V166.486C251.719 160.644 248.602 142.99 227.191 140.335Z" fill="#0CA49D"/>
<path d="M96.7481 226.589C99.3476 226.681 101.941 226.276 104.389 225.395C106.152 224.738 107.743 223.689 109.042 222.328C110.134 221.095 110.925 219.624 111.351 218.032C111.768 216.46 111.981 214.84 111.987 213.213C112.006 211.504 111.76 209.803 111.257 208.17C110.779 206.709 109.912 205.405 108.75 204.399C107.367 203.27 105.756 202.455 104.028 202.01C101.612 201.39 99.122 201.101 96.6278 201.151H80.1272V226.52L96.7481 226.589ZM80.1272 160.259V185.413H92.4212C94.7849 185.427 97.1459 185.24 99.4781 184.854C101.37 184.557 103.187 183.895 104.826 182.904C106.292 181.968 107.46 180.633 108.192 179.055C109.021 177.111 109.41 175.008 109.334 172.896C109.407 170.856 109.116 168.82 108.475 166.882C107.924 165.354 106.954 164.011 105.676 163.008C104.256 161.961 102.619 161.247 100.886 160.92C98.6255 160.467 96.3233 160.254 94.0181 160.284H80.1272V160.259ZM93.9749 142.578C100.02 142.467 106.054 143.123 111.935 144.528C116.29 145.558 120.4 147.435 124.031 150.053C127.036 152.281 129.39 155.274 130.848 158.721C132.305 162.342 133.032 166.217 132.985 170.121C133.003 172.355 132.685 174.579 132.041 176.719C131.358 178.861 130.309 180.87 128.942 182.655C127.431 184.617 125.617 186.325 123.568 187.715C121.14 189.386 118.505 190.731 115.73 191.718C122.443 193.351 127.405 195.98 130.616 199.605C133.836 203.239 135.441 207.964 135.441 213.737C135.467 217.904 134.601 222.029 132.9 225.833C131.199 229.593 128.676 232.923 125.517 235.575C121.979 238.516 117.894 240.726 113.497 242.078C108.218 243.715 102.712 244.504 97.1858 244.415H56.5957V142.578H93.9749Z" fill="#0CA49D"/>
<path d="M206.328 163.247C205.766 164.211 205.029 165.062 204.156 165.756C203.285 166.358 202.242 166.659 201.185 166.615C199.973 166.567 198.793 166.215 197.751 165.593C196.507 164.905 195.124 164.158 193.562 163.325C191.848 162.416 190.059 161.66 188.213 161.065C185.997 160.343 183.676 159.995 181.345 160.034C176.915 160.034 173.619 160.988 171.464 162.861C170.385 163.811 169.533 164.991 168.969 166.314C168.406 167.637 168.147 169.07 168.21 170.507C168.179 171.451 168.334 172.393 168.667 173.277C169 174.162 169.504 174.972 170.15 175.661C171.641 177.132 173.386 178.319 175.301 179.166C177.658 180.204 180.082 181.082 182.556 181.795C185.277 182.654 188.059 183.513 190.9 184.527C193.755 185.523 196.542 186.702 199.245 188.058C201.93 189.378 204.387 191.118 206.525 193.212C208.714 195.409 210.462 198.004 211.676 200.858C213.06 204.312 213.714 208.015 213.599 211.734C213.637 216.248 212.81 220.728 211.161 224.93C209.574 228.968 207.154 232.627 204.061 235.669C200.781 238.84 196.878 241.294 192.6 242.876C187.656 244.703 182.417 245.597 177.147 245.514C173.888 245.503 170.638 245.166 167.446 244.509C164.195 243.862 161.005 242.942 157.908 241.76C154.893 240.61 151.984 239.201 149.211 237.55C146.65 236.02 144.281 234.188 142.154 232.095L149.211 221.064C149.788 220.247 150.535 219.564 151.401 219.062C152.3 218.531 153.327 218.255 154.371 218.264C155.88 218.297 157.349 218.762 158.603 219.604C160.02 220.463 161.625 221.477 163.42 222.55C165.395 223.701 167.463 224.687 169.601 225.497C172.249 226.431 175.044 226.882 177.851 226.829C182.138 226.829 185.472 225.889 187.853 224.011C190.239 222.112 191.407 219.14 191.407 215.025C191.5 212.917 190.805 210.849 189.458 209.226C188.019 207.644 186.264 206.383 184.307 205.523C181.973 204.465 179.555 203.603 177.079 202.946C174.383 202.19 171.61 201.362 168.759 200.463C165.905 199.556 163.124 198.434 160.441 197.104C157.751 195.781 155.306 194.009 153.212 191.864C150.971 189.531 149.22 186.774 148.061 183.754C146.654 179.923 145.992 175.858 146.112 171.778C146.129 167.856 146.945 163.978 148.511 160.383C150.078 156.787 152.361 153.55 155.221 150.868C158.4 147.901 162.127 145.584 166.192 144.047C170.951 142.257 176.005 141.383 181.088 141.469C184.144 141.467 187.196 141.712 190.213 142.199C193.081 142.667 195.9 143.394 198.636 144.373C201.217 145.288 203.708 146.438 206.079 147.809C208.3 149.079 210.372 150.592 212.26 152.32L206.379 163.325L206.328 163.247Z" fill="#0CA49D"/>
<path d="M254.41 102.759C254.41 101.9 254.264 101.041 254.144 100.225C256.954 103.132 260.362 105.393 264.131 106.853C267.9 108.313 271.942 108.935 275.975 108.678C279.901 108.419 283.73 107.339 287.213 105.508C284.186 110.807 282.977 116.952 283.772 123.003C284.568 129.055 287.324 134.678 291.617 139.013C285.769 137.846 279.701 138.578 274.296 141.101C268.892 143.624 264.434 147.807 261.57 153.042C260.714 147.238 258.056 141.85 253.972 137.641C249.887 133.432 244.583 130.615 238.811 129.589C243.778 127.162 247.914 123.314 250.696 118.534C253.477 113.753 254.779 108.255 254.435 102.734L254.41 102.759Z" fill="#F9AD3C"/>
<path d="M296.511 203.092C297.49 203.119 298.468 202.985 299.404 202.697C300.137 202.483 300.818 202.121 301.404 201.631C301.936 201.171 302.339 200.578 302.572 199.913C302.818 199.227 302.94 198.503 302.932 197.774C302.964 197.097 302.836 196.421 302.557 195.803C302.278 195.185 301.856 194.641 301.327 194.218C300.262 193.341 298.657 192.903 296.511 192.903H290.209V203.058L296.511 203.092ZM290.209 180.172V190.111H295.42C296.398 190.13 297.373 190.006 298.314 189.742C299.056 189.542 299.752 189.195 300.357 188.719C300.881 188.312 301.292 187.777 301.55 187.165C301.816 186.516 301.948 185.821 301.936 185.12C301.999 184.412 301.891 183.7 301.621 183.044C301.35 182.387 300.925 181.806 300.382 181.348C299.361 180.541 297.756 180.154 295.584 180.154H290.209V180.172ZM295.584 177.061C297.143 177.03 298.699 177.209 300.211 177.594C301.366 177.872 302.45 178.387 303.396 179.106C304.219 179.727 304.859 180.558 305.25 181.512C305.652 182.52 305.85 183.597 305.834 184.682C305.835 185.386 305.719 186.086 305.491 186.752C305.267 187.412 304.93 188.029 304.495 188.573C304.015 189.181 303.434 189.701 302.778 190.111C302.029 190.584 301.221 190.954 300.374 191.211C302.177 191.456 303.859 192.255 305.19 193.496C305.743 194.079 306.172 194.767 306.453 195.52C306.733 196.273 306.859 197.075 306.821 197.877C306.843 199.041 306.611 200.196 306.143 201.262C305.695 202.285 305.009 203.186 304.143 203.891C303.192 204.663 302.102 205.246 300.932 205.609C299.518 206.018 298.051 206.215 296.579 206.193H286.277V177.036H295.584V177.061Z" fill="#0CA49D"/>
<path d="M327.643 195.395L323.067 183.514C322.921 183.17 322.792 182.758 322.629 182.294C322.466 181.83 322.337 181.323 322.191 180.782C321.958 181.717 321.671 182.638 321.333 183.54L316.757 195.37H327.66L327.643 195.395ZM335.842 206.211H332.794C332.485 206.222 332.182 206.125 331.936 205.936C331.708 205.765 331.54 205.528 331.456 205.258L328.724 198.222H315.667L312.936 205.258C312.847 205.515 312.69 205.744 312.482 205.919C312.24 206.117 311.935 206.22 311.623 206.211H308.584L320.242 177.062H324.234L335.884 206.211H335.842Z" fill="#0CA49D"/>
<path d="M363.263 177.087V206.228H361.262C360.986 206.24 360.707 206.184 360.455 206.065C360.215 205.922 360.005 205.729 359.846 205.498L343.046 183.513C343.046 183.848 343.097 184.192 343.115 184.51C343.13 184.828 343.115 185.146 343.115 185.438V206.202H339.68V177.087H341.723C341.87 177.072 342.017 177.072 342.161 177.087C342.272 177.107 342.377 177.142 342.479 177.191C342.587 177.237 342.686 177.301 342.77 177.38C342.866 177.457 342.959 177.577 343.088 177.697L359.924 199.639C359.924 199.269 359.873 198.96 359.855 198.616C359.837 198.273 359.855 197.955 359.855 197.663V177.044H363.29L363.263 177.087Z" fill="#0CA49D"/>
<path d="M374.656 189.845H376.141C376.561 189.855 376.981 189.788 377.377 189.647C377.713 189.494 378.007 189.261 378.235 188.969L387.919 177.981C388.138 177.667 388.432 177.415 388.777 177.251C389.125 177.104 389.5 177.04 389.875 177.062H393.208L382.108 189.596C381.871 189.894 381.604 190.165 381.31 190.403C381.058 190.603 380.788 190.775 380.503 190.919C380.869 191.031 381.211 191.221 381.496 191.477C381.826 191.742 382.114 192.052 382.357 192.396L393.946 206.211H390.511C390.286 206.209 390.058 206.192 389.833 206.159C389.671 206.122 389.518 206.064 389.371 205.987C389.233 205.92 389.107 205.83 389.002 205.721C388.891 205.608 388.792 205.484 388.708 205.352L378.691 193.823C378.472 193.514 378.178 193.27 377.833 193.118C377.383 192.946 376.903 192.87 376.423 192.895H374.647V206.245H370.705V177.062H374.62V189.845H374.656Z" fill="#0CA49D"/>
<path d="M422.94 181.641C422.829 181.817 422.685 181.971 422.517 182.096C422.37 182.196 422.193 182.248 422.013 182.242C421.716 182.213 421.434 182.097 421.206 181.907C420.828 181.635 420.438 181.383 420.036 181.151C419.505 180.837 418.944 180.575 418.362 180.369C416.826 179.893 415.179 179.893 413.64 180.369C413.013 180.573 412.431 180.896 411.924 181.323C411.489 181.727 411.144 182.215 410.904 182.757C410.676 183.323 410.562 183.927 410.568 184.536C410.541 185.262 410.745 185.978 411.153 186.58C411.585 187.133 412.122 187.596 412.731 187.946C413.445 188.351 414.195 188.685 414.972 188.943C415.83 189.209 416.688 189.501 417.549 189.802C418.425 190.094 419.286 190.435 420.123 190.824C420.939 191.171 421.698 191.647 422.364 192.233C423.03 192.813 423.57 193.528 423.942 194.329C424.377 195.286 424.584 196.329 424.554 197.379C424.56 198.61 424.335 199.831 423.891 200.979C423.468 202.072 422.814 203.06 421.968 203.874C421.101 204.738 420.054 205.403 418.905 205.824C417.579 206.311 416.178 206.55 414.765 206.529C413.064 206.563 411.375 206.244 409.803 205.59C408.234 204.936 406.815 203.963 405.639 202.731L406.791 200.859C406.896 200.712 407.025 200.587 407.178 200.489C407.337 200.39 407.52 200.334 407.709 200.326C407.922 200.338 408.123 200.412 408.294 200.541C408.516 200.687 408.783 200.859 409.074 201.073C409.365 201.288 409.683 201.537 410.043 201.786C410.439 202.057 410.853 202.293 411.288 202.491C411.81 202.719 412.347 202.905 412.896 203.049C413.556 203.195 414.234 203.261 414.912 203.247C415.764 203.262 416.613 203.128 417.42 202.851C418.098 202.617 418.728 202.256 419.274 201.786C419.784 201.306 420.183 200.719 420.441 200.068C420.717 199.38 420.855 198.645 420.852 197.903C420.888 197.132 420.675 196.37 420.243 195.73C419.832 195.154 419.304 194.673 418.689 194.321C417.984 193.912 417.231 193.592 416.448 193.367L413.874 192.568C413.016 192.276 412.155 191.958 411.297 191.598C410.484 191.242 409.728 190.764 409.056 190.18C408.39 189.571 407.853 188.835 407.478 188.015C406.698 186 406.698 183.767 407.478 181.752C407.871 180.786 408.453 179.91 409.194 179.175C410.007 178.398 410.964 177.785 412.011 177.371C413.247 176.905 414.561 176.675 415.881 176.692C417.393 176.674 418.896 176.937 420.312 177.465C421.668 177.976 422.904 178.767 423.936 179.785L422.982 181.658L422.94 181.641Z" fill="#0CA49D"/>
<path d="M440.458 194.614V206.229H436.51V194.614L425.83 177.088H429.265C429.574 177.068 429.88 177.163 430.123 177.355C430.336 177.539 430.516 177.76 430.654 178.008L437.326 189.33C437.566 189.82 437.788 190.258 438.004 190.671C438.205 191.076 438.385 191.492 438.544 191.916C438.691 191.492 438.859 191.077 439.051 190.671C439.249 190.258 439.438 189.811 439.687 189.33L446.332 178.008C446.464 177.772 446.635 177.56 446.839 177.38C446.956 177.278 447.091 177.199 447.238 177.149C447.385 177.099 447.541 177.078 447.697 177.088H451.174L440.458 194.614Z" fill="#0CA49D"/>
<path d="M467.492 195.395L462.917 183.514C462.77 183.17 462.65 182.758 462.479 182.294C462.305 181.83 462.185 181.323 462.041 180.782C461.807 181.717 461.519 182.638 461.183 183.54L456.554 195.395H467.456H467.492ZM475.691 206.211H472.652C472.343 206.222 472.037 206.125 471.794 205.936C471.566 205.765 471.398 205.528 471.311 205.258L468.572 198.222H455.516L452.795 205.258C452.699 205.514 452.54 205.742 452.33 205.919C452.09 206.117 451.784 206.221 451.472 206.211H448.424L460.082 177.062H464.075L475.733 206.211H475.691Z" fill="#0CA49D"/>
<path d="M487.616 191.185C488.633 191.198 489.65 191.059 490.628 190.773C491.426 190.522 492.167 190.123 492.818 189.596C493.403 189.118 493.862 188.505 494.156 187.809C494.456 187.067 494.606 186.273 494.594 185.472C494.645 184.728 494.513 183.983 494.216 183.299C493.916 182.616 493.457 182.015 492.878 181.546C491.732 180.67 490.016 180.232 487.727 180.232H483.434V191.245H487.571L487.616 191.185ZM501.068 206.211H497.564C497.249 206.227 496.934 206.156 496.655 206.005C496.376 205.853 496.145 205.627 495.986 205.351L488.414 194.931C488.231 194.641 487.973 194.407 487.667 194.252C487.283 194.08 486.866 194.003 486.446 194.029H483.452V206.185H479.537V177.062H487.76C489.368 177.034 490.97 177.222 492.527 177.62C493.73 177.911 494.861 178.456 495.839 179.218C496.691 179.898 497.354 180.786 497.762 181.795C498.191 182.854 498.404 183.987 498.389 185.128C498.395 186.114 498.233 187.093 497.909 188.024C497.591 188.91 497.111 189.729 496.493 190.438C495.854 191.171 495.089 191.782 494.234 192.242C493.289 192.77 492.269 193.155 491.213 193.384C491.732 193.69 492.173 194.113 492.5 194.622L500.999 206.194L501.068 206.211Z" fill="#0CA49D"/>
<path d="M508.977 206.227H505.008V177.087H508.977V206.227Z" fill="#0CA49D"/>
<path d="M531.877 195.395L527.303 183.514C527.156 183.17 527.035 182.758 526.864 182.294C526.693 181.83 526.573 181.323 526.426 180.782C526.192 181.717 525.907 182.638 525.568 183.54L520.942 195.395H531.844H531.877ZM540.076 206.211H537.037C536.728 206.221 536.426 206.124 536.18 205.936C535.949 205.768 535.777 205.531 535.69 205.258L532.961 198.222H519.901L517.18 205.258C517.087 205.516 516.929 205.744 516.719 205.919C516.476 206.118 516.172 206.222 515.86 206.211H512.812L524.471 177.062H528.461L540.121 206.211H540.076Z" fill="#0CA49D"/>
<path d="M567.527 177.087V206.227H563.588V192.963H547.868V206.227H543.926V177.087H547.868V190.085H563.588V177.087H567.527Z" fill="#0CA49D"/>
<path d="M290.209 244.656H286.26V215.507H290.209V244.656Z" fill="#0CA49D"/>
<path d="M321.263 215.507V244.656H319.288C319.012 244.671 318.738 244.614 318.49 244.493C318.246 244.353 318.037 244.159 317.88 243.926L301.036 221.967C301.036 222.302 301.088 222.646 301.114 222.964C301.139 223.282 301.114 223.599 301.114 223.892V244.656H297.68V215.507H299.723C299.87 215.508 300.017 215.525 300.161 215.558C300.27 215.577 300.377 215.609 300.478 215.653C300.586 215.702 300.685 215.768 300.77 215.85C300.882 215.95 300.989 216.056 301.088 216.168L317.932 238.109L317.854 237.087C317.854 236.744 317.854 236.426 317.854 236.134V215.516H321.288L321.263 215.507Z" fill="#0CA49D"/>
<path d="M353.972 230.093C353.999 232.132 353.645 234.157 352.925 236.064C352.271 237.78 351.278 239.347 350.006 240.669C348.704 241.959 347.153 242.967 345.446 243.633C343.574 244.347 341.585 244.702 339.584 244.681H328.705V215.532H339.584C341.585 215.504 343.577 215.859 345.446 216.58C347.162 217.233 348.719 218.248 350.009 219.555C351.299 220.863 352.292 222.432 352.925 224.157C353.633 226.064 353.987 228.084 353.972 230.119V230.093ZM349.928 230.093C349.955 228.466 349.709 226.845 349.199 225.3C348.764 223.975 348.059 222.755 347.129 221.717C346.223 220.734 345.107 219.968 343.868 219.475C342.5 218.943 341.042 218.681 339.575 218.702H332.672V241.468H339.608C341.078 241.492 342.536 241.227 343.901 240.686C345.137 240.195 346.25 239.438 347.162 238.47C348.095 237.436 348.8 236.218 349.232 234.896C349.73 233.345 349.964 231.722 349.928 230.093Z" fill="#0CA49D"/>
<path d="M386.554 230.094C386.581 232.146 386.227 234.185 385.507 236.107C384.868 237.861 383.875 239.464 382.588 240.815C381.304 242.147 379.753 243.192 378.037 243.882C376.174 244.621 374.179 244.984 372.175 244.948C370.168 244.969 368.179 244.608 366.31 243.882C364.606 243.183 363.061 242.139 361.777 240.815C360.493 239.462 359.5 237.86 358.858 236.107C358.153 234.181 357.799 232.145 357.811 230.094C357.778 228.041 358.135 226.001 358.858 224.08C359.497 222.322 360.49 220.714 361.777 219.355C363.052 218.016 364.597 216.962 366.31 216.262C370.084 214.808 374.263 214.808 378.037 216.262C379.759 216.953 381.31 218.008 382.588 219.355C383.878 220.711 384.871 222.32 385.507 224.08C386.215 226.006 386.569 228.043 386.554 230.094ZM382.51 230.094C382.534 228.458 382.288 226.829 381.781 225.274C381.352 223.942 380.647 222.716 379.711 221.675C378.817 220.669 377.704 219.884 376.459 219.381C373.72 218.316 370.681 218.316 367.942 219.381C366.697 219.891 365.581 220.675 364.678 221.675C363.742 222.714 363.037 223.941 362.611 225.274C362.101 226.829 361.855 228.458 361.882 230.094C361.858 231.732 362.104 233.363 362.611 234.922C363.058 236.242 363.766 237.458 364.696 238.496C365.611 239.475 366.724 240.248 367.96 240.764C370.705 241.795 373.729 241.795 376.474 240.764C377.707 240.247 378.817 239.474 379.729 238.496C380.659 237.451 381.364 236.226 381.799 234.896C382.3 233.346 382.54 231.723 382.51 230.094Z" fill="#0CA49D"/>
<path d="M415.8 215.507V244.656H413.832C413.556 244.668 413.277 244.612 413.025 244.493C412.782 244.353 412.575 244.159 412.416 243.926L395.598 221.967C395.598 222.302 395.598 222.646 395.667 222.964C395.736 223.282 395.667 223.599 395.667 223.892V244.656H392.232V215.507H394.284C394.431 215.509 394.578 215.527 394.722 215.558C394.83 215.578 394.932 215.61 395.031 215.653C395.139 215.702 395.238 215.768 395.325 215.85C395.436 215.95 395.541 216.056 395.64 216.168L412.485 238.109L412.407 237.087C412.407 236.744 412.407 236.426 412.407 236.134V215.516H415.842L415.8 215.507Z" fill="#0CA49D"/>
<path d="M441.204 241.443L441.18 244.656H423.246V215.507H441.18V218.729H427.185V228.393H438.525V231.486H427.185V241.443H441.204Z" fill="#0CA49D"/>
<path d="M461.606 220.059C461.501 220.242 461.363 220.4 461.192 220.524C461.042 220.626 460.859 220.677 460.679 220.669C460.385 220.639 460.106 220.523 459.878 220.335C459.563 220.111 459.167 219.845 458.702 219.579C458.174 219.259 457.613 218.997 457.028 218.797C456.257 218.556 455.45 218.44 454.643 218.453C453.848 218.442 453.059 218.567 452.306 218.823C451.679 219.023 451.097 219.344 450.59 219.768C450.158 220.176 449.81 220.667 449.57 221.211C449.345 221.777 449.231 222.38 449.234 222.989C449.207 223.715 449.411 224.431 449.819 225.034C450.251 225.585 450.788 226.047 451.397 226.391C452.108 226.802 452.858 227.139 453.638 227.396C454.496 227.662 455.354 227.955 456.212 228.255C457.091 228.546 457.952 228.887 458.789 229.278C459.608 229.621 460.364 230.097 461.03 230.686C461.696 231.267 462.236 231.981 462.608 232.783C463.04 233.737 463.25 234.777 463.22 235.824C463.226 237.057 463.001 238.281 462.557 239.432C462.137 240.527 461.48 241.515 460.634 242.327C459.767 243.191 458.72 243.856 457.571 244.277C456.245 244.764 454.844 245.003 453.431 244.982C451.73 245.017 450.041 244.697 448.469 244.044C446.9 243.39 445.481 242.416 444.305 241.185L445.457 239.312C445.562 239.166 445.691 239.04 445.844 238.942C446.003 238.841 446.186 238.782 446.375 238.77C446.588 238.786 446.789 238.864 446.96 238.994C447.227 239.158 447.488 239.336 447.74 239.526C448.031 239.75 448.349 239.991 448.709 240.24C449.105 240.51 449.519 240.746 449.954 240.944C450.476 241.172 451.01 241.359 451.559 241.503C452.222 241.648 452.9 241.714 453.578 241.7C454.43 241.715 455.279 241.581 456.086 241.305C456.764 241.062 457.391 240.691 457.931 240.214C458.435 239.729 458.831 239.143 459.098 238.496C459.374 237.807 459.512 237.072 459.509 236.331C459.545 235.56 459.332 234.798 458.9 234.157C458.492 233.579 457.961 233.098 457.346 232.748C456.641 232.339 455.888 232.019 455.105 231.795L452.531 230.996C451.673 230.704 450.812 230.386 449.954 230.016C449.138 229.667 448.382 229.191 447.713 228.607C447.047 227.999 446.51 227.262 446.135 226.443C445.355 224.428 445.355 222.195 446.135 220.18C446.528 219.213 447.11 218.337 447.851 217.602C448.667 216.823 449.627 216.21 450.677 215.799C451.91 215.332 453.221 215.102 454.538 215.12C456.05 215.102 457.553 215.364 458.969 215.893C460.286 216.393 461.486 217.155 462.497 218.135L461.552 220.008L461.606 220.059Z" fill="#0CA49D"/>
<path d="M472.721 244.656H468.779V215.507H472.721V244.656Z" fill="#0CA49D"/>
<path d="M495.643 233.821L491.068 221.966C490.921 221.597 490.801 221.21 490.63 220.746C490.459 220.282 490.339 219.767 490.192 219.234C489.961 220.167 489.673 221.085 489.334 221.983L484.759 233.821H495.661H495.643ZM503.851 244.638H500.803C500.494 244.649 500.191 244.551 499.945 244.362C499.723 244.177 499.561 243.929 499.48 243.649L496.759 236.613H483.676L480.946 243.649C480.856 243.909 480.697 244.139 480.484 244.311C480.241 244.512 479.938 244.616 479.623 244.603H476.584L488.242 215.454H492.226L503.884 244.603L503.851 244.638Z" fill="#0CA49D"/>
</svg>
