<svg width="600" height="400" viewBox="0 0 600 400" fill="none" xmlns="http://www.w3.org/2000/svg">
<path d="M30 162.362H112.32C112.32 189.8 112.32 217.239 112.315 244.677C84.8768 244.682 57.4384 244.677 30 244.682V162.362ZM40.9644 177.815C47.3707 186.393 53.8716 194.896 60.3078 203.45C53.9264 212.038 47.3856 220.506 40.9943 229.09C55.6052 229.149 70.2111 229.09 84.822 229.12C91.3976 220.611 97.7341 211.918 104.355 203.44L104.23 203.445C97.779 194.891 91.298 186.358 84.8568 177.805C70.226 177.815 55.5952 177.79 40.9644 177.815Z" fill="#790008"/>
<path d="M140.217 186.418C145.119 180.305 152.656 176.38 160.487 175.936C167.904 175.364 175.451 177.969 181.026 182.876C178.51 185.411 175.989 187.932 173.454 190.448C169.165 186.971 163.207 185.601 157.867 187.125C151.909 188.689 147.126 193.78 145.796 199.778C144.172 206.289 146.519 213.687 151.874 217.811C157.991 222.818 167.481 222.564 173.494 217.508C176.014 220.033 178.59 222.514 181.046 225.109C176.069 229.433 169.598 232.034 162.993 232.113C154.668 232.343 146.329 228.681 140.894 222.37C137.093 218.041 134.672 212.511 134.129 206.772C133.367 199.539 135.594 192.042 140.217 186.418Z" fill="#790008"/>
<path d="M191.028 177.431C194.64 177.431 198.247 177.436 201.858 177.426C201.868 195.155 201.858 212.879 201.863 230.609C198.252 230.609 194.64 230.614 191.028 230.604C191.033 212.879 191.028 195.155 191.028 177.431Z" fill="#790008"/>
<path d="M214.815 177.306C218.327 177.296 221.839 177.326 225.356 177.292C231.618 188.555 237.72 199.918 244.062 211.141C250.209 199.843 256.446 188.6 262.593 177.301C266.135 177.311 269.677 177.301 273.224 177.306C273.204 195.041 273.259 212.77 273.194 230.504C269.587 230.45 265.986 230.514 262.379 230.47C262.404 219.973 262.379 209.482 262.394 198.991C256.182 209.597 250.264 220.382 243.942 230.918C237.905 220.242 231.703 209.662 225.64 199.001C225.66 209.497 225.645 219.988 225.65 230.484C222.039 230.484 218.432 230.48 214.82 230.489C214.805 212.76 214.82 195.036 214.815 177.306Z" fill="#790008"/>
<path d="M285.559 177.426C292.872 177.436 300.179 177.426 307.492 177.431C310.875 177.496 314.347 178.208 317.236 180.046C324.215 184.31 325.819 195.384 319.991 201.253C319.244 202.05 318.357 202.707 317.475 203.345C320.798 205.093 323.349 208.336 323.966 212.072C324.868 217.114 323.717 222.902 319.807 226.459C316.688 229.443 312.255 230.519 308.05 230.574C300.553 230.654 293.051 230.589 285.554 230.609C285.559 212.879 285.544 195.155 285.559 177.426ZM296.388 187.145C296.384 191.005 296.388 194.866 296.388 198.727C299.577 198.717 302.77 198.742 305.963 198.722C307.821 198.687 309.829 198.298 311.189 196.929C313.122 194.876 313.171 191.414 311.453 189.212C310.133 187.623 307.951 187.13 305.973 187.14C302.775 187.145 299.582 187.145 296.388 187.145ZM296.388 208.446C296.388 212.551 296.384 216.66 296.388 220.77C299.91 220.775 303.432 220.765 306.954 220.78C308.603 220.83 310.337 220.367 311.572 219.226C314.033 216.855 314.078 212.436 311.567 210.085C310.212 208.8 308.269 208.466 306.471 208.441C303.109 208.436 299.746 208.441 296.388 208.446Z" fill="#790008"/>
<path d="M346.448 177.311C348.256 177.331 350.064 177.246 351.873 177.336C352.7 177.979 353.163 178.985 353.826 179.792C363.749 193.347 373.592 206.961 383.57 220.476C383.56 206.085 383.57 191.698 383.565 177.306C385.433 177.306 387.302 177.306 389.17 177.306C389.17 194.991 389.17 212.675 389.17 230.36C387.282 230.36 385.394 230.355 383.511 230.37C373.029 215.953 362.553 201.531 352.057 187.125C352.057 201.536 352.057 215.948 352.057 230.355C350.174 230.35 348.291 230.395 346.418 230.315C346.503 212.65 346.433 194.981 346.448 177.311Z" fill="#790008"/>
<path d="M403.118 177.307C404.986 177.307 406.849 177.307 408.722 177.307C408.722 194.991 408.717 212.671 408.722 230.35C406.854 230.365 404.986 230.355 403.123 230.36C403.108 212.676 403.123 194.991 403.118 177.307Z" fill="#790008"/>
<path d="M417.351 230.718C423.812 213.029 430.278 195.339 436.784 177.67C439.374 177.695 441.959 177.675 444.55 177.68C450.712 195.24 456.864 212.81 463.046 230.36C460.844 230.355 458.643 230.365 456.446 230.355C454.807 225.657 453.143 220.965 451.454 216.282C444.136 216.287 436.823 216.287 429.511 216.287C427.877 221.094 426.307 225.931 424.668 230.738C422.228 230.718 419.787 230.748 417.351 230.718ZM431.752 209.925C437.576 209.95 443.404 209.93 449.228 209.935C446.308 201.427 443.429 192.904 440.56 184.38C437.635 192.899 434.651 201.397 431.752 209.925Z" fill="#790008"/>
<path d="M475.485 186.363C479.908 181.81 485.826 178.537 492.208 177.949C500.074 177.157 507.905 180.076 514.266 184.555C513.026 186.164 511.721 187.718 510.49 189.332C508.373 186.318 504.622 185.193 501.239 184.281C495.356 182.662 488.681 183.539 483.714 187.19C479.226 190.578 476.227 195.724 475.036 201.178C474.364 206.817 474.922 212.975 478.269 217.747C479.42 219.55 481.253 220.711 482.823 222.111C486.15 224.826 490.514 226.056 494.768 226.016C500.004 226.066 505.185 224.726 509.972 222.669C509.967 217.219 509.982 211.769 509.967 206.319C505.817 206.324 501.668 206.324 497.518 206.319C497.518 204.665 497.518 203.012 497.513 201.358C503.406 201.323 509.299 201.358 515.198 201.338C515.208 209.767 515.198 218.19 515.203 226.619C509.578 229.757 503.132 231.073 496.786 231.705C490.066 231.845 483.047 230.121 477.816 225.732C472.705 221.533 469.721 215.142 468.844 208.666C468.172 200.785 470.174 192.391 475.485 186.363Z" fill="#790008"/>
<path d="M524.189 230.664C530.68 213.014 537.141 195.355 543.583 177.685C546.173 177.67 548.763 177.7 551.359 177.66C557.312 194.423 563.13 211.236 569.063 228.009C569.342 228.761 569.497 229.548 569.561 230.355C567.474 230.365 565.397 230.355 563.32 230.365C561.631 225.682 559.987 220.98 558.323 216.292C550.98 216.282 543.637 216.277 536.3 216.297C534.725 221.114 533.091 225.911 531.507 230.724C529.066 230.709 526.625 230.803 524.189 230.664ZM547.374 184.415C544.484 192.939 541.47 201.417 538.606 209.951C544.41 209.921 550.218 209.941 556.022 209.941C553.197 201.412 550.268 192.919 547.374 184.415Z" fill="#790008"/>
<path d="M40.9648 177.815C55.5957 177.79 70.2265 177.815 84.8573 177.805C91.2984 186.358 97.7794 194.891 104.231 203.445C89.5897 203.475 74.949 203.46 60.3082 203.45C53.872 194.896 47.3711 186.393 40.9648 177.815Z" fill="white"/>
<path d="M60.3076 203.449C74.9484 203.459 89.5892 203.474 104.23 203.444L104.354 203.439C97.734 211.918 91.3975 220.611 84.8218 229.119C70.2109 229.089 55.605 229.149 40.9941 229.089C47.3855 220.506 53.9262 212.038 60.3076 203.449Z" fill="#ED3024"/>
</svg>
