<svg width="600" height="400" viewBox="0 0 600 400" fill="none" xmlns="http://www.w3.org/2000/svg">
<path d="M61.9033 141.835H114.027C135.156 141.835 150.903 151.802 150.903 172.831C150.903 188.278 143.627 196.849 130.97 201.334V201.733C146.019 205.022 153.893 213.792 153.893 228.642C153.893 257.843 130.073 264.022 109.741 264.022H61.9033V141.835ZM92.1012 190.172H100.573C110.439 190.172 120.705 187.581 120.705 177.216C120.705 166.053 110.938 164.957 100.872 164.957H92.1012V190.172ZM92.1012 240.9H101.071C112.134 240.9 123.595 239.106 123.595 226.749C123.595 213.393 111.735 212.197 101.37 212.197H92.1012V240.9Z" fill="#00529C"/>
<path d="M167.746 141.835H221.664C241.796 141.835 258.141 151.602 258.141 172.631C258.141 188.877 250.965 199.74 236.414 203.427V203.826C246.181 206.616 246.779 215.885 252.46 230.834L263.522 264.122H232.029L225.551 242.096C219.372 221.068 215.485 215.785 204.322 215.785H197.944V264.122H167.746V141.835ZM197.844 192.564H205.818C215.584 192.564 227.843 192.165 227.843 178.412C227.843 167.05 217.279 164.957 205.818 164.957H197.844V192.564Z" fill="#00529C"/>
<path d="M275.781 141.835H305.979V264.022H275.781V141.835Z" fill="#00529C"/>
<path d="M345.148 198.444C340.365 198.444 336.079 196.451 332.292 192.365C328.505 188.278 326.611 183.196 326.611 177.216C326.611 171.136 328.405 166.253 332.092 162.366C335.78 158.479 340.065 156.585 345.049 156.585C350.032 156.585 354.018 158.279 357.108 161.768V141.835H368.47V197.846H357.108V192.464C353.919 196.451 349.932 198.444 345.148 198.444ZM337.973 177.615C337.973 180.903 338.969 183.594 340.963 185.687C342.956 187.78 345.248 188.777 347.839 188.777C350.43 188.777 352.723 187.78 354.517 185.687C356.311 183.594 357.307 180.903 357.307 177.615C357.307 174.325 356.41 171.535 354.517 169.343C352.723 167.15 350.43 166.053 347.74 166.053C345.049 166.053 342.757 167.15 340.863 169.343C338.969 171.535 337.973 174.325 337.973 177.615Z" fill="#F37021"/>
<path d="M377.04 152.001C375.745 150.705 375.146 149.111 375.146 147.317C375.146 145.423 375.745 143.929 377.04 142.633C378.336 141.337 379.93 140.739 381.724 140.739C383.618 140.739 385.113 141.337 386.408 142.633C387.704 143.929 388.302 145.523 388.302 147.317C388.302 149.211 387.704 150.705 386.408 152.001C385.113 153.297 383.519 153.895 381.724 153.895C379.93 153.895 378.336 153.297 377.04 152.001ZM387.405 197.846H376.044V157.184H387.405V197.846Z" fill="#F37021"/>
<path d="M416.507 167.148C413.119 167.148 410.627 168.344 408.933 170.736C407.239 173.128 406.441 176.317 406.441 180.204V197.845H395.08V157.182H406.441V162.564C407.937 160.87 409.731 159.474 411.923 158.378C414.116 157.182 416.308 156.584 418.6 156.584L418.7 167.248H416.507V167.148Z" fill="#F37021"/>
<path d="M457.868 191.964C453.283 196.25 447.902 198.442 441.722 198.442C435.543 198.442 430.461 196.549 426.474 192.762C422.487 188.974 420.395 183.892 420.395 177.513C420.395 171.135 422.487 166.052 426.574 162.265C430.659 158.477 435.543 156.584 441.124 156.584C446.705 156.584 451.489 158.278 455.376 161.667C459.263 165.055 461.256 169.64 461.256 175.52V181.5H431.656C432.055 183.692 433.151 185.486 435.145 186.981C437.138 188.377 439.33 189.074 441.822 189.074C445.808 189.074 449.097 187.779 451.689 185.088L457.868 191.964ZM447.005 167.846C445.41 166.55 443.516 165.852 441.324 165.852C439.131 165.852 437.038 166.55 435.145 167.846C433.251 169.241 432.155 171.035 431.856 173.327H449.695C449.396 171.035 448.499 169.142 447.005 167.846Z" fill="#F37021"/>
<path d="M487.27 188.379C491.057 188.379 494.446 186.485 497.435 182.698L504.113 190.272C498.831 195.754 493.25 198.445 487.071 198.445C480.991 198.445 475.809 196.551 471.623 192.664C467.437 188.777 465.344 183.794 465.344 177.515C465.344 171.336 467.437 166.254 471.722 162.367C476.008 158.48 480.991 156.486 486.871 156.486C489.762 156.486 492.752 157.085 495.741 158.28C498.731 159.476 501.322 161.27 503.615 163.662L497.735 171.336C496.439 169.742 494.844 168.546 492.951 167.748C491.057 166.851 489.163 166.452 487.369 166.452C484.379 166.452 481.888 167.449 479.696 169.343C477.603 171.236 476.506 173.927 476.506 177.415C476.506 180.904 477.603 183.595 479.696 185.488C481.888 187.382 484.379 188.379 487.27 188.379Z" fill="#F37021"/>
<path d="M524.442 165.355V183.494C524.442 185.088 524.841 186.284 525.638 187.181C526.435 188.078 527.432 188.477 528.528 188.477C530.621 188.477 532.415 187.48 533.91 185.586L538.096 193.56C534.608 196.749 530.821 198.344 526.934 198.344C523.047 198.344 519.758 197.048 517.067 194.457C514.376 191.866 512.981 188.377 512.981 183.992V165.355H508.197V157.183H512.981V145.024H524.343V157.183H534.209V165.355H524.442Z" fill="#F37021"/>
<path d="M345.148 265.218C340.365 265.218 336.079 263.224 332.292 259.139C328.505 255.052 326.611 249.97 326.611 243.99C326.611 237.91 328.405 233.027 332.092 229.14C335.78 225.253 340.065 223.359 345.049 223.359C350.032 223.359 354.018 225.054 357.108 228.542V208.609H368.47V264.62H357.108V259.238C353.919 263.224 349.932 265.218 345.148 265.218ZM337.973 244.388C337.973 247.677 338.969 250.368 340.963 252.461C342.956 254.554 345.248 255.551 347.839 255.551C350.43 255.551 352.723 254.554 354.517 252.461C356.311 250.368 357.307 247.677 357.307 244.388C357.307 241.099 356.41 238.309 354.517 236.116C352.723 233.924 350.43 232.827 347.74 232.827C345.049 232.827 342.757 233.924 340.863 236.116C338.969 238.309 337.973 241.099 337.973 244.388Z" fill="#F37021"/>
<path d="M417.301 258.741C412.717 263.026 407.335 265.219 401.156 265.219C394.977 265.219 389.894 263.325 385.907 259.538C381.921 255.751 379.828 250.668 379.828 244.29C379.828 237.911 381.921 232.828 386.007 229.041C390.094 225.254 394.977 223.36 400.558 223.36C406.139 223.36 410.923 225.054 414.81 228.443C418.697 231.832 420.69 236.416 420.69 242.296V248.376H391.09C391.489 250.568 392.585 252.362 394.578 253.857C396.572 255.253 398.764 255.95 401.256 255.95C405.242 255.95 408.531 254.654 411.122 251.963L417.301 258.741ZM406.438 234.622C404.844 233.326 402.95 232.629 400.757 232.629C398.565 232.629 396.472 233.326 394.578 234.622C392.685 236.017 391.588 237.812 391.289 240.104H409.129C408.93 237.812 408.033 235.917 406.438 234.622Z" fill="#F37021"/>
<path d="M455.272 223.259C460.256 223.259 464.541 225.153 468.228 229.04C471.916 232.927 473.71 237.811 473.71 243.89C473.71 249.97 471.816 254.952 468.029 259.039C464.242 263.125 459.956 265.118 455.172 265.118C450.389 265.118 446.402 263.125 443.213 259.139V264.52H431.852V208.609H443.213V228.542C446.303 225.054 450.289 223.259 455.272 223.259ZM443.014 244.289C443.014 247.577 443.91 250.268 445.805 252.361C447.598 254.454 449.89 255.451 452.482 255.451C455.073 255.451 457.365 254.454 459.359 252.361C461.352 250.268 462.349 247.577 462.349 244.289C462.349 240.999 461.352 238.309 459.458 236.017C457.565 233.824 455.272 232.727 452.581 232.727C449.89 232.727 447.698 233.824 445.805 236.017C443.91 238.309 443.014 240.999 443.014 244.289Z" fill="#F37021"/>
<path d="M484.575 218.777C483.279 217.481 482.682 215.886 482.682 214.092C482.682 212.199 483.279 210.703 484.575 209.408C485.871 208.112 487.466 207.515 489.259 207.515C491.153 207.515 492.648 208.112 493.944 209.408C495.239 210.703 495.837 212.298 495.837 214.092C495.837 215.985 495.239 217.481 493.944 218.777C492.648 220.072 491.053 220.67 489.259 220.67C487.466 220.769 485.871 220.072 484.575 218.777ZM494.94 264.621H483.579V223.959H494.94V264.621Z" fill="#F37021"/>
<path d="M523.743 232.129V250.367C523.743 251.962 524.142 253.158 524.939 254.055C525.737 254.952 526.733 255.351 527.83 255.351C529.922 255.351 531.716 254.354 533.211 252.46L537.397 260.434C533.909 263.623 530.122 265.217 526.235 265.217C522.348 265.217 519.059 263.922 516.368 261.331C513.677 258.739 512.282 255.251 512.282 250.866V232.129H507.498V223.957H512.282V211.798H523.644V223.957H533.511V232.129H523.743Z" fill="#F37021"/>
</svg>
