<svg width="600" height="400" viewBox="0 0 600 400" fill="none" xmlns="http://www.w3.org/2000/svg">
<path d="M104.237 253.475C134.192 253.475 158.475 229.192 158.475 199.237C158.475 169.283 134.192 145 104.237 145C74.2828 145 50 169.283 50 199.237C50 229.192 74.2828 253.475 104.237 253.475Z" fill="#00AED6"/>
<path d="M104.237 253.475C134.192 253.475 158.475 229.192 158.475 199.237C158.475 169.283 134.192 145 104.237 145C74.2828 145 50 169.283 50 199.237C50 229.192 74.2828 253.475 104.237 253.475Z" fill="#00AED6"/>
<path fill-rule="evenodd" clip-rule="evenodd" d="M136.016 197.542C135.592 190.762 129.661 185.254 122.881 185.678H88.5587C87.2875 185.678 86.4401 184.83 86.4401 183.559C86.4401 182.288 87.2875 181.44 88.5587 181.44H123.304C123.304 176.779 119.915 172.542 115.254 171.271C105.084 169.576 94.9149 169.576 84.7452 171.271C78.813 172.542 74.5757 177.627 73.7282 183.135C72.0333 193.728 72.0333 204.745 73.7282 215.338C74.9994 221.694 79.6604 226.355 86.0164 227.203C98.7284 228.898 111.44 228.898 123.728 227.203C129.237 225.932 133.474 221.271 134.322 215.762C135.593 209.83 136.016 203.898 136.016 197.542ZM124.575 205.169V207.288C124.575 208.559 123.728 209.406 122.457 209.406C121.186 209.406 120.338 208.559 120.338 207.288V205.169C119.491 204.745 119.067 203.474 119.067 202.627C119.067 200.932 120.762 199.237 122.457 199.237C124.152 199.237 125.847 200.932 125.847 202.627C125.847 203.474 125.423 204.321 124.575 205.169Z" fill="white"/>
<path d="M201.271 226.357C205.932 232.713 213.559 236.526 221.61 236.102C230.932 236.102 238.135 230.17 238.135 221.696V217.458H237.711C232.626 222.543 225.423 225.085 218.22 224.662C206.779 225.085 196.186 219.153 190.254 209.407C184.321 199.662 184.321 187.374 189.83 177.628C195.338 167.882 205.932 161.526 217.372 161.95C224.576 161.526 231.779 164.069 237.287 169.153H237.711V162.797H253.813V221.696C253.813 238.645 240.254 250.509 221.186 250.509C208.898 251.357 196.61 245.848 188.982 236.102L201.271 226.357ZM237.287 189.492C237.287 182.713 229.66 176.357 220.762 176.357C209.745 176.357 202.542 183.136 202.542 192.882C202.118 197.543 203.813 202.204 207.203 205.594C210.593 208.984 215.254 210.679 219.915 209.831C229.237 209.831 236.864 203.899 236.864 196.696V189.492H237.287ZM296.61 161.103C316.101 161.103 330.508 175.086 330.508 192.882C330.508 210.679 316.101 224.662 296.61 224.662C284.745 225.509 273.304 219.577 267.372 209.407C261.016 199.238 261.016 186.526 267.372 176.357C273.728 166.187 284.745 160.255 296.61 161.103ZM296.61 175.933C287.288 175.933 279.66 183.56 279.66 192.882C279.66 202.204 287.288 209.831 296.61 209.831C305.932 209.831 313.559 202.204 313.559 192.882C313.982 188.221 311.864 183.984 308.898 180.594C305.508 177.628 301.271 175.933 296.61 175.933ZM339.83 162.797H355.932V168.306H356.355C361.44 163.645 368.643 161.103 375.847 161.103C393.22 161.526 407.203 175.509 407.203 192.882C407.203 210.255 393.22 224.238 375.847 224.662C369.067 224.662 362.288 222.543 356.779 218.306H356.355V248.391H339.406V162.797H339.83ZM372.881 175.933C363.982 175.933 356.355 182.289 356.355 189.069V196.696C356.355 203.899 363.559 209.831 372.881 209.831C382.203 209.831 389.83 202.204 389.83 192.882C389.83 183.56 382.203 175.933 372.881 175.933ZM438.559 187.374C449.576 186.103 452.965 184.408 452.965 181.018C452.965 177.204 448.728 174.662 442.372 174.662C435.593 174.238 428.813 178.475 427.542 185.679L411.44 182.289C413.559 170.001 426.271 161.103 441.949 161.103C459.745 161.103 470.338 170.001 470.338 184.831V223.391H455.084V216.611H454.66C449.576 222.543 441.949 225.509 434.321 225.085C421.186 225.085 411.864 217.882 411.864 207.289C412.288 195.848 419.491 189.916 438.559 187.374ZM454.237 193.73C452.542 195.848 449.152 197.119 441.101 198.814C431.355 200.509 427.542 202.628 427.542 206.018C427.542 209.831 430.508 211.102 436.864 211.102C446.61 211.102 454.237 206.865 454.237 200.933V193.73ZM500.847 220.001L472.881 162.797H491.525L509.745 202.204H510.169L528.389 162.797H547.033L505.084 248.814H486.44L500.847 220.001Z" fill="black"/>
</svg>
