<svg width="600" height="400" viewBox="0 0 600 400" fill="none" xmlns="http://www.w3.org/2000/svg">
<path d="M169.123 334.435C163.914 331.737 159.814 329.328 160.007 329.135C160.682 328.461 185.62 323.161 203.033 319.98C240.705 313.091 285.517 307.55 330.135 304.322C348.513 302.973 415.031 302.925 426.559 304.274L434.132 305.141L425.594 305.285C410.449 305.526 375.767 307.935 348.561 310.681C297.094 315.789 239.885 325.329 198.499 335.591C190.058 337.711 182.099 339.398 180.845 339.398C179.639 339.398 174.333 337.181 169.123 334.435ZM241.043 282.737C240.272 280.616 243.503 279.652 244.902 279.026C251.269 276.328 255.707 271.895 257.202 266.836C257.926 264.427 260.096 250.744 262.026 236.482C263.955 222.22 265.692 211.138 265.885 210.512C266.03 210.031 266.415 208.344 268.441 208.151C273.699 208.103 277.558 208.151 282.912 208.151C285.854 207.862 285.276 211.09 285.082 213.162C284.842 215.764 284.166 220.823 283.298 227.039C282.285 234.555 280.79 245.829 279.97 252.045C278.089 266.017 277.076 270.353 273.844 277.533C270.082 286.109 264.245 291.12 253.585 294.637C251.414 295.311 245.288 297.383 244.612 295.553C243.262 291.12 242.249 287.265 241.043 282.737ZM363.08 278.015C355.99 275.172 356.327 264.138 363.756 259.609C368.435 256.766 375.043 257.248 378.468 260.621C386.813 269.004 374.512 282.64 363.08 278.015ZM309.539 271.462C288.7 267.897 288.845 243.131 293.524 228.966C299.361 212.584 313.59 207.814 325.312 207.381C335.2 207.043 348.851 208.874 352.324 210.994C353.289 211.572 352.807 217.257 350.153 238.361C348.32 253.008 346.295 265.583 345.667 266.306C342.387 270.257 320.295 273.389 309.539 271.462ZM327.724 251.804C329.942 243.516 330.907 236 332.499 227.231C332.306 224.196 327.193 224.196 325.891 224.196C319.138 224.196 315.134 228.002 313.011 236.434C310.117 247.997 313.156 254.406 321.501 254.406C324.154 254.164 326.904 254.309 327.724 251.804ZM175.587 264.765C181.279 250.888 204.143 201.165 209.641 190.854C210.654 188.3 213.404 187.771 215.285 187.577C220.639 187.337 225.318 187.385 230.045 187.433C234.917 187.481 234.965 189.168 235.593 192.781C236.365 196.395 245.867 252.96 247.989 266.548C248.279 268.812 248.81 269.486 245.867 269.486C241.815 269.486 231.975 270.017 228.647 269.775C227.585 269.631 226.91 268.956 226.717 268.137C226.428 266.692 226.09 264.186 225.849 261.584L225.222 254.839H213.018H200.814L198.161 261.344C197.197 263.656 196.184 265.921 195.412 267.463C194.881 268.86 194.061 269.486 192.855 269.775C189.865 269.727 179.253 270.161 175.297 269.775C173.271 268.908 175.056 266.017 175.587 264.765ZM223.051 236.048C222.713 232.387 220.35 213.548 219.819 210.753C219.675 210.464 219.626 210.56 219.482 210.705C218.035 212.873 210.22 232.001 208.918 236.434C208.773 237.06 209.159 237.253 209.738 237.205C211.716 237.06 219.819 236.916 222.279 236.819C222.955 236.819 223.003 236.578 223.051 236.048ZM363.997 245.203C364.335 242.745 365.01 236.048 365.541 230.315C366.071 224.581 366.939 215.668 367.422 210.512C367.808 206.561 368.146 202.755 368.29 200.731C368.579 198.948 370.75 198.708 372.197 198.708C376.973 198.756 381.507 198.467 385.8 198.852C387.826 199.045 388.694 199.527 388.694 200.731C386.765 210.657 379.771 244.962 379.24 247.082C378.758 248.913 378.613 249.443 375.767 249.635C372.342 249.587 369.496 249.78 366.023 249.732C364.045 249.732 363.515 249.154 363.997 245.203ZM267.477 194.275C267.477 188.204 271.384 183.578 276.255 181.651C280.501 180.158 285.227 180.158 287.736 183.049C292.222 188.252 289.28 195.913 284.07 199.913C277.365 204.489 267.621 201.791 267.477 194.275ZM387.392 181.507C385.944 178.279 381.217 168.016 376.973 158.765C372.679 149.514 369.448 141.324 369.689 140.601C369.978 139.878 374.705 134 380.253 127.495L389.273 116.896C389.852 116.173 390.527 115.306 391.347 115.306C396.797 115.354 402.393 115.643 407.603 115.595C411.462 115.547 413.391 115.306 410.545 118.196C408.712 120.461 405.094 124.605 400.946 129.182C394.965 135.783 390.093 141.324 390.093 141.564C390.093 141.757 394.579 151.634 400.078 163.439C404.371 172.738 407.94 181.025 409.146 184.494C409.677 185.65 409.194 186.662 408.133 186.951C406.686 187.289 404.081 187.433 399.595 187.433H392.89C391.251 187.626 390.044 187.337 389.418 185.892L387.392 181.507ZM186.247 174.569C180.218 171.582 177.323 167.727 176.793 161.993C176.503 158.573 182.099 112.27 184.607 97.5748C185.234 94.1057 185.475 93.913 188.804 93.913H195.315C198.74 93.913 201.876 93.8648 203.805 93.9612C206.506 94.0094 205.976 95.6957 205.783 97.7193C205.3 102.248 203.901 112.029 202.068 124.605C198.885 146.961 198.065 154.814 198.837 156.019C199.753 157.416 202.02 157.657 217.07 157.898L230.528 158.091C233.76 157.898 234.387 158.717 234.097 161.56C233.326 166.33 232.891 170.136 232.119 174.376C231.589 177.026 229.852 176.352 227.199 176.496L211.426 176.737C191.264 177.026 191.167 177.026 186.247 174.569ZM341.712 176.303C341.519 175.918 342.05 170.473 342.966 164.258C343.882 158.043 345.715 144.648 347.115 134.53C351.07 105.766 352.324 97.1412 352.903 93.8166C353.481 89.9621 353.481 90.1548 357.292 90.1548H363.322C365.685 90.1548 367.518 90.1067 368.917 90.1548C374.32 90.3476 373.644 89.8657 372.246 98.2011C371.715 101.381 370.027 115.257 368.435 126.917C364.431 156.356 361.826 174.376 361.344 175.774C360.862 177.123 342.339 177.604 341.712 176.303ZM238.921 174.039C241.429 153.032 243.841 137.132 246.59 117.57C246.783 115.209 249.099 114.968 251.8 114.968C254.887 114.968 257.974 114.92 260.916 115.016C266.56 115.016 268.056 115.787 267.477 119.546C264.968 137.903 261.881 154.284 258.65 172.979C258.022 176.158 257.299 176.062 254.26 176.062C250.739 176.062 244.468 176.207 241.285 176.11C239.403 175.774 239.017 175.581 238.921 174.039ZM278.812 127.014C280.355 118.871 281.417 117.618 283.684 116.125C286.482 114.294 306.982 112.415 314.073 113.33C315.037 113.475 316.002 113.667 316.918 113.86C337.66 118.775 334.429 142.287 333.078 153.08C331.679 163.39 330.28 172.786 329.991 173.942C329.508 175.966 329.074 176.062 319.668 176.062C316.533 176.062 314.844 175.966 313.06 175.774C310.165 175.581 309.876 174.954 310.165 172.834C311.227 164.21 312.674 156.79 313.735 148.744C315.182 137.758 314.796 126.917 301.145 129.23C298.782 129.808 298.155 130.001 297.866 132.362C296.177 143.203 294.681 154.429 293.09 165.029C292.752 167.583 292.27 170.233 291.787 172.545C291.643 173.123 291.595 173.654 291.498 174.087C291.354 174.569 291.016 175.051 290.726 174.569C288.556 170.57 278.233 171.244 273.892 174.183C271.721 175.677 271.287 176.496 272.156 171.919C272.3 170.955 272.445 169.991 272.589 169.028C274.712 154.959 276.159 141.179 278.812 127.014ZM249.34 102.923C247.025 95.0693 253.922 87.3121 261.592 87.023C272.011 86.3485 274.905 100.658 264.245 107.115C258.07 109.957 251.559 109.379 249.34 102.923Z" fill="#EA232A"/>
</svg>
