<svg width="600" height="400" viewBox="0 0 600 400" fill="none" xmlns="http://www.w3.org/2000/svg">
<path d="M350.774 128.917H259.496V278.012H350.774V128.917Z" fill="#FF5F00"/>
<path d="M268.879 203.494C268.868 189.136 272.125 174.964 278.401 162.05C284.676 149.136 293.808 137.819 305.104 128.956C291.117 117.966 274.321 111.133 256.634 109.237C238.947 107.341 221.084 110.459 205.086 118.234C189.087 126.01 175.599 138.13 166.162 153.208C156.726 168.286 151.722 185.716 151.722 203.503C151.722 221.291 156.726 238.72 166.162 253.799C175.599 268.878 189.087 280.996 205.086 288.772C221.084 296.548 238.947 299.666 256.634 297.77C274.321 295.874 291.117 289.04 305.104 278.051C293.806 269.186 284.673 257.866 278.397 244.948C272.121 232.031 268.866 217.855 268.879 203.494Z" fill="#EB001B"/>
<path d="M449.458 262.326V259.277H450.782V258.491H447.656V259.123H448.901V262.174L449.458 262.326ZM455.537 262.326V258.491H454.598L453.486 261.118L452.374 258.491H451.434V262.174H452.124V259.372L453.159 261.771H453.87L454.905 259.372V262.174L455.537 262.326Z" fill="#F79E1B"/>
<path d="M458.538 203.476C458.54 221.267 453.535 238.701 444.098 253.783C434.66 268.864 421.167 280.986 405.164 288.761C389.161 296.537 371.294 299.653 353.603 297.752C335.913 295.851 319.115 289.011 305.129 278.014C316.418 269.141 325.548 257.822 331.823 244.909C338.099 231.995 341.361 217.824 341.361 203.466C341.361 189.108 338.099 174.937 331.823 162.023C325.548 149.109 316.418 137.79 305.129 128.919C319.115 117.921 335.913 111.081 353.603 109.18C371.294 107.28 389.161 110.395 405.164 118.171C421.167 125.946 434.66 138.067 444.098 153.149C453.535 168.231 458.54 185.665 458.538 203.456V203.476Z" fill="#F79E1B"/>
</svg>
