<svg width="600" height="400" viewBox="0 0 600 400" fill="none" xmlns="http://www.w3.org/2000/svg">
<mask id="mask0_3116_648" style="mask-type:luminance" maskUnits="userSpaceOnUse" x="30" y="138" width="540" height="116">
<path d="M570 138H30V253.461H570V138Z" fill="white"/>
</mask>
<g mask="url(#mask0_3116_648)">
<path d="M432.272 230.371C439.199 230.371 445.061 227.943 449.324 223.265V229.068H460.456V204.318V204.14V203.785C460.456 203.667 460.456 203.489 460.456 203.371V203.015C460.041 187.917 448.436 176.548 433.337 176.548H433.159H432.272C417.942 176.548 406.337 188.627 406.337 203.489C406.337 218.292 418.002 230.371 432.272 230.371ZM417.469 203.43C417.469 194.252 424.278 187.325 433.337 187.325C442.456 187.325 449.324 194.252 449.324 203.43C449.324 212.608 442.456 219.535 433.337 219.535C424.337 219.535 417.469 212.608 417.469 203.43Z" fill="black"/>
<path d="M354.77 223.265C359.092 227.884 364.954 230.371 371.822 230.371C386.151 230.371 397.815 218.291 397.815 203.43C397.815 188.568 386.151 176.43 371.822 176.43C364.895 176.43 359.032 178.857 354.77 183.535V158.193H343.638V229.068H354.77V223.265ZM354.77 203.43C354.77 194.252 361.638 187.324 370.757 187.324C379.815 187.324 386.684 194.252 386.684 203.43C386.684 212.607 379.815 219.535 370.757 219.535C361.638 219.476 354.77 212.607 354.77 203.43Z" fill="black"/>
<path d="M534.944 207.989L555.076 228.949L555.254 229.127H569.523L544.182 202.66L568.813 177.673H554.129L534.944 197.272V158.193H523.813V229.127H534.944V207.989Z" fill="black"/>
<path d="M308.758 230.548C323.442 230.548 335.048 219.535 335.817 204.969C335.817 204.496 335.876 204.022 335.876 203.548C335.876 203.075 335.876 202.601 335.817 202.127C335.106 187.562 323.501 176.548 308.758 176.548C293.659 176.548 281.817 188.39 281.817 203.548C281.817 218.706 293.659 230.548 308.758 230.548ZM292.949 203.608C292.949 202.483 293.067 201.358 293.245 200.292C294.725 192.713 300.942 187.621 308.758 187.621C317.817 187.621 324.685 194.489 324.685 203.608C324.685 205.798 324.272 207.93 323.501 209.884C323.442 209.943 323.442 210.062 323.383 210.121L323.324 210.239C322.969 211.127 322.495 211.956 322.022 212.667C319.12 217.048 314.265 219.594 308.758 219.594C300.942 219.594 294.725 214.502 293.245 206.923C293.067 205.798 292.949 204.733 292.949 203.608Z" fill="black"/>
<path d="M192.294 176.43C179.209 176.43 168.966 186.259 168.966 198.812V229.068H180.097V198.812C180.097 192.299 185.367 187.384 192.294 187.384C199.281 187.384 204.492 192.299 204.492 198.812V229.068H215.623V198.812C215.623 186.259 205.38 176.43 192.294 176.43Z" fill="black"/>
<path d="M479.705 198.812C479.705 192.299 484.974 187.384 491.902 187.384C498.89 187.384 504.099 192.299 504.099 198.812V229.068H515.231V198.812C515.231 186.259 504.988 176.43 491.902 176.43C478.817 176.43 468.574 186.259 468.574 198.812V229.068H479.705V198.812Z" fill="black"/>
<path d="M263.993 212.961L272.815 220.836C267.072 228.534 257.065 230.547 251.145 230.547C236.282 230.547 224.381 218.527 224.381 203.487C224.381 188.626 236.282 176.606 251.145 176.606C264.407 176.606 273.229 186.317 274.354 194.784L241.197 215.981C243.921 218.172 247.354 219.593 251.026 219.77C256.296 220.126 261.861 217.461 263.993 212.961ZM235.099 203.251C235.099 204.909 235.335 206.626 235.868 208.106L261.684 191.645C259.315 188.744 255.585 187.145 251.263 187.145C242.44 187.145 235.099 194.014 235.099 203.251Z" fill="black"/>
<path d="M87.7884 138.475C56.17 138.475 30.4727 164.113 30.4727 195.791C30.4727 227.409 56.1108 253.107 87.7884 253.107C119.407 253.107 145.104 227.469 145.104 195.791C145.045 164.172 119.407 138.475 87.7884 138.475Z" fill="#FFD200"/>
<mask id="mask1_3116_648" style="mask-type:luminance" maskUnits="userSpaceOnUse" x="30" y="138" width="116" height="116">
<path d="M87.7884 138.475C56.17 138.475 30.4727 164.113 30.4727 195.791C30.4727 227.409 56.1108 253.107 87.7884 253.107C119.407 253.107 145.104 227.469 145.104 195.791C145.045 164.172 119.407 138.475 87.7884 138.475Z" fill="white"/>
</mask>
<g mask="url(#mask1_3116_648)">
<path d="M47.0615 253.818V247.305C47.0615 243.989 48.7786 240.97 51.5615 239.252L51.4431 228.121V171.693C51.4431 170.154 52.4497 169.266 53.3971 168.97C53.6339 168.91 53.9892 168.792 54.4036 168.792C54.9957 168.792 55.8839 168.97 56.5944 169.858L64.5286 179.45H111.364L119.298 169.858C120.009 168.97 120.897 168.792 121.489 168.792C121.963 168.792 122.318 168.91 122.496 168.97C123.443 169.325 124.45 170.213 124.45 171.693V184.305L124.331 187.443C126.877 189.22 128.417 192.062 128.417 195.2V253.818H47.0615Z" fill="white"/>
<path d="M48.0068 250.442V247.363C48.0068 244.106 49.8423 241.264 52.5068 239.843L52.3884 228.179V221.665V171.751C52.3884 170.448 53.3949 169.975 53.691 169.856C53.987 169.738 55.0528 169.442 55.941 170.448L64.1713 180.337H111.895L120.125 170.448C120.954 169.442 122.02 169.738 122.375 169.856C122.671 169.975 123.678 170.448 123.678 171.751V184.363L123.5 187.975C125.928 189.455 127.586 192.179 127.586 195.198V250.442H48.0068Z" fill="white"/>
<path d="M88.8643 221.606C90.2261 223.56 91.1734 225.751 91.5879 228.119H107.279V221.606H88.8643Z" fill="#FFD200"/>
<path d="M52.4443 221.606V228.119H57.7141C58.1878 225.751 59.1352 223.501 60.4378 221.606H52.4443Z" fill="#FFD200"/>
<path d="M80.4557 197.152C81.107 197.152 81.7584 196.737 81.9952 196.086C82.2912 195.257 81.8767 194.25 81.0478 193.954C75.3043 191.823 69.0281 190.935 62.8702 191.467C61.982 191.527 61.2714 192.356 61.3899 193.244C61.4491 194.132 62.2781 194.842 63.1662 194.724C68.8504 194.25 74.4754 195.02 79.8636 197.033C80.0412 197.152 80.2781 197.152 80.4557 197.152Z" fill="black"/>
<path d="M97.3263 201.297C96.7934 201.356 96.4382 201.83 96.5565 202.363C96.5565 202.363 96.8526 204.376 95.3724 206.034C94.1289 207.455 91.9974 208.284 89.0368 208.402V202.422C90.8724 202.008 92.4118 200.587 92.5895 200.409C92.9447 200.054 92.9447 199.462 92.5895 199.106C92.2342 198.751 91.6421 198.692 91.2868 199.106C90.8132 199.521 89.3329 200.705 88.0895 200.705C86.846 200.705 85.3657 199.58 84.8921 199.106C84.5368 198.751 83.9447 198.751 83.5895 199.106C83.2342 199.462 83.2342 200.054 83.5895 200.409C83.5895 200.409 84.1224 200.942 84.9513 201.416C85.721 201.889 86.4908 202.245 87.2013 202.363V208.462C84.1815 208.343 82.05 207.574 80.7474 206.093C79.3263 204.435 79.5632 202.481 79.5632 202.422C79.6224 201.889 79.2671 201.416 78.7934 201.356C78.2606 201.297 77.7868 201.652 77.7276 202.126C77.7276 202.245 77.3132 204.968 79.3263 207.277C81.0434 209.291 84.0039 210.356 88.0895 210.356H88.1486C88.1486 210.356 88.1486 210.356 88.2079 210.356C92.2342 210.356 95.1356 209.291 96.8526 207.277C98.8657 204.968 98.4513 202.245 98.4513 202.126C98.2736 201.593 97.8 201.238 97.3263 201.297Z" fill="black"/>
<path d="M55.4108 198.69L64.2331 199.282C64.2331 199.282 64.2331 199.282 64.2923 199.282C64.5884 199.282 64.8252 199.045 64.8844 198.749C64.8844 198.453 64.6476 198.157 64.3516 198.157L55.5291 197.565C55.2331 197.565 54.937 197.802 54.937 198.098C54.8187 198.394 55.0555 198.631 55.4108 198.69Z" fill="black"/>
<path d="M65.9502 202.538C65.891 202.242 65.595 202.006 65.2989 202.065L54.641 203.486C54.345 203.545 54.1082 203.841 54.1673 204.137C54.2265 204.433 54.4633 204.67 54.7594 204.67H54.8186L65.4765 203.249C65.7726 203.131 65.9502 202.835 65.9502 202.538Z" fill="black"/>
<path d="M65.5348 205.56L56.3571 209.231C56.061 209.349 55.9426 209.704 56.061 210C56.1795 210.237 56.3571 210.356 56.5939 210.356C56.6531 210.356 56.7124 210.356 56.8307 210.297L66.0084 206.625C66.3045 206.507 66.4228 206.152 66.3045 205.856C66.186 205.619 65.8307 205.441 65.5348 205.56Z" fill="black"/>
<path d="M74.6434 246.415C82.6368 246.415 89.8013 239.488 89.5645 231.257C89.3275 222.79 82.696 216.396 74.6434 216.396C66.6499 216.396 59.6631 223.146 59.6631 231.139C59.6631 239.251 66.6499 246.415 74.6434 246.415Z" fill="#FFD200"/>
<path d="M64.7634 245.586C62.4542 243.988 60.6186 241.856 59.316 239.369C58.4278 239.073 57.4805 238.896 56.4739 238.896C51.7963 238.896 48.0068 242.685 48.0068 247.363V250.442H64.941V247.363C64.941 246.711 64.8818 246.119 64.7634 245.586Z" fill="white"/>
<path d="M123.495 187.915V193.126C123.495 193.777 122.962 194.31 122.31 194.31C121.659 194.31 121.126 193.777 121.126 193.126V186.909C120.475 186.731 119.764 186.672 119.054 186.672C118.343 186.672 117.633 186.79 116.981 186.909V193.126C116.981 193.777 116.449 194.31 115.797 194.31C115.146 194.31 114.613 193.777 114.613 193.126V187.915C112.185 189.396 110.528 192.119 110.528 195.139V233.626H107.212V228.119H91.5209C91.6985 229.185 91.817 230.251 91.817 231.376C91.817 240.909 84.0605 248.665 74.5275 248.665C72.2775 248.665 70.0867 248.251 68.1328 247.422V253.758H127.462V195.08C127.58 192.119 125.922 189.396 123.495 187.915Z" fill="white"/>
<path d="M122.545 198.691C124.085 202.066 120.828 205.323 117.453 203.783C116.743 203.487 116.151 202.895 115.855 202.185C114.315 198.81 117.572 195.553 120.947 197.092C121.657 197.388 122.249 197.981 122.545 198.691Z" fill="#FFD200"/>
<path d="M58.9569 180.335C59.4899 180.335 59.7858 179.625 59.4306 179.151L57.299 176.19C56.47 175.006 54.7529 175.717 54.7529 177.256V179.625C54.7529 180.039 55.049 180.335 55.4043 180.335H58.9569Z" fill="#FFD200"/>
<path d="M116.685 180.335C116.153 180.335 115.856 179.625 116.212 179.151L118.343 176.19C119.172 175.006 120.889 175.717 120.889 177.256V179.625C120.889 180.039 120.593 180.335 120.238 180.335H116.685Z" fill="#FFD200"/>
<path d="M130.899 199.106V195.198C130.899 191.705 129.359 188.567 126.991 186.435V175.659V171.751C126.991 169.501 125.629 167.547 123.498 166.777C121.366 166.007 119.057 166.659 117.577 168.376L110.353 177.08H65.7674L58.5438 168.376C57.1227 166.659 54.7542 166.007 52.6227 166.777C50.4911 167.547 49.1292 169.501 49.1292 171.751V175.659V238.185C46.4647 240.317 44.6885 243.632 44.6885 247.363V247.481V253.876H48.0042V247.363C48.0042 242.685 51.7938 238.896 56.4714 238.896C57.4779 238.896 58.4253 239.073 59.3135 239.369C60.6161 241.856 62.4516 243.988 64.7608 245.586C64.8792 246.178 64.9385 246.711 64.9385 247.303V253.816H68.2542V247.481C70.2674 248.251 72.399 248.725 74.649 248.725C84.1818 248.725 91.9385 240.968 91.9385 231.435C91.9385 230.31 91.82 229.244 91.6424 228.178C91.1688 225.81 90.2214 223.56 88.9187 221.665C85.7806 217.165 80.57 214.205 74.7082 214.205C68.8464 214.205 63.6358 217.165 60.4977 221.665C59.1358 223.619 58.1885 225.81 57.774 228.178C57.5964 229.244 57.4779 230.31 57.4779 231.435C57.4779 232.856 57.6556 234.277 58.0108 235.639C57.5371 235.58 57.0635 235.58 56.5897 235.58C55.1688 235.58 53.8068 235.817 52.5635 236.29V228.178V221.665V171.751C52.5635 170.448 53.57 169.975 53.8661 169.856C54.1621 169.738 55.2279 169.442 56.1161 170.448L64.3464 180.336H112.07L120.3 170.448C121.129 169.442 122.195 169.738 122.55 169.856C122.846 169.975 123.853 170.448 123.853 171.751V184.363C122.432 183.771 120.892 183.475 119.294 183.475C114.142 183.475 109.702 186.79 108.162 191.468C103.84 191.705 99.5767 192.534 95.5503 194.073C94.7214 194.369 94.2477 195.376 94.6029 196.205C94.8397 196.856 95.4911 197.271 96.1424 197.271C96.32 197.271 96.5568 197.211 96.7345 197.152C100.228 195.85 103.899 195.021 107.57 194.784C107.57 194.961 107.57 195.08 107.57 195.257V221.725V228.238V233.744H110.886V195.257C110.886 192.178 112.544 189.514 114.971 188.034V193.244C114.971 193.896 115.504 194.428 116.156 194.428C116.807 194.428 117.34 193.896 117.34 193.244V187.027C117.991 186.85 118.702 186.79 119.412 186.79C120.123 186.79 120.833 186.909 121.484 187.027V193.244C121.484 193.896 122.017 194.428 122.669 194.428C123.32 194.428 123.853 193.896 123.853 193.244V188.034C126.281 189.514 127.938 192.238 127.938 195.257V253.935H131.254V247.54V199.106H130.899ZM74.649 216.869C82.6424 216.869 89.2147 223.382 89.2147 231.435C89.2147 239.488 82.7016 246.001 74.649 246.001C66.6556 246.001 60.0832 239.488 60.0832 231.435C60.0832 223.382 66.6556 216.869 74.649 216.869Z" fill="black"/>
<path d="M77.3714 232.858L78.3779 233.746C77.6082 234.753 76.3056 235.049 75.4175 235.049C73.345 235.049 71.6279 233.391 71.6279 231.259C71.6279 229.187 73.2858 227.47 75.4175 227.47C77.1938 227.47 78.4372 228.713 78.6149 229.897L73.6411 233.036C74.1149 233.509 74.7069 233.746 75.3582 233.805C76.2464 233.864 77.0161 233.509 77.3714 232.858ZM72.9306 231.259C72.9306 231.555 72.9899 231.911 73.1082 232.207L77.2529 229.601C76.8977 229.068 76.2464 228.713 75.4767 228.713C74.1149 228.713 72.9306 229.838 72.9306 231.259Z" fill="black"/>
<path d="M79.5596 231.259C79.5596 229.187 81.2175 227.47 83.3491 227.47C85.4807 227.47 87.1386 229.128 87.1386 231.259C87.1386 233.391 85.4807 235.049 83.3491 235.049C81.2768 235.049 79.5596 233.391 79.5596 231.259ZM85.8359 231.259C85.8359 229.897 84.7109 228.772 83.2898 228.772C81.928 228.772 80.803 229.897 80.803 231.259C80.803 232.621 81.928 233.805 83.2898 233.805C84.7109 233.805 85.8359 232.68 85.8359 231.259Z" fill="black"/>
<path d="M67.0111 227.47C65.1756 227.47 63.6953 228.891 63.6953 230.667V234.989H65.0571V230.786C65.0571 229.72 65.9453 228.832 67.0111 228.832C68.0768 228.832 68.965 229.72 68.965 230.786V234.989H70.327V230.667C70.327 228.891 68.8467 227.47 67.0111 227.47Z" fill="black"/>
</g>
</g>
</svg>
