<svg width="600" height="400" viewBox="0 0 600 400" fill="none" xmlns="http://www.w3.org/2000/svg">
<path fill-rule="evenodd" clip-rule="evenodd" d="M218.243 109.066L214.98 125.144C247.155 125.021 348.383 87.6079 353.085 65.2833C353.085 65.2833 353.394 63.8198 353.698 62.3528C354.001 60.8845 354.297 59.4175 354.276 59.4175C310.425 89.0977 244.173 109.003 218.243 109.066ZM212.104 136.811L209.066 151.615C240.083 151.55 342.465 114.075 347.167 91.7559L348.466 85.3656C303.118 116.95 239.61 136.041 212.104 136.811ZM205.494 163.817L202.344 179.334L202.363 179.883C233.726 179.176 335.645 142.324 340.337 120.033L341.885 112.397C306.738 136.971 233.799 163.969 205.494 163.817Z" fill="url(#paint0_linear_3116_647)"/>
<mask id="mask0_3116_647" style="mask-type:luminance" maskUnits="userSpaceOnUse" x="50" y="211" width="500" height="128">
<path d="M550 211.14H50V338.412H550V211.14Z" fill="white"/>
</mask>
<g mask="url(#mask0_3116_647)">
<path fill-rule="evenodd" clip-rule="evenodd" d="M50.5393 213.39H62.2915V254.68H62.5611C66.7481 247.348 74.3108 242.594 84.8479 242.594C101.06 242.594 112.533 256.172 112.394 276.151C112.394 299.637 97.6798 311.322 83.0875 311.322C73.6315 311.322 66.0663 307.652 61.2094 298.962H60.8007L60.271 309.828H50C50.2732 305.342 50.5393 298.681 50.5393 292.848V213.39ZM62.2915 283.476C62.2915 284.968 62.5611 286.455 62.8343 287.821C65.1279 296.102 72.0136 301.815 80.6573 301.815C93.083 301.815 100.512 291.623 100.512 276.545C100.512 263.37 93.7553 252.094 81.0635 252.094C72.9555 252.094 65.394 257.666 62.9602 266.771C62.6941 268.13 62.2915 269.751 62.2915 271.657V283.476Z" fill="#165781"/>
<path fill-rule="evenodd" clip-rule="evenodd" d="M171.688 294.067C171.688 299.777 171.958 305.343 172.766 309.827H161.962L161.014 301.538H160.611C156.959 306.708 149.933 311.32 140.624 311.32C127.384 311.32 120.641 301.955 120.641 292.447C120.641 276.545 134.679 267.849 159.932 267.996V266.629C159.932 261.199 158.451 251.419 145.083 251.419C138.996 251.419 132.656 253.314 128.06 256.312L125.354 248.432C130.758 244.905 138.604 242.594 146.831 242.594C166.825 242.594 171.688 256.312 171.688 269.482V294.067ZM160.208 276.271C147.234 275.996 132.519 278.315 132.519 291.075C132.519 298.821 137.649 302.496 143.722 302.496C152.236 302.496 157.635 297.053 159.526 291.489C159.932 290.257 160.208 288.905 160.208 287.686V276.271Z" fill="#165781"/>
<path fill-rule="evenodd" clip-rule="evenodd" d="M189.925 261.869C189.925 255.08 189.781 249.523 189.382 244.079H199.907L200.589 254.945H200.859C204.104 248.706 211.666 242.585 222.474 242.585C231.51 242.585 245.562 248.022 245.562 270.566V309.82H233.673V271.925C233.673 261.326 229.765 252.495 218.55 252.495C210.717 252.495 204.634 258.071 202.609 264.729C202.07 266.215 201.797 268.256 201.797 270.305V309.82H189.925" fill="#165781"/>
<path fill-rule="evenodd" clip-rule="evenodd" d="M274.736 274.236H275.005C276.625 271.926 278.917 269.075 280.816 266.765L299.992 244.081H314.306L289.051 271.116L317.811 309.821H303.369L280.816 278.315L274.736 285.104V309.821H262.979V213.39H274.736" fill="#165781"/>
<path fill-rule="evenodd" clip-rule="evenodd" d="M415.74 246.409C415.297 245.881 414.858 245.344 414.389 244.863C413.623 244.059 412.767 243.309 411.855 242.599C406.939 238.556 400.995 236.178 394.588 236.178C387.675 236.178 381.308 238.97 376.181 243.617C376.032 243.712 375.902 243.818 375.753 243.898C375.569 243.998 375.309 244.126 375.007 244.044C374.165 243.824 373.266 242.921 373.259 241.629V214.748C373.259 213.06 371.881 211.694 370.194 211.694H357.186C355.489 211.694 354.121 213.06 354.121 214.748V215.677C354.121 215.719 354.11 215.745 354.11 215.778V218.899L354.135 305.562C354.135 307.282 355.519 308.674 357.223 308.674H368.999C369.749 308.674 370.43 308.394 370.963 307.939C370.986 307.924 371.009 307.924 371.02 307.913C371.039 307.898 371.043 307.878 371.056 307.863C371.309 307.643 371.506 307.376 371.671 307.088C371.874 306.707 372.017 306.304 372.062 305.856C372.298 303.942 373.593 302.884 374.398 303.158C374.674 303.245 374.937 303.379 375.206 303.573C375.482 303.747 375.753 303.927 376.019 304.102C376.817 304.691 380.326 307.109 383.046 308.326C384.417 308.936 388.784 310.428 393.852 310.428C398.926 310.428 402.529 309.298 403.379 309.069C404.233 308.842 405.071 308.555 405.878 308.179C409.849 306.466 413.041 304.102 415.467 301.116C417.867 298.183 419.857 294.709 421.464 290.718C423.861 285.468 425.225 279.443 425.225 273.03C425.225 262.551 421.579 253.118 415.74 246.409ZM388.886 296.59C379.354 296.59 371.625 286.259 371.625 273.532C371.625 260.797 379.354 250.473 388.886 250.473C398.409 250.473 406.131 260.797 406.131 273.532C406.131 286.259 398.409 296.59 388.886 296.59Z" fill="#165781"/>
<mask id="mask1_3116_647" style="mask-type:luminance" maskUnits="userSpaceOnUse" x="427" y="237" width="38" height="101">
<path d="M464.08 237.422H427.717V337.422H464.08V237.422Z" fill="white"/>
</mask>
<g mask="url(#mask1_3116_647)">
<path fill-rule="evenodd" clip-rule="evenodd" d="M459.075 243.893C459.061 243.721 459.046 243.546 459.032 243.379V241.081C459.032 239.355 457.644 237.955 455.93 237.955H442.826C441.105 237.955 439.714 239.355 439.714 241.081V312.105C439.648 313.912 437.461 316.391 434.931 317.006C433.766 317.368 432.602 317.535 431.423 317.481C430.251 317.441 429.447 317.916 428.99 318.913C428.812 319.355 428.683 319.951 428.58 320.681C428.501 321.404 428.601 329.017 428.657 329.646C428.704 330.283 428.812 330.819 428.99 331.273C429.532 332.09 430.482 332.631 431.826 332.907C432.276 333.094 440.982 333.114 446.832 331.688C449.133 331.132 450.978 330.014 452.518 328.842C454.037 327.657 455.393 326.165 456.572 324.344C457.927 322.174 458.666 319.436 458.804 316.129C458.846 315.131 459.032 312.527 459.032 312.219V247.69C459.046 247.342 459.055 246.995 459.075 246.619C459.118 245.714 459.118 244.805 459.075 243.893Z" fill="#165781"/>
</g>
<mask id="mask2_3116_647" style="mask-type:luminance" maskUnits="userSpaceOnUse" x="474" y="211" width="72" height="100">
<path fill-rule="evenodd" clip-rule="evenodd" d="M545.533 310.428V211.694H474.423V310.428H545.533Z" fill="white"/>
</mask>
<g mask="url(#mask2_3116_647)">
<path fill-rule="evenodd" clip-rule="evenodd" d="M536.047 246.409C535.612 245.881 535.174 245.344 534.696 244.863C533.931 244.059 533.072 243.309 532.167 242.599C527.252 238.556 521.306 236.178 514.895 236.178C507.986 236.178 501.625 238.97 496.499 243.617C496.343 243.712 496.213 243.818 496.057 243.898C495.878 243.998 495.627 244.126 495.323 244.044C494.48 243.824 493.577 242.921 493.563 241.629V214.748C493.563 213.06 492.193 211.694 490.506 211.694H477.502C475.803 211.694 474.433 213.06 474.433 214.748V215.677C474.433 215.719 474.423 215.745 474.423 215.778V218.899L474.439 305.562C474.439 307.282 475.827 308.674 477.537 308.674H489.301C490.059 308.674 490.745 308.394 491.28 307.939C491.297 307.924 491.311 307.924 491.327 307.913C491.346 307.898 491.354 307.878 491.372 307.863C491.61 307.643 491.821 307.376 491.986 307.088L491.993 307.073C492.193 306.707 492.329 306.304 492.372 305.856C492.609 303.942 493.897 302.884 494.706 303.158C494.983 303.245 495.255 303.379 495.522 303.573C495.786 303.747 496.057 303.927 496.333 304.102C497.126 304.691 500.64 307.109 503.356 308.326C504.727 308.936 509.088 310.428 514.167 310.428C519.233 310.428 522.831 309.298 523.689 309.069C524.545 308.842 525.38 308.555 526.189 308.179C530.147 306.466 533.351 304.102 535.782 301.116C538.181 298.183 540.169 294.709 541.776 290.718C544.168 285.468 545.534 279.443 545.534 273.03C545.534 262.551 541.882 253.118 536.047 246.409ZM509.197 296.59C499.665 296.59 491.939 286.259 491.939 273.532C491.939 260.797 499.665 250.473 509.197 250.473C518.724 250.473 526.446 260.797 526.446 273.532C526.446 286.259 518.724 296.59 509.197 296.59Z" fill="#165781"/>
</g>
<path fill-rule="evenodd" clip-rule="evenodd" d="M449.146 212.48C447.283 212.506 445.642 212.929 444.23 213.758C442.849 214.609 441.773 215.747 441.012 217.139C440.219 218.56 439.826 220.12 439.826 221.854C439.826 223.527 440.219 225.041 440.955 226.434C441.687 227.82 442.736 228.931 444.061 229.78C445.418 230.605 446.999 231.032 448.811 231.059C450.844 231.032 452.567 230.605 453.979 229.78C455.391 228.931 456.461 227.82 457.197 226.434C457.933 225.041 458.296 223.527 458.296 221.854C458.296 220.12 457.906 218.56 457.168 217.139C456.436 215.747 455.363 214.609 454.003 213.758C452.651 212.929 451.013 212.506 449.146 212.48Z" fill="#165781"/>
</g>
<defs>
<linearGradient id="paint0_linear_3116_647" x1="196.524" y1="134.71" x2="379.907" y2="124.465" gradientUnits="userSpaceOnUse">
<stop stop-color="#2BA7DF"/>
<stop offset="0.40625" stop-color="#175882"/>
<stop offset="1" stop-color="#EBC71B"/>
</linearGradient>
</defs>
</svg>
