<svg width="600" height="400" viewBox="0 0 600 400" fill="none" xmlns="http://www.w3.org/2000/svg">
<g clip-path="url(#clip0_3116_1068)">
<path d="M369.428 333.14L231.589 333.667C196.161 333.803 167.331 305.192 167.195 269.761L166.667 131.922C166.532 96.4943 195.142 67.6638 230.57 67.5279L368.413 67.0005C403.84 66.8646 432.671 95.4753 432.807 130.907L433.334 268.746C433.47 304.173 404.859 333.004 369.432 333.14H369.428Z" fill="#21A6DE"/>
<path d="M312.848 186.054C323.245 179.776 329.719 169.083 329.675 157.499C329.575 131.661 304.345 122.515 304.345 122.515C299.702 119.81 293.983 118.371 287.654 118.395C287.186 118.395 286.347 118.415 285.876 118.415C292.285 113.56 300.629 110.543 309.084 110.511C328.78 110.435 343.748 129.088 343.812 146.59C343.888 166.961 329.551 182.825 312.852 186.054M300.185 186.026C287.374 183.564 276.825 173.902 272.258 162.434C276.765 166.817 283.163 169.802 291.318 169.77C304.333 169.722 316.68 159.681 316.62 144.892C316.592 137.611 313.995 132.86 313.995 132.86C319.457 138.362 322.926 146.095 322.962 155.525C323.014 168.791 313.14 181.191 300.185 186.022M288.745 188.163C273.456 188.223 257.261 173.49 257.193 155.081C257.157 146.079 259.946 137.092 267.063 131.022C265.804 133.687 264.949 136.852 264.61 140.664C264.442 142.047 264.35 143.465 264.354 144.956C264.43 164.843 275.394 181.29 292.489 187.916C291.258 188.076 290.004 188.159 288.749 188.163M289.98 123.781C301.092 123.737 309.727 134.634 309.763 144.384C309.815 157.571 301.799 166.438 290.547 166.478C280.461 166.518 271.419 157.207 271.367 143.909C271.327 132.94 279.442 123.817 289.976 123.777M305.747 106.271C295.37 106.311 280.645 110.847 271.99 121.771C258.248 127.845 248.234 141.315 248.29 156.02C248.378 178.805 267.838 192.355 291.226 192.263C295.078 192.247 298.743 191.384 302.163 190.481C304.68 190.877 307.306 191.084 310.007 191.072C332.08 190.989 351.457 173.015 351.369 149.619C351.277 125.504 332.02 106.171 305.755 106.271" fill="white"/>
<path d="M271.72 243.031C271.784 259.394 263.84 270.647 248.939 270.707L235.21 270.758L235.285 290.478C235.285 291.417 234.706 292.049 233.827 292.053L225.448 292.085C224.568 292.085 223.989 291.461 223.985 290.522L223.693 214.164L249.011 214.069C262.454 214.017 271.648 224.362 271.72 243.035M260.42 242.871C260.364 227.874 252.272 225.177 245.551 225.205L235.038 225.245L235.17 259.642L245.683 259.602C252.404 259.578 260.48 257.764 260.424 242.871" fill="white"/>
<path d="M323.252 233.501L323.371 264.653C323.371 265.28 322.984 265.704 322.209 266.119C316.566 268.457 309.078 270.475 301.19 270.503C284.148 270.567 279.828 262.407 279.792 253.488C279.764 245.724 284.016 236.797 301.062 236.734C304.567 236.722 308.371 237.225 311.971 237.844L311.955 233.541C311.939 229.141 308.323 224.954 300.335 224.986C295.56 225.006 290.018 226.488 285.834 228.19C284.859 228.614 284.276 228.194 283.98 227.251L282.01 220.338C281.71 219.399 282.002 218.66 282.873 218.34C288.415 215.807 293.962 213.893 300.187 213.869C308.275 213.837 323.184 215.983 323.252 233.501ZM312.007 247.814C307.332 246.887 304.898 246.783 301.098 246.703C297.298 246.607 291.264 246.739 291.292 253.868C291.32 260.997 297.162 260.877 301.15 260.545C305.142 260.317 306.988 260.102 312.051 258.619L312.011 247.814H312.007Z" fill="white"/>
<path d="M355.439 270.983C369.452 270.931 376.577 259.279 376.577 259.279L376.401 212.894L365.177 212.938L365.34 255.586C365.34 255.586 361.852 259.874 355.399 259.898C348.294 259.926 344.346 254.068 344.326 248.849L344.19 213.018L332.93 213.062L333.066 248.893C333.106 259.666 340.694 271.038 355.443 270.983" fill="white"/>
<path d="M365.402 272.227C365.43 279.791 360.671 284.082 350.481 284.438L350.525 295.95C362.082 295.906 376.699 289.557 376.631 272.183L376.415 215.752L365.182 215.796L365.398 272.227H365.402Z" fill="white"/>
</g>
<defs>
<clipPath id="clip0_3116_1068">
<rect width="400" height="266.667" fill="white" transform="translate(100 67)"/>
</clipPath>
</defs>
</svg>
