<svg width="600" height="400" viewBox="0 0 600 400" fill="none" xmlns="http://www.w3.org/2000/svg">
<path d="M74.0021 211.734C74.0021 208.196 74.6591 204.874 75.9731 201.769C77.3241 198.664 79.1501 195.956 81.4501 193.645C83.7861 191.298 86.5061 189.456 89.6101 188.12C92.7131 186.784 96.0531 186.116 99.6311 186.116C103.209 186.116 106.568 186.784 109.708 188.12C112.884 189.456 115.64 191.298 117.978 193.645C120.35 195.955 122.212 198.664 123.563 201.769C124.95 204.874 125.644 208.196 125.644 211.734V232.477C125.644 233.307 125.48 234.084 125.151 234.807C124.866 235.519 124.437 236.164 123.891 236.702C123.351 237.227 122.721 237.649 122.03 237.948C121.28 238.241 120.48 238.388 119.675 238.381C118.835 238.381 118.032 238.236 117.265 237.948C116.55 237.633 115.886 237.213 115.294 236.702C114.743 236.156 114.298 235.514 113.979 234.806C113.649 234.075 113.481 233.28 113.487 232.477V211.788C113.45 209.911 113.048 208.159 112.282 206.535C111.574 204.906 110.55 203.434 109.27 202.202C108.028 200.974 106.568 199.999 104.889 199.277C103.246 198.555 101.493 198.194 99.6311 198.194C97.6961 198.194 95.9071 198.555 94.2651 199.277C92.6837 199.946 91.2505 200.922 90.0481 202.147C88.8431 203.339 87.8941 204.766 87.2001 206.427C86.5431 208.087 86.2141 209.857 86.2141 211.734V232.477C86.2141 233.307 86.0501 234.084 85.7211 234.807C85.4357 235.519 85.0068 236.164 84.4611 236.702C83.9214 237.227 83.2908 237.649 82.6001 237.948C81.8678 238.237 81.0873 238.384 80.3001 238.381C79.4601 238.381 78.6571 238.236 77.8901 237.948C77.1537 237.642 76.4701 237.221 75.8641 236.702C75.3077 236.149 74.8449 235.509 74.4941 234.806C74.1638 234.075 73.9959 233.28 74.0021 232.477V211.734ZM151.159 218.016C151.629 219.38 152.313 220.66 153.186 221.808C154.04 222.942 155.055 223.946 156.198 224.787C157.366 225.617 158.644 226.267 160.031 226.737C161.463 227.208 162.96 227.446 164.467 227.441C166.11 227.441 167.461 227.314 168.519 227.061C169.579 226.772 170.593 226.334 171.531 225.761C172.846 225.003 174.032 224.624 175.091 224.624C175.931 224.624 176.716 224.804 177.446 225.166C178.176 225.491 178.797 225.942 179.308 226.52C179.856 227.099 180.284 227.78 180.567 228.524C180.896 229.282 181.06 230.058 181.06 230.853C181.06 232.08 180.659 233.2 179.856 234.211C179.052 235.221 177.921 236.088 176.46 236.81C175 237.496 173.247 238.02 171.203 238.381C169.158 238.778 166.913 238.977 164.467 238.977C160.78 238.977 157.293 238.291 154.007 236.919C150.758 235.51 147.91 233.615 145.464 231.232C143.018 228.849 141.083 226.069 139.659 222.892C138.272 219.678 137.579 216.247 137.579 212.601C137.579 208.918 138.272 205.47 139.659 202.256C141.083 199.043 143.018 196.244 145.464 193.861C147.91 191.478 150.758 189.601 154.007 188.229C157.293 186.82 160.78 186.116 164.467 186.116C168.118 186.116 171.55 186.802 174.763 188.174C178.012 189.546 180.841 191.406 183.251 193.753C185.697 196.1 187.632 198.88 189.056 202.093C190.516 205.271 191.283 208.665 191.356 212.276C191.356 214.009 190.79 215.399 189.658 216.446C188.563 217.493 187.139 218.016 185.387 218.016H151.159ZM178.87 207.943C178.441 206.447 177.756 205.036 176.844 203.773C175.976 202.518 174.902 201.42 173.667 200.523C172.434 199.57 171.044 198.837 169.56 198.357C168.027 197.851 166.402 197.598 164.686 197.598C162.97 197.598 161.345 197.869 159.812 198.411C158.352 198.932 156.985 199.682 155.76 200.631C154.55 201.539 153.496 202.636 152.638 203.881C151.806 205.128 151.178 206.499 150.776 207.943H178.87ZM225.688 220.941L209.916 236.648C209.326 237.242 208.617 237.704 207.835 238.002C207.095 238.256 206.318 238.385 205.535 238.381C204.713 238.384 203.896 238.237 203.126 237.948C202.401 237.627 201.735 237.188 201.154 236.648C200.613 236.115 200.168 235.492 199.84 234.806C199.513 234.093 199.345 233.317 199.347 232.532C199.347 231.773 199.493 231.033 199.785 230.311C200.077 229.589 200.533 228.921 201.154 228.307L217.09 212.384L200.935 196.19C200.368 195.638 199.921 194.974 199.621 194.24C199.367 193.528 199.237 192.777 199.237 192.02C199.237 191.226 199.402 190.467 199.73 189.745C200.039 189.017 200.485 188.355 201.045 187.795C201.599 187.249 202.249 186.808 202.961 186.495C203.703 186.168 204.505 186.002 205.316 186.008C206.923 186.008 208.346 186.586 209.588 187.741L225.688 203.827L241.624 187.85C242.245 187.236 242.92 186.784 243.651 186.496C244.421 186.207 245.237 186.06 246.06 186.062C246.9 186.062 247.685 186.225 248.415 186.55C249.145 186.875 249.784 187.326 250.332 187.904C250.88 188.483 251.308 189.164 251.591 189.908C251.92 190.63 252.084 191.388 252.084 192.182C252.084 192.904 251.938 193.627 251.646 194.349C251.385 195.044 250.973 195.673 250.441 196.19L234.231 212.384L250.003 228.09C251.172 229.318 251.756 230.744 251.756 232.37C251.756 233.2 251.591 233.976 251.263 234.698C250.945 235.406 250.499 236.048 249.948 236.594C249.394 237.14 248.744 237.581 248.032 237.893C247.309 238.217 246.525 238.384 245.732 238.381C244.949 238.342 244.176 238.197 243.432 237.948C242.693 237.654 242.022 237.211 241.46 236.648L225.688 220.941Z" fill="#327AF9"/>
<path d="M303.53 239.666C315.984 239.666 324.213 235.382 331.685 228.636C332.443 227.993 333.093 226.922 333.093 225.636C333.093 223.495 331.144 221.566 328.978 221.566C327.895 221.566 326.921 222.102 326.271 222.745C319.774 228.635 313.168 231.848 303.747 231.848C287.071 231.848 274.401 218.247 274.401 200.898V200.683C274.401 183.441 286.962 169.947 303.747 169.947C313.06 169.947 319.665 173.374 325.513 178.515C326.163 178.943 327.137 179.479 328.328 179.479C330.602 179.479 332.66 177.551 332.66 175.302C332.66 173.802 331.794 172.624 330.927 171.875C323.889 166.092 316.092 162.129 303.855 162.129C281.548 162.129 265.521 179.693 265.521 200.898V201.112C265.521 222.638 281.656 239.666 303.53 239.666ZM368.425 239.559C378.28 239.559 384.777 235.061 388.675 230.027V235.061C388.675 237.203 390.3 238.916 392.682 238.916C394.956 238.916 396.689 237.203 396.689 234.846V204.54C396.689 197.472 394.74 192.117 390.949 188.368C386.835 184.298 380.77 182.264 372.865 182.264C365.718 182.264 360.087 183.656 354.565 186.012C353.482 186.441 352.291 187.726 352.291 189.439C352.291 191.367 354.023 192.974 355.972 192.974C356.405 192.974 356.947 192.866 357.488 192.652C361.603 190.832 366.368 189.547 371.999 189.547C382.503 189.547 388.675 194.687 388.675 204.647V206.575C383.694 205.182 378.605 204.219 371.458 204.219C357.272 204.219 347.526 210.43 347.526 222.103V222.318C347.526 233.67 358.03 239.559 368.425 239.559ZM370.05 233.026C362.47 233.026 355.972 228.956 355.972 221.996V221.781C355.972 214.82 361.82 210.322 372.324 210.322C379.146 210.322 384.669 211.5 388.784 212.678V218.033C388.784 226.815 380.337 233.026 370.05 233.026ZM437.308 239.452C448.462 239.452 457.233 233.347 457.233 222.852V222.638C457.233 212.678 447.92 209.358 439.257 206.788C431.785 204.538 424.855 202.504 424.855 197.256V197.042C424.855 192.437 429.078 189.01 435.684 189.01C440.448 189.01 445.538 190.616 450.302 193.294C450.876 193.573 451.505 193.72 452.143 193.722C454.201 193.722 455.825 192.116 455.825 190.188C455.825 188.582 454.851 187.404 453.768 186.761C448.353 183.869 441.856 182.049 435.9 182.049C424.855 182.049 416.841 188.368 416.841 197.899V198.113C416.841 208.287 426.587 211.286 435.359 213.749C442.722 215.784 449.328 217.926 449.328 223.495V223.709C449.328 229.064 444.455 232.491 437.741 232.491C431.677 232.491 425.721 230.456 419.982 226.601C419.44 226.172 418.682 225.958 417.924 225.958C415.867 225.958 414.242 227.564 414.242 229.492C414.242 230.884 415 231.955 415.758 232.491C421.823 236.774 429.944 239.452 437.308 239.452ZM477.055 234.74C477.055 237.096 478.896 238.916 481.278 238.916C483.66 238.916 485.393 237.096 485.393 234.74V206.68C485.393 196.293 492.54 189.331 502.178 189.331C512.032 189.331 517.663 195.757 517.663 206.038V234.74C517.663 237.096 519.504 238.916 521.886 238.916C524.16 238.916 526.001 237.096 526.001 234.74V204.003C526.001 190.831 518.096 181.835 504.56 181.835C494.922 181.835 489.075 186.654 485.393 192.651V163.843C485.393 161.593 483.552 159.666 481.17 159.666C478.896 159.666 477.055 161.594 477.055 163.843V234.74Z" fill="#54ABEE"/>
</svg>
