<svg width="600" height="400" viewBox="0 0 600 400" fill="none" xmlns="http://www.w3.org/2000/svg">
<path d="M344.71 131.009C327.018 133.575 311.618 142.65 304.56 154.75C301.077 160.8 299.06 169.6 299.61 176.475C300.618 189.584 309.51 199.667 328.76 209.75C334.993 213.05 341.593 217.175 343.518 219.009C346.543 221.85 347.002 222.859 347.002 226.434C347.002 231.659 344.802 234.5 338.935 237.067C329.218 241.284 314.46 240.459 299.793 234.959C295.302 233.217 291.452 231.934 291.36 232.117C290.81 232.667 285.31 260.167 285.677 260.534C286.96 261.817 303.185 265.667 311.343 266.675C343.06 270.342 369.827 259.617 379.268 239.45C381.652 234.317 382.202 231.934 382.568 224.509C382.843 217.084 382.66 214.884 380.918 210.392C377.16 200.492 370.835 195.084 347.552 182.159C339.21 177.484 335.085 173.267 335.085 169.417C335.085 166.117 338.843 161.534 342.968 159.792C350.668 156.584 364.602 157.317 377.16 161.625L383.485 163.734L386.327 150.534C387.885 143.292 389.168 137.059 389.168 136.6C389.168 135.5 377.252 132.017 369.46 130.917C361.943 129.909 352.41 129.909 344.71 131.009Z" fill="#1434CB"/>
<path d="M79.8841 134.217C79.5174 135.042 79.4258 135.867 79.5174 135.959C79.7008 136.142 83.9174 137.334 88.9591 138.709C99.4091 141.551 112.792 146.776 115.634 149.067C116.642 149.984 118.201 151.726 118.934 152.917C119.759 154.201 126.267 177.851 133.417 205.626C140.476 233.309 146.984 258.242 147.717 260.901L149.092 265.667L167.059 265.484L185.117 265.209L212.434 200.126C227.467 164.284 239.934 134.492 240.117 133.851C240.484 133.026 236.542 132.751 222.334 132.751C211.609 132.751 204.001 133.117 204.001 133.576C204.001 134.034 198.042 149.434 190.801 167.767C183.559 186.101 175.859 205.717 173.659 211.309C171.459 216.992 169.442 221.667 169.167 221.667C168.892 221.667 165.409 204.434 161.467 183.351C153.676 141.276 152.759 138.251 146.617 134.859C143.134 132.842 142.401 132.751 111.784 132.751C83.5508 132.751 80.4341 132.934 79.8841 134.217Z" fill="#1434CB"/>
<path d="M254.417 137.976C253.776 140.909 247.542 170.059 240.576 202.876C233.609 235.601 227.834 263.192 227.834 264.017C227.834 265.576 229.209 265.667 244.792 265.667C254.417 265.667 261.751 265.301 261.751 264.842C261.751 264.384 267.984 235.051 275.501 199.667C283.109 164.284 289.251 134.767 289.251 134.034C289.251 132.934 286.317 132.751 272.384 132.751H255.426L254.417 137.976Z" fill="#1434CB"/>
<path d="M440.042 134.492C438.576 135.409 436.559 136.967 435.734 137.976C434.817 138.892 425.834 159.517 415.659 183.717C388.251 249.167 381.834 264.567 381.834 265.117C381.834 265.484 389.809 265.667 399.617 265.667H417.401L420.884 255.584L424.459 245.501H446.551H468.734L470.292 252.559C471.117 256.501 472.126 260.901 472.492 262.459L473.134 265.209L488.167 265.484C496.417 265.576 503.476 265.392 503.751 265.026C504.117 264.567 499.534 241.009 493.576 212.501C487.617 183.992 481.384 154.384 479.826 146.684L476.892 132.751H459.842C444.809 132.751 442.426 132.934 440.042 134.492ZM457.826 192.517C460.392 205.259 462.501 216.351 462.501 217.084C462.501 218.276 460.484 218.459 449.026 218.184C441.509 218.001 435.367 217.726 435.184 217.542C434.634 217.084 451.867 169.417 452.509 169.417C452.784 169.417 455.167 179.867 457.826 192.517Z" fill="#1434CB"/>
</svg>
