<svg width="600" height="400" viewBox="0 0 600 400" fill="none" xmlns="http://www.w3.org/2000/svg">
<circle cx="300.404" cy="153.644" r="100.058" fill="#5D242D"/>
<path d="M300.405 60.3013C322.828 60.3014 343.404 68.2094 359.498 81.3872V225.901C343.404 239.079 322.828 246.987 300.405 246.987C278.291 246.987 257.974 239.297 241.981 226.446V80.8413C257.974 67.9906 278.292 60.3013 300.405 60.3013Z" fill="white"/>
<path d="M348.794 152.839C348.794 174.487 327.2 241.66 300.563 241.66C273.926 241.66 252.332 174.646 252.332 152.839C252.332 131.031 273.926 64.0176 300.563 64.0176C327.2 64.0176 348.794 130.713 348.794 152.839Z" fill="#FB7127"/>
<path d="M293.718 72.4541C267.772 96.9675 239.216 167.642 293.718 235.134C281.462 209.612 264.302 141.346 293.718 72.4541Z" fill="#018E42"/>
<path d="M307.726 72.4541C333.672 96.9675 362.229 167.642 307.726 235.134C319.983 209.612 337.142 141.346 307.726 72.4541Z" fill="#018E42"/>
<path d="M309 152.839C309 171.94 305.294 234.338 300.722 234.338C296.151 234.338 292.445 171.94 292.445 152.839C292.445 133.738 296.151 71.3398 300.722 71.3398C305.294 71.3398 309 133.738 309 152.839Z" fill="#018E42"/>
<path d="M460 303.694C460 309.282 458.953 314.069 456.859 318.054C454.782 322.022 451.946 325.061 448.349 327.172C444.77 329.282 440.709 330.338 436.167 330.338C431.625 330.338 427.556 329.282 423.959 327.172C420.38 325.044 417.543 321.997 415.449 318.029C413.373 314.044 412.334 309.266 412.334 303.694C412.334 298.105 413.373 293.326 415.449 289.358C417.543 285.374 420.38 282.326 423.959 280.215C427.556 278.105 431.625 277.049 436.167 277.049C440.709 277.049 444.77 278.105 448.349 280.215C451.946 282.326 454.782 285.374 456.859 289.358C458.953 293.326 460 298.105 460 303.694ZM450.553 303.694C450.553 299.759 449.937 296.441 448.704 293.74C447.488 291.021 445.8 288.97 443.639 287.585C441.477 286.184 438.987 285.483 436.167 285.483C433.347 285.483 430.857 286.184 428.695 287.585C426.534 288.97 424.837 291.021 423.605 293.74C422.389 296.441 421.781 299.759 421.781 303.694C421.781 307.628 422.389 310.954 423.605 313.672C424.837 316.374 426.534 318.425 428.695 319.827C430.857 321.211 433.347 321.904 436.167 321.904C438.987 321.904 441.477 321.211 443.639 319.827C445.8 318.425 447.488 316.374 448.704 313.672C449.937 310.954 450.553 307.628 450.553 303.694Z" fill="black"/>
<path d="M379.548 329.629H361.971V277.759H379.903C385.053 277.759 389.476 278.797 393.174 280.874C396.889 282.934 399.742 285.897 401.735 289.764C403.727 293.63 404.723 298.257 404.723 303.643C404.723 309.046 403.719 313.69 401.709 317.573C399.717 321.457 396.838 324.437 393.073 326.514C389.324 328.59 384.816 329.629 379.548 329.629ZM371.367 321.499H379.092C382.706 321.499 385.72 320.84 388.134 319.523C390.549 318.189 392.364 316.205 393.579 313.571C394.795 310.921 395.403 307.611 395.403 303.643C395.403 299.675 394.795 296.383 393.579 293.766C392.364 291.132 390.565 289.164 388.185 287.864C385.821 286.547 382.883 285.889 379.371 285.889H371.367V321.499Z" fill="black"/>
<path d="M351.733 277.759V329.629H343.375L318.934 294.297H318.503V329.629H309.107V277.759H317.516L341.931 313.116H342.387V277.759H351.733Z" fill="black"/>
<path d="M298.932 277.759V329.629H289.535V277.759H298.932Z" fill="black"/>
<path d="M241.268 329.629V277.759H250.664V301.592H251.297L271.534 277.759H283.007L262.948 301.034L283.184 329.629H271.888L256.414 307.392L250.664 314.179V329.629H241.268Z" fill="black"/>
<path d="M223.14 292.018C222.904 289.806 221.908 288.084 220.152 286.851C218.412 285.618 216.15 285.002 213.364 285.002C211.405 285.002 209.725 285.298 208.324 285.889C206.922 286.479 205.85 287.281 205.107 288.295C204.364 289.308 203.984 290.464 203.967 291.764C203.967 292.845 204.212 293.782 204.702 294.576C205.209 295.369 205.892 296.045 206.753 296.602C207.615 297.142 208.569 297.598 209.615 297.97C210.662 298.341 211.718 298.653 212.781 298.907L217.644 300.122C219.603 300.578 221.485 301.195 223.292 301.971C225.116 302.748 226.745 303.727 228.18 304.909C229.632 306.091 230.781 307.518 231.625 309.19C232.469 310.861 232.891 312.82 232.891 315.065C232.891 318.105 232.114 320.781 230.561 323.094C229.008 325.39 226.762 327.189 223.824 328.489C220.903 329.772 217.366 330.414 213.212 330.414C209.176 330.414 205.673 329.789 202.701 328.539C199.746 327.29 197.433 325.466 195.761 323.069C194.107 320.671 193.212 317.75 193.077 314.306H202.321C202.456 316.112 203.013 317.615 203.993 318.814C204.972 320.013 206.247 320.908 207.817 321.499C209.404 322.09 211.177 322.385 213.136 322.385C215.179 322.385 216.969 322.081 218.505 321.473C220.059 320.848 221.274 319.987 222.152 318.89C223.03 317.775 223.478 316.475 223.495 314.989C223.478 313.639 223.081 312.524 222.304 311.646C221.528 310.751 220.439 310.008 219.037 309.417C217.653 308.81 216.032 308.269 214.174 307.797L208.273 306.277C204.001 305.179 200.624 303.516 198.142 301.287C195.677 299.042 194.444 296.062 194.444 292.347C194.444 289.291 195.272 286.615 196.927 284.318C198.598 282.022 200.869 280.241 203.74 278.974C206.61 277.691 209.86 277.049 213.49 277.049C217.171 277.049 220.396 277.691 223.165 278.974C225.951 280.241 228.138 282.005 229.725 284.268C231.312 286.513 232.131 289.097 232.182 292.018H223.14Z" fill="black"/>
<path d="M150.837 329.629H140.808L159.069 277.759H170.668L188.955 329.629H178.925L165.071 288.396H164.666L150.837 329.629ZM151.167 309.291H178.52V316.839H151.167V309.291Z" fill="black"/>
</svg>
