<svg width="600" height="400" viewBox="0 0 600 400" fill="none" xmlns="http://www.w3.org/2000/svg">
<g clip-path="url(#clip0_525_929)">
<path d="M130.726 239.184C130.726 233.188 130.791 217.162 130.644 215.187C130.772 191.34 113.434 174.518 102.48 175.829C94.8999 176.487 88.5476 179.578 85.1368 188.469C81.9755 196.755 84.8018 207.777 95.3122 210.363C106.551 213.141 113.114 215.452 117.863 218.712C123.682 222.703 128.433 230.329 128.559 239.193" fill="#0060AF"/>
<path d="M135.213 275.433C115.396 275.433 95.0303 270.553 74.6916 260.899L74.1925 260.654L73.9538 260.145C64.8267 240.879 60 219.807 60 199.19C60 178.605 64.6287 158.434 73.7626 139.194L74.0135 138.683L74.522 138.428C93.3364 129.515 113.576 125 134.697 125C154.373 125 175.386 130.026 195.454 139.56L195.97 139.789L196.207 140.31C205.509 159.931 210.414 180.998 210.414 201.273C210.414 221.47 205.704 241.658 196.392 261.267L196.146 261.782L195.628 262.021C177.101 270.791 156.208 275.433 135.213 275.433ZM76.5739 258.257C96.3322 267.551 116.038 272.245 135.213 272.245C155.545 272.245 175.765 267.801 193.765 259.376C202.706 240.375 207.238 220.819 207.238 201.273C207.238 181.649 202.508 161.236 193.56 142.192C174.084 133.037 153.744 128.182 134.697 128.182C114.249 128.182 94.6492 132.519 76.4031 141.075C67.6448 159.724 63.187 179.265 63.187 199.19C63.187 219.153 67.8198 239.575 76.5739 258.257Z" fill="#0060AF"/>
<path d="M126.03 239.193C126.067 231.507 121.777 224.711 116.171 221.059C111.197 217.832 104.521 215.71 93.7501 212.979C90.4206 212.127 86.9379 210.236 85.8598 207.824C83.0077 210.698 82.4896 217.159 82.9914 220.934C83.5746 225.304 88.6806 232.505 96.3688 232.788C101.064 232.976 107 231.777 109.847 231.172C114.757 230.112 122.527 233.188 123.764 239.183" fill="#0060AF"/>
<path d="M134.697 138.662C121.662 138.662 110.401 147.259 110.442 162.135C110.483 174.644 120.543 181.341 124.133 186.125C129.557 193.333 132.494 201.864 132.799 214.919C133.036 225.309 133.024 235.568 133.077 239.204H135.955C135.904 235.4 135.774 224.509 135.923 214.598C136.119 201.539 139.161 193.333 144.588 186.125C148.209 181.341 158.261 174.644 158.283 162.135C158.332 147.259 147.078 138.662 134.053 138.662" fill="#0060AF"/>
<path d="M138.007 239.184C138.007 233.188 137.939 217.162 138.084 215.187C137.956 191.34 155.284 174.518 166.248 175.829C173.827 176.487 180.173 179.578 183.593 188.469C186.752 196.755 183.909 207.777 173.411 210.363C162.167 213.141 155.613 215.452 150.851 218.712C145.038 222.703 140.62 230.329 140.484 239.193" fill="#0060AF"/>
<path d="M142.7 239.193C142.659 231.507 146.948 224.711 152.538 221.059C157.531 217.832 164.216 215.71 174.977 212.979C178.313 212.127 181.792 210.236 182.851 207.824C185.717 210.698 186.234 217.159 185.732 220.934C185.136 225.304 180.044 232.505 172.369 232.788C167.675 232.976 161.708 231.777 158.874 231.172C153.982 230.112 146.191 233.188 144.949 239.183" fill="#0060AF"/>
<path d="M146.721 264.005L145.053 251.833L149.079 251.223C150.06 251.088 151.253 251.259 151.731 251.874C152.258 252.515 152.42 253.045 152.521 253.886C152.673 254.926 152.372 256.129 151.2 256.729V256.765C152.509 256.765 153.3 257.705 153.529 259.292C153.563 259.627 153.662 260.436 153.563 261.112C153.297 262.719 152.338 263.236 150.72 263.462L146.721 264.005ZM149.313 261.825C149.79 261.757 150.274 261.732 150.652 261.49C151.232 261.112 151.179 260.302 151.099 259.702C150.897 258.381 150.552 257.879 149.151 258.086L148.271 258.222L148.828 261.893L149.313 261.825ZM148.469 256.201C149.002 256.115 149.725 256.051 150.026 255.545C150.183 255.207 150.385 254.939 150.252 254.187C150.088 253.296 149.793 252.744 148.662 252.958L147.608 253.128L148.023 256.247" fill="#0060AF"/>
<path d="M164.163 256.682C164.194 256.908 164.231 257.161 164.245 257.387C164.57 259.607 164.163 261.445 161.668 261.951C157.979 262.661 157.272 260.369 156.623 257.161L156.277 255.425C155.768 252.354 155.55 250.03 159.147 249.314C161.174 248.944 162.514 249.75 163.072 251.768C163.158 252.069 163.267 252.368 163.307 252.67L161.101 253.126C160.846 252.368 160.508 251.013 159.516 251.127C157.734 251.341 158.322 253.559 158.505 254.485L159.168 257.817C159.368 258.825 159.764 260.434 161.306 260.124C162.558 259.873 162.012 257.923 161.901 257.124" fill="#0060AF"/>
<path d="M167.704 260.366L166.94 247.77L169.905 246.865L176.12 257.821L173.786 258.519L172.314 255.735L169.722 256.513L170.057 259.678L167.704 260.366ZM169.505 254.479L171.378 253.936L168.891 248.84" fill="#0060AF"/>
<path d="M94.4804 250.843C95.4081 247.872 96.2394 245.686 99.7791 246.657C101.674 247.186 102.848 248.022 102.792 250.223C102.783 250.712 102.622 251.211 102.516 251.695L100.312 251.087C100.601 249.871 100.784 248.907 99.2868 248.446C97.5563 247.971 97.1345 250.069 96.8958 250.975L95.9994 254.278C95.7146 255.258 95.3728 256.879 96.8958 257.297C98.1543 257.636 98.9179 256.4 99.3736 254.596L97.8316 254.188L98.3646 252.277L101.99 253.444L100.269 259.808L98.6005 259.355L98.9762 258.01H98.9287C98.1611 259.11 97.224 259.225 96.4035 259.068C92.7784 258.087 93.1568 255.718 94.022 252.553" fill="#0060AF"/>
<path d="M107.973 256.22L106.882 261.397L104.424 260.866L107.043 248.775L111.232 249.722C113.684 250.251 114.425 251.343 114.078 253.59C113.88 254.88 113.244 256.27 111.691 256.157L111.674 256.136C112.987 256.596 113.098 257.258 112.869 258.402C112.77 258.889 112.088 261.844 112.559 262.322L112.575 262.684L110.032 262.021C109.926 261.201 110.286 259.729 110.428 258.913C110.572 258.192 110.801 257.175 110.069 256.792C109.495 256.487 109.282 256.502 108.634 256.353L107.973 256.22ZM108.393 254.347L110.047 254.793C111.052 254.938 111.611 254.417 111.809 253.203C111.988 252.09 111.756 251.655 110.854 251.439L109.08 251.08" fill="#0060AF"/>
<path d="M123.736 251.477L126.166 251.759L125.119 260.258C124.61 262.953 123.569 264.131 120.604 263.763C117.588 263.381 116.872 262.008 117.055 259.291L118.109 250.799L120.558 251.08L119.507 259.382C119.396 260.284 119.187 261.62 120.791 261.781C122.214 261.89 122.537 260.947 122.697 259.775" fill="#0060AF"/>
<path d="M128.845 264.228L129.576 252.074L134.246 252.276C136.452 252.385 137.03 254.187 136.961 255.907C136.897 256.952 136.57 258.12 135.659 258.753C134.911 259.292 133.951 259.419 133.06 259.376L131.539 259.292L131.235 264.385L128.845 264.228ZM131.608 257.438L132.845 257.507C133.85 257.544 134.515 257.146 134.602 255.671C134.651 254.254 134.115 254.014 132.813 253.957L131.833 253.923" fill="#0060AF"/>
<path d="M458.171 150.41L439.613 184.094C432.608 178.406 424.055 174.22 413.141 174.22C387.315 174.22 376.825 193.471 376.825 207.031C376.825 217.097 383.416 231.948 406.396 231.948C416.041 231.948 429.753 225.238 433.7 222.185L415.345 261.264C406.596 263.009 403.723 264.091 396.316 264.32C355.187 265.548 338.567 240.282 338.58 214.464C338.607 180.335 368.951 138.827 419.255 138.827C422.338 138.827 426.108 139.893 429.331 141.074L432.589 136.908" fill="#0060AF"/>
<path d="M534.745 137.963L540 260.388H500.89L500.867 239.392H474.199L465.422 260.388H423.007L467.35 172.966L457.351 172.901L476.35 137.963H534.745ZM500.614 175.415L485.536 211.025H501.068" fill="#0060AF"/>
<path d="M313.889 137.964C333.256 138.073 344.201 148.586 344.201 163.772C344.201 177.772 332.658 190.165 319.987 196.573C333.033 201.369 334.161 213.14 334.161 221.469C334.161 241.589 313.971 260.39 287.728 260.39H230.494L252.82 174.185L243.649 174.132L262.396 137.964C262.396 137.964 298.139 137.856 313.889 137.964ZM294.887 187.601C298.893 187.601 305.967 186.586 307.736 178.833C309.674 170.416 303.035 170.19 299.851 170.19L288.472 170.14L284.504 187.601L294.887 187.601ZM278.8 209.235L273.561 229.355H286.959C292.23 229.355 299.414 226.739 301.174 220.191C302.913 213.624 297.891 209.235 292.639 209.235" fill="#0060AF"/>
</g>
<defs>
<clipPath id="clip0_525_929">
<rect width="480" height="150.433" fill="white" transform="translate(60 125)"/>
</clipPath>
</defs>
</svg>
