<svg width="600" height="400" viewBox="0 0 600 400" fill="none" xmlns="http://www.w3.org/2000/svg">
<g clip-path="url(#clip0_533_532)">
<path d="M60 271.381V241.842H69.3233C71.6894 241.702 74.0163 242.493 75.8068 244.046C76.5605 244.72 77.1602 245.549 77.5652 246.475C77.9702 247.401 78.171 248.404 78.1538 249.415C78.2369 250.672 77.9649 251.927 77.3687 253.037C76.7726 254.146 75.8763 255.066 74.7824 255.691C78.3354 256.884 80.1118 259.244 80.1118 262.771C80.1429 263.945 79.911 265.11 79.4331 266.183C78.9552 267.255 78.2434 268.207 77.3499 268.969C75.2798 270.651 72.6618 271.51 69.9976 271.381H60ZM63.164 254.731H69.5308C71.0056 254.82 72.4555 254.321 73.5635 253.344C74.0456 252.879 74.4241 252.318 74.6744 251.696C74.9247 251.075 75.041 250.408 75.0158 249.739C75.025 249.078 74.8999 248.423 74.648 247.812C74.3961 247.201 74.0227 246.648 73.5505 246.186C73.012 245.688 72.3783 245.303 71.6876 245.056C70.9968 244.809 70.2632 244.703 69.5308 244.747H63.164V254.731ZM63.164 268.515H70.3736C72.153 268.636 73.915 268.101 75.327 267.011C75.8874 266.512 76.3303 265.895 76.624 265.204C76.9177 264.514 77.0549 263.767 77.0257 263.017C77.0532 262.265 76.9167 261.516 76.6256 260.822C76.3345 260.127 75.8958 259.505 75.34 258.997C73.9346 257.884 72.161 257.343 70.3736 257.48H63.164V268.515Z" fill="#231F20"/>
<path d="M81.9268 271.381L95.0753 241.842H97.6687L110.856 271.381H107.472L103.361 262.187H89.2531L85.1685 271.381H81.9268ZM96.3072 246.289L90.5628 259.256H102.09L96.3072 246.289Z" fill="#231F20"/>
<path d="M140.059 271.381H137.271L118.417 247.21V271.381H115.253V241.842H118.041L136.895 266.012V241.842H140.059V271.381Z" fill="#231F20"/>
<path d="M161.442 271.887C157.391 271.887 153.506 270.277 150.641 267.413C147.776 264.548 146.167 260.663 146.167 256.612C146.167 252.56 147.776 248.675 150.641 245.81C153.506 242.946 157.391 241.336 161.442 241.336C164.642 241.273 167.777 242.237 170.389 244.085C172.734 245.644 174.513 247.918 175.459 250.569H171.971C171.084 248.688 169.658 247.112 167.874 246.043C165.925 244.851 163.674 244.244 161.39 244.293C159.79 244.257 158.2 244.556 156.722 245.17C155.244 245.784 153.91 246.7 152.806 247.859C150.574 250.216 149.331 253.339 149.331 256.586C149.331 259.832 150.574 262.955 152.806 265.312C153.914 266.463 155.25 267.371 156.728 267.978C158.205 268.585 159.793 268.878 161.39 268.839C162.87 268.883 164.343 268.627 165.72 268.085C167.097 267.544 168.351 266.728 169.404 265.688C171.549 263.563 172.845 260.727 173.048 257.714H161.377V254.731H176.302C176.55 256.946 176.332 259.189 175.662 261.315C174.992 263.441 173.885 265.403 172.412 267.076C171.042 268.625 169.351 269.858 167.457 270.689C165.562 271.519 163.51 271.928 161.442 271.887Z" fill="#231F20"/>
<path d="M182.409 271.381V241.842H185.573V268.385H200.343V271.381H182.409Z" fill="#231F20"/>
<path d="M201.34 271.381L214.475 241.842H217.069L230.256 271.381H226.937L222.813 262.187H208.705L204.633 271.381H201.34ZM215.694 246.289L209.95 259.256H221.478L215.694 246.289Z" fill="#231F20"/>
<path d="M234.718 271.381V241.842H242.835C247.044 241.681 251.147 243.18 254.259 246.018C255.675 247.395 256.8 249.042 257.568 250.862C258.336 252.682 258.732 254.637 258.732 256.612C258.732 258.587 258.336 260.542 257.568 262.362C256.8 264.181 255.675 265.828 254.259 267.206C251.143 270.037 247.042 271.536 242.835 271.381H234.718ZM237.882 268.386H242.835C246.216 268.541 249.521 267.353 252.029 265.079C254.27 262.831 255.528 259.786 255.528 256.612C255.528 253.438 254.27 250.393 252.029 248.144C249.521 245.871 246.216 244.682 242.835 244.838H237.934L237.882 268.386Z" fill="#231F20"/>
<path d="M264.802 271.381V241.842H281.646V244.837H267.966V254.692H279.156V257.687H267.966V268.385H281.646V271.381H264.802Z" fill="#231F20"/>
<path d="M295.545 271.888C292.983 271.993 290.468 271.169 288.465 269.566C287.6 268.882 286.897 268.014 286.408 267.025C285.92 266.036 285.657 264.951 285.639 263.848H288.803C288.861 264.603 289.097 265.334 289.492 265.98C289.886 266.627 290.427 267.172 291.072 267.569C292.388 268.433 293.932 268.884 295.507 268.866C297.046 268.928 298.562 268.471 299.812 267.569C300.363 267.162 300.808 266.627 301.108 266.011C301.409 265.395 301.555 264.715 301.536 264.03C301.536 261.566 300.11 259.776 297.257 258.661L292.887 257.001C290.968 256.37 289.247 255.248 287.895 253.747C286.815 252.333 286.269 250.583 286.352 248.806C286.311 247.773 286.511 246.743 286.936 245.8C287.361 244.857 288 244.026 288.803 243.373C290.579 241.977 292.795 241.26 295.053 241.35C296.208 241.284 297.365 241.45 298.454 241.84C299.543 242.23 300.543 242.835 301.394 243.619C302.851 245.083 303.766 246.999 303.987 249.053H300.823C300.557 247.649 299.775 246.395 298.632 245.539C297.54 244.745 296.221 244.327 294.871 244.346C293.475 244.292 292.102 244.717 290.981 245.552C290.49 245.926 290.095 246.411 289.829 246.968C289.563 247.525 289.434 248.137 289.451 248.754C289.383 249.883 289.755 250.993 290.488 251.853C291.443 252.786 292.595 253.491 293.86 253.915L297.75 255.419C299.734 256.077 301.519 257.228 302.937 258.765C304.115 260.23 304.723 262.073 304.648 263.952C304.689 265.052 304.476 266.147 304.027 267.152C303.577 268.157 302.902 269.045 302.055 269.748C300.184 271.233 297.842 271.997 295.455 271.9" fill="#231F20"/>
<path d="M310.82 271.381V241.842H313.971V254.692H331.243V241.842H334.407V271.381H331.243V257.687H313.971V271.381H310.82Z" fill="#231F20"/>
<path d="M366.021 271.887C361.97 271.887 358.085 270.278 355.22 267.413C352.355 264.549 350.746 260.663 350.746 256.612C350.746 252.561 352.355 248.676 355.22 245.811C358.085 242.946 361.97 241.337 366.021 241.337C369.381 241.237 372.671 242.305 375.332 244.358C377.695 246.121 379.387 248.636 380.129 251.49H376.81C376.098 249.412 374.734 247.62 372.92 246.381C370.569 244.817 367.75 244.114 364.94 244.39C362.13 244.667 359.503 245.906 357.502 247.898C355.27 250.256 354.027 253.379 354.027 256.625C354.027 259.871 355.27 262.994 357.502 265.352C359.514 267.291 362.125 268.49 364.907 268.752C367.689 269.013 370.478 268.322 372.816 266.791C374.627 265.55 375.991 263.759 376.706 261.682H380.026C379.284 264.536 377.591 267.051 375.228 268.814C372.567 270.867 369.277 271.935 365.917 271.835" fill="#231F20"/>
<path d="M385.757 271.381V241.842H402.601V244.837H388.921V254.692H400.111V257.687H388.921V268.385H402.601V271.381H385.757Z" fill="#231F20"/>
<path d="M408.812 271.382V241.843H418.473C420.804 241.706 423.098 242.472 424.879 243.982C426.327 245.496 427.158 247.496 427.208 249.59C427.258 251.684 426.525 253.721 425.151 255.303C423.617 256.771 421.594 257.621 419.471 257.689L431.142 271.382H427.031L415.296 257.714H411.925V271.447L408.812 271.382ZM411.976 254.732H418.097C422.039 254.732 424.01 253.085 424.01 249.792C424.01 246.498 422.035 244.817 418.084 244.747H411.963L411.976 254.732Z" fill="#231F20"/>
<path d="M431.142 271.381L444.29 241.842H446.884L460.071 271.381H456.751L452.628 262.187H438.468L434.396 271.381H431.142ZM445.496 246.289L439.765 259.256H451.279L445.496 246.289Z" fill="#231F20"/>
<path d="M464.479 241.842H467.384L478.782 257.026L490.193 241.842H493.098V271.381H489.934V247.288L478.782 262.148L467.643 247.288V271.381H464.479V241.842Z" fill="#231F20"/>
<path d="M504.51 241.842H501.346V271.381H504.51V241.842Z" fill="#231F20"/>
<path d="M525.892 271.887C521.841 271.887 517.956 270.278 515.091 267.413C512.227 264.548 510.617 260.663 510.617 256.612C510.617 252.561 512.227 248.675 515.091 245.811C517.956 242.946 521.841 241.337 525.892 241.337C529.247 241.239 532.533 242.307 535.19 244.358C537.558 246.119 539.255 248.634 540 251.49H536.668C535.944 249.4 534.555 247.605 532.713 246.381C530.362 244.817 527.543 244.114 524.734 244.39C521.924 244.667 519.296 245.906 517.295 247.898C515.064 250.256 513.82 253.379 513.82 256.625C513.82 259.871 515.064 262.994 517.295 265.352C519.314 267.317 521.945 268.531 524.75 268.793C527.555 269.055 530.365 268.348 532.713 266.791C534.552 265.563 535.94 263.77 536.668 261.682H540C539.255 264.537 537.558 267.053 535.19 268.814C532.533 270.865 529.247 271.933 525.892 271.835" fill="#231F20"/>
<path d="M60 278.863H61.5042L67.3912 286.708L73.2782 278.863H74.7824V294.113H73.1486V281.677L67.3912 289.341L61.6338 281.677V294.113H60V278.863Z" fill="#231F20"/>
<path d="M77.0908 294.113L83.8855 278.863H85.1822L91.9899 294.113H90.2912L88.1517 289.367H80.8772L78.7636 294.113H77.0908ZM84.508 281.145L81.5385 287.823H87.4904L84.508 281.145Z" fill="#231F20"/>
<path d="M107.11 294.113H105.671L95.9327 281.625V294.113H94.2988V278.863H95.7511L105.476 291.351V278.863H107.11V294.113Z" fill="#231F20"/>
<path d="M121.334 292.725C120.169 293.792 118.647 294.384 117.068 294.384C115.488 294.384 113.966 293.792 112.801 292.725C112.245 292.121 111.815 291.411 111.536 290.639C111.258 289.866 111.137 289.045 111.181 288.225V278.876H112.814V288.264C112.737 289.494 113.147 290.705 113.955 291.636C114.804 292.411 115.912 292.841 117.061 292.841C118.21 292.841 119.318 292.411 120.167 291.636C120.572 291.177 120.882 290.644 121.08 290.065C121.278 289.486 121.36 288.874 121.321 288.264V278.876H122.955V288.225C122.995 289.045 122.873 289.865 122.595 290.637C122.316 291.41 121.888 292.119 121.334 292.725Z" fill="#231F20"/>
<path d="M127.014 294.113V278.863H135.766V280.406H128.648V285.502H134.288V287.045H128.648V294.113H127.014Z" fill="#231F20"/>
<path d="M135.662 294.113L142.444 278.863H143.741L150.548 294.113H148.85L146.723 289.367H139.436L137.335 294.113H135.662ZM143.079 281.145L140.11 287.823H146.062L143.079 281.145Z" fill="#231F20"/>
<path d="M159.277 294.372C157.186 294.372 155.18 293.541 153.702 292.063C152.223 290.584 151.393 288.579 151.393 286.488C151.393 284.397 152.223 282.392 153.702 280.913C155.18 279.435 157.186 278.604 159.277 278.604C161.012 278.552 162.711 279.102 164.087 280.16C165.311 281.067 166.185 282.367 166.564 283.843H164.852C164.47 282.778 163.751 281.867 162.804 281.249C161.767 280.538 160.533 280.17 159.277 280.199C158.45 280.179 157.628 280.333 156.864 280.65C156.101 280.967 155.412 281.441 154.842 282.04C153.694 283.26 153.055 284.871 153.055 286.546C153.055 288.221 153.694 289.833 154.842 291.052C155.879 292.075 157.236 292.71 158.685 292.852C160.134 292.993 161.588 292.633 162.804 291.83C163.751 291.212 164.47 290.302 164.852 289.237H166.564C166.185 290.712 165.311 292.012 164.087 292.92C162.711 293.978 161.012 294.528 159.277 294.476" fill="#231F20"/>
<path d="M172.45 294.113V280.406H167.51V278.863H179.012V280.406H174.071V294.113H172.45Z" fill="#231F20"/>
<path d="M191.446 292.725C190.281 293.792 188.759 294.384 187.18 294.384C185.6 294.384 184.078 293.792 182.914 292.725C182.357 292.121 181.927 291.411 181.649 290.639C181.37 289.866 181.249 289.045 181.293 288.225V278.876H182.927V288.264C182.85 289.494 183.26 290.705 184.068 291.636C184.916 292.411 186.024 292.841 187.173 292.841C188.323 292.841 189.431 292.411 190.279 291.636C191.091 290.706 191.505 289.496 191.433 288.264V278.876H193.067V288.225C193.107 289.045 192.985 289.865 192.707 290.637C192.429 291.41 192 292.119 191.446 292.725Z" fill="#231F20"/>
<path d="M197.126 294.112V278.863H202.118C203.321 278.792 204.505 279.187 205.425 279.965C206.173 280.747 206.602 281.78 206.628 282.862C206.655 283.943 206.276 284.996 205.568 285.813C204.786 286.595 203.741 287.057 202.637 287.11L208.667 294.177H206.527L200.497 287.084H198.747V294.177L197.126 294.112ZM198.76 285.515H201.924C203.96 285.515 204.971 284.672 204.971 282.922C204.971 281.171 203.96 280.328 201.924 280.328H198.747L198.76 285.515Z" fill="#231F20"/>
<path d="M210.625 294.113V278.863H219.339V280.406H212.259V285.502H218.042V287.045H212.259V292.569H219.339V294.113H210.625Z" fill="#231F20"/>
<path d="M222.528 294.112V278.863H227.521C228.723 278.792 229.907 279.187 230.827 279.965C231.575 280.747 232.004 281.78 232.03 282.862C232.057 283.943 231.679 284.996 230.97 285.813C230.188 286.595 229.143 287.057 228.039 287.11L234.082 294.177H231.955L225.978 287.019H224.24V294.112H222.528ZM224.175 285.515H227.274C229.31 285.515 230.334 284.672 230.334 282.922C230.334 281.171 229.31 280.328 227.274 280.328H224.123L224.175 285.515Z" fill="#231F20"/>
<path d="M240.008 294.372C238.685 294.432 237.385 294.008 236.352 293.179C235.904 292.826 235.541 292.377 235.29 291.865C235.038 291.354 234.905 290.792 234.899 290.222H236.533C236.561 290.614 236.681 290.993 236.884 291.329C237.087 291.665 237.367 291.948 237.7 292.154C238.381 292.602 239.18 292.837 239.995 292.829C240.791 292.854 241.571 292.612 242.213 292.141C242.5 291.932 242.731 291.657 242.887 291.338C243.043 291.019 243.119 290.667 243.108 290.313C243.093 289.671 242.868 289.053 242.467 288.551C242.067 288.05 241.513 287.694 240.89 287.538L238.634 286.682C237.639 286.358 236.746 285.782 236.04 285.009C235.48 284.265 235.2 283.347 235.25 282.416C235.231 281.88 235.339 281.348 235.564 280.861C235.79 280.375 236.126 279.948 236.546 279.615C237.46 278.896 238.601 278.528 239.762 278.578C240.359 278.541 240.958 278.625 241.522 278.826C242.086 279.026 242.603 279.339 243.043 279.745C243.783 280.503 244.24 281.491 244.339 282.546H242.706C242.57 281.821 242.168 281.173 241.577 280.73C241.011 280.323 240.329 280.11 239.632 280.121C238.915 280.094 238.21 280.314 237.635 280.743C237.38 280.936 237.175 281.188 237.038 281.477C236.9 281.766 236.834 282.083 236.844 282.403C236.814 282.983 237.004 283.553 237.376 283.998C237.871 284.481 238.47 284.844 239.127 285.061L241.137 285.839C242.156 286.184 243.074 286.776 243.808 287.564C244.414 288.324 244.727 289.277 244.689 290.248C244.716 290.813 244.613 291.377 244.388 291.896C244.164 292.415 243.823 292.876 243.393 293.243C242.423 294.004 241.214 294.395 239.982 294.346" fill="#231F20"/>
<path d="M257.099 294.333C255.892 294.372 254.718 293.934 253.831 293.114C253.409 292.718 253.075 292.237 252.852 291.703C252.628 291.169 252.52 290.593 252.535 290.015C252.502 289.115 252.808 288.237 253.39 287.551C254.074 286.812 254.871 286.186 255.75 285.697L256.1 285.502C255.566 284.982 255.092 284.403 254.687 283.777C254.339 283.231 254.154 282.597 254.155 281.949C254.14 281.489 254.23 281.031 254.419 280.61C254.608 280.19 254.89 279.819 255.245 279.524C255.995 278.897 256.951 278.569 257.929 278.604C258.405 278.586 258.88 278.663 259.326 278.833C259.771 279.002 260.178 279.259 260.522 279.589C260.853 279.909 261.114 280.295 261.288 280.721C261.463 281.147 261.546 281.605 261.534 282.066C261.534 283.531 260.509 284.802 258.46 285.839L261.962 289.263L263.881 286.773H265.592L262.999 290.222L267.006 294.112H264.879L262.013 291.35C261.323 292.224 260.506 292.988 259.589 293.619C258.813 294.106 257.911 294.354 256.995 294.333M257.099 292.932C257.811 292.938 258.508 292.725 259.096 292.323C259.83 291.775 260.477 291.119 261.015 290.378L257.021 286.488L256.541 286.721C255.833 287.084 255.189 287.562 254.635 288.134C254.184 288.644 253.951 289.309 253.987 289.989C253.969 290.39 254.041 290.791 254.198 291.161C254.355 291.531 254.593 291.862 254.895 292.128C255.501 292.667 256.289 292.954 257.099 292.932ZM255.556 282.001C255.56 282.368 255.654 282.728 255.828 283.051C255.987 283.348 256.179 283.626 256.399 283.881C256.593 284.102 256.917 284.426 257.384 284.854L257.514 284.789C258.059 284.491 258.46 284.244 258.811 284.076C259.122 283.865 259.394 283.602 259.615 283.298C259.866 282.98 260.003 282.587 260.004 282.183C260.024 281.587 259.815 281.007 259.42 280.562C259.219 280.35 258.975 280.184 258.704 280.074C258.434 279.965 258.143 279.914 257.851 279.926C257.271 279.912 256.707 280.116 256.269 280.497C256.052 280.681 255.881 280.912 255.768 281.173C255.656 281.434 255.605 281.717 255.621 282.001" fill="#231F20"/>
<path d="M274.268 294.113V278.863H282.981V280.406H275.901V285.502H281.685V287.045H275.901V292.569H282.981V294.113H274.268Z" fill="#231F20"/>
<path d="M286.262 294.113H284.2L290.126 286.397L284.421 278.863H286.418L291.163 285.074L295.922 278.863H297.919L292.175 286.397L298.127 294.113H296.065L291.163 287.759L286.262 294.113Z" fill="#231F20"/>
<path d="M308.708 280.211C309.164 280.655 309.526 281.185 309.773 281.771C310.02 282.357 310.148 282.986 310.148 283.622C310.148 284.258 310.02 284.887 309.773 285.473C309.526 286.058 309.164 286.589 308.708 287.032C307.672 287.939 306.322 288.405 304.948 288.329H302.043V294.06H300.409V278.863H304.948C305.629 278.821 306.312 278.914 306.957 279.136C307.602 279.359 308.197 279.707 308.708 280.16M307.554 285.904C308.152 285.277 308.486 284.443 308.486 283.576C308.486 282.709 308.152 281.876 307.554 281.249C307.204 280.931 306.795 280.686 306.35 280.528C305.904 280.37 305.432 280.302 304.961 280.328H302.056V286.812H304.961C305.909 286.865 306.841 286.544 307.554 285.917" fill="#231F20"/>
<path d="M325.358 292.103C324.055 293.441 322.328 294.285 320.471 294.49C318.615 294.695 316.745 294.248 315.182 293.226C313.618 292.204 312.459 290.671 311.902 288.888C311.345 287.105 311.425 285.184 312.128 283.454C312.831 281.724 314.114 280.292 315.757 279.403C317.4 278.515 319.3 278.225 321.133 278.583C322.966 278.942 324.618 279.926 325.805 281.368C326.992 282.81 327.641 284.62 327.64 286.488C327.662 287.53 327.471 288.566 327.079 289.531C326.686 290.497 326.101 291.372 325.358 292.103ZM315.309 291.001C316.489 292.173 318.086 292.831 319.75 292.831C321.414 292.831 323.01 292.173 324.191 291.001C325.339 289.781 325.978 288.169 325.978 286.495C325.978 284.82 325.339 283.208 324.191 281.988C323.608 281.405 322.916 280.942 322.154 280.626C321.392 280.31 320.575 280.147 319.75 280.147C318.925 280.147 318.108 280.31 317.346 280.626C316.584 280.942 315.891 281.405 315.309 281.988C314.161 283.208 313.521 284.82 313.521 286.495C313.521 288.169 314.161 289.781 315.309 291.001Z" fill="#231F20"/>
<path d="M330.803 294.112V278.863H335.782C336.985 278.79 338.17 279.185 339.089 279.965C339.836 280.747 340.266 281.78 340.292 282.862C340.318 283.943 339.94 284.996 339.231 285.813C338.451 286.597 337.405 287.06 336.301 287.11L342.343 294.177H340.217L334.174 287.084H332.437V294.177L330.803 294.112ZM332.437 285.515H335.588C337.623 285.515 338.648 284.672 338.648 282.922C338.648 281.171 337.623 280.328 335.588 280.328H332.437V285.515Z" fill="#231F20"/>
<path d="M347.09 294.113V280.406H342.149V278.863H353.651V280.406H348.698V294.113H347.09Z" fill="#231F20"/>
<path d="M356.115 294.113V278.863H364.816V280.406H357.749V285.502H363.532V287.045H357.749V292.569H364.816V294.113H356.115Z" fill="#231F20"/>
<path d="M368.019 294.112V278.863H373.011C374.214 278.792 375.398 279.187 376.317 279.965C377.065 280.747 377.494 281.78 377.521 282.862C377.547 283.943 377.169 284.996 376.46 285.813C375.678 286.595 374.634 287.057 373.53 287.11L379.572 294.177H377.446L371.403 287.084H369.652V294.177L368.019 294.112ZM369.652 285.515H372.816C374.852 285.515 375.877 284.672 375.877 282.922C375.877 281.171 374.852 280.328 372.816 280.328H369.652V285.515Z" fill="#231F20"/>
<path d="M385.471 294.372C384.148 294.432 382.848 294.008 381.815 293.179C381.367 292.826 381.004 292.377 380.753 291.866C380.501 291.354 380.368 290.792 380.362 290.222H381.996C382.024 290.614 382.144 290.993 382.347 291.329C382.55 291.665 382.829 291.948 383.163 292.154C383.84 292.601 384.635 292.835 385.445 292.829C386.245 292.856 387.03 292.614 387.676 292.141C387.962 291.933 388.194 291.657 388.35 291.338C388.506 291.02 388.581 290.668 388.57 290.313C388.557 289.675 388.336 289.059 387.94 288.558C387.545 288.057 386.997 287.699 386.379 287.538L384.123 286.682C383.128 286.358 382.235 285.782 381.529 285.01C380.969 284.265 380.689 283.347 380.738 282.416C380.72 281.88 380.828 281.348 381.053 280.861C381.278 280.375 381.615 279.948 382.035 279.615C382.949 278.896 384.089 278.528 385.251 278.578C385.848 278.542 386.446 278.627 387.01 278.827C387.574 279.028 388.091 279.34 388.532 279.745C389.295 280.493 389.776 281.483 389.893 282.546H388.259C388.124 281.821 387.721 281.173 387.131 280.73C386.565 280.323 385.883 280.11 385.186 280.121C384.469 280.094 383.764 280.314 383.189 280.743C382.934 280.936 382.729 281.188 382.591 281.477C382.454 281.766 382.387 282.083 382.398 282.403C382.367 282.983 382.557 283.553 382.93 283.998C383.422 284.478 384.016 284.842 384.667 285.061L386.69 285.839C387.707 286.176 388.625 286.76 389.361 287.538C389.967 288.298 390.28 289.251 390.243 290.222C390.27 290.787 390.167 291.351 389.942 291.87C389.717 292.39 389.377 292.85 388.946 293.218C387.977 293.979 386.768 294.369 385.536 294.32" fill="#231F20"/>
<path d="M395.963 294.113L402.758 278.863H404.054L410.875 294.113H409.15L407.024 289.367H399.736L397.636 294.113H395.963ZM403.38 281.145L400.411 287.823H406.375L403.38 281.145Z" fill="#231F20"/>
<path d="M416.851 294.372C415.532 294.43 414.237 294.006 413.207 293.179C412.761 292.823 412.399 292.374 412.146 291.863C411.893 291.353 411.755 290.792 411.742 290.222H413.376C413.412 290.611 413.536 290.987 413.738 291.322C413.94 291.656 414.216 291.941 414.543 292.154C415.225 292.601 416.023 292.836 416.838 292.829C417.634 292.856 418.415 292.614 419.056 292.141C419.342 291.932 419.574 291.657 419.73 291.338C419.886 291.019 419.961 290.668 419.95 290.313C419.935 289.671 419.71 289.053 419.31 288.551C418.909 288.05 418.355 287.694 417.733 287.538L415.477 286.682C414.484 286.355 413.591 285.779 412.883 285.009C412.329 284.262 412.05 283.346 412.092 282.416C412.077 281.881 412.186 281.349 412.411 280.863C412.636 280.377 412.971 279.95 413.389 279.615C414.306 278.894 415.452 278.526 416.618 278.578C417.213 278.542 417.809 278.627 418.371 278.827C418.932 279.028 419.448 279.34 419.885 279.745C420.658 280.489 421.144 281.48 421.26 282.546H419.626C419.48 281.825 419.08 281.18 418.498 280.73C417.93 280.327 417.249 280.114 416.553 280.121C415.832 280.094 415.123 280.314 414.543 280.743C414.29 280.939 414.087 281.19 413.95 281.479C413.812 281.767 413.744 282.084 413.752 282.403C413.719 282.985 413.915 283.557 414.297 283.998C414.785 284.484 415.38 284.848 416.034 285.061L418.057 285.839C419.072 286.186 419.986 286.778 420.715 287.564C421.321 288.324 421.634 289.277 421.597 290.248C421.624 290.813 421.521 291.377 421.296 291.896C421.071 292.415 420.731 292.876 420.3 293.244C419.334 294.011 418.123 294.402 416.89 294.346" fill="#231F20"/>
<path d="M428.717 294.372C427.398 294.432 426.102 294.008 425.074 293.179C424.628 292.823 424.265 292.374 424.012 291.863C423.759 291.353 423.621 290.792 423.608 290.222H425.242C425.272 290.613 425.393 290.992 425.596 291.327C425.798 291.663 426.077 291.946 426.409 292.154C427.091 292.601 427.89 292.836 428.704 292.829C429.5 292.854 430.28 292.612 430.922 292.141C431.209 291.932 431.44 291.657 431.596 291.338C431.752 291.019 431.828 290.668 431.817 290.313C431.799 289.666 431.569 289.043 431.161 288.541C430.753 288.039 430.19 287.687 429.56 287.538L427.304 286.682C426.311 286.355 425.418 285.779 424.711 285.009C424.156 284.262 423.877 283.346 423.92 282.416C423.904 281.881 424.014 281.349 424.239 280.863C424.464 280.377 424.798 279.95 425.216 279.615C426.134 278.894 427.279 278.526 428.445 278.578C429.04 278.542 429.637 278.627 430.198 278.827C430.76 279.028 431.275 279.34 431.713 279.745C432.485 280.489 432.971 281.48 433.087 282.546H431.453C431.308 281.825 430.907 281.18 430.325 280.73C429.757 280.327 429.077 280.114 428.38 280.121C427.659 280.094 426.95 280.314 426.37 280.743C426.115 280.936 425.91 281.188 425.772 281.477C425.635 281.766 425.569 282.083 425.579 282.403C425.547 282.985 425.742 283.557 426.124 283.998C426.612 284.484 427.207 284.848 427.862 285.061L429.884 285.839C430.9 286.186 431.813 286.778 432.543 287.564C433.149 288.324 433.461 289.277 433.424 290.248C433.451 290.813 433.348 291.377 433.123 291.896C432.899 292.415 432.558 292.876 432.128 293.244C431.161 294.011 429.95 294.402 428.717 294.346" fill="#231F20"/>
<path d="M449.01 292.103C447.709 293.428 445.988 294.26 444.142 294.457C442.295 294.654 440.437 294.204 438.886 293.183C437.335 292.161 436.186 290.633 435.637 288.859C435.088 287.085 435.171 285.176 435.874 283.457C436.577 281.737 437.855 280.316 439.49 279.435C441.124 278.553 443.014 278.267 444.837 278.625C446.659 278.983 448.3 279.963 449.48 281.397C450.66 282.831 451.305 284.631 451.306 286.488C451.329 287.531 451.137 288.568 450.743 289.534C450.348 290.5 449.758 291.375 449.01 292.103ZM438.974 291.001C440.155 292.173 441.751 292.831 443.415 292.831C445.079 292.831 446.676 292.173 447.856 291.001C449.004 289.781 449.643 288.169 449.643 286.495C449.643 284.82 449.004 283.208 447.856 281.988C447.273 281.405 446.581 280.942 445.819 280.626C445.057 280.31 444.24 280.147 443.415 280.147C442.59 280.147 441.773 280.31 441.011 280.626C440.249 280.942 439.557 281.405 438.974 281.988C437.826 283.208 437.187 284.82 437.187 286.495C437.187 288.169 437.826 289.781 438.974 291.001Z" fill="#231F20"/>
<path d="M461.238 294.372C459.147 294.372 457.142 293.541 455.664 292.063C454.185 290.584 453.354 288.579 453.354 286.488C453.354 284.397 454.185 282.392 455.664 280.913C457.142 279.435 459.147 278.604 461.238 278.604C462.974 278.552 464.673 279.102 466.049 280.16C467.273 281.067 468.147 282.367 468.526 283.843H466.814C466.427 282.781 465.708 281.872 464.765 281.249C463.729 280.538 462.495 280.17 461.238 280.199C460.412 280.179 459.59 280.333 458.826 280.65C458.062 280.967 457.374 281.441 456.804 282.04C455.656 283.26 455.017 284.871 455.017 286.546C455.017 288.221 455.656 289.833 456.804 291.052C457.841 292.075 459.197 292.71 460.647 292.852C462.096 292.993 463.55 292.633 464.765 291.83C465.708 291.208 466.427 290.298 466.814 289.237H468.526C468.147 290.712 467.273 292.012 466.049 292.92C464.673 293.978 462.974 294.528 461.238 294.476" fill="#231F20"/>
<path d="M473.09 278.863H471.456V294.125H473.09V278.863Z" fill="#231F20"/>
<path d="M475.386 294.113L482.18 278.863H483.477L490.285 294.113H488.573L486.447 289.367H479.159L477.046 294.113H475.386ZM482.803 281.145L479.833 287.823H485.785L482.803 281.145Z" fill="#231F20"/>
<path d="M494.434 294.113V280.406H489.48V278.863H500.982V280.406H496.042V294.113H494.434Z" fill="#231F20"/>
<path d="M505.093 278.863H503.459V294.125H505.093V278.863Z" fill="#231F20"/>
<path d="M521.742 292.103C520.439 293.441 518.712 294.285 516.855 294.49C514.999 294.695 513.129 294.248 511.565 293.226C510.002 292.204 508.843 290.671 508.285 288.888C507.728 287.105 507.808 285.184 508.512 283.454C509.215 281.724 510.498 280.292 512.141 279.403C513.784 278.515 515.684 278.225 517.517 278.583C519.35 278.942 521.002 279.926 522.189 281.368C523.376 282.81 524.024 284.62 524.024 286.488C524.046 287.53 523.855 288.566 523.463 289.531C523.07 290.497 522.485 291.372 521.742 292.103ZM511.692 291.001C512.873 292.173 514.47 292.831 516.134 292.831C517.798 292.831 519.394 292.173 520.575 291.001C521.723 289.781 522.362 288.169 522.362 286.495C522.362 284.82 521.723 283.208 520.575 281.988C519.992 281.405 519.3 280.942 518.538 280.626C517.775 280.31 516.959 280.147 516.134 280.147C515.309 280.147 514.492 280.31 513.73 280.626C512.968 280.942 512.275 281.405 511.692 281.988C510.544 283.208 509.905 284.82 509.905 286.495C509.905 288.169 510.544 289.781 511.692 291.001Z" fill="#231F20"/>
<path d="M540.001 294.113H538.562L528.823 281.625V294.113H527.189V278.863H528.629L538.367 291.351V278.863H540.001V294.113Z" fill="#231F20"/>
<path d="M251.187 209.995C252.376 209.995 253.339 209.031 253.339 207.842C253.339 206.654 252.376 205.69 251.187 205.69C249.998 205.69 249.034 206.654 249.034 207.842C249.034 209.031 249.998 209.995 251.187 209.995Z" fill="#ED1C24"/>
<path d="M244.417 213.795C245.62 213.795 246.595 212.82 246.595 211.616C246.595 210.413 245.62 209.438 244.417 209.438C243.214 209.438 242.238 210.413 242.238 211.616C242.238 212.82 243.214 213.795 244.417 213.795Z" fill="#ED1C24"/>
<path d="M237.117 216.609C238.341 216.609 239.334 215.616 239.334 214.391C239.334 213.167 238.341 212.174 237.117 212.174C235.892 212.174 234.899 213.167 234.899 214.391C234.899 215.616 235.892 216.609 237.117 216.609Z" fill="#ED1C24"/>
<path d="M229.363 218.333C230.609 218.333 231.619 217.323 231.619 216.077C231.619 214.831 230.609 213.821 229.363 213.821C228.117 213.821 227.106 214.831 227.106 216.077C227.106 217.323 228.117 218.333 229.363 218.333Z" fill="#ED1C24"/>
<path d="M221.27 218.891C222.531 218.891 223.553 217.869 223.553 216.608C223.553 215.348 222.531 214.326 221.27 214.326C220.01 214.326 218.988 215.348 218.988 216.608C218.988 217.869 220.01 218.891 221.27 218.891Z" fill="#ED1C24"/>
<path d="M213.037 218.216C214.319 218.216 215.358 217.177 215.358 215.895C215.358 214.613 214.319 213.574 213.037 213.574C211.755 213.574 210.716 214.613 210.716 215.895C210.716 217.177 211.755 218.216 213.037 218.216Z" fill="#ED1C24"/>
<path d="M205.178 216.362C206.482 216.362 207.538 215.305 207.538 214.002C207.538 212.699 206.482 211.642 205.178 211.642C203.875 211.642 202.818 212.699 202.818 214.002C202.818 215.305 203.875 216.362 205.178 216.362Z" fill="#ED1C24"/>
<path d="M197.84 213.393C199.158 213.393 200.226 212.325 200.226 211.007C200.226 209.689 199.158 208.621 197.84 208.621C196.522 208.621 195.454 209.689 195.454 211.007C195.454 212.325 196.522 213.393 197.84 213.393Z" fill="#ED1C24"/>
<path d="M191.097 209.451C192.436 209.451 193.522 208.365 193.522 207.026C193.522 205.687 192.436 204.601 191.097 204.601C189.758 204.601 188.672 205.687 188.672 207.026C188.672 208.365 189.758 209.451 191.097 209.451Z" fill="#ED1C24"/>
<path d="M185.054 204.614C186.414 204.614 187.517 203.511 187.517 202.15C187.517 200.79 186.414 199.687 185.054 199.687C183.693 199.687 182.59 200.79 182.59 202.15C182.59 203.511 183.693 204.614 185.054 204.614Z" fill="#ED1C24"/>
<path d="M179.777 198.948C181.152 198.948 182.266 197.833 182.266 196.458C182.266 195.083 181.152 193.968 179.777 193.968C178.402 193.968 177.287 195.083 177.287 196.458C177.287 197.833 178.402 198.948 179.777 198.948Z" fill="#ED1C24"/>
<path d="M175.367 192.606C176.764 192.606 177.896 191.474 177.896 190.078C177.896 188.681 176.764 187.549 175.367 187.549C173.971 187.549 172.839 188.681 172.839 190.078C172.839 191.474 173.971 192.606 175.367 192.606Z" fill="#ED1C24"/>
<path d="M171.906 185.643C173.324 185.643 174.474 184.494 174.474 183.076C174.474 181.658 173.324 180.508 171.906 180.508C170.488 180.508 169.339 181.658 169.339 183.076C169.339 184.494 170.488 185.643 171.906 185.643Z" fill="#ED1C24"/>
<path d="M169.48 178.187C170.92 178.187 172.087 177.02 172.087 175.58C172.087 174.141 170.92 172.974 169.48 172.974C168.041 172.974 166.874 174.141 166.874 175.58C166.874 177.02 168.041 178.187 169.48 178.187Z" fill="#ED1C24"/>
<path d="M168.158 170.303C169.611 170.303 170.79 169.124 170.79 167.67C170.79 166.217 169.611 165.038 168.158 165.038C166.704 165.038 165.525 166.217 165.525 167.67C165.525 169.124 166.704 170.303 168.158 170.303Z" fill="#ED1C24"/>
<path d="M168.054 162.108C169.529 162.108 170.725 160.912 170.725 159.437C170.725 157.962 169.529 156.766 168.054 156.766C166.579 156.766 165.383 157.962 165.383 159.437C165.383 160.912 166.579 162.108 168.054 162.108Z" fill="#ED1C24"/>
<path d="M169.183 153.991C170.68 153.991 171.893 152.778 171.893 151.281C171.893 149.784 170.68 148.571 169.183 148.571C167.686 148.571 166.473 149.784 166.473 151.281C166.473 152.778 167.686 153.991 169.183 153.991Z" fill="#ED1C24"/>
<path d="M171.477 146.341C172.988 146.341 174.213 145.116 174.213 143.605C174.213 142.094 172.988 140.869 171.477 140.869C169.966 140.869 168.741 142.094 168.741 143.605C168.741 145.116 169.966 146.341 171.477 146.341Z" fill="#ED1C24"/>
<path d="M174.823 139.234C176.355 139.234 177.598 137.992 177.598 136.46C177.598 134.927 176.355 133.685 174.823 133.685C173.29 133.685 172.048 134.927 172.048 136.46C172.048 137.992 173.29 139.234 174.823 139.234Z" fill="#ED1C24"/>
<path d="M179.128 132.764C180.682 132.764 181.942 131.504 181.942 129.95C181.942 128.396 180.682 127.136 179.128 127.136C177.574 127.136 176.314 128.396 176.314 129.95C176.314 131.504 177.574 132.764 179.128 132.764Z" fill="#ED1C24"/>
<path d="M184.302 127.006C185.87 127.006 187.141 125.735 187.141 124.166C187.141 122.598 185.87 121.327 184.302 121.327C182.733 121.327 181.462 122.598 181.462 124.166C181.462 125.735 182.733 127.006 184.302 127.006Z" fill="#ED1C24"/>
<path d="M190.24 122.066C191.83 122.066 193.119 120.778 193.119 119.188C193.119 117.598 191.83 116.309 190.24 116.309C188.65 116.309 187.361 117.598 187.361 119.188C187.361 120.778 188.65 122.066 190.24 122.066Z" fill="#ED1C24"/>
<path d="M196.853 118.02C198.464 118.02 199.771 116.714 199.771 115.103C199.771 113.491 198.464 112.185 196.853 112.185C195.242 112.185 193.936 113.491 193.936 115.103C193.936 116.714 195.242 118.02 196.853 118.02Z" fill="#ED1C24"/>
<path d="M204.037 114.921C205.663 114.921 206.981 113.603 206.981 111.977C206.981 110.352 205.663 109.034 204.037 109.034C202.412 109.034 201.094 110.352 201.094 111.977C201.094 113.603 202.412 114.921 204.037 114.921Z" fill="#ED1C24"/>
<path d="M211.687 112.911C213.335 112.911 214.67 111.576 214.67 109.929C214.67 108.282 213.335 106.946 211.687 106.946C210.04 106.946 208.705 108.282 208.705 109.929C208.705 111.576 210.04 112.911 211.687 112.911Z" fill="#ED1C24"/>
<path d="M219.727 112.055C221.396 112.055 222.749 110.703 222.749 109.034C222.749 107.365 221.396 106.013 219.727 106.013C218.059 106.013 216.706 107.365 216.706 109.034C216.706 110.703 218.059 112.055 219.727 112.055Z" fill="#ED1C24"/>
<path d="M227.975 112.406C229.658 112.406 231.022 111.042 231.022 109.359C231.022 107.676 229.658 106.312 227.975 106.312C226.292 106.312 224.928 107.676 224.928 109.359C224.928 111.042 226.292 112.406 227.975 112.406Z" fill="#ED1C24"/>
<path d="M235.884 113.962C237.588 113.962 238.97 112.58 238.97 110.876C238.97 109.171 237.588 107.79 235.884 107.79C234.18 107.79 232.798 109.171 232.798 110.876C232.798 112.58 234.18 113.962 235.884 113.962Z" fill="#ED1C24"/>
<path d="M243.314 116.607C245.04 116.607 246.44 115.207 246.44 113.481C246.44 111.756 245.04 110.356 243.314 110.356C241.589 110.356 240.189 111.756 240.189 113.481C240.189 115.207 241.589 116.607 243.314 116.607Z" fill="#ED1C24"/>
<path d="M250.174 120.264C251.921 120.264 253.338 118.847 253.338 117.1C253.338 115.353 251.921 113.936 250.174 113.936C248.426 113.936 247.01 115.353 247.01 117.1C247.01 118.847 248.426 120.264 250.174 120.264Z" fill="#ED1C24"/>
<path d="M245.559 202.941C246.748 202.941 247.711 201.978 247.711 200.789C247.711 199.6 246.748 198.636 245.559 198.636C244.37 198.636 243.406 199.6 243.406 200.789C243.406 201.978 244.37 202.941 245.559 202.941Z" fill="#ED1C24"/>
<path d="M238.634 206.533C239.844 206.533 240.825 205.552 240.825 204.341C240.825 203.131 239.844 202.15 238.634 202.15C237.424 202.15 236.442 203.131 236.442 204.341C236.442 205.552 237.424 206.533 238.634 206.533Z" fill="#ED1C24"/>
<path d="M231.113 208.894C232.345 208.894 233.343 207.895 233.343 206.663C233.343 205.432 232.345 204.433 231.113 204.433C229.881 204.433 228.883 205.432 228.883 206.663C228.883 207.895 229.881 208.894 231.113 208.894Z" fill="#ED1C24"/>
<path d="M223.112 209.892C224.365 209.892 225.381 208.876 225.381 207.623C225.381 206.369 224.365 205.354 223.112 205.354C221.859 205.354 220.843 206.369 220.843 207.623C220.843 208.876 221.859 209.892 223.112 209.892Z" fill="#ED1C24"/>
<path d="M214.864 209.438C216.146 209.438 217.185 208.399 217.185 207.117C217.185 205.835 216.146 204.796 214.864 204.796C213.582 204.796 212.543 205.835 212.543 207.117C212.543 208.399 213.582 209.438 214.864 209.438Z" fill="#ED1C24"/>
<path d="M207.019 207.518C208.323 207.518 209.379 206.462 209.379 205.158C209.379 203.855 208.323 202.798 207.019 202.798C205.716 202.798 204.659 203.855 204.659 205.158C204.659 206.462 205.716 207.518 207.019 207.518Z" fill="#ED1C24"/>
<path d="M199.797 204.303C201.122 204.303 202.196 203.229 202.196 201.904C202.196 200.579 201.122 199.505 199.797 199.505C198.472 199.505 197.398 200.579 197.398 201.904C197.398 203.229 198.472 204.303 199.797 204.303Z" fill="#ED1C24"/>
<path d="M193.34 199.92C194.687 199.92 195.778 198.829 195.778 197.482C195.778 196.136 194.687 195.044 193.34 195.044C191.994 195.044 190.902 196.136 190.902 197.482C190.902 198.829 191.994 199.92 193.34 199.92Z" fill="#ED1C24"/>
<path d="M187.777 194.526C189.152 194.526 190.266 193.411 190.266 192.036C190.266 190.661 189.152 189.546 187.777 189.546C186.402 189.546 185.287 190.661 185.287 192.036C185.287 193.411 186.402 194.526 187.777 194.526Z" fill="#ED1C24"/>
<path d="M183.226 188.25C184.622 188.25 185.754 187.117 185.754 185.721C185.754 184.324 184.622 183.192 183.226 183.192C181.829 183.192 180.697 184.324 180.697 185.721C180.697 187.117 181.829 188.25 183.226 188.25Z" fill="#ED1C24"/>
<path d="M179.815 181.235C181.233 181.235 182.382 180.085 182.382 178.667C182.382 177.249 181.233 176.1 179.815 176.1C178.397 176.1 177.247 177.249 177.247 178.667C177.247 180.085 178.397 181.235 179.815 181.235Z" fill="#ED1C24"/>
<path d="M177.663 173.636C179.102 173.636 180.269 172.469 180.269 171.029C180.269 169.59 179.102 168.423 177.663 168.423C176.224 168.423 175.057 169.59 175.057 171.029C175.057 172.469 176.224 173.636 177.663 173.636Z" fill="#ED1C24"/>
<path d="M176.911 165.596C178.379 165.596 179.569 164.406 179.569 162.938C179.569 161.469 178.379 160.279 176.911 160.279C175.443 160.279 174.253 161.469 174.253 162.938C174.253 164.406 175.443 165.596 176.911 165.596Z" fill="#ED1C24"/>
<path d="M177.65 157.388C179.14 157.388 180.347 156.181 180.347 154.691C180.347 153.202 179.14 151.994 177.65 151.994C176.161 151.994 174.953 153.202 174.953 154.691C174.953 156.181 176.161 157.388 177.65 157.388Z" fill="#ED1C24"/>
<path d="M179.816 149.66C181.327 149.66 182.552 148.435 182.552 146.924C182.552 145.413 181.327 144.188 179.816 144.188C178.305 144.188 177.08 145.413 177.08 146.924C177.08 148.435 178.305 149.66 179.816 149.66Z" fill="#ED1C24"/>
<path d="M183.252 142.593C184.785 142.593 186.027 141.35 186.027 139.818C186.027 138.285 184.785 137.043 183.252 137.043C181.72 137.043 180.478 138.285 180.478 139.818C180.478 141.35 181.72 142.593 183.252 142.593Z" fill="#ED1C24"/>
<path d="M187.842 136.317C189.404 136.317 190.669 135.052 190.669 133.49C190.669 131.929 189.404 130.664 187.842 130.664C186.281 130.664 185.016 131.929 185.016 133.49C185.016 135.052 186.281 136.317 187.842 136.317Z" fill="#ED1C24"/>
<path d="M193.417 130.936C195 130.936 196.283 129.653 196.283 128.07C196.283 126.487 195 125.204 193.417 125.204C191.835 125.204 190.552 126.487 190.552 128.07C190.552 129.653 191.835 130.936 193.417 130.936Z" fill="#ED1C24"/>
<path d="M199.862 126.591C201.466 126.591 202.766 125.291 202.766 123.687C202.766 122.083 201.466 120.782 199.862 120.782C198.257 120.782 196.957 122.083 196.957 123.687C196.957 125.291 198.257 126.591 199.862 126.591Z" fill="#ED1C24"/>
<path d="M207.006 123.402C208.632 123.402 209.95 122.084 209.95 120.458C209.95 118.833 208.632 117.515 207.006 117.515C205.38 117.515 204.062 118.833 204.062 120.458C204.062 122.084 205.38 123.402 207.006 123.402Z" fill="#ED1C24"/>
<path d="M214.722 121.508C216.376 121.508 217.717 120.167 217.717 118.513C217.717 116.859 216.376 115.518 214.722 115.518C213.068 115.518 211.727 116.859 211.727 118.513C211.727 120.167 213.068 121.508 214.722 121.508Z" fill="#ED1C24"/>
<path d="M222.878 121.003C224.554 121.003 225.912 119.645 225.912 117.969C225.912 116.293 224.554 114.935 222.878 114.935C221.202 114.935 219.844 116.293 219.844 117.969C219.844 119.645 221.202 121.003 222.878 121.003Z" fill="#ED1C24"/>
<path d="M231.009 122.001C232.706 122.001 234.082 120.625 234.082 118.928C234.082 117.231 232.706 115.855 231.009 115.855C229.311 115.855 227.936 117.231 227.936 118.928C227.936 120.625 229.311 122.001 231.009 122.001Z" fill="#ED1C24"/>
<path d="M238.607 124.349C240.326 124.349 241.719 122.955 241.719 121.237C241.719 119.518 240.326 118.125 238.607 118.125C236.888 118.125 235.495 119.518 235.495 121.237C235.495 122.955 236.888 124.349 238.607 124.349Z" fill="#ED1C24"/>
<path d="M245.545 127.966C247.292 127.966 248.709 126.55 248.709 124.802C248.709 123.055 247.292 121.638 245.545 121.638C243.797 121.638 242.381 123.055 242.381 124.802C242.381 126.55 243.797 127.966 245.545 127.966Z" fill="#ED1C24"/>
<path d="M234.265 188.782C235.454 188.782 236.417 187.818 236.417 186.629C236.417 185.44 235.454 184.477 234.265 184.477C233.076 184.477 232.112 185.44 232.112 186.629C232.112 187.818 233.076 188.782 234.265 188.782Z" fill="#ED1C24"/>
<path d="M226.795 191.466C228.019 191.466 229.012 190.473 229.012 189.249C229.012 188.024 228.019 187.031 226.795 187.031C225.57 187.031 224.577 188.024 224.577 189.249C224.577 190.473 225.57 191.466 226.795 191.466Z" fill="#ED1C24"/>
<path d="M218.573 191.829C219.84 191.829 220.868 190.801 220.868 189.533C220.868 188.266 219.84 187.238 218.573 187.238C217.305 187.238 216.277 188.266 216.277 189.533C216.277 190.801 217.305 191.829 218.573 191.829Z" fill="#ED1C24"/>
<path d="M210.715 189.715C212.019 189.715 213.075 188.658 213.075 187.355C213.075 186.051 212.019 184.995 210.715 184.995C209.412 184.995 208.355 186.051 208.355 187.355C208.355 188.658 209.412 189.715 210.715 189.715Z" fill="#ED1C24"/>
<path d="M204.051 185.5C205.397 185.5 206.489 184.409 206.489 183.062C206.489 181.716 205.397 180.625 204.051 180.625C202.705 180.625 201.613 181.716 201.613 183.062C201.613 184.409 202.705 185.5 204.051 185.5Z" fill="#ED1C24"/>
<path d="M198.942 179.575C200.324 179.575 201.445 178.454 201.445 177.072C201.445 175.69 200.324 174.569 198.942 174.569C197.56 174.569 196.439 175.69 196.439 177.072C196.439 178.454 197.56 179.575 198.942 179.575Z" fill="#ED1C24"/>
<path d="M195.764 172.378C197.189 172.378 198.344 171.222 198.344 169.797C198.344 168.372 197.189 167.217 195.764 167.217C194.339 167.217 193.184 168.372 193.184 169.797C193.184 171.222 194.339 172.378 195.764 172.378Z" fill="#ED1C24"/>
<path d="M194.87 164.313C196.338 164.313 197.528 163.122 197.528 161.654C197.528 160.186 196.338 158.996 194.87 158.996C193.402 158.996 192.212 160.186 192.212 161.654C192.212 163.122 193.402 164.313 194.87 164.313Z" fill="#ED1C24"/>
<path d="M196.478 156.286C197.982 156.286 199.201 155.067 199.201 153.563C199.201 152.059 197.982 150.84 196.478 150.84C194.974 150.84 193.755 152.059 193.755 153.563C193.755 155.067 194.974 156.286 196.478 156.286Z" fill="#ED1C24"/>
<path d="M200.291 149.374C201.838 149.374 203.092 148.12 203.092 146.573C203.092 145.026 201.838 143.772 200.291 143.772C198.744 143.772 197.49 145.026 197.49 146.573C197.49 148.12 198.744 149.374 200.291 149.374Z" fill="#ED1C24"/>
<path d="M205.905 143.929C207.487 143.929 208.77 142.646 208.77 141.063C208.77 139.48 207.487 138.197 205.905 138.197C204.322 138.197 203.039 139.48 203.039 141.063C203.039 142.646 204.322 143.929 205.905 143.929Z" fill="#ED1C24"/>
<path d="M212.908 140.324C214.534 140.324 215.852 139.006 215.852 137.381C215.852 135.755 214.534 134.437 212.908 134.437C211.283 134.437 209.965 135.755 209.965 137.381C209.965 139.006 211.283 140.324 212.908 140.324Z" fill="#ED1C24"/>
<path d="M220.881 138.91C222.543 138.91 223.89 137.563 223.89 135.902C223.89 134.24 222.543 132.894 220.881 132.894C219.22 132.894 217.873 134.24 217.873 135.902C217.873 137.563 219.22 138.91 220.881 138.91Z" fill="#ED1C24"/>
<path d="M229.077 139.987C230.782 139.987 232.164 138.605 232.164 136.901C232.164 135.196 230.782 133.814 229.077 133.814C227.373 133.814 225.991 135.196 225.991 136.901C225.991 138.605 227.373 139.987 229.077 139.987Z" fill="#ED1C24"/>
<path d="M236.299 143.319C238.046 143.319 239.463 141.903 239.463 140.155C239.463 138.408 238.046 136.991 236.299 136.991C234.551 136.991 233.135 138.408 233.135 140.155C233.135 141.903 234.551 143.319 236.299 143.319Z" fill="#ED1C24"/>
<path d="M239.917 195.887C241.106 195.887 242.07 194.923 242.07 193.735C242.07 192.546 241.106 191.582 239.917 191.582C238.728 191.582 237.765 192.546 237.765 193.735C237.765 194.923 238.728 195.887 239.917 195.887Z" fill="#ED1C24"/>
<path d="M232.785 199.142C234.003 199.142 234.99 198.155 234.99 196.938C234.99 195.72 234.003 194.733 232.785 194.733C231.568 194.733 230.581 195.72 230.581 196.938C230.581 198.155 231.568 199.142 232.785 199.142Z" fill="#ED1C24"/>
<path d="M224.967 200.802C226.213 200.802 227.223 199.791 227.223 198.545C227.223 197.299 226.213 196.289 224.967 196.289C223.721 196.289 222.711 197.299 222.711 198.545C222.711 199.791 223.721 200.802 224.967 200.802Z" fill="#ED1C24"/>
<path d="M216.707 200.633C217.981 200.633 219.015 199.6 219.015 198.325C219.015 197.05 217.981 196.017 216.707 196.017C215.432 196.017 214.398 197.05 214.398 198.325C214.398 199.6 215.432 200.633 216.707 200.633Z" fill="#ED1C24"/>
<path d="M208.862 198.649C210.165 198.649 211.222 197.593 211.222 196.289C211.222 194.986 210.165 193.929 208.862 193.929C207.559 193.929 206.502 194.986 206.502 196.289C206.502 197.593 207.559 198.649 208.862 198.649Z" fill="#ED1C24"/>
<path d="M201.833 195.044C203.165 195.044 204.245 193.965 204.245 192.633C204.245 191.301 203.165 190.221 201.833 190.221C200.501 190.221 199.421 191.301 199.421 192.633C199.421 193.965 200.501 195.044 201.833 195.044Z" fill="#ED1C24"/>
<path d="M195.843 190.052C197.203 190.052 198.306 188.949 198.306 187.588C198.306 186.228 197.203 185.125 195.843 185.125C194.482 185.125 193.379 186.228 193.379 187.588C193.379 188.949 194.482 190.052 195.843 190.052Z" fill="#ED1C24"/>
<path d="M191.084 183.906C192.473 183.906 193.6 182.78 193.6 181.391C193.6 180.001 192.473 178.875 191.084 178.875C189.695 178.875 188.568 180.001 188.568 181.391C188.568 182.78 189.695 183.906 191.084 183.906Z" fill="#ED1C24"/>
<path d="M187.751 176.826C189.169 176.826 190.319 175.677 190.319 174.259C190.319 172.841 189.169 171.691 187.751 171.691C186.333 171.691 185.184 172.841 185.184 174.259C185.184 175.677 186.333 176.826 187.751 176.826Z" fill="#ED1C24"/>
<path d="M186.053 169.032C187.5 169.032 188.672 167.859 188.672 166.413C188.672 164.966 187.5 163.793 186.053 163.793C184.606 163.793 183.434 164.966 183.434 166.413C183.434 167.859 184.606 169.032 186.053 169.032Z" fill="#ED1C24"/>
<path d="M186.182 160.811C187.665 160.811 188.866 159.609 188.866 158.127C188.866 156.645 187.665 155.443 186.182 155.443C184.7 155.443 183.498 156.645 183.498 158.127C183.498 159.609 184.7 160.811 186.182 160.811Z" fill="#ED1C24"/>
<path d="M188.139 152.979C189.65 152.979 190.875 151.754 190.875 150.243C190.875 148.732 189.65 147.507 188.139 147.507C186.628 147.507 185.403 148.732 185.403 150.243C185.403 151.754 186.628 152.979 188.139 152.979Z" fill="#ED1C24"/>
<path d="M191.732 145.964C193.272 145.964 194.52 144.716 194.52 143.177C194.52 141.637 193.272 140.389 191.732 140.389C190.193 140.389 188.944 141.637 188.944 143.177C188.944 144.716 190.193 145.964 191.732 145.964Z" fill="#ED1C24"/>
<path d="M196.712 139.973C198.28 139.973 199.552 138.702 199.552 137.134C199.552 135.565 198.28 134.294 196.712 134.294C195.143 134.294 193.872 135.565 193.872 137.134C193.872 138.702 195.143 139.973 196.712 139.973Z" fill="#ED1C24"/>
<path d="M202.858 135.202C204.455 135.202 205.75 133.907 205.75 132.31C205.75 130.713 204.455 129.418 202.858 129.418C201.261 129.418 199.967 130.713 199.967 132.31C199.967 133.907 201.261 135.202 202.858 135.202Z" fill="#ED1C24"/>
<path d="M209.963 131.856C211.589 131.856 212.907 130.538 212.907 128.912C212.907 127.287 211.589 125.969 209.963 125.969C208.337 125.969 207.02 127.287 207.02 128.912C207.02 130.538 208.337 131.856 209.963 131.856Z" fill="#ED1C24"/>
<path d="M217.783 130.132C219.438 130.132 220.779 128.791 220.779 127.136C220.779 125.482 219.438 124.141 217.783 124.141C216.129 124.141 214.788 125.482 214.788 127.136C214.788 128.791 216.129 130.132 217.783 130.132Z" fill="#ED1C24"/>
<path d="M226.043 130.222C227.726 130.222 229.091 128.858 229.091 127.175C229.091 125.492 227.726 124.127 226.043 124.127C224.36 124.127 222.996 125.492 222.996 127.175C222.996 128.858 224.36 130.222 226.043 130.222Z" fill="#ED1C24"/>
<path d="M233.875 132.128C235.587 132.128 236.975 130.741 236.975 129.029C236.975 127.318 235.587 125.93 233.875 125.93C232.164 125.93 230.776 127.318 230.776 129.029C230.776 130.741 232.164 132.128 233.875 132.128Z" fill="#ED1C24"/>
<path d="M240.916 135.642C242.663 135.642 244.08 134.226 244.08 132.478C244.08 130.731 242.663 129.314 240.916 129.314C239.169 129.314 237.752 130.731 237.752 132.478C237.752 134.226 239.169 135.642 240.916 135.642Z" fill="#ED1C24"/>
<path d="M158.407 178.473C157.938 176.088 157.153 173.777 156.073 171.6C154.861 169.165 153.434 166.843 151.806 164.663C151.032 163.645 150.196 162.675 149.304 161.758C146.968 159.361 144.3 157.313 141.381 155.677L141.796 155.327C143.254 154.077 144.599 152.702 145.816 151.216C147.438 148.952 148.807 146.517 149.9 143.954C151.287 140.544 151.953 136.885 151.858 133.205C151.894 129.453 151.092 125.741 149.511 122.338C148.718 120.655 147.763 119.052 146.659 117.554C145.651 116.188 144.518 114.921 143.274 113.767C140.731 111.387 137.785 109.477 134.573 108.127C132.408 107.209 130.133 106.577 127.805 106.246C126.743 106.098 125.673 106.016 124.602 106H119.998C118.014 106 115.758 106.078 113.165 106.13C110.571 106.182 108.172 106.13 105.151 106.13H96.7874H93.8958C88.3329 106.311 72.0853 106.337 65.7574 106.337H60V183.335V218.813H124.563C125.6 218.813 126.625 218.917 127.636 218.917C132.466 218.971 137.261 218.09 141.757 216.323C143.996 215.363 146.123 214.158 148.098 212.732C150.283 211.148 152.193 209.216 153.752 207.013C155.519 204.398 156.859 201.518 157.719 198.481C158.762 194.654 159.255 190.698 159.185 186.733C159.205 183.96 158.944 181.193 158.407 178.473ZM116.575 119.486H118.118C121.126 119.507 124.125 119.837 127.065 120.471C129.377 120.927 131.562 121.878 133.471 123.259C134.904 124.357 136.026 125.809 136.726 127.473C137.447 129.28 137.812 131.208 137.802 133.153C137.837 135.202 137.58 137.245 137.037 139.221C136.575 140.776 135.884 142.253 134.988 143.604C134.259 144.728 133.352 145.727 132.304 146.561C131.3 147.327 130.228 147.999 129.101 148.571C126.383 149.804 123.424 150.415 120.439 150.36H73.6024V119.486H116.575ZM144.143 194.811C142.976 198.094 140.615 200.817 137.53 202.436C136.089 203.195 134.583 203.824 133.03 204.316C128.958 205.374 124.731 205.708 120.543 205.301H73.6024V163.924L124.174 163.807C127.819 163.744 131.424 164.586 134.664 166.258L135.066 166.504C136.313 167.243 137.478 168.113 138.541 169.097C139.868 170.355 140.984 171.817 141.848 173.428C142.937 175.356 143.757 177.424 144.286 179.575C144.951 182.408 145.265 185.313 145.219 188.224C145.275 190.464 144.923 192.696 144.182 194.811" fill="#1B3281"/>
<path d="M446.429 119.667V106.052H371.454H357.929H355.193L314.995 149.038L273.358 106H261.986V218.917L275.835 218.982L275.148 129.146L312.208 166.725H318.976L359.667 119.667H446.429Z" fill="#1B3281"/>
<path d="M495.199 107.361L494.668 106.052H486.135L446.288 205.34H374.839V167.243H446.43V153.628H372.324V153.615H364.142V153.628H361.159V167.243H361.185V198.325H361.172V205.34H361.159V218.956H361.172V218.969H372.324V218.956H440.816V218.969H455.663L490.531 132.427L524.401 218.969H540L495.199 107.361Z" fill="#1B3281"/>
</g>
<defs>
<clipPath id="clip0_533_532">
<rect width="480" height="188.372" fill="white" transform="translate(60 106)"/>
</clipPath>
</defs>
</svg>
