<svg width="600" height="400" viewBox="0 0 600 400" fill="none" xmlns="http://www.w3.org/2000/svg">
<path d="M499.807 225.713C499.755 225.143 499.419 224.858 498.797 224.858C498.227 224.858 497.942 225.143 497.942 225.713L496.777 244.05C496.725 244.412 496.829 244.723 497.088 244.982C497.347 245.241 497.632 245.371 497.942 245.371H499.807C500.118 245.371 500.377 245.241 500.584 244.982C500.843 244.723 500.973 244.412 500.973 244.05L499.807 225.713ZM515.58 264.485C515.58 264.847 515.477 265.158 515.269 265.417C515.01 265.676 514.725 265.806 514.415 265.806H503.459C503.148 265.806 502.863 265.702 502.604 265.495C502.397 265.288 502.294 265.029 502.294 264.718L501.983 259.9C501.983 259.59 501.853 259.331 501.594 259.123C501.387 258.916 501.128 258.813 500.817 258.813H496.932C496.622 258.813 496.337 258.916 496.078 259.123C495.87 259.331 495.767 259.59 495.767 259.9L495.456 264.718C495.456 265.029 495.327 265.288 495.068 265.495C494.86 265.702 494.601 265.806 494.291 265.806H483.335C482.972 265.806 482.687 265.676 482.48 265.417C482.273 265.158 482.169 264.847 482.169 264.485L487.919 212.504C488.023 211.779 488.437 211.416 489.162 211.416H508.587C508.898 211.416 509.157 211.52 509.364 211.727C509.623 211.934 509.753 212.193 509.753 212.504L515.58 264.485Z" fill="#558B2F"/>
<path d="M467.222 212.582C467.222 212.271 467.326 212.012 467.533 211.805C467.792 211.546 468.077 211.416 468.388 211.416H479.499C479.809 211.416 480.068 211.546 480.276 211.805C480.535 212.012 480.664 212.271 480.664 212.582V264.64C480.664 264.951 480.535 265.236 480.276 265.495C480.068 265.702 479.809 265.806 479.499 265.806H468.388C468.077 265.806 467.792 265.702 467.533 265.495C467.326 265.236 467.222 264.951 467.222 264.64V212.582Z" fill="black"/>
<path d="M431.639 251.043C431.639 250.421 431.924 250.033 432.493 249.877L443.604 246.303C443.967 246.148 444.304 246.199 444.614 246.458C444.977 246.666 445.158 246.95 445.158 247.313L445.236 248.789V248.867C445.288 249.955 445.625 250.81 446.246 251.431C446.868 252.053 447.671 252.364 448.655 252.364C449.639 252.364 450.442 252.053 451.064 251.431C451.685 250.81 451.996 249.929 451.996 248.789C451.996 247.909 451.711 247.132 451.141 246.458C450.571 245.785 449.794 245.267 448.81 244.904C447.878 244.49 446.79 244.05 445.547 243.584C444.355 243.117 443.112 242.677 441.817 242.263C440.522 241.848 439.253 241.253 438.01 240.476C436.819 239.699 435.757 238.844 434.824 237.911C433.892 236.927 433.115 235.632 432.493 234.027C431.924 232.421 431.639 230.582 431.639 228.51C431.639 223.071 433.193 218.875 436.301 215.923C439.46 212.918 443.527 211.416 448.499 211.416C453.213 211.416 457.15 212.737 460.31 215.379C463.521 217.969 465.231 221.569 465.438 226.179C465.49 226.749 465.231 227.137 464.661 227.344L453.472 230.919C453.11 231.074 452.747 231.048 452.384 230.841C452.074 230.582 451.918 230.271 451.918 229.908L451.841 228.432V228.354C451.841 227.267 451.53 226.412 450.908 225.79C450.287 225.169 449.484 224.858 448.499 224.858C447.515 224.858 446.686 225.169 446.013 225.79C445.391 226.412 445.081 227.293 445.081 228.432C445.081 229.416 445.443 230.271 446.168 230.996C446.945 231.721 447.93 232.317 449.121 232.783C450.364 233.25 451.685 233.716 453.084 234.182C454.534 234.648 455.984 235.244 457.435 235.969C458.885 236.642 460.206 237.497 461.398 238.533C462.641 239.517 463.625 240.89 464.35 242.651C465.075 244.361 465.438 246.381 465.438 248.712C465.438 254.151 463.858 258.372 460.698 261.377C457.59 264.329 453.576 265.806 448.655 265.806C443.889 265.806 439.901 264.511 436.689 261.921C433.529 259.279 431.846 255.653 431.639 251.043Z" fill="#5F4135"/>
<path d="M397.259 212.582C397.259 212.271 397.363 212.012 397.57 211.805C397.829 211.546 398.114 211.416 398.425 211.416H429.738C430.048 211.416 430.307 211.546 430.515 211.805C430.774 212.012 430.903 212.271 430.903 212.582V223.693C430.903 224.003 430.774 224.288 430.515 224.547C430.307 224.754 430.048 224.858 429.738 224.858H411.944C411.582 224.858 411.271 224.987 411.012 225.246C410.805 225.454 410.701 225.713 410.701 226.023V230.685C410.701 230.996 410.805 231.281 411.012 231.54C411.271 231.747 411.582 231.851 411.944 231.851H425.62C425.93 231.851 426.189 231.98 426.397 232.239C426.656 232.447 426.785 232.732 426.785 233.094V244.127C426.785 244.49 426.656 244.801 426.397 245.06C426.189 245.267 425.93 245.371 425.62 245.371H411.944C411.582 245.371 411.271 245.5 411.012 245.759C410.805 245.966 410.701 246.225 410.701 246.536V251.12C410.701 251.483 410.805 251.794 411.012 252.053C411.271 252.26 411.582 252.364 411.944 252.364H429.738C430.048 252.364 430.307 252.493 430.515 252.752C430.774 252.959 430.903 253.218 430.903 253.529V264.64C430.903 264.951 430.774 265.236 430.515 265.495C430.307 265.702 430.048 265.806 429.738 265.806H398.425C398.114 265.806 397.829 265.702 397.57 265.495C397.363 265.236 397.259 264.951 397.259 264.64V212.582Z" fill="black"/>
<path d="M360.495 212.582C360.495 212.271 360.598 212.012 360.805 211.805C361.064 211.546 361.349 211.416 361.66 211.416H373.082C373.704 211.416 374.092 211.701 374.247 212.271L379.065 231.307C379.168 231.773 379.479 231.955 379.997 231.851C380.463 231.799 380.696 231.54 380.696 231.074V212.582C380.696 212.271 380.8 212.012 381.007 211.805C381.266 211.546 381.551 211.416 381.862 211.416H392.973C393.284 211.416 393.543 211.546 393.75 211.805C394.009 212.012 394.138 212.271 394.138 212.582V264.64C394.138 264.951 394.009 265.236 393.75 265.495C393.543 265.702 393.284 265.806 392.973 265.806H381.551C380.93 265.806 380.541 265.521 380.386 264.951L375.568 245.915C375.465 245.448 375.154 245.267 374.636 245.371C374.17 245.422 373.937 245.681 373.937 246.148V264.64C373.937 264.951 373.807 265.236 373.548 265.495C373.341 265.702 373.082 265.806 372.771 265.806H361.66C361.349 265.806 361.064 265.702 360.805 265.495C360.598 265.236 360.495 264.951 360.495 264.64V212.582Z" fill="#741CAD"/>
<path d="M341.554 252.364C342.072 252.364 342.538 252.182 342.952 251.82C343.367 251.405 343.677 250.81 343.885 250.033C344.144 249.256 344.351 248.504 344.506 247.779C344.662 247.054 344.765 246.148 344.817 245.06C344.869 243.92 344.895 243.066 344.895 242.496C344.895 241.874 344.895 241.071 344.895 240.087C344.895 239.103 344.895 238.611 344.895 238.611C344.895 237.212 344.895 236.15 344.895 235.425C344.895 234.7 344.843 233.716 344.739 232.473C344.687 231.178 344.584 230.167 344.428 229.442C344.325 228.717 344.144 227.966 343.885 227.189C343.677 226.36 343.367 225.764 342.952 225.402C342.538 225.039 342.046 224.858 341.476 224.858C340.958 224.858 340.492 225.039 340.077 225.402C339.715 225.764 339.404 226.36 339.145 227.189C338.886 227.966 338.679 228.717 338.523 229.442C338.42 230.167 338.342 231.178 338.29 232.473C338.238 233.716 338.187 234.7 338.135 235.425C338.135 236.15 338.135 237.212 338.135 238.611C338.135 238.714 338.135 239.077 338.135 239.699C338.135 240.32 338.135 240.864 338.135 241.33C338.135 241.796 338.135 242.444 338.135 243.273C338.187 244.05 338.238 244.749 338.29 245.371C338.342 245.992 338.42 246.692 338.523 247.468C338.627 248.194 338.756 248.841 338.912 249.411C339.067 249.929 339.249 250.421 339.456 250.887C339.715 251.353 340.026 251.716 340.388 251.975C340.751 252.234 341.139 252.364 341.554 252.364ZM324.693 242.962C324.693 241.874 324.693 240.424 324.693 238.611C324.693 236.798 324.693 235.373 324.693 234.337C324.745 233.25 324.822 231.851 324.926 230.142C325.03 228.38 325.159 226.982 325.314 225.946C325.522 224.858 325.807 223.589 326.169 222.139C326.584 220.688 327.076 219.523 327.645 218.642C328.215 217.71 328.915 216.751 329.743 215.767C330.624 214.731 331.608 213.928 332.696 213.358C333.784 212.789 335.079 212.323 336.581 211.96C338.083 211.597 339.741 211.416 341.554 211.416C343.367 211.416 344.998 211.597 346.449 211.96C347.951 212.323 349.246 212.789 350.334 213.358C351.421 213.928 352.38 214.731 353.209 215.767C354.089 216.751 354.814 217.71 355.384 218.642C355.954 219.523 356.42 220.688 356.783 222.139C357.197 223.589 357.508 224.858 357.715 225.946C357.922 226.982 358.078 228.38 358.181 230.142C358.285 231.851 358.337 233.25 358.337 234.337C358.337 235.373 358.337 236.798 358.337 238.611C358.337 240.424 358.337 241.874 358.337 242.962C358.337 243.998 358.285 245.397 358.181 247.158C358.078 248.867 357.922 250.266 357.715 251.353C357.508 252.389 357.197 253.633 356.783 255.083C356.42 256.533 355.954 257.725 355.384 258.657C354.814 259.538 354.089 260.496 353.209 261.532C352.38 262.516 351.421 263.293 350.334 263.863C349.246 264.433 347.951 264.899 346.449 265.262C344.998 265.624 343.367 265.806 341.554 265.806C339.741 265.806 338.083 265.624 336.581 265.262C335.079 264.899 333.784 264.433 332.696 263.863C331.608 263.293 330.624 262.516 329.743 261.532C328.915 260.496 328.215 259.538 327.645 258.657C327.076 257.725 326.584 256.533 326.169 255.083C325.807 253.633 325.522 252.364 325.314 251.276C325.159 250.188 325.03 248.789 324.926 247.08C324.822 245.371 324.745 243.998 324.693 242.962Z" fill="#558B2F"/>
<path d="M310.051 239.699C310.051 239.077 310.051 238.714 310.051 238.611C310.051 238.507 310.051 238.145 310.051 237.523C310.051 236.901 310.051 236.357 310.051 235.891C310.051 235.373 310.051 234.726 310.051 233.949C310.051 233.172 309.999 232.473 309.896 231.851C309.844 231.229 309.766 230.556 309.662 229.831C309.559 229.054 309.429 228.406 309.274 227.888C309.119 227.318 308.911 226.8 308.652 226.334C308.445 225.868 308.16 225.505 307.798 225.246C307.487 224.987 307.124 224.858 306.71 224.858H304.534C304.172 224.858 303.861 224.987 303.602 225.246C303.395 225.454 303.291 225.713 303.291 226.023V251.12C303.291 251.483 303.395 251.794 303.602 252.053C303.861 252.26 304.172 252.364 304.534 252.364H306.71C307.124 252.364 307.487 252.234 307.798 251.975C308.16 251.716 308.445 251.353 308.652 250.887C308.911 250.421 309.119 249.929 309.274 249.411C309.429 248.841 309.559 248.194 309.662 247.468C309.766 246.692 309.844 245.992 309.896 245.371C309.947 244.749 309.973 244.05 309.973 243.273C310.025 242.444 310.051 241.796 310.051 241.33C310.051 240.864 310.051 240.32 310.051 239.699ZM289.849 212.582C289.849 212.271 289.953 212.012 290.16 211.805C290.419 211.546 290.704 211.416 291.015 211.416H307.331H307.409C309.637 211.468 311.605 211.83 313.314 212.504C315.076 213.177 316.5 213.954 317.588 214.835C318.727 215.715 319.686 216.984 320.463 218.642C321.24 220.248 321.809 221.672 322.172 222.916C322.586 224.159 322.897 225.894 323.104 228.121C323.312 230.297 323.415 231.98 323.415 233.172C323.467 234.363 323.493 236.098 323.493 238.378C323.493 238.481 323.493 238.559 323.493 238.611C323.493 238.663 323.493 238.714 323.493 238.766C323.493 241.045 323.467 242.807 323.415 244.05C323.415 245.241 323.312 246.925 323.104 249.1C322.897 251.276 322.586 253.011 322.172 254.306C321.809 255.549 321.24 257 320.463 258.657C319.686 260.263 318.727 261.506 317.588 262.387C316.5 263.267 315.076 264.044 313.314 264.718C311.605 265.391 309.637 265.754 307.409 265.806H307.331H291.015C290.704 265.806 290.419 265.702 290.16 265.495C289.953 265.236 289.849 264.951 289.849 264.64V212.582Z" fill="black"/>
<path d="M253.084 212.582C253.084 212.271 253.188 212.012 253.395 211.805C253.654 211.546 253.939 211.416 254.25 211.416H265.672C266.293 211.416 266.682 211.701 266.837 212.271L271.655 231.307C271.758 231.773 272.069 231.955 272.587 231.851C273.053 231.799 273.286 231.54 273.286 231.074V212.582C273.286 212.271 273.39 212.012 273.597 211.805C273.856 211.546 274.141 211.416 274.452 211.416H285.563C285.874 211.416 286.133 211.546 286.34 211.805C286.599 212.012 286.728 212.271 286.728 212.582V264.64C286.728 264.951 286.599 265.236 286.34 265.495C286.133 265.702 285.874 265.806 285.563 265.806H274.141C273.519 265.806 273.131 265.521 272.975 264.951L268.158 245.915C268.055 245.448 267.744 245.267 267.226 245.371C266.76 245.422 266.526 245.681 266.526 246.148V264.64C266.526 264.951 266.397 265.236 266.138 265.495C265.931 265.702 265.672 265.806 265.361 265.806H254.25C253.939 265.806 253.654 265.702 253.395 265.495C253.188 265.236 253.084 264.951 253.084 264.64V212.582Z" fill="black"/>
<path d="M236.428 212.582C236.428 212.271 236.531 212.012 236.739 211.805C236.998 211.546 237.282 211.416 237.593 211.416H248.704C249.015 211.416 249.274 211.546 249.481 211.805C249.74 212.012 249.87 212.271 249.87 212.582V264.64C249.87 264.951 249.74 265.236 249.481 265.495C249.274 265.702 249.015 265.806 248.704 265.806H237.593C237.282 265.806 236.998 265.702 236.739 265.495C236.531 265.236 236.428 264.951 236.428 264.64V212.582Z" fill="black"/>
<path d="M204.548 252.364C205.066 252.364 205.532 252.182 205.946 251.82C206.361 251.405 206.672 250.81 206.879 250.033C207.138 249.256 207.345 248.504 207.5 247.779C207.656 247.054 207.759 246.148 207.811 245.06C207.863 243.92 207.889 243.066 207.889 242.496C207.889 241.874 207.889 241.071 207.889 240.087C207.889 239.103 207.889 238.611 207.889 238.611C207.889 237.212 207.889 236.15 207.889 235.425C207.889 234.7 207.837 233.716 207.733 232.473C207.682 231.178 207.578 230.167 207.423 229.442C207.319 228.717 207.138 227.966 206.879 227.189C206.672 226.36 206.361 225.764 205.946 225.402C205.532 225.039 205.04 224.858 204.47 224.858C203.952 224.858 203.486 225.039 203.071 225.402C202.709 225.764 202.398 226.36 202.139 227.189C201.88 227.966 201.673 228.717 201.517 229.442C201.414 230.167 201.336 231.178 201.284 232.473C201.233 233.716 201.181 234.7 201.129 235.425C201.129 236.15 201.129 237.212 201.129 238.611C201.129 238.714 201.129 239.077 201.129 239.699C201.129 240.32 201.129 240.864 201.129 241.33C201.129 241.796 201.129 242.444 201.129 243.273C201.181 244.05 201.233 244.749 201.284 245.371C201.336 245.992 201.414 246.692 201.517 247.468C201.621 248.194 201.751 248.841 201.906 249.411C202.061 249.929 202.243 250.421 202.45 250.887C202.709 251.353 203.02 251.716 203.382 251.975C203.745 252.234 204.133 252.364 204.548 252.364ZM187.687 242.962C187.687 241.874 187.687 240.424 187.687 238.611C187.687 236.798 187.687 235.373 187.687 234.337C187.739 233.25 187.817 231.851 187.92 230.142C188.024 228.38 188.153 226.982 188.309 225.946C188.516 224.858 188.801 223.589 189.163 222.139C189.578 220.688 190.07 219.523 190.64 218.642C191.209 217.71 191.909 216.751 192.737 215.767C193.618 214.731 194.602 213.928 195.69 213.358C196.778 212.789 198.073 212.323 199.575 211.96C201.077 211.597 202.735 211.416 204.548 211.416C206.361 211.416 207.992 211.597 209.443 211.96C210.945 212.323 212.24 212.789 213.328 213.358C214.416 213.928 215.374 214.731 216.203 215.767C217.083 216.751 217.808 217.71 218.378 218.642C218.948 219.523 219.414 220.688 219.777 222.139C220.191 223.589 220.502 224.858 220.709 225.946C220.916 226.982 221.072 228.38 221.175 230.142C221.279 231.851 221.331 233.25 221.331 234.337C221.331 235.373 221.331 236.798 221.331 238.611C221.331 240.424 221.331 241.874 221.331 242.962C221.331 243.998 221.279 245.397 221.175 247.158C221.072 248.867 220.916 250.266 220.709 251.353C220.502 252.389 220.191 253.633 219.777 255.083C219.414 256.533 218.948 257.725 218.378 258.657C217.808 259.538 217.083 260.496 216.203 261.532C215.374 262.516 214.416 263.293 213.328 263.863C212.24 264.433 210.945 264.899 209.443 265.262C207.992 265.624 206.361 265.806 204.548 265.806C202.735 265.806 201.077 265.624 199.575 265.262C198.073 264.899 196.778 264.433 195.69 263.863C194.602 263.293 193.618 262.516 192.737 261.532C191.909 260.496 191.209 259.538 190.64 258.657C190.07 257.725 189.578 256.533 189.163 255.083C188.801 253.633 188.516 252.364 188.309 251.276C188.153 250.188 188.024 248.789 187.92 247.08C187.817 245.371 187.739 243.998 187.687 242.962Z" fill="black"/>
<path d="M170.69 238.611C171.208 238.611 171.675 238.559 172.089 238.455C172.503 238.3 172.814 238.041 173.021 237.678C173.28 237.316 173.488 237.005 173.643 236.746C173.798 236.487 173.902 236.073 173.954 235.503C174.005 234.933 174.031 234.545 174.031 234.337C174.031 234.078 174.031 233.612 174.031 232.939C174.031 232.265 174.031 231.877 174.031 231.773C174.031 231.618 174.031 231.229 174.031 230.608C174.031 229.934 174.031 229.468 174.031 229.209C174.031 228.95 174.005 228.536 173.954 227.966C173.902 227.396 173.798 226.982 173.643 226.723C173.488 226.464 173.28 226.179 173.021 225.868C172.814 225.505 172.503 225.246 172.089 225.091C171.675 224.936 171.208 224.858 170.69 224.858H168.515C168.152 224.858 167.841 224.987 167.582 225.246C167.375 225.454 167.272 225.713 167.272 226.023V237.445C167.272 237.756 167.375 238.041 167.582 238.3C167.841 238.507 168.152 238.611 168.515 238.611H170.69ZM153.83 212.582C153.83 212.271 153.933 212.012 154.14 211.805C154.399 211.546 154.684 211.416 154.995 211.416H170.69C173.643 211.416 176.233 211.96 178.46 213.048C180.688 214.135 182.423 215.664 183.666 217.632C184.961 219.549 185.919 221.698 186.541 224.081C187.163 226.412 187.473 228.976 187.473 231.773C187.473 234.519 187.163 237.083 186.541 239.465C185.919 241.796 184.961 243.946 183.666 245.915C182.423 247.831 180.688 249.333 178.46 250.421C176.233 251.509 173.643 252.053 170.69 252.053H168.515C168.152 252.053 167.841 252.182 167.582 252.441C167.375 252.648 167.272 252.907 167.272 253.218V264.64C167.272 264.951 167.142 265.236 166.883 265.495C166.676 265.702 166.417 265.806 166.106 265.806H154.995C154.684 265.806 154.399 265.702 154.14 265.495C153.933 265.236 153.83 264.951 153.83 264.64V212.582Z" fill="black"/>
<path d="M129.07 238.999C129.173 238.74 129.173 238.481 129.07 238.222L120.056 212.97C119.901 212.607 119.927 212.271 120.134 211.96C120.393 211.597 120.73 211.416 121.144 211.416H132.644C132.955 211.416 133.214 211.52 133.421 211.727C133.68 211.934 133.809 212.193 133.809 212.504L135.363 231.074C135.415 231.592 135.726 231.851 136.296 231.851C136.865 231.851 137.176 231.592 137.228 231.074L138.782 212.504C138.834 212.193 138.963 211.934 139.17 211.727C139.429 211.52 139.714 211.416 140.025 211.416H151.447C151.861 211.416 152.198 211.597 152.457 211.96C152.664 212.271 152.716 212.607 152.612 212.97L143.599 238.222C143.496 238.481 143.496 238.74 143.599 238.999L152.612 264.252C152.716 264.614 152.638 264.977 152.379 265.339C152.172 265.65 151.861 265.806 151.447 265.806H140.025C139.714 265.806 139.429 265.702 139.17 265.495C138.963 265.288 138.86 265.029 138.86 264.718L137.228 246.148C137.228 245.63 136.917 245.371 136.296 245.371C135.726 245.371 135.441 245.63 135.441 246.148L133.809 264.718C133.809 265.029 133.68 265.288 133.421 265.495C133.214 265.702 132.955 265.806 132.644 265.806H121.144C120.73 265.806 120.419 265.65 120.212 265.339C119.953 264.977 119.901 264.614 120.056 264.252L129.07 238.999Z" fill="black"/>
<path d="M86.1431 212.582C86.1431 212.271 86.2467 212.012 86.4539 211.805C86.7129 211.546 86.9978 211.416 87.3086 211.416H118.621C118.932 211.416 119.191 211.546 119.398 211.805C119.657 212.012 119.787 212.271 119.787 212.582V223.693C119.787 224.003 119.657 224.288 119.398 224.547C119.191 224.754 118.932 224.858 118.621 224.858H100.828C100.466 224.858 100.155 224.987 99.8958 225.246C99.6886 225.454 99.5851 225.713 99.5851 226.023V230.685C99.5851 230.996 99.6886 231.281 99.8958 231.54C100.155 231.747 100.466 231.851 100.828 231.851H114.503C114.814 231.851 115.073 231.98 115.28 232.239C115.539 232.447 115.669 232.732 115.669 233.094V244.127C115.669 244.49 115.539 244.801 115.28 245.06C115.073 245.267 114.814 245.371 114.503 245.371H100.828C100.466 245.371 100.155 245.5 99.8958 245.759C99.6886 245.966 99.5851 246.225 99.5851 246.536V251.12C99.5851 251.483 99.6886 251.794 99.8958 252.053C100.155 252.26 100.466 252.364 100.828 252.364H118.621C118.932 252.364 119.191 252.493 119.398 252.752C119.657 252.959 119.787 253.218 119.787 253.529V264.64C119.787 264.951 119.657 265.236 119.398 265.495C119.191 265.702 118.932 265.806 118.621 265.806H87.3086C86.9978 265.806 86.7129 265.702 86.4539 265.495C86.2467 265.236 86.1431 264.951 86.1431 264.64V212.582Z" fill="#B91C1C"/>
<path d="M516.356 134.882C516.356 134.571 516.46 134.312 516.667 134.105C516.926 133.846 517.211 133.717 517.522 133.717H548.835C549.146 133.717 549.405 133.846 549.612 134.105C549.871 134.312 550 134.571 550 134.882V145.993C550 146.304 549.871 146.589 549.612 146.848C549.405 147.055 549.146 147.159 548.835 147.159H531.042C530.679 147.159 530.368 147.288 530.109 147.547C529.902 147.754 529.798 148.013 529.798 148.324V152.986C529.798 153.297 529.902 153.582 530.109 153.841C530.368 154.048 530.679 154.152 531.042 154.152H544.717C545.027 154.152 545.286 154.281 545.494 154.54C545.753 154.747 545.882 155.032 545.882 155.395V166.428C545.882 166.791 545.753 167.102 545.494 167.361C545.286 167.568 545.027 167.671 544.717 167.671H531.042C530.679 167.671 530.368 167.801 530.109 168.06C529.902 168.267 529.798 168.526 529.798 168.837V173.421C529.798 173.784 529.902 174.095 530.109 174.354C530.368 174.561 530.679 174.664 531.042 174.664H548.835C549.146 174.664 549.405 174.794 549.612 175.053C549.871 175.26 550 175.519 550 175.83V186.941C550 187.252 549.871 187.537 549.612 187.796C549.405 188.003 549.146 188.106 548.835 188.106H517.522C517.211 188.106 516.926 188.003 516.667 187.796C516.46 187.537 516.356 187.252 516.356 186.941V134.882Z" fill="black"/>
<path d="M499.699 134.882C499.699 134.571 499.803 134.312 500.01 134.105C500.269 133.846 500.554 133.717 500.865 133.717H511.976C512.287 133.717 512.546 133.846 512.753 134.105C513.012 134.312 513.141 134.571 513.141 134.882V186.941C513.141 187.252 513.012 187.537 512.753 187.796C512.546 188.003 512.287 188.106 511.976 188.106H500.865C500.554 188.106 500.269 188.003 500.01 187.796C499.803 187.537 499.699 187.252 499.699 186.941V134.882Z" fill="black"/>
<path d="M481.085 160.912C481.603 160.912 482.07 160.86 482.484 160.756C482.898 160.601 483.209 160.342 483.416 159.979C483.675 159.617 483.883 159.306 484.038 159.047C484.193 158.788 484.297 158.373 484.349 157.804C484.401 157.234 484.426 156.845 484.426 156.638C484.426 156.379 484.426 155.913 484.426 155.24C484.426 154.566 484.426 154.178 484.426 154.074C484.426 153.919 484.426 153.53 484.426 152.909C484.426 152.235 484.426 151.769 484.426 151.51C484.426 151.251 484.401 150.837 484.349 150.267C484.297 149.697 484.193 149.283 484.038 149.024C483.883 148.765 483.675 148.48 483.416 148.169C483.209 147.806 482.898 147.547 482.484 147.392C482.07 147.236 481.603 147.159 481.085 147.159H478.91C478.547 147.159 478.236 147.288 477.977 147.547C477.77 147.754 477.667 148.013 477.667 148.324V159.746C477.667 160.057 477.77 160.342 477.977 160.601C478.236 160.808 478.547 160.912 478.91 160.912H481.085ZM480.075 175.208C479.868 174.638 479.48 174.354 478.91 174.354C478.547 174.354 478.236 174.483 477.977 174.742C477.77 174.949 477.667 175.208 477.667 175.519V186.941C477.667 187.252 477.537 187.537 477.278 187.796C477.071 188.003 476.812 188.106 476.501 188.106H465.39C465.079 188.106 464.794 188.003 464.535 187.796C464.328 187.537 464.225 187.252 464.225 186.941V134.882C464.225 134.571 464.328 134.312 464.535 134.105C464.794 133.846 465.079 133.717 465.39 133.717H481.085C484.038 133.717 486.628 134.261 488.855 135.348C491.083 136.436 492.818 137.964 494.061 139.933C495.356 141.849 496.314 143.999 496.936 146.382C497.558 148.713 497.868 151.277 497.868 154.074C497.868 160.963 496.159 166.221 492.74 169.847C492.429 170.158 492.352 170.546 492.507 171.012L497.402 186.552C497.506 186.967 497.428 187.329 497.169 187.64C496.962 187.951 496.651 188.106 496.237 188.106H484.97C484.401 188.106 484.038 187.821 483.883 187.252L480.075 175.208Z" fill="#B91C1C"/>
<path d="M428.447 134.882C428.447 134.571 428.55 134.312 428.758 134.105C429.017 133.846 429.301 133.717 429.612 133.717H460.925C461.236 133.717 461.495 133.846 461.702 134.105C461.961 134.312 462.091 134.571 462.091 134.882V145.993C462.091 146.304 461.961 146.589 461.702 146.848C461.495 147.055 461.236 147.159 460.925 147.159H443.132C442.769 147.159 442.459 147.288 442.2 147.547C441.992 147.754 441.889 148.013 441.889 148.324V152.986C441.889 153.297 441.992 153.582 442.2 153.841C442.459 154.048 442.769 154.152 443.132 154.152H456.807C457.118 154.152 457.377 154.281 457.584 154.54C457.843 154.747 457.973 155.032 457.973 155.395V166.428C457.973 166.791 457.843 167.102 457.584 167.361C457.377 167.568 457.118 167.671 456.807 167.671H443.132C442.769 167.671 442.459 167.801 442.2 168.06C441.992 168.267 441.889 168.526 441.889 168.837V173.421C441.889 173.784 441.992 174.095 442.2 174.354C442.459 174.561 442.769 174.664 443.132 174.664H460.925C461.236 174.664 461.495 174.794 461.702 175.053C461.961 175.26 462.091 175.519 462.091 175.83V186.941C462.091 187.252 461.961 187.537 461.702 187.796C461.495 188.003 461.236 188.106 460.925 188.106H429.612C429.301 188.106 429.017 188.003 428.758 187.796C428.55 187.537 428.447 187.252 428.447 186.941V134.882Z" fill="black"/>
<path d="M392.863 173.343C392.863 172.722 393.148 172.333 393.718 172.178L404.829 168.604C405.192 168.448 405.528 168.5 405.839 168.759C406.202 168.966 406.383 169.251 406.383 169.614L406.461 171.09V171.168C406.512 172.256 406.849 173.11 407.471 173.732C408.092 174.354 408.895 174.664 409.879 174.664C410.864 174.664 411.667 174.354 412.288 173.732C412.91 173.11 413.22 172.23 413.22 171.09C413.22 170.21 412.936 169.433 412.366 168.759C411.796 168.086 411.019 167.568 410.035 167.205C409.102 166.791 408.015 166.351 406.771 165.884C405.58 165.418 404.337 164.978 403.042 164.563C401.747 164.149 400.478 163.553 399.235 162.776C398.043 161.999 396.981 161.145 396.049 160.212C395.117 159.228 394.34 157.933 393.718 156.327C393.148 154.722 392.863 152.883 392.863 150.811C392.863 145.372 394.417 141.176 397.525 138.223C400.685 135.219 404.751 133.717 409.724 133.717C414.438 133.717 418.375 135.038 421.534 137.679C424.746 140.269 426.455 143.87 426.662 148.48C426.714 149.049 426.455 149.438 425.885 149.645L414.697 153.219C414.334 153.375 413.972 153.349 413.609 153.142C413.298 152.883 413.143 152.572 413.143 152.209L413.065 150.733V150.655C413.065 149.567 412.754 148.713 412.133 148.091C411.511 147.47 410.708 147.159 409.724 147.159C408.74 147.159 407.911 147.47 407.238 148.091C406.616 148.713 406.305 149.593 406.305 150.733C406.305 151.717 406.668 152.572 407.393 153.297C408.17 154.022 409.154 154.618 410.346 155.084C411.589 155.55 412.91 156.017 414.308 156.483C415.759 156.949 417.209 157.545 418.659 158.27C420.11 158.943 421.431 159.798 422.622 160.834C423.865 161.818 424.85 163.191 425.575 164.952C426.3 166.661 426.662 168.681 426.662 171.012C426.662 176.451 425.083 180.673 421.923 183.677C418.815 186.63 414.8 188.106 409.879 188.106C405.114 188.106 401.125 186.811 397.914 184.221C394.754 181.58 393.07 177.954 392.863 173.343Z" fill="black"/>
<path d="M358.679 173.343C358.679 172.722 358.964 172.333 359.533 172.178L370.644 168.604C371.007 168.448 371.344 168.5 371.654 168.759C372.017 168.966 372.198 169.251 372.198 169.614L372.276 171.09V171.168C372.328 172.256 372.665 173.11 373.286 173.732C373.908 174.354 374.711 174.664 375.695 174.664C376.679 174.664 377.482 174.354 378.104 173.732C378.725 173.11 379.036 172.23 379.036 171.09C379.036 170.21 378.751 169.433 378.181 168.759C377.611 168.086 376.834 167.568 375.85 167.205C374.918 166.791 373.83 166.351 372.587 165.884C371.395 165.418 370.152 164.978 368.857 164.563C367.562 164.149 366.293 163.553 365.05 162.776C363.859 161.999 362.797 161.145 361.864 160.212C360.932 159.228 360.155 157.933 359.533 156.327C358.964 154.722 358.679 152.883 358.679 150.811C358.679 145.372 360.233 141.176 363.341 138.223C366.5 135.219 370.567 133.717 375.539 133.717C380.253 133.717 384.19 135.038 387.35 137.679C390.561 140.269 392.271 143.87 392.478 148.48C392.53 149.049 392.271 149.438 391.701 149.645L380.512 153.219C380.15 153.375 379.787 153.349 379.424 153.142C379.114 152.883 378.958 152.572 378.958 152.209L378.881 150.733V150.655C378.881 149.567 378.57 148.713 377.948 148.091C377.327 147.47 376.524 147.159 375.539 147.159C374.555 147.159 373.726 147.47 373.053 148.091C372.432 148.713 372.121 149.593 372.121 150.733C372.121 151.717 372.483 152.572 373.208 153.297C373.985 154.022 374.97 154.618 376.161 155.084C377.404 155.55 378.725 156.017 380.124 156.483C381.574 156.949 383.024 157.545 384.475 158.27C385.925 158.943 387.246 159.798 388.438 160.834C389.681 161.818 390.665 163.191 391.39 164.952C392.115 166.661 392.478 168.681 392.478 171.012C392.478 176.451 390.898 180.673 387.738 183.677C384.63 186.63 380.616 188.106 375.695 188.106C370.929 188.106 366.941 186.811 363.729 184.221C360.569 181.58 358.886 177.954 358.679 173.343Z" fill="#741CAD"/>
<path d="M342.883 148.013C342.832 147.444 342.495 147.159 341.873 147.159C341.303 147.159 341.019 147.444 341.019 148.013L339.853 166.351C339.801 166.713 339.905 167.024 340.164 167.283C340.423 167.542 340.708 167.671 341.019 167.671H342.883C343.194 167.671 343.453 167.542 343.66 167.283C343.919 167.024 344.049 166.713 344.049 166.351L342.883 148.013ZM358.656 186.785C358.656 187.148 358.553 187.459 358.346 187.718C358.087 187.977 357.802 188.106 357.491 188.106H346.535C346.224 188.106 345.94 188.003 345.681 187.796C345.473 187.588 345.37 187.329 345.37 187.019L345.059 182.201C345.059 181.89 344.929 181.631 344.67 181.424C344.463 181.217 344.204 181.113 343.893 181.113H340.008C339.698 181.113 339.413 181.217 339.154 181.424C338.947 181.631 338.843 181.89 338.843 182.201L338.532 187.019C338.532 187.329 338.403 187.588 338.144 187.796C337.936 188.003 337.678 188.106 337.367 188.106H326.411C326.048 188.106 325.764 187.977 325.556 187.718C325.349 187.459 325.246 187.148 325.246 186.785L330.995 134.805C331.099 134.079 331.513 133.717 332.239 133.717H351.663C351.974 133.717 352.233 133.82 352.44 134.028C352.699 134.235 352.829 134.494 352.829 134.805L358.656 186.785Z" fill="black"/>
<path d="M308.341 160.912C308.859 160.912 309.325 160.86 309.74 160.756C310.154 160.601 310.465 160.342 310.672 159.979C310.931 159.617 311.138 159.306 311.294 159.047C311.449 158.788 311.553 158.373 311.605 157.804C311.656 157.234 311.682 156.845 311.682 156.638C311.682 156.379 311.682 155.913 311.682 155.24C311.682 154.566 311.682 154.178 311.682 154.074C311.682 153.919 311.682 153.53 311.682 152.909C311.682 152.235 311.682 151.769 311.682 151.51C311.682 151.251 311.656 150.837 311.605 150.267C311.553 149.697 311.449 149.283 311.294 149.024C311.138 148.765 310.931 148.48 310.672 148.169C310.465 147.806 310.154 147.547 309.74 147.392C309.325 147.236 308.859 147.159 308.341 147.159H306.166C305.803 147.159 305.492 147.288 305.233 147.547C305.026 147.754 304.922 148.013 304.922 148.324V159.746C304.922 160.057 305.026 160.342 305.233 160.601C305.492 160.808 305.803 160.912 306.166 160.912H308.341ZM307.331 175.208C307.124 174.638 306.735 174.354 306.166 174.354C305.803 174.354 305.492 174.483 305.233 174.742C305.026 174.949 304.922 175.208 304.922 175.519V186.941C304.922 187.252 304.793 187.537 304.534 187.796C304.327 188.003 304.068 188.106 303.757 188.106H292.646C292.335 188.106 292.05 188.003 291.791 187.796C291.584 187.537 291.48 187.252 291.48 186.941V134.882C291.48 134.571 291.584 134.312 291.791 134.105C292.05 133.846 292.335 133.717 292.646 133.717H308.341C311.294 133.717 313.884 134.261 316.111 135.348C318.339 136.436 320.074 137.964 321.317 139.933C322.612 141.849 323.57 143.999 324.192 146.382C324.813 148.713 325.124 151.277 325.124 154.074C325.124 160.963 323.415 166.221 319.996 169.847C319.685 170.158 319.608 170.546 319.763 171.012L324.658 186.552C324.762 186.967 324.684 187.329 324.425 187.64C324.218 187.951 323.907 188.106 323.493 188.106H312.226C311.656 188.106 311.294 187.821 311.138 187.252L307.331 175.208Z" fill="black"/>
<path d="M275.904 152.442V150.578C275.904 149.645 275.567 148.842 274.894 148.169C274.22 147.495 273.418 147.159 272.485 147.159H270.31C269.999 147.159 269.714 147.288 269.455 147.547C269.248 147.754 269.144 148.013 269.144 148.324V154.618C269.144 154.981 269.248 155.265 269.455 155.473C269.714 155.68 269.999 155.783 270.31 155.783H272.563C273.443 155.783 274.22 155.473 274.894 154.851C275.567 154.178 275.904 153.375 275.904 152.442ZM269.144 173.421C269.144 173.784 269.248 174.095 269.455 174.354C269.714 174.561 269.999 174.664 270.31 174.664H272.485C273.418 174.664 274.22 174.328 274.894 173.654C275.567 172.981 275.904 172.178 275.904 171.246V169.381C275.904 168.448 275.567 167.646 274.894 166.972C274.22 166.299 273.418 165.962 272.485 165.962H270.31C269.999 165.962 269.714 166.092 269.455 166.351C269.248 166.558 269.144 166.843 269.144 167.205V173.421ZM255.702 186.941V134.882C255.702 134.571 255.806 134.312 256.013 134.105C256.272 133.846 256.557 133.717 256.868 133.717H273.184C277.743 133.717 281.576 135.141 284.684 137.99C287.792 140.787 289.346 144.388 289.346 148.79C289.346 149.775 289.32 150.655 289.268 151.432C289.216 152.209 289.009 153.193 288.647 154.385C288.284 155.524 287.792 156.483 287.17 157.26C286.549 158.037 285.616 158.71 284.373 159.28C283.13 159.85 281.654 160.135 279.944 160.135C279.375 160.135 279.09 160.394 279.09 160.912C279.09 161.43 279.375 161.689 279.944 161.689C281.654 161.689 283.13 161.973 284.373 162.543C285.616 163.113 286.549 163.786 287.17 164.563C287.792 165.34 288.284 166.325 288.647 167.516C289.009 168.656 289.216 169.614 289.268 170.391C289.32 171.168 289.346 172.048 289.346 173.033C289.346 177.436 287.792 181.062 284.684 183.911C281.576 186.708 277.743 188.106 273.184 188.106H256.868C256.557 188.106 256.272 188.003 256.013 187.796C255.806 187.537 255.702 187.252 255.702 186.941Z" fill="black"/>
<path d="M217.768 174.664V174.587H219.944C220.307 174.587 220.592 174.483 220.799 174.276C221.058 174.017 221.187 173.706 221.187 173.343V167.205C221.187 166.894 221.058 166.61 220.799 166.351C220.592 166.092 220.307 165.962 219.944 165.962H217.768C216.94 165.962 216.214 166.428 215.593 167.361C214.971 168.241 214.583 169.225 214.427 170.313C214.272 171.401 214.479 172.411 215.049 173.343C215.619 174.224 216.525 174.664 217.768 174.664ZM217.768 133.717H233.386C233.749 133.717 234.033 133.846 234.241 134.105C234.5 134.312 234.629 134.597 234.629 134.96V145.916C234.629 146.278 234.5 146.589 234.241 146.848C234.033 147.055 233.749 147.159 233.386 147.159H217.768C216.525 147.159 215.619 147.625 215.049 148.557C214.479 149.438 214.272 150.422 214.427 151.51C214.583 152.546 214.971 153.53 215.593 154.463C216.214 155.343 216.94 155.783 217.768 155.783H238.903C239.265 155.783 239.55 155.913 239.757 156.172C240.016 156.431 240.146 156.716 240.146 157.027V164.797C240.146 165.107 240.016 165.392 239.757 165.651C239.55 165.858 239.265 165.962 238.903 165.962H235.872C235.562 165.962 235.277 166.092 235.018 166.351C234.759 166.61 234.629 166.894 234.629 167.205V173.343C234.629 173.654 234.759 173.939 235.018 174.198C235.277 174.457 235.562 174.587 235.872 174.587H238.903C239.265 174.587 239.55 174.716 239.757 174.975C240.016 175.182 240.146 175.467 240.146 175.83V186.785C240.146 187.148 240.016 187.459 239.757 187.718C239.55 187.925 239.265 188.029 238.903 188.029C236.572 188.029 233.049 188.055 228.336 188.106C223.622 188.106 220.099 188.106 217.768 188.106C211.76 188.106 207.124 185.853 203.86 181.346C201.27 177.721 200.338 173.913 201.063 169.925C201.788 166.04 203.912 163.502 207.434 162.31C208.626 161.896 209.947 161.689 211.397 161.689C211.708 161.689 211.863 161.43 211.863 160.912C211.863 160.394 211.708 160.135 211.397 160.135C206.683 160.135 203.472 158.218 201.762 154.385C200.208 150.914 200.338 147.185 202.151 143.196C204.171 138.793 207.538 135.892 212.252 134.494C213.961 133.976 215.8 133.717 217.768 133.717Z" fill="black"/>
<path d="M152.502 134.882C152.502 134.571 152.606 134.312 152.813 134.105C153.072 133.846 153.357 133.717 153.667 133.717H184.98C185.291 133.717 185.55 133.846 185.757 134.105C186.016 134.312 186.146 134.571 186.146 134.882V145.993C186.146 146.304 186.016 146.589 185.757 146.848C185.55 147.055 185.291 147.159 184.98 147.159H167.187C166.825 147.159 166.514 147.288 166.255 147.547C166.048 147.754 165.944 148.013 165.944 148.324V152.986C165.944 153.297 166.048 153.582 166.255 153.841C166.514 154.048 166.825 154.152 167.187 154.152H180.862C181.173 154.152 181.432 154.281 181.639 154.54C181.898 154.747 182.028 155.032 182.028 155.395V166.428C182.028 166.791 181.898 167.102 181.639 167.361C181.432 167.568 181.173 167.671 180.862 167.671H167.187C166.825 167.671 166.514 167.801 166.255 168.06C166.048 168.267 165.944 168.526 165.944 168.837V173.421C165.944 173.784 166.048 174.095 166.255 174.354C166.514 174.561 166.825 174.664 167.187 174.664H184.98C185.291 174.664 185.55 174.794 185.757 175.053C186.016 175.26 186.146 175.519 186.146 175.83V186.941C186.146 187.252 186.016 187.537 185.757 187.796C185.55 188.003 185.291 188.106 184.98 188.106H153.667C153.357 188.106 153.072 188.003 152.813 187.796C152.606 187.537 152.502 187.252 152.502 186.941V134.882Z" fill="#558B2F"/>
<path d="M117.938 134.882C117.938 134.571 118.041 134.312 118.248 134.105C118.507 133.846 118.792 133.717 119.103 133.717H150.416C150.727 133.717 150.986 133.846 151.193 134.105C151.452 134.312 151.581 134.571 151.581 134.882V145.993C151.581 146.304 151.452 146.589 151.193 146.848C150.986 147.055 150.727 147.159 150.416 147.159H132.545C132.234 147.159 131.949 147.288 131.69 147.547C131.483 147.754 131.379 148.013 131.379 148.324V152.986C131.379 153.297 131.483 153.582 131.69 153.841C131.949 154.048 132.234 154.152 132.545 154.152H146.298C146.609 154.152 146.868 154.281 147.075 154.54C147.334 154.747 147.463 155.032 147.463 155.395V166.428C147.463 166.791 147.334 167.102 147.075 167.361C146.868 167.568 146.609 167.671 146.298 167.671H132.545C132.234 167.671 131.949 167.801 131.69 168.06C131.483 168.267 131.379 168.526 131.379 168.837V186.941C131.379 187.252 131.25 187.537 130.991 187.796C130.784 188.003 130.525 188.106 130.214 188.106H119.103C118.792 188.106 118.507 188.003 118.248 187.796C118.041 187.537 117.938 187.252 117.938 186.941V134.882Z" fill="black"/>
<path d="M100.744 148.013C100.692 147.444 100.355 147.159 99.7336 147.159C99.1638 147.159 98.8789 147.444 98.8789 148.013L97.7134 166.351C97.6616 166.713 97.7652 167.024 98.0242 167.283C98.2832 167.542 98.5681 167.671 98.8789 167.671H100.744C101.055 167.671 101.314 167.542 101.521 167.283C101.78 167.024 101.909 166.713 101.909 166.351L100.744 148.013ZM116.517 186.785C116.517 187.148 116.413 187.459 116.206 187.718C115.947 187.977 115.662 188.106 115.351 188.106H104.396C104.085 188.106 103.8 188.003 103.541 187.796C103.334 187.588 103.23 187.329 103.23 187.019L102.919 182.201C102.919 181.89 102.79 181.631 102.531 181.424C102.324 181.217 102.065 181.113 101.754 181.113H97.8688C97.558 181.113 97.2731 181.217 97.0141 181.424C96.8069 181.631 96.7033 181.89 96.7033 182.201L96.3925 187.019C96.3925 187.329 96.263 187.588 96.004 187.796C95.7968 188.003 95.5379 188.106 95.2271 188.106H84.2715C83.9089 188.106 83.624 187.977 83.4168 187.718C83.2096 187.459 83.106 187.148 83.106 186.785L88.8557 134.805C88.9593 134.079 89.3737 133.717 90.0989 133.717H109.524C109.835 133.717 110.094 133.82 110.301 134.028C110.56 134.235 110.689 134.494 110.689 134.805L116.517 186.785Z" fill="#5F4135"/>
<path d="M50 161.145C50 161.041 50 160.963 50 160.912C50 160.86 50 160.782 50 160.678C50 158.399 50 156.638 50 155.395C50.0518 154.152 50.1813 152.442 50.3885 150.267C50.5957 148.039 50.9065 146.304 51.3209 145.061C51.7353 143.766 52.331 142.316 53.108 140.71C53.9368 139.052 54.921 137.783 56.0606 136.902C57.2519 136.022 58.7541 135.271 60.5671 134.649C62.3801 134.028 64.4521 133.717 66.7831 133.717C69.7356 133.717 72.2479 134.157 74.3199 135.038C76.4437 135.918 78.1013 137.187 79.2927 138.845C80.484 140.503 81.3905 142.264 82.0121 144.129C82.6337 145.941 83.074 148.065 83.333 150.5C83.3848 151.173 83.0999 151.614 82.4783 151.821L71.6004 155.317C71.2378 155.473 70.9011 155.447 70.5903 155.24C70.2795 154.981 70.0982 154.67 70.0464 154.307C69.7356 149.542 68.6478 147.159 66.7831 147.159C66.2651 147.159 65.7989 147.34 65.3845 147.703C64.9701 148.065 64.6334 148.661 64.3744 149.49C64.1672 150.267 63.9859 151.018 63.8305 151.743C63.7269 152.468 63.6492 153.478 63.5974 154.773C63.5456 156.017 63.4938 157.001 63.442 157.726C63.442 158.451 63.442 159.513 63.442 160.912C63.442 162.31 63.442 163.372 63.442 164.097C63.4938 164.771 63.5456 165.755 63.5974 167.05C63.6492 168.345 63.7269 169.355 63.8305 170.08C63.9859 170.805 64.1672 171.582 64.3744 172.411C64.6334 173.188 64.9701 173.758 65.3845 174.12C65.7989 174.483 66.2651 174.664 66.7831 174.664C68.6478 174.664 69.7356 172.282 70.0464 167.516C70.0982 167.153 70.2795 166.869 70.5903 166.661C70.9011 166.402 71.2378 166.351 71.6004 166.506L82.4783 170.08C83.0999 170.235 83.3848 170.65 83.333 171.323C83.074 173.758 82.6337 175.908 82.0121 177.772C81.3905 179.585 80.484 181.321 79.2927 182.978C78.1013 184.636 76.4437 185.905 74.3199 186.785C72.2479 187.666 69.7615 188.106 66.8608 188.106C64.5298 188.106 62.4319 187.796 60.5671 187.174C58.7541 186.552 57.2519 185.801 56.0606 184.921C54.921 184.04 53.9368 182.797 53.108 181.191C52.331 179.533 51.7353 178.083 51.3209 176.84C50.9065 175.545 50.5957 173.81 50.3885 171.634C50.1813 169.407 50.0518 167.671 50 166.428C50 165.185 50 163.424 50 161.145Z" fill="black"/>
</svg>
