<svg width="600" height="400" viewBox="0 0 600 400" fill="none" xmlns="http://www.w3.org/2000/svg">
<path d="M150.992 168.381C158.904 176.309 199.067 216.569 207.035 224.448C211.291 228.647 214.686 233.367 216.619 239.052L216.626 239.068C220.793 251.129 217.894 265.903 208.342 274.594C196.817 286.826 176.779 288.077 163.475 278.078C158.383 273.912 154.021 268.828 149.253 264.287L136.94 252.088L150.983 237.817L152.998 239.945C160.259 247.295 167.39 254.679 174.854 261.859C180.166 266.943 189.466 265.814 194.486 260.738L194.752 260.466C200.27 254.704 200.038 245.065 194.177 239.636C185.909 231.278 145.265 190.725 136.94 182.424C141.626 177.746 146.305 173.06 150.992 168.381ZM165.92 217.975C150.212 231.58 115.944 272.467 97.9858 282.164C85.3724 287.484 70.0057 284.471 60.519 274.595C53.4378 267.156 50.586 261.146 50.0005 249.682C50.1604 238.613 56.1289 230.965 56.1812 230.898L56.1167 231.092C63.857 221.167 73.3841 213.443 81.9204 204.216L96.0122 218.316C87.4191 226.885 82.3674 231.791 73.8638 240.449C68.4707 245.915 68.9736 255.386 74.3179 260.746C71.9545 262.996 69.6397 265.286 67.3413 267.601C69.6397 265.286 71.9626 262.996 74.3179 260.746C80.0358 266.269 88.9296 266.757 94.5015 261.307C103.265 252.844 143.283 212.574 151.893 203.956L151.901 203.948C156.579 208.626 161.25 213.297 165.92 217.975ZM83.8267 116.239C99.2224 117.231 101.863 120.585 110.015 127.413C117.715 135.186 124.489 141.92 132.229 149.644L118.169 163.679C109.609 155.086 103.299 148.579 94.6079 140.124C89.2067 134.609 79.8085 135.511 74.3179 140.555C69.1849 145.972 68.2674 155.159 73.7983 160.82V160.827C82.286 169.51 121.906 208.968 130.5 217.545C125.829 222.223 121.151 226.893 116.481 231.572C101.252 216.278 75.675 190.652 60.6733 175.683C53.2254 168.089 49.3106 158.269 50.2446 147.377V147.402C52.4539 134.472 56.2386 131.548 60.4702 126.747C67.2501 120.495 72.1954 117.223 83.8267 116.239ZM183.001 116.13C194.099 115.863 201.974 121.558 202.015 121.588H201.974C204.289 122.993 206.953 125.211 208.854 127.266C221.809 140.31 221.727 162.695 208.326 175.439C200.179 183.861 193.942 189.644 185.828 198.116L171.76 184.048C180.524 175.301 186.802 169.16 195.468 160.307C200.536 155.028 199.432 146.158 194.787 140.919C188.801 135.356 178.712 135.014 173.108 141.106C165.051 149.107 127.538 186.603 118.328 195.789L118.341 195.802L117.57 196.574L103.657 182.668L103.909 182.409L103.908 182.408C118.146 169.753 153.128 129.443 169.194 119.883C169.235 119.856 174.668 116.284 183.026 116.13H183.001ZM83.8267 116.239C83.8221 116.238 83.8175 116.238 83.813 116.238H83.8374C83.8338 116.238 83.8302 116.238 83.8267 116.239Z" fill="url(#paint0_linear_630_426)"/>
<path d="M253.866 188.109C253.883 183.028 258.549 178.67 263.56 178.617C266.091 178.459 268.649 179.173 270.713 180.637C272.61 181.943 274.215 183.804 274.718 186.097C274.594 186.274 274.374 186.609 274.259 186.785C272.204 185.498 270.263 183.778 267.758 183.478C263.851 182.834 259.573 185.348 258.638 189.255C257.905 191.822 259.043 194.407 260.402 196.532C263.11 197.15 265.738 198.358 267.741 200.308C268.288 200.872 268.914 201.737 268.437 202.522C267.864 202.83 267.256 202.486 266.709 202.354C264.645 201.657 262.404 201.56 260.296 202.09C257.473 202.716 255.056 204.709 253.724 207.232C252.304 209.843 252.101 212.93 252.392 215.85C252.737 219.466 254.483 223.012 257.385 225.253C260.666 227.873 265.156 228.561 269.223 227.908C272.751 227.396 276.094 225.526 278.22 222.668C280.046 220.252 280.76 217.076 280.31 214.086C279.94 212.004 278.864 210.161 277.655 208.467C275.203 210.046 272.733 211.607 270.546 213.539C269.205 214.721 267.97 216.123 267.423 217.852C267.009 219.043 267.326 220.322 267.176 221.539C266.85 221.645 266.515 221.628 266.179 221.628C265.43 219.996 265.5 218.161 265.527 216.406C265.615 213.354 266.929 210.372 269.187 208.317C272.31 205.371 275.997 203.13 279.613 200.828C281.722 199.514 283.891 198.253 285.717 196.55C286.326 195.994 286.776 195.253 286.688 194.389C285.294 194.698 283.839 195.421 282.427 194.777C280.222 193.983 280.125 190.711 281.739 189.291C283.406 187.632 286.494 188.241 287.561 190.305C288.981 192.969 288.505 196.303 287.155 198.905C285.356 202.337 282.392 204.992 279.287 207.241C281.148 209.675 282.321 212.701 282.189 215.797C282.207 219.634 280.363 223.374 277.426 225.835C273.73 229.09 268.676 230.36 263.833 230.263C258.858 230.298 253.769 228.543 250.205 224.997C246.756 221.601 244.692 216.811 244.807 211.969C244.674 207.85 246.13 203.651 249.049 200.714C251.352 198.305 254.562 196.894 257.835 196.48C255.736 194.177 253.654 191.399 253.866 188.117" fill="black"/>
<path d="M245.61 246.679H255.665V248.611H251.828V261.092H249.464V248.611H245.61V246.679Z" fill="black"/>
<path d="M269.267 254.776H262.493V261.074H260.129V246.67H262.493V252.845H269.267V246.67H271.631V261.074H269.267V254.776Z" fill="black"/>
<path d="M284.774 248.584H279.182V252.809H284.157V254.741H279.182V259.151H284.774V261.083H276.818V246.661H284.774V248.593V248.584Z" fill="black"/>
<path d="M302.195 255.235H299.584V261.083H297.22V246.679H302.195C305.617 246.679 307.293 248.628 307.293 250.966C307.293 253.021 305.944 255.235 302.195 255.235ZM302.195 253.303C304.039 253.303 304.868 252.412 304.868 250.957C304.868 249.501 304.039 248.593 302.195 248.593H299.584V253.294H302.195V253.303Z" fill="black"/>
<path d="M316.599 246.679C320.022 246.679 321.698 248.646 321.698 250.992C321.698 252.695 320.789 254.512 318.363 255.12L321.927 261.092H319.104L315.788 255.332H313.988V261.092H311.624V246.688H316.599V246.679ZM316.599 248.611H313.988V253.444H316.599C318.443 253.444 319.272 252.43 319.272 251.001C319.272 249.572 318.443 248.619 316.599 248.619V248.611Z" fill="black"/>
<path d="M334.761 248.584H329.169V252.809H334.144V254.741H329.169V259.151H334.761V261.083H326.805V246.661H334.761V248.593V248.584Z" fill="black"/>
<path d="M339.745 246.679H342.294L347.349 257.978L352.385 246.679H354.917V261.083H352.553V251.213L348.16 261.083H346.519L342.109 251.213V261.083H339.745V246.679Z" fill="black"/>
<path d="M360.103 246.679H362.467V261.083H360.103V246.679Z" fill="black"/>
<path d="M375.61 248.584H370.018V252.809H374.993V254.741H370.018V259.151H375.61V261.083H367.654V246.661H375.61V248.593V248.584Z" fill="black"/>
<path d="M385.56 246.679C388.983 246.679 390.659 248.646 390.659 250.992C390.659 252.695 389.75 254.512 387.324 255.12L390.888 261.092H388.065L384.749 255.332H382.949V261.092H380.585V246.688H385.56V246.679ZM385.56 248.611H382.949V253.444H385.56C387.404 253.444 388.233 252.43 388.233 251.001C388.233 249.572 387.404 248.619 385.56 248.619V248.611Z" fill="black"/>
<path d="M250.435 280.021H245.998V268.934H250.223C252.569 268.934 253.813 270.221 253.813 271.792C253.813 273.132 253.002 273.944 251.934 274.332C253.116 274.535 254.069 275.717 254.069 277.04C254.069 278.733 252.693 280.021 250.435 280.021ZM250.064 270.416H247.815V273.591H250.064C251.246 273.591 251.961 273.035 251.961 272.012C251.961 270.989 251.246 270.416 250.064 270.416ZM250.205 275.073H247.815V278.531H250.267C251.493 278.531 252.243 277.904 252.243 276.837C252.243 275.77 251.414 275.064 250.205 275.064V275.073Z" fill="black"/>
<path d="M257.624 268.934H259.441V275.999C259.441 277.719 260.411 278.539 261.946 278.539C263.481 278.539 264.469 277.728 264.469 275.999V268.934H266.286V275.964C266.286 278.786 264.248 280.127 261.928 280.127C259.608 280.127 257.624 278.786 257.624 275.964V268.934Z" fill="black"/>
<path d="M273.889 280.136C271.675 280.136 269.964 278.928 269.964 276.961H271.913C271.993 277.869 272.628 278.601 273.889 278.601C275.15 278.601 275.883 277.913 275.883 276.978C275.883 274.297 269.999 276.034 269.999 271.95C269.999 270.001 271.543 268.792 273.81 268.792C275.936 268.792 277.426 269.913 277.594 271.809H275.583C275.521 271.059 274.868 270.371 273.713 270.345C272.663 270.31 271.843 270.821 271.843 271.889C271.843 274.394 277.709 272.832 277.709 276.881C277.709 278.539 276.35 280.136 273.88 280.136H273.889Z" fill="black"/>
<path d="M281.466 268.934H283.283V280.021H281.466V268.934Z" fill="black"/>
<path d="M296.382 268.916V280.013H294.565L289.096 271.739V280.013H287.279V268.916H289.096L294.565 277.181V268.916H296.382Z" fill="black"/>
<path d="M306.491 270.407H302.186V273.662H306.014V275.143H302.186V278.539H306.491V280.021H300.369V268.925H306.491V270.407Z" fill="black"/>
<path d="M313.971 280.136C311.757 280.136 310.045 278.928 310.045 276.961H311.995C312.074 277.869 312.709 278.601 313.971 278.601C315.232 278.601 315.964 277.913 315.964 276.978C315.964 274.297 310.081 276.034 310.081 271.95C310.081 270.001 311.624 268.792 313.891 268.792C316.008 268.792 317.508 269.913 317.675 271.809H315.664C315.603 271.059 314.95 270.371 313.794 270.345C312.745 270.31 311.924 270.821 311.924 271.889C311.924 274.394 317.79 272.832 317.79 276.881C317.79 278.539 316.432 280.136 313.962 280.136H313.971Z" fill="black"/>
<path d="M325.191 280.136C322.977 280.136 321.266 278.928 321.266 276.961H323.215C323.294 277.869 323.929 278.601 325.191 278.601C326.452 278.601 327.184 277.913 327.184 276.978C327.184 274.297 321.301 276.034 321.301 271.95C321.301 270.001 322.844 268.792 325.111 268.792C327.228 268.792 328.728 269.913 328.895 271.809H326.884C326.823 271.059 326.17 270.371 325.014 270.345C323.965 270.31 323.144 270.821 323.144 271.889C323.144 274.394 329.01 272.832 329.01 276.881C329.01 278.539 327.652 280.136 325.182 280.136H325.191Z" fill="black"/>
<path d="M342.162 280.136C339.948 280.136 338.237 278.928 338.237 276.961H340.186C340.265 277.869 340.901 278.601 342.162 278.601C343.423 278.601 344.155 277.913 344.155 276.978C344.155 274.297 338.272 276.034 338.272 271.95C338.272 270.001 339.816 268.792 342.083 268.792C344.2 268.792 345.699 269.913 345.867 271.809H343.856C343.794 271.059 343.141 270.371 341.986 270.345C340.936 270.31 340.116 270.821 340.116 271.889C340.116 274.394 345.981 272.832 345.981 276.881C345.981 278.539 344.623 280.136 342.153 280.136H342.162Z" fill="black"/>
<path d="M356.769 275.17H351.556V280.021H349.739V268.934H351.556V273.688H356.769V268.934H358.586V280.021H356.769V275.17Z" fill="black"/>
<path d="M367.628 280.136C364.505 280.136 361.965 277.79 361.965 274.455C361.965 271.121 364.505 268.792 367.628 268.792C370.75 268.792 373.29 271.139 373.29 274.455C373.29 277.772 370.785 280.136 367.628 280.136ZM367.628 278.557C369.833 278.557 371.42 276.961 371.42 274.455C371.42 271.95 369.824 270.389 367.628 270.389C365.431 270.389 363.835 271.95 363.835 274.455C363.835 276.961 365.431 278.557 367.628 278.557Z" fill="black"/>
<path d="M375.778 268.934H377.71L380.003 277.957L382.491 268.934H384.528L386.839 277.913L389.15 268.934H391.1L387.809 280.021H385.754L383.426 271.633L380.956 280.021L378.918 280.039L375.778 268.942V268.934Z" fill="black"/>
<path d="M470.619 124.863C475.259 124.052 480.34 124.669 484.239 127.474C486.488 129.018 488.111 131.346 489.152 133.816C486.065 134.76 483.013 135.722 479.969 136.754C479.176 135.122 477.852 133.693 476.018 133.305C473.998 132.881 471.316 132.881 470.02 134.769C469.737 135.96 470.822 136.833 471.801 137.203C476.6 138.95 482.139 138.924 486.285 142.187C489.452 144.445 490.466 148.697 489.99 152.393C489.566 156.186 486.858 159.405 483.507 161.081C477.738 164.001 470.646 164.036 464.762 161.408C460.881 159.688 457.697 156.159 457.08 151.846C460.52 151.176 463.969 150.443 467.417 149.747C468.679 154.051 474.721 155.806 478.214 153.134C479.343 152.234 478.373 150.638 477.261 150.258C473.513 148.662 469.349 148.229 465.609 146.624C462.751 145.336 460.017 143.069 459.435 139.841C458.967 136.904 458.87 133.578 460.608 131.011C462.875 127.633 466.712 125.657 470.611 124.881" fill="#0891B2"/>
<path d="M317.579 125.128C321.531 125.084 325.456 125.128 329.408 125.093C333.262 137.609 337.108 150.126 340.945 162.643C337.108 162.678 333.253 162.651 329.381 162.651C328.649 160.226 327.926 157.791 327.176 155.348C323.93 155.374 320.675 155.348 317.42 155.348C316.759 157.8 316.044 160.226 315.347 162.651C308.202 162.643 301.04 162.651 293.904 162.66C292.025 157.897 290.217 153.125 288.338 148.371C287.253 148.371 286.177 148.371 285.101 148.371C285.127 153.116 285.065 157.879 285.127 162.625C281.281 162.678 277.444 162.625 273.616 162.651V125.181C278.926 125.181 284.236 125.207 289.564 125.145C293.71 125.075 298.235 125.031 301.816 127.501C307.082 130.976 307.894 139.303 303.642 143.881C302.61 145.054 301.234 145.839 299.805 146.465C301.993 151.634 304.083 156.83 306.218 162.007C309.931 149.694 313.857 137.424 317.579 125.128ZM285.101 133.225C285.127 135.607 285.127 137.98 285.004 140.352C286.997 140.352 288.982 140.414 290.958 140.335C292.757 140.3 294.468 138.871 294.468 137.027C294.663 135.051 292.854 133.331 290.958 133.269C289.008 133.164 287.059 133.252 285.11 133.225M322.404 136.507C321.372 140.053 320.454 143.616 319.431 147.162C321.389 147.171 323.348 147.1 325.332 147.1C324.318 143.581 323.339 140.061 322.413 136.507" fill="#0891B2"/>
<path d="M386.134 125.595C391.127 123.928 396.869 124.793 401.297 127.554C405.434 130.129 407.463 135.069 407.463 139.823C403.996 140.017 400.503 139.964 397.036 140.264C396.86 138.086 396.472 135.677 394.708 134.187C393.385 132.943 391.144 132.864 389.821 134.16C387.748 136.057 387.166 138.994 386.822 141.658C386.61 145.01 386.663 148.565 388.083 151.652C388.913 153.398 390.65 155.092 392.732 154.677C395.546 153.998 397.001 150.99 397.125 148.291C400.547 148.494 403.97 148.759 407.392 148.997C407.198 152.305 406.122 155.621 403.873 158.1C398.51 164.283 388.295 165.051 381.882 160.067C377.49 156.671 375.223 151.061 375.223 145.592C375.082 141.455 375.637 137.239 377.463 133.49C379.192 129.865 382.306 126.874 386.125 125.595" fill="#0891B2"/>
<path d="M244.834 125.278H271.296C271.323 128.268 271.296 131.249 271.314 134.249C266.171 134.249 261.02 134.249 255.895 134.249C255.895 136.242 255.895 138.262 255.895 140.264H267.636C267.6 143.113 267.636 145.98 267.6 148.82H255.878C255.878 153.451 255.878 158.065 255.878 162.669C252.182 162.66 248.477 162.66 244.781 162.669C244.799 150.214 244.746 137.733 244.799 125.278" fill="#0891B2"/>
<path d="M341.933 125.154C345.497 125.154 349.051 125.145 352.606 125.154C356.752 132.176 360.924 139.162 365.052 146.201C364.858 142.84 364.408 139.506 364.179 136.136C364.153 132.484 364.179 128.806 364.179 125.154C367.266 125.154 370.345 125.137 373.432 125.154V162.616C370.274 162.669 367.134 162.607 363.976 162.563C360.748 156.971 357.158 151.634 354.079 145.98C352.694 143.625 351.601 141.155 350.295 138.782C350.604 140.441 351.063 142.09 351.063 143.801V162.669C348.028 162.66 344.985 162.66 341.96 162.669C341.924 150.161 341.933 137.662 341.933 125.154Z" fill="#0891B2"/>
<path d="M410.021 125.251H421.364C421.364 129.829 421.355 134.416 421.417 138.994C424.284 138.994 427.151 138.985 430.017 138.994V125.251H441.282C441.264 136.242 441.299 147.224 441.334 158.223C441.299 159.67 441.334 161.134 441.476 162.59C437.647 162.704 433.828 162.616 430.009 162.634C430.009 157.765 429.982 152.913 430.009 148.044H421.408V162.643C417.624 162.634 413.84 162.643 410.074 162.643C410.065 150.179 410.118 137.724 410.021 125.251Z" fill="#0891B2"/>
<path d="M444.413 125.251C448.223 125.145 452.078 125.216 455.889 125.198C455.889 137.68 455.889 150.161 455.906 162.634C452.069 162.643 448.223 162.643 444.395 162.634C444.404 150.179 444.395 137.724 444.404 125.251" fill="#0891B2"/>
<path d="M492.486 125.278H520.095C520.095 128.162 520.095 131.055 520.095 133.94C514.609 133.94 509.122 133.94 503.627 133.94C503.653 135.695 503.653 137.45 503.653 139.223C508.081 139.206 512.527 139.223 516.964 139.206C516.999 142.055 516.973 144.904 516.99 147.744H503.671C503.671 149.755 503.671 151.775 503.671 153.787C509.166 153.769 514.653 153.787 520.122 153.787C520.122 156.715 520.122 159.652 520.122 162.598C510.922 162.625 501.739 162.537 492.53 162.634C492.574 150.17 492.442 137.724 492.504 125.269" fill="#0891B2"/>
<path d="M325.923 173.863H333.73V181.087C331.136 181.087 328.561 181.087 325.985 181.087C325.932 178.679 325.914 176.28 325.923 173.872" fill="#0891B2"/>
<path d="M309.472 171.808C311.757 171.825 314.015 171.808 316.3 171.825C316.3 190.887 316.273 209.94 316.335 229.002C314.068 229.002 311.792 229.002 309.525 229.002C309.455 209.94 309.49 190.878 309.481 171.817" fill="#0891B2"/>
<path d="M387.351 187.544C391.356 186.362 395.793 186.388 399.753 187.809C403.458 189.176 406.333 192.316 407.745 195.924C409.465 200.114 409.385 204.718 409.297 209.164C399.974 209.137 390.615 209.128 381.3 209.164C381.521 213.063 382.173 217.27 385.084 220.146C388.057 223.303 392.67 224.133 396.816 223.639C401.147 223.242 405.028 221.081 408.556 218.673C408.583 221.231 408.556 223.797 408.556 226.391C404.331 228.173 399.877 229.919 395.184 229.84C389.9 230.007 384.281 228.658 380.356 224.9C376.934 221.777 375.161 217.182 374.658 212.63C374.12 207.408 374.455 201.94 376.704 197.115C378.76 192.669 382.579 188.938 387.342 187.535M381.397 203.757C388.498 203.774 395.599 203.783 402.708 203.748C402.426 200.749 402.082 197.423 399.903 195.121C397.23 192.193 392.749 192.016 389.151 192.934C384.458 194.283 381.591 199.064 381.397 203.757Z" fill="#0891B2"/>
<path d="M422.908 192.351C426.004 189.564 429.709 187.041 433.987 186.741C437.762 186.38 441.828 187.544 444.333 190.499C447.156 193.763 447.8 198.235 447.87 202.389C447.888 211.201 447.87 220.004 447.879 228.825H440.973V205.406C440.937 202.425 440.973 199.302 439.773 196.506C438.794 194.31 436.306 193.304 434.013 193.304C429.735 193.11 426.057 195.73 422.89 198.279C422.917 208.449 422.89 218.646 422.952 228.834C420.658 228.825 418.356 228.834 416.054 228.808C416.063 215.153 416.063 201.507 416.054 187.87C418.339 187.835 420.632 187.844 422.908 187.844V192.351Z" fill="#0891B2"/>
<path d="M499.128 187.932C503.044 186.415 507.473 186.274 511.53 187.341C515.755 188.4 519.151 191.778 520.748 195.765C522.494 199.972 522.424 204.63 522.424 209.102C513.065 209.12 503.724 209.076 494.391 209.102C494.524 213.071 495.3 217.394 498.317 220.269C501.342 223.365 506.008 224.115 510.145 223.55C514.353 223.101 518.146 221.019 521.542 218.611C521.595 221.195 521.577 223.78 521.55 226.373C518.199 227.767 514.776 229.134 511.142 229.628C506.07 230.131 500.654 229.663 496.191 226.982C492.265 224.644 489.505 220.604 488.411 216.194C487.079 210.937 487.167 205.353 488.605 200.122C490.113 194.795 493.906 189.979 499.128 187.923M498.572 194.883C495.891 197.035 494.797 200.414 494.374 203.713C501.466 203.73 508.566 203.721 515.667 203.721C515.667 199.858 514.573 195.262 510.816 193.427C506.917 191.69 501.88 192.025 498.572 194.883Z" fill="#0891B2"/>
<path d="M345.805 192.237C349.263 188.497 354.494 186.847 359.469 186.882C363.553 186.927 367.425 188.303 371.068 189.996C371.068 192.678 371.094 195.35 371.068 198.023C367.54 195.395 363.517 192.916 358.992 192.951C355.217 192.828 351.574 195.042 349.739 198.305C347.278 202.583 347.164 207.788 347.728 212.551C348.31 217.032 350.798 221.813 355.376 223.233C361.012 224.953 366.931 222.413 371.033 218.549C371.103 221.231 371.068 223.93 371.068 226.611C366.543 228.922 361.48 230.395 356.355 229.663C351.706 229.196 347.084 226.982 344.367 223.101C341.121 218.628 340.222 212.913 340.354 207.505C340.416 202.037 342.048 196.347 345.796 192.237" fill="#0891B2"/>
<path d="M465.927 187.191C471.563 186.212 477.544 187.218 482.607 189.846C482.554 192.36 482.607 194.874 482.554 197.406C479.484 195.28 476.115 193.375 472.348 192.907C469.57 192.59 466.535 192.625 464.136 194.248C461.084 196.135 461.181 201.446 464.436 203.069C469.349 205.671 475.515 204.956 480.146 208.317C482.96 210.266 484.15 213.83 483.992 217.155C484.089 221.239 481.839 225.244 478.329 227.352C474.324 230.025 469.243 230.095 464.586 229.654C461.163 229.187 457.9 227.952 454.786 226.452C454.804 223.771 454.768 221.089 454.821 218.417C458.764 221.522 463.571 223.965 468.705 224C471.06 223.815 473.671 223.586 475.515 221.945C477.35 220.348 477.376 217.473 476.512 215.382C475.435 213.424 473.151 212.807 471.175 212.251C466.809 211.087 461.896 210.769 458.323 207.682C455.042 204.771 454.38 199.858 455.456 195.783C456.797 191.125 461.287 187.967 465.918 187.2" fill="#0891B2"/>
<path d="M326.426 187.844C328.675 187.853 330.933 187.853 333.183 187.835C333.183 201.551 333.306 215.259 333.244 228.975C330.978 229.002 328.702 229.002 326.435 229.002C326.391 215.277 326.435 201.569 326.435 187.853" fill="#0891B2"/>
<path d="M465.662 265.934C465.662 259.874 465.662 253.814 465.662 247.754C465.662 247.128 465.714 247.066 466.323 247.066C467.646 247.066 468.978 247.066 470.301 247.066C470.786 247.066 470.91 247.172 470.919 247.657C470.919 248.283 470.919 248.91 470.892 249.536C470.892 249.739 470.857 249.951 471.077 250.048C471.298 250.153 471.483 250.048 471.66 249.889C472.7 248.945 473.9 248.248 475.135 247.604C475.885 247.216 476.652 246.881 477.464 246.669C478.293 246.458 479.122 246.228 479.995 246.264C480.189 246.264 480.383 246.211 480.577 246.184C480.736 246.166 480.895 246.131 481.054 246.14C481.512 246.175 481.971 246.237 482.439 246.29C483.524 246.413 484.573 246.687 485.57 247.163C486.434 247.578 487.22 248.072 487.934 248.707C488.754 249.439 489.407 250.303 489.998 251.23C490.695 252.323 491.224 253.488 491.559 254.74C491.709 255.314 491.903 255.869 492.027 256.452C492.186 257.254 492.353 258.075 492.406 258.886C492.503 260.262 492.556 261.638 492.547 263.023C492.538 263.914 492.344 264.796 492.291 265.696C492.221 266.984 491.877 268.21 491.471 269.409C491.171 270.283 490.81 271.147 490.386 271.967C489.601 273.484 488.551 274.825 487.29 275.981C485.958 277.207 484.415 278.124 482.677 278.618C480.833 279.139 478.928 279.236 477.032 278.98C476.132 278.856 475.223 278.698 474.359 278.415C473.45 278.115 472.577 277.666 471.713 277.251C471.122 276.969 470.936 277.048 470.936 277.701C470.936 279.818 470.936 281.935 470.936 284.052C470.936 284.61 470.66 284.89 470.107 284.89C468.89 284.89 467.673 284.89 466.447 284.89C466.305 284.89 466.155 284.89 466.014 284.89C465.767 284.89 465.67 284.74 465.679 284.51C465.679 284.334 465.679 284.149 465.679 283.972C465.679 277.965 465.679 271.958 465.679 265.952L465.662 265.934ZM470.919 263.72C470.919 266.304 470.919 268.88 470.919 271.464C470.919 271.711 470.919 271.967 470.919 272.214C470.936 272.505 471.06 272.743 471.333 272.858C472.286 273.255 473.239 273.652 474.2 274.014C475.1 274.349 476.061 274.411 477.005 274.455C478.804 274.534 480.569 274.481 482.227 273.573C483.506 272.876 484.494 271.923 485.261 270.715C485.799 269.868 486.24 268.977 486.461 267.98C486.655 267.107 486.964 266.243 487.008 265.369C487.122 263.138 487.228 260.897 486.875 258.666C486.628 257.078 486.179 255.569 485.385 254.167C484.953 253.391 484.362 252.756 483.638 252.235C482.359 251.309 480.886 251.036 479.369 251.08C477.808 251.124 476.282 251.441 474.879 252.165C473.671 252.782 472.533 253.514 471.439 254.335C471.033 254.634 470.901 255.005 470.901 255.49C470.901 258.233 470.901 260.977 470.901 263.72H470.919Z" fill="#0891B2"/>
<path d="M419.67 263.288C416.195 263.288 412.71 263.288 409.235 263.288C408.52 263.288 408.344 263.438 408.397 264.134C408.503 265.528 408.635 266.922 409.103 268.254C409.808 270.274 411.026 271.923 412.807 273.114C413.734 273.731 414.757 274.128 415.842 274.419C417.65 274.887 419.476 274.825 421.293 274.649C422.572 274.525 423.825 274.172 425.024 273.679C425.695 273.396 426.383 273.14 427.018 272.788C427.829 272.347 428.605 271.826 429.399 271.341C429.505 271.279 429.602 271.182 429.708 271.129C429.973 270.997 430.105 271.076 430.149 271.376C430.158 271.482 430.149 271.588 430.149 271.703C430.149 273.158 430.131 274.605 430.158 276.06C430.158 276.457 430.008 276.669 429.682 276.792C428.579 277.216 427.476 277.621 426.374 278.045C425.059 278.548 423.683 278.759 422.316 279.042C422.263 279.05 422.21 279.068 422.157 279.068C421.09 279.147 420.014 279.35 418.955 279.262C417.482 279.139 415.983 279.191 414.536 278.777C414.042 278.636 413.513 278.592 413.028 278.433C412.463 278.256 411.917 278.036 411.387 277.78C410.743 277.471 410.117 277.127 409.508 276.775C407.956 275.866 406.73 274.614 405.733 273.132C405.072 272.153 404.569 271.085 404.172 269.974C403.846 269.065 403.651 268.121 403.457 267.178C402.972 264.761 403.069 262.326 403.272 259.9C403.352 258.948 403.643 258.013 403.846 257.069C404.11 255.834 404.622 254.696 405.204 253.585C405.918 252.235 406.836 251.027 407.956 249.986C409.111 248.91 410.399 248.019 411.872 247.41C412.851 247.004 413.866 246.74 414.898 246.519C416.662 246.149 418.426 246.272 420.199 246.369C420.975 246.405 421.743 246.652 422.501 246.855C424.521 247.401 426.197 248.522 427.573 250.083C428.411 251.044 429.038 252.138 429.532 253.32C430.211 254.943 430.52 256.646 430.652 258.383C430.758 259.812 430.775 261.241 430.819 262.679C430.837 263.208 430.731 263.288 430.176 263.288C426.682 263.288 423.181 263.288 419.688 263.288V263.305L419.67 263.288ZM417.015 259.415C417.121 259.415 417.227 259.415 417.341 259.415C419.793 259.415 422.254 259.415 424.707 259.415C425.589 259.415 425.774 259.221 425.642 258.366C425.553 257.783 425.421 257.21 425.342 256.628C425.192 255.534 424.795 254.537 424.23 253.585C423.339 252.085 422.007 251.141 420.358 250.762C418.32 250.295 416.256 250.259 414.228 250.991C412.534 251.6 411.202 252.659 410.161 254.079C409.147 255.446 408.662 257.034 408.476 258.718C408.423 259.159 408.582 259.354 409.014 259.415C409.138 259.433 409.261 259.424 409.394 259.424C411.934 259.424 414.483 259.424 417.024 259.424L417.015 259.415Z" fill="#0891B2"/>
<path d="M510.445 279.315C509.995 279.315 509.545 279.368 509.104 279.306C508.098 279.165 507.093 278.997 506.096 278.786C504.826 278.512 503.67 277.939 502.594 277.233C501.915 276.783 501.306 276.228 500.689 275.69C499.965 275.063 499.401 274.305 498.863 273.52C498.678 273.255 498.501 272.99 498.36 272.708C497.804 271.65 497.275 270.565 496.966 269.4C496.746 268.571 496.649 267.716 496.428 266.887C496.146 265.793 496.19 264.681 496.164 263.579C496.137 262.256 496.164 260.924 496.261 259.609C496.322 258.815 496.552 258.03 496.702 257.237C496.896 256.231 497.196 255.252 497.628 254.326C498.122 253.258 498.669 252.218 499.41 251.291C500.195 250.312 501.068 249.421 502.082 248.672C502.859 248.098 503.714 247.64 504.605 247.26C505.461 246.899 506.361 246.669 507.278 246.475C507.878 246.343 508.478 246.308 509.077 246.264C509.536 246.228 510.004 246.122 510.462 246.14C511.353 246.175 512.253 246.193 513.135 246.352C515.278 246.74 517.298 247.472 519.045 248.839C519.839 249.457 520.562 250.145 521.162 250.939C521.656 251.591 522.15 252.253 522.564 252.958C522.917 253.576 523.164 254.246 523.429 254.908C523.649 255.455 523.835 256.01 524.011 256.575C524.126 256.945 524.196 257.342 524.276 257.722C524.346 258.092 524.434 258.463 524.47 258.833C524.62 260.615 524.84 262.406 524.708 264.196C524.62 265.387 524.487 266.587 524.276 267.769C524.011 269.259 523.535 270.706 522.855 272.073C522.159 273.476 521.268 274.737 520.112 275.804C519.107 276.739 518.004 277.489 516.76 278.071C515.578 278.618 514.343 278.918 513.073 279.147C512.2 279.306 511.327 279.289 510.462 279.315H510.445ZM510.489 274.94C511.777 275.037 513.029 274.737 514.202 274.164C516.152 273.211 517.448 271.632 518.242 269.639C519.063 267.575 519.292 265.405 519.345 263.208C519.389 261.559 519.248 259.909 518.948 258.286C518.754 257.21 518.436 256.16 517.951 255.173C517.448 254.158 516.787 253.258 515.931 252.5C514.846 251.53 513.567 250.939 512.165 250.709C510.656 250.462 509.157 250.489 507.648 250.965C506.405 251.362 505.337 251.997 504.438 252.906C503.494 253.858 502.841 255.014 502.418 256.284C502.215 256.91 502.056 257.554 501.924 258.198C501.783 258.913 501.633 259.645 501.606 260.368C501.536 262.3 501.412 264.24 501.756 266.163C501.862 266.781 501.888 267.416 502.056 268.016C502.435 269.321 502.92 270.582 503.723 271.703C504.385 272.62 505.187 273.379 506.158 273.917C507.481 274.649 508.91 275.028 510.471 274.931L510.489 274.94Z" fill="#0891B2"/>
<path d="M461.136 247.11C461.013 247.34 460.969 247.454 460.898 247.551C460.087 248.707 459.275 249.854 458.455 251C457.476 252.368 456.479 253.708 455.509 255.075C454.477 256.531 453.462 258.004 452.43 259.459C451.813 260.333 451.169 261.197 450.534 262.053C450.216 262.476 450.208 262.608 450.516 263.058C451.354 264.258 452.192 265.458 453.03 266.666C454.547 268.854 456.065 271.041 457.582 273.22C458.428 274.437 459.275 275.646 460.122 276.863C460.387 277.242 460.651 277.621 460.916 278.01C460.986 278.107 461.022 278.23 461.11 278.406C460.916 278.442 460.766 278.486 460.625 278.486C458.852 278.486 457.07 278.486 455.297 278.495C454.962 278.495 454.724 278.389 454.53 278.098C453.939 277.189 453.33 276.281 452.73 275.372C451.601 273.652 450.472 271.941 449.343 270.221C448.673 269.189 448.002 268.148 447.332 267.116C447.05 266.684 446.776 266.692 446.476 267.133C445.779 268.174 445.1 269.224 444.403 270.256C443.433 271.694 442.445 273.114 441.466 274.543C440.787 275.549 440.108 276.563 439.429 277.568C439.332 277.718 439.217 277.86 439.12 278.01C438.899 278.345 438.608 278.495 438.176 278.486C436.632 278.459 435.089 278.477 433.554 278.477C433.386 278.477 433.21 278.459 432.963 278.442C433.051 278.239 433.086 278.107 433.157 278.001C434.004 276.801 434.851 275.61 435.706 274.419C436.712 273.008 437.726 271.597 438.732 270.194C439.455 269.18 440.187 268.157 440.91 267.142C441.828 265.863 442.736 264.584 443.654 263.305C443.883 262.979 443.874 262.873 443.61 262.494C442.454 260.818 441.29 259.142 440.134 257.475C438.987 255.834 437.841 254.193 436.703 252.553C435.706 251.115 434.727 249.668 433.73 248.231C433.554 247.984 433.36 247.745 433.183 247.498C433.139 247.437 433.13 247.34 433.095 247.216C433.219 247.19 433.316 247.146 433.413 247.146C435.186 247.146 436.968 247.163 438.741 247.146C439.252 247.146 439.587 247.313 439.852 247.728C440.558 248.839 441.272 249.951 441.995 251.053C442.533 251.874 443.08 252.694 443.627 253.505C444.253 254.44 444.871 255.375 445.497 256.31C445.947 256.998 446.397 257.686 446.847 258.374C447.129 258.798 447.358 258.798 447.641 258.366C448.258 257.431 448.867 256.478 449.493 255.543C450.128 254.59 450.79 253.664 451.425 252.72C452.157 251.635 452.871 250.55 453.595 249.465C453.983 248.883 454.38 248.31 454.759 247.728C455.05 247.269 455.421 247.04 456.003 247.057C457.511 247.093 459.019 247.066 460.519 247.066C460.687 247.066 460.854 247.093 461.128 247.11H461.136Z" fill="#0891B2"/>
<defs>
<linearGradient id="paint0_linear_630_426" x1="50.0005" y1="284.601" x2="218.48" y2="284.601" gradientUnits="userSpaceOnUse">
<stop stop-color="#1C9BCF"/>
<stop offset="1" stop-color="#04B4B0"/>
</linearGradient>
</defs>
</svg>
