<svg width="600" height="400" viewBox="0 0 600 400" fill="none" xmlns="http://www.w3.org/2000/svg">
<path fill-rule="evenodd" clip-rule="evenodd" d="M107.13 115.508C102.726 116.605 97.1016 118.43 92.6833 120.197L87.9263 122.1L88.2271 124.007C90.433 137.987 98.7016 148.813 111.181 154.06C116.369 156.241 121.435 157.104 127.179 156.786C133.134 156.456 136.342 155.616 141.734 152.974C151.578 148.152 159.461 138.285 161.562 128.158C161.977 126.155 162.417 124.032 162.537 123.442C162.73 122.496 162.357 122.183 159.397 120.81C155.55 119.025 148.216 116.587 144.012 115.696L141.144 115.088L140.961 119.568C140.802 123.44 140.594 124.387 139.427 126.543C134.4 135.833 122.299 137.925 114.621 130.832C110.754 127.258 108.954 122.418 109.54 117.168C109.676 115.95 109.605 114.974 109.381 115.001C109.158 115.027 108.145 115.256 107.13 115.508ZM69.2567 134.941C65.4438 138.3 59.2086 144.877 58.3098 146.486C57.8539 147.303 62.5043 154.19 66.8247 159.097C79.3053 173.271 96.7883 182.658 114.973 184.949C120.93 185.699 131.659 185.575 137.537 184.687C148.453 183.038 161.39 177.713 170.583 171.085C178.196 165.596 187.667 155.482 191.757 148.474L192.733 146.801L189.244 142.766C185.962 138.971 177.722 131.278 176.939 131.278C176.743 131.278 175.975 132.485 175.233 133.96C171.707 140.97 164.803 148.824 157.999 153.563C148.097 160.462 137.177 163.929 125.355 163.929C110.602 163.929 96.7716 158.366 85.9885 148.094C82.2725 144.554 77.5082 138.298 75.4042 134.195C74.582 132.593 73.7982 131.281 73.6616 131.28C73.5251 131.279 71.5424 132.927 69.2567 134.941ZM45.1579 170.11C43.0378 175.852 40.1458 188.228 40.7092 189.149C40.8037 189.304 42.013 189.336 43.3963 189.22C49.5664 188.703 61.0952 191.037 68.273 194.258C78.4762 198.835 88.05 207.378 93.876 217.104C99.9788 227.292 103.02 240.465 101.858 251.68C100.913 260.811 98.4202 268.745 94.2533 275.887C93.134 277.805 92.3802 279.546 92.5777 279.756C93.6126 280.857 107.757 284.939 111.723 285.281C113.429 285.428 113.616 285.318 114.603 283.573C116.518 280.188 120.163 270.133 121.366 264.914C122.902 258.257 123.509 253.098 123.509 246.723C123.509 217.769 107.463 190.878 81.7867 176.803C72.6068 171.771 57.5226 167.661 48.2326 167.661H46.0622L45.1579 170.11ZM194.548 168.372C169.899 172.258 149.213 186.593 137.154 208.146C133.953 213.866 132.159 218.236 130.188 225.112C127.745 233.633 127.037 239.661 127.348 249.288C127.641 258.373 128.49 263.354 131.136 271.522C132.751 276.505 136.419 284.876 137.175 285.305C138.292 285.94 151.565 282.619 156.853 280.384L158.591 279.649L157.204 277.369C151.739 268.389 148.434 256.674 148.431 246.257C148.43 242.323 149.547 235.34 150.969 230.398C157.793 206.682 179.77 189.744 204.133 189.425L209.781 189.351L209.779 187.951C209.775 184.918 207.124 174.15 205.1 168.944C204.624 167.717 204.469 167.663 201.543 167.706C199.862 167.731 196.713 168.031 194.548 168.372ZM49.9176 203.14C46.4844 203.713 39.9972 205.942 40 206.547C40.0083 208.713 42.0121 219.984 42.9884 223.363C44.649 229.107 44.5027 228.955 46.8364 227.37C50.0278 225.202 52.9729 224.422 57.0105 224.673C62.8928 225.037 67.4951 228.094 70.2948 233.497C71.4465 235.72 71.5899 236.483 71.5959 240.426C71.6024 244.411 71.4663 245.13 70.2482 247.56C68.6315 250.786 65.7377 253.61 62.4891 255.132L60.117 256.242L64.9372 261.08C67.5883 263.741 71.4488 267.206 73.5162 268.782L77.2747 271.647L79.063 270.337C81.699 268.406 85.966 263.48 88.0237 259.991C94.4947 249.017 95.0797 235.259 89.5559 223.954C84.1813 212.954 74.6416 205.623 62.6805 203.301C59.0236 202.592 53.6077 202.523 49.9176 203.14ZM187.691 203.365C177.16 205.675 169.348 210.899 163.73 219.39C159.569 225.68 157.191 233.488 157.191 240.865C157.191 250.742 161.922 261.311 169.503 268.373C172.447 271.116 173.149 271.564 173.881 271.168C175.954 270.047 184.101 263.021 187.125 259.747L190.422 256.178L187.763 254.903C184.845 253.503 181.844 250.515 180.181 247.352C179.273 245.624 179.114 244.633 179.11 240.66C179.106 235.097 180.039 232.682 183.575 229.103C186.503 226.14 189.258 224.959 193.871 224.691C198.034 224.449 201.713 225.51 204.279 227.693C205.047 228.347 205.742 228.803 205.824 228.707C206.16 228.312 207.973 222.245 208.664 219.203C209.685 214.706 210.696 206.685 210.295 206.255C209.767 205.688 204.742 204.005 201.484 203.305C197.714 202.495 191.537 202.522 187.691 203.365Z" fill="#0A0A0B"/>
<path d="M548.932 126.371H559.999V186.354H548.932V126.371Z" fill="#0A0A0B"/>
<path d="M489.393 186.354L511.02 126.371H524.453L546.081 186.354H534.507L529.607 172.245H505.867L500.967 186.354H489.393ZM509.162 162.698H526.312L517.694 137.522L509.162 162.698Z" fill="#0A0A0B"/>
<path d="M458.657 126.371H469.64V174.61C469.64 176.723 470.738 177.821 472.766 177.821H476.23V186.354H469.893C463.219 186.354 458.657 182.214 458.657 175.117V126.371Z" fill="#0A0A0B"/>
<path d="M411.73 155.179C413.504 145.97 420.77 140.563 431.752 140.563C444.678 140.563 451.521 147.238 451.521 159.826V175.117C451.521 177.736 452.62 178.412 454.309 178.412H455.999V186.353L453.464 186.438C450.001 186.438 442.82 186.522 441.975 179.595C439.947 183.988 434.878 187.367 427.106 187.367C418.151 187.367 411.054 182.552 411.054 174.61C411.054 165.908 417.475 163.12 427.951 161.008L440.539 158.474C440.454 151.715 437.582 148.42 431.752 148.42C427.021 148.42 423.98 150.955 422.882 155.855L411.73 155.179ZM422.29 174.272C422.29 177.314 424.825 179.679 430.063 179.679C436.145 179.679 440.708 175.286 440.708 166.415V165.908L432.259 167.429C426.599 168.527 422.29 169.119 422.29 174.272Z" fill="#0A0A0B"/>
<path d="M366.119 126.371H377.101V147.576C379.636 143.183 384.705 140.564 390.45 140.564C402.108 140.564 409.374 149.603 409.374 163.966C409.374 178.328 402.108 187.367 390.45 187.367C384.367 187.367 379.214 184.579 376.764 180.017L376.51 186.354H366.119V126.371ZM376.341 163.966C376.341 172.836 380.565 178.581 387.239 178.581C393.829 178.581 398.138 172.836 398.138 163.966C398.138 154.841 393.914 149.097 387.239 149.097C380.65 149.097 376.341 154.841 376.341 163.966Z" fill="#0A0A0B"/>
<path d="M341.722 187.367C328.374 187.367 319.588 178.158 319.588 163.965C319.588 149.772 328.374 140.563 341.722 140.563C355.071 140.563 363.857 149.772 363.857 163.965C363.857 178.158 355.071 187.367 341.722 187.367ZM330.824 163.965C330.824 173.174 334.795 178.496 341.722 178.496C348.65 178.496 352.621 173.174 352.621 163.965C352.621 154.757 348.65 149.434 341.722 149.434C334.795 149.434 330.824 154.757 330.824 163.965Z" fill="#0A0A0B"/>
<path d="M302.126 126.371H313.109V174.61C313.109 176.723 314.207 177.821 316.235 177.821H319.698V186.354H313.362C306.688 186.354 302.126 182.214 302.126 175.117V126.371Z" fill="#0A0A0B"/>
<path d="M298.024 186.353H291.012L290.336 177.314C287.632 183.565 280.536 187.705 272.341 187.705C255.191 187.705 244.461 174.019 244.461 156.446C244.461 138.789 255.106 125.019 272.763 125.019C286.112 125.019 295.067 132.96 297.855 145.632L286.365 146.224C284.675 138.958 279.944 134.734 272.594 134.734C261.02 134.734 255.867 144.365 255.867 156.446C255.867 168.443 261.105 177.989 272.594 177.989C281.212 177.989 286.112 172.16 286.956 164.134H272.594V155.348H298.024V186.353Z" fill="#0A0A0B"/>
<path d="M406.679 263.708C393.33 263.708 384.544 254.499 384.544 240.306C384.544 226.113 393.33 216.904 406.679 216.904C420.027 216.904 428.813 226.113 428.813 240.306C428.813 254.499 420.027 263.708 406.679 263.708ZM395.78 240.306C395.78 249.515 399.751 254.837 406.679 254.837C413.606 254.837 417.577 249.515 417.577 240.306C417.577 231.097 413.606 225.775 406.679 225.775C399.751 225.775 395.78 231.097 395.78 240.306Z" fill="#0A0A0B" fill-opacity="0.6"/>
<path d="M340.104 275.367V217.918H350.495L350.749 224.339C353.199 219.523 357.845 216.904 364.182 216.904C377.108 216.904 383.359 227.465 383.359 240.306C383.359 253.148 377.108 263.708 364.182 263.708C358.183 263.708 353.706 261.258 351.087 256.611V275.367H340.104ZM350.242 240.306C350.242 247.994 353.537 254.922 361.14 254.922C368.744 254.922 372.039 247.994 372.039 240.306C372.039 232.703 368.659 225.691 361.14 225.691C353.537 225.691 350.242 232.703 350.242 240.306Z" fill="#0A0A0B" fill-opacity="0.6"/>
<path d="M323.302 217.833H335.552L320.007 239.883L336.143 262.694H323.893L313.502 247.149L303.11 262.694H290.776L307.166 239.799L291.452 217.833H303.702L313.502 232.533L323.302 217.833Z" fill="#0A0A0B" fill-opacity="0.6"/>
<path d="M247.502 202.711H287.97V212.426H258.57V227.887H286.956V237.349H258.57V252.978H288.646V262.694H247.502V202.711Z" fill="#0A0A0B" fill-opacity="0.6"/>
</svg>
