<svg width="600" height="400" viewBox="0 0 600 400" fill="none" xmlns="http://www.w3.org/2000/svg">
<path d="M76.7598 162.269C94.2241 158.567 110.231 164.611 117.93 181.701C125.628 198.792 133.898 237.658 133.898 237.658C133.898 237.658 99.2251 249.275 86.8602 199.324C86.8458 199.393 77.2045 245.941 40 237.658L54.1369 187.47C54.1569 187.387 59.3294 165.963 76.7598 162.269ZM109.897 162.839C133.012 157.267 153.332 164.493 160.203 182.686C167.068 200.86 176.152 237.581 176.171 237.658C139.904 242.009 135.237 208.006 128.917 186.781C123.018 166.94 109.93 162.849 109.897 162.839Z" fill="url(#paint0_linear_630_3224)"/>
<path d="M546.266 199.777C543.467 199.777 541.041 199.161 538.988 197.929C536.936 196.698 535.343 194.975 534.211 192.76C533.091 190.546 532.532 187.958 532.532 184.998C532.532 182.037 533.091 179.443 534.211 177.216C535.343 174.989 536.936 173.26 538.988 172.028C541.041 170.797 543.467 170.181 546.266 170.181C549.065 170.181 551.491 170.797 553.544 172.028C555.596 173.26 557.182 174.989 558.302 177.216C559.434 179.443 560 182.037 560 184.998C560 187.958 559.434 190.546 558.302 192.76C557.182 194.975 555.596 196.698 553.544 197.929C551.491 199.161 549.065 199.777 546.266 199.777ZM546.303 194.365C547.821 194.365 549.09 193.948 550.11 193.115C551.13 192.269 551.889 191.137 552.387 189.719C552.897 188.301 553.152 186.721 553.152 184.979C553.152 183.225 552.897 181.639 552.387 180.22C551.889 178.79 551.13 177.652 550.11 176.806C549.09 175.96 547.821 175.537 546.303 175.537C544.748 175.537 543.454 175.96 542.422 176.806C541.402 177.652 540.637 178.79 540.127 180.22C539.629 181.639 539.38 183.225 539.38 184.979C539.38 186.721 539.629 188.301 540.127 189.719C540.637 191.137 541.402 192.269 542.422 193.115C543.454 193.948 544.748 194.365 546.303 194.365Z" fill="black"/>
<path d="M503.548 209.966V170.554H510.191V175.294H510.583C510.931 174.597 511.423 173.857 512.057 173.073C512.692 172.277 513.55 171.599 514.632 171.039C515.715 170.467 517.096 170.181 518.775 170.181C520.989 170.181 522.986 170.747 524.765 171.879C526.557 172.999 527.975 174.66 529.02 176.862C530.077 179.051 530.606 181.738 530.606 184.923C530.606 188.07 530.09 190.745 529.057 192.947C528.025 195.149 526.619 196.828 524.84 197.985C523.061 199.142 521.045 199.721 518.794 199.721C517.152 199.721 515.789 199.447 514.707 198.9C513.625 198.352 512.754 197.693 512.095 196.922C511.448 196.138 510.944 195.398 510.583 194.701H510.303V209.966H503.548ZM510.172 184.886C510.172 186.739 510.434 188.363 510.956 189.756C511.491 191.149 512.256 192.238 513.251 193.022C514.259 193.793 515.478 194.179 516.909 194.179C518.402 194.179 519.652 193.781 520.66 192.984C521.667 192.176 522.426 191.075 522.936 189.681C523.459 188.276 523.72 186.677 523.72 184.886C523.72 183.107 523.465 181.527 522.955 180.146C522.445 178.765 521.686 177.683 520.678 176.899C519.671 176.115 518.414 175.723 516.909 175.723C515.466 175.723 514.241 176.103 513.233 176.862C512.225 177.62 511.46 178.684 510.938 180.053C510.428 181.421 510.172 183.032 510.172 184.886Z" fill="black"/>
<path d="M482.14 170.554L487.925 181.135L493.803 170.554H500.95L492.31 184.886L501.099 199.217H493.99L487.925 188.898L481.916 199.217H474.751L483.484 184.886L474.975 170.554H482.14Z" fill="black"/>
<path d="M447.624 199.217V161H472.48V166.803H454.547V177.179H471.192V182.982H454.547V193.414H472.629V199.217H447.624Z" fill="black"/>
<path d="M417.083 199.721C414.831 199.721 412.816 199.142 411.037 197.985C409.258 196.828 407.852 195.149 406.82 192.947C405.787 190.745 405.271 188.07 405.271 184.923C405.271 181.738 405.793 179.051 406.838 176.862C407.896 174.66 409.32 172.999 411.112 171.879C412.903 170.747 414.9 170.181 417.102 170.181C418.781 170.181 420.162 170.467 421.244 171.039C422.327 171.599 423.185 172.277 423.819 173.073C424.454 173.857 424.945 174.597 425.294 175.294H425.574V161H432.347V199.217H425.704V194.701H425.294C424.945 195.398 424.441 196.138 423.782 196.922C423.123 197.693 422.252 198.352 421.17 198.9C420.087 199.447 418.725 199.721 417.083 199.721ZM418.968 194.179C420.398 194.179 421.617 193.793 422.625 193.022C423.633 192.238 424.398 191.149 424.92 189.756C425.443 188.363 425.704 186.739 425.704 184.886C425.704 183.032 425.443 181.421 424.92 180.053C424.41 178.684 423.651 177.62 422.644 176.862C421.649 176.103 420.423 175.723 418.968 175.723C417.462 175.723 416.206 176.115 415.198 176.899C414.191 177.683 413.432 178.765 412.922 180.146C412.412 181.527 412.157 183.107 412.157 184.886C412.157 186.677 412.412 188.276 412.922 189.681C413.444 191.075 414.209 192.176 415.217 192.984C416.237 193.781 417.487 194.179 418.968 194.179Z" fill="black"/>
<path d="M389.606 199.777C386.807 199.777 384.381 199.161 382.328 197.929C380.276 196.698 378.683 194.975 377.551 192.76C376.431 190.546 375.872 187.958 375.872 184.998C375.872 182.037 376.431 179.443 377.551 177.216C378.683 174.989 380.276 173.26 382.328 172.028C384.381 170.797 386.807 170.181 389.606 170.181C392.405 170.181 394.831 170.797 396.884 172.028C398.936 173.26 400.522 174.989 401.642 177.216C402.774 179.443 403.34 182.037 403.34 184.998C403.34 187.958 402.774 190.546 401.642 192.76C400.522 194.975 398.936 196.698 396.884 197.929C394.831 199.161 392.405 199.777 389.606 199.777ZM389.643 194.365C391.161 194.365 392.43 193.948 393.45 193.115C394.47 192.269 395.229 191.137 395.727 189.719C396.237 188.301 396.492 186.721 396.492 184.979C396.492 183.225 396.237 181.639 395.727 180.22C395.229 178.79 394.47 177.652 393.45 176.806C392.43 175.96 391.161 175.537 389.643 175.537C388.088 175.537 386.794 175.96 385.762 176.806C384.742 177.652 383.977 178.79 383.467 180.22C382.969 181.639 382.72 183.225 382.72 184.979C382.72 186.721 382.969 188.301 383.467 189.719C383.977 191.137 384.742 192.269 385.762 193.115C386.794 193.948 388.088 194.365 389.643 194.365Z" fill="black"/>
<path d="M360.263 199.777C357.464 199.777 355.038 199.161 352.986 197.929C350.933 196.698 349.341 194.975 348.208 192.76C347.089 190.546 346.529 187.958 346.529 184.998C346.529 182.037 347.089 179.443 348.208 177.216C349.341 174.989 350.933 173.26 352.986 172.028C355.038 170.797 357.464 170.181 360.263 170.181C363.062 170.181 365.488 170.797 367.541 172.028C369.594 173.26 371.18 174.989 372.299 177.216C373.431 179.443 373.997 182.037 373.997 184.998C373.997 187.958 373.431 190.546 372.299 192.76C371.18 194.975 369.594 196.698 367.541 197.929C365.488 199.161 363.062 199.777 360.263 199.777ZM360.301 194.365C361.818 194.365 363.087 193.948 364.107 193.115C365.127 192.269 365.886 191.137 366.384 189.719C366.894 188.301 367.149 186.721 367.149 184.979C367.149 183.225 366.894 181.639 366.384 180.22C365.886 178.79 365.127 177.652 364.107 176.806C363.087 175.96 361.818 175.537 360.301 175.537C358.745 175.537 357.452 175.96 356.419 176.806C355.399 177.652 354.634 178.79 354.124 180.22C353.626 181.639 353.377 183.225 353.377 184.979C353.377 186.721 353.626 188.301 354.124 189.719C354.634 191.137 355.399 192.269 356.419 193.115C357.452 193.948 358.745 194.365 360.301 194.365Z" fill="black"/>
<path d="M322.001 199.217V161H346.483V166.803H328.924V177.179H344.804V182.982H328.924V199.217H322.001Z" fill="black"/>
<path d="M305.869 199.777C302.995 199.777 300.514 199.18 298.424 197.985C296.346 196.779 294.747 195.074 293.628 192.872C292.508 190.658 291.948 188.052 291.948 185.054C291.948 182.105 292.508 179.518 293.628 177.291C294.76 175.051 296.34 173.31 298.368 172.066C300.395 170.809 302.778 170.181 305.515 170.181C307.281 170.181 308.948 170.467 310.516 171.039C312.096 171.599 313.489 172.47 314.696 173.652C315.915 174.834 316.873 176.339 317.569 178.168C318.266 179.984 318.614 182.149 318.614 184.662V186.733H295.121V182.18H312.139C312.127 180.886 311.847 179.735 311.299 178.728C310.752 177.707 309.987 176.905 309.004 176.32C308.034 175.736 306.902 175.443 305.608 175.443C304.227 175.443 303.014 175.779 301.969 176.451C300.924 177.11 300.109 177.981 299.524 179.064C298.952 180.133 298.66 181.309 298.647 182.59V186.565C298.647 188.232 298.952 189.663 299.562 190.857C300.171 192.039 301.024 192.947 302.118 193.581C303.213 194.204 304.494 194.515 305.962 194.515C306.945 194.515 307.835 194.378 308.631 194.104C309.427 193.818 310.118 193.401 310.702 192.854C311.287 192.306 311.729 191.628 312.027 190.82L318.334 191.529C317.936 193.196 317.177 194.651 316.058 195.895C314.951 197.127 313.532 198.085 311.803 198.769C310.074 199.441 308.096 199.777 305.869 199.777Z" fill="black"/>
<path d="M276.153 199.217V170.554H282.703V175.331H283.001C283.524 173.677 284.42 172.402 285.688 171.506C286.97 170.598 288.432 170.144 290.074 170.144C290.447 170.144 290.864 170.162 291.324 170.2C291.797 170.225 292.189 170.268 292.5 170.33V176.544C292.213 176.445 291.759 176.358 291.137 176.283C290.528 176.196 289.937 176.152 289.365 176.152C288.133 176.152 287.026 176.42 286.043 176.955C285.073 177.477 284.308 178.205 283.748 179.138C283.188 180.071 282.908 181.147 282.908 182.366V199.217H276.153Z" fill="black"/>
<path d="M259.313 199.777C256.514 199.777 254.088 199.161 252.035 197.929C249.982 196.698 248.39 194.975 247.258 192.76C246.138 190.546 245.579 187.958 245.579 184.998C245.579 182.037 246.138 179.443 247.258 177.216C248.39 174.989 249.982 173.26 252.035 172.028C254.088 170.797 256.514 170.181 259.313 170.181C262.112 170.181 264.538 170.797 266.59 172.028C268.643 173.26 270.229 174.989 271.349 177.216C272.481 179.443 273.047 182.037 273.047 184.998C273.047 187.958 272.481 190.546 271.349 192.76C270.229 194.975 268.643 196.698 266.59 197.929C264.538 199.161 262.112 199.777 259.313 199.777ZM259.35 194.365C260.868 194.365 262.137 193.948 263.157 193.115C264.177 192.269 264.936 191.137 265.433 189.719C265.944 188.301 266.199 186.721 266.199 184.979C266.199 183.225 265.944 181.639 265.433 180.22C264.936 178.79 264.177 177.652 263.157 176.806C262.137 175.96 260.868 175.537 259.35 175.537C257.795 175.537 256.501 175.96 255.469 176.806C254.449 177.652 253.683 178.79 253.173 180.22C252.676 181.639 252.427 183.225 252.427 184.979C252.427 186.721 252.676 188.301 253.173 189.719C253.683 191.137 254.449 192.269 255.469 193.115C256.501 193.948 257.795 194.365 259.35 194.365Z" fill="black"/>
<path d="M202.114 161H210.586L221.932 188.692H222.38L233.725 161H242.197V199.217H235.554V172.961H235.2L224.638 199.105H219.674L209.112 172.905H208.757V199.217H202.114V161Z" fill="black"/>
<path d="M541.561 238.542H538.784L545.023 221.206H548.045L554.284 238.542H551.507L546.606 224.355H546.471L541.561 238.542ZM542.026 231.753H551.033V233.954H542.026V231.753Z" fill="black"/>
<path d="M508.635 221.206V238.542H506.02V221.206H508.635Z" fill="black"/>
<path d="M472.482 225.76C472.392 224.959 472.019 224.338 471.365 223.898C470.71 223.452 469.886 223.229 468.893 223.229C468.182 223.229 467.566 223.342 467.047 223.568C466.528 223.788 466.125 224.092 465.837 224.482C465.555 224.866 465.414 225.303 465.414 225.794C465.414 226.206 465.509 226.561 465.701 226.861C465.899 227.16 466.156 227.411 466.472 227.614C466.793 227.811 467.138 227.978 467.504 228.113C467.871 228.243 468.224 228.35 468.563 228.435L470.256 228.875C470.809 229.011 471.376 229.194 471.957 229.425C472.538 229.657 473.077 229.962 473.574 230.34C474.071 230.718 474.471 231.186 474.776 231.745C475.086 232.304 475.242 232.972 475.242 233.751C475.242 234.733 474.988 235.605 474.48 236.367C473.977 237.129 473.247 237.73 472.287 238.17C471.333 238.61 470.179 238.83 468.825 238.83C467.527 238.83 466.404 238.624 465.456 238.212C464.508 237.8 463.766 237.216 463.229 236.46C462.693 235.698 462.397 234.795 462.341 233.751H464.965C465.016 234.378 465.219 234.9 465.574 235.317C465.936 235.729 466.395 236.037 466.954 236.24C467.519 236.437 468.136 236.536 468.808 236.536C469.547 236.536 470.205 236.421 470.78 236.189C471.362 235.952 471.819 235.625 472.152 235.207C472.485 234.784 472.651 234.29 472.651 233.726C472.651 233.212 472.505 232.792 472.211 232.464C471.923 232.137 471.531 231.866 471.034 231.652C470.543 231.437 469.988 231.248 469.367 231.085L467.318 230.526C465.93 230.148 464.829 229.592 464.017 228.858C463.21 228.125 462.806 227.154 462.806 225.946C462.806 224.947 463.077 224.075 463.619 223.331C464.161 222.586 464.894 222.007 465.82 221.595C466.745 221.178 467.789 220.969 468.952 220.969C470.126 220.969 471.161 221.175 472.059 221.587C472.962 221.999 473.673 222.566 474.192 223.288C474.711 224.005 474.982 224.829 475.005 225.76H472.482Z" fill="black"/>
<path d="M421.011 238.542V221.206H431.88V223.458H423.626V228.74H431.313V230.983H423.626V236.291H431.982V238.542H421.011Z" fill="black"/>
<path d="M389.543 221.206V238.542H387.139L378.327 225.828H378.166V238.542H375.55V221.206H377.972L386.792 233.937H386.953V221.206H389.543Z" fill="black"/>
<path d="M344.637 229.874C344.637 231.725 344.298 233.317 343.621 234.648C342.944 235.975 342.015 236.996 340.836 237.713C339.662 238.424 338.327 238.78 336.832 238.78C335.331 238.78 333.99 238.424 332.811 237.713C331.637 236.996 330.712 235.972 330.034 234.64C329.357 233.308 329.018 231.72 329.018 229.874C329.018 228.023 329.357 226.434 330.034 225.108C330.712 223.776 331.637 222.755 332.811 222.044C333.99 221.327 335.331 220.969 336.832 220.969C338.327 220.969 339.662 221.327 340.836 222.044C342.015 222.755 342.944 223.776 343.621 225.108C344.298 226.434 344.637 228.023 344.637 229.874ZM342.046 229.874C342.046 228.463 341.818 227.275 341.361 226.31C340.909 225.34 340.288 224.606 339.498 224.109C338.714 223.607 337.825 223.356 336.832 223.356C335.833 223.356 334.941 223.607 334.157 224.109C333.372 224.606 332.752 225.34 332.295 226.31C331.843 227.275 331.617 228.463 331.617 229.874C331.617 231.285 331.843 232.476 332.295 233.446C332.752 234.411 333.372 235.145 334.157 235.647C334.941 236.144 335.833 236.392 336.832 236.392C337.825 236.392 338.714 236.144 339.498 235.647C340.288 235.145 340.909 234.411 341.361 233.446C341.818 232.476 342.046 231.285 342.046 229.874Z" fill="black"/>
<path d="M290.334 238.542H284.722V221.206H290.512C292.211 221.206 293.67 221.553 294.889 222.247C296.108 222.935 297.042 223.926 297.691 225.218C298.345 226.505 298.673 228.048 298.673 229.849C298.673 231.655 298.342 233.207 297.682 234.505C297.028 235.803 296.079 236.801 294.838 237.501C293.596 238.195 292.095 238.542 290.334 238.542ZM287.338 236.257H290.191C291.511 236.257 292.609 236.009 293.483 235.512C294.358 235.01 295.013 234.284 295.447 233.336C295.882 232.383 296.099 231.22 296.099 229.849C296.099 228.489 295.882 227.335 295.447 226.386C295.018 225.438 294.378 224.719 293.526 224.228C292.674 223.737 291.615 223.491 290.351 223.491H287.338V236.257Z" fill="black"/>
<path d="M253.254 221.206V238.542H250.85L242.038 225.828H241.877V238.542H239.261V221.206H241.682L250.503 233.937H250.664V221.206H253.254Z" fill="black"/>
<path d="M207.8 221.206V238.542H205.184V221.206H207.8Z" fill="black"/>
<defs>
<linearGradient id="paint0_linear_630_3224" x1="128.641" y1="158.724" x2="165.754" y2="239.311" gradientUnits="userSpaceOnUse">
<stop offset="0.11" stop-color="#E6214D"/>
<stop offset="1" stop-color="#E60013"/>
</linearGradient>
</defs>
</svg>
