<svg width="571" height="122" viewBox="0 0 571 122" fill="none" xmlns="http://www.w3.org/2000/svg">
<g clip-path="url(#clip0_152_526)">
<path fill-rule="evenodd" clip-rule="evenodd" d="M379.574 11.535C377.556 11.0044 373.55 -0.604374 376.719 0.168153C394.381 4.7114 410.695 14.8123 424.638 23.9832C439.614 33.7991 452.072 47.0093 461.002 62.544C463.103 66.0164 457.637 67.4223 455.861 64.5077C447.756 50.5989 439.948 39.0456 426.701 30.3222C412.963 21.2917 397.086 16.0411 379.574 11.535ZM560.093 69.3208C561.553 70.1122 572.429 63.1373 570.179 61.873C557.639 55.0953 541.948 52.0883 527.215 51.9768C511.942 51.8556 494.847 57.209 475.801 66.6678C471.757 68.6135 473.551 72.3082 476.962 70.6896C493.034 62.7094 507.333 57.9539 521.368 58.0563C535.915 58.1679 547.72 62.5996 560.139 69.3213L560.093 69.3208ZM492.477 45.3387C481.601 57.1434 470.659 40.6174 464.36 32.0256C462.361 30.0335 456.44 31.9696 459.126 34.9954C467.046 45.7949 482.003 60.076 494.84 46.1672C495.268 45.7017 495.09 45.1431 494.431 44.9288C494.098 44.8205 493.742 44.8015 493.4 44.8734C493.057 44.9454 492.739 45.1059 492.477 45.3391V45.3387Z" fill="#F20100"/>
<path fill-rule="evenodd" clip-rule="evenodd" d="M7.4083 38.2535H21.0265C27.9918 38.2535 32.7543 39.1845 35.3138 41.0466C37.8606 42.9083 38.7996 45.9437 38.1026 50.2801L37.647 53.14C36.9795 57.255 35.1373 60.2808 32.0698 62.2169C29.0024 64.153 24.6329 65.1311 18.8697 65.1311H15.2912L12.5024 82.27H0.325134L7.4083 38.2535ZM263.576 55.5976L259.29 82.2329H249.065L249.298 78.0247C248.103 79.554 246.649 80.8617 245.003 81.8882C243.672 82.6792 242.154 83.1002 240.606 83.1077C237.817 83.1077 235.958 82.27 234.899 80.5662C233.839 78.8624 233.644 76.2745 234.183 72.8205L234.889 68.4636C235.059 67.0236 235.57 65.645 236.378 64.4421C237.187 63.2391 238.27 62.2464 239.537 61.5463C242.14 60.094 246.416 59.1723 252.375 58.8281L252.774 56.3145C253.093 55.0116 253.122 53.6543 252.858 52.3391C252.727 52 252.487 51.7146 252.175 51.5288C251.863 51.3431 251.498 51.2678 251.138 51.315C250.702 51.2865 250.265 51.3609 249.863 51.5323C249.461 51.7037 249.105 51.9673 248.824 52.3019C248.154 53.3264 247.746 54.4996 247.634 55.7187L247.541 56.3154H238.106L238.208 55.6469C238.827 51.681 240.19 48.9285 242.296 47.3893C244.402 45.8501 247.81 45.0868 252.521 45.0993C257.343 45.0993 260.547 45.8596 262.133 47.3801C263.719 48.9007 264.187 51.6564 263.537 55.6473L263.576 55.5976ZM251.417 64.964C249.88 64.9846 248.378 65.4291 247.076 66.2488C246.112 67.1379 245.518 68.3577 245.412 69.6656L245.04 72.0208C244.736 73.2434 244.736 74.5221 245.04 75.7447C245.206 76.0852 245.475 76.3643 245.809 76.5417C246.143 76.719 246.525 76.7855 246.899 76.7316C247.325 76.7563 247.75 76.6758 248.138 76.4972C248.525 76.3187 248.863 76.0475 249.121 75.7075C249.793 74.5721 250.2 73.299 250.311 71.9836L251.454 64.9268L251.417 64.964ZM216.735 50.4773C218.059 48.8447 219.646 47.4445 221.43 46.3344C222.879 45.4868 224.529 45.0432 226.207 45.0496C228.922 45.0496 230.697 45.8099 231.534 47.3304C232.38 48.8479 232.463 51.6593 231.813 55.7091L227.546 82.2049H217.042L221.13 56.808C221.416 55.6808 221.416 54.5 221.13 53.3728C220.964 53.0532 220.704 52.7925 220.384 52.626C220.065 52.4596 219.703 52.3953 219.346 52.4419C218.938 52.4229 218.532 52.5037 218.163 52.6773C217.794 52.8508 217.472 53.1119 217.227 53.4379C216.599 54.4785 216.21 55.6452 216.086 56.8543L212.006 82.2512H201.41L205.498 56.8543C205.778 55.7326 205.778 54.5592 205.498 53.4375C205.345 53.1031 205.089 52.8263 204.768 52.6472C204.447 52.4681 204.078 52.396 203.713 52.4415C203.307 52.4224 202.902 52.5032 202.535 52.6769C202.167 52.8505 201.847 53.1116 201.603 53.4375C200.967 54.4749 200.573 55.643 200.45 56.8543L196.37 82.2512H185.809L191.646 45.9437H202.039L201.667 50.1519C202.918 48.623 204.421 47.3195 206.111 46.2976C207.465 45.4966 209.007 45.0692 210.58 45.0588C212.211 44.9579 213.822 45.4616 215.107 46.4739C215.651 46.9834 216.079 47.6053 216.36 48.2965C216.641 48.9877 216.769 49.7318 216.735 50.4773V50.4773ZM184.126 55.5976L179.841 82.2329H169.616L169.858 78.0247C168.658 79.5528 167.201 80.8601 165.554 81.8882C164.217 82.6823 162.692 83.1034 161.138 83.1077C158.349 83.1077 156.491 82.27 155.44 80.5662C154.39 78.8624 154.147 76.2745 154.715 72.7741L155.412 68.4172C155.581 66.9768 156.091 65.5976 156.899 64.3944C157.708 63.1912 158.791 62.1989 160.06 61.5C162.663 60.0477 166.948 59.126 172.897 58.7817L173.297 56.2682C173.618 54.9658 173.65 53.6087 173.39 52.2927C173.257 51.9555 173.016 51.6721 172.705 51.4868C172.394 51.3015 172.03 51.2248 171.671 51.2687C171.235 51.2401 170.798 51.3145 170.396 51.4859C169.994 51.6573 169.638 51.9209 169.356 52.2555C168.679 53.2771 168.267 54.4514 168.157 55.6724L168.064 56.2682H158.657L158.768 55.5997C159.388 51.6338 160.748 48.8813 162.849 47.3421C164.94 45.8154 168.349 45.0521 173.074 45.0521C177.796 45.0521 181.106 45.8154 182.686 47.3329C184.266 48.8504 184.73 51.6063 184.09 55.6001L184.126 55.5976ZM171.968 64.964C170.437 64.988 168.942 65.4324 167.645 66.2488C166.675 67.1328 166.079 68.3555 165.981 69.6656L165.6 72.0208C165.296 73.2433 165.296 74.5222 165.6 75.7447C165.766 76.0852 166.035 76.3643 166.369 76.5417C166.703 76.719 167.085 76.7855 167.459 76.7316C167.883 76.7545 168.306 76.6731 168.692 76.4946C169.077 76.3161 169.413 76.0459 169.67 75.7075C170.342 74.5721 170.749 73.299 170.86 71.9836L172.003 64.9268L171.968 64.964ZM156.973 45.8225C156.831 45.833 156.688 45.833 156.546 45.8225H156.137C154.828 45.8149 153.542 46.1659 152.419 46.8374C150.973 47.7637 149.684 48.9138 148.598 50.2446L148.998 45.9713H138.615L132.768 82.2788H143.476L146.86 61.3048C147.305 58.4994 148.179 56.5474 149.482 55.4488C150.783 54.3408 152.874 53.7638 155.728 53.717L156.973 45.8225ZM130.324 61.3324L129.44 66.8249C128.436 73.0313 126.775 77.2952 124.458 79.6165C122.14 81.9379 118.474 83.1016 113.461 83.1077C108.46 83.1077 105.166 81.944 103.58 79.6165C101.993 77.2891 101.684 73.0252 102.65 66.8249L103.58 61.332C104.577 55.1256 106.235 50.8648 108.553 48.5496C110.871 46.2344 114.527 45.0676 119.522 45.0492C124.547 45.0492 127.853 46.2098 129.44 48.5312C131.026 50.8525 131.321 55.1196 130.324 61.3324ZM120.434 56.3605C120.741 55.0471 120.741 53.6801 120.434 52.3667C120.289 52.0035 120.027 51.6988 119.691 51.5C119.355 51.3013 118.962 51.2198 118.575 51.2682C118.14 51.2442 117.707 51.3295 117.314 51.5165C116.921 51.7035 116.581 51.9862 116.325 52.3387C115.638 53.5656 115.213 54.9228 115.08 56.3233L112.586 71.7684C112.279 73.0788 112.279 74.4427 112.586 75.7531C112.737 76.1094 113.001 76.4061 113.337 76.5978C113.673 76.7895 114.062 76.8656 114.445 76.8143C114.889 76.8404 115.333 76.7533 115.734 76.5612C116.135 76.3691 116.481 76.0783 116.74 75.7159C117.428 74.5024 117.852 73.1573 117.986 71.7684L120.477 56.3237L120.434 56.3605ZM98.7564 55.7367L94.4892 82.2329H83.7261L87.8144 56.836C88.0678 55.6986 88.0678 54.5193 87.8144 53.3819C87.6845 53.0703 87.4556 52.8102 87.1633 52.642C86.8709 52.4737 86.5313 52.4066 86.1971 52.4511C85.8041 52.4371 85.414 52.5228 85.063 52.7002C84.712 52.8776 84.4114 53.141 84.1892 53.4659C83.5822 54.5057 83.208 55.6651 83.0925 56.864L79.0038 82.2613H68.3408L74.1879 45.9537H84.5897L84.2084 50.1619C85.4569 48.6322 86.9524 47.3227 88.6329 46.288C89.9859 45.4885 91.5258 45.0613 93.0967 45.0496C95.8108 45.0496 97.605 45.8129 98.4511 47.3396C99.2971 48.8663 99.3789 51.6777 98.736 55.7187L98.7564 55.7367ZM66.668 55.5972C67.2876 51.6001 66.8197 48.8444 65.2642 47.33C63.7087 45.8156 60.5048 45.0553 55.6526 45.0492C50.8932 45.0492 47.4848 45.8125 45.4273 47.3392C43.3698 48.8659 42.007 51.6184 41.339 55.5967L41.2368 56.2652H50.6719L50.765 55.6694C50.8769 54.4503 51.2854 53.2771 51.9547 52.2526C52.2335 51.922 52.5851 51.6607 52.9819 51.4894C53.3787 51.3182 53.8099 51.2416 54.2413 51.2657C54.6114 51.2129 54.9883 51.2909 55.3072 51.4862C55.6261 51.6816 55.8671 51.9821 55.9888 52.3362C56.2532 53.6513 56.2247 55.0087 55.9054 56.3116L55.5057 58.8251C49.5472 59.1694 45.2804 60.0911 42.6685 61.5434C41.4017 62.2447 40.3196 63.2378 39.5114 64.4405C38.7033 65.6432 38.1924 67.0212 38.0208 68.4606L37.2749 72.8188C36.7109 76.3192 36.9526 78.9166 37.9999 80.6109C39.0429 82.3147 40.956 83.1524 43.7073 83.1524C45.2552 83.1449 46.773 82.7239 48.1043 81.9329C49.7475 80.8907 51.1949 79.5671 52.3803 78.0226L52.1479 82.2308H62.3732L66.668 55.5972ZM54.4995 64.964L53.3656 72.0208C53.2572 73.3379 52.8469 74.6123 52.1667 75.7447C51.9112 76.0849 51.5755 76.3565 51.1897 76.5352C50.8039 76.7139 50.38 76.7941 49.9557 76.7688C49.5814 76.8227 49.1997 76.7562 48.8656 76.5788C48.5315 76.4015 48.2622 76.1224 48.0967 75.7819C47.7871 74.56 47.7871 73.2799 48.0967 72.058L48.478 69.7028C48.5774 68.395 49.1687 67.1738 50.1325 66.2859C51.4315 65.4679 52.9302 65.0235 54.4645 65.0012L54.4995 64.964ZM18.5555 44.8169L16.3445 58.5862H17.4972C19.8304 58.5862 21.5408 58.1859 22.5913 57.3666C23.6417 56.5473 24.348 55.1321 24.683 52.9817L25.1051 50.3654C25.4389 48.2801 25.1982 46.8278 24.4081 46.0268C23.6179 45.2259 22.0469 44.8152 19.7136 44.8152L18.5555 44.8169Z" fill="#FF6600"/>
<path d="M265.872 82.2891L271.607 45.9815V45.87H277.631V46.0283L276.701 51.6136C277.41 50.7081 278.194 49.8641 279.044 49.0904C279.927 48.2893 280.904 47.5985 281.953 47.0331C282.956 46.4929 284.025 46.0856 285.132 45.8215C286.296 45.5484 287.488 45.4141 288.683 45.4212C291.305 45.4212 293.331 45.9707 294.735 47.0783C295.446 47.6326 296.016 48.347 296.399 49.1635C296.764 49.9733 296.989 50.8389 297.066 51.7239C297.854 50.7647 298.715 49.8683 299.641 49.0428C300.554 48.2482 301.548 47.5523 302.606 46.9667V46.9667C304.56 45.8999 306.749 45.3397 308.974 45.3373C310.319 45.3216 311.66 45.5035 312.952 45.8771C314.075 46.1976 315.122 46.7423 316.029 47.4785C316.886 48.1629 317.579 49.0315 318.056 50.0201C318.538 51.0742 318.81 52.2129 318.855 53.3717V55.1035C318.855 55.4574 318.79 55.7833 318.753 56.1556C318.716 56.5278 318.66 56.8817 318.604 57.2636L314.486 82.3998V82.5113H307.786V82.353L312.136 56.5278C312.152 56.3332 312.183 56.1402 312.229 55.9504L312.285 55.429V54.4994C312.269 53.9927 312.149 53.4948 311.931 53.037C311.729 52.6213 311.429 52.2605 311.058 51.985V51.985C310.632 51.6847 310.152 51.4697 309.645 51.352C309 51.1971 308.338 51.1252 307.674 51.1381C306.394 51.1342 305.127 51.4007 303.956 51.9202C302.702 52.473 301.556 53.2454 300.572 54.2011C299.517 55.2463 298.644 56.4607 297.988 57.7942C297.305 59.2088 296.838 60.7184 296.603 62.2723V62.2723L293.248 82.3271V82.4386H286.74V82.2807L290.932 56.2132C290.95 56.0374 290.981 55.8631 291.025 55.6918C291.053 55.516 291.071 55.3389 291.081 55.1612V55.1612V54.2479C291.064 53.7887 290.96 53.337 290.774 52.9167V52.9167C290.59 52.5316 290.319 52.194 289.984 51.9299V51.9299C289.616 51.6439 289.196 51.4321 288.748 51.3061C288.213 51.153 287.658 51.0809 287.102 51.0922C285.738 51.0797 284.384 51.3293 283.114 51.8275C281.836 52.3478 280.666 53.1024 279.665 54.0523V54.0523C278.609 55.0231 277.728 56.1697 277.062 57.4412C276.402 58.7655 275.953 60.1855 275.733 61.6493L272.228 82.3171V82.4286H265.872V82.2891Z" fill="#FF6600"/>
<path d="M328.266 60.9218H348.514C348.554 60.7163 348.576 60.5075 348.579 60.298C348.583 59.9871 348.567 59.6762 348.532 59.3671C348.538 56.8957 347.627 54.5103 345.976 52.6734C345.176 51.8569 344.214 51.2177 343.152 50.7973C342.09 50.3769 340.952 50.1846 339.811 50.233C338.472 50.1931 337.139 50.4194 335.888 50.8988C334.637 51.3782 333.494 52.1012 332.524 53.0261C330.306 55.1555 328.816 57.9313 328.266 60.9582L328.266 60.9218ZM353.559 70.4549C353.085 74.2107 351.189 77.6404 348.261 80.0349C345.125 82.4234 341.257 83.6475 337.32 83.4981C332.561 83.4981 328.843 82.1388 326.165 79.4203C323.488 76.7017 322.016 72.7883 321.75 67.6799C321.406 60.977 322.884 55.4748 326.214 51.2182C327.768 49.1725 329.79 47.53 332.11 46.4285C334.429 45.327 336.978 44.7986 339.544 44.8876C344.024 44.8876 347.662 46.2127 350.456 48.863C353.251 51.5133 354.759 55.086 354.98 59.5811C354.98 60.4376 355.026 61.3873 354.98 62.4222C354.934 63.4571 354.878 64.6194 354.757 65.9226H327.53V66.0993C327.53 67.0953 327.474 67.7843 327.53 68.1942C327.638 70.9878 328.777 73.6419 330.728 75.642C332.429 77.3642 334.816 78.2207 337.876 78.2207C340.129 78.2993 342.334 77.5551 344.08 76.1268C345.825 74.6984 346.994 72.6833 347.366 70.4566L353.559 70.4549Z" fill="#FF6600"/>
<path d="M392.024 82.3084L397.759 46.0189H403.838L398.04 82.3084H392.024Z" fill="#FF6600"/>
<path d="M428.778 64.0514C426.454 64.828 424.031 65.2728 421.583 65.3725C419.615 65.4723 417.655 65.7025 415.718 66.0614C414.237 66.3168 412.891 67.0772 411.906 68.2136C411.057 69.3934 410.673 70.8455 410.828 72.2914C410.839 73.0888 411.009 73.8759 411.329 74.6066C411.648 75.3372 412.11 75.9965 412.687 76.5459C413.917 77.6322 415.52 78.1965 417.158 78.1194C418.709 78.1956 420.256 77.9108 421.679 77.2874C423.101 76.664 424.36 75.7189 425.357 74.5262C427.309 72.1334 428.461 68.6427 428.787 64.025L428.778 64.0514ZM425.989 82.6058L426.454 79.4497C423.763 82.0582 420.15 83.4912 416.405 83.4343C412.886 83.4343 410.097 82.4507 408.04 80.4833C405.879 78.317 404.665 75.3804 404.665 72.3185C404.461 68.4396 405.539 65.5722 407.9 63.7163C410.271 61.8545 414.351 60.7557 420.18 60.3926H420.654C427.198 59.9645 430.386 58.1429 430.219 54.9277C430.223 54.2382 430.055 53.5587 429.73 52.9506C429.406 52.3426 428.935 51.8253 428.36 51.4457C426.73 50.6024 424.901 50.2225 423.071 50.3473C419.715 50.3473 417.4 50.7943 416.155 51.6692C414.909 52.5441 414.054 54.1923 413.617 56.5847H407.603C408.037 52.7687 409.515 49.9044 412.037 47.9917C414.559 46.0789 418.147 45.1262 422.8 45.1334C427.027 45.1334 430.315 45.875 432.663 47.3583C433.764 47.9944 434.684 48.9026 435.335 49.9962C435.986 51.0898 436.346 52.3322 436.381 53.6049C436.395 54.0466 436.373 54.4887 436.316 54.9269C436.251 55.5226 436.13 56.5003 435.925 57.9154L432.049 82.5954L425.989 82.6058Z" fill="#FF6600"/>
<path d="M356.764 82.3069L362.713 44.8909H375.579C377.779 44.8257 379.98 45.0068 382.141 45.4307C384.042 45.8305 385.794 46.7555 387.197 48.1009C388.939 49.8481 390.123 52.0742 390.599 54.4967C391.17 57.431 391.189 60.4464 390.655 63.3877C390.269 65.9997 389.528 68.5465 388.452 70.9567C387.583 72.9305 386.434 74.768 385.04 76.412C383.908 77.7376 382.578 78.8806 381.099 79.8008C379.62 80.6687 378.014 81.297 376.339 81.6626C374.338 82.1077 372.291 82.3201 370.241 82.2956L356.764 82.3069ZM363.048 77.1118H370.587C372.468 77.1678 374.346 76.9482 376.164 76.4601C377.432 76.0839 378.609 75.4501 379.622 74.5983C381.014 73.3452 382.136 71.8216 382.922 70.1202C383.925 67.9611 384.602 65.6642 384.929 63.3054C385.524 59.5814 385.366 56.7876 384.474 54.7871C383.778 53.0117 382.417 51.5786 380.681 50.7933C378.765 50.2053 376.761 49.9595 374.76 50.0671H367.324L363.048 77.1118Z" fill="#FF6600"/>
</g>
<defs>
<clipPath id="clip0_152_526">
<rect width="570.35" height="122" fill="white" transform="translate(0.324829)"/>
</clipPath>
</defs>
</svg>
